<svg width="1346" height="449" viewBox="0 0 1346 449" fill="none" xmlns="http://www.w3.org/2000/svg">
<path fill-rule="evenodd" clip-rule="evenodd" d="M1033.77 431.218C1061.02 442.442 1090.89 448.054 1123.35 448.054C1155.82 448.054 1185.48 442.442 1212.34 431.218C1239.6 419.995 1263.05 404.563 1282.69 384.922C1302.73 364.88 1318.16 341.23 1328.98 313.973C1340.21 286.315 1345.82 256.453 1345.82 224.386C1345.82 192.319 1340.21 162.657 1328.98 135.399C1318.16 107.742 1302.73 84.0922 1282.69 64.4511C1263.05 44.4092 1239.6 28.7765 1212.34 17.553C1185.48 6.32951 1155.82 0.717773 1123.35 0.717773C1090.89 0.717773 1061.02 6.32951 1033.77 17.553C1006.91 28.7765 983.461 44.4092 963.419 64.4511C943.778 84.0922 928.346 107.742 917.122 135.399C906.3 162.657 900.888 192.319 900.888 224.386C900.888 256.453 906.3 286.315 917.122 313.973C928.346 341.23 943.778 364.88 963.419 384.922C983.461 404.563 1006.91 419.995 1033.77 431.218ZM1191.3 387.327C1170.85 396.546 1148.21 401.155 1123.35 401.155C1098.5 401.155 1075.65 396.546 1054.81 387.327C1034.37 378.107 1016.73 365.481 1001.9 349.447C987.069 333.414 975.444 314.775 967.027 293.53C959.01 271.885 955.001 248.837 955.001 224.386C955.001 199.935 959.01 177.087 967.027 155.842C975.444 134.197 987.069 115.358 1001.9 99.324C1016.73 83.2905 1034.37 70.6641 1054.81 61.4448C1075.65 52.2255 1098.5 47.6159 1123.35 47.6159C1148.21 47.6159 1170.85 52.2255 1191.3 61.4448C1212.14 70.6641 1229.98 83.2905 1244.81 99.324C1259.64 115.358 1271.06 134.197 1279.08 155.842C1287.5 177.087 1291.71 199.935 1291.71 224.386C1291.71 248.837 1287.5 271.885 1279.08 293.53C1271.06 314.775 1259.64 333.414 1244.81 349.447C1229.98 365.481 1212.14 378.107 1191.3 387.327ZM371.734 11.5404H422.24V437.231H371.734V11.5404ZM490.692 11.5404H654.234C668.264 11.5404 683.095 13.1438 698.727 16.3505C714.36 19.5572 729.792 24.7681 745.024 31.9832C760.657 38.7974 775.488 47.8163 789.517 59.0398C803.948 70.2633 816.574 83.8918 827.397 99.9253C838.219 115.558 846.837 133.796 853.251 154.64C859.664 175.083 862.871 198.331 862.871 224.386C862.871 250.44 859.664 273.889 853.251 294.733C846.837 315.176 838.219 333.414 827.397 349.447C816.574 365.08 803.948 378.508 789.517 389.732C775.488 400.955 760.657 410.174 745.024 417.389C729.792 424.204 714.36 429.214 698.727 432.421C683.095 435.628 668.264 437.231 654.234 437.231H490.692V11.5404ZM541.198 390.333H637.399C661.85 390.333 684.498 387.126 705.341 380.713C726.185 374.299 744.222 364.479 759.454 351.251C774.686 337.623 786.711 320.386 795.53 299.543C804.348 278.699 808.758 253.647 808.758 224.386C808.758 195.124 804.348 170.072 795.53 149.228C786.711 128.385 774.686 111.349 759.454 98.1215C744.222 84.493 726.185 74.472 705.341 68.0586C684.498 61.6452 661.85 58.4385 637.399 58.4385H541.198V390.333ZM0.181641 11.5402H50.7343V195.525L244.34 11.5402H317.092L106.652 205.746L327.313 437.231H253.358L50.7343 220.778V437.231H0.181641V11.5402Z" fill="white"/>
</svg>
