<svg width="853" height="853" viewBox="0 0 853 853" fill="none" xmlns="http://www.w3.org/2000/svg">
<circle cx="246.357" cy="428.16" r="245.841" stroke="black" stroke-width="1.03255"/>
<circle cx="426.037" cy="246.357" r="245.841" transform="rotate(90 426.037 246.357)" stroke="black" stroke-width="1.03255"/>
<circle cx="605.717" cy="428.16" r="245.841" stroke="black" stroke-width="1.03255"/>
<circle cx="426.037" cy="605.717" r="245.841" transform="rotate(90 426.037 605.717)" stroke="black" stroke-width="1.03255"/>
<path d="M54.3973 410.22L54.9177 409.049C55.7416 409.049 58.1702 409.179 59.9049 409.179C60.8156 409.179 61.7697 409.136 62.8972 409.093C63.9814 409.049 65.1957 409.006 66.4967 409.006C70.2696 409.006 72.6548 409.787 74.3895 411.304C76.1675 412.822 77.165 415.598 77.165 418.807C77.1216 425.702 73.6089 432.728 66.9737 435.503C64.8921 436.371 62.16 436.718 59.4712 436.718C58.3437 436.718 57.2595 436.674 56.1319 436.587C55.0478 436.544 53.9636 436.501 52.836 436.501C51.1014 436.501 48.2391 436.631 47.3284 436.631L47.8055 435.417L49.8003 435.243C50.7544 435.156 51.1014 434.94 51.4917 433.812C51.9253 432.641 52.4457 431.036 54.7876 423.057C56.9993 415.554 57.563 413.126 57.91 411.695C58.0835 410.871 57.91 410.611 57.086 410.524L54.3973 410.22ZM65.4559 410.35H65.4125C63.4176 410.35 63.0273 410.567 62.8538 411.044C62.4635 411.955 61.7697 413.993 59.3845 422.58C57.0426 430.95 56.4789 433.161 56.3054 434.332C56.2187 434.983 56.4355 435.373 58.734 435.373C61.5962 435.373 63.2008 434.94 64.4584 434.246C69.3155 431.644 72.3079 423.751 72.3512 417.636C72.3512 415.338 71.8742 413.56 71.0068 412.475C69.8359 410.914 67.8844 410.35 65.4559 410.35ZM93.5079 429.779L93.6814 431.947C91.6431 435.07 88.087 437.108 84.184 437.108C80.4978 437.108 78.4595 434.896 78.4595 431.036C78.4595 426.873 80.4544 422.146 84.1406 419.327C85.962 418.026 87.9569 417.376 89.9952 417.376C93.6814 417.376 94.9824 419.501 94.9824 421.886C94.9824 423.881 93.4212 425.052 91.9467 425.702C89.735 426.743 85.5284 427.654 83.1432 427.957C82.9697 428.738 82.7962 429.952 82.7962 430.95C82.7962 433.378 83.707 435.2 86.0488 435.2C88.911 435.2 91.3829 433.335 92.8574 429.779H93.5079ZM89.5181 418.677H89.4314C87.8702 418.677 85.1381 420.238 83.4034 426.526C85.2248 426.309 87.7835 425.659 88.9544 425.095C90.559 424.315 91.3829 422.883 91.3829 421.105C91.3829 419.588 90.7324 418.677 89.5181 418.677ZM110.41 417.246L111.32 417.723C110.453 419.674 109.542 422.233 108.978 424.531L107.938 424.575C108.631 420.889 107.461 418.677 104.728 418.677C102.82 418.677 101.693 420.021 101.693 421.582C101.693 422.71 102.126 423.361 102.95 424.054C103.904 424.792 105.943 426.223 107.07 427.047C108.415 428.001 109.109 429.042 109.109 430.906C109.109 432.858 108.154 434.332 106.984 435.286C105.596 436.457 103.601 437.108 101.172 437.108C99.0474 437.108 96.5321 436.414 94.8841 435.33C95.3612 434.159 96.1852 431.6 96.9224 428.998L98.0499 428.868C97.8331 429.519 97.6596 430.82 97.6596 431.687C97.5729 434.116 99.0474 435.763 101.91 435.763C103.818 435.763 105.466 434.766 105.466 432.858C105.466 431.817 105.075 431.21 104.208 430.516C103.384 429.822 101.866 428.651 100.609 427.697C99.2642 426.743 98.2668 425.485 98.2668 423.491C98.2668 421.582 99.0474 420.065 100.478 418.85C101.736 417.81 103.254 417.376 105.119 417.376C107.027 417.376 108.675 418.156 109.239 418.894L110.41 417.246ZM120.173 409.006H120.217C121.518 409.006 122.211 409.917 122.125 411.304C122.038 412.952 120.78 413.95 119.436 413.95C118.352 413.95 117.441 413.169 117.484 411.738C117.571 409.96 118.959 409.006 120.173 409.006ZM112.714 419.674L113.148 418.417C115.49 418.243 118.785 417.94 120.824 417.376L120.954 417.549C119.653 420.542 116.617 430.082 115.706 433.682C115.533 434.419 115.49 434.94 116.053 434.94C117.268 434.94 119.306 432.858 120.303 430.776L121.171 431.73C119.263 435.243 116.617 437.108 113.885 437.108C111.24 437.108 111.196 435.113 112.107 432.207C113.148 428.911 114.926 423.621 115.793 420.412C115.967 419.804 115.923 419.631 115.403 419.631C114.882 419.631 113.625 419.631 112.714 419.674ZM132.72 417.376H132.764C134.542 417.376 135.973 417.81 137.057 418.764C138.662 417.593 139.789 417.116 140.917 417.116C141.871 417.116 142.565 417.766 142.565 418.243C142.565 418.764 141.654 419.804 141.09 420.108C140.136 419.501 138.878 419.327 137.794 419.674C138.271 420.412 138.575 421.496 138.575 422.58C138.575 427.09 135.322 430.906 130.248 430.906C128.991 430.906 127.603 430.516 126.779 430.039C125.868 430.343 125.304 430.95 125.304 431.644C125.304 432.381 125.955 432.988 127.256 433.378C128.817 433.899 131.159 434.506 133.327 435.113C135.929 435.807 137.838 437.151 137.838 440.013C137.838 445.304 132.2 447.212 127.603 447.212C123.7 447.212 118.583 445.391 118.583 441.314C118.583 438.756 120.968 437.325 123.396 437.325C123.96 437.325 124.48 437.455 124.784 437.542L125.131 438.409C123.179 438.409 121.835 439.45 121.835 441.141C121.835 443.743 125.044 445.695 128.861 445.695C132.417 445.695 134.281 444.003 134.281 441.965C134.281 440.621 133.414 439.623 131.81 439.103C129.858 438.496 127.776 437.802 125.998 437.281C124.003 436.674 122.095 435.633 122.095 433.292C122.095 431.514 123.526 429.996 125.781 429.345C124.871 428.521 124.35 427.307 124.35 425.789C124.35 421.366 128.037 417.376 132.72 417.376ZM132.937 418.633H132.894C131.94 418.633 131.029 419.067 130.292 420.065C128.991 421.756 128.123 424.792 128.123 426.873C128.123 428.955 129.207 429.649 130.248 429.649C131.246 429.649 132.026 429.215 132.72 428.434C134.065 426.787 135.019 423.577 135.019 421.366C135.019 419.544 134.195 418.633 132.937 418.633ZM160.713 430.82L161.537 431.73C159.759 435.33 156.94 437.151 154.338 437.151C151.606 437.151 151.606 434.809 152.69 431.817C153.861 428.695 155.335 424.662 156.289 421.973C156.723 420.758 156.549 419.588 155.335 419.588C151.692 419.588 147.789 426.093 146.185 430.473C145.578 432.077 144.884 433.769 144.06 436.544C142.542 436.631 141.024 436.804 139.853 436.934C141.848 431.557 144.277 423.447 144.84 420.412C144.97 419.848 144.884 419.631 144.45 419.631L141.805 419.674L142.282 418.46C144.623 418.287 147.225 417.983 149.524 417.376C148.917 419.631 148.18 422.363 147.486 424.662C149.871 421.062 153.21 417.376 157.46 417.376C158.458 417.376 159.195 417.679 159.672 418.07C160.886 419.154 160.452 421.582 159.889 423.23C158.761 426.309 157.157 430.429 156.202 433.639C155.942 434.376 156.072 434.896 156.506 434.896C157.677 434.896 159.585 433.031 160.713 430.82Z" fill="black"/>
<path d="M370.551 101.127L371.852 100.91C371.592 101.951 371.332 103.555 371.288 104.769C371.288 108.369 373.587 109.93 376.883 109.93C379.962 109.93 382.347 107.892 382.347 104.596C382.347 103.165 381.827 102.124 380.829 101.17C379.702 99.9991 377.49 98.0476 375.885 96.6165C374.107 95.0986 373.066 93.3639 373.066 90.892C373.066 88.2032 374.237 85.9482 376.189 84.3869C377.62 83.2594 379.528 82.6089 381.913 82.6089C384.645 82.6089 386.684 83.6497 387.594 84.864L389.026 82.7824L389.98 83.3461C388.852 85.8614 387.725 89.3742 387.117 91.6726L385.99 91.4991C387.031 86.7721 385.166 83.9533 381.74 83.9533C378.574 83.9533 377.013 86.1216 377.013 88.8104C377.013 90.2849 377.577 91.6292 378.964 92.8435C381.133 94.9685 382.824 96.3563 383.995 97.3971C385.643 98.7414 386.64 100.303 386.64 102.514C386.64 104.769 385.86 106.721 384.472 108.282C382.434 110.407 379.658 111.318 376.362 111.318C373.37 111.318 370.334 110.277 368.166 108.759C368.947 106.981 369.987 103.425 370.551 101.127ZM388.243 92.4966C390.368 92.3665 393.534 92.0195 395.529 91.369C395.399 94.795 395.963 102.775 396.136 106.548C397.48 103.945 398.912 101.083 400.646 98.0042C402.771 94.1879 404.896 91.369 408.452 91.2823L408.582 92.3665C406.631 92.8869 404.246 95.8359 402.294 98.9149C399.519 103.295 396.526 108.716 394.315 112.922C390.975 119.081 388.894 121.119 386.031 121.119C383.82 121.119 382.866 119.601 382.866 118.213C382.866 116.739 383.993 115.871 384.991 115.871C385.685 115.871 386.118 116.305 386.378 116.912C386.682 117.866 387.072 118.343 387.723 118.343C389.327 118.343 390.932 116.348 393.187 111.752C392.667 111.275 392.493 110.32 392.406 109.193C392.233 104.292 391.582 96.9634 391.279 94.7083C391.105 93.7542 390.715 93.6241 387.896 93.7109L388.243 92.4966ZM420.701 91.369L421.612 91.8461C420.745 93.7976 419.834 96.3563 419.27 98.6547L418.23 98.6981C418.923 95.0119 417.752 92.8002 415.02 92.8002C413.112 92.8002 411.985 94.1445 411.985 95.7058C411.985 96.8333 412.418 97.4838 413.242 98.1777C414.196 98.9149 416.235 100.346 417.362 101.17C418.707 102.124 419.4 103.165 419.4 105.03C419.4 106.981 418.446 108.456 417.275 109.41C415.888 110.581 413.893 111.231 411.464 111.231C409.339 111.231 406.824 110.537 405.176 109.453C405.653 108.282 406.477 105.724 407.214 103.122L408.342 102.991C408.125 103.642 407.952 104.943 407.952 105.81C407.865 108.239 409.339 109.887 412.201 109.887C414.11 109.887 415.758 108.889 415.758 106.981C415.758 105.94 415.367 105.333 414.5 104.639C413.676 103.945 412.158 102.775 410.9 101.821C409.556 100.866 408.559 99.6088 408.559 97.6139C408.559 95.7058 409.339 94.1879 410.77 92.9736C412.028 91.9328 413.546 91.4991 415.411 91.4991C417.319 91.4991 418.967 92.2798 419.531 93.017L420.701 91.369ZM431.98 104.639L432.63 106.157C430.939 109.496 427.773 111.231 425.128 111.231C421.615 111.231 421.615 109.019 422.396 106.417C423.567 102.514 425.345 96.7899 426.212 93.841L423.176 93.5374L423.74 92.2364H426.689C427.34 90.1981 427.86 88.3333 428.25 86.989C429.855 86.7721 431.72 86.4252 432.847 86.0349C432.5 86.9022 431.503 89.8946 430.722 92.2364H435.406L434.755 93.5374L430.245 93.841C429.465 96.2695 426.906 104.769 426.169 107.805C425.952 108.759 426.039 109.366 426.993 109.366C428.857 109.366 431.113 106.764 431.98 104.639ZM449.52 103.902L449.693 106.07C447.655 109.193 444.099 111.231 440.196 111.231C436.51 111.231 434.471 109.019 434.471 105.16C434.471 100.997 436.466 96.2695 440.153 93.4507C441.974 92.1497 443.969 91.4991 446.007 91.4991C449.693 91.4991 450.994 93.6241 450.994 96.0093C450.994 98.0042 449.433 99.1751 447.959 99.8256C445.747 100.866 441.54 101.777 439.155 102.081C438.982 102.861 438.808 104.076 438.808 105.073C438.808 107.502 439.719 109.323 442.061 109.323C444.923 109.323 447.395 107.458 448.869 103.902H449.52ZM445.53 92.8002H445.443C443.882 92.8002 441.15 94.3614 439.415 100.65C441.237 100.433 443.795 99.7823 444.966 99.2185C446.571 98.4379 447.395 97.0068 447.395 95.2287C447.395 93.7109 446.744 92.8002 445.53 92.8002ZM483.256 104.9L484.123 105.854C482.345 109.41 479.483 111.275 476.838 111.275C474.019 111.275 474.149 108.803 475.233 105.94C476.447 102.601 477.879 98.9583 478.919 96.1828C479.396 94.8818 479.18 93.7109 478.009 93.7109C474.583 93.7109 470.419 100.389 468.771 104.943C468.208 106.417 467.514 108.109 466.733 110.711C465.172 110.754 463.524 110.928 462.44 111.058C464.044 106.764 466.603 98.8715 467.34 96.0961C467.644 94.9685 467.644 93.7109 466.386 93.7109C463.654 93.7109 459.448 99.0884 457.323 104.813C456.672 106.461 456.022 108.195 455.241 110.711C453.766 110.797 452.162 110.928 451.034 111.058C453.246 105.116 455.501 97.5705 456.108 94.5782C456.238 93.8843 456.065 93.7109 455.501 93.7109H452.986L453.376 92.54C455.414 92.3231 458.71 92.0195 460.792 91.4991C460.228 93.4507 459.361 96.8767 458.754 98.7848C460.965 95.5323 464.261 91.4991 468.641 91.4991C471.59 91.4991 471.72 94.0144 470.983 96.443C470.766 97.2236 470.593 97.7874 470.333 98.6113C472.631 95.2721 476.057 91.4991 480.307 91.4991C481.391 91.4991 482.085 91.8461 482.562 92.3231C483.646 93.494 483.039 95.8792 482.562 97.2236C481.348 100.563 479.396 105.593 478.703 107.762C478.486 108.456 478.529 109.019 479.049 109.019C480.264 109.019 482.172 107.111 483.256 104.9Z" fill="black"/>
<path d="M413.767 734.363H413.81C419.882 734.363 423.177 737.962 423.177 744.12C423.177 748.977 421.139 755.135 417.757 758.735C414.721 761.944 411.208 763.072 407.435 763.072C401.711 763.072 397.851 760.166 397.851 753.574C397.851 747.72 400.843 740.521 405.614 737.008C407.912 735.317 410.558 734.363 413.767 734.363ZM413.767 735.62H413.723C411.772 735.62 409.864 736.531 408.086 738.743C404.877 742.863 402.665 750.235 402.665 755.396C402.665 759.819 404.66 761.727 407.435 761.727C409.474 761.727 411.382 760.99 413.203 758.691C416.412 754.528 418.494 747.199 418.494 741.735C418.494 738.396 417.236 735.62 413.767 735.62ZM424.393 748.977C426.302 748.067 428.123 746.722 429.207 745.074C429.641 743.817 430.205 741.648 430.378 740.998C431.245 740.824 433.501 740.304 434.411 739.87L434.585 740.087C433.761 742.516 432.59 746.375 431.723 749.194C433.717 746.505 436.71 743.253 440.439 743.253C443.302 743.253 444.646 745.551 444.646 748.327C444.646 753.444 441.437 759.776 436.666 762.031C435.279 762.725 433.804 762.985 432.546 762.985C430.942 762.985 429.251 762.464 428.427 761.337C427.342 765.023 426.562 768.102 426.258 769.403C426.041 770.401 426.258 770.661 427.039 770.748L429.771 771.008L429.424 772.222H424.871C422.746 772.222 420.143 772.309 417.888 772.526L418.279 771.311L420.143 771.008C421.054 770.834 421.531 770.574 421.878 769.707C423.743 764.373 426.605 754.615 428.427 748.197C427.473 748.891 425.738 749.758 424.914 750.018C424.74 749.628 424.567 749.281 424.393 748.977ZM438.531 745.334H438.488C436.406 745.334 433.978 748.11 432.243 751.059C430.942 753.14 429.467 756.783 429.467 758.691C429.467 760.686 430.768 761.554 432.286 761.554C433.631 761.554 435.062 760.816 436.363 759.169C438.531 756.48 440.353 751.709 440.353 748.11C440.353 746.635 439.745 745.334 438.531 745.334ZM460.2 743.123L461.111 743.6C460.244 745.551 459.333 748.11 458.769 750.408L457.729 750.452C458.422 746.766 457.251 744.554 454.519 744.554C452.611 744.554 451.484 745.898 451.484 747.459C451.484 748.587 451.917 749.237 452.741 749.931C453.695 750.669 455.734 752.1 456.861 752.924C458.206 753.878 458.899 754.919 458.899 756.783C458.899 758.735 457.945 760.209 456.774 761.163C455.387 762.334 453.392 762.985 450.963 762.985C448.838 762.985 446.323 762.291 444.675 761.207C445.152 760.036 445.976 757.477 446.713 754.875L447.841 754.745C447.624 755.396 447.451 756.697 447.451 757.564C447.364 759.992 448.838 761.64 451.7 761.64C453.609 761.64 455.257 760.643 455.257 758.735C455.257 757.694 454.866 757.087 453.999 756.393C453.175 755.699 451.657 754.528 450.399 753.574C449.055 752.62 448.058 751.362 448.058 749.368C448.058 747.459 448.838 745.942 450.269 744.727C451.527 743.686 453.045 743.253 454.91 743.253C456.818 743.253 458.466 744.033 459.03 744.771L460.2 743.123Z" fill="black"/>
<path d="M771.628 416.59L772.149 415.419C772.973 415.419 775.401 415.55 777.136 415.55C778.047 415.55 779.001 415.506 780.128 415.463C781.212 415.419 782.427 415.376 783.728 415.376C787.501 415.376 789.886 416.157 791.62 417.675C793.398 419.192 794.396 421.968 794.396 425.177C794.353 432.072 790.84 439.098 784.205 441.873C782.123 442.741 779.391 443.088 776.702 443.088C775.575 443.088 774.49 443.044 773.363 442.958C772.279 442.914 771.195 442.871 770.067 442.871C768.332 442.871 765.47 443.001 764.559 443.001L765.036 441.787L767.031 441.613C767.985 441.526 768.332 441.31 768.723 440.182C769.156 439.011 769.677 437.407 772.019 429.427C774.23 421.925 774.794 419.496 775.141 418.065C775.314 417.241 775.141 416.981 774.317 416.894L771.628 416.59ZM782.687 416.721H782.643C780.649 416.721 780.258 416.937 780.085 417.414C779.694 418.325 779.001 420.363 776.615 428.95C774.274 437.32 773.71 439.532 773.536 440.702C773.45 441.353 773.666 441.743 775.965 441.743C778.827 441.743 780.432 441.31 781.689 440.616C786.546 438.014 789.539 430.121 789.582 424.006C789.582 421.708 789.105 419.93 788.238 418.845C787.067 417.284 785.115 416.721 782.687 416.721ZM810.739 436.149L810.912 438.317C808.874 441.44 805.318 443.478 801.415 443.478C797.729 443.478 795.69 441.266 795.69 437.407C795.69 433.243 797.685 428.516 801.372 425.697C803.193 424.396 805.188 423.746 807.226 423.746C810.912 423.746 812.213 425.871 812.213 428.256C812.213 430.251 810.652 431.422 809.178 432.072C806.966 433.113 802.759 434.024 800.374 434.328C800.201 435.108 800.027 436.322 800.027 437.32C800.027 439.748 800.938 441.57 803.28 441.57C806.142 441.57 808.614 439.705 810.088 436.149H810.739ZM806.749 425.047H806.662C805.101 425.047 802.369 426.608 800.634 432.896C802.456 432.68 805.014 432.029 806.185 431.465C807.79 430.685 808.614 429.254 808.614 427.476C808.614 425.958 807.963 425.047 806.749 425.047ZM815.206 425.958L812.908 426.001L813.342 424.83C815.727 424.657 818.329 424.353 820.497 423.746C819.977 426.305 819.803 429.644 819.673 433.634C819.586 435.759 819.543 437.97 819.543 439.662C823.533 435.672 827.132 430.121 827.262 426.652C827.306 425.654 827.219 425.004 827.089 424.44C828.303 423.919 829.604 423.399 829.951 423.399C830.211 423.399 830.732 424.483 830.688 425.697C830.688 426.695 830.341 427.953 829.387 429.514C827.219 433.07 820.844 440.442 818.459 443.001C817.505 443.044 816.334 443.261 815.467 443.435C815.77 436.626 816.074 429.774 815.9 426.695C815.9 426.175 815.77 425.958 815.206 425.958Z" fill="black"/>
<path d="M485.791 370.223C486.399 372.744 486.968 375.28 487.497 377.831L486.74 377.988C487.265 380.518 487.752 383.063 488.198 385.622L488.96 385.489C489.406 388.042 489.812 390.609 490.179 393.189L489.414 393.298C489.778 395.856 490.101 398.427 490.385 401.009L491.153 400.924C491.437 403.5 491.681 406.088 491.884 408.687L491.113 408.748C491.315 411.322 491.475 413.908 491.597 416.504L492.37 416.468C492.491 419.056 492.572 421.654 492.612 424.261L491.839 424.274C491.859 425.567 491.869 426.862 491.869 428.16C491.869 429.761 491.854 431.36 491.823 432.955L492.595 432.968C492.533 436.188 492.411 439.392 492.227 442.58L491.455 442.537C491.27 445.74 491.023 448.927 490.717 452.096L491.486 452.17C491.177 455.373 490.805 458.558 490.374 461.724L489.608 461.621C489.176 464.798 488.682 467.956 488.129 471.093L488.89 471.227C488.331 474.394 487.711 477.54 487.033 480.665L486.278 480.501C485.972 481.911 485.652 483.316 485.322 484.716C484.255 484.981 483.185 485.242 482.111 485.493L482.287 486.246C479.834 486.819 477.366 487.357 474.885 487.857L474.732 487.098C472.271 487.594 469.796 488.053 467.309 488.475L467.437 489.237C464.953 489.658 462.457 490.042 459.949 490.388L459.845 489.623C457.358 489.966 454.859 490.271 452.35 490.54L452.431 491.308C449.927 491.576 447.412 491.806 444.887 491.998L444.829 491.226C442.327 491.416 439.814 491.57 437.291 491.684L437.325 492.457C434.811 492.571 432.287 492.647 429.754 492.685L429.743 491.912C428.487 491.931 427.228 491.94 425.967 491.94C424.706 491.94 423.448 491.931 422.191 491.912L422.18 492.685C419.646 492.647 417.122 492.571 414.607 492.457L414.643 491.684C412.12 491.57 409.607 491.416 407.104 491.226L407.046 491.998C404.52 491.806 402.006 491.576 399.502 491.308L399.584 490.54C397.074 490.271 394.576 489.966 392.089 489.623L391.982 490.388C389.474 490.042 386.978 489.658 384.495 489.237L384.625 488.475C382.137 488.053 379.662 487.594 377.2 487.098L377.047 487.857C374.566 487.357 372.098 486.819 369.645 486.246L369.821 485.493C368.748 485.242 367.677 484.981 366.609 484.716C366.279 483.316 365.959 481.911 365.653 480.501L364.897 480.665C364.219 477.54 363.599 474.394 363.041 471.227L363.804 471.093C363.251 467.956 362.757 464.798 362.324 461.621L361.558 461.724C361.126 458.558 360.755 455.373 360.445 452.17L361.215 452.096C360.908 448.927 360.662 445.74 360.478 442.537L359.704 442.58C359.52 439.392 359.398 436.188 359.336 432.968L360.109 432.955C360.094 432.157 360.083 431.359 360.075 430.56L360.063 428.16C360.063 426.862 360.074 425.567 360.094 424.274L359.319 424.261L359.318 424.26C359.359 421.653 359.441 419.055 359.562 416.468L360.335 416.505C360.456 413.909 360.618 411.322 360.819 408.748L360.048 408.687C360.251 406.088 360.495 403.501 360.778 400.925L361.547 401.009C361.831 398.427 362.155 395.856 362.519 393.298L361.752 393.19C362.119 390.61 362.526 388.043 362.972 385.489L363.734 385.623C364.181 383.064 364.667 380.519 365.192 377.989L364.434 377.831C364.963 375.28 365.532 372.744 366.14 370.223L366.893 370.405C367.16 369.295 367.436 368.188 367.719 367.083C368.767 366.828 369.818 366.58 370.872 366.338L370.699 365.583C373.108 365.031 375.53 364.514 377.966 364.033L377.967 364.034L378.116 364.793C380.533 364.316 382.963 363.874 385.404 363.468L385.277 362.705C387.715 362.299 390.165 361.93 392.626 361.597L392.729 362.364C395.17 362.034 397.622 361.74 400.085 361.482L400.004 360.712C402.46 360.455 404.928 360.233 407.405 360.048L407.463 360.821C409.918 360.638 412.384 360.492 414.858 360.381L414.823 359.608C417.29 359.498 419.767 359.424 422.252 359.387L422.263 360.162C423.495 360.143 424.73 360.134 425.967 360.134C427.204 360.134 428.438 360.143 429.671 360.162L429.682 359.387C432.167 359.424 434.643 359.498 437.109 359.608L437.076 360.381C439.551 360.491 442.016 360.638 444.471 360.821L444.527 360.048C447.005 360.233 449.472 360.455 451.929 360.712L451.849 361.482C454.311 361.74 456.763 362.034 459.203 362.364L459.307 361.597C461.768 361.93 464.217 362.299 466.654 362.704L466.528 363.467C468.97 363.873 471.4 364.315 473.816 364.792L473.965 364.033C476.4 364.514 478.823 365.03 481.232 365.583L481.061 366.337C482.114 366.579 483.164 366.829 484.212 367.083C484.495 368.188 484.771 369.295 485.039 370.405L485.791 370.223Z" stroke="white" stroke-width="1.54882" stroke-dasharray="8.26 8.26"/>
<path d="M397.674 436.206C396.641 436.206 395.712 436.089 394.886 435.855C394.06 435.621 393.351 435.284 392.759 434.843C392.167 434.403 391.706 433.859 391.375 433.212C391.059 432.551 390.887 431.808 390.859 430.981H394.411C394.507 431.821 394.824 432.434 395.361 432.819C395.912 433.205 396.683 433.398 397.674 433.398C398.018 433.398 398.348 433.363 398.665 433.294C398.982 433.226 399.264 433.122 399.512 432.985C399.76 432.833 399.952 432.647 400.09 432.427C400.241 432.193 400.317 431.918 400.317 431.601C400.317 431.271 400.235 430.995 400.069 430.775C399.918 430.555 399.691 430.369 399.388 430.217C399.085 430.066 398.713 429.935 398.273 429.825C397.832 429.701 397.337 429.577 396.786 429.453C396.042 429.288 395.34 429.102 394.679 428.896C394.019 428.689 393.44 428.421 392.945 428.09C392.449 427.746 392.057 427.319 391.768 426.81C391.492 426.287 391.355 425.626 391.355 424.827C391.355 424.029 391.506 423.341 391.809 422.762C392.112 422.184 392.532 421.709 393.069 421.337C393.606 420.952 394.239 420.67 394.969 420.491C395.698 420.298 396.49 420.202 397.343 420.202C398.183 420.202 398.961 420.298 399.677 420.491C400.393 420.684 401.012 420.973 401.536 421.358C402.059 421.744 402.479 422.225 402.795 422.804C403.112 423.368 403.298 424.029 403.353 424.786H399.904C399.808 424.18 399.532 423.712 399.078 423.382C398.624 423.052 398.011 422.886 397.24 422.886C396.511 422.886 395.925 423.031 395.485 423.32C395.044 423.609 394.824 423.995 394.824 424.476C394.824 424.779 394.907 425.027 395.072 425.22C395.237 425.413 395.478 425.585 395.795 425.736C396.111 425.874 396.497 425.998 396.951 426.108C397.419 426.218 397.956 426.342 398.562 426.48C399.25 426.631 399.911 426.817 400.544 427.037C401.191 427.244 401.756 427.526 402.238 427.884C402.733 428.242 403.126 428.689 403.415 429.226C403.718 429.763 403.869 430.438 403.869 431.25C403.869 432.048 403.711 432.757 403.394 433.377C403.078 433.983 402.637 434.499 402.073 434.926C401.522 435.339 400.868 435.655 400.111 435.876C399.367 436.096 398.555 436.206 397.674 436.206ZM412.799 436.186C411.684 436.186 410.658 435.986 409.722 435.587C408.8 435.187 408.008 434.637 407.347 433.935C406.687 433.219 406.17 432.372 405.799 431.395C405.441 430.417 405.262 429.357 405.262 428.214C405.262 427.072 405.441 426.011 405.799 425.034C406.157 424.057 406.659 423.21 407.306 422.494C407.967 421.778 408.759 421.22 409.681 420.821C410.617 420.408 411.657 420.202 412.799 420.202C413.653 420.202 414.438 420.305 415.153 420.511C415.869 420.704 416.489 421 417.012 421.399C417.714 421.909 418.258 422.528 418.643 423.258C419.043 423.988 419.291 424.786 419.387 425.654H415.876C415.766 424.924 415.436 424.325 414.885 423.857C414.348 423.375 413.646 423.134 412.779 423.134C412.118 423.134 411.54 423.265 411.044 423.526C410.562 423.774 410.156 424.125 409.826 424.58C409.509 425.034 409.268 425.571 409.103 426.19C408.938 426.81 408.855 427.485 408.855 428.214C408.855 428.944 408.944 429.619 409.123 430.238C409.316 430.858 409.578 431.395 409.908 431.849C410.252 432.289 410.665 432.64 411.147 432.902C411.643 433.15 412.194 433.274 412.799 433.274C413.749 433.274 414.5 433.005 415.05 432.468C415.601 431.931 415.918 431.264 416 430.465H419.531C419.476 431.236 419.284 431.966 418.953 432.654C418.623 433.329 418.196 433.928 417.673 434.451C417.095 435.029 416.406 435.463 415.608 435.752C414.809 436.041 413.873 436.186 412.799 436.186ZM425.286 420.47H428.941L434.496 435.834H430.779L429.808 432.902H424.232L423.282 435.834H419.751L425.286 420.47ZM425.058 430.383H429.003L428.073 427.512C427.908 426.989 427.764 426.486 427.64 426.005C427.516 425.509 427.413 425.068 427.33 424.683C427.234 424.229 427.151 423.809 427.082 423.423H427.041C426.931 423.933 426.821 424.428 426.71 424.91C426.6 425.323 426.483 425.771 426.359 426.252C426.249 426.721 426.132 427.14 426.008 427.512L425.058 430.383ZM436.051 420.47H439.562V432.819H446.645V435.834H436.051V420.47ZM448.515 420.47H460.038V423.403H452.025V426.459H458.964V429.247H452.025V432.819H460.182V435.834H448.515V420.47Z" fill="black"/>
</svg>
