<svg width="1736" height="794" viewBox="0 0 1736 794" fill="none" xmlns="http://www.w3.org/2000/svg">
<rect width="1736" height="794" fill="#F5F5F5"/>
<circle cx="663.422" cy="215.452" r="127.959" stroke="#1C1C1C" stroke-width="1.5"/>
<path d="M655.942 221.706L656.313 220.668C657.24 220.705 659.649 220.779 660.762 220.779C662.467 220.779 663.839 220.668 665.878 220.668C669.14 220.668 670.364 221.224 671.217 222.151C671.884 222.855 672.218 223.856 672.218 225.006C672.218 227.972 670.697 229.751 668.214 230.752C667.287 231.123 666.174 231.345 664.988 231.494L664.951 231.642C667.361 231.976 668.77 232.68 669.585 233.496C670.364 234.311 670.735 235.312 670.735 236.758C670.735 239.872 668.881 242.06 666.286 243.246C664.691 244.025 662.504 244.247 660.391 244.247C658.352 244.247 656.387 244.136 654.422 244.136C653.013 244.136 651.011 244.21 649.899 244.247L650.233 243.209C652.568 243.061 653.013 242.838 653.236 242.208C654.311 239.242 655.349 235.757 656.424 232.013C657.277 229.01 658.389 225.228 658.982 222.633C659.13 222.003 658.685 221.891 655.942 221.706ZM668.362 224.82V224.783C668.362 224.153 668.176 223.411 667.88 222.967C667.435 222.336 666.656 221.817 664.506 221.817C663.357 221.817 663.134 222.04 663.023 222.41C662.356 224.227 661.132 228.676 660.428 231.012C660.725 231.086 661.281 231.086 661.911 231.086C665.544 231.086 668.362 228.676 668.362 224.82ZM666.545 236.017V235.98C666.545 235.201 666.397 234.311 665.952 233.644C665.322 232.717 664.098 232.124 661.614 232.124C661.132 232.124 660.502 232.161 660.094 232.198C659.205 235.461 657.944 239.687 657.351 242.43C657.277 242.801 657.573 243.098 659.501 243.098C663.913 243.098 666.508 240.206 666.545 236.017ZM673.415 229.788L673.823 228.75C675.677 228.639 678.235 228.305 679.866 227.786C679.644 229.232 678.865 232.124 678.458 233.903H678.606C680.682 229.677 682.499 227.786 684.612 227.786C686.021 227.786 686.54 228.973 686.54 229.825C686.54 231.531 685.353 232.346 684.501 232.346C683.907 232.346 683.611 232.087 683.463 231.605C683.314 231.049 683.129 230.752 682.647 230.752C681.349 230.752 679.496 233.94 678.346 236.758C677.494 238.76 676.641 241.133 675.788 244.173C674.305 244.247 673.082 244.358 672.081 244.47C673.675 240.132 675.751 233.088 676.011 230.456C676.048 230.011 675.899 229.788 675.492 229.788H673.415ZM702.343 239.279L703.084 239.984C702.12 241.986 700.118 244.655 697.19 244.655C695.076 244.655 695.002 242.727 695.521 240.873C695.595 240.577 695.707 240.095 695.818 239.761H695.744C694.261 242.023 691.628 244.655 688.329 244.655C686.179 244.655 685.252 242.987 685.252 240.762C685.252 236.684 687.773 231.494 691.332 229.158C692.852 228.157 694.187 227.786 695.595 227.786C697.264 227.786 698.339 228.416 698.784 229.455L699.154 228.231H702.491C701.231 231.901 699.229 238.464 698.635 241.392C698.487 242.097 698.487 242.727 699.006 242.727C699.97 242.727 701.416 241.133 702.343 239.279ZM688.922 240.614V240.651C688.922 241.652 689.256 242.69 690.257 242.69C691.851 242.69 693.705 241.207 695.484 238.093C696.411 236.573 697.968 232.754 697.968 231.308C697.968 229.714 697.078 229.047 696.003 229.047C694.891 229.047 693.816 229.529 692.629 230.9C690.479 233.421 688.922 237.574 688.922 240.614ZM721.194 239.279L721.898 240.058C720.378 243.135 717.968 244.692 715.744 244.692C713.408 244.692 713.408 242.69 714.335 240.132C715.336 237.463 716.596 234.015 717.412 231.716C717.783 230.678 717.634 229.677 716.596 229.677C713.482 229.677 710.145 235.238 708.774 238.983C708.255 240.354 707.661 241.8 706.957 244.173C705.659 244.247 704.362 244.395 703.361 244.507C705.066 239.909 707.142 232.977 707.624 230.381C707.736 229.899 707.661 229.714 707.291 229.714L705.029 229.751L705.437 228.713C707.439 228.565 709.663 228.305 711.628 227.786C711.109 229.714 710.479 232.05 709.886 234.015C711.925 230.937 714.78 227.786 718.413 227.786C719.266 227.786 719.896 228.046 720.304 228.379C721.342 229.306 720.971 231.382 720.489 232.791C719.525 235.423 718.153 238.945 717.338 241.689C717.115 242.319 717.227 242.764 717.597 242.764C718.598 242.764 720.23 241.17 721.194 239.279ZM740.698 239.242L741.476 240.021C740.142 242.69 738.065 244.692 735.47 244.692C733.431 244.692 733.32 242.727 733.876 240.688C733.987 240.354 734.061 240.021 734.173 239.65C732.578 242.06 730.094 244.655 726.647 244.655C724.237 244.655 723.125 242.875 723.125 240.391C723.125 236.499 725.349 231.79 728.871 229.343C730.132 228.416 731.726 227.786 733.579 227.786C735.211 227.786 736.397 228.268 736.99 229.195C738.436 224.635 738.992 222.485 739.178 221.521C739.289 220.965 739.215 220.816 738.807 220.816C738.288 220.779 737.435 220.742 736.434 220.742L736.842 219.741C738.992 219.704 742.329 219.407 743.627 219.111C742.774 221.261 740.772 227.49 738.733 234.867C737.806 238.056 737.287 240.021 736.99 241.392C736.842 242.097 736.768 242.764 737.287 242.764C738.251 242.764 739.882 241.022 740.698 239.242ZM726.869 240.428V240.466C726.869 241.763 727.388 242.764 728.426 242.764C729.983 242.764 731.689 241.244 733.357 238.612C734.506 236.869 736.138 233.014 736.138 231.234C736.138 230.085 735.544 228.973 734.061 228.973C732.875 228.973 731.8 229.455 730.651 230.678C728.649 232.865 726.869 236.906 726.869 240.428Z" fill="black"/>
<circle cx="649.871" cy="540.614" r="165.894" stroke="#1C1C1C" stroke-width="1.5"/>
<path d="M561.013 550.731L561.458 549.73C562.162 549.73 564.238 549.842 565.721 549.842C566.5 549.842 567.315 549.805 568.279 549.768C569.206 549.73 570.244 549.693 571.356 549.693C574.582 549.693 576.621 550.361 578.104 551.658C579.624 552.956 580.477 555.329 580.477 558.072C580.44 563.967 577.437 569.973 571.764 572.346C569.985 573.087 567.649 573.384 565.35 573.384C564.386 573.384 563.46 573.347 562.496 573.273C561.569 573.235 560.642 573.198 559.678 573.198C558.195 573.198 555.748 573.31 554.97 573.31L555.378 572.272L557.083 572.123C557.899 572.049 558.195 571.864 558.529 570.9C558.9 569.899 559.344 568.527 561.346 561.705C563.237 555.292 563.719 553.215 564.016 551.992C564.164 551.288 564.016 551.065 563.311 550.991L561.013 550.731ZM570.467 550.843H570.43C568.724 550.843 568.39 551.028 568.242 551.436C567.909 552.214 567.315 553.957 565.276 561.298C563.274 568.453 562.792 570.344 562.644 571.345C562.57 571.901 562.755 572.234 564.72 572.234C567.167 572.234 568.539 571.864 569.614 571.271C573.766 569.046 576.324 562.299 576.361 557.071C576.361 555.106 575.954 553.586 575.212 552.659C574.211 551.325 572.543 550.843 570.467 550.843ZM594.448 567.452L594.596 569.306C592.854 571.975 589.814 573.717 586.477 573.717C583.326 573.717 581.583 571.827 581.583 568.527C581.583 564.968 583.289 560.927 586.44 558.517C587.997 557.405 589.703 556.849 591.445 556.849C594.596 556.849 595.709 558.665 595.709 560.704C595.709 562.41 594.374 563.411 593.113 563.967C591.223 564.857 587.626 565.635 585.587 565.895C585.439 566.562 585.291 567.6 585.291 568.453C585.291 570.529 586.069 572.086 588.071 572.086C590.518 572.086 592.631 570.492 593.892 567.452H594.448ZM591.037 557.961H590.963C589.628 557.961 587.293 559.296 585.81 564.671C587.367 564.486 589.554 563.93 590.555 563.448C591.927 562.781 592.631 561.557 592.631 560.037C592.631 558.739 592.075 557.961 591.037 557.961ZM598.267 558.739L596.302 558.777L596.673 557.776C598.712 557.627 600.937 557.368 602.79 556.849C602.345 559.036 602.197 561.891 602.086 565.302C602.012 567.118 601.975 569.009 601.975 570.455C605.385 567.044 608.463 562.299 608.574 559.333C608.611 558.48 608.537 557.924 608.426 557.442C609.464 556.997 610.576 556.552 610.872 556.552C611.095 556.552 611.54 557.479 611.503 558.517C611.503 559.37 611.206 560.445 610.39 561.78C608.537 564.82 603.087 571.122 601.048 573.31C600.232 573.347 599.231 573.532 598.49 573.68C598.749 567.86 599.009 562.002 598.86 559.37C598.86 558.925 598.749 558.739 598.267 558.739ZM624.536 567.452L624.684 569.306C622.942 571.975 619.902 573.717 616.565 573.717C613.414 573.717 611.671 571.827 611.671 568.527C611.671 564.968 613.377 560.927 616.528 558.517C618.085 557.405 619.791 556.849 621.533 556.849C624.684 556.849 625.797 558.665 625.797 560.704C625.797 562.41 624.462 563.411 623.201 563.967C621.311 564.857 617.714 565.635 615.675 565.895C615.527 566.562 615.379 567.6 615.379 568.453C615.379 570.529 616.157 572.086 618.159 572.086C620.606 572.086 622.719 570.492 623.98 567.452H624.536ZM621.125 557.961H621.051C619.716 557.961 617.381 559.296 615.898 564.671C617.455 564.486 619.642 563.93 620.643 563.448C622.015 562.781 622.719 561.557 622.719 560.037C622.719 558.739 622.163 557.961 621.125 557.961ZM629.575 549.842L629.946 548.804C632.578 548.767 635.247 548.507 636.656 548.173C635.915 550.101 634.728 553.623 632.986 559.592C631.355 565.265 630.28 568.861 629.872 570.714C629.686 571.456 629.798 571.827 630.205 571.827C631.132 571.827 632.838 570.27 633.802 568.305L634.543 569.083C632.949 572.197 630.576 573.754 628.315 573.754C625.942 573.754 626.09 571.715 626.758 569.343C627.61 566.451 628.463 563.819 629.649 559.778C631.281 554.105 631.837 552.103 632.207 550.583C632.356 550.027 632.207 549.879 631.725 549.879L629.575 549.842ZM645.323 556.849H645.397C648.919 556.849 650.921 558.814 650.921 562.447C650.921 566.043 649.067 570.27 646.139 572.272C644.581 573.273 642.95 573.717 640.985 573.717C638.464 573.717 635.424 572.791 635.424 568.305C635.424 564.671 637.352 560.519 640.355 558.406C641.801 557.405 643.506 556.849 645.323 556.849ZM645.323 557.924H645.286C644.062 557.924 642.95 558.554 641.838 560.074C640.244 562.336 638.872 566.71 638.872 569.417C638.872 571.827 639.984 572.642 641.245 572.642C642.283 572.642 643.247 572.16 644.174 571.048C646.027 568.787 647.51 563.856 647.51 560.964C647.51 559.259 646.88 557.924 645.323 557.924ZM652.528 561.742C654.16 560.964 655.717 559.815 656.644 558.406C657.014 557.331 657.496 555.477 657.645 554.921C658.386 554.773 660.314 554.328 661.092 553.957L661.241 554.142C660.536 556.218 659.535 559.518 658.794 561.928C660.499 559.629 663.057 556.849 666.246 556.849C668.693 556.849 669.842 558.814 669.842 561.186C669.842 565.561 667.098 570.974 663.02 572.902C661.834 573.495 660.573 573.717 659.498 573.717C658.127 573.717 656.681 573.273 655.976 572.309C655.049 575.46 654.382 578.092 654.123 579.204C653.937 580.057 654.123 580.28 654.79 580.354L657.126 580.576L656.829 581.614H652.936C651.12 581.614 648.895 581.688 646.967 581.874L647.301 580.836L648.895 580.576C649.674 580.428 650.081 580.205 650.378 579.464C651.972 574.904 654.419 566.562 655.976 561.075C655.161 561.668 653.678 562.41 652.973 562.632C652.825 562.299 652.677 562.002 652.528 561.742ZM664.614 558.628H664.577C662.798 558.628 660.722 561.001 659.239 563.522C658.127 565.302 656.866 568.416 656.866 570.047C656.866 571.752 657.978 572.494 659.276 572.494C660.425 572.494 661.649 571.864 662.761 570.455C664.614 568.156 666.172 564.078 666.172 561.001C666.172 559.74 665.653 558.628 664.614 558.628ZM697.893 568.305L698.635 569.12C697.115 572.16 694.668 573.754 692.406 573.754C689.996 573.754 690.108 571.641 691.034 569.194C692.072 566.34 693.296 563.225 694.186 560.853C694.594 559.74 694.408 558.739 693.407 558.739C690.478 558.739 686.919 564.449 685.51 568.342C685.028 569.602 684.435 571.048 683.768 573.273C682.433 573.31 681.024 573.458 680.098 573.569C681.469 569.899 683.657 563.151 684.287 560.779C684.546 559.815 684.546 558.739 683.471 558.739C681.136 558.739 677.539 563.337 675.723 568.23C675.167 569.639 674.611 571.122 673.943 573.273C672.683 573.347 671.311 573.458 670.347 573.569C672.238 568.49 674.166 562.039 674.685 559.481C674.796 558.888 674.648 558.739 674.166 558.739H672.015L672.349 557.738C674.092 557.553 676.909 557.294 678.689 556.849C678.207 558.517 677.465 561.446 676.946 563.077C678.837 560.297 681.655 556.849 685.399 556.849C687.92 556.849 688.031 558.999 687.401 561.075C687.216 561.742 687.067 562.224 686.845 562.929C688.81 560.074 691.739 556.849 695.372 556.849C696.299 556.849 696.892 557.145 697.3 557.553C698.227 558.554 697.708 560.593 697.3 561.742C696.262 564.597 694.594 568.898 694 570.751C693.815 571.345 693.852 571.827 694.297 571.827C695.335 571.827 696.966 570.195 697.893 568.305ZM712.934 567.452L713.083 569.306C711.34 571.975 708.3 573.717 704.964 573.717C701.812 573.717 700.07 571.827 700.07 568.527C700.07 564.968 701.775 560.927 704.926 558.517C706.484 557.405 708.189 556.849 709.931 556.849C713.083 556.849 714.195 558.665 714.195 560.704C714.195 562.41 712.86 563.411 711.6 563.967C709.709 564.857 706.113 565.635 704.074 565.895C703.925 566.562 703.777 567.6 703.777 568.453C703.777 570.529 704.556 572.086 706.558 572.086C709.005 572.086 711.118 570.492 712.378 567.452H712.934ZM709.524 557.961H709.449C708.115 557.961 705.779 559.296 704.296 564.671C705.853 564.486 708.041 563.93 709.042 563.448C710.413 562.781 711.118 561.557 711.118 560.037C711.118 558.739 710.562 557.961 709.524 557.961ZM732.062 568.342L732.766 569.12C731.246 572.197 728.836 573.754 726.612 573.754C724.276 573.754 724.276 571.752 725.203 569.194C726.204 566.525 727.465 563.077 728.28 560.779C728.651 559.74 728.503 558.739 727.465 558.739C724.35 558.739 721.014 564.301 719.642 568.045C719.123 569.417 718.53 570.863 717.825 573.235C716.528 573.31 715.23 573.458 714.229 573.569C715.935 568.972 718.011 562.039 718.493 559.444C718.604 558.962 718.53 558.777 718.159 558.777L715.897 558.814L716.305 557.776C718.307 557.627 720.532 557.368 722.497 556.849C721.978 558.777 721.347 561.112 720.754 563.077C722.793 560 725.648 556.849 729.281 556.849C730.134 556.849 730.764 557.108 731.172 557.442C732.21 558.369 731.839 560.445 731.357 561.854C730.393 564.486 729.022 568.008 728.206 570.751C727.984 571.382 728.095 571.827 728.466 571.827C729.467 571.827 731.098 570.232 732.062 568.342ZM742.71 568.082L743.266 569.38C741.82 572.234 739.113 573.717 736.852 573.717C733.849 573.717 733.849 571.827 734.516 569.602C735.517 566.266 737.037 561.372 737.779 558.851L735.184 558.591L735.666 557.479H738.187C738.743 555.736 739.188 554.142 739.521 552.993C740.893 552.808 742.487 552.511 743.451 552.177C743.154 552.919 742.302 555.477 741.634 557.479H745.638L745.082 558.591L741.227 558.851C740.559 560.927 738.372 568.193 737.742 570.789C737.556 571.604 737.63 572.123 738.446 572.123C740.04 572.123 741.968 569.899 742.71 568.082Z" fill="black"/>
<circle cx="1022.45" cy="329.257" r="229.572" stroke="#1C1C1C" stroke-width="1.5"/>
<path d="M988.338 374.477L988.672 373.439C989.71 373.476 991.379 373.551 993.01 373.551C994.789 373.551 996.346 373.476 997.978 373.439L997.681 374.477C995.345 374.626 995.123 374.811 995.012 375.812C994.752 379.26 994.456 386.23 994.159 392.31C996.865 386.712 1000.2 380.595 1002.83 374.774C1002.98 374.403 1003.09 374.07 1003.21 373.625C1003.87 373.699 1005.65 373.513 1006.54 373.328C1006.43 375.293 1006.32 383.968 1006.1 392.718C1011.99 382.485 1013.99 378.889 1015.33 376.035C1015.77 375.071 1015.62 374.811 1014.85 374.7L1012.84 374.477L1013.14 373.439C1014.03 373.439 1015.77 373.551 1017.03 373.551C1018.52 373.551 1019.74 373.439 1021.04 373.439L1020.82 374.477C1018.74 374.663 1018.18 374.922 1017.37 376.109C1013.96 381.262 1007.91 391.828 1005.17 396.981C1003.91 397.093 1003.06 397.278 1002.54 397.463L1002.32 397.315C1002.54 393.2 1002.57 385.155 1002.8 377.592C998.274 386.823 995.086 392.755 993.269 396.981C992.046 397.13 991.267 397.241 990.6 397.463L990.378 397.315C990.6 393.274 991.156 379.927 991.082 375.738C991.045 374.996 990.934 374.774 990.266 374.7C989.599 374.589 988.932 374.514 988.338 374.477ZM1027.42 391.161L1027.57 393.014C1025.83 395.684 1022.79 397.426 1019.45 397.426C1016.3 397.426 1014.55 395.535 1014.55 392.236C1014.55 388.677 1016.26 384.636 1019.41 382.226C1020.97 381.114 1022.67 380.558 1024.42 380.558C1027.57 380.558 1028.68 382.374 1028.68 384.413C1028.68 386.119 1027.35 387.12 1026.08 387.676C1024.19 388.566 1020.6 389.344 1018.56 389.604C1018.41 390.271 1018.26 391.309 1018.26 392.162C1018.26 394.238 1019.04 395.795 1021.04 395.795C1023.49 395.795 1025.6 394.201 1026.86 391.161H1027.42ZM1024.01 381.67H1023.93C1022.6 381.67 1020.26 383.004 1018.78 388.38C1020.34 388.195 1022.53 387.639 1023.53 387.157C1024.9 386.489 1025.6 385.266 1025.6 383.746C1025.6 382.448 1025.05 381.67 1024.01 381.67ZM1032.38 373.513L1032.76 372.512C1035.2 372.438 1038.24 372.142 1039.39 371.882C1038.24 374.885 1036.02 382.448 1035.28 384.969C1037.09 382.782 1039.58 380.558 1042.54 380.558C1044.99 380.558 1045.92 382.337 1045.92 384.673C1045.88 388.788 1043.36 393.608 1040.06 395.721C1038.54 396.685 1036.35 397.426 1034.39 397.426C1032.87 397.426 1031.35 397.056 1030.53 396.425C1029.38 395.647 1029.23 394.72 1029.72 393.089C1030.46 390.568 1031.42 387.305 1032.42 383.894C1034.02 378.333 1034.87 375.145 1035.05 374.107C1035.13 373.699 1035.05 373.588 1034.65 373.551L1032.38 373.513ZM1035.02 396.277H1035.05C1035.94 396.277 1037.06 395.758 1037.95 394.942C1039.91 393.163 1042.21 388.38 1042.25 384.524C1042.28 383.079 1041.76 382.3 1040.84 382.3C1039.17 382.3 1036.94 384.339 1035.57 386.934C1034.2 389.307 1032.98 392.681 1032.98 394.275C1032.98 395.647 1033.76 396.277 1035.02 396.277ZM1057.64 374.44L1058.08 373.439C1058.78 373.439 1060.86 373.551 1062.34 373.551C1063.12 373.551 1063.94 373.513 1064.9 373.476C1065.83 373.439 1066.87 373.402 1067.98 373.402C1071.2 373.402 1073.24 374.07 1074.73 375.367C1076.25 376.665 1077.1 379.038 1077.1 381.781C1077.06 387.676 1074.06 393.682 1068.39 396.055C1066.61 396.796 1064.27 397.093 1061.97 397.093C1061.01 397.093 1060.08 397.056 1059.12 396.981C1058.19 396.944 1057.26 396.907 1056.3 396.907C1054.82 396.907 1052.37 397.018 1051.59 397.018L1052 395.98L1053.71 395.832C1054.52 395.758 1054.82 395.573 1055.15 394.609C1055.52 393.608 1055.97 392.236 1057.97 385.414C1059.86 379 1060.34 376.924 1060.64 375.701C1060.79 374.996 1060.64 374.774 1059.93 374.7L1057.64 374.44ZM1067.09 374.552H1067.05C1065.35 374.552 1065.01 374.737 1064.87 375.145C1064.53 375.923 1063.94 377.666 1061.9 385.006C1059.9 392.162 1059.42 394.053 1059.27 395.054C1059.19 395.61 1059.38 395.943 1061.34 395.943C1063.79 395.943 1065.16 395.573 1066.24 394.979C1070.39 392.755 1072.95 386.007 1072.98 380.78C1072.98 378.815 1072.58 377.295 1071.84 376.368C1070.83 375.034 1069.17 374.552 1067.09 374.552ZM1091.07 391.161L1091.22 393.014C1089.48 395.684 1086.44 397.426 1083.1 397.426C1079.95 397.426 1078.21 395.535 1078.21 392.236C1078.21 388.677 1079.91 384.636 1083.06 382.226C1084.62 381.114 1086.33 380.558 1088.07 380.558C1091.22 380.558 1092.33 382.374 1092.33 384.413C1092.33 386.119 1091 387.12 1089.74 387.676C1087.85 388.566 1084.25 389.344 1082.21 389.604C1082.06 390.271 1081.91 391.309 1081.91 392.162C1081.91 394.238 1082.69 395.795 1084.69 395.795C1087.14 395.795 1089.25 394.201 1090.51 391.161H1091.07ZM1087.66 381.67H1087.59C1086.25 381.67 1083.92 383.004 1082.43 388.38C1083.99 388.195 1086.18 387.639 1087.18 387.157C1088.55 386.489 1089.25 385.266 1089.25 383.746C1089.25 382.448 1088.7 381.67 1087.66 381.67ZM1105.52 380.446L1106.3 380.854C1105.56 382.522 1104.78 384.71 1104.3 386.675L1103.41 386.712C1104 383.561 1103 381.67 1100.66 381.67C1099.03 381.67 1098.07 382.819 1098.07 384.154C1098.07 385.118 1098.44 385.674 1099.14 386.267C1099.96 386.897 1101.7 388.121 1102.67 388.825C1103.81 389.641 1104.41 390.53 1104.41 392.125C1104.41 393.793 1103.59 395.054 1102.59 395.869C1101.4 396.87 1099.7 397.426 1097.62 397.426C1095.81 397.426 1093.66 396.833 1092.25 395.906C1092.66 394.905 1093.36 392.718 1093.99 390.493L1094.95 390.382C1094.77 390.938 1094.62 392.051 1094.62 392.792C1094.55 394.868 1095.81 396.277 1098.25 396.277C1099.88 396.277 1101.29 395.424 1101.29 393.793C1101.29 392.903 1100.96 392.384 1100.22 391.791C1099.51 391.198 1098.22 390.197 1097.14 389.381C1095.99 388.566 1095.14 387.49 1095.14 385.785C1095.14 384.154 1095.81 382.856 1097.03 381.818C1098.11 380.928 1099.4 380.558 1101 380.558C1102.63 380.558 1104.04 381.225 1104.52 381.855L1105.52 380.446ZM1113.87 373.402H1113.9C1115.02 373.402 1115.61 374.181 1115.54 375.367C1115.46 376.776 1114.39 377.629 1113.24 377.629C1112.31 377.629 1111.53 376.961 1111.57 375.738C1111.64 374.218 1112.83 373.402 1113.87 373.402ZM1107.49 382.522L1107.86 381.447C1109.86 381.299 1112.68 381.04 1114.42 380.558L1114.53 380.706C1113.42 383.264 1110.83 391.42 1110.05 394.497C1109.9 395.128 1109.86 395.573 1110.34 395.573C1111.38 395.573 1113.13 393.793 1113.98 392.013L1114.72 392.829C1113.09 395.832 1110.83 397.426 1108.49 397.426C1106.23 397.426 1106.19 395.721 1106.97 393.237C1107.86 390.419 1109.38 385.896 1110.12 383.153C1110.27 382.634 1110.23 382.485 1109.79 382.485C1109.34 382.485 1108.27 382.485 1107.49 382.522ZM1124.59 380.558H1124.63C1126.15 380.558 1127.37 380.928 1128.3 381.744C1129.67 380.743 1130.64 380.335 1131.6 380.335C1132.42 380.335 1133.01 380.891 1133.01 381.299C1133.01 381.744 1132.23 382.634 1131.75 382.893C1130.93 382.374 1129.86 382.226 1128.93 382.522C1129.34 383.153 1129.6 384.08 1129.6 385.006C1129.6 388.862 1126.82 392.125 1122.48 392.125C1121.4 392.125 1120.22 391.791 1119.51 391.383C1118.74 391.643 1118.25 392.162 1118.25 392.755C1118.25 393.385 1118.81 393.904 1119.92 394.238C1121.26 394.683 1123.26 395.202 1125.11 395.721C1127.34 396.314 1128.97 397.463 1128.97 399.91C1128.97 404.433 1124.15 406.065 1120.22 406.065C1116.88 406.065 1112.51 404.507 1112.51 401.022C1112.51 398.835 1114.55 397.612 1116.62 397.612C1117.1 397.612 1117.55 397.723 1117.81 397.797L1118.11 398.538C1116.44 398.538 1115.29 399.428 1115.29 400.874C1115.29 403.099 1118.03 404.767 1121.29 404.767C1124.33 404.767 1125.93 403.321 1125.93 401.579C1125.93 400.429 1125.19 399.577 1123.81 399.132C1122.15 398.613 1120.37 398.019 1118.85 397.575C1117.14 397.056 1115.51 396.166 1115.51 394.164C1115.51 392.644 1116.73 391.346 1118.66 390.79C1117.88 390.086 1117.44 389.048 1117.44 387.75C1117.44 383.968 1120.59 380.558 1124.59 380.558ZM1124.78 381.633H1124.74C1123.93 381.633 1123.15 382.003 1122.52 382.856C1121.4 384.302 1120.66 386.897 1120.66 388.677C1120.66 390.456 1121.59 391.05 1122.48 391.05C1123.33 391.05 1124 390.679 1124.59 390.011C1125.74 388.603 1126.56 385.859 1126.56 383.968C1126.56 382.411 1125.85 381.633 1124.78 381.633ZM1148.52 392.051L1149.23 392.829C1147.71 395.906 1145.3 397.463 1143.07 397.463C1140.74 397.463 1140.74 395.461 1141.66 392.903C1142.67 390.234 1143.93 386.786 1144.74 384.487C1145.11 383.449 1144.96 382.448 1143.93 382.448C1140.81 382.448 1137.48 388.009 1136.1 391.754C1135.58 393.126 1134.99 394.572 1134.29 396.944C1132.99 397.018 1131.69 397.167 1130.69 397.278C1132.4 392.681 1134.47 385.748 1134.95 383.153C1135.07 382.671 1134.99 382.485 1134.62 382.485L1132.36 382.522L1132.77 381.484C1134.77 381.336 1136.99 381.077 1138.96 380.558C1138.44 382.485 1137.81 384.821 1137.22 386.786C1139.26 383.709 1142.11 380.558 1145.74 380.558C1146.6 380.558 1147.23 380.817 1147.63 381.151C1148.67 382.078 1148.3 384.154 1147.82 385.563C1146.86 388.195 1145.48 391.717 1144.67 394.46C1144.45 395.091 1144.56 395.535 1144.93 395.535C1145.93 395.535 1147.56 393.941 1148.52 392.051ZM1068.09 433.536H1066.02V426.159H1059.31V424.157H1066.02V417.483H1068.09V424.157H1074.73V426.159H1068.09V433.536ZM970.531 448.44L970.976 447.439C971.68 447.439 973.757 447.551 975.24 447.551C976.018 447.551 976.834 447.513 977.798 447.476C978.725 447.439 979.763 447.402 980.875 447.402C984.1 447.402 986.139 448.07 987.622 449.367C989.142 450.665 989.995 453.038 989.995 455.781C989.958 461.676 986.955 467.682 981.283 470.055C979.503 470.796 977.167 471.093 974.869 471.093C973.905 471.093 972.978 471.056 972.014 470.981C971.087 470.944 970.16 470.907 969.196 470.907C967.714 470.907 965.267 471.018 964.488 471.018L964.896 469.98L966.601 469.832C967.417 469.758 967.714 469.573 968.047 468.609C968.418 467.608 968.863 466.236 970.865 459.414C972.756 453 973.238 450.924 973.534 449.701C973.682 448.996 973.534 448.774 972.83 448.7L970.531 448.44ZM979.985 448.552H979.948C978.243 448.552 977.909 448.737 977.761 449.145C977.427 449.923 976.834 451.666 974.795 459.006C972.793 466.162 972.311 468.053 972.162 469.054C972.088 469.61 972.274 469.943 974.239 469.943C976.685 469.943 978.057 469.573 979.132 468.979C983.285 466.755 985.843 460.007 985.88 454.78C985.88 452.815 985.472 451.295 984.731 450.368C983.73 449.034 982.061 448.552 979.985 448.552ZM1003.97 465.161L1004.11 467.014C1002.37 469.684 999.332 471.426 995.996 471.426C992.844 471.426 991.102 469.535 991.102 466.236C991.102 462.677 992.807 458.636 995.958 456.226C997.516 455.114 999.221 454.558 1000.96 454.558C1004.11 454.558 1005.23 456.374 1005.23 458.413C1005.23 460.119 1003.89 461.12 1002.63 461.676C1000.74 462.566 997.145 463.344 995.106 463.604C994.957 464.271 994.809 465.309 994.809 466.162C994.809 468.238 995.588 469.795 997.59 469.795C1000.04 469.795 1002.15 468.201 1003.41 465.161H1003.97ZM1000.56 455.67H1000.48C999.147 455.67 996.811 457.004 995.328 462.38C996.885 462.195 999.073 461.639 1000.07 461.157C1001.45 460.489 1002.15 459.266 1002.15 457.746C1002.15 456.448 1001.59 455.67 1000.56 455.67ZM1018.42 454.446L1019.19 454.854C1018.45 456.522 1017.67 458.71 1017.19 460.675L1016.3 460.712C1016.9 457.561 1015.89 455.67 1013.56 455.67C1011.93 455.67 1010.96 456.819 1010.96 458.154C1010.96 459.118 1011.33 459.674 1012.04 460.267C1012.85 460.897 1014.6 462.121 1015.56 462.825C1016.71 463.641 1017.3 464.53 1017.3 466.125C1017.3 467.793 1016.49 469.054 1015.49 469.869C1014.3 470.87 1012.59 471.426 1010.52 471.426C1008.7 471.426 1006.55 470.833 1005.14 469.906C1005.55 468.905 1006.26 466.718 1006.89 464.493L1007.85 464.382C1007.66 464.938 1007.52 466.051 1007.52 466.792C1007.44 468.868 1008.7 470.277 1011.15 470.277C1012.78 470.277 1014.19 469.424 1014.19 467.793C1014.19 466.903 1013.86 466.384 1013.11 465.791C1012.41 465.198 1011.11 464.197 1010.04 463.381C1008.89 462.566 1008.03 461.49 1008.03 459.785C1008.03 458.154 1008.7 456.856 1009.93 455.818C1011 454.928 1012.3 454.558 1013.89 454.558C1015.52 454.558 1016.93 455.225 1017.41 455.855L1018.42 454.446ZM1026.76 447.402H1026.8C1027.91 447.402 1028.5 448.181 1028.43 449.367C1028.36 450.776 1027.28 451.629 1026.13 451.629C1025.21 451.629 1024.43 450.961 1024.46 449.738C1024.54 448.218 1025.72 447.402 1026.76 447.402ZM1020.39 456.522L1020.76 455.447C1022.76 455.299 1025.58 455.04 1027.32 454.558L1027.43 454.706C1026.32 457.264 1023.72 465.42 1022.94 468.497C1022.8 469.128 1022.76 469.573 1023.24 469.573C1024.28 469.573 1026.02 467.793 1026.87 466.013L1027.62 466.829C1025.98 469.832 1023.72 471.426 1021.39 471.426C1019.13 471.426 1019.09 469.721 1019.87 467.237C1020.76 464.419 1022.28 459.896 1023.02 457.153C1023.17 456.634 1023.13 456.485 1022.68 456.485C1022.24 456.485 1021.16 456.485 1020.39 456.522ZM1037.49 454.558H1037.53C1039.05 454.558 1040.27 454.928 1041.2 455.744C1042.57 454.743 1043.53 454.335 1044.5 454.335C1045.31 454.335 1045.9 454.891 1045.9 455.299C1045.9 455.744 1045.13 456.634 1044.64 456.893C1043.83 456.374 1042.75 456.226 1041.83 456.522C1042.23 457.153 1042.49 458.08 1042.49 459.006C1042.49 462.862 1039.71 466.125 1035.38 466.125C1034.3 466.125 1033.11 465.791 1032.41 465.383C1031.63 465.643 1031.15 466.162 1031.15 466.755C1031.15 467.385 1031.71 467.904 1032.82 468.238C1034.15 468.683 1036.15 469.202 1038.01 469.721C1040.23 470.314 1041.86 471.463 1041.86 473.91C1041.86 478.433 1037.04 480.065 1033.11 480.065C1029.78 480.065 1025.4 478.507 1025.4 475.022C1025.4 472.835 1027.44 471.612 1029.52 471.612C1030 471.612 1030.44 471.723 1030.7 471.797L1031 472.538C1029.33 472.538 1028.18 473.428 1028.18 474.874C1028.18 477.099 1030.93 478.767 1034.19 478.767C1037.23 478.767 1038.82 477.321 1038.82 475.579C1038.82 474.429 1038.08 473.577 1036.71 473.132C1035.04 472.613 1033.26 472.019 1031.74 471.575C1030.04 471.056 1028.41 470.166 1028.41 468.164C1028.41 466.644 1029.63 465.346 1031.56 464.79C1030.78 464.086 1030.33 463.048 1030.33 461.75C1030.33 457.968 1033.48 454.558 1037.49 454.558ZM1037.67 455.633H1037.64C1036.82 455.633 1036.04 456.003 1035.41 456.856C1034.3 458.302 1033.56 460.897 1033.56 462.677C1033.56 464.456 1034.49 465.05 1035.38 465.05C1036.23 465.05 1036.9 464.679 1037.49 464.011C1038.64 462.603 1039.45 459.859 1039.45 457.968C1039.45 456.411 1038.75 455.633 1037.67 455.633ZM1061.42 466.051L1062.12 466.829C1060.6 469.906 1058.19 471.463 1055.97 471.463C1053.63 471.463 1053.63 469.461 1054.56 466.903C1055.56 464.234 1056.82 460.786 1057.64 458.487C1058.01 457.449 1057.86 456.448 1056.82 456.448C1053.71 456.448 1050.37 462.009 1049 465.754C1048.48 467.126 1047.89 468.572 1047.18 470.944C1045.89 471.018 1044.59 471.167 1043.59 471.278C1045.29 466.681 1047.37 459.748 1047.85 457.153C1047.96 456.671 1047.89 456.485 1047.52 456.485L1045.25 456.522L1045.66 455.484C1047.66 455.336 1049.89 455.077 1051.85 454.558C1051.33 456.485 1050.7 458.821 1050.11 460.786C1052.15 457.709 1055.01 454.558 1058.64 454.558C1059.49 454.558 1060.12 454.817 1060.53 455.151C1061.57 456.078 1061.2 458.154 1060.71 459.563C1059.75 462.195 1058.38 465.717 1057.56 468.46C1057.34 469.091 1057.45 469.535 1057.82 469.535C1058.82 469.535 1060.46 467.941 1061.42 466.051ZM1071.4 462.788L1072.51 462.603C1072.29 463.492 1072.07 464.864 1072.03 465.902C1072.03 468.979 1074 470.314 1076.81 470.314C1079.45 470.314 1081.48 468.572 1081.48 465.754C1081.48 464.53 1081.04 463.641 1080.19 462.825C1079.22 461.824 1077.33 460.156 1075.96 458.932C1074.44 457.635 1073.55 456.152 1073.55 454.039C1073.55 451.74 1074.55 449.812 1076.22 448.477C1077.44 447.513 1079.08 446.957 1081.11 446.957C1083.45 446.957 1085.19 447.847 1085.97 448.885L1087.19 447.106L1088.01 447.588C1087.05 449.738 1086.08 452.741 1085.56 454.706L1084.6 454.558C1085.49 450.516 1083.89 448.107 1080.97 448.107C1078.26 448.107 1076.92 449.96 1076.92 452.259C1076.92 453.519 1077.41 454.669 1078.59 455.707C1080.45 457.523 1081.89 458.71 1082.89 459.6C1084.3 460.749 1085.16 462.084 1085.16 463.974C1085.16 465.902 1084.49 467.571 1083.3 468.905C1081.56 470.722 1079.19 471.5 1076.37 471.5C1073.81 471.5 1071.22 470.611 1069.36 469.313C1070.03 467.793 1070.92 464.753 1071.4 462.788ZM1086.53 455.41C1088.34 455.299 1091.05 455.002 1092.75 454.446C1092.64 457.375 1093.12 464.197 1093.27 467.422C1094.42 465.198 1095.65 462.751 1097.13 460.119C1098.95 456.856 1100.76 454.446 1103.8 454.372L1103.91 455.299C1102.24 455.744 1100.21 458.265 1098.54 460.897C1096.16 464.642 1093.61 469.276 1091.72 472.872C1088.86 478.137 1087.08 479.879 1084.63 479.879C1082.74 479.879 1081.93 478.582 1081.93 477.395C1081.93 476.135 1082.89 475.393 1083.74 475.393C1084.34 475.393 1084.71 475.764 1084.93 476.283C1085.19 477.099 1085.52 477.506 1086.08 477.506C1087.45 477.506 1088.82 475.801 1090.75 471.871C1090.31 471.463 1090.16 470.648 1090.08 469.684C1089.94 465.494 1089.38 459.229 1089.12 457.301C1088.97 456.485 1088.64 456.374 1086.23 456.448L1086.53 455.41ZM1114.27 454.446L1115.05 454.854C1114.31 456.522 1113.53 458.71 1113.05 460.675L1112.16 460.712C1112.75 457.561 1111.75 455.67 1109.42 455.67C1107.79 455.67 1106.82 456.819 1106.82 458.154C1106.82 459.118 1107.19 459.674 1107.9 460.267C1108.71 460.897 1110.46 462.121 1111.42 462.825C1112.57 463.641 1113.16 464.53 1113.16 466.125C1113.16 467.793 1112.35 469.054 1111.34 469.869C1110.16 470.87 1108.45 471.426 1106.38 471.426C1104.56 471.426 1102.41 470.833 1101 469.906C1101.41 468.905 1102.11 466.718 1102.74 464.493L1103.71 464.382C1103.52 464.938 1103.37 466.051 1103.37 466.792C1103.3 468.868 1104.56 470.277 1107.01 470.277C1108.64 470.277 1110.05 469.424 1110.05 467.793C1110.05 466.903 1109.71 466.384 1108.97 465.791C1108.27 465.198 1106.97 464.197 1105.89 463.381C1104.75 462.566 1103.89 461.49 1103.89 459.785C1103.89 458.154 1104.56 456.856 1105.78 455.818C1106.86 454.928 1108.16 454.558 1109.75 454.558C1111.38 454.558 1112.79 455.225 1113.27 455.855L1114.27 454.446ZM1123.92 465.791L1124.47 467.089C1123.03 469.943 1120.32 471.426 1118.06 471.426C1115.05 471.426 1115.05 469.535 1115.72 467.311C1116.72 463.974 1118.24 459.081 1118.98 456.56L1116.39 456.3L1116.87 455.188H1119.39C1119.95 453.445 1120.39 451.851 1120.73 450.702C1122.1 450.516 1123.69 450.22 1124.66 449.886C1124.36 450.628 1123.51 453.186 1122.84 455.188H1126.84L1126.29 456.3L1122.43 456.56C1121.77 458.636 1119.58 465.902 1118.95 468.497C1118.76 469.313 1118.84 469.832 1119.65 469.832C1121.25 469.832 1123.17 467.608 1123.92 465.791ZM1138.91 465.161L1139.06 467.014C1137.32 469.684 1134.28 471.426 1130.94 471.426C1127.79 471.426 1126.05 469.535 1126.05 466.236C1126.05 462.677 1127.75 458.636 1130.9 456.226C1132.46 455.114 1134.16 454.558 1135.91 454.558C1139.06 454.558 1140.17 456.374 1140.17 458.413C1140.17 460.119 1138.84 461.12 1137.58 461.676C1135.68 462.566 1132.09 463.344 1130.05 463.604C1129.9 464.271 1129.75 465.309 1129.75 466.162C1129.75 468.238 1130.53 469.795 1132.53 469.795C1134.98 469.795 1137.09 468.201 1138.35 465.161H1138.91ZM1135.5 455.67H1135.43C1134.09 455.67 1131.75 457.004 1130.27 462.38C1131.83 462.195 1134.02 461.639 1135.02 461.157C1136.39 460.489 1137.09 459.266 1137.09 457.746C1137.09 456.448 1136.54 455.67 1135.5 455.67ZM1167.75 466.013L1168.49 466.829C1166.97 469.869 1164.53 471.463 1162.26 471.463C1159.85 471.463 1159.97 469.35 1160.89 466.903C1161.93 464.049 1163.15 460.934 1164.04 458.562C1164.45 457.449 1164.27 456.448 1163.27 456.448C1160.34 456.448 1156.78 462.158 1155.37 466.051C1154.89 467.311 1154.29 468.757 1153.63 470.981C1152.29 471.018 1150.88 471.167 1149.96 471.278C1151.33 467.608 1153.51 460.86 1154.14 458.487C1154.4 457.523 1154.4 456.448 1153.33 456.448C1150.99 456.448 1147.4 461.046 1145.58 465.939C1145.02 467.348 1144.47 468.831 1143.8 470.981C1142.54 471.056 1141.17 471.167 1140.2 471.278C1142.1 466.199 1144.02 459.748 1144.54 457.19C1144.65 456.597 1144.51 456.448 1144.02 456.448H1141.87L1142.21 455.447C1143.95 455.262 1146.77 455.002 1148.55 454.558C1148.06 456.226 1147.32 459.155 1146.8 460.786C1148.69 458.005 1151.51 454.558 1155.26 454.558C1157.78 454.558 1157.89 456.708 1157.26 458.784C1157.07 459.451 1156.93 459.933 1156.7 460.638C1158.67 457.783 1161.6 454.558 1165.23 454.558C1166.16 454.558 1166.75 454.854 1167.16 455.262C1168.08 456.263 1167.57 458.302 1167.16 459.451C1166.12 462.306 1164.45 466.607 1163.86 468.46C1163.67 469.054 1163.71 469.535 1164.15 469.535C1165.19 469.535 1166.82 467.904 1167.75 466.013Z" fill="black"/>
<path d="M1091.29 188.594L628.114 161.678C611.627 160.72 599.152 176.362 603.755 192.223L696.84 512.973C701.58 529.303 721.367 535.612 734.684 525.039L1104.78 231.205C1121.98 217.547 1113.22 189.868 1091.29 188.594Z" stroke="#4F4F4F" stroke-width="1.5" stroke-dasharray="4.78 0"/>
<circle cx="1090.62" cy="212.282" r="24.3544" fill="#1C1C1C"/>
<path d="M1102.06 217.565L1090.33 221.45L1079.04 217.565L1102.06 217.565Z" stroke="white" stroke-width="1.19594" stroke-linejoin="round"/>
<path d="M1076.36 210.61L1090.38 222.022L1104.63 210.61C1104.64 210.6 1104.63 210.582 1104.62 210.582L1090.5 210.582L1076.37 210.582C1076.36 210.582 1076.35 210.6 1076.36 210.61Z" stroke="white" stroke-width="1.19594"/>
<path d="M1076.46 202.471L1090.44 221.942L1104.64 202.471C1104.65 202.461 1104.64 202.446 1104.63 202.446L1076.48 202.446C1076.46 202.446 1076.45 202.461 1076.46 202.471Z" stroke="white" stroke-width="1.19594"/>
<path d="M1076.86 222.117L1104.38 222.117" stroke="white" stroke-width="1.19594" stroke-linecap="round"/>
<circle cx="626.282" cy="185.066" r="24.3544" fill="#1C1C1C"/>
<g clip-path="url(#clip0_734_289)">
<path d="M610.381 191.181L615.131 181.723C615.456 181.079 616.255 180.556 616.916 180.557L626.606 180.579C627.268 180.58 627.54 181.104 627.216 181.75L622.466 191.208C622.142 191.853 621.342 192.375 620.681 192.373L610.991 192.352C610.976 192.352 610.962 192.352 610.947 192.352C610.318 192.327 610.064 191.812 610.381 191.181Z" fill="white"/>
<path d="M628.788 180.161L631.664 174.55C631.86 174.167 632.339 173.86 632.733 173.865L638.506 173.928C638.901 173.933 639.06 174.246 638.864 174.629L635.988 180.24C635.792 180.623 635.313 180.929 634.92 180.925L629.146 180.861C629.139 180.861 629.133 180.861 629.126 180.861C628.747 180.847 628.595 180.538 628.788 180.161Z" fill="white"/>
<path d="M628.821 201.464L623.048 193.719C622.654 193.19 622.601 192.242 622.931 191.598L627.757 182.183C628.086 181.541 628.673 181.448 629.067 181.976L634.841 189.723C635.234 190.251 635.287 191.2 634.957 191.843L630.131 201.259C629.94 201.63 629.663 201.818 629.388 201.808C629.187 201.799 628.987 201.687 628.821 201.464Z" fill="white"/>
<path d="M627.469 180.067L624.029 175.451C623.793 175.136 623.763 174.571 623.959 174.188L626.834 168.578C627.031 168.195 627.38 168.14 627.616 168.455L631.055 173.07C631.29 173.385 631.321 173.951 631.125 174.333L628.249 179.944C628.136 180.165 627.971 180.277 627.806 180.272C627.687 180.267 627.567 180.2 627.469 180.067Z" fill="white"/>
</g>
<circle cx="719.655" cy="506.808" r="24.3544" fill="#1C1C1C"/>
<path d="M731.097 514.136L719.366 518.021L708.078 514.136L731.097 514.136Z" stroke="white" stroke-width="1.19594" stroke-linejoin="round"/>
<path d="M705.402 507.181L719.419 518.593L733.665 507.181C733.677 507.171 733.67 507.153 733.655 507.153L719.534 507.153L705.412 507.153C705.397 507.153 705.391 507.171 705.402 507.181Z" stroke="white" stroke-width="1.19594"/>
<path d="M705.5 499.042L719.477 518.513L733.682 499.042C733.689 499.032 733.682 499.017 733.669 499.017L705.513 499.017C705.5 499.017 705.493 499.032 705.5 499.042Z" stroke="white" stroke-width="1.19594"/>
<path d="M705.896 518.688L733.415 518.688" stroke="white" stroke-width="1.19594" stroke-linecap="round"/>
<defs>
<clipPath id="clip0_734_289">
<rect width="28.7025" height="33.4863" fill="white" transform="matrix(1 0 0 -1 610.245 201.809)"/>
</clipPath>
</defs>
</svg>
