<svg width="327" height="385" viewBox="0 0 327 385" fill="none" xmlns="http://www.w3.org/2000/svg">
<path d="M40.1963 61.8379C40.3916 61.6427 40.3916 61.3261 40.1963 61.1308L37.0143 57.9488C36.8191 57.7536 36.5025 57.7536 36.3072 57.9488C36.112 58.1441 36.112 58.4607 36.3072 58.6559L39.1357 61.4844L36.3072 64.3128C36.112 64.5081 36.112 64.8246 36.3072 65.0199C36.5025 65.2152 36.8191 65.2152 37.0143 65.0199L40.1963 61.8379ZM39.8428 125.65L39.8428 125.15L39.0188 125.15L39.0188 125.65L39.0188 126.15L39.8428 126.15L39.8428 125.65ZM37.3709 125.65L37.3709 125.15L35.723 125.15L35.723 125.65L35.723 126.15L37.3709 126.15L37.3709 125.65ZM34.075 125.65L34.075 125.15L32.4271 125.15L32.4271 125.65L32.4271 126.15L34.075 126.15L34.075 125.65ZM30.7792 125.65L30.7792 125.15L29.1313 125.15L29.1313 125.65L29.1313 126.15L30.7792 126.15L30.7792 125.65ZM27.4834 125.65L27.4834 125.15L25.8354 125.15L25.8354 125.65L25.8354 126.15L27.4834 126.15L27.4834 125.65ZM24.1875 125.65L24.1875 125.15L23.3635 125.15L23.3635 125.65L23.3635 126.15L24.1875 126.15L24.1875 125.65ZM23.3635 125.65L23.3635 125.15C23.1231 125.15 22.8886 125.127 22.6622 125.082L22.5651 125.573L22.4681 126.063C22.7581 126.12 23.0576 126.15 23.3635 126.15L23.3635 125.65ZM21.0905 124.961L21.3686 124.546C20.9768 124.284 20.6393 123.946 20.377 123.554L19.9615 123.832L19.5461 124.111C19.8811 124.611 20.3119 125.042 20.8123 125.377L21.0905 124.961ZM19.3503 122.358L19.8408 122.261C19.796 122.034 19.7725 121.8 19.7725 121.559L19.2725 121.559L18.7725 121.559C18.7725 121.865 18.8025 122.165 18.8598 122.455L19.3503 122.358ZM19.2725 121.559L19.7725 121.559L19.7725 120.685L19.2725 120.685L18.7725 120.685L18.7725 121.559L19.2725 121.559ZM19.2725 118.935L19.7725 118.935L19.7725 117.186L19.2725 117.186L18.7725 117.186L18.7725 118.935L19.2725 118.935ZM19.2725 115.436L19.7725 115.436L19.7725 113.687L19.2725 113.687L18.7725 113.687L18.7725 115.436L19.2725 115.436ZM19.2725 111.937L19.7725 111.937L19.7725 110.188L19.2725 110.188L18.7725 110.188L18.7725 111.937L19.2725 111.937ZM19.2725 108.438L19.7725 108.438L19.7725 106.689L19.2725 106.689L18.7725 106.689L18.7725 108.438L19.2725 108.438ZM19.2725 104.939L19.7725 104.939L19.7725 103.19L19.2725 103.19L18.7725 103.19L18.7725 104.939L19.2725 104.939ZM19.2725 101.44L19.7725 101.44L19.7725 99.6906L19.2725 99.6906L18.7725 99.6906L18.7725 101.44L19.2725 101.44ZM19.2725 97.9411L19.7725 97.9411L19.7725 96.1916L19.2725 96.1916L18.7725 96.1916L18.7725 97.9411L19.2725 97.9411ZM19.2725 94.4421L19.7725 94.4421L19.7725 92.6926L19.2725 92.6926L18.7725 92.6926L18.7725 94.4421L19.2725 94.4421ZM19.2725 90.9431L19.7725 90.9431L19.7725 89.1936L19.2725 89.1936L18.7725 89.1936L18.7725 90.9431L19.2725 90.9431ZM19.2725 87.4442L19.7725 87.4442L19.7725 85.6947L19.2725 85.6947L18.7725 85.6947L18.7725 87.4442L19.2725 87.4442ZM19.2725 83.9452L19.7725 83.9452L19.7725 82.1957L19.2725 82.1957L18.7725 82.1957L18.7725 83.9452L19.2725 83.9452ZM19.2725 80.4462L19.7725 80.4462L19.7725 78.6967L19.2725 78.6967L18.7725 78.6967L18.7725 80.4462L19.2725 80.4462ZM19.2725 76.9472L19.7725 76.9472L19.7725 75.1977L19.2725 75.1977L18.7725 75.1977L18.7725 76.9472L19.2725 76.9472ZM19.2725 73.4482L19.7725 73.4482L19.7725 71.6987L19.2725 71.6987L18.7725 71.6987L18.7725 73.4482L19.2725 73.4482ZM19.2725 69.9492L19.7725 69.9492L19.7725 68.1997L19.2725 68.1997L18.7725 68.1997L18.7725 69.9492L19.2725 69.9492ZM19.2725 66.4502L19.7725 66.4502L19.7725 65.5755L19.2725 65.5755L18.7725 65.5755L18.7725 66.4502L19.2725 66.4502ZM19.2725 65.5755L19.7725 65.5755C19.7725 65.335 19.796 65.1005 19.8408 64.8741L19.3503 64.777L18.8598 64.68C18.8025 64.97 18.7725 65.2695 18.7725 65.5755L19.2725 65.5755ZM19.9615 63.3024L20.377 63.5805C20.6393 63.1887 20.9768 62.8513 21.3686 62.5889L21.0905 62.1735L20.8123 61.758C20.3119 62.093 19.8811 62.5238 19.5461 63.0242L19.9615 63.3024ZM22.5651 61.5622L22.6622 62.0527C22.8886 62.0079 23.1231 61.9844 23.3635 61.9844L23.3635 61.4844L23.3635 60.9844C23.0576 60.9844 22.7581 61.0144 22.4681 61.0717L22.5651 61.5622ZM23.3635 61.4844L23.3635 61.9844L24.1875 61.9844L24.1875 61.4844L24.1875 60.9844L23.3635 60.9844L23.3635 61.4844ZM25.8354 61.4844L25.8354 61.9844L27.4834 61.9844L27.4834 61.4844L27.4834 60.9844L25.8354 60.9844L25.8354 61.4844ZM29.1313 61.4844L29.1313 61.9844L30.7792 61.9844L30.7792 61.4844L30.7792 60.9844L29.1313 60.9844L29.1313 61.4844ZM32.4271 61.4844L32.4271 61.9844L34.075 61.9844L34.075 61.4844L34.075 60.9844L32.4271 60.9844L32.4271 61.4844ZM35.723 61.4844L35.723 61.9844L37.3709 61.9844L37.3709 61.4844L37.3709 60.9844L35.723 60.9844L35.723 61.4844ZM39.0188 61.4844L39.0188 61.9844L39.8428 61.9844L39.8428 61.4844L39.8428 60.9844L39.0188 60.9844L39.0188 61.4844Z" fill="#989898"/>
<path d="M40.1963 133.193C40.3916 132.998 40.3916 132.682 40.1963 132.486L37.0143 129.304C36.8191 129.109 36.5025 129.109 36.3072 129.304C36.112 129.5 36.112 129.816 36.3072 130.011L39.1357 132.84L36.3072 135.668C36.112 135.864 36.112 136.18 36.3072 136.375C36.5025 136.571 36.8191 136.571 37.0143 136.375L40.1963 133.193ZM39.8428 197.006L39.8428 196.506L39.0188 196.506L39.0188 197.006L39.0188 197.506L39.8428 197.506L39.8428 197.006ZM37.3709 197.006L37.3709 196.506L35.723 196.506L35.723 197.006L35.723 197.506L37.3709 197.506L37.3709 197.006ZM34.075 197.006L34.075 196.506L32.4271 196.506L32.4271 197.006L32.4271 197.506L34.075 197.506L34.075 197.006ZM30.7792 197.006L30.7792 196.506L29.1313 196.506L29.1313 197.006L29.1313 197.506L30.7792 197.506L30.7792 197.006ZM27.4834 197.006L27.4834 196.506L25.8354 196.506L25.8354 197.006L25.8354 197.506L27.4834 197.506L27.4834 197.006ZM24.1875 197.006L24.1875 196.506L23.3635 196.506L23.3635 197.006L23.3635 197.506L24.1875 197.506L24.1875 197.006ZM23.3635 197.006L23.3635 196.506C23.1231 196.506 22.8886 196.482 22.6622 196.437L22.5651 196.928L22.4681 197.418C22.7581 197.476 23.0576 197.506 23.3635 197.506L23.3635 197.006ZM21.0905 196.317L21.3686 195.901C20.9768 195.639 20.6393 195.302 20.377 194.91L19.9615 195.188L19.5461 195.466C19.8811 195.966 20.3119 196.397 20.8123 196.732L21.0905 196.317ZM19.3503 193.713L19.8408 193.616C19.796 193.39 19.7725 193.155 19.7725 192.915L19.2725 192.915L18.7725 192.915C18.7725 193.221 18.8025 193.52 18.8598 193.81L19.3503 193.713ZM19.2725 192.915L19.7725 192.915L19.7725 192.04L19.2725 192.04L18.7725 192.04L18.7725 192.915L19.2725 192.915ZM19.2725 190.291L19.7725 190.291L19.7725 188.541L19.2725 188.541L18.7725 188.541L18.7725 190.291L19.2725 190.291ZM19.2725 186.792L19.7725 186.792L19.7725 185.042L19.2725 185.042L18.7725 185.042L18.7725 186.792L19.2725 186.792ZM19.2725 183.293L19.7725 183.293L19.7725 181.543L19.2725 181.543L18.7725 181.543L18.7725 183.293L19.2725 183.293ZM19.2725 179.794L19.7725 179.794L19.7725 178.044L19.2725 178.044L18.7725 178.044L18.7725 179.794L19.2725 179.794ZM19.2725 176.295L19.7725 176.295L19.7725 174.545L19.2725 174.545L18.7725 174.545L18.7725 176.295L19.2725 176.295ZM19.2725 172.796L19.7725 172.796L19.7725 171.046L19.2725 171.046L18.7725 171.046L18.7725 172.796L19.2725 172.796ZM19.2725 169.297L19.7725 169.297L19.7725 167.547L19.2725 167.547L18.7725 167.547L18.7725 169.297L19.2725 169.297ZM19.2725 165.798L19.7725 165.798L19.7725 164.048L19.2725 164.048L18.7725 164.048L18.7725 165.798L19.2725 165.798ZM19.2725 162.299L19.7725 162.299L19.7725 160.549L19.2725 160.549L18.7725 160.549L18.7725 162.299L19.2725 162.299ZM19.2725 158.8L19.7725 158.8L19.7725 157.05L19.2725 157.05L18.7725 157.05L18.7725 158.8L19.2725 158.8ZM19.2725 155.301L19.7725 155.301L19.7725 153.551L19.2725 153.551L18.7725 153.551L18.7725 155.301L19.2725 155.301ZM19.2725 151.802L19.7725 151.802L19.7725 150.052L19.2725 150.052L18.7725 150.052L18.7725 151.802L19.2725 151.802ZM19.2725 148.303L19.7725 148.303L19.7725 146.553L19.2725 146.553L18.7725 146.553L18.7725 148.303L19.2725 148.303ZM19.2725 144.804L19.7725 144.804L19.7725 143.054L19.2725 143.054L18.7725 143.054L18.7725 144.804L19.2725 144.804ZM19.2725 141.305L19.7725 141.305L19.7725 139.555L19.2725 139.555L18.7725 139.555L18.7725 141.305L19.2725 141.305ZM19.2725 137.806L19.7725 137.806L19.7725 136.931L19.2725 136.931L18.7725 136.931L18.7725 137.806L19.2725 137.806ZM19.2725 136.931L19.7725 136.931C19.7725 136.69 19.796 136.456 19.8408 136.23L19.3503 136.133L18.8598 136.035C18.8025 136.325 18.7725 136.625 18.7725 136.931L19.2725 136.931ZM19.9615 134.658L20.377 134.936C20.6393 134.544 20.9768 134.207 21.3686 133.944L21.0905 133.529L20.8123 133.113C20.3119 133.448 19.8811 133.879 19.5461 134.38L19.9615 134.658ZM22.5651 132.918L22.6622 133.408C22.8886 133.363 23.1231 133.34 23.3635 133.34L23.3635 132.84L23.3635 132.34C23.0576 132.34 22.7581 132.37 22.4681 132.427L22.5651 132.918ZM23.3635 132.84L23.3635 133.34L24.1875 133.34L24.1875 132.84L24.1875 132.34L23.3635 132.34L23.3635 132.84ZM25.8354 132.84L25.8354 133.34L27.4834 133.34L27.4834 132.84L27.4834 132.34L25.8354 132.34L25.8354 132.84ZM29.1313 132.84L29.1313 133.34L30.7792 133.34L30.7792 132.84L30.7792 132.34L29.1313 132.34L29.1313 132.84ZM32.4271 132.84L32.4271 133.34L34.075 133.34L34.075 132.84L34.075 132.34L32.4271 132.34L32.4271 132.84ZM35.723 132.84L35.723 133.34L37.3709 133.34L37.3709 132.84L37.3709 132.34L35.723 132.34L35.723 132.84ZM39.0188 132.84L39.0188 133.34L39.8428 133.34L39.8428 132.84L39.8428 132.34L39.0188 132.34L39.0188 132.84Z" fill="#989898"/>
<path d="M183.91 61.8379C183.715 61.6427 183.715 61.3261 183.91 61.1308L187.092 57.9488C187.287 57.7536 187.604 57.7536 187.799 57.9488C187.994 58.1441 187.994 58.4607 187.799 58.656L184.971 61.4844L187.799 64.3128C187.994 64.5081 187.994 64.8246 187.799 65.0199C187.604 65.2152 187.287 65.2152 187.092 65.0199L183.91 61.8379ZM156.556 125.65L156.556 125.15L157.477 125.15L157.477 125.65L157.477 126.15L156.556 126.15L156.556 125.65ZM159.318 125.65L159.318 125.15L161.159 125.15L161.159 125.65L161.159 126.15L159.318 126.15L159.318 125.65ZM163 125.65L163 125.15L164.841 125.15L164.841 125.65L164.841 126.15L163 126.15L163 125.65ZM166.682 125.65L166.682 125.15L168.523 125.15L168.523 125.65L168.523 126.15L166.682 126.15L166.682 125.65ZM170.365 125.65L170.365 125.15L172.206 125.15L172.206 125.65L172.206 126.15L170.365 126.15L170.365 125.65ZM174.047 125.65L174.047 125.15L175.888 125.15L175.888 125.65L175.888 126.15L174.047 126.15L174.047 125.65ZM177.729 125.65L177.729 125.15L179.57 125.15L179.57 125.65L179.57 126.15L177.729 126.15L177.729 125.65ZM181.411 125.65L181.411 125.15L183.252 125.15L183.252 125.65L183.252 126.15L181.411 126.15L181.411 125.65ZM185.093 125.65L185.093 125.15L186.935 125.15L186.935 125.65L186.935 126.15L185.093 126.15L185.093 125.65ZM188.776 125.65L188.776 125.15L190.617 125.15L190.617 125.65L190.617 126.15L188.776 126.15L188.776 125.65ZM192.458 125.65L192.458 125.15L194.299 125.15L194.299 125.65L194.299 126.15L192.458 126.15L192.458 125.65ZM196.14 125.65L196.14 125.15L197.981 125.15L197.981 125.65L197.981 126.15L196.14 126.15L196.14 125.65ZM199.822 125.65L199.822 125.15L200.743 125.15L200.743 125.65L200.743 126.15L199.822 126.15L199.822 125.65ZM200.743 125.65L200.743 125.15C200.983 125.15 201.218 125.127 201.444 125.082L201.541 125.572L201.638 126.063C201.348 126.12 201.049 126.15 200.743 126.15L200.743 125.65ZM203.016 124.961L202.738 124.546C203.13 124.283 203.467 123.946 203.729 123.554L204.145 123.832L204.56 124.11C204.225 124.611 203.795 125.042 203.294 125.377L203.016 124.961ZM204.756 122.358L204.266 122.261C204.31 122.034 204.334 121.8 204.334 121.559L204.834 121.559L205.334 121.559C205.334 121.865 205.304 122.165 205.247 122.455L204.756 122.358ZM204.834 121.559L204.334 121.559L204.334 120.685L204.834 120.685L205.334 120.685L205.334 121.559L204.834 121.559ZM204.834 118.935L204.334 118.935L204.334 117.186L204.834 117.186L205.334 117.186L205.334 118.935L204.834 118.935ZM204.834 115.436L204.334 115.436L204.334 113.687L204.834 113.687L205.334 113.687L205.334 115.436L204.834 115.436ZM204.834 111.937L204.334 111.937L204.334 110.188L204.834 110.188L205.334 110.188L205.334 111.937L204.834 111.937ZM204.834 108.438L204.334 108.438L204.334 106.689L204.834 106.689L205.334 106.689L205.334 108.438L204.834 108.438ZM204.834 104.939L204.334 104.939L204.334 103.19L204.834 103.19L205.334 103.19L205.334 104.939L204.834 104.939ZM204.834 101.44L204.334 101.44L204.334 99.6906L204.834 99.6906L205.334 99.6906L205.334 101.44L204.834 101.44ZM204.834 97.9411L204.334 97.9411L204.334 96.1916L204.834 96.1916L205.334 96.1916L205.334 97.9411L204.834 97.9411ZM204.834 94.4421L204.334 94.4421L204.334 92.6926L204.834 92.6926L205.334 92.6926L205.334 94.4421L204.834 94.4421ZM204.834 90.9431L204.334 90.9431L204.334 89.1936L204.834 89.1936L205.334 89.1936L205.334 90.9431L204.834 90.9431ZM204.834 87.4441L204.334 87.4441L204.334 85.6946L204.834 85.6946L205.334 85.6946L205.334 87.4441L204.834 87.4441ZM204.834 83.9451L204.334 83.9451L204.334 82.1957L204.834 82.1957L205.334 82.1957L205.334 83.9451L204.834 83.9451ZM204.834 80.4462L204.334 80.4462L204.334 78.6967L204.834 78.6967L205.334 78.6967L205.334 80.4462L204.834 80.4462ZM204.834 76.9472L204.334 76.9472L204.334 75.1977L204.834 75.1977L205.334 75.1977L205.334 76.9472L204.834 76.9472ZM204.834 73.4482L204.334 73.4482L204.334 71.6987L204.834 71.6987L205.334 71.6987L205.334 73.4482L204.834 73.4482ZM204.834 69.9492L204.334 69.9492L204.334 68.1997L204.834 68.1997L205.334 68.1997L205.334 69.9492L204.834 69.9492ZM204.834 66.4502L204.334 66.4502L204.334 65.5755L204.834 65.5755L205.334 65.5755L205.334 66.4502L204.834 66.4502ZM204.834 65.5755L204.334 65.5755C204.334 65.335 204.31 65.1005 204.266 64.8741L204.756 64.777L205.247 64.68C205.304 64.97 205.334 65.2695 205.334 65.5755L204.834 65.5755ZM204.145 63.3024L203.729 63.5806C203.467 63.1887 203.13 62.8513 202.738 62.5889L203.016 62.1735L203.294 61.758C203.795 62.093 204.225 62.5238 204.56 63.0242L204.145 63.3024ZM201.541 61.5622L201.444 62.0527C201.218 62.0079 200.983 61.9844 200.743 61.9844L200.743 61.4844L200.743 60.9844C201.049 60.9844 201.348 61.0144 201.638 61.0718L201.541 61.5622ZM200.743 61.4844L200.743 61.9844L199.919 61.9844L199.919 61.4844L199.919 60.9844L200.743 60.9844L200.743 61.4844ZM198.271 61.4844L198.271 61.9844L196.623 61.9844L196.623 61.4844L196.623 60.9844L198.271 60.9844L198.271 61.4844ZM194.975 61.4844L194.975 61.9844L193.327 61.9844L193.327 61.4844L193.327 60.9844L194.975 60.9844L194.975 61.4844ZM191.679 61.4844L191.679 61.9844L190.031 61.9844L190.031 61.4844L190.031 60.9844L191.679 60.9844L191.679 61.4844ZM188.383 61.4844L188.383 61.9844L186.736 61.9844L186.736 61.4844L186.736 60.9844L188.383 60.9844L188.383 61.4844ZM185.088 61.4844L185.088 61.9844L184.264 61.9844L184.264 61.4844L184.264 60.9844L185.088 60.9844L185.088 61.4844Z" fill="#989898"/>
<path d="M156.887 133.193C156.692 132.998 156.692 132.681 156.887 132.486L160.069 129.304C160.265 129.109 160.581 129.109 160.776 129.304C160.972 129.499 160.972 129.816 160.776 130.011L157.948 132.839L160.776 135.668C160.972 135.863 160.972 136.18 160.776 136.375C160.581 136.57 160.265 136.57 160.069 136.375L156.887 133.193ZM305.691 132.839L305.691 133.339L305.691 132.839ZM298.178 197.006L298.178 196.506L299.117 196.506L299.117 197.006L299.117 197.506L298.178 197.506L298.178 197.006ZM300.995 197.006L300.995 196.506L302.874 196.506L302.874 197.006L302.874 197.506L300.995 197.506L300.995 197.006ZM304.752 197.006L304.752 196.506L305.691 196.506L305.691 197.006L305.691 197.506L304.752 197.506L304.752 197.006ZM305.691 197.006L305.691 196.506C305.932 196.506 306.166 196.482 306.393 196.437L306.49 196.928L306.587 197.418C306.297 197.476 305.997 197.506 305.691 197.506L305.691 197.006ZM307.964 196.316L307.686 195.901C308.078 195.639 308.415 195.301 308.678 194.909L309.093 195.188L309.509 195.466C309.174 195.966 308.743 196.397 308.242 196.732L307.964 196.316ZM309.704 193.713L309.214 193.616C309.259 193.389 309.282 193.155 309.282 192.915L309.782 192.915L310.282 192.915C310.282 193.221 310.252 193.52 310.195 193.81L309.704 193.713ZM309.782 192.915L309.282 192.915L309.282 192.04L309.782 192.04L310.282 192.04L310.282 192.915L309.782 192.915ZM309.782 190.29L309.282 190.29L309.282 188.541L309.782 188.541L310.282 188.541L310.282 190.29L309.782 190.29ZM309.782 186.791L309.282 186.791L309.282 185.042L309.782 185.042L310.282 185.042L310.282 186.791L309.782 186.791ZM309.782 183.292L309.282 183.292L309.282 181.543L309.782 181.543L310.282 181.543L310.282 183.292L309.782 183.292ZM309.782 179.793L309.282 179.793L309.282 178.044L309.782 178.044L310.282 178.044L310.282 179.793L309.782 179.793ZM309.782 176.294L309.282 176.294L309.282 174.545L309.782 174.545L310.282 174.545L310.282 176.294L309.782 176.294ZM309.782 172.795L309.282 172.795L309.282 171.046L309.782 171.046L310.282 171.046L310.282 172.795L309.782 172.795ZM309.782 169.296L309.282 169.296L309.282 167.547L309.782 167.547L310.282 167.547L310.282 169.296L309.782 169.296ZM309.782 165.797L309.282 165.797L309.282 164.048L309.782 164.048L310.282 164.048L310.282 165.797L309.782 165.797ZM309.782 162.298L309.282 162.298L309.282 160.549L309.782 160.549L310.282 160.549L310.282 162.298L309.782 162.298ZM309.782 158.799L309.282 158.799L309.282 157.05L309.782 157.05L310.282 157.05L310.282 158.799L309.782 158.799ZM309.782 155.3L309.282 155.3L309.282 153.551L309.782 153.551L310.282 153.551L310.282 155.3L309.782 155.3ZM309.782 151.801L309.282 151.801L309.282 150.052L309.782 150.052L310.282 150.052L310.282 151.801L309.782 151.801ZM309.782 148.302L309.282 148.302L309.282 146.553L309.782 146.553L310.282 146.553L310.282 148.302L309.782 148.302ZM309.782 144.803L309.282 144.803L309.282 143.054L309.782 143.054L310.282 143.054L310.282 144.803L309.782 144.803ZM309.782 141.304L309.282 141.304L309.282 139.555L309.782 139.555L310.282 139.555L310.282 141.304L309.782 141.304ZM309.782 137.805L309.282 137.805L309.282 136.931L309.782 136.931L310.282 136.931L310.282 137.805L309.782 137.805ZM309.782 136.931L309.282 136.931C309.282 136.69 309.259 136.456 309.214 136.229L309.704 136.132L310.195 136.035C310.252 136.325 310.282 136.625 310.282 136.931L309.782 136.931ZM309.093 134.658L308.678 134.936C308.415 134.544 308.078 134.206 307.686 133.944L307.964 133.529L308.242 133.113C308.743 133.448 309.174 133.879 309.509 134.379L309.093 134.658ZM306.49 132.917L306.393 133.408C306.166 133.363 305.932 133.339 305.691 133.339L305.691 132.839L305.691 132.339C305.997 132.339 306.297 132.369 306.587 132.427L306.49 132.917ZM305.691 132.839L305.691 133.339L304.786 133.339L304.786 132.839L304.786 132.339L305.691 132.339L305.691 132.839ZM302.976 132.839L302.976 133.339L301.165 133.339L301.165 132.839L301.165 132.339L302.976 132.339L302.976 132.839ZM299.355 132.839L299.355 133.339L297.544 133.339L297.544 132.839L297.544 132.339L299.355 132.339L299.355 132.839ZM295.734 132.839L295.734 133.339L293.924 133.339L293.924 132.839L293.924 132.339L295.734 132.339L295.734 132.839ZM292.113 132.839L292.113 133.339L290.303 133.339L290.303 132.839L290.303 132.339L292.113 132.339L292.113 132.839ZM288.493 132.839L288.493 133.339L286.682 133.339L286.682 132.839L286.682 132.339L288.493 132.339L288.493 132.839ZM284.872 132.839L284.872 133.339L283.062 133.339L283.062 132.839L283.062 132.339L284.872 132.339L284.872 132.839ZM281.251 132.839L281.251 133.339L279.441 133.339L279.441 132.839L279.441 132.339L281.251 132.339L281.251 132.839ZM277.63 132.839L277.63 133.339L275.82 133.339L275.82 132.839L275.82 132.339L277.63 132.339L277.63 132.839ZM274.01 132.839L274.01 133.339L272.199 133.339L272.199 132.839L272.199 132.339L274.01 132.339L274.01 132.839ZM270.389 132.839L270.389 133.339L268.579 133.339L268.579 132.839L268.579 132.339L270.389 132.339L270.389 132.839ZM266.768 132.839L266.768 133.339L264.958 133.339L264.958 132.839L264.958 132.339L266.768 132.339L266.768 132.839ZM263.147 132.839L263.147 133.339L261.337 133.339L261.337 132.839L261.337 132.339L263.147 132.339L263.147 132.839ZM259.527 132.839L259.527 133.339L257.716 133.339L257.716 132.839L257.716 132.339L259.527 132.339L259.527 132.839ZM255.906 132.839L255.906 133.339L254.096 133.339L254.096 132.839L254.096 132.339L255.906 132.339L255.906 132.839ZM252.285 132.839L252.285 133.339L250.475 133.339L250.475 132.839L250.475 132.339L252.285 132.339L252.285 132.839ZM248.665 132.839L248.665 133.339L246.854 133.339L246.854 132.839L246.854 132.339L248.665 132.339L248.665 132.839ZM245.044 132.839L245.044 133.339L243.233 133.339L243.233 132.839L243.233 132.339L245.044 132.339L245.044 132.839ZM241.423 132.839L241.423 133.339L239.613 133.339L239.613 132.839L239.613 132.339L241.423 132.339L241.423 132.839ZM237.802 132.839L237.802 133.339L235.992 133.339L235.992 132.839L235.992 132.339L237.802 132.339L237.802 132.839ZM234.182 132.839L234.182 133.339L232.371 133.339L232.371 132.839L232.371 132.339L234.182 132.339L234.182 132.839ZM230.561 132.839L230.561 133.339L228.75 133.339L228.75 132.839L228.75 132.339L230.561 132.339L230.561 132.839ZM226.94 132.839L226.94 133.339L225.13 133.339L225.13 132.839L225.13 132.339L226.94 132.339L226.94 132.839ZM223.319 132.839L223.319 133.339L221.509 133.339L221.509 132.839L221.509 132.339L223.319 132.339L223.319 132.839ZM219.699 132.839L219.699 133.339L217.888 133.339L217.888 132.839L217.888 132.339L219.699 132.339L219.699 132.839ZM216.078 132.839L216.078 133.339L214.267 133.339L214.267 132.839L214.267 132.339L216.078 132.339L216.078 132.839ZM212.457 132.839L212.457 133.339L210.647 133.339L210.647 132.839L210.647 132.339L212.457 132.339L212.457 132.839ZM208.836 132.839L208.836 133.339L207.026 133.339L207.026 132.839L207.026 132.339L208.836 132.339L208.836 132.839ZM205.216 132.839L205.216 133.339L203.405 133.339L203.405 132.839L203.405 132.339L205.216 132.339L205.216 132.839ZM201.595 132.839L201.595 133.339L199.785 133.339L199.785 132.839L199.785 132.339L201.595 132.339L201.595 132.839ZM197.974 132.839L197.974 133.339L196.164 133.339L196.164 132.839L196.164 132.339L197.974 132.339L197.974 132.839ZM194.353 132.839L194.353 133.339L192.543 133.339L192.543 132.839L192.543 132.339L194.353 132.339L194.353 132.839ZM190.733 132.839L190.733 133.339L188.922 133.339L188.922 132.839L188.922 132.339L190.733 132.339L190.733 132.839ZM187.112 132.839L187.112 133.339L185.302 133.339L185.302 132.839L185.302 132.339L187.112 132.339L187.112 132.839ZM183.491 132.839L183.491 133.339L181.681 133.339L181.681 132.839L181.681 132.339L183.491 132.339L183.491 132.839ZM179.87 132.839L179.87 133.339L178.06 133.339L178.06 132.839L178.06 132.339L179.87 132.339L179.87 132.839ZM176.25 132.839L176.25 133.339L174.439 133.339L174.439 132.839L174.439 132.339L176.25 132.339L176.25 132.839ZM172.629 132.839L172.629 133.339L170.819 133.339L170.819 132.839L170.819 132.339L172.629 132.339L172.629 132.839ZM169.008 132.839L169.008 133.339L167.198 133.339L167.198 132.839L167.198 132.339L169.008 132.339L169.008 132.839ZM165.388 132.839L165.388 133.339L163.577 133.339L163.577 132.839L163.577 132.339L165.388 132.339L165.388 132.839ZM161.767 132.839L161.767 133.339L159.956 133.339L159.956 132.839L159.956 132.339L161.767 132.339L161.767 132.839ZM158.146 132.839L158.146 133.339L157.241 133.339L157.241 132.839L157.241 132.339L158.146 132.339L158.146 132.839Z" fill="#989898"/>
<rect x="50.0579" y="45.0579" width="123.99" height="33.4871" rx="9.09827" fill="#1C1C1C"/>
<rect x="50.0579" y="45.0579" width="123.99" height="33.4871" rx="9.09827" stroke="#1C1C1C" stroke-width="2.11588"/>
<path d="M61.0275 72.9238V52.9542H68.2892C74.2941 52.9542 77.1429 57.0319 77.1429 63.0088C77.1429 68.9858 74.0986 72.9238 68.0937 72.9238H61.0275ZM63.5412 70.7174H68.0099C72.7021 70.7174 74.5734 67.701 74.5734 63.0088C74.5734 58.3167 72.8976 55.1327 68.2054 55.1327H63.5412V70.7174ZM81.2372 72.9238V52.9542H95.3416V55.1606H83.7509V61.4727H94.2803V63.5953H83.7509V70.6057H95.6768V72.9238H81.2372ZM106.717 73.3148C101.104 73.3148 98.4224 70.1867 98.199 66.1649H100.657C100.992 69.5443 103.059 71.3039 106.829 71.3039C109.594 71.3039 111.577 70.0471 111.577 67.5613C111.577 64.8242 109.175 64.1819 105.6 63.3998C102.081 62.6178 99.0648 61.6123 99.0648 57.8419C99.0648 54.5462 101.802 52.5632 105.852 52.5632C110.851 52.5632 112.918 55.1048 113.421 58.7915H111.047C110.683 55.9426 108.84 54.5182 105.908 54.5182C103.198 54.5182 101.411 55.6633 101.411 57.7301C101.411 59.9924 103.645 60.6627 106.634 61.2493C110.516 62.0313 114.063 62.9809 114.063 67.4776C114.063 71.2201 111.019 73.3148 106.717 73.3148ZM118.112 72.9238V52.9542H120.626V72.9238H118.112ZM141.169 72.9238L140.443 70.2984H140.387C138.935 72.3373 136.784 73.3428 134.159 73.3428C128.545 73.3428 124.774 69.0695 124.774 63.0088C124.774 57.1436 128.098 52.5352 134.382 52.5352C139.018 52.5352 141.867 55.0489 142.51 58.959H139.912C139.354 56.3057 137.482 54.7137 134.326 54.7137C129.522 54.7137 127.344 58.3167 127.344 63.0088C127.344 67.8965 130.193 71.1643 134.243 71.1643C138.348 71.1643 140.275 68.3713 140.275 65.0198V64.545H134.27V62.3664H142.789V72.9238H141.169ZM147.375 72.9238V52.9542H150.028L159.133 66.8352C159.803 67.8686 160.585 69.4047 160.585 69.4047H160.641V52.9542H162.987V72.9238H160.418L151.257 59.0149C150.615 58.0374 149.777 56.5292 149.777 56.5292H149.721V72.9238H147.375Z" fill="white"/>
<rect x="50.0579" y="112.661" width="98.123" height="33.4871" rx="9.09827" fill="#1C1C1C"/>
<rect x="50.0579" y="112.661" width="98.123" height="33.4871" rx="9.09827" stroke="#1C1C1C" stroke-width="2.11588"/>
<path d="M61.0275 140.527V120.558H74.5734V122.764H63.5412V128.992H72.73V131.115H63.5412V140.527H61.0275ZM78.3474 140.527V120.558H80.861V140.527H78.3474ZM84.2835 140.527L91.21 130.305L84.7862 120.558H87.6909L92.6344 128.546H92.6903L97.7456 120.558H100.511L93.9751 130.333L100.706 140.527H97.6897L92.5506 132.121H92.4948L87.1323 140.527H84.2835ZM104.091 140.527V120.558H118.196V122.764H106.605V129.076H117.135V131.199H106.605V138.209H118.531V140.527H104.091ZM129.572 140.918C123.958 140.918 121.277 137.79 121.053 133.768H123.511C123.846 137.148 125.913 138.907 129.683 138.907C132.448 138.907 134.431 137.651 134.431 135.165C134.431 132.428 132.03 131.785 128.455 131.003C124.935 130.221 121.919 129.216 121.919 125.445C121.919 122.15 124.656 120.167 128.706 120.167C133.705 120.167 135.772 122.708 136.275 126.395H133.901C133.538 123.546 131.694 122.122 128.762 122.122C126.053 122.122 124.265 123.267 124.265 125.334C124.265 127.596 126.499 128.266 129.488 128.853C133.37 129.635 136.917 130.584 136.917 135.081C136.917 138.824 133.873 140.918 129.572 140.918Z" fill="white"/>
<rect x="50.0579" y="180.263" width="243.54" height="33.4871" rx="9.09827" fill="#1C1C1C"/>
<rect x="50.0579" y="180.263" width="243.54" height="33.4871" rx="9.09827" stroke="#1C1C1C" stroke-width="2.11588"/>
<path d="M61.0275 208.129V188.159H68.2892C74.2941 188.159 77.1429 192.237 77.1429 198.214C77.1429 204.191 74.0986 208.129 68.0937 208.129H61.0275ZM63.5412 205.922H68.0099C72.7021 205.922 74.5734 202.906 74.5734 198.214C74.5734 193.522 72.8976 190.338 68.2054 190.338H63.5412V205.922ZM81.2372 208.129V188.159H95.3416V190.366H83.7509V196.678H94.2803V198.8H83.7509V205.811H95.6768V208.129H81.2372ZM106.717 208.52C101.104 208.52 98.4224 205.392 98.199 201.37H100.657C100.992 204.749 103.059 206.509 106.829 206.509C109.594 206.509 111.577 205.252 111.577 202.766C111.577 200.029 109.175 199.387 105.6 198.605C102.081 197.823 99.0648 196.817 99.0648 193.047C99.0648 189.751 101.802 187.768 105.852 187.768C110.851 187.768 112.918 190.31 113.421 193.997H111.047C110.683 191.148 108.84 189.723 105.908 189.723C103.198 189.723 101.411 190.868 101.411 192.935C101.411 195.198 103.645 195.868 106.634 196.454C110.516 197.236 114.063 198.186 114.063 202.683C114.063 206.425 111.019 208.52 106.717 208.52ZM118.112 208.129V188.159H120.626V208.129H118.112ZM141.169 208.129L140.443 205.504H140.387C138.935 207.542 136.784 208.548 134.159 208.548C128.545 208.548 124.774 204.275 124.774 198.214C124.774 192.349 128.098 187.74 134.382 187.74C139.018 187.74 141.867 190.254 142.51 194.164H139.912C139.354 191.511 137.482 189.919 134.326 189.919C129.522 189.919 127.344 193.522 127.344 198.214C127.344 203.102 130.193 206.369 134.243 206.369C138.348 206.369 140.275 203.576 140.275 200.225V199.75H134.27V197.572H142.789V208.129H141.169ZM147.375 208.129V188.159H150.028L159.133 202.04C159.803 203.074 160.585 204.61 160.585 204.61H160.641V188.159H162.987V208.129H160.418L151.257 194.22C150.615 193.242 149.777 191.734 149.777 191.734H149.721V208.129H147.375ZM180.682 208.52C175.068 208.52 172.387 205.392 172.163 201.37H174.621C174.956 204.749 177.023 206.509 180.794 206.509C183.559 206.509 185.542 205.252 185.542 202.766C185.542 200.029 183.14 199.387 179.565 198.605C176.045 197.823 173.029 196.817 173.029 193.047C173.029 189.751 175.766 187.768 179.816 187.768C184.815 187.768 186.882 190.31 187.385 193.997H185.011C184.648 191.148 182.804 189.723 179.872 189.723C177.163 189.723 175.375 190.868 175.375 192.935C175.375 195.198 177.61 195.868 180.598 196.454C184.48 197.236 188.027 198.186 188.027 202.683C188.027 206.425 184.983 208.52 180.682 208.52ZM196.544 208.129V199.666L189.31 188.159H192.103L197.829 197.655H197.885L203.694 188.159H206.375L199.058 199.722V208.129H196.544ZM216.055 208.52C210.441 208.52 207.76 205.392 207.537 201.37H209.995C210.33 204.749 212.396 206.509 216.167 206.509C218.932 206.509 220.915 205.252 220.915 202.766C220.915 200.029 218.513 199.387 214.938 198.605C211.419 197.823 208.403 196.817 208.403 193.047C208.403 189.751 211.14 187.768 215.189 187.768C220.189 187.768 222.256 190.31 222.758 193.997H220.384C220.021 191.148 218.178 189.723 215.245 189.723C212.536 189.723 210.749 190.868 210.749 192.935C210.749 195.198 212.983 195.868 215.971 196.454C219.854 197.236 223.401 198.186 223.401 202.683C223.401 206.425 220.356 208.52 216.055 208.52ZM225.155 190.366V188.159H240.963V190.366H234.316V208.129H231.803V190.366H225.155ZM244.576 208.129V188.159H258.681V190.366H247.09V196.678H257.619V198.8H247.09V205.811H259.016V208.129H244.576ZM263.068 208.129V188.159H266.279L272.759 204.749H272.815L279.239 188.159H282.506V208.129H280.105V191.706H280.049C280.049 191.706 279.518 193.27 279.155 194.22L273.681 208.129H271.754L266.279 194.22C265.888 193.215 265.386 191.706 265.386 191.706H265.33V208.129H263.068Z" fill="white"/>
<rect x="50.0579" y="247.867" width="166.473" height="33.4871" rx="9.09827" fill="#1C1C1C"/>
<rect x="50.0579" y="247.867" width="166.473" height="33.4871" rx="9.09827" stroke="#1C1C1C" stroke-width="2.11588"/>
<path d="M61.0275 275.732V255.763H63.5412V264.253H74.2103V255.763H76.724V275.732H74.2103V266.292H63.5412V275.732H61.0275ZM79.9998 275.732L87.3453 255.763H90.1662L97.5396 275.732H94.8025L92.6798 269.644H84.7199L82.5693 275.732H79.9998ZM87.8201 260.902L85.4461 267.605H91.9816L89.6914 260.902C89.3003 259.785 88.7976 258.081 88.7976 258.081H88.7418C88.7418 258.081 88.2111 259.757 87.8201 260.902ZM100.82 275.732V255.763H103.473L112.578 269.644C113.248 270.677 114.03 272.213 114.03 272.213H114.086V255.763H116.432V275.732H113.863L104.702 261.823C104.059 260.846 103.221 259.338 103.221 259.338H103.166V275.732H100.82ZM121.302 275.732V255.763H128.564C134.569 255.763 137.417 259.84 137.417 265.817C137.417 271.794 134.373 275.732 128.368 275.732H121.302ZM123.816 273.526H128.284C132.977 273.526 134.848 270.51 134.848 265.817C134.848 261.125 133.172 257.941 128.48 257.941H123.816V273.526ZM140.702 267.772V265.398H148.745V267.772H140.702ZM161.824 276.151C155.791 276.151 152.048 271.711 152.048 265.734C152.048 259.757 155.791 255.316 161.824 255.316C167.856 255.316 171.599 259.757 171.599 265.734C171.599 271.711 167.856 276.151 161.824 276.151ZM161.824 273.945C166.516 273.945 169.029 270.426 169.029 265.734C169.029 261.041 166.516 257.494 161.824 257.494C157.131 257.494 154.618 261.041 154.618 265.734C154.618 270.426 157.131 273.945 161.824 273.945ZM175.712 275.732V255.763H189.258V257.969H178.226V264.198H187.415V266.32H178.226V275.732H175.712ZM192.976 275.732V255.763H206.522V257.969H195.49V264.198H204.679V266.32H195.49V275.732H192.976Z" fill="white"/>
<rect x="50.0579" y="315.47" width="59.1965" height="33.4309" rx="9.09827" fill="#1C1C1C"/>
<rect x="50.0579" y="315.47" width="59.1965" height="33.4309" rx="9.09827" stroke="#1C1C1C" stroke-width="2.11588"/>
<path d="M78.0925 342.861L74.9923 340.404C73.5958 341.186 71.9201 341.604 70.0488 341.604C64.016 341.604 60.2734 337.164 60.2734 331.187C60.2734 325.21 64.016 320.769 70.0488 320.769C76.0816 320.769 79.8241 325.21 79.8241 331.187C79.8241 334.455 78.707 337.247 76.724 339.119L79.3773 341.241L78.0925 342.861ZM70.0488 339.398C71.166 339.398 72.1714 339.203 73.0373 338.839L71.0263 337.22L72.3111 335.6L74.8527 337.638C76.4167 336.158 77.2546 333.868 77.2546 331.187C77.2546 326.495 74.741 322.948 70.0488 322.948C65.3566 322.948 62.843 326.495 62.843 331.187C62.843 335.879 65.3566 339.398 70.0488 339.398ZM81.7999 341.186L89.1454 321.216H91.9663L99.3397 341.186H96.6026L94.48 335.097H86.52L84.3695 341.186H81.7999ZM89.6202 326.355L87.2462 333.058H93.7817L91.4915 326.355C91.1005 325.238 90.5978 323.534 90.5978 323.534H90.5419C90.5419 323.534 90.0112 325.21 89.6202 326.355Z" fill="white"/>
<path d="M64.251 108.158L70.0651 98.1815L58.5182 98.1346L64.251 108.158ZM64.3672 79.6035L63.3672 79.5994L63.2876 99.154L64.2876 99.158L65.2876 99.1621L65.3672 79.6076L64.3672 79.6035Z" fill="#1C1C1C"/>
<path d="M64.1348 175.761L69.9489 165.785L58.402 165.738L64.1348 175.761ZM64.251 147.207L63.251 147.203L63.1714 166.757L64.1714 166.762L65.1714 166.766L65.251 147.211L64.251 147.207Z" fill="#1C1C1C"/>
<path d="M64.0186 243.363L69.8327 233.387L58.2858 233.34L64.0186 243.363ZM64.1348 214.809L63.1348 214.805L63.0552 234.359L64.0552 234.363L65.0552 234.367L65.1348 214.813L64.1348 214.809Z" fill="#1C1C1C"/>
<path d="M63.9023 310.965L69.7165 300.988L58.1696 300.941L63.9023 310.965ZM64.0186 282.41L63.0186 282.406L62.939 301.961L63.939 301.965L64.939 301.969L65.0185 282.414L64.0186 282.41Z" fill="#1C1C1C"/>
</svg>
