<svg width="1740" height="396" viewBox="0 0 1740 396" fill="none" xmlns="http://www.w3.org/2000/svg">
<rect x="1526.25" y="175.602" width="106.243" height="61.6759" rx="17.6217" fill="#1C1C1C"/>
<path d="M1576.73 224.347L1571.35 220.083C1568.93 221.439 1566.02 222.166 1562.77 222.166C1552.3 222.166 1545.81 214.461 1545.81 204.091C1545.81 193.721 1552.3 186.015 1562.77 186.015C1573.24 186.015 1579.73 193.721 1579.73 204.091C1579.73 209.761 1577.79 214.607 1574.35 217.853L1578.96 221.536L1576.73 224.347ZM1562.77 218.338C1564.71 218.338 1566.45 217.999 1567.96 217.369L1564.47 214.558L1566.7 211.748L1571.11 215.285C1573.82 212.717 1575.27 208.743 1575.27 204.091C1575.27 195.95 1570.91 189.795 1562.77 189.795C1554.63 189.795 1550.27 195.95 1550.27 204.091C1550.27 212.232 1554.63 218.338 1562.77 218.338ZM1583.16 221.439L1595.91 186.791H1600.8L1613.59 221.439H1608.84L1605.16 210.875H1591.35L1587.62 221.439H1583.16ZM1596.73 195.707L1592.61 207.338H1603.95L1599.98 195.707C1599.3 193.769 1598.43 190.813 1598.43 190.813H1598.33C1598.33 190.813 1597.41 193.721 1596.73 195.707Z" fill="white"/>
<rect x="1157.07" y="175.602" width="292.512" height="61.7734" rx="17.6217" fill="#1C1C1C"/>
<path d="M1177.94 224.881V190.232H1182.3V204.964H1200.81V190.232H1205.17V224.881H1200.81V208.501H1182.3V224.881H1177.94ZM1210.86 224.881L1223.6 190.232H1228.5L1241.29 224.881H1236.54L1232.86 214.317H1219.05L1215.31 224.881H1210.86ZM1224.43 199.149L1220.31 210.779H1231.65L1227.67 199.149C1226.99 197.21 1226.12 194.254 1226.12 194.254H1226.02C1226.02 194.254 1225.1 197.162 1224.43 199.149ZM1246.98 224.881V190.232H1251.58L1267.38 214.317C1268.54 216.11 1269.9 218.775 1269.9 218.775H1270V190.232H1274.07V224.881H1269.61L1253.72 200.748C1252.6 199.052 1251.15 196.435 1251.15 196.435H1251.05V224.881H1246.98ZM1282.52 224.881V190.232H1295.12C1305.54 190.232 1310.48 197.307 1310.48 207.678C1310.48 218.048 1305.2 224.881 1294.78 224.881H1282.52ZM1286.88 221.053H1294.63C1302.77 221.053 1306.02 215.819 1306.02 207.678C1306.02 199.536 1303.11 194.012 1294.97 194.012H1286.88V221.053ZM1316.18 211.07V206.951H1330.13V211.07H1316.18ZM1352.83 225.608C1342.36 225.608 1335.87 217.903 1335.87 207.532C1335.87 197.162 1342.36 189.457 1352.83 189.457C1363.29 189.457 1369.79 197.162 1369.79 207.532C1369.79 217.903 1363.29 225.608 1352.83 225.608ZM1352.83 221.779C1360.97 221.779 1365.33 215.674 1365.33 207.532C1365.33 199.391 1360.97 193.237 1352.83 193.237C1344.68 193.237 1340.32 199.391 1340.32 207.532C1340.32 215.674 1344.68 221.779 1352.83 221.779ZM1376.92 224.881V190.232H1400.43V194.061H1381.29V204.867H1397.23V208.55H1381.29V224.881H1376.92ZM1406.88 224.881V190.232H1430.38V194.061H1411.24V204.867H1427.18V208.55H1411.24V224.881H1406.88Z" fill="white"/>
<rect x="654.173" y="175.602" width="426.229" height="61.7734" rx="17.6217" fill="#1C1C1C"/>
<path d="M675.042 224.881V190.232H687.641C698.06 190.232 703.003 197.307 703.003 207.678C703.003 218.048 697.721 224.881 687.302 224.881H675.042ZM679.403 221.053H687.157C695.298 221.053 698.545 215.819 698.545 207.678C698.545 199.536 695.637 194.012 687.496 194.012H679.403V221.053ZM710.107 224.881V190.232H734.579V194.061H714.468V205.012H732.737V208.695H714.468V220.859H735.16V224.881H710.107ZM754.317 225.559C744.576 225.559 739.924 220.132 739.537 213.154H743.801C744.383 219.017 747.969 222.07 754.511 222.07C759.308 222.07 762.749 219.89 762.749 215.577C762.749 210.828 758.581 209.713 752.378 208.356C746.272 206.999 741.039 205.255 741.039 198.713C741.039 192.994 745.788 189.554 752.815 189.554C761.489 189.554 765.075 193.964 765.947 200.36H761.828C761.198 195.417 758 192.946 752.911 192.946C748.211 192.946 745.109 194.933 745.109 198.519C745.109 202.444 748.986 203.607 754.171 204.625C760.907 205.982 767.062 207.629 767.062 215.431C767.062 221.925 761.78 225.559 754.317 225.559ZM774.087 224.881V190.232H778.449V224.881H774.087ZM814.093 224.881L812.833 220.326H812.736C810.216 223.863 806.484 225.608 801.929 225.608C792.189 225.608 785.647 218.193 785.647 207.678C785.647 197.501 791.413 189.505 802.317 189.505C810.361 189.505 815.304 193.867 816.419 200.651H811.912C810.943 196.047 807.696 193.285 802.22 193.285C793.885 193.285 790.105 199.536 790.105 207.678C790.105 216.158 795.048 221.828 802.075 221.828C809.198 221.828 812.542 216.982 812.542 211.167V210.343H802.123V206.563H816.903V224.881H814.093ZM824.86 224.881V190.232H829.463L845.261 214.317C846.424 216.11 847.781 218.775 847.781 218.775H847.878V190.232H851.949V224.881H847.49L831.596 200.748C830.481 199.052 829.027 196.435 829.027 196.435H828.93V224.881H824.86ZM882.65 225.559C872.909 225.559 868.257 220.132 867.869 213.154H872.134C872.715 219.017 876.301 222.07 882.844 222.07C887.641 222.07 891.082 219.89 891.082 215.577C891.082 210.828 886.914 209.713 880.711 208.356C874.605 206.999 869.372 205.255 869.372 198.713C869.372 192.994 874.121 189.554 881.147 189.554C889.822 189.554 893.408 193.964 894.28 200.36H890.161C889.531 195.417 886.333 192.946 881.244 192.946C876.544 192.946 873.442 194.933 873.442 198.519C873.442 202.444 877.319 203.607 882.504 204.625C889.24 205.982 895.395 207.629 895.395 215.431C895.395 221.925 890.112 225.559 882.65 225.559ZM910.172 224.881V210.198L897.621 190.232H902.467L912.401 206.708H912.498L922.577 190.232H927.23L914.533 210.295V224.881H910.172ZM944.025 225.559C934.285 225.559 929.632 220.132 929.245 213.154H933.509C934.091 219.017 937.677 222.07 944.219 222.07C949.016 222.07 952.457 219.89 952.457 215.577C952.457 210.828 948.289 209.713 942.087 208.356C935.981 206.999 930.747 205.255 930.747 198.713C930.747 192.994 935.496 189.554 942.523 189.554C951.197 189.554 954.783 193.964 955.655 200.36H951.536C950.906 195.417 947.708 192.946 942.62 192.946C937.919 192.946 934.818 194.933 934.818 198.519C934.818 202.444 938.694 203.607 943.88 204.625C950.615 205.982 956.77 207.629 956.77 215.431C956.77 221.925 951.488 225.559 944.025 225.559ZM959.814 194.061V190.232H987.242V194.061H975.709V224.881H971.347V194.061H959.814ZM993.511 224.881V190.232H1017.98V194.061H997.872V205.012H1016.14V208.695H997.872V220.859H1018.56V224.881H993.511ZM1025.59 224.881V190.232H1031.17L1042.41 219.017H1042.51L1053.65 190.232H1059.32V224.881H1055.15V196.387H1055.06C1055.06 196.387 1054.14 199.1 1053.51 200.748L1044.01 224.881H1040.67L1031.17 200.748C1030.49 199.003 1029.62 196.387 1029.62 196.387H1029.52V224.881H1025.59Z" fill="white"/>
<rect x="108.112" y="178.539" width="218.803" height="61.7734" rx="17.6217" fill="#1C1C1C"/>
<path d="M128.981 227.818V193.17H141.581C152 193.17 156.942 200.245 156.942 210.615C156.942 220.986 151.66 227.818 141.241 227.818H128.981ZM133.343 223.99H141.096C149.237 223.99 152.484 218.756 152.484 210.615C152.484 202.474 149.577 196.95 141.435 196.95H133.343V223.99ZM164.046 227.818V193.17H188.518V196.998H168.408V207.95H186.677V211.633H168.408V223.796H189.1V227.818H164.046ZM208.256 228.497C198.516 228.497 193.864 223.069 193.476 216.091H197.74C198.322 221.955 201.908 225.008 208.45 225.008C213.248 225.008 216.688 222.827 216.688 218.514C216.688 213.765 212.521 212.65 206.318 211.294C200.212 209.937 194.978 208.192 194.978 201.65C194.978 195.932 199.727 192.491 206.754 192.491C215.428 192.491 219.014 196.901 219.887 203.298H215.767C215.138 198.355 211.939 195.883 206.851 195.883C202.15 195.883 199.049 197.87 199.049 201.456C199.049 205.382 202.926 206.545 208.111 207.562C214.847 208.919 221.001 210.567 221.001 218.369C221.001 224.862 215.719 228.497 208.256 228.497ZM228.027 227.818V193.17H232.388V227.818H228.027ZM268.032 227.818L266.772 223.263H266.675C264.155 226.801 260.424 228.545 255.869 228.545C246.128 228.545 239.586 221.131 239.586 210.615C239.586 200.439 245.353 192.443 256.256 192.443C264.301 192.443 269.243 196.804 270.358 203.589H265.851C264.882 198.985 261.635 196.223 256.159 196.223C247.824 196.223 244.044 202.474 244.044 210.615C244.044 219.096 248.987 224.765 256.014 224.765C263.138 224.765 266.481 219.919 266.481 214.104V213.28H256.062V209.501H270.843V227.818H268.032ZM278.799 227.818V193.17H283.403L299.201 217.254C300.364 219.047 301.721 221.712 301.721 221.712H301.817V193.17H305.888V227.818H301.43L285.535 203.685C284.42 201.989 282.967 199.373 282.967 199.373H282.87V227.818H278.799Z" fill="white"/>
<rect x="403.583" y="178.539" width="173.921" height="61.7734" rx="17.6217" fill="#1C1C1C"/>
<path d="M424.452 227.818V193.17H447.955V196.998H428.813V207.805H444.756V211.487H428.813V227.818H424.452ZM454.503 227.818V193.17H458.864V227.818H454.503ZM464.802 227.818L476.82 210.082L465.675 193.17H470.715L479.292 207.029H479.389L488.16 193.17H492.958L481.618 210.131L493.297 227.818H488.063L479.147 213.232H479.05L469.745 227.818H464.802ZM499.171 227.818V193.17H523.643V196.998H503.532V207.95H521.801V211.633H503.532V223.796H524.224V227.818H499.171ZM543.381 228.497C533.64 228.497 528.988 223.069 528.6 216.091H532.865C533.446 221.955 537.032 225.008 543.574 225.008C548.372 225.008 551.813 222.827 551.813 218.514C551.813 213.765 547.645 212.65 541.442 211.294C535.336 209.937 530.103 208.192 530.103 201.65C530.103 195.932 534.852 192.491 541.878 192.491C550.553 192.491 554.139 196.901 555.011 203.298H550.892C550.262 198.355 547.063 195.883 541.975 195.883C537.275 195.883 534.173 197.87 534.173 201.456C534.173 205.382 538.05 206.545 543.235 207.562C549.971 208.919 556.125 210.567 556.125 218.369C556.125 224.862 550.843 228.497 543.381 228.497Z" fill="white"/>
<path d="M392.57 209.426L374.214 198.828V220.024L392.57 209.426ZM326.915 209.426V211.261H376.049V209.426V207.59H326.915V209.426Z" fill="#1C1C1C"/>
<path d="M643.159 209.426L624.803 198.828V220.024L643.159 209.426ZM577.504 209.426V211.261H626.638V209.426V207.59H577.504V209.426Z" fill="#1C1C1C"/>
<path d="M1146.06 209.426L1127.7 198.828V220.024L1146.06 209.426ZM1080.4 209.426V211.261H1129.54V209.426V207.59H1080.4V209.426Z" fill="#1C1C1C"/>
<path d="M1515.24 209.426L1496.88 198.828V220.024L1515.24 209.426ZM1449.58 209.426V211.261H1498.72V209.426V207.59H1449.58V209.426Z" fill="#1C1C1C"/>
<path d="M474.028 127.954L478.267 120.612H469.789L474.028 127.954ZM212.378 127.954H213.112V125.841H212.378H211.644V127.954H212.378ZM212.378 121.616H213.112V117.39H212.378H211.644V121.616H212.378ZM212.378 113.165H213.112V108.94H212.378H211.644V113.165H212.378ZM212.378 104.714H213.112V100.489H212.378H211.644V104.714H212.378ZM212.378 96.2633H213.112V92.0379H212.378H211.644V96.2633H212.378ZM212.378 87.8125H213.112V85.6998H212.378H211.644V87.8125H212.378ZM212.378 85.6998H213.112C213.112 84.9516 213.161 84.2151 213.255 83.4932L212.527 83.3982L211.799 83.3033C211.696 84.088 211.644 84.8879 211.644 85.6998H212.378ZM213.715 78.9544L214.393 79.2357C214.962 77.8632 215.708 76.5817 216.601 75.4194L216.019 74.972L215.436 74.5246C214.466 75.7875 213.656 77.1805 213.037 78.6732L213.715 78.9544ZM219.272 71.7188L219.719 72.301C220.881 71.4078 222.163 70.6627 223.536 70.0935L223.254 69.4153L222.973 68.737C221.48 69.356 220.087 70.1661 218.824 71.1366L219.272 71.7188ZM227.698 68.2271L227.793 68.9551C228.515 68.861 229.251 68.8124 230 68.8124V68.0781V67.3439C229.188 67.3439 228.388 67.3966 227.603 67.499L227.698 68.2271ZM230 68.0781V68.8124H232.177V68.0781V67.3439H230V68.0781ZM236.531 68.0781V68.8124H240.885V68.0781V67.3439H236.531V68.0781ZM245.239 68.0781V68.8124H249.593V68.0781V67.3439H245.239V68.0781ZM253.946 68.0781V68.8124H258.3V68.0781V67.3439H253.946V68.0781ZM262.654 68.0781V68.8124H267.008V68.0781V67.3439H262.654V68.0781ZM271.362 68.0781V68.8124H275.716V68.0781V67.3439H271.362V68.0781ZM280.07 68.0781V68.8124H284.424V68.0781V67.3439H280.07V68.0781ZM288.778 68.0781V68.8124H293.132V68.0781V67.3439H288.778V68.0781ZM297.486 68.0781V68.8124H301.84V68.0781V67.3439H297.486V68.0781ZM306.194 68.0781V68.8124H310.548V68.0781V67.3439H306.194V68.0781ZM314.902 68.0781V68.8124H319.256V68.0781V67.3439H314.902V68.0781ZM323.61 68.0781V68.8124H327.964V68.0781V67.3439H323.61V68.0781ZM332.318 68.0781V68.8124H336.672V68.0781V67.3439H332.318V68.0781ZM341.026 68.0781V68.8124H345.38V68.0781V67.3439H341.026V68.0781ZM349.734 68.0781V68.8124H354.088V68.0781V67.3439H349.734V68.0781ZM358.442 68.0781V68.8124H362.796V68.0781V67.3439H358.442V68.0781ZM367.15 68.0781V68.8124H371.504V68.0781V67.3439H367.15V68.0781ZM375.858 68.0781V68.8124H380.212V68.0781V67.3439H375.858V68.0781ZM384.566 68.0781V68.8124H388.92V68.0781V67.3439H384.566V68.0781ZM393.274 68.0781V68.8124H397.628V68.0781V67.3439H393.274V68.0781ZM401.982 68.0781V68.8124H406.336V68.0781V67.3439H401.982V68.0781ZM410.69 68.0781V68.8124H415.044V68.0781V67.3439H410.69V68.0781ZM419.398 68.0781V68.8124H423.751V68.0781V67.3439H419.398V68.0781ZM428.105 68.0781V68.8124H432.459V68.0781V67.3439H428.105V68.0781ZM436.813 68.0781V68.8124H441.167V68.0781V67.3439H436.813V68.0781ZM445.521 68.0781V68.8124H449.875V68.0781V67.3439H445.521V68.0781ZM454.229 68.0781V68.8124H456.406V68.0781V67.3439H454.229V68.0781ZM456.406 68.0781V68.8124C457.155 68.8124 457.891 68.861 458.613 68.9551L458.708 68.2271L458.803 67.499C458.018 67.3966 457.218 67.3439 456.406 67.3439V68.0781ZM463.152 69.4153L462.87 70.0935C464.243 70.6627 465.524 71.4078 466.687 72.301L467.134 71.7188L467.582 71.1366C466.319 70.1661 464.926 69.356 463.433 68.737L463.152 69.4153ZM470.387 74.972L469.805 75.4194C470.698 76.5817 471.444 77.8632 472.013 79.2357L472.691 78.9544L473.369 78.6732C472.75 77.1805 471.94 75.7875 470.97 74.5246L470.387 74.972ZM473.879 83.3983L473.151 83.4932C473.245 84.2151 473.294 84.9516 473.294 85.6998H474.028H474.762C474.762 84.8879 474.71 84.088 474.607 83.3033L473.879 83.3983ZM474.028 85.6998H473.294V87.8125H474.028H474.762V85.6998H474.028ZM474.028 92.0379H473.294V96.2633H474.028H474.762V92.0379H474.028ZM474.028 100.489H473.294V104.714H474.028H474.762V100.489H474.028ZM474.028 108.94H473.294V113.165H474.028H474.762V108.94H474.028ZM474.028 117.39H473.294V121.616H474.028H474.762V117.39H474.028Z" fill="#989898"/>
<path d="M871.734 127.954L875.973 120.612H867.495L871.734 127.954ZM503.857 127.954H504.592V125.841H503.857H503.123V127.954H503.857ZM503.857 121.616H504.592V117.39H503.857H503.123V121.616H503.857ZM503.857 113.165H504.592V108.94H503.857H503.123V113.165H503.857ZM503.857 104.714H504.592V100.489H503.857H503.123V104.714H503.857ZM503.857 96.2633H504.592V92.0379H503.857H503.123V96.2633H503.857ZM503.857 87.8125H504.592V85.6998H503.857H503.123V87.8125H503.857ZM503.857 85.6998H504.592C504.592 84.9516 504.64 84.2151 504.734 83.4932L504.006 83.3982L503.278 83.3033C503.176 84.088 503.123 84.8879 503.123 85.6998H503.857ZM505.195 78.9544L505.873 79.2357C506.442 77.8632 507.187 76.5817 508.08 75.4194L507.498 74.972L506.916 74.5246C505.945 75.7875 505.135 77.1805 504.516 78.6732L505.195 78.9544ZM510.751 71.7188L511.199 72.301C512.361 71.4078 513.642 70.6627 515.015 70.0935L514.734 69.4153L514.452 68.737C512.96 69.356 511.567 70.1661 510.304 71.1366L510.751 71.7188ZM519.178 68.2271L519.273 68.9551C519.994 68.861 520.731 68.8124 521.479 68.8124V68.0781V67.3439C520.667 67.3439 519.867 67.3966 519.083 67.499L519.178 68.2271ZM521.479 68.0781V68.8124H523.667V68.0781V67.3439H521.479V68.0781ZM528.044 68.0781V68.8124H532.421V68.0781V67.3439H528.044V68.0781ZM536.798 68.0781V68.8124H541.174V68.0781V67.3439H536.798V68.0781ZM545.551 68.0781V68.8124H549.928V68.0781V67.3439H545.551V68.0781ZM554.305 68.0781V68.8124H558.681V68.0781V67.3439H554.305V68.0781ZM563.058 68.0781V68.8124H567.435V68.0781V67.3439H563.058V68.0781ZM571.812 68.0781V68.8124H576.188V68.0781V67.3439H571.812V68.0781ZM580.565 68.0781V68.8124H584.942V68.0781V67.3439H580.565V68.0781ZM589.319 68.0781V68.8124H593.695V68.0781V67.3439H589.319V68.0781ZM598.072 68.0781V68.8124H602.449V68.0781V67.3439H598.072V68.0781ZM606.826 68.0781V68.8124H611.202V68.0781V67.3439H606.826V68.0781ZM615.579 68.0781V68.8124H619.956V68.0781V67.3439H615.579V68.0781ZM624.333 68.0781V68.8124H628.709V68.0781V67.3439H624.333V68.0781ZM633.086 68.0781V68.8124H637.463V68.0781V67.3439H633.086V68.0781ZM641.84 68.0781V68.8124H646.216V68.0781V67.3439H641.84V68.0781ZM650.593 68.0781V68.8124H654.97V68.0781V67.3439H650.593V68.0781ZM659.347 68.0781V68.8124H663.723V68.0781V67.3439H659.347V68.0781ZM668.1 68.0781V68.8124H672.477V68.0781V67.3439H668.1V68.0781ZM676.854 68.0781V68.8124H681.23V68.0781V67.3439H676.854V68.0781ZM685.607 68.0781V68.8124H689.984V68.0781V67.3439H685.607V68.0781ZM694.361 68.0781V68.8124H698.738V68.0781V67.3439H694.361V68.0781ZM703.114 68.0781V68.8124H707.491V68.0781V67.3439H703.114V68.0781ZM711.868 68.0781V68.8124H716.245V68.0781V67.3439H711.868V68.0781ZM720.621 68.0781V68.8124H724.998V68.0781V67.3439H720.621V68.0781ZM729.375 68.0781V68.8124H733.752V68.0781V67.3439H729.375V68.0781ZM738.128 68.0781V68.8124H742.505V68.0781V67.3439H738.128V68.0781ZM746.882 68.0781V68.8124H751.259V68.0781V67.3439H746.882V68.0781ZM755.635 68.0781V68.8124H760.012V68.0781V67.3439H755.635V68.0781ZM764.389 68.0781V68.8124H768.766V68.0781V67.3439H764.389V68.0781ZM773.142 68.0781V68.8124H777.519V68.0781V67.3439H773.142V68.0781ZM781.896 68.0781V68.8124H786.273V68.0781V67.3439H781.896V68.0781ZM790.649 68.0781V68.8124H795.026V68.0781V67.3439H790.649V68.0781ZM799.403 68.0781V68.8124H803.78V68.0781V67.3439H799.403V68.0781ZM808.156 68.0781V68.8124H812.533V68.0781V67.3439H808.156V68.0781ZM816.91 68.0781V68.8124H821.286V68.0781V67.3439H816.91V68.0781ZM825.663 68.0781V68.8124H830.04V68.0781V67.3439H825.663V68.0781ZM834.417 68.0781V68.8124H838.793V68.0781V67.3439H834.417V68.0781ZM843.17 68.0781V68.8124H847.547V68.0781V67.3439H843.17V68.0781ZM851.924 68.0781V68.8124H854.112V68.0781V67.3439H851.924V68.0781ZM854.112 68.0781V68.8124C854.86 68.8124 855.597 68.861 856.319 68.9551L856.414 68.2271L856.509 67.499C855.724 67.3966 854.924 67.3439 854.112 67.3439V68.0781ZM860.857 69.4153L860.576 70.0935C861.949 70.6627 863.23 71.4078 864.393 72.301L864.84 71.7188L865.287 71.1366C864.024 70.1661 862.631 69.356 861.139 68.737L860.857 69.4153ZM868.093 74.972L867.511 75.4194C868.404 76.5817 869.149 77.8632 869.718 79.2357L870.397 78.9544L871.075 78.6732C870.456 77.1805 869.646 75.7875 868.675 74.5246L868.093 74.972ZM871.585 83.3983L870.857 83.4932C870.951 84.2151 871 84.9516 871 85.6998H871.734H872.468C872.468 84.8879 872.415 84.088 872.313 83.3033L871.585 83.3983ZM871.734 85.6998H871V87.8125H871.734H872.468V85.6998H871.734ZM871.734 92.0379H871V96.2633H871.734H872.468V92.0379H871.734ZM871.734 100.489H871V104.714H871.734H872.468V100.489H871.734ZM871.734 108.94H871V113.165H871.734H872.468V108.94H871.734ZM871.734 117.39H871V121.616H871.734H872.468V117.39H871.734Z" fill="#989898"/>
<path d="M212.377 267.777L208.138 275.119L216.616 275.119L212.377 267.777ZM474.027 267.777L473.293 267.777L473.293 269.889L474.027 269.889L474.762 269.889L474.762 267.777L474.027 267.777ZM474.027 274.115L473.293 274.115L473.293 278.34L474.027 278.34L474.762 278.34L474.762 274.115L474.027 274.115ZM474.027 282.565L473.293 282.565L473.293 286.791L474.027 286.791L474.762 286.791L474.762 282.565L474.027 282.565ZM474.027 291.016L473.293 291.016L473.293 295.242L474.027 295.242L474.762 295.242L474.762 291.016L474.027 291.016ZM474.027 299.467L473.293 299.467L473.293 303.693L474.027 303.693L474.762 303.693L474.762 299.467L474.027 299.467ZM474.027 307.918L473.293 307.918L473.293 310.031L474.027 310.031L474.762 310.031L474.762 307.918L474.027 307.918ZM474.027 310.031L473.293 310.031C473.293 310.779 473.244 311.515 473.15 312.237L473.878 312.332L474.606 312.427C474.709 311.643 474.762 310.843 474.762 310.031L474.027 310.031ZM472.69 316.776L472.012 316.495C471.443 317.867 470.698 319.149 469.805 320.311L470.387 320.758L470.969 321.206C471.939 319.943 472.749 318.55 473.368 317.057L472.69 316.776ZM467.133 324.012L466.686 323.43C465.524 324.323 464.242 325.068 462.87 325.637L463.151 326.315L463.432 326.993C464.925 326.374 466.318 325.564 467.581 324.594L467.133 324.012ZM458.707 327.503L458.612 326.775C457.89 326.869 457.154 326.918 456.406 326.918L456.406 327.652L456.406 328.387C457.218 328.387 458.018 328.334 458.802 328.231L458.707 327.503ZM456.406 327.652L456.406 326.918L454.229 326.918L454.229 327.652L454.229 328.387L456.406 328.387L456.406 327.652ZM449.875 327.652L449.875 326.918L445.521 326.918L445.521 327.652L445.521 328.387L449.875 328.387L449.875 327.652ZM441.167 327.652L441.167 326.918L436.813 326.918L436.813 327.652L436.813 328.387L441.167 328.387L441.167 327.652ZM432.459 327.652L432.459 326.918L428.105 326.918L428.105 327.652L428.105 328.387L432.459 328.387L432.459 327.652ZM423.751 327.652L423.751 326.918L419.397 326.918L419.397 327.652L419.397 328.387L423.751 328.387L423.751 327.652ZM415.043 327.652L415.043 326.918L410.689 326.918L410.689 327.652L410.689 328.387L415.043 328.387L415.043 327.652ZM406.335 327.652L406.335 326.918L401.981 326.918L401.981 327.652L401.981 328.387L406.335 328.387L406.335 327.652ZM397.627 327.652L397.627 326.918L393.273 326.918L393.273 327.652L393.273 328.387L397.627 328.387L397.627 327.652ZM388.919 327.652L388.919 326.918L384.565 326.918L384.565 327.652L384.565 328.387L388.919 328.387L388.919 327.652ZM380.211 327.652L380.211 326.918L375.857 326.918L375.857 327.652L375.857 328.387L380.211 328.387L380.211 327.652ZM371.503 327.652L371.503 326.918L367.149 326.918L367.149 327.652L367.149 328.387L371.503 328.387L371.503 327.652ZM362.795 327.652L362.795 326.918L358.441 326.918L358.441 327.652L358.441 328.387L362.795 328.387L362.795 327.652ZM354.087 327.652L354.087 326.918L349.733 326.918L349.733 327.652L349.733 328.387L354.087 328.387L354.087 327.652ZM345.379 327.652L345.379 326.918L341.025 326.918L341.025 327.652L341.025 328.387L345.379 328.387L345.379 327.652ZM336.671 327.652L336.671 326.918L332.317 326.918L332.317 327.652L332.317 328.387L336.671 328.387L336.671 327.652ZM327.963 327.652L327.963 326.918L323.609 326.918L323.609 327.652L323.609 328.387L327.963 328.387L327.963 327.652ZM319.255 327.652L319.255 326.918L314.901 326.918L314.901 327.652L314.901 328.387L319.255 328.387L319.255 327.652ZM310.548 327.652L310.548 326.918L306.194 326.918L306.194 327.652L306.194 328.387L310.548 328.387L310.548 327.652ZM301.84 327.652L301.84 326.918L297.486 326.918L297.486 327.652L297.486 328.387L301.84 328.387L301.84 327.652ZM293.132 327.652L293.132 326.918L288.778 326.918L288.778 327.652L288.778 328.387L293.132 328.387L293.132 327.652ZM284.424 327.652L284.424 326.918L280.07 326.918L280.07 327.652L280.07 328.387L284.424 328.387L284.424 327.652ZM275.716 327.652L275.716 326.918L271.362 326.918L271.362 327.652L271.362 328.387L275.716 328.387L275.716 327.652ZM267.008 327.652L267.008 326.918L262.654 326.918L262.654 327.652L262.654 328.387L267.008 328.387L267.008 327.652ZM258.3 327.652L258.3 326.918L253.946 326.918L253.946 327.652L253.946 328.387L258.3 328.387L258.3 327.652ZM249.592 327.652L249.592 326.918L245.238 326.918L245.238 327.652L245.238 328.387L249.592 328.387L249.592 327.652ZM240.884 327.652L240.884 326.918L236.53 326.918L236.53 327.652L236.53 328.387L240.884 328.387L240.884 327.652ZM232.176 327.652L232.176 326.918L229.999 326.918L229.999 327.652L229.999 328.387L232.176 328.387L232.176 327.652ZM229.999 327.652L229.999 326.918C229.251 326.918 228.514 326.869 227.792 326.775L227.697 327.503L227.602 328.231C228.387 328.334 229.187 328.387 229.999 328.387L229.999 327.652ZM223.254 326.315L223.535 325.637C222.162 325.068 220.881 324.323 219.718 323.429L219.271 324.012L218.824 324.594C220.087 325.564 221.48 326.374 222.972 326.993L223.254 326.315ZM216.018 320.758L216.6 320.311C215.707 319.149 214.962 317.867 214.393 316.495L213.714 316.776L213.036 317.057C213.655 318.55 214.465 319.943 215.436 321.206L216.018 320.758ZM212.526 312.332L213.254 312.237C213.16 311.515 213.111 310.779 213.111 310.031L212.377 310.031L211.643 310.031C211.643 310.843 211.696 311.642 211.798 312.427L212.526 312.332ZM212.377 310.031L213.111 310.031L213.111 307.918L212.377 307.918L211.643 307.918L211.643 310.031L212.377 310.031ZM212.377 303.693L213.111 303.693L213.111 299.467L212.377 299.467L211.643 299.467L211.643 303.693L212.377 303.693ZM212.377 295.242L213.111 295.242L213.111 291.016L212.377 291.016L211.643 291.016L211.643 295.242L212.377 295.242ZM212.377 286.791L213.111 286.791L213.111 282.565L212.377 282.565L211.643 282.565L211.643 286.791L212.377 286.791ZM212.377 278.34L213.111 278.34L213.111 274.115L212.377 274.115L211.643 274.115L211.643 278.34L212.377 278.34Z" fill="#989898"/>
<path d="M503.856 267.777L499.617 275.119L508.095 275.119L503.856 267.777ZM871.732 267.777L870.998 267.777L870.998 269.889L871.732 269.889L872.467 269.889L872.467 267.777L871.732 267.777ZM871.732 274.115L870.998 274.115L870.998 278.34L871.732 278.34L872.467 278.34L872.467 274.115L871.732 274.115ZM871.732 282.565L870.998 282.565L870.998 286.791L871.732 286.791L872.467 286.791L872.467 282.565L871.732 282.565ZM871.732 291.016L870.998 291.016L870.998 295.242L871.732 295.242L872.467 295.242L872.467 291.016L871.732 291.016ZM871.732 299.467L870.998 299.467L870.998 303.693L871.732 303.693L872.467 303.693L872.467 299.467L871.732 299.467ZM871.732 307.918L870.998 307.918L870.998 310.031L871.732 310.031L872.467 310.031L872.467 307.918L871.732 307.918ZM871.732 310.031L870.998 310.031C870.998 310.779 870.95 311.515 870.855 312.237L871.583 312.332L872.312 312.427C872.414 311.643 872.467 310.843 872.467 310.031L871.732 310.031ZM870.395 316.776L869.717 316.495C869.148 317.867 868.403 319.149 867.51 320.311L868.092 320.758L868.674 321.206C869.644 319.943 870.455 318.55 871.074 317.057L870.395 316.776ZM864.839 324.012L864.391 323.43C863.229 324.323 861.947 325.068 860.575 325.637L860.856 326.315L861.137 326.993C862.63 326.374 864.023 325.564 865.286 324.594L864.839 324.012ZM856.412 327.503L856.317 326.775C855.595 326.869 854.859 326.918 854.111 326.918L854.111 327.652L854.111 328.387C854.923 328.387 855.723 328.334 856.507 328.231L856.412 327.503ZM854.111 327.652L854.111 326.918L851.922 326.918L851.922 327.652L851.922 328.387L854.111 328.387L854.111 327.652ZM847.546 327.652L847.546 326.918L843.169 326.918L843.169 327.652L843.169 328.387L847.546 328.387L847.546 327.652ZM838.792 327.652L838.792 326.918L834.415 326.918L834.415 327.652L834.415 328.387L838.792 328.387L838.792 327.652ZM830.039 327.652L830.039 326.918L825.662 326.918L825.662 327.652L825.662 328.387L830.039 328.387L830.039 327.652ZM821.285 327.652L821.285 326.918L816.908 326.918L816.908 327.652L816.908 328.387L821.285 328.387L821.285 327.652ZM812.532 327.652L812.532 326.918L808.155 326.918L808.155 327.652L808.155 328.387L812.532 328.387L812.532 327.652ZM803.778 327.652L803.778 326.918L799.401 326.918L799.401 327.652L799.401 328.387L803.778 328.387L803.778 327.652ZM795.025 327.652L795.025 326.918L790.648 326.918L790.648 327.652L790.648 328.387L795.025 328.387L795.025 327.652ZM786.271 327.652L786.271 326.918L781.894 326.918L781.894 327.652L781.894 328.387L786.271 328.387L786.271 327.652ZM777.518 327.652L777.518 326.918L773.141 326.918L773.141 327.652L773.141 328.387L777.518 328.387L777.518 327.652ZM768.764 327.652L768.764 326.918L764.387 326.918L764.387 327.652L764.387 328.387L768.764 328.387L768.764 327.652ZM760.011 327.652L760.011 326.918L755.634 326.918L755.634 327.652L755.634 328.387L760.011 328.387L760.011 327.652ZM751.257 327.652L751.257 326.918L746.88 326.918L746.88 327.652L746.88 328.387L751.257 328.387L751.257 327.652ZM742.504 327.652L742.504 326.918L738.127 326.918L738.127 327.652L738.127 328.387L742.504 328.387L742.504 327.652ZM733.75 327.652L733.75 326.918L729.373 326.918L729.373 327.652L729.373 328.387L733.75 328.387L733.75 327.652ZM724.997 327.652L724.997 326.918L720.62 326.918L720.62 327.652L720.62 328.387L724.997 328.387L724.997 327.652ZM716.243 327.652L716.243 326.918L711.866 326.918L711.866 327.652L711.866 328.387L716.243 328.387L716.243 327.652ZM707.49 327.652L707.49 326.918L703.113 326.918L703.113 327.652L703.113 328.387L707.49 328.387L707.49 327.652ZM698.736 327.652L698.736 326.918L694.359 326.918L694.359 327.652L694.359 328.387L698.736 328.387L698.736 327.652ZM689.983 327.652L689.983 326.918L685.606 326.918L685.606 327.652L685.606 328.387L689.983 328.387L689.983 327.652ZM681.229 327.652L681.229 326.918L676.852 326.918L676.852 327.652L676.852 328.387L681.229 328.387L681.229 327.652ZM672.476 327.652L672.476 326.918L668.099 326.918L668.099 327.652L668.099 328.387L672.476 328.387L672.476 327.652ZM663.722 327.652L663.722 326.918L659.345 326.918L659.345 327.652L659.345 328.387L663.722 328.387L663.722 327.652ZM654.969 327.652L654.969 326.918L650.592 326.918L650.592 327.652L650.592 328.387L654.969 328.387L654.969 327.652ZM646.215 327.652L646.215 326.918L641.838 326.918L641.838 327.652L641.838 328.387L646.215 328.387L646.215 327.652ZM637.462 327.652L637.462 326.918L633.085 326.918L633.085 327.652L633.085 328.387L637.462 328.387L637.462 327.652ZM628.708 327.652L628.708 326.918L624.331 326.918L624.331 327.652L624.331 328.387L628.708 328.387L628.708 327.652ZM619.955 327.652L619.955 326.918L615.578 326.918L615.578 327.652L615.578 328.387L619.955 328.387L619.955 327.652ZM611.201 327.652L611.201 326.918L606.824 326.918L606.824 327.652L606.824 328.387L611.201 328.387L611.201 327.652ZM602.448 327.652L602.448 326.918L598.071 326.918L598.071 327.652L598.071 328.387L602.448 328.387L602.448 327.652ZM593.694 327.652L593.694 326.918L589.317 326.918L589.317 327.652L589.317 328.387L593.694 328.387L593.694 327.652ZM584.941 327.652L584.941 326.918L580.564 326.918L580.564 327.652L580.564 328.387L584.941 328.387L584.941 327.652ZM576.187 327.652L576.187 326.918L571.81 326.918L571.81 327.652L571.81 328.387L576.187 328.387L576.187 327.652ZM567.434 327.652L567.434 326.918L563.057 326.918L563.057 327.652L563.057 328.387L567.434 328.387L567.434 327.652ZM558.68 327.652L558.68 326.918L554.303 326.918L554.303 327.652L554.303 328.387L558.68 328.387L558.68 327.652ZM549.927 327.652L549.927 326.918L545.55 326.918L545.55 327.652L545.55 328.387L549.927 328.387L549.927 327.652ZM541.173 327.652L541.173 326.918L536.796 326.918L536.796 327.652L536.796 328.387L541.173 328.387L541.173 327.652ZM532.42 327.652L532.42 326.918L528.043 326.918L528.043 327.652L528.043 328.387L532.42 328.387L532.42 327.652ZM523.666 327.652L523.666 326.918L521.478 326.918L521.478 327.652L521.478 328.387L523.666 328.387L523.666 327.652ZM521.478 327.652L521.478 326.918C520.73 326.918 519.993 326.869 519.271 326.775L519.176 327.503L519.081 328.231C519.866 328.334 520.666 328.387 521.478 328.387L521.478 327.652ZM514.732 326.315L515.014 325.637C513.641 325.068 512.36 324.323 511.197 323.429L510.75 324.012L510.303 324.594C511.565 325.564 512.958 326.374 514.451 326.993L514.732 326.315ZM507.497 320.758L508.079 320.311C507.186 319.149 506.441 317.867 505.871 316.495L505.193 316.776L504.515 317.057C505.134 318.55 505.944 319.943 506.914 321.206L507.497 320.758ZM504.005 312.332L504.733 312.237C504.639 311.515 504.59 310.779 504.59 310.031L503.856 310.031L503.122 310.031C503.122 310.843 503.175 311.642 503.277 312.427L504.005 312.332ZM503.856 310.031L504.59 310.031L504.59 307.918L503.856 307.918L503.122 307.918L503.122 310.031L503.856 310.031ZM503.856 303.693L504.59 303.693L504.59 299.467L503.856 299.467L503.122 299.467L503.122 303.693L503.856 303.693ZM503.856 295.242L504.59 295.242L504.59 291.016L503.856 291.016L503.122 291.016L503.122 295.242L503.856 295.242ZM503.856 286.791L504.59 286.791L504.59 282.565L503.856 282.565L503.122 282.565L503.122 286.791L503.856 286.791ZM503.856 278.34L504.59 278.34L504.59 274.115L503.856 274.115L503.122 274.115L503.122 278.34L503.856 278.34Z" fill="#989898"/>
</svg>
