<svg width="1740" height="396" viewBox="0 0 1740 396" fill="none" xmlns="http://www.w3.org/2000/svg">
<rect x="1403.92" y="175.602" width="106.243" height="61.6759" rx="17.6217" fill="#1C1C1C"/>
<path d="M1454.4 224.347L1449.02 220.083C1446.59 221.439 1443.69 222.166 1440.44 222.166C1429.97 222.166 1423.48 214.461 1423.48 204.091C1423.48 193.721 1429.97 186.015 1440.44 186.015C1450.91 186.015 1457.4 193.721 1457.4 204.091C1457.4 209.761 1455.46 214.607 1452.02 217.853L1456.63 221.536L1454.4 224.347ZM1440.44 218.338C1442.38 218.338 1444.12 217.999 1445.63 217.369L1442.14 214.558L1444.37 211.748L1448.78 215.285C1451.49 212.717 1452.94 208.743 1452.94 204.091C1452.94 195.95 1448.58 189.795 1440.44 189.795C1432.3 189.795 1427.94 195.95 1427.94 204.091C1427.94 212.232 1432.3 218.338 1440.44 218.338ZM1460.83 221.439L1473.57 186.791H1478.47L1491.26 221.439H1486.51L1482.83 210.875H1469.02L1465.29 221.439H1460.83ZM1474.4 195.707L1470.28 207.338H1481.62L1477.64 195.707C1476.97 193.769 1476.09 190.813 1476.09 190.813H1476C1476 190.813 1475.08 193.721 1474.4 195.707Z" fill="white"/>
<rect x="1034.41" y="175.602" width="292.512" height="61.7734" rx="17.6217" fill="#1C1C1C"/>
<path d="M1055.28 224.881V190.232H1059.64V204.964H1078.15V190.232H1082.51V224.881H1078.15V208.501H1059.64V224.881H1055.28ZM1088.19 224.881L1100.94 190.232H1105.83L1118.63 224.881H1113.88L1110.19 214.317H1096.38L1092.65 224.881H1088.19ZM1101.76 199.149L1097.64 210.779H1108.98L1105.01 199.149C1104.33 197.21 1103.46 194.254 1103.46 194.254H1103.36C1103.36 194.254 1102.44 197.162 1101.76 199.149ZM1124.32 224.881V190.232H1128.92L1144.72 214.317C1145.88 216.11 1147.24 218.775 1147.24 218.775H1147.34V190.232H1151.41V224.881H1146.95L1131.05 200.748C1129.94 199.052 1128.48 196.435 1128.48 196.435H1128.39V224.881H1124.32ZM1159.86 224.881V190.232H1172.45C1182.87 190.232 1187.82 197.307 1187.82 207.678C1187.82 218.048 1182.53 224.881 1172.12 224.881H1159.86ZM1164.22 221.053H1171.97C1180.11 221.053 1183.36 215.819 1183.36 207.678C1183.36 199.536 1180.45 194.012 1172.31 194.012H1164.22V221.053ZM1193.51 211.07V206.951H1207.47V211.07H1193.51ZM1230.16 225.608C1219.7 225.608 1213.2 217.903 1213.2 207.532C1213.2 197.162 1219.7 189.457 1230.16 189.457C1240.63 189.457 1247.12 197.162 1247.12 207.532C1247.12 217.903 1240.63 225.608 1230.16 225.608ZM1230.16 221.779C1238.3 221.779 1242.67 215.674 1242.67 207.532C1242.67 199.391 1238.3 193.237 1230.16 193.237C1222.02 193.237 1217.66 199.391 1217.66 207.532C1217.66 215.674 1222.02 221.779 1230.16 221.779ZM1254.26 224.881V190.232H1277.76V194.061H1258.62V204.867H1274.57V208.55H1258.62V224.881H1254.26ZM1284.21 224.881V190.232H1307.72V194.061H1288.58V204.867H1304.52V208.55H1288.58V224.881H1284.21Z" fill="white"/>
<rect x="565.988" y="175.602" width="391.418" height="61.7734" rx="17.6217" fill="#1C1C1C"/>
<path d="M586.857 224.881V190.232H599.457C609.875 190.232 614.818 197.307 614.818 207.678C614.818 218.048 609.536 224.881 599.117 224.881H586.857ZM591.219 221.053H598.972C607.113 221.053 610.36 215.819 610.36 207.678C610.36 199.536 607.452 194.012 599.311 194.012H591.219V221.053ZM621.922 224.881V190.232H646.394V194.061H626.284V205.012H644.553V208.695H626.284V220.859H646.976V224.881H621.922ZM666.132 225.559C656.392 225.559 651.74 220.132 651.352 213.154H655.616C656.198 219.017 659.784 222.07 666.326 222.07C671.124 222.07 674.564 219.89 674.564 215.577C674.564 210.828 670.397 209.713 664.194 208.356C658.088 206.999 652.854 205.255 652.854 198.713C652.854 192.994 657.603 189.554 664.63 189.554C673.304 189.554 676.89 193.964 677.763 200.36H673.643C673.013 195.417 669.815 192.946 664.727 192.946C660.026 192.946 656.925 194.933 656.925 198.519C656.925 202.444 660.802 203.607 665.987 204.625C672.723 205.982 678.877 207.629 678.877 215.431C678.877 221.925 673.595 225.559 666.132 225.559ZM685.903 224.881V190.232H690.264V224.881H685.903ZM725.908 224.881L724.648 220.326H724.551C722.031 223.863 718.3 225.608 713.745 225.608C704.004 225.608 697.462 218.193 697.462 207.678C697.462 197.501 703.229 189.505 714.132 189.505C722.177 189.505 727.119 193.867 728.234 200.651H723.727C722.758 196.047 719.511 193.285 714.035 193.285C705.7 193.285 701.92 199.536 701.92 207.678C701.92 216.158 706.863 221.828 713.89 221.828C721.014 221.828 724.357 216.982 724.357 211.167V210.343H713.938V206.563H728.719V224.881H725.908ZM736.675 224.881V190.232H741.279L757.077 214.317C758.24 216.11 759.596 218.775 759.596 218.775H759.693V190.232H763.764V224.881H759.306L743.411 200.748C742.296 199.052 740.843 196.435 740.843 196.435H740.746V224.881H736.675ZM781.866 224.881V190.232H796.307C799.941 190.232 802.752 191.444 804.545 193.576C805.998 195.272 806.871 197.55 806.871 200.166C806.871 206.515 803.236 210.343 795.677 210.343H786.227V224.881H781.866ZM786.227 194.012V206.805H795.337C800.232 206.805 802.558 204.334 802.558 200.36C802.558 196.193 799.989 194.012 795.58 194.012H786.227ZM807.59 224.881L820.335 190.232H825.23L838.023 224.881H833.274L829.591 214.317H815.78L812.049 224.881H807.59ZM821.159 199.149L817.04 210.779H828.38L824.406 199.149C823.728 197.21 822.855 194.254 822.855 194.254H822.758C822.758 194.254 821.838 197.162 821.159 199.149ZM869.148 224.881L867.888 220.326H867.791C865.271 223.863 861.54 225.608 856.984 225.608C847.244 225.608 840.702 218.193 840.702 207.678C840.702 197.501 846.469 189.505 857.372 189.505C865.416 189.505 870.359 193.867 871.474 200.651H866.967C865.998 196.047 862.751 193.285 857.275 193.285C848.94 193.285 845.16 199.536 845.16 207.678C845.16 216.158 850.103 221.828 857.13 221.828C864.253 221.828 867.597 216.982 867.597 211.167V210.343H857.178V206.563H871.959V224.881H869.148ZM879.915 224.881V190.232H904.387V194.061H884.276V205.012H902.546V208.695H884.276V220.859H904.969V224.881H879.915ZM924.125 225.559C914.385 225.559 909.732 220.132 909.345 213.154H913.609C914.191 219.017 917.777 222.07 924.319 222.07C929.116 222.07 932.557 219.89 932.557 215.577C932.557 210.828 928.389 209.713 922.187 208.356C916.081 206.999 910.847 205.255 910.847 198.713C910.847 192.994 915.596 189.554 922.623 189.554C931.297 189.554 934.883 193.964 935.755 200.36H931.636C931.006 195.417 927.808 192.946 922.72 192.946C918.019 192.946 914.918 194.933 914.918 198.519C914.918 202.444 918.794 203.607 923.98 204.625C930.715 205.982 936.87 207.629 936.87 215.431C936.87 221.925 931.588 225.559 924.125 225.559Z" fill="white"/>
<rect x="229.838" y="178.539" width="259.151" height="61.7734" rx="17.6217" fill="#1C1C1C"/>
<path d="M250.707 227.818V193.17H256.28L267.522 221.955H267.619L278.765 193.17H284.435V227.818H280.267V199.324H280.17C280.17 199.324 279.249 202.038 278.62 203.685L269.121 227.818H265.778L256.28 203.685C255.601 201.941 254.729 199.324 254.729 199.324H254.632V227.818H250.707ZM290.108 227.818L302.853 193.17H307.748L320.541 227.818H315.792L312.109 217.254H298.298L294.567 227.818H290.108ZM303.677 202.086L299.558 213.717H310.897L306.924 202.086C306.245 200.148 305.373 197.192 305.373 197.192H305.276C305.276 197.192 304.355 200.099 303.677 202.086ZM326.232 227.818V193.17H340.673C344.307 193.17 347.118 194.381 348.911 196.513C350.365 198.21 351.237 200.487 351.237 203.104C351.237 209.452 347.603 213.28 340.043 213.28H330.593V227.818H326.232ZM330.593 196.95V209.743H339.704C344.598 209.743 346.924 207.271 346.924 203.298C346.924 199.13 344.356 196.95 339.946 196.95H330.593ZM357.369 227.818V193.17H371.81C375.445 193.17 378.255 194.381 380.048 196.513C381.502 198.21 382.374 200.487 382.374 203.104C382.374 209.452 378.74 213.28 371.18 213.28H361.73V227.818H357.369ZM361.73 196.95V209.743H370.841C375.735 209.743 378.061 207.271 378.061 203.298C378.061 199.13 375.493 196.95 371.083 196.95H361.73ZM388.603 227.818V193.17H392.965V227.818H388.603ZM401.471 227.818V193.17H406.075L421.873 217.254C423.036 219.047 424.393 221.712 424.393 221.712H424.489V193.17H428.56V227.818H424.102L408.207 203.685C407.092 201.989 405.639 199.373 405.639 199.373H405.542V227.818H401.471ZM464.147 227.818L462.887 223.263H462.79C460.27 226.801 456.539 228.545 451.984 228.545C442.243 228.545 435.701 221.131 435.701 210.615C435.701 200.439 441.468 192.443 452.371 192.443C460.416 192.443 465.358 196.804 466.473 203.589H461.966C460.997 198.985 457.75 196.223 452.274 196.223C443.939 196.223 440.159 202.474 440.159 210.615C440.159 219.096 445.102 224.765 452.129 224.765C459.252 224.765 462.596 219.919 462.596 214.104V213.28H452.177V209.501H466.958V227.818H464.147Z" fill="white"/>
<path d="M554.643 209.426L536.287 198.828V220.024L554.643 209.426ZM488.988 209.426V211.261H538.123V209.426V207.59H488.988V209.426Z" fill="#1C1C1C"/>
<path d="M1023.06 209.426L1004.71 198.828V220.024L1023.06 209.426ZM957.406 209.426V211.261H1006.54V209.426V207.59H957.406V209.426Z" fill="#1C1C1C"/>
<path d="M1392.57 209.426L1374.22 198.828V220.024L1392.57 209.426ZM1326.92 209.426V211.261H1376.05V209.426V207.59H1326.92V209.426Z" fill="#1C1C1C"/>
<path d="M1456.97 127.954L1461.21 120.612H1452.73L1456.97 127.954ZM753.834 127.954H754.568V125.841H753.834H753.1V127.954H753.834ZM753.834 121.616H754.568V117.39H753.834H753.1V121.616H753.834ZM753.834 113.165H754.568V108.94H753.834H753.1V113.165H753.834ZM753.834 104.714H754.568V100.489H753.834H753.1V104.714H753.834ZM753.834 96.2633H754.568V92.0379H753.834H753.1V96.2633H753.834ZM753.834 87.8125H754.568V85.6998H753.834H753.1V87.8125H753.834ZM753.834 85.6998H754.568C754.568 84.9516 754.617 84.2151 754.711 83.4932L753.983 83.3982L753.255 83.3033C753.153 84.088 753.1 84.8879 753.1 85.6998H753.834ZM755.171 78.9544L755.849 79.2357C756.419 77.8632 757.164 76.5817 758.057 75.4194L757.475 74.972L756.892 74.5246C755.922 75.7875 755.112 77.1805 754.493 78.6732L755.171 78.9544ZM760.728 71.7188L761.175 72.301C762.338 71.4078 763.619 70.6627 764.992 70.0935L764.71 69.4153L764.429 68.737C762.936 69.356 761.543 70.1661 760.28 71.1366L760.728 71.7188ZM769.154 68.2271L769.249 68.9551C769.971 68.861 770.707 68.8124 771.456 68.8124V68.0781V67.3439C770.644 67.3439 769.844 67.3966 769.059 67.499L769.154 68.2271ZM771.456 68.0781V68.8124H773.653V68.0781V67.3439H771.456V68.0781ZM778.047 68.0781V68.8124H782.441V68.0781V67.3439H778.047V68.0781ZM786.835 68.0781V68.8124H791.229V68.0781V67.3439H786.835V68.0781ZM795.623 68.0781V68.8124H800.017V68.0781V67.3439H795.623V68.0781ZM804.411 68.0781V68.8124H808.805V68.0781V67.3439H804.411V68.0781ZM813.199 68.0781V68.8124H817.593V68.0781V67.3439H813.199V68.0781ZM821.987 68.0781V68.8124H826.381V68.0781V67.3439H821.987V68.0781ZM830.775 68.0781V68.8124H835.169V68.0781V67.3439H830.775V68.0781ZM839.563 68.0781V68.8124H843.957V68.0781V67.3439H839.563V68.0781ZM848.351 68.0781V68.8124H852.745V68.0781V67.3439H848.351V68.0781ZM857.139 68.0781V68.8124H861.533V68.0781V67.3439H857.139V68.0781ZM865.927 68.0781V68.8124H870.321V68.0781V67.3439H865.927V68.0781ZM874.716 68.0781V68.8124H879.11V68.0781V67.3439H874.716V68.0781ZM883.504 68.0781V68.8124H887.898V68.0781V67.3439H883.504V68.0781ZM892.292 68.0781V68.8124H896.686V68.0781V67.3439H892.292V68.0781ZM901.08 68.0781V68.8124H905.474V68.0781V67.3439H901.08V68.0781ZM909.868 68.0781V68.8124H914.262V68.0781V67.3439H909.868V68.0781ZM918.656 68.0781V68.8124H923.05V68.0781V67.3439H918.656V68.0781ZM927.444 68.0781V68.8124H931.838V68.0781V67.3439H927.444V68.0781ZM936.232 68.0781V68.8124H940.626V68.0781V67.3439H936.232V68.0781ZM945.02 68.0781V68.8124H949.414V68.0781V67.3439H945.02V68.0781ZM953.808 68.0781V68.8124H958.202V68.0781V67.3439H953.808V68.0781ZM962.596 68.0781V68.8124H966.99V68.0781V67.3439H962.596V68.0781ZM971.384 68.0781V68.8124H975.778V68.0781V67.3439H971.384V68.0781ZM980.173 68.0781V68.8124H984.567V68.0781V67.3439H980.173V68.0781ZM988.961 68.0781V68.8124H993.355V68.0781V67.3439H988.961V68.0781ZM997.749 68.0781V68.8124H1002.14V68.0781V67.3439H997.749V68.0781ZM1006.54 68.0781V68.8124H1010.93V68.0781V67.3439H1006.54V68.0781ZM1015.32 68.0781V68.8124H1019.72V68.0781V67.3439H1015.32V68.0781ZM1024.11 68.0781V68.8124H1028.51V68.0781V67.3439H1024.11V68.0781ZM1032.9 68.0781V68.8124H1037.3V68.0781V67.3439H1032.9V68.0781ZM1041.69 68.0781V68.8124H1046.08V68.0781V67.3439H1041.69V68.0781ZM1050.48 68.0781V68.8124H1054.87V68.0781V67.3439H1050.48V68.0781ZM1059.27 68.0781V68.8124H1063.66V68.0781V67.3439H1059.27V68.0781ZM1068.05 68.0781V68.8124H1072.45V68.0781V67.3439H1068.05V68.0781ZM1076.84 68.0781V68.8124H1081.24V68.0781V67.3439H1076.84V68.0781ZM1085.63 68.0781V68.8124H1090.02V68.0781V67.3439H1085.63V68.0781ZM1094.42 68.0781V68.8124H1098.81V68.0781V67.3439H1094.42V68.0781ZM1103.21 68.0781V68.8124H1107.6V68.0781V67.3439H1103.21V68.0781ZM1111.99 68.0781V68.8124H1116.39V68.0781V67.3439H1111.99V68.0781ZM1120.78 68.0781V68.8124H1125.18V68.0781V67.3439H1120.78V68.0781ZM1129.57 68.0781V68.8124H1133.96V68.0781V67.3439H1129.57V68.0781ZM1138.36 68.0781V68.8124H1142.75V68.0781V67.3439H1138.36V68.0781ZM1147.15 68.0781V68.8124H1151.54V68.0781V67.3439H1147.15V68.0781ZM1155.93 68.0781V68.8124H1160.33V68.0781V67.3439H1155.93V68.0781ZM1164.72 68.0781V68.8124H1169.12V68.0781V67.3439H1164.72V68.0781ZM1173.51 68.0781V68.8124H1177.9V68.0781V67.3439H1173.51V68.0781ZM1182.3 68.0781V68.8124H1186.69V68.0781V67.3439H1182.3V68.0781ZM1191.09 68.0781V68.8124H1195.48V68.0781V67.3439H1191.09V68.0781ZM1199.87 68.0781V68.8124H1204.27V68.0781V67.3439H1199.87V68.0781ZM1208.66 68.0781V68.8124H1213.06V68.0781V67.3439H1208.66V68.0781ZM1217.45 68.0781V68.8124H1221.84V68.0781V67.3439H1217.45V68.0781ZM1226.24 68.0781V68.8124H1230.63V68.0781V67.3439H1226.24V68.0781ZM1235.03 68.0781V68.8124H1239.42V68.0781V67.3439H1235.03V68.0781ZM1243.82 68.0781V68.8124H1248.21V68.0781V67.3439H1243.82V68.0781ZM1252.6 68.0781V68.8124H1257V68.0781V67.3439H1252.6V68.0781ZM1261.39 68.0781V68.8124H1265.79V68.0781V67.3439H1261.39V68.0781ZM1270.18 68.0781V68.8124H1274.57V68.0781V67.3439H1270.18V68.0781ZM1278.97 68.0781V68.8124H1283.36V68.0781V67.3439H1278.97V68.0781ZM1287.76 68.0781V68.8124H1292.15V68.0781V67.3439H1287.76V68.0781ZM1296.54 68.0781V68.8124H1300.94V68.0781V67.3439H1296.54V68.0781ZM1305.33 68.0781V68.8124H1309.73V68.0781V67.3439H1305.33V68.0781ZM1314.12 68.0781V68.8124H1318.51V68.0781V67.3439H1314.12V68.0781ZM1322.91 68.0781V68.8124H1327.3V68.0781V67.3439H1322.91V68.0781ZM1331.7 68.0781V68.8124H1336.09V68.0781V67.3439H1331.7V68.0781ZM1340.48 68.0781V68.8124H1344.88V68.0781V67.3439H1340.48V68.0781ZM1349.27 68.0781V68.8124H1353.67V68.0781V67.3439H1349.27V68.0781ZM1358.06 68.0781V68.8124H1362.45V68.0781V67.3439H1358.06V68.0781ZM1366.85 68.0781V68.8124H1371.24V68.0781V67.3439H1366.85V68.0781ZM1375.64 68.0781V68.8124H1380.03V68.0781V67.3439H1375.64V68.0781ZM1384.42 68.0781V68.8124H1388.82V68.0781V67.3439H1384.42V68.0781ZM1393.21 68.0781V68.8124H1397.61V68.0781V67.3439H1393.21V68.0781ZM1402 68.0781V68.8124H1406.39V68.0781V67.3439H1402V68.0781ZM1410.79 68.0781V68.8124H1415.18V68.0781V67.3439H1410.79V68.0781ZM1419.58 68.0781V68.8124H1423.97V68.0781V67.3439H1419.58V68.0781ZM1428.36 68.0781V68.8124H1432.76V68.0781V67.3439H1428.36V68.0781ZM1437.15 68.0781V68.8124H1439.35V68.0781V67.3439H1437.15V68.0781ZM1439.35 68.0781V68.8124C1440.1 68.8124 1440.83 68.861 1441.56 68.9551L1441.65 68.2271L1441.75 67.499C1440.96 67.3966 1440.16 67.3439 1439.35 67.3439V68.0781ZM1446.09 69.4153L1445.81 70.0935C1447.19 70.6627 1448.47 71.4078 1449.63 72.301L1450.08 71.7188L1450.52 71.1366C1449.26 70.1661 1447.87 69.356 1446.38 68.737L1446.09 69.4153ZM1453.33 74.972L1452.75 75.4194C1453.64 76.5817 1454.39 77.8632 1454.96 79.2357L1455.63 78.9544L1456.31 78.6732C1455.69 77.1805 1454.88 75.7875 1453.91 74.5246L1453.33 74.972ZM1456.82 83.3983L1456.09 83.4932C1456.19 84.2151 1456.24 84.9516 1456.24 85.6998H1456.97H1457.71C1457.71 84.8879 1457.65 84.088 1457.55 83.3033L1456.82 83.3983ZM1456.97 85.6998H1456.24V87.8125H1456.97H1457.71V85.6998H1456.97ZM1456.97 92.0379H1456.24V96.2633H1456.97H1457.71V92.0379H1456.97ZM1456.97 100.489H1456.24V104.714H1456.97H1457.71V100.489H1456.97ZM1456.97 108.94H1456.24V113.165H1456.97H1457.71V108.94H1456.97ZM1456.97 117.39H1456.24V121.616H1456.97H1457.71V117.39H1456.97Z" fill="#989898"/>
<path d="M753.834 267.777L749.595 275.119L758.073 275.119L753.834 267.777ZM1456.97 267.777L1456.23 267.777L1456.23 269.889L1456.97 269.889L1457.7 269.889L1457.7 267.777L1456.97 267.777ZM1456.97 274.115L1456.23 274.115L1456.23 278.34L1456.97 278.34L1457.7 278.34L1457.7 274.115L1456.97 274.115ZM1456.97 282.565L1456.23 282.565L1456.23 286.791L1456.97 286.791L1457.7 286.791L1457.7 282.565L1456.97 282.565ZM1456.97 291.016L1456.23 291.016L1456.23 295.242L1456.97 295.242L1457.7 295.242L1457.7 291.016L1456.97 291.016ZM1456.97 299.467L1456.23 299.467L1456.23 303.693L1456.97 303.693L1457.7 303.693L1457.7 299.467L1456.97 299.467ZM1456.97 307.918L1456.23 307.918L1456.23 310.031L1456.97 310.031L1457.7 310.031L1457.7 307.918L1456.97 307.918ZM1456.97 310.031L1456.23 310.031C1456.23 310.779 1456.18 311.515 1456.09 312.237L1456.82 312.332L1457.55 312.427C1457.65 311.643 1457.7 310.843 1457.7 310.031L1456.97 310.031ZM1455.63 316.776L1454.95 316.495C1454.38 317.867 1453.64 319.149 1452.74 320.311L1453.33 320.758L1453.91 321.206C1454.88 319.943 1455.69 318.55 1456.31 317.057L1455.63 316.776ZM1450.07 324.012L1449.63 323.43C1448.46 324.323 1447.18 325.068 1445.81 325.637L1446.09 326.315L1446.37 326.993C1447.87 326.374 1449.26 325.564 1450.52 324.594L1450.07 324.012ZM1441.65 327.503L1441.55 326.775C1440.83 326.869 1440.09 326.918 1439.35 326.918L1439.35 327.652L1439.35 328.387C1440.16 328.387 1440.96 328.334 1441.74 328.231L1441.65 327.503ZM1439.35 327.652L1439.35 326.918L1437.15 326.918L1437.15 327.652L1437.15 328.387L1439.35 328.387L1439.35 327.652ZM1432.76 327.652L1432.76 326.918L1428.36 326.918L1428.36 327.652L1428.36 328.387L1432.76 328.387L1432.76 327.652ZM1423.97 327.652L1423.97 326.918L1419.57 326.918L1419.57 327.652L1419.57 328.387L1423.97 328.387L1423.97 327.652ZM1415.18 327.652L1415.18 326.918L1410.78 326.918L1410.78 327.652L1410.78 328.387L1415.18 328.387L1415.18 327.652ZM1406.39 327.652L1406.39 326.918L1402 326.918L1402 327.652L1402 328.387L1406.39 328.387L1406.39 327.652ZM1397.6 327.652L1397.6 326.918L1393.21 326.918L1393.21 327.652L1393.21 328.387L1397.6 328.387L1397.6 327.652ZM1388.81 327.652L1388.81 326.918L1384.42 326.918L1384.42 327.652L1384.42 328.387L1388.81 328.387L1388.81 327.652ZM1380.03 327.652L1380.03 326.918L1375.63 326.918L1375.63 327.652L1375.63 328.387L1380.03 328.387L1380.03 327.652ZM1371.24 327.652L1371.24 326.918L1366.84 326.918L1366.84 327.652L1366.84 328.387L1371.24 328.387L1371.24 327.652ZM1362.45 327.652L1362.45 326.918L1358.06 326.918L1358.06 327.652L1358.06 328.387L1362.45 328.387L1362.45 327.652ZM1353.66 327.652L1353.66 326.918L1349.27 326.918L1349.27 327.652L1349.27 328.387L1353.66 328.387L1353.66 327.652ZM1344.87 327.652L1344.87 326.918L1340.48 326.918L1340.48 327.652L1340.48 328.387L1344.87 328.387L1344.87 327.652ZM1336.09 327.652L1336.09 326.918L1331.69 326.918L1331.69 327.652L1331.69 328.387L1336.09 328.387L1336.09 327.652ZM1327.3 327.652L1327.3 326.918L1322.9 326.918L1322.9 327.652L1322.9 328.387L1327.3 328.387L1327.3 327.652ZM1318.51 327.652L1318.51 326.918L1314.12 326.918L1314.12 327.652L1314.12 328.387L1318.51 328.387L1318.51 327.652ZM1309.72 327.652L1309.72 326.918L1305.33 326.918L1305.33 327.652L1305.33 328.387L1309.72 328.387L1309.72 327.652ZM1300.93 327.652L1300.93 326.918L1296.54 326.918L1296.54 327.652L1296.54 328.387L1300.93 328.387L1300.93 327.652ZM1292.15 327.652L1292.15 326.918L1287.75 326.918L1287.75 327.652L1287.75 328.387L1292.15 328.387L1292.15 327.652ZM1283.36 327.652L1283.36 326.918L1278.96 326.918L1278.96 327.652L1278.96 328.387L1283.36 328.387L1283.36 327.652ZM1274.57 327.652L1274.57 326.918L1270.18 326.918L1270.18 327.652L1270.18 328.387L1274.57 328.387L1274.57 327.652ZM1265.78 327.652L1265.78 326.918L1261.39 326.918L1261.39 327.652L1261.39 328.387L1265.78 328.387L1265.78 327.652ZM1256.99 327.652L1256.99 326.918L1252.6 326.918L1252.6 327.652L1252.6 328.387L1256.99 328.387L1256.99 327.652ZM1248.21 327.652L1248.21 326.918L1243.81 326.918L1243.81 327.652L1243.81 328.387L1248.21 328.387L1248.21 327.652ZM1239.42 327.652L1239.42 326.918L1235.02 326.918L1235.02 327.652L1235.02 328.387L1239.42 328.387L1239.42 327.652ZM1230.63 327.652L1230.63 326.918L1226.24 326.918L1226.24 327.652L1226.24 328.387L1230.63 328.387L1230.63 327.652ZM1221.84 327.652L1221.84 326.918L1217.45 326.918L1217.45 327.652L1217.45 328.387L1221.84 328.387L1221.84 327.652ZM1213.05 327.652L1213.05 326.918L1208.66 326.918L1208.66 327.652L1208.66 328.387L1213.05 328.387L1213.05 327.652ZM1204.27 327.652L1204.27 326.918L1199.87 326.918L1199.87 327.652L1199.87 328.387L1204.27 328.387L1204.27 327.652ZM1195.48 327.652L1195.48 326.918L1191.08 326.918L1191.08 327.652L1191.08 328.387L1195.48 328.387L1195.48 327.652ZM1186.69 327.652L1186.69 326.918L1182.3 326.918L1182.3 327.652L1182.3 328.387L1186.69 328.387L1186.69 327.652ZM1177.9 327.652L1177.9 326.918L1173.51 326.918L1173.51 327.652L1173.51 328.387L1177.9 328.387L1177.9 327.652ZM1169.11 327.652L1169.11 326.918L1164.72 326.918L1164.72 327.652L1164.72 328.387L1169.11 328.387L1169.11 327.652ZM1160.33 327.652L1160.33 326.918L1155.93 326.918L1155.93 327.652L1155.93 328.387L1160.33 328.387L1160.33 327.652ZM1151.54 327.652L1151.54 326.918L1147.14 326.918L1147.14 327.652L1147.14 328.387L1151.54 328.387L1151.54 327.652ZM1142.75 327.652L1142.75 326.918L1138.36 326.918L1138.36 327.652L1138.36 328.387L1142.75 328.387L1142.75 327.652ZM1133.96 327.652L1133.96 326.918L1129.57 326.918L1129.57 327.652L1129.57 328.387L1133.96 328.387L1133.96 327.652ZM1125.17 327.652L1125.17 326.918L1120.78 326.918L1120.78 327.652L1120.78 328.387L1125.17 328.387L1125.17 327.652ZM1116.39 327.652L1116.39 326.918L1111.99 326.918L1111.99 327.652L1111.99 328.387L1116.39 328.387L1116.39 327.652ZM1107.6 327.652L1107.6 326.918L1103.2 326.918L1103.2 327.652L1103.2 328.387L1107.6 328.387L1107.6 327.652ZM1098.81 327.652L1098.81 326.918L1094.42 326.918L1094.42 327.652L1094.42 328.387L1098.81 328.387L1098.81 327.652ZM1090.02 327.652L1090.02 326.918L1085.63 326.918L1085.63 327.652L1085.63 328.387L1090.02 328.387L1090.02 327.652ZM1081.23 327.652L1081.23 326.918L1076.84 326.918L1076.84 327.652L1076.84 328.387L1081.23 328.387L1081.23 327.652ZM1072.45 327.652L1072.45 326.918L1068.05 326.918L1068.05 327.652L1068.05 328.387L1072.45 328.387L1072.45 327.652ZM1063.66 327.652L1063.66 326.918L1059.26 326.918L1059.26 327.652L1059.26 328.387L1063.66 328.387L1063.66 327.652ZM1054.87 327.652L1054.87 326.918L1050.48 326.918L1050.48 327.652L1050.48 328.387L1054.87 328.387L1054.87 327.652ZM1046.08 327.652L1046.08 326.918L1041.69 326.918L1041.69 327.652L1041.69 328.387L1046.08 328.387L1046.08 327.652ZM1037.29 327.652L1037.29 326.918L1032.9 326.918L1032.9 327.652L1032.9 328.387L1037.29 328.387L1037.29 327.652ZM1028.51 327.652L1028.51 326.918L1024.11 326.918L1024.11 327.652L1024.11 328.387L1028.51 328.387L1028.51 327.652ZM1019.72 327.652L1019.72 326.918L1015.32 326.918L1015.32 327.652L1015.32 328.387L1019.72 328.387L1019.72 327.652ZM1010.93 327.652L1010.93 326.918L1006.54 326.918L1006.54 327.652L1006.54 328.387L1010.93 328.387L1010.93 327.652ZM1002.14 327.652L1002.14 326.918L997.748 326.918L997.748 327.652L997.748 328.387L1002.14 328.387L1002.14 327.652ZM993.354 327.652L993.354 326.918L988.96 326.918L988.96 327.652L988.96 328.387L993.354 328.387L993.354 327.652ZM984.566 327.652L984.566 326.918L980.172 326.918L980.172 327.652L980.172 328.387L984.566 328.387L984.566 327.652ZM975.778 327.652L975.778 326.918L971.384 326.918L971.384 327.652L971.384 328.387L975.778 328.387L975.778 327.652ZM966.99 327.652L966.99 326.918L962.596 326.918L962.596 327.652L962.596 328.387L966.99 328.387L966.99 327.652ZM958.202 327.652L958.202 326.918L953.808 326.918L953.808 327.652L953.808 328.387L958.202 328.387L958.202 327.652ZM949.414 327.652L949.414 326.918L945.02 326.918L945.02 327.652L945.02 328.387L949.414 328.387L949.414 327.652ZM940.626 327.652L940.626 326.918L936.232 326.918L936.232 327.652L936.232 328.387L940.626 328.387L940.626 327.652ZM931.838 327.652L931.838 326.918L927.444 326.918L927.444 327.652L927.444 328.387L931.838 328.387L931.838 327.652ZM923.049 327.652L923.049 326.918L918.655 326.918L918.655 327.652L918.655 328.387L923.049 328.387L923.049 327.652ZM914.261 327.652L914.261 326.918L909.867 326.918L909.867 327.652L909.867 328.387L914.261 328.387L914.261 327.652ZM905.473 327.652L905.473 326.918L901.079 326.918L901.079 327.652L901.079 328.387L905.473 328.387L905.473 327.652ZM896.685 327.652L896.685 326.918L892.291 326.918L892.291 327.652L892.291 328.387L896.685 328.387L896.685 327.652ZM887.897 327.652L887.897 326.918L883.503 326.918L883.503 327.652L883.503 328.387L887.897 328.387L887.897 327.652ZM879.109 327.652L879.109 326.918L874.715 326.918L874.715 327.652L874.715 328.387L879.109 328.387L879.109 327.652ZM870.321 327.652L870.321 326.918L865.927 326.918L865.927 327.652L865.927 328.387L870.321 328.387L870.321 327.652ZM861.533 327.652L861.533 326.918L857.139 326.918L857.139 327.652L857.139 328.387L861.533 328.387L861.533 327.652ZM852.745 327.652L852.745 326.918L848.351 326.918L848.351 327.652L848.351 328.387L852.745 328.387L852.745 327.652ZM843.957 327.652L843.957 326.918L839.563 326.918L839.563 327.652L839.563 328.387L843.957 328.387L843.957 327.652ZM835.169 327.652L835.169 326.918L830.775 326.918L830.775 327.652L830.775 328.387L835.169 328.387L835.169 327.652ZM826.381 327.652L826.381 326.918L821.987 326.918L821.987 327.652L821.987 328.387L826.381 328.387L826.381 327.652ZM817.592 327.652L817.592 326.918L813.198 326.918L813.198 327.652L813.198 328.387L817.592 328.387L817.592 327.652ZM808.804 327.652L808.804 326.918L804.41 326.918L804.41 327.652L804.41 328.387L808.804 328.387L808.804 327.652ZM800.016 327.652L800.016 326.918L795.622 326.918L795.622 327.652L795.622 328.387L800.016 328.387L800.016 327.652ZM791.228 327.652L791.228 326.918L786.834 326.918L786.834 327.652L786.834 328.387L791.228 328.387L791.228 327.652ZM782.44 327.652L782.44 326.918L778.046 326.918L778.046 327.652L778.046 328.387L782.44 328.387L782.44 327.652ZM773.652 327.652L773.652 326.918L771.456 326.918L771.456 327.652L771.456 328.387L773.652 328.387L773.652 327.652ZM771.456 327.652L771.456 326.918C770.708 326.918 769.971 326.869 769.249 326.775L769.154 327.503L769.059 328.231C769.844 328.334 770.644 328.387 771.456 328.387L771.456 327.652ZM764.71 326.315L764.992 325.637C763.619 325.068 762.338 324.323 761.175 323.429L760.728 324.012L760.281 324.594C761.543 325.564 762.936 326.374 764.429 326.993L764.71 326.315ZM757.475 320.758L758.057 320.311C757.164 319.149 756.419 317.867 755.849 316.495L755.171 316.776L754.493 317.057C755.112 318.55 755.922 319.943 756.892 321.206L757.475 320.758ZM753.983 312.332L754.711 312.237C754.617 311.515 754.568 310.779 754.568 310.031L753.834 310.031L753.1 310.031C753.1 310.843 753.153 311.642 753.255 312.427L753.983 312.332ZM753.834 310.031L754.568 310.031L754.568 307.918L753.834 307.918L753.1 307.918L753.1 310.031L753.834 310.031ZM753.834 303.693L754.568 303.693L754.568 299.467L753.834 299.467L753.1 299.467L753.1 303.693L753.834 303.693ZM753.834 295.242L754.568 295.242L754.568 291.016L753.834 291.016L753.1 291.016L753.1 295.242L753.834 295.242ZM753.834 286.791L754.568 286.791L754.568 282.565L753.834 282.565L753.1 282.565L753.1 286.791L753.834 286.791ZM753.834 278.34L754.568 278.34L754.568 274.115L753.834 274.115L753.1 274.115L753.1 278.34L753.834 278.34Z" fill="#989898"/>
</svg>
