<svg style="background-color: #181818;" width="100%" height="100%" viewBox="0 0 1920 1080" fill="none" xmlns="http://www.w3.org/2000/svg">
<rect width="1920" height="1080" fill="#F5F5F5"/>
<g id="hero">
<rect width="1920" height="1080" fill="#181818" stroke="#181818"/>
<g id="Kido">
<path fill-rule="evenodd" clip-rule="evenodd" d="M1320.77 592.218C1348.02 603.442 1377.89 609.054 1410.35 609.054C1442.82 609.054 1472.48 603.442 1499.34 592.218C1526.6 580.995 1550.05 565.563 1569.69 545.922C1589.73 525.88 1605.16 502.23 1615.98 474.973C1627.21 447.315 1632.82 417.453 1632.82 385.386C1632.82 353.319 1627.21 323.657 1615.98 296.399C1605.16 268.742 1589.73 245.092 1569.69 225.451C1550.05 205.409 1526.6 189.776 1499.34 178.553C1472.48 167.33 1442.82 161.718 1410.35 161.718C1377.89 161.718 1348.02 167.33 1320.77 178.553C1293.91 189.776 1270.46 205.409 1250.42 225.451C1230.78 245.092 1215.35 268.742 1204.12 296.399C1193.3 323.657 1187.89 353.319 1187.89 385.386C1187.89 417.453 1193.3 447.315 1204.12 474.973C1215.35 502.23 1230.78 525.88 1250.42 545.922C1270.46 565.563 1293.91 580.995 1320.77 592.218ZM1478.3 548.327C1457.85 557.546 1435.21 562.155 1410.35 562.155C1385.5 562.155 1362.65 557.546 1341.81 548.327C1321.37 539.107 1303.73 526.481 1288.9 510.447C1274.07 494.414 1262.44 475.775 1254.03 454.53C1246.01 432.885 1242 409.837 1242 385.386C1242 360.935 1246.01 338.087 1254.03 316.842C1262.44 295.197 1274.07 276.358 1288.9 260.324C1303.73 244.29 1321.37 231.664 1341.81 222.445C1362.65 213.226 1385.5 208.616 1410.35 208.616C1435.21 208.616 1457.85 213.226 1478.3 222.445C1499.14 231.664 1516.98 244.29 1531.81 260.324C1546.64 276.358 1558.06 295.197 1566.08 316.842C1574.5 338.087 1578.71 360.935 1578.71 385.386C1578.71 409.837 1574.5 432.885 1566.08 454.53C1558.06 475.775 1546.64 494.414 1531.81 510.447C1516.98 526.481 1499.14 539.107 1478.3 548.327Z" fill="white"/>
<path d="M658.734 172.54H709.24V598.231H658.734V172.54Z" fill="white"/>
<path fill-rule="evenodd" clip-rule="evenodd" d="M777.692 172.54H941.234C955.264 172.54 970.095 174.144 985.727 177.35C1001.36 180.557 1016.79 185.768 1032.02 192.983C1047.66 199.797 1062.49 208.816 1076.52 220.04C1090.95 231.263 1103.57 244.892 1114.4 260.925C1125.22 276.558 1133.84 294.796 1140.25 315.64C1146.66 336.083 1149.87 359.331 1149.87 385.386C1149.87 411.44 1146.66 434.889 1140.25 455.733C1133.84 476.176 1125.22 494.414 1114.4 510.447C1103.57 526.08 1090.95 539.508 1076.52 550.732C1062.49 561.955 1047.66 571.174 1032.02 578.389C1016.79 585.204 1001.36 590.214 985.727 593.421C970.095 596.628 955.264 598.231 941.234 598.231H777.692V172.54ZM828.198 551.333H924.399C948.85 551.333 971.498 548.126 992.341 541.713C1013.18 535.299 1031.22 525.479 1046.45 512.251C1061.69 498.623 1073.71 481.386 1082.53 460.543C1091.35 439.699 1095.76 414.647 1095.76 385.386C1095.76 356.124 1091.35 331.072 1082.53 310.228C1073.71 289.385 1061.69 272.349 1046.45 259.122C1031.22 245.493 1013.18 235.472 992.341 229.059C971.498 222.645 948.85 219.438 924.399 219.438H828.198V551.333Z" fill="white"/>
<path d="M287.182 172.54H337.734V356.525L531.34 172.54H604.092L393.652 366.746L614.313 598.231H540.358L337.734 381.778V598.231H287.182V172.54Z" fill="white"/>
</g>
<g id="tri_group">
<path id="tri_01" d="M1860.52 781.096L953.507 994.154L65.6211 781.096L1860.52 781.096Z" stroke="white" stroke-width="5.51394"/>
<path id="tri_02" d="M50.3496 471.379L954.168 996.812L1872.74 471.379L50.3496 471.379Z" stroke="white" stroke-width="5.51394"/>
<path id="tri_03" d="M42.8906 88.0003L954.079 994.381L1880.2 88.0002L42.8906 88.0003Z" stroke="white" stroke-width="5.51394"/>
<path id="bottom" d="M43.1035 997L1887.63 997" stroke="white" stroke-width="5.51394"/>
</g>
</g>
</svg>
