<svg style="transform: scale(1.05);" width="1702" height="683" viewBox="0 0 1702 683" fill="none" xmlns="http://www.w3.org/2000/svg">
    <style>
        path{
            transform-box: fill-box;
            transform-origin: center;
        }
        svg{
            filter: brightness(150%) contrast(5000%);
        }
        .offsetAnim{
            animation: wiggle 2000ms linear infinite;
        }
        @keyframes wiggle{
            0%{transform: scale(1.01) translateX(3px);}
            50%{transform: scale(1.01) translateX(-3px);}
            100%{transform: scale(1.01) translateX(3px);}
        }
        .anim_02{
            animation-delay: -1500ms;
        }
    </style>
    <!-- <filter id="displacement" x="0%" y="0%" height="100%" width="100%">
        <feDisplacementMap id="place" scale="20" in2="SourceGraphic" xChannelSelector="R"/>
    </filter> -->
    <!-- <animate xlink:href="#place" id="anim-place" attributeName="scale" from="10" to="20" dur="3s" fill="freeze" /> -->

    <path style="transform: scale(1.01) translateX(20px); filter: url(#displacement);" class="offsetAnim anim_01" fill-rule="evenodd" clip-rule="evenodd" d="M1211.58 548.501C1238.84 559.724 1268.7 565.336 1301.17 565.336C1333.64 565.336 1363.3 559.724 1390.16 548.501C1417.42 537.277 1440.86 521.845 1460.51 502.204C1480.55 482.162 1495.98 458.512 1506.8 431.255C1518.03 403.597 1523.64 373.735 1523.64 341.668C1523.64 309.601 1518.03 279.939 1506.8 252.682C1495.98 225.024 1480.55 201.374 1460.51 181.733C1440.86 161.691 1417.42 146.059 1390.16 134.835C1363.3 123.612 1333.64 118 1301.17 118C1268.7 118 1238.84 123.612 1211.58 134.835C1184.73 146.059 1161.28 161.691 1141.24 181.733C1121.6 201.374 1106.16 225.024 1094.94 252.682C1084.12 279.939 1078.71 309.601 1078.71 341.668C1078.71 373.735 1084.12 403.597 1094.94 431.255C1106.16 458.512 1121.6 482.162 1141.24 502.204C1161.28 521.845 1184.73 537.277 1211.58 548.501ZM1369.11 504.609C1348.67 513.828 1326.02 518.438 1301.17 518.438C1276.32 518.438 1253.47 513.828 1232.63 504.609C1212.19 495.389 1194.55 482.763 1179.72 466.729C1164.89 450.696 1153.26 432.057 1144.85 410.813C1136.83 389.167 1132.82 366.119 1132.82 341.668C1132.82 317.217 1136.83 294.369 1144.85 273.124C1153.26 251.479 1164.89 232.64 1179.72 216.606C1194.55 200.573 1212.19 187.946 1232.63 178.727C1253.47 169.508 1276.32 164.898 1301.17 164.898C1326.02 164.898 1348.67 169.508 1369.11 178.727C1389.96 187.946 1407.8 200.573 1422.63 216.606C1437.46 232.64 1448.88 251.479 1456.9 273.124C1465.32 294.369 1469.52 317.217 1469.52 341.668C1469.52 366.119 1465.32 389.167 1456.9 410.813C1448.88 432.057 1437.46 450.696 1422.63 466.729C1407.8 482.763 1389.96 495.389 1369.11 504.609ZM549.553 128.823H600.058V554.513H549.553V128.823ZM668.51 128.823H832.053C846.082 128.823 860.913 130.426 876.546 133.633C892.178 136.839 907.611 142.05 922.843 149.265C938.475 156.08 953.306 165.099 967.336 176.322C981.766 187.545 994.392 201.174 1005.21 217.208C1016.04 232.84 1024.66 251.078 1031.07 271.922C1037.48 292.365 1040.69 315.613 1040.69 341.668C1040.69 367.722 1037.48 391.171 1031.07 412.015C1024.66 432.458 1016.04 450.696 1005.21 466.729C994.392 482.362 981.766 495.79 967.336 507.014C953.306 518.237 938.475 527.457 922.843 534.672C907.611 541.486 892.178 546.496 876.546 549.703C860.913 552.91 846.082 554.513 832.053 554.513H668.51V128.823ZM719.016 507.615H815.217C839.669 507.615 862.316 504.408 883.16 497.995C904.003 491.582 922.041 481.761 937.273 468.533C952.505 454.905 964.53 437.669 973.348 416.825C982.167 395.982 986.576 370.929 986.576 341.668C986.576 312.407 982.167 287.354 973.348 266.511C964.53 245.667 952.505 228.631 937.273 215.404C922.041 201.775 904.003 191.754 883.16 185.341C862.316 178.927 839.669 175.721 815.217 175.721H719.016V507.615ZM178 128.822H228.553V312.807L422.158 128.822H494.91L284.47 323.029L505.131 554.513H431.177L228.553 338.06V554.513H178V128.822Z" fill="green"/>

    <path style="transform: scale(1.02);" class="offsetAnim anim_02" fill-rule="evenodd" clip-rule="evenodd" d="M1211.58 548.501C1238.84 559.724 1268.7 565.336 1301.17 565.336C1333.64 565.336 1363.3 559.724 1390.16 548.501C1417.42 537.277 1440.86 521.845 1460.51 502.204C1480.55 482.162 1495.98 458.512 1506.8 431.255C1518.03 403.597 1523.64 373.735 1523.64 341.668C1523.64 309.601 1518.03 279.939 1506.8 252.682C1495.98 225.024 1480.55 201.374 1460.51 181.733C1440.86 161.691 1417.42 146.059 1390.16 134.835C1363.3 123.612 1333.64 118 1301.17 118C1268.7 118 1238.84 123.612 1211.58 134.835C1184.73 146.059 1161.28 161.691 1141.24 181.733C1121.6 201.374 1106.16 225.024 1094.94 252.682C1084.12 279.939 1078.71 309.601 1078.71 341.668C1078.71 373.735 1084.12 403.597 1094.94 431.255C1106.16 458.512 1121.6 482.162 1141.24 502.204C1161.28 521.845 1184.73 537.277 1211.58 548.501ZM1369.11 504.609C1348.67 513.828 1326.02 518.438 1301.17 518.438C1276.32 518.438 1253.47 513.828 1232.63 504.609C1212.19 495.389 1194.55 482.763 1179.72 466.729C1164.89 450.696 1153.26 432.057 1144.85 410.813C1136.83 389.167 1132.82 366.119 1132.82 341.668C1132.82 317.217 1136.83 294.369 1144.85 273.124C1153.26 251.479 1164.89 232.64 1179.72 216.606C1194.55 200.573 1212.19 187.946 1232.63 178.727C1253.47 169.508 1276.32 164.898 1301.17 164.898C1326.02 164.898 1348.67 169.508 1369.11 178.727C1389.96 187.946 1407.8 200.573 1422.63 216.606C1437.46 232.64 1448.88 251.479 1456.9 273.124C1465.32 294.369 1469.52 317.217 1469.52 341.668C1469.52 366.119 1465.32 389.167 1456.9 410.813C1448.88 432.057 1437.46 450.696 1422.63 466.729C1407.8 482.763 1389.96 495.389 1369.11 504.609ZM549.553 128.823H600.058V554.513H549.553V128.823ZM668.51 128.823H832.053C846.082 128.823 860.913 130.426 876.546 133.633C892.178 136.839 907.611 142.05 922.843 149.265C938.475 156.08 953.306 165.099 967.336 176.322C981.766 187.545 994.392 201.174 1005.21 217.208C1016.04 232.84 1024.66 251.078 1031.07 271.922C1037.48 292.365 1040.69 315.613 1040.69 341.668C1040.69 367.722 1037.48 391.171 1031.07 412.015C1024.66 432.458 1016.04 450.696 1005.21 466.729C994.392 482.362 981.766 495.79 967.336 507.014C953.306 518.237 938.475 527.457 922.843 534.672C907.611 541.486 892.178 546.496 876.546 549.703C860.913 552.91 846.082 554.513 832.053 554.513H668.51V128.823ZM719.016 507.615H815.217C839.669 507.615 862.316 504.408 883.16 497.995C904.003 491.582 922.041 481.761 937.273 468.533C952.505 454.905 964.53 437.669 973.348 416.825C982.167 395.982 986.576 370.929 986.576 341.668C986.576 312.407 982.167 287.354 973.348 266.511C964.53 245.667 952.505 228.631 937.273 215.404C922.041 201.775 904.003 191.754 883.16 185.341C862.316 178.927 839.669 175.721 815.217 175.721H719.016V507.615ZM178 128.822H228.553V312.807L422.158 128.822H494.91L284.47 323.029L505.131 554.513H431.177L228.553 338.06V554.513H178V128.822Z" fill="darkblue"/>

    <path style="" fill-rule="evenodd" clip-rule="evenodd" d="M1211.58 548.501C1238.84 559.724 1268.7 565.336 1301.17 565.336C1333.64 565.336 1363.3 559.724 1390.16 548.501C1417.42 537.277 1440.86 521.845 1460.51 502.204C1480.55 482.162 1495.98 458.512 1506.8 431.255C1518.03 403.597 1523.64 373.735 1523.64 341.668C1523.64 309.601 1518.03 279.939 1506.8 252.682C1495.98 225.024 1480.55 201.374 1460.51 181.733C1440.86 161.691 1417.42 146.059 1390.16 134.835C1363.3 123.612 1333.64 118 1301.17 118C1268.7 118 1238.84 123.612 1211.58 134.835C1184.73 146.059 1161.28 161.691 1141.24 181.733C1121.6 201.374 1106.16 225.024 1094.94 252.682C1084.12 279.939 1078.71 309.601 1078.71 341.668C1078.71 373.735 1084.12 403.597 1094.94 431.255C1106.16 458.512 1121.6 482.162 1141.24 502.204C1161.28 521.845 1184.73 537.277 1211.58 548.501ZM1369.11 504.609C1348.67 513.828 1326.02 518.438 1301.17 518.438C1276.32 518.438 1253.47 513.828 1232.63 504.609C1212.19 495.389 1194.55 482.763 1179.72 466.729C1164.89 450.696 1153.26 432.057 1144.85 410.813C1136.83 389.167 1132.82 366.119 1132.82 341.668C1132.82 317.217 1136.83 294.369 1144.85 273.124C1153.26 251.479 1164.89 232.64 1179.72 216.606C1194.55 200.573 1212.19 187.946 1232.63 178.727C1253.47 169.508 1276.32 164.898 1301.17 164.898C1326.02 164.898 1348.67 169.508 1369.11 178.727C1389.96 187.946 1407.8 200.573 1422.63 216.606C1437.46 232.64 1448.88 251.479 1456.9 273.124C1465.32 294.369 1469.52 317.217 1469.52 341.668C1469.52 366.119 1465.32 389.167 1456.9 410.813C1448.88 432.057 1437.46 450.696 1422.63 466.729C1407.8 482.763 1389.96 495.389 1369.11 504.609ZM549.553 128.823H600.058V554.513H549.553V128.823ZM668.51 128.823H832.053C846.082 128.823 860.913 130.426 876.546 133.633C892.178 136.839 907.611 142.05 922.843 149.265C938.475 156.08 953.306 165.099 967.336 176.322C981.766 187.545 994.392 201.174 1005.21 217.208C1016.04 232.84 1024.66 251.078 1031.07 271.922C1037.48 292.365 1040.69 315.613 1040.69 341.668C1040.69 367.722 1037.48 391.171 1031.07 412.015C1024.66 432.458 1016.04 450.696 1005.21 466.729C994.392 482.362 981.766 495.79 967.336 507.014C953.306 518.237 938.475 527.457 922.843 534.672C907.611 541.486 892.178 546.496 876.546 549.703C860.913 552.91 846.082 554.513 832.053 554.513H668.51V128.823ZM719.016 507.615H815.217C839.669 507.615 862.316 504.408 883.16 497.995C904.003 491.582 922.041 481.761 937.273 468.533C952.505 454.905 964.53 437.669 973.348 416.825C982.167 395.982 986.576 370.929 986.576 341.668C986.576 312.407 982.167 287.354 973.348 266.511C964.53 245.667 952.505 228.631 937.273 215.404C922.041 201.775 904.003 191.754 883.16 185.341C862.316 178.927 839.669 175.721 815.217 175.721H719.016V507.615ZM178 128.822H228.553V312.807L422.158 128.822H494.91L284.47 323.029L505.131 554.513H431.177L228.553 338.06V554.513H178V128.822Z" fill="white"/>
</svg>
    