<svg width="40" height="40" viewBox="0 0 40 40" fill="none" xmlns="http://www.w3.org/2000/svg">
<path d="M3.92773 17.9062H8.03773V22.0163H3.92773V17.9062Z" fill="#181818"/>
<path d="M16.3013 17.9062H20.4113V22.0163H16.3013V17.9062Z" fill="#181818"/>
<path d="M22.4888 17.9062H26.5988V22.0163H22.4888V17.9062Z" fill="#181818"/>
<path d="M10.1152 17.9062H14.2252V22.0163H10.1152V17.9062Z" fill="#181818"/>
<path d="M31.4888 17.9062H35.5988V22.0163H31.4888V17.9062Z" fill="#181818"/>
<path d="M27.1138 13.5312H31.2238V17.6413H27.1138V13.5312Z" fill="#181818"/>
<path d="M22.7388 9.15625H26.8488V13.2663H22.7388V9.15625Z" fill="#181818"/>
<path d="M18.3638 4.78125H22.4738V8.89125H18.3638V4.78125Z" fill="#181818"/>
<path d="M22.7388 26.6562H26.8488V30.7663H22.7388V26.6562Z" fill="#181818"/>
<path d="M27.1138 22.2812H31.2238V26.3913H27.1138V22.2812Z" fill="#181818"/>
<path d="M18.3638 31.0312H22.4738V35.1413H18.3638V31.0312Z" fill="#181818"/>
</svg>
