<svg width="511" height="511" viewBox="0 0 511 511" fill="none" xmlns="http://www.w3.org/2000/svg">
<path d="M230.598 509.517C90.408 495.854 -12.2412 371.249 1.17946 231.039C14.6001 90.8216 139.022 -12.0417 279.258 1.13742C419.495 14.3085 522.578 138.552 509.645 278.809C496.713 419.067 372.652 522.374 232.37 509.686C231.779 509.629 231.189 509.573 230.598 509.517Z" fill="#F5F5F0"/>
<path d="M250.484 55.6477C360.958 53.0618 452.578 140.587 455.034 251.063C457.489 361.539 369.85 453.052 259.371 455.38C149.08 457.7 57.7556 370.239 55.3043 259.948C52.8521 149.666 140.199 58.2335 250.484 55.6477Z" fill="#181818"/>
<path d="M375.642 361.284C317.791 426.962 217.872 433.89 151.516 376.816C85.1603 319.741 77.0603 219.915 133.347 152.891C189.635 85.8679 289.364 76.5877 357.045 132.083C424.727 187.579 435.175 287.196 380.482 355.524C378.914 357.482 377.3 359.407 375.642 361.284Z" fill="#F5F5F0"/>
<path d="M249.819 151.084C307.849 147.854 357.367 192.596 360.02 250.653C362.674 308.71 317.443 357.778 259.359 359.856C202.091 361.894 153.86 317.435 151.244 260.191C148.628 202.947 192.603 154.274 249.819 151.084Z" fill="#181818"/>
<path d="M254.059 200.83C273.702 200.331 292.09 210.449 302.189 227.301C312.288 244.154 312.533 265.147 302.831 282.233C293.129 299.319 274.981 309.856 255.331 309.824C225.516 309.767 201.278 285.77 200.93 255.955C200.582 226.141 224.252 201.579 254.059 200.83Z" fill="#F5F5F0"/>
</svg>
