<svg width="481" height="412" viewBox="0 0 481 412" fill="none" xmlns="http://www.w3.org/2000/svg">
<path d="M194.397 182.899L194.397 259.024L194.401 259.024L194.401 356.213L287.371 356.213L287.371 259.024L329.632 259.024L329.632 411.164L287.371 411.164L287.371 411.152L194.401 411.152L194.401 411.164L-9.39365e-06 411.164L1.72075e-05 259.023L152.137 259.024L152.137 182.899L194.397 182.899Z" fill="#181818"/>
<path d="M286.335 54.9492L193.361 54.9492L193.361 152.141L151.101 152.141L151.101 1.32096e-05L193.361 1.69042e-05L193.361 0.00978253L289.685 0.00979095L289.685 0.0429941L480.736 0.0430108L480.736 152.184L328.596 152.184L328.596 228.259L286.335 228.259L286.335 54.9492Z" fill="#181818"/>
</svg>
