<svg width="481" height="412" viewBox="0 0 481 412" fill="none" xmlns="http://www.w3.org/2000/svg">
<path d="M194.397 182.899L194.397 259.023L194.401 259.023L194.401 356.213L287.371 356.213L287.371 259.023L329.632 259.023L329.632 411.164L287.371 411.164L287.371 411.152L194.401 411.152L194.401 411.164L-9.39365e-06 411.164L1.72075e-05 259.023L152.137 259.023L152.137 182.898L194.397 182.899Z" fill="#F5F5F0"/>
<path d="M286.335 54.9492L193.361 54.9492L193.361 152.141L151.101 152.141L151.101 -2.88177e-05L193.361 -2.51231e-05L193.361 0.0097405L289.685 0.00974892L289.685 0.042952L480.736 0.0429688L480.736 152.184L328.596 152.184L328.596 228.259L286.335 228.259L286.335 54.9492Z" fill="#F5F5F0"/>
</svg>
