<svg width="1736" height="794" viewBox="0 0 1736 794" fill="none" xmlns="http://www.w3.org/2000/svg">
<circle cx="663.423" cy="215.452" r="127.959" stroke="#1C1C1C" stroke-width="1.5"/>
<path d="M655.942 221.705L656.313 220.667C657.24 220.704 659.65 220.778 660.762 220.778C662.468 220.778 663.839 220.667 665.878 220.667C669.141 220.667 670.364 221.223 671.217 222.15C671.884 222.854 672.218 223.855 672.218 225.005C672.218 227.97 670.698 229.75 668.214 230.751C667.287 231.122 666.175 231.344 664.989 231.493L664.951 231.641C667.361 231.974 668.77 232.679 669.586 233.495C670.364 234.31 670.735 235.311 670.735 236.757C670.735 239.871 668.881 242.059 666.286 243.245C664.692 244.024 662.505 244.246 660.391 244.246C658.352 244.246 656.387 244.135 654.422 244.135C653.014 244.135 651.012 244.209 649.899 244.246L650.233 243.208C652.569 243.06 653.014 242.837 653.236 242.207C654.311 239.241 655.349 235.756 656.424 232.012C657.277 229.009 658.389 225.227 658.983 222.632C659.131 222.002 658.686 221.89 655.942 221.705ZM668.362 224.819V224.782C668.362 224.152 668.177 223.41 667.88 222.965C667.435 222.335 666.657 221.816 664.507 221.816C663.357 221.816 663.135 222.039 663.024 222.409C662.356 224.226 661.133 228.675 660.428 231.011C660.725 231.085 661.281 231.085 661.911 231.085C665.545 231.085 668.362 228.675 668.362 224.819ZM666.546 236.016V235.978C666.546 235.2 666.397 234.31 665.952 233.643C665.322 232.716 664.099 232.123 661.615 232.123C661.133 232.123 660.503 232.16 660.095 232.197C659.205 235.459 657.944 239.686 657.351 242.429C657.277 242.8 657.574 243.097 659.502 243.097C663.913 243.097 666.509 240.205 666.546 236.016ZM673.416 229.787L673.824 228.749C675.677 228.638 678.236 228.304 679.867 227.785C679.644 229.231 678.866 232.123 678.458 233.902H678.606C680.682 229.676 682.499 227.785 684.612 227.785C686.021 227.785 686.54 228.971 686.54 229.824C686.54 231.53 685.354 232.345 684.501 232.345C683.908 232.345 683.611 232.086 683.463 231.604C683.315 231.048 683.129 230.751 682.647 230.751C681.35 230.751 679.496 233.939 678.347 236.757C677.494 238.759 676.641 241.132 675.789 244.172C674.306 244.246 673.082 244.357 672.081 244.468C673.675 240.131 675.752 233.087 676.011 230.454C676.048 230.01 675.9 229.787 675.492 229.787H673.416ZM702.343 239.278L703.085 239.982C702.121 241.984 700.119 244.654 697.19 244.654C695.077 244.654 695.003 242.726 695.522 240.872C695.596 240.576 695.707 240.094 695.818 239.76H695.744C694.261 242.022 691.629 244.654 688.329 244.654C686.179 244.654 685.252 242.985 685.252 240.761C685.252 236.683 687.773 231.493 691.332 229.157C692.852 228.156 694.187 227.785 695.596 227.785C697.264 227.785 698.339 228.415 698.784 229.453L699.155 228.23H702.492C701.231 231.9 699.229 238.462 698.636 241.391C698.488 242.096 698.488 242.726 699.007 242.726C699.971 242.726 701.416 241.132 702.343 239.278ZM688.922 240.613V240.65C688.922 241.651 689.256 242.689 690.257 242.689C691.851 242.689 693.705 241.206 695.485 238.092C696.411 236.572 697.969 232.753 697.969 231.307C697.969 229.713 697.079 229.046 696.004 229.046C694.891 229.046 693.816 229.528 692.63 230.899C690.48 233.42 688.922 237.573 688.922 240.613ZM721.194 239.278L721.898 240.057C720.378 243.134 717.969 244.691 715.744 244.691C713.408 244.691 713.408 242.689 714.335 240.131C715.336 237.461 716.597 234.014 717.412 231.715C717.783 230.677 717.635 229.676 716.597 229.676C713.483 229.676 710.146 235.237 708.774 238.981C708.255 240.353 707.662 241.799 706.958 244.172C705.66 244.246 704.362 244.394 703.361 244.506C705.067 239.908 707.143 232.975 707.625 230.38C707.736 229.898 707.662 229.713 707.291 229.713L705.03 229.75L705.438 228.712C707.44 228.564 709.664 228.304 711.629 227.785C711.11 229.713 710.48 232.049 709.886 234.014C711.925 230.936 714.78 227.785 718.413 227.785C719.266 227.785 719.896 228.045 720.304 228.378C721.342 229.305 720.972 231.381 720.49 232.79C719.526 235.422 718.154 238.944 717.338 241.688C717.116 242.318 717.227 242.763 717.598 242.763C718.599 242.763 720.23 241.169 721.194 239.278ZM740.698 239.241L741.477 240.02C740.142 242.689 738.066 244.691 735.471 244.691C733.432 244.691 733.32 242.726 733.877 240.687C733.988 240.353 734.062 240.02 734.173 239.649C732.579 242.059 730.095 244.654 726.647 244.654C724.237 244.654 723.125 242.874 723.125 240.39C723.125 236.498 725.349 231.789 728.872 229.342C730.132 228.415 731.726 227.785 733.58 227.785C735.211 227.785 736.398 228.267 736.991 229.194C738.437 224.634 738.993 222.484 739.178 221.52C739.289 220.963 739.215 220.815 738.807 220.815C738.288 220.778 737.436 220.741 736.435 220.741L736.842 219.74C738.993 219.703 742.329 219.406 743.627 219.11C742.774 221.26 740.772 227.489 738.733 234.866C737.806 238.055 737.287 240.02 736.991 241.391C736.842 242.096 736.768 242.763 737.287 242.763C738.251 242.763 739.883 241.021 740.698 239.241ZM726.87 240.427V240.464C726.87 241.762 727.389 242.763 728.427 242.763C729.984 242.763 731.689 241.243 733.357 238.611C734.507 236.868 736.138 233.013 736.138 231.233C736.138 230.084 735.545 228.971 734.062 228.971C732.876 228.971 731.8 229.453 730.651 230.677C728.649 232.864 726.87 236.905 726.87 240.427Z" fill="black"/>
<circle cx="649.871" cy="540.613" r="165.894" stroke="#1C1C1C" stroke-width="1.5"/>
<path d="M561.013 550.73L561.458 549.729C562.163 549.729 564.239 549.841 565.722 549.841C566.5 549.841 567.316 549.804 568.28 549.766C569.207 549.729 570.245 549.692 571.357 549.692C574.582 549.692 576.621 550.36 578.104 551.657C579.624 552.955 580.477 555.328 580.477 558.071C580.44 563.966 577.437 569.972 571.765 572.345C569.985 573.086 567.65 573.383 565.351 573.383C564.387 573.383 563.46 573.346 562.496 573.271C561.569 573.234 560.643 573.197 559.679 573.197C558.196 573.197 555.749 573.308 554.97 573.308L555.378 572.27L557.083 572.122C557.899 572.048 558.196 571.863 558.529 570.899C558.9 569.898 559.345 568.526 561.347 561.704C563.238 555.29 563.72 553.214 564.016 551.991C564.165 551.286 564.016 551.064 563.312 550.99L561.013 550.73ZM570.467 550.842H570.43C568.725 550.842 568.391 551.027 568.243 551.435C567.909 552.213 567.316 553.956 565.277 561.296C563.275 568.452 562.793 570.343 562.645 571.344C562.57 571.9 562.756 572.233 564.721 572.233C567.168 572.233 568.539 571.863 569.614 571.269C573.767 569.045 576.325 562.297 576.362 557.07C576.362 555.105 575.954 553.585 575.213 552.658C574.212 551.324 572.543 550.842 570.467 550.842ZM594.449 567.451L594.597 569.304C592.854 571.974 589.814 573.716 586.478 573.716C583.326 573.716 581.584 571.826 581.584 568.526C581.584 564.967 583.289 560.926 586.441 558.516C587.998 557.404 589.703 556.848 591.446 556.848C594.597 556.848 595.709 558.664 595.709 560.703C595.709 562.409 594.374 563.41 593.114 563.966C591.223 564.856 587.627 565.634 585.588 565.894C585.44 566.561 585.291 567.599 585.291 568.452C585.291 570.528 586.07 572.085 588.072 572.085C590.519 572.085 592.632 570.491 593.892 567.451H594.449ZM591.038 557.96H590.964C589.629 557.96 587.293 559.294 585.81 564.67C587.367 564.485 589.555 563.929 590.556 563.447C591.928 562.779 592.632 561.556 592.632 560.036C592.632 558.738 592.076 557.96 591.038 557.96ZM598.268 558.738L596.303 558.775L596.674 557.774C598.713 557.626 600.937 557.367 602.791 556.848C602.346 559.035 602.198 561.89 602.086 565.3C602.012 567.117 601.975 569.008 601.975 570.454C605.386 567.043 608.463 562.297 608.574 559.332C608.611 558.479 608.537 557.923 608.426 557.441C609.464 556.996 610.576 556.551 610.873 556.551C611.095 556.551 611.54 557.478 611.503 558.516C611.503 559.369 611.207 560.444 610.391 561.778C608.537 564.819 603.087 571.121 601.048 573.308C600.233 573.346 599.232 573.531 598.49 573.679C598.75 567.859 599.009 562.001 598.861 559.369C598.861 558.924 598.75 558.738 598.268 558.738ZM624.536 567.451L624.685 569.304C622.942 571.974 619.902 573.716 616.566 573.716C613.414 573.716 611.672 571.826 611.672 568.526C611.672 564.967 613.377 560.926 616.528 558.516C618.086 557.404 619.791 556.848 621.533 556.848C624.685 556.848 625.797 558.664 625.797 560.703C625.797 562.409 624.462 563.41 623.202 563.966C621.311 564.856 617.715 565.634 615.676 565.894C615.527 566.561 615.379 567.599 615.379 568.452C615.379 570.528 616.158 572.085 618.16 572.085C620.607 572.085 622.72 570.491 623.98 567.451H624.536ZM621.126 557.96H621.052C619.717 557.96 617.381 559.294 615.898 564.67C617.455 564.485 619.643 563.929 620.644 563.447C622.015 562.779 622.72 561.556 622.72 560.036C622.72 558.738 622.164 557.96 621.126 557.96ZM629.576 549.841L629.946 548.803C632.579 548.765 635.248 548.506 636.657 548.172C635.915 550.1 634.729 553.622 632.986 559.591C631.355 565.263 630.28 568.86 629.872 570.713C629.687 571.455 629.798 571.826 630.206 571.826C631.133 571.826 632.838 570.268 633.802 568.303L634.544 569.082C632.949 572.196 630.577 573.753 628.315 573.753C625.942 573.753 626.091 571.714 626.758 569.342C627.611 566.45 628.463 563.818 629.65 559.776C631.281 554.104 631.837 552.102 632.208 550.582C632.356 550.026 632.208 549.878 631.726 549.878L629.576 549.841ZM645.323 556.848H645.398C648.92 556.848 650.922 558.813 650.922 562.446C650.922 566.042 649.068 570.268 646.139 572.27C644.582 573.271 642.951 573.716 640.986 573.716C638.465 573.716 635.425 572.789 635.425 568.303C635.425 564.67 637.353 560.518 640.356 558.405C641.801 557.404 643.507 556.848 645.323 556.848ZM645.323 557.923H645.286C644.063 557.923 642.951 558.553 641.838 560.073C640.244 562.335 638.873 566.709 638.873 569.416C638.873 571.826 639.985 572.641 641.245 572.641C642.283 572.641 643.247 572.159 644.174 571.047C646.028 568.785 647.511 563.855 647.511 560.963C647.511 559.257 646.881 557.923 645.323 557.923ZM652.529 561.741C654.16 560.963 655.717 559.814 656.644 558.405C657.015 557.33 657.497 555.476 657.645 554.92C658.387 554.771 660.314 554.327 661.093 553.956L661.241 554.141C660.537 556.217 659.536 559.517 658.794 561.927C660.5 559.628 663.058 556.848 666.246 556.848C668.693 556.848 669.842 558.813 669.842 561.185C669.842 565.56 667.099 570.973 663.021 572.901C661.834 573.494 660.574 573.716 659.499 573.716C658.127 573.716 656.681 573.271 655.977 572.307C655.05 575.459 654.383 578.091 654.123 579.203C653.938 580.056 654.123 580.278 654.79 580.353L657.126 580.575L656.829 581.613H652.937C651.12 581.613 648.896 581.687 646.968 581.873L647.301 580.835L648.896 580.575C649.674 580.427 650.082 580.204 650.379 579.463C651.973 574.903 654.42 566.561 655.977 561.074C655.161 561.667 653.678 562.409 652.974 562.631C652.825 562.297 652.677 562.001 652.529 561.741ZM664.615 558.627H664.578C662.798 558.627 660.722 561 659.239 563.521C658.127 565.3 656.867 568.415 656.867 570.046C656.867 571.751 657.979 572.493 659.276 572.493C660.426 572.493 661.649 571.863 662.761 570.454C664.615 568.155 666.172 564.077 666.172 561C666.172 559.739 665.653 558.627 664.615 558.627ZM697.894 568.303L698.635 569.119C697.115 572.159 694.668 573.753 692.407 573.753C689.997 573.753 690.108 571.64 691.035 569.193C692.073 566.339 693.296 563.224 694.186 560.852C694.594 559.739 694.409 558.738 693.408 558.738C690.479 558.738 686.92 564.448 685.511 568.341C685.029 569.601 684.436 571.047 683.768 573.271C682.434 573.308 681.025 573.457 680.098 573.568C681.47 569.898 683.657 563.15 684.287 560.777C684.547 559.814 684.547 558.738 683.472 558.738C681.136 558.738 677.54 563.336 675.723 568.229C675.167 569.638 674.611 571.121 673.944 573.271C672.683 573.346 671.311 573.457 670.348 573.568C672.238 568.489 674.166 562.038 674.685 559.48C674.796 558.887 674.648 558.738 674.166 558.738H672.016L672.35 557.737C674.092 557.552 676.91 557.292 678.689 556.848C678.207 558.516 677.466 561.445 676.947 563.076C678.838 560.295 681.655 556.848 685.4 556.848C687.921 556.848 688.032 558.998 687.402 561.074C687.216 561.741 687.068 562.223 686.846 562.928C688.81 560.073 691.739 556.848 695.373 556.848C696.299 556.848 696.893 557.144 697.3 557.552C698.227 558.553 697.708 560.592 697.3 561.741C696.262 564.596 694.594 568.897 694.001 570.75C693.815 571.344 693.853 571.826 694.297 571.826C695.335 571.826 696.967 570.194 697.894 568.303ZM712.935 567.451L713.083 569.304C711.341 571.974 708.301 573.716 704.964 573.716C701.813 573.716 700.07 571.826 700.07 568.526C700.07 564.967 701.776 560.926 704.927 558.516C706.484 557.404 708.189 556.848 709.932 556.848C713.083 556.848 714.195 558.664 714.195 560.703C714.195 562.409 712.861 563.41 711.6 563.966C709.71 564.856 706.113 565.634 704.074 565.894C703.926 566.561 703.778 567.599 703.778 568.452C703.778 570.528 704.556 572.085 706.558 572.085C709.005 572.085 711.118 570.491 712.379 567.451H712.935ZM709.524 557.96H709.45C708.115 557.96 705.78 559.294 704.297 564.67C705.854 564.485 708.041 563.929 709.042 563.447C710.414 562.779 711.118 561.556 711.118 560.036C711.118 558.738 710.562 557.96 709.524 557.96ZM732.062 568.341L732.767 569.119C731.247 572.196 728.837 573.753 726.612 573.753C724.277 573.753 724.277 571.751 725.204 569.193C726.205 566.524 727.465 563.076 728.281 560.777C728.651 559.739 728.503 558.738 727.465 558.738C724.351 558.738 721.014 564.299 719.642 568.044C719.123 569.416 718.53 570.862 717.826 573.234C716.528 573.308 715.231 573.457 714.23 573.568C715.935 568.971 718.011 562.038 718.493 559.443C718.604 558.961 718.53 558.775 718.159 558.775L715.898 558.813L716.306 557.774C718.308 557.626 720.532 557.367 722.497 556.848C721.978 558.775 721.348 561.111 720.755 563.076C722.794 559.999 725.648 556.848 729.282 556.848C730.134 556.848 730.765 557.107 731.172 557.441C732.211 558.368 731.84 560.444 731.358 561.853C730.394 564.485 729.022 568.007 728.207 570.75C727.984 571.381 728.095 571.826 728.466 571.826C729.467 571.826 731.098 570.231 732.062 568.341ZM742.71 568.081L743.266 569.379C741.82 572.233 739.114 573.716 736.852 573.716C733.849 573.716 733.849 571.826 734.517 569.601C735.518 566.264 737.038 561.371 737.779 558.85L735.184 558.59L735.666 557.478H738.187C738.743 555.735 739.188 554.141 739.522 552.992C740.893 552.807 742.488 552.51 743.452 552.176C743.155 552.918 742.302 555.476 741.635 557.478H745.639L745.083 558.59L741.227 558.85C740.56 560.926 738.372 568.192 737.742 570.787C737.557 571.603 737.631 572.122 738.447 572.122C740.041 572.122 741.969 569.898 742.71 568.081Z" fill="black"/>
<circle cx="1022.45" cy="329.257" r="229.572" stroke="#1C1C1C" stroke-width="1.5"/>
<path d="M988.338 374.476L988.672 373.438C989.71 373.475 991.379 373.55 993.01 373.55C994.789 373.55 996.346 373.475 997.978 373.438L997.681 374.476C995.345 374.625 995.123 374.81 995.012 375.811C994.752 379.259 994.456 386.229 994.159 392.309C996.865 386.711 1000.2 380.594 1002.83 374.773C1002.98 374.402 1003.09 374.069 1003.21 373.624C1003.87 373.698 1005.65 373.513 1006.54 373.327C1006.43 375.292 1006.32 383.967 1006.1 392.717C1011.99 382.484 1013.99 378.888 1015.33 376.034C1015.77 375.07 1015.62 374.81 1014.85 374.699L1012.84 374.476L1013.14 373.438C1014.03 373.438 1015.77 373.55 1017.03 373.55C1018.52 373.55 1019.74 373.438 1021.04 373.438L1020.82 374.476C1018.74 374.662 1018.18 374.921 1017.37 376.108C1013.96 381.261 1007.91 391.827 1005.17 396.98C1003.91 397.092 1003.06 397.277 1002.54 397.462L1002.32 397.314C1002.54 393.199 1002.57 385.154 1002.8 377.591C998.274 386.822 995.086 392.754 993.269 396.98C992.046 397.129 991.267 397.24 990.6 397.462L990.378 397.314C990.6 393.273 991.156 379.926 991.082 375.737C991.045 374.995 990.934 374.773 990.266 374.699C989.599 374.588 988.932 374.514 988.338 374.476ZM1027.42 391.16L1027.57 393.013C1025.83 395.683 1022.79 397.425 1019.45 397.425C1016.3 397.425 1014.55 395.535 1014.55 392.235C1014.55 388.676 1016.26 384.635 1019.41 382.225C1020.97 381.113 1022.67 380.557 1024.42 380.557C1027.57 380.557 1028.68 382.373 1028.68 384.412C1028.68 386.118 1027.35 387.119 1026.08 387.675C1024.19 388.565 1020.6 389.343 1018.56 389.603C1018.41 390.27 1018.26 391.308 1018.26 392.161C1018.26 394.237 1019.04 395.794 1021.04 395.794C1023.49 395.794 1025.6 394.2 1026.86 391.16H1027.42ZM1024.01 381.669H1023.93C1022.6 381.669 1020.26 383.003 1018.78 388.379C1020.34 388.194 1022.53 387.638 1023.53 387.156C1024.9 386.488 1025.6 385.265 1025.6 383.745C1025.6 382.447 1025.05 381.669 1024.01 381.669ZM1032.38 373.513L1032.76 372.512C1035.2 372.437 1038.24 372.141 1039.39 371.881C1038.24 374.884 1036.02 382.447 1035.28 384.968C1037.09 382.781 1039.58 380.557 1042.54 380.557C1044.99 380.557 1045.92 382.336 1045.92 384.672C1045.88 388.787 1043.36 393.607 1040.06 395.72C1038.54 396.684 1036.35 397.425 1034.39 397.425C1032.87 397.425 1031.35 397.055 1030.53 396.424C1029.38 395.646 1029.23 394.719 1029.72 393.088C1030.46 390.567 1031.42 387.304 1032.42 383.893C1034.02 378.332 1034.87 375.144 1035.05 374.106C1035.13 373.698 1035.05 373.587 1034.65 373.55L1032.38 373.513ZM1035.02 396.276H1035.05C1035.94 396.276 1037.06 395.757 1037.95 394.941C1039.91 393.162 1042.21 388.379 1042.25 384.524C1042.28 383.078 1041.76 382.299 1040.84 382.299C1039.17 382.299 1036.94 384.338 1035.57 386.933C1034.2 389.306 1032.98 392.68 1032.98 394.274C1032.98 395.646 1033.76 396.276 1035.02 396.276ZM1057.64 374.439L1058.08 373.438C1058.78 373.438 1060.86 373.55 1062.34 373.55C1063.12 373.55 1063.94 373.513 1064.9 373.475C1065.83 373.438 1066.87 373.401 1067.98 373.401C1071.2 373.401 1073.24 374.069 1074.73 375.366C1076.25 376.664 1077.1 379.037 1077.1 381.78C1077.06 387.675 1074.06 393.681 1068.39 396.054C1066.61 396.795 1064.27 397.092 1061.97 397.092C1061.01 397.092 1060.08 397.055 1059.12 396.98C1058.19 396.943 1057.26 396.906 1056.3 396.906C1054.82 396.906 1052.37 397.017 1051.59 397.017L1052 395.979L1053.71 395.831C1054.52 395.757 1054.82 395.572 1055.15 394.608C1055.52 393.607 1055.97 392.235 1057.97 385.413C1059.86 378.999 1060.34 376.923 1060.64 375.7C1060.79 374.995 1060.64 374.773 1059.93 374.699L1057.64 374.439ZM1067.09 374.551H1067.05C1065.35 374.551 1065.01 374.736 1064.87 375.144C1064.53 375.922 1063.94 377.665 1061.9 385.005C1059.9 392.161 1059.42 394.052 1059.27 395.053C1059.19 395.609 1059.38 395.942 1061.34 395.942C1063.79 395.942 1065.16 395.572 1066.24 394.978C1070.39 392.754 1072.95 386.006 1072.98 380.779C1072.98 378.814 1072.58 377.294 1071.84 376.367C1070.83 375.033 1069.17 374.551 1067.09 374.551ZM1091.07 391.16L1091.22 393.013C1089.48 395.683 1086.44 397.425 1083.1 397.425C1079.95 397.425 1078.21 395.535 1078.21 392.235C1078.21 388.676 1079.91 384.635 1083.06 382.225C1084.62 381.113 1086.33 380.557 1088.07 380.557C1091.22 380.557 1092.33 382.373 1092.33 384.412C1092.33 386.118 1091 387.119 1089.74 387.675C1087.85 388.565 1084.25 389.343 1082.21 389.603C1082.06 390.27 1081.91 391.308 1081.91 392.161C1081.91 394.237 1082.69 395.794 1084.69 395.794C1087.14 395.794 1089.25 394.2 1090.51 391.16H1091.07ZM1087.66 381.669H1087.59C1086.25 381.669 1083.92 383.003 1082.43 388.379C1083.99 388.194 1086.18 387.638 1087.18 387.156C1088.55 386.488 1089.25 385.265 1089.25 383.745C1089.25 382.447 1088.7 381.669 1087.66 381.669ZM1105.52 380.445L1106.3 380.853C1105.56 382.522 1104.78 384.709 1104.3 386.674L1103.41 386.711C1104 383.56 1103 381.669 1100.66 381.669C1099.03 381.669 1098.07 382.818 1098.07 384.153C1098.07 385.117 1098.44 385.673 1099.14 386.266C1099.96 386.896 1101.7 388.12 1102.67 388.824C1103.81 389.64 1104.41 390.53 1104.41 392.124C1104.41 393.792 1103.59 395.053 1102.59 395.868C1101.4 396.869 1099.7 397.425 1097.62 397.425C1095.81 397.425 1093.66 396.832 1092.25 395.905C1092.66 394.904 1093.36 392.717 1093.99 390.492L1094.95 390.381C1094.77 390.937 1094.62 392.05 1094.62 392.791C1094.55 394.867 1095.81 396.276 1098.25 396.276C1099.88 396.276 1101.29 395.423 1101.29 393.792C1101.29 392.902 1100.96 392.383 1100.22 391.79C1099.51 391.197 1098.22 390.196 1097.14 389.38C1095.99 388.565 1095.14 387.489 1095.14 385.784C1095.14 384.153 1095.81 382.855 1097.03 381.817C1098.11 380.927 1099.4 380.557 1101 380.557C1102.63 380.557 1104.04 381.224 1104.52 381.854L1105.52 380.445ZM1113.87 373.401H1113.9C1115.02 373.401 1115.61 374.18 1115.54 375.366C1115.46 376.775 1114.39 377.628 1113.24 377.628C1112.31 377.628 1111.53 376.96 1111.57 375.737C1111.64 374.217 1112.83 373.401 1113.87 373.401ZM1107.49 382.522L1107.86 381.446C1109.86 381.298 1112.68 381.039 1114.42 380.557L1114.53 380.705C1113.42 383.263 1110.83 391.419 1110.05 394.496C1109.9 395.127 1109.86 395.572 1110.34 395.572C1111.38 395.572 1113.13 393.792 1113.98 392.012L1114.72 392.828C1113.09 395.831 1110.83 397.425 1108.49 397.425C1106.23 397.425 1106.19 395.72 1106.97 393.236C1107.86 390.418 1109.38 385.895 1110.12 383.152C1110.27 382.633 1110.23 382.484 1109.79 382.484C1109.34 382.484 1108.27 382.484 1107.49 382.522ZM1124.59 380.557H1124.63C1126.15 380.557 1127.37 380.927 1128.3 381.743C1129.67 380.742 1130.64 380.334 1131.6 380.334C1132.42 380.334 1133.01 380.89 1133.01 381.298C1133.01 381.743 1132.23 382.633 1131.75 382.892C1130.93 382.373 1129.86 382.225 1128.93 382.522C1129.34 383.152 1129.6 384.079 1129.6 385.005C1129.6 388.861 1126.82 392.124 1122.48 392.124C1121.4 392.124 1120.22 391.79 1119.51 391.382C1118.74 391.642 1118.25 392.161 1118.25 392.754C1118.25 393.384 1118.81 393.903 1119.92 394.237C1121.26 394.682 1123.26 395.201 1125.11 395.72C1127.34 396.313 1128.97 397.462 1128.97 399.909C1128.97 404.432 1124.15 406.064 1120.22 406.064C1116.88 406.064 1112.51 404.506 1112.51 401.021C1112.51 398.834 1114.55 397.611 1116.62 397.611C1117.1 397.611 1117.55 397.722 1117.81 397.796L1118.11 398.538C1116.44 398.538 1115.29 399.427 1115.29 400.873C1115.29 403.098 1118.03 404.766 1121.29 404.766C1124.33 404.766 1125.93 403.32 1125.93 401.578C1125.93 400.428 1125.19 399.576 1123.81 399.131C1122.15 398.612 1120.37 398.018 1118.85 397.574C1117.14 397.055 1115.51 396.165 1115.51 394.163C1115.51 392.643 1116.73 391.345 1118.66 390.789C1117.88 390.085 1117.44 389.047 1117.44 387.749C1117.44 383.967 1120.59 380.557 1124.59 380.557ZM1124.78 381.632H1124.74C1123.93 381.632 1123.15 382.002 1122.52 382.855C1121.4 384.301 1120.66 386.896 1120.66 388.676C1120.66 390.455 1121.59 391.049 1122.48 391.049C1123.33 391.049 1124 390.678 1124.59 390.01C1125.74 388.602 1126.56 385.858 1126.56 383.967C1126.56 382.41 1125.85 381.632 1124.78 381.632ZM1148.52 392.05L1149.23 392.828C1147.71 395.905 1145.3 397.462 1143.07 397.462C1140.74 397.462 1140.74 395.46 1141.66 392.902C1142.67 390.233 1143.93 386.785 1144.74 384.486C1145.11 383.448 1144.96 382.447 1143.93 382.447C1140.81 382.447 1137.48 388.008 1136.1 391.753C1135.58 393.125 1134.99 394.571 1134.29 396.943C1132.99 397.017 1131.69 397.166 1130.69 397.277C1132.4 392.68 1134.47 385.747 1134.95 383.152C1135.07 382.67 1134.99 382.484 1134.62 382.484L1132.36 382.522L1132.77 381.483C1134.77 381.335 1136.99 381.076 1138.96 380.557C1138.44 382.484 1137.81 384.82 1137.22 386.785C1139.26 383.708 1142.11 380.557 1145.74 380.557C1146.6 380.557 1147.23 380.816 1147.63 381.15C1148.67 382.077 1148.3 384.153 1147.82 385.562C1146.86 388.194 1145.48 391.716 1144.67 394.459C1144.45 395.09 1144.56 395.535 1144.93 395.535C1145.93 395.535 1147.56 393.94 1148.52 392.05ZM1068.09 433.536H1066.02V426.158H1059.31V424.156H1066.02V417.482H1068.09V424.156H1074.73V426.158H1068.09V433.536ZM970.531 448.439L970.976 447.438C971.68 447.438 973.757 447.55 975.24 447.55C976.018 447.55 976.834 447.513 977.798 447.475C978.725 447.438 979.763 447.401 980.875 447.401C984.1 447.401 986.139 448.069 987.622 449.366C989.142 450.664 989.995 453.037 989.995 455.78C989.958 461.675 986.955 467.681 981.283 470.054C979.503 470.795 977.167 471.092 974.869 471.092C973.905 471.092 972.978 471.055 972.014 470.98C971.087 470.943 970.16 470.906 969.196 470.906C967.714 470.906 965.267 471.017 964.488 471.017L964.896 469.979L966.601 469.831C967.417 469.757 967.714 469.572 968.047 468.608C968.418 467.607 968.863 466.235 970.865 459.413C972.756 452.999 973.238 450.923 973.534 449.7C973.682 448.995 973.534 448.773 972.83 448.699L970.531 448.439ZM979.985 448.551H979.948C978.243 448.551 977.909 448.736 977.761 449.144C977.427 449.922 976.834 451.665 974.795 459.005C972.793 466.161 972.311 468.052 972.162 469.053C972.088 469.609 972.274 469.942 974.239 469.942C976.685 469.942 978.057 469.572 979.132 468.978C983.285 466.754 985.843 460.006 985.88 454.779C985.88 452.814 985.472 451.294 984.731 450.367C983.73 449.033 982.061 448.551 979.985 448.551ZM1003.97 465.16L1004.11 467.013C1002.37 469.683 999.332 471.425 995.996 471.425C992.844 471.425 991.102 469.535 991.102 466.235C991.102 462.676 992.807 458.635 995.958 456.225C997.516 455.113 999.221 454.557 1000.96 454.557C1004.11 454.557 1005.23 456.373 1005.23 458.412C1005.23 460.118 1003.89 461.119 1002.63 461.675C1000.74 462.565 997.145 463.343 995.106 463.603C994.957 464.27 994.809 465.308 994.809 466.161C994.809 468.237 995.588 469.794 997.59 469.794C1000.04 469.794 1002.15 468.2 1003.41 465.16H1003.97ZM1000.56 455.669H1000.48C999.147 455.669 996.811 457.003 995.328 462.379C996.885 462.194 999.073 461.638 1000.07 461.156C1001.45 460.488 1002.15 459.265 1002.15 457.745C1002.15 456.447 1001.59 455.669 1000.56 455.669ZM1018.42 454.445L1019.19 454.853C1018.45 456.522 1017.67 458.709 1017.19 460.674L1016.3 460.711C1016.9 457.56 1015.89 455.669 1013.56 455.669C1011.93 455.669 1010.96 456.818 1010.96 458.153C1010.96 459.117 1011.33 459.673 1012.04 460.266C1012.85 460.896 1014.6 462.12 1015.56 462.824C1016.71 463.64 1017.3 464.53 1017.3 466.124C1017.3 467.792 1016.49 469.053 1015.49 469.868C1014.3 470.869 1012.59 471.425 1010.52 471.425C1008.7 471.425 1006.55 470.832 1005.14 469.905C1005.55 468.904 1006.26 466.717 1006.89 464.492L1007.85 464.381C1007.66 464.937 1007.52 466.05 1007.52 466.791C1007.44 468.867 1008.7 470.276 1011.15 470.276C1012.78 470.276 1014.19 469.423 1014.19 467.792C1014.19 466.902 1013.86 466.383 1013.11 465.79C1012.41 465.197 1011.11 464.196 1010.04 463.38C1008.89 462.565 1008.03 461.489 1008.03 459.784C1008.03 458.153 1008.7 456.855 1009.93 455.817C1011 454.927 1012.3 454.557 1013.89 454.557C1015.52 454.557 1016.93 455.224 1017.41 455.854L1018.42 454.445ZM1026.76 447.401H1026.8C1027.91 447.401 1028.5 448.18 1028.43 449.366C1028.36 450.775 1027.28 451.628 1026.13 451.628C1025.21 451.628 1024.43 450.96 1024.46 449.737C1024.54 448.217 1025.72 447.401 1026.76 447.401ZM1020.39 456.522L1020.76 455.446C1022.76 455.298 1025.58 455.039 1027.32 454.557L1027.43 454.705C1026.32 457.263 1023.72 465.419 1022.94 468.496C1022.8 469.127 1022.76 469.572 1023.24 469.572C1024.28 469.572 1026.02 467.792 1026.87 466.012L1027.62 466.828C1025.98 469.831 1023.72 471.425 1021.39 471.425C1019.13 471.425 1019.09 469.72 1019.87 467.236C1020.76 464.418 1022.28 459.895 1023.02 457.152C1023.17 456.633 1023.13 456.484 1022.68 456.484C1022.24 456.484 1021.16 456.484 1020.39 456.522ZM1037.49 454.557H1037.53C1039.05 454.557 1040.27 454.927 1041.2 455.743C1042.57 454.742 1043.53 454.334 1044.5 454.334C1045.31 454.334 1045.9 454.89 1045.9 455.298C1045.9 455.743 1045.13 456.633 1044.64 456.892C1043.83 456.373 1042.75 456.225 1041.83 456.522C1042.23 457.152 1042.49 458.079 1042.49 459.005C1042.49 462.861 1039.71 466.124 1035.38 466.124C1034.3 466.124 1033.11 465.79 1032.41 465.382C1031.63 465.642 1031.15 466.161 1031.15 466.754C1031.15 467.384 1031.71 467.903 1032.82 468.237C1034.15 468.682 1036.15 469.201 1038.01 469.72C1040.23 470.313 1041.86 471.462 1041.86 473.909C1041.86 478.432 1037.04 480.064 1033.11 480.064C1029.78 480.064 1025.4 478.506 1025.4 475.021C1025.4 472.834 1027.44 471.611 1029.52 471.611C1030 471.611 1030.44 471.722 1030.7 471.796L1031 472.538C1029.33 472.538 1028.18 473.427 1028.18 474.873C1028.18 477.098 1030.93 478.766 1034.19 478.766C1037.23 478.766 1038.82 477.32 1038.82 475.578C1038.82 474.428 1038.08 473.576 1036.71 473.131C1035.04 472.612 1033.26 472.018 1031.74 471.574C1030.04 471.055 1028.41 470.165 1028.41 468.163C1028.41 466.643 1029.63 465.345 1031.56 464.789C1030.78 464.085 1030.33 463.047 1030.33 461.749C1030.33 457.967 1033.48 454.557 1037.49 454.557ZM1037.67 455.632H1037.64C1036.82 455.632 1036.04 456.002 1035.41 456.855C1034.3 458.301 1033.56 460.896 1033.56 462.676C1033.56 464.455 1034.49 465.049 1035.38 465.049C1036.23 465.049 1036.9 464.678 1037.49 464.01C1038.64 462.602 1039.45 459.858 1039.45 457.967C1039.45 456.41 1038.75 455.632 1037.67 455.632ZM1061.42 466.05L1062.12 466.828C1060.6 469.905 1058.19 471.462 1055.97 471.462C1053.63 471.462 1053.63 469.46 1054.56 466.902C1055.56 464.233 1056.82 460.785 1057.64 458.486C1058.01 457.448 1057.86 456.447 1056.82 456.447C1053.71 456.447 1050.37 462.008 1049 465.753C1048.48 467.125 1047.89 468.571 1047.18 470.943C1045.89 471.017 1044.59 471.166 1043.59 471.277C1045.29 466.68 1047.37 459.747 1047.85 457.152C1047.96 456.67 1047.89 456.484 1047.52 456.484L1045.25 456.522L1045.66 455.483C1047.66 455.335 1049.89 455.076 1051.85 454.557C1051.33 456.484 1050.7 458.82 1050.11 460.785C1052.15 457.708 1055.01 454.557 1058.64 454.557C1059.49 454.557 1060.12 454.816 1060.53 455.15C1061.57 456.077 1061.2 458.153 1060.71 459.562C1059.75 462.194 1058.38 465.716 1057.56 468.459C1057.34 469.09 1057.45 469.535 1057.82 469.535C1058.82 469.535 1060.46 467.94 1061.42 466.05ZM1071.4 462.787L1072.51 462.602C1072.29 463.491 1072.07 464.863 1072.03 465.901C1072.03 468.978 1074 470.313 1076.81 470.313C1079.45 470.313 1081.48 468.571 1081.48 465.753C1081.48 464.53 1081.04 463.64 1080.19 462.824C1079.22 461.823 1077.33 460.155 1075.96 458.931C1074.44 457.634 1073.55 456.151 1073.55 454.038C1073.55 451.739 1074.55 449.811 1076.22 448.476C1077.44 447.513 1079.08 446.956 1081.11 446.956C1083.45 446.956 1085.19 447.846 1085.97 448.884L1087.19 447.105L1088.01 447.587C1087.05 449.737 1086.08 452.74 1085.56 454.705L1084.6 454.557C1085.49 450.516 1083.89 448.106 1080.97 448.106C1078.26 448.106 1076.92 449.959 1076.92 452.258C1076.92 453.519 1077.41 454.668 1078.59 455.706C1080.45 457.523 1081.89 458.709 1082.89 459.599C1084.3 460.748 1085.16 462.083 1085.16 463.973C1085.16 465.901 1084.49 467.57 1083.3 468.904C1081.56 470.721 1079.19 471.499 1076.37 471.499C1073.81 471.499 1071.22 470.61 1069.36 469.312C1070.03 467.792 1070.92 464.752 1071.4 462.787ZM1086.53 455.409C1088.34 455.298 1091.05 455.001 1092.75 454.445C1092.64 457.374 1093.12 464.196 1093.27 467.421C1094.42 465.197 1095.65 462.75 1097.13 460.118C1098.95 456.855 1100.76 454.445 1103.8 454.371L1103.91 455.298C1102.24 455.743 1100.21 458.264 1098.54 460.896C1096.16 464.641 1093.61 469.275 1091.72 472.871C1088.86 478.136 1087.08 479.878 1084.63 479.878C1082.74 479.878 1081.93 478.581 1081.93 477.394C1081.93 476.134 1082.89 475.392 1083.74 475.392C1084.34 475.392 1084.71 475.763 1084.93 476.282C1085.19 477.098 1085.52 477.505 1086.08 477.505C1087.45 477.505 1088.82 475.8 1090.75 471.87C1090.31 471.462 1090.16 470.647 1090.08 469.683C1089.94 465.493 1089.38 459.228 1089.12 457.3C1088.97 456.484 1088.64 456.373 1086.23 456.447L1086.53 455.409ZM1114.27 454.445L1115.05 454.853C1114.31 456.522 1113.53 458.709 1113.05 460.674L1112.16 460.711C1112.75 457.56 1111.75 455.669 1109.42 455.669C1107.79 455.669 1106.82 456.818 1106.82 458.153C1106.82 459.117 1107.19 459.673 1107.9 460.266C1108.71 460.896 1110.46 462.12 1111.42 462.824C1112.57 463.64 1113.16 464.53 1113.16 466.124C1113.16 467.792 1112.35 469.053 1111.34 469.868C1110.16 470.869 1108.45 471.425 1106.38 471.425C1104.56 471.425 1102.41 470.832 1101 469.905C1101.41 468.904 1102.11 466.717 1102.74 464.492L1103.71 464.381C1103.52 464.937 1103.37 466.05 1103.37 466.791C1103.3 468.867 1104.56 470.276 1107.01 470.276C1108.64 470.276 1110.05 469.423 1110.05 467.792C1110.05 466.902 1109.71 466.383 1108.97 465.79C1108.27 465.197 1106.97 464.196 1105.89 463.38C1104.75 462.565 1103.89 461.489 1103.89 459.784C1103.89 458.153 1104.56 456.855 1105.78 455.817C1106.86 454.927 1108.16 454.557 1109.75 454.557C1111.38 454.557 1112.79 455.224 1113.27 455.854L1114.27 454.445ZM1123.92 465.79L1124.47 467.088C1123.03 469.942 1120.32 471.425 1118.06 471.425C1115.05 471.425 1115.05 469.535 1115.72 467.31C1116.72 463.973 1118.24 459.08 1118.98 456.559L1116.39 456.299L1116.87 455.187H1119.39C1119.95 453.444 1120.39 451.85 1120.73 450.701C1122.1 450.516 1123.69 450.219 1124.66 449.885C1124.36 450.627 1123.51 453.185 1122.84 455.187H1126.84L1126.29 456.299L1122.43 456.559C1121.77 458.635 1119.58 465.901 1118.95 468.496C1118.76 469.312 1118.84 469.831 1119.65 469.831C1121.25 469.831 1123.17 467.607 1123.92 465.79ZM1138.91 465.16L1139.06 467.013C1137.32 469.683 1134.28 471.425 1130.94 471.425C1127.79 471.425 1126.05 469.535 1126.05 466.235C1126.05 462.676 1127.75 458.635 1130.9 456.225C1132.46 455.113 1134.16 454.557 1135.91 454.557C1139.06 454.557 1140.17 456.373 1140.17 458.412C1140.17 460.118 1138.84 461.119 1137.58 461.675C1135.68 462.565 1132.09 463.343 1130.05 463.603C1129.9 464.27 1129.75 465.308 1129.75 466.161C1129.75 468.237 1130.53 469.794 1132.53 469.794C1134.98 469.794 1137.09 468.2 1138.35 465.16H1138.91ZM1135.5 455.669H1135.43C1134.09 455.669 1131.75 457.003 1130.27 462.379C1131.83 462.194 1134.02 461.638 1135.02 461.156C1136.39 460.488 1137.09 459.265 1137.09 457.745C1137.09 456.447 1136.54 455.669 1135.5 455.669ZM1167.75 466.012L1168.49 466.828C1166.97 469.868 1164.53 471.462 1162.26 471.462C1159.85 471.462 1159.97 469.349 1160.89 466.902C1161.93 464.048 1163.15 460.933 1164.04 458.561C1164.45 457.448 1164.27 456.447 1163.27 456.447C1160.34 456.447 1156.78 462.157 1155.37 466.05C1154.89 467.31 1154.29 468.756 1153.63 470.98C1152.29 471.017 1150.88 471.166 1149.96 471.277C1151.33 467.607 1153.51 460.859 1154.14 458.486C1154.4 457.523 1154.4 456.447 1153.33 456.447C1150.99 456.447 1147.4 461.045 1145.58 465.938C1145.02 467.347 1144.47 468.83 1143.8 470.98C1142.54 471.055 1141.17 471.166 1140.2 471.277C1142.1 466.198 1144.02 459.747 1144.54 457.189C1144.65 456.596 1144.51 456.447 1144.02 456.447H1141.87L1142.21 455.446C1143.95 455.261 1146.77 455.001 1148.55 454.557C1148.06 456.225 1147.32 459.154 1146.8 460.785C1148.69 458.004 1151.51 454.557 1155.26 454.557C1157.78 454.557 1157.89 456.707 1157.26 458.783C1157.07 459.45 1156.93 459.932 1156.7 460.637C1158.67 457.782 1161.6 454.557 1165.23 454.557C1166.16 454.557 1166.75 454.853 1167.16 455.261C1168.08 456.262 1167.57 458.301 1167.16 459.45C1166.12 462.305 1164.45 466.606 1163.86 468.459C1163.67 469.053 1163.71 469.535 1164.15 469.535C1165.19 469.535 1166.82 467.903 1167.75 466.012Z" fill="black"/>
<path d="M1091.3 188.594L628.114 161.679C611.627 160.72 599.153 176.363 603.756 192.223L696.841 512.973C701.58 529.303 721.367 535.612 734.684 525.039L1104.78 231.205C1121.98 217.548 1113.22 189.869 1091.3 188.594Z" stroke="#4F4F4F" stroke-width="1.5" stroke-dasharray="4.78 0"/>
<circle cx="1090.62" cy="212.282" r="24.3544" fill="#1C1C1C"/>
<path d="M1102.06 217.566L1090.33 221.451L1079.04 217.566L1102.06 217.566Z" stroke="white" stroke-width="1.19594" stroke-linejoin="round"/>
<path d="M1076.37 210.611L1090.38 222.023L1104.63 210.611C1104.64 210.602 1104.63 210.583 1104.62 210.583L1090.5 210.583L1076.38 210.583C1076.36 210.583 1076.35 210.601 1076.37 210.611Z" stroke="white" stroke-width="1.19594"/>
<path d="M1076.46 202.473L1090.44 221.943L1104.64 202.473C1104.65 202.462 1104.64 202.448 1104.63 202.448L1076.48 202.448C1076.46 202.448 1076.46 202.462 1076.46 202.473Z" stroke="white" stroke-width="1.19594"/>
<path d="M1076.86 222.117L1104.38 222.117" stroke="white" stroke-width="1.19594" stroke-linecap="round"/>
<circle cx="626.282" cy="185.065" r="24.3544" fill="#1C1C1C"/>
<g clip-path="url(#clip0_814_39059)">
<path d="M610.382 178.95L615.132 188.409C615.456 189.053 616.256 189.576 616.916 189.574L626.606 189.553C627.268 189.551 627.541 189.027 627.217 188.382L622.466 178.924C622.142 178.278 621.343 177.757 620.682 177.758L610.992 177.779C610.977 177.779 610.962 177.78 610.947 177.78C610.319 177.804 610.065 178.319 610.382 178.95Z" fill="white"/>
<path d="M628.788 189.972L631.664 195.582C631.86 195.965 632.339 196.272 632.733 196.268L638.506 196.204C638.901 196.2 639.06 195.886 638.864 195.503L635.988 189.893C635.792 189.51 635.313 189.203 634.92 189.207L629.146 189.271C629.139 189.271 629.133 189.271 629.126 189.271C628.747 189.286 628.595 189.595 628.788 189.972Z" fill="white"/>
<path d="M628.822 168.667L623.049 176.412C622.654 176.942 622.602 177.89 622.931 178.533L627.758 187.949C628.087 188.591 628.674 188.683 629.068 188.156L634.841 180.409C635.235 179.881 635.288 178.931 634.958 178.288L630.132 168.873C629.941 168.501 629.664 168.314 629.388 168.324C629.188 168.332 628.988 168.445 628.822 168.667Z" fill="white"/>
<path d="M627.47 190.065L624.029 194.68C623.794 194.995 623.763 195.561 623.959 195.943L626.835 201.553C627.032 201.936 627.381 201.991 627.616 201.676L631.056 197.062C631.29 196.746 631.322 196.18 631.126 195.798L628.25 190.187C628.137 189.966 627.971 189.854 627.807 189.86C627.688 189.864 627.568 189.931 627.47 190.065Z" fill="white"/>
</g>
<circle cx="719.656" cy="506.807" r="24.3544" fill="#1C1C1C"/>
<path d="M731.099 514.137L719.367 518.021L708.079 514.137L731.099 514.137Z" stroke="white" stroke-width="1.19594" stroke-linejoin="round"/>
<path d="M705.403 507.181L719.421 518.594L733.667 507.181C733.678 507.172 733.672 507.153 733.657 507.153L719.535 507.153L705.413 507.153C705.399 507.153 705.392 507.172 705.403 507.181Z" stroke="white" stroke-width="1.19594"/>
<path d="M705.501 499.043L719.478 518.514L733.683 499.043C733.69 499.033 733.683 499.018 733.67 499.018L705.514 499.018C705.501 499.018 705.494 499.033 705.501 499.043Z" stroke="white" stroke-width="1.19594"/>
<path d="M705.897 518.687L733.417 518.688" stroke="white" stroke-width="1.19594" stroke-linecap="round"/>
<defs>
<clipPath id="clip0_814_39059">
<rect width="28.7025" height="33.4863" fill="white" transform="translate(610.245 168.322)"/>
</clipPath>
</defs>
</svg>
