<svg width="1740" height="396" viewBox="0 0 1740 396" fill="none" xmlns="http://www.w3.org/2000/svg">
<path d="M1585.48 127.975L1589.72 120.633H1581.24L1585.48 127.975ZM696.035 127.975H696.769V125.863H696.035H695.301V127.975H696.035ZM696.035 121.637H696.769V117.412H696.035H695.301V121.637H696.035ZM696.035 113.186H696.769V108.961H696.035H695.301V113.186H696.035ZM696.035 104.736H696.769V100.51H696.035H695.301V104.736H696.035ZM696.035 96.2848H696.769V92.0594H696.035H695.301V96.2848H696.035ZM696.035 87.834H696.769V85.7213H696.035H695.301V87.834H696.035ZM696.035 85.7213H696.769C696.769 84.9731 696.818 84.2366 696.912 83.5147L696.184 83.4197L695.456 83.3248C695.354 84.1094 695.301 84.9094 695.301 85.7213H696.035ZM697.372 78.9759L698.051 79.2572C698.62 77.8847 699.365 76.6032 700.258 75.4409L699.676 74.9935L699.094 74.5461C698.123 75.809 697.313 77.202 696.694 78.6947L697.372 78.9759ZM702.929 71.7403L703.376 72.3224C704.539 71.4293 705.82 70.6841 707.193 70.115L706.911 69.4368L706.63 68.7585C705.138 69.3775 703.745 70.1876 702.482 71.1581L702.929 71.7403ZM711.355 68.2486L711.45 68.9766C712.172 68.8825 712.909 68.8338 713.657 68.8338V68.0996V67.3654C712.845 67.3654 712.045 67.4181 711.26 67.5205L711.355 68.2486ZM713.657 68.0996V68.8338H715.858V68.0996V67.3654H713.657V68.0996ZM720.261 68.0996V68.8338H724.665V68.0996V67.3654H720.261V68.0996ZM729.068 68.0996V68.8338H733.471V68.0996V67.3654H729.068V68.0996ZM737.874 68.0996V68.8338H742.277V68.0996V67.3654H737.874V68.0996ZM746.68 68.0996V68.8338H751.083V68.0996V67.3654H746.68V68.0996ZM755.486 68.0996V68.8338H759.889V68.0996V67.3654H755.486V68.0996ZM764.292 68.0996V68.8338H768.695V68.0996V67.3654H764.292V68.0996ZM773.098 68.0996V68.8338H777.502V68.0996V67.3654H773.098V68.0996ZM781.905 68.0996V68.8338H786.308V68.0996V67.3654H781.905V68.0996ZM790.711 68.0996V68.8338H795.114V68.0996V67.3654H790.711V68.0996ZM799.517 68.0996V68.8338H803.92V68.0996V67.3654H799.517V68.0996ZM808.323 68.0996V68.8338H812.726V68.0996V67.3654H808.323V68.0996ZM817.129 68.0996V68.8338H821.532V68.0996V67.3654H817.129V68.0996ZM825.935 68.0996V68.8338H830.339V68.0996V67.3654H825.935V68.0996ZM834.742 68.0996V68.8338H839.145V68.0996V67.3654H834.742V68.0996ZM843.548 68.0996V68.8338H847.951V68.0996V67.3654H843.548V68.0996ZM852.354 68.0996V68.8338H856.757V68.0996V67.3654H852.354V68.0996ZM861.16 68.0996V68.8338H865.563V68.0996V67.3654H861.16V68.0996ZM869.966 68.0996V68.8338H874.369V68.0996V67.3654H869.966V68.0996ZM878.772 68.0996V68.8338H883.175V68.0996V67.3654H878.772V68.0996ZM887.579 68.0996V68.8338H891.982V68.0996V67.3654H887.579V68.0996ZM896.385 68.0996V68.8338H900.788V68.0996V67.3654H896.385V68.0996ZM905.191 68.0996V68.8338H909.594V68.0996V67.3654H905.191V68.0996ZM913.997 68.0996V68.8338H918.4V68.0996V67.3654H913.997V68.0996ZM922.803 68.0996V68.8338H927.206V68.0996V67.3654H922.803V68.0996ZM931.609 68.0996V68.8338H936.012V68.0996V67.3654H931.609V68.0996ZM940.415 68.0996V68.8338H944.819V68.0996V67.3654H940.415V68.0996ZM949.222 68.0996V68.8338H953.625V68.0996V67.3654H949.222V68.0996ZM958.028 68.0996V68.8338H962.431V68.0996V67.3654H958.028V68.0996ZM966.834 68.0996V68.8338H971.237V68.0996V67.3654H966.834V68.0996ZM975.64 68.0996V68.8338H980.043V68.0996V67.3654H975.64V68.0996ZM984.446 68.0996V68.8338H988.849V68.0996V67.3654H984.446V68.0996ZM993.252 68.0996V68.8338H997.655V68.0996V67.3654H993.252V68.0996ZM1002.06 68.0996V68.8338H1006.46V68.0996V67.3654H1002.06V68.0996ZM1010.86 68.0996V68.8338H1015.27V68.0996V67.3654H1010.86V68.0996ZM1019.67 68.0996V68.8338H1024.07V68.0996V67.3654H1019.67V68.0996ZM1028.48 68.0996V68.8338H1032.88V68.0996V67.3654H1028.48V68.0996ZM1037.28 68.0996V68.8338H1041.69V68.0996V67.3654H1037.28V68.0996ZM1046.09 68.0996V68.8338H1050.49V68.0996V67.3654H1046.09V68.0996ZM1054.9 68.0996V68.8338H1059.3V68.0996V67.3654H1054.9V68.0996ZM1063.7 68.0996V68.8338H1068.1V68.0996V67.3654H1063.7V68.0996ZM1072.51 68.0996V68.8338H1076.91V68.0996V67.3654H1072.51V68.0996ZM1081.31 68.0996V68.8338H1085.72V68.0996V67.3654H1081.31V68.0996ZM1090.12 68.0996V68.8338H1094.52V68.0996V67.3654H1090.12V68.0996ZM1098.93 68.0996V68.8338H1103.33V68.0996V67.3654H1098.93V68.0996ZM1107.73 68.0996V68.8338H1112.14V68.0996V67.3654H1107.73V68.0996ZM1116.54 68.0996V68.8338H1120.94V68.0996V67.3654H1116.54V68.0996ZM1125.34 68.0996V68.8338H1129.75V68.0996V67.3654H1125.34V68.0996ZM1134.15 68.0996V68.8338H1138.55V68.0996V67.3654H1134.15V68.0996ZM1142.96 68.0996V68.8338H1147.36V68.0996V67.3654H1142.96V68.0996ZM1151.76 68.0996V68.8338H1156.17V68.0996V67.3654H1151.76V68.0996ZM1160.57 68.0996V68.8338H1164.97V68.0996V67.3654H1160.57V68.0996ZM1169.38 68.0996V68.8338H1173.78V68.0996V67.3654H1169.38V68.0996ZM1178.18 68.0996V68.8338H1182.58V68.0996V67.3654H1178.18V68.0996ZM1186.99 68.0996V68.8338H1191.39V68.0996V67.3654H1186.99V68.0996ZM1195.79 68.0996V68.8338H1200.2V68.0996V67.3654H1195.79V68.0996ZM1204.6 68.0996V68.8338H1209V68.0996V67.3654H1204.6V68.0996ZM1213.41 68.0996V68.8338H1217.81V68.0996V67.3654H1213.41V68.0996ZM1222.21 68.0996V68.8338H1226.62V68.0996V67.3654H1222.21V68.0996ZM1231.02 68.0996V68.8338H1235.42V68.0996V67.3654H1231.02V68.0996ZM1239.82 68.0996V68.8338H1244.23V68.0996V67.3654H1239.82V68.0996ZM1248.63 68.0996V68.8338H1253.03V68.0996V67.3654H1248.63V68.0996ZM1257.44 68.0996V68.8338H1261.84V68.0996V67.3654H1257.44V68.0996ZM1266.24 68.0996V68.8338H1270.65V68.0996V67.3654H1266.24V68.0996ZM1275.05 68.0996V68.8338H1279.45V68.0996V67.3654H1275.05V68.0996ZM1283.86 68.0996V68.8338H1288.26V68.0996V67.3654H1283.86V68.0996ZM1292.66 68.0996V68.8338H1297.06V68.0996V67.3654H1292.66V68.0996ZM1301.47 68.0996V68.8338H1305.87V68.0996V67.3654H1301.47V68.0996ZM1310.27 68.0996V68.8338H1314.68V68.0996V67.3654H1310.27V68.0996ZM1319.08 68.0996V68.8338H1323.48V68.0996V67.3654H1319.08V68.0996ZM1327.89 68.0996V68.8338H1332.29V68.0996V67.3654H1327.89V68.0996ZM1336.69 68.0996V68.8338H1341.1V68.0996V67.3654H1336.69V68.0996ZM1345.5 68.0996V68.8338H1349.9V68.0996V67.3654H1345.5V68.0996ZM1354.3 68.0996V68.8338H1358.71V68.0996V67.3654H1354.3V68.0996ZM1363.11 68.0996V68.8338H1367.51V68.0996V67.3654H1363.11V68.0996ZM1371.92 68.0996V68.8338H1376.32V68.0996V67.3654H1371.92V68.0996ZM1380.72 68.0996V68.8338H1385.13V68.0996V67.3654H1380.72V68.0996ZM1389.53 68.0996V68.8338H1393.93V68.0996V67.3654H1389.53V68.0996ZM1398.34 68.0996V68.8338H1402.74V68.0996V67.3654H1398.34V68.0996ZM1407.14 68.0996V68.8338H1411.54V68.0996V67.3654H1407.14V68.0996ZM1415.95 68.0996V68.8338H1420.35V68.0996V67.3654H1415.95V68.0996ZM1424.75 68.0996V68.8338H1429.16V68.0996V67.3654H1424.75V68.0996ZM1433.56 68.0996V68.8338H1437.96V68.0996V67.3654H1433.56V68.0996ZM1442.37 68.0996V68.8338H1446.77V68.0996V67.3654H1442.37V68.0996ZM1451.17 68.0996V68.8338H1455.58V68.0996V67.3654H1451.17V68.0996ZM1459.98 68.0996V68.8338H1464.38V68.0996V67.3654H1459.98V68.0996ZM1468.78 68.0996V68.8338H1473.19V68.0996V67.3654H1468.78V68.0996ZM1477.59 68.0996V68.8338H1481.99V68.0996V67.3654H1477.59V68.0996ZM1486.4 68.0996V68.8338H1490.8V68.0996V67.3654H1486.4V68.0996ZM1495.2 68.0996V68.8338H1499.61V68.0996V67.3654H1495.2V68.0996ZM1504.01 68.0996V68.8338H1508.41V68.0996V67.3654H1504.01V68.0996ZM1512.82 68.0996V68.8338H1517.22V68.0996V67.3654H1512.82V68.0996ZM1521.62 68.0996V68.8338H1526.02V68.0996V67.3654H1521.62V68.0996ZM1530.43 68.0996V68.8338H1534.83V68.0996V67.3654H1530.43V68.0996ZM1539.23 68.0996V68.8338H1543.64V68.0996V67.3654H1539.23V68.0996ZM1548.04 68.0996V68.8338H1552.44V68.0996V67.3654H1548.04V68.0996ZM1556.85 68.0996V68.8338H1561.25V68.0996V67.3654H1556.85V68.0996ZM1565.65 68.0996V68.8338H1567.85V68.0996V67.3654H1565.65V68.0996ZM1567.85 68.0996V68.8338C1568.6 68.8338 1569.34 68.8825 1570.06 68.9766L1570.16 68.2486L1570.25 67.5205C1569.47 67.4181 1568.67 67.3654 1567.85 67.3654V68.0996ZM1574.6 69.4368L1574.32 70.115C1575.69 70.6841 1576.97 71.4293 1578.14 72.3225L1578.58 71.7403L1579.03 71.1581C1577.77 70.1876 1576.37 69.3775 1574.88 68.7585L1574.6 69.4368ZM1581.84 74.9935L1581.25 75.4409C1582.15 76.6032 1582.89 77.8847 1583.46 79.2572L1584.14 78.9759L1584.82 78.6947C1584.2 77.202 1583.39 75.809 1582.42 74.5461L1581.84 74.9935ZM1585.33 83.4197L1584.6 83.5147C1584.69 84.2366 1584.74 84.9731 1584.74 85.7213H1585.48H1586.21C1586.21 84.9094 1586.16 84.1094 1586.06 83.3248L1585.33 83.4197ZM1585.48 85.7213H1584.74V87.834H1585.48H1586.21V85.7213H1585.48ZM1585.48 92.0594H1584.74V96.2848H1585.48H1586.21V92.0594H1585.48ZM1585.48 100.51H1584.74V104.736H1585.48H1586.21V100.51H1585.48ZM1585.48 108.961H1584.74V113.186H1585.48H1586.21V108.961H1585.48ZM1585.48 117.412H1584.74V121.637H1585.48H1586.21V117.412H1585.48Z" fill="#989898"/>
<path d="M696.036 267.798L691.797 275.14L700.275 275.14L696.036 267.798ZM1585.47 267.798L1584.74 267.798L1584.74 269.911L1585.47 269.911L1586.21 269.911L1586.21 267.798L1585.47 267.798ZM1585.47 274.136L1584.74 274.136L1584.74 278.362L1585.47 278.362L1586.21 278.362L1586.21 274.136L1585.47 274.136ZM1585.47 282.587L1584.74 282.587L1584.74 286.812L1585.47 286.812L1586.21 286.812L1586.21 282.587L1585.47 282.587ZM1585.47 291.038L1584.74 291.038L1584.74 295.263L1585.47 295.263L1586.21 295.263L1586.21 291.038L1585.47 291.038ZM1585.47 299.489L1584.74 299.489L1584.74 303.714L1585.47 303.714L1586.21 303.714L1586.21 299.489L1585.47 299.489ZM1585.47 307.939L1584.74 307.939L1584.74 310.052L1585.47 310.052L1586.21 310.052L1586.21 307.939L1585.47 307.939ZM1585.47 310.052L1584.74 310.052C1584.74 310.8 1584.69 311.537 1584.6 312.259L1585.32 312.354L1586.05 312.449C1586.16 311.664 1586.21 310.864 1586.21 310.052L1585.47 310.052ZM1584.14 316.798L1583.46 316.516C1582.89 317.889 1582.14 319.17 1581.25 320.333L1581.83 320.78L1582.42 321.227C1583.39 319.964 1584.2 318.571 1584.81 317.079L1584.14 316.798ZM1578.58 324.033L1578.13 323.451C1576.97 324.344 1575.69 325.089 1574.32 325.658L1574.6 326.337L1574.88 327.015C1576.37 326.396 1577.76 325.586 1579.03 324.615L1578.58 324.033ZM1570.15 327.525L1570.06 326.797C1569.34 326.891 1568.6 326.94 1567.85 326.94L1567.85 327.674L1567.85 328.408C1568.66 328.408 1569.46 328.355 1570.25 328.253L1570.15 327.525ZM1567.85 327.674L1567.85 326.94L1565.65 326.94L1565.65 327.674L1565.65 328.408L1567.85 328.408L1567.85 327.674ZM1561.25 327.674L1561.25 326.94L1556.84 326.94L1556.84 327.674L1556.84 328.408L1561.25 328.408L1561.25 327.674ZM1552.44 327.674L1552.44 326.94L1548.04 326.94L1548.04 327.674L1548.04 328.408L1552.44 328.408L1552.44 327.674ZM1543.64 327.674L1543.64 326.94L1539.23 326.94L1539.23 327.674L1539.23 328.408L1543.64 328.408L1543.64 327.674ZM1534.83 327.674L1534.83 326.94L1530.43 326.94L1530.43 327.674L1530.43 328.408L1534.83 328.408L1534.83 327.674ZM1526.02 327.674L1526.02 326.94L1521.62 326.94L1521.62 327.674L1521.62 328.408L1526.02 328.408L1526.02 327.674ZM1517.22 327.674L1517.22 326.94L1512.81 326.94L1512.81 327.674L1512.81 328.408L1517.22 328.408L1517.22 327.674ZM1508.41 327.674L1508.41 326.94L1504.01 326.94L1504.01 327.674L1504.01 328.408L1508.41 328.408L1508.41 327.674ZM1499.6 327.674L1499.6 326.94L1495.2 326.94L1495.2 327.674L1495.2 328.408L1499.6 328.408L1499.6 327.674ZM1490.8 327.674L1490.8 326.94L1486.4 326.94L1486.4 327.674L1486.4 328.408L1490.8 328.408L1490.8 327.674ZM1481.99 327.674L1481.99 326.94L1477.59 326.94L1477.59 327.674L1477.59 328.408L1481.99 328.408L1481.99 327.674ZM1473.19 327.674L1473.19 326.94L1468.78 326.94L1468.78 327.674L1468.78 328.408L1473.19 328.408L1473.19 327.674ZM1464.38 327.674L1464.38 326.94L1459.98 326.94L1459.98 327.674L1459.98 328.408L1464.38 328.408L1464.38 327.674ZM1455.57 327.674L1455.57 326.94L1451.17 326.94L1451.17 327.674L1451.17 328.408L1455.57 328.408L1455.57 327.674ZM1446.77 327.674L1446.77 326.94L1442.36 326.94L1442.36 327.674L1442.36 328.408L1446.77 328.408L1446.77 327.674ZM1437.96 327.674L1437.96 326.94L1433.56 326.94L1433.56 327.674L1433.56 328.408L1437.96 328.408L1437.96 327.674ZM1429.16 327.674L1429.16 326.94L1424.75 326.94L1424.75 327.674L1424.75 328.408L1429.16 328.408L1429.16 327.674ZM1420.35 327.674L1420.35 326.94L1415.95 326.94L1415.95 327.674L1415.95 328.408L1420.35 328.408L1420.35 327.674ZM1411.54 327.674L1411.54 326.94L1407.14 326.94L1407.14 327.674L1407.14 328.408L1411.54 328.408L1411.54 327.674ZM1402.74 327.674L1402.74 326.94L1398.33 326.94L1398.33 327.674L1398.33 328.408L1402.74 328.408L1402.74 327.674ZM1393.93 327.674L1393.93 326.94L1389.53 326.94L1389.53 327.674L1389.53 328.408L1393.93 328.408L1393.93 327.674ZM1385.12 327.674L1385.12 326.94L1380.72 326.94L1380.72 327.674L1380.72 328.408L1385.12 328.408L1385.12 327.674ZM1376.32 327.674L1376.32 326.94L1371.92 326.94L1371.92 327.674L1371.92 328.408L1376.32 328.408L1376.32 327.674ZM1367.51 327.674L1367.51 326.94L1363.11 326.94L1363.11 327.674L1363.11 328.408L1367.51 328.408L1367.51 327.674ZM1358.71 327.674L1358.71 326.94L1354.3 326.94L1354.3 327.674L1354.3 328.408L1358.71 328.408L1358.71 327.674ZM1349.9 327.674L1349.9 326.94L1345.5 326.94L1345.5 327.674L1345.5 328.408L1349.9 328.408L1349.9 327.674ZM1341.09 327.674L1341.09 326.94L1336.69 326.94L1336.69 327.674L1336.69 328.408L1341.09 328.408L1341.09 327.674ZM1332.29 327.674L1332.29 326.94L1327.89 326.94L1327.89 327.674L1327.89 328.408L1332.29 328.408L1332.29 327.674ZM1323.48 327.674L1323.48 326.94L1319.08 326.94L1319.08 327.674L1319.08 328.408L1323.48 328.408L1323.48 327.674ZM1314.68 327.674L1314.68 326.94L1310.27 326.94L1310.27 327.674L1310.27 328.408L1314.68 328.408L1314.68 327.674ZM1305.87 327.674L1305.87 326.94L1301.47 326.94L1301.47 327.674L1301.47 328.408L1305.87 328.408L1305.87 327.674ZM1297.06 327.674L1297.06 326.94L1292.66 326.94L1292.66 327.674L1292.66 328.408L1297.06 328.408L1297.06 327.674ZM1288.26 327.674L1288.26 326.94L1283.85 326.94L1283.85 327.674L1283.85 328.408L1288.26 328.408L1288.26 327.674ZM1279.45 327.674L1279.45 326.94L1275.05 326.94L1275.05 327.674L1275.05 328.408L1279.45 328.408L1279.45 327.674ZM1270.65 327.674L1270.65 326.94L1266.24 326.94L1266.24 327.674L1266.24 328.408L1270.65 328.408L1270.65 327.674ZM1261.84 327.674L1261.84 326.94L1257.44 326.94L1257.44 327.674L1257.44 328.408L1261.84 328.408L1261.84 327.674ZM1253.03 327.674L1253.03 326.94L1248.63 326.94L1248.63 327.674L1248.63 328.408L1253.03 328.408L1253.03 327.674ZM1244.23 327.674L1244.23 326.94L1239.82 326.94L1239.82 327.674L1239.82 328.408L1244.23 328.408L1244.23 327.674ZM1235.42 327.674L1235.42 326.94L1231.02 326.94L1231.02 327.674L1231.02 328.408L1235.42 328.408L1235.42 327.674ZM1226.61 327.674L1226.61 326.94L1222.21 326.94L1222.21 327.674L1222.21 328.408L1226.61 328.408L1226.61 327.674ZM1217.81 327.674L1217.81 326.94L1213.41 326.94L1213.41 327.674L1213.41 328.408L1217.81 328.408L1217.81 327.674ZM1209 327.674L1209 326.94L1204.6 326.94L1204.6 327.674L1204.6 328.408L1209 328.408L1209 327.674ZM1200.2 327.674L1200.2 326.94L1195.79 326.94L1195.79 327.674L1195.79 328.408L1200.2 328.408L1200.2 327.674ZM1191.39 327.674L1191.39 326.94L1186.99 326.94L1186.99 327.674L1186.99 328.408L1191.39 328.408L1191.39 327.674ZM1182.58 327.674L1182.58 326.94L1178.18 326.94L1178.18 327.674L1178.18 328.408L1182.58 328.408L1182.58 327.674ZM1173.78 327.674L1173.78 326.94L1169.37 326.94L1169.37 327.674L1169.37 328.408L1173.78 328.408L1173.78 327.674ZM1164.97 327.674L1164.97 326.94L1160.57 326.94L1160.57 327.674L1160.57 328.408L1164.97 328.408L1164.97 327.674ZM1156.17 327.674L1156.17 326.94L1151.76 326.94L1151.76 327.674L1151.76 328.408L1156.17 328.408L1156.17 327.674ZM1147.36 327.674L1147.36 326.94L1142.96 326.94L1142.96 327.674L1142.96 328.408L1147.36 328.408L1147.36 327.674ZM1138.55 327.674L1138.55 326.94L1134.15 326.94L1134.15 327.674L1134.15 328.408L1138.55 328.408L1138.55 327.674ZM1129.75 327.674L1129.75 326.94L1125.34 326.94L1125.34 327.674L1125.34 328.408L1129.75 328.408L1129.75 327.674ZM1120.94 327.674L1120.94 326.94L1116.54 326.94L1116.54 327.674L1116.54 328.408L1120.94 328.408L1120.94 327.674ZM1112.13 327.674L1112.13 326.94L1107.73 326.94L1107.73 327.674L1107.73 328.408L1112.13 328.408L1112.13 327.674ZM1103.33 327.674L1103.33 326.94L1098.93 326.94L1098.93 327.674L1098.93 328.408L1103.33 328.408L1103.33 327.674ZM1094.52 327.674L1094.52 326.94L1090.12 326.94L1090.12 327.674L1090.12 328.408L1094.52 328.408L1094.52 327.674ZM1085.72 327.674L1085.72 326.94L1081.31 326.94L1081.31 327.674L1081.31 328.408L1085.72 328.408L1085.72 327.674ZM1076.91 327.674L1076.91 326.94L1072.51 326.94L1072.51 327.674L1072.51 328.408L1076.91 328.408L1076.91 327.674ZM1068.1 327.674L1068.1 326.94L1063.7 326.94L1063.7 327.674L1063.7 328.408L1068.1 328.408L1068.1 327.674ZM1059.3 327.674L1059.3 326.94L1054.89 326.94L1054.89 327.674L1054.89 328.408L1059.3 328.408L1059.3 327.674ZM1050.49 327.674L1050.49 326.94L1046.09 326.94L1046.09 327.674L1046.09 328.408L1050.49 328.408L1050.49 327.674ZM1041.69 327.674L1041.69 326.94L1037.28 326.94L1037.28 327.674L1037.28 328.408L1041.69 328.408L1041.69 327.674ZM1032.88 327.674L1032.88 326.94L1028.48 326.94L1028.48 327.674L1028.48 328.408L1032.88 328.408L1032.88 327.674ZM1024.07 327.674L1024.07 326.94L1019.67 326.94L1019.67 327.674L1019.67 328.408L1024.07 328.408L1024.07 327.674ZM1015.27 327.674L1015.27 326.94L1010.86 326.94L1010.86 327.674L1010.86 328.408L1015.27 328.408L1015.27 327.674ZM1006.46 327.674L1006.46 326.94L1002.06 326.94L1002.06 327.674L1002.06 328.408L1006.46 328.408L1006.46 327.674ZM997.654 327.674L997.654 326.94L993.251 326.94L993.251 327.674L993.251 328.408L997.654 328.408L997.654 327.674ZM988.848 327.674L988.848 326.94L984.445 326.94L984.445 327.674L984.445 328.408L988.848 328.408L988.848 327.674ZM980.042 327.674L980.042 326.94L975.639 326.94L975.639 327.674L975.639 328.408L980.042 328.408L980.042 327.674ZM971.236 327.674L971.236 326.94L966.833 326.94L966.833 327.674L966.833 328.408L971.236 328.408L971.236 327.674ZM962.43 327.674L962.43 326.94L958.027 326.94L958.027 327.674L958.027 328.408L962.43 328.408L962.43 327.674ZM953.624 327.674L953.624 326.94L949.221 326.94L949.221 327.674L949.221 328.408L953.624 328.408L953.624 327.674ZM944.818 327.674L944.818 326.94L940.414 326.94L940.414 327.674L940.414 328.408L944.818 328.408L944.818 327.674ZM936.011 327.674L936.011 326.94L931.608 326.94L931.608 327.674L931.608 328.408L936.011 328.408L936.011 327.674ZM927.205 327.674L927.205 326.94L922.802 326.94L922.802 327.674L922.802 328.408L927.205 328.408L927.205 327.674ZM918.399 327.674L918.399 326.94L913.996 326.94L913.996 327.674L913.996 328.408L918.399 328.408L918.399 327.674ZM909.593 327.674L909.593 326.94L905.19 326.94L905.19 327.674L905.19 328.408L909.593 328.408L909.593 327.674ZM900.787 327.674L900.787 326.94L896.384 326.94L896.384 327.674L896.384 328.408L900.787 328.408L900.787 327.674ZM891.981 327.674L891.981 326.94L887.578 326.94L887.578 327.674L887.578 328.408L891.981 328.408L891.981 327.674ZM883.174 327.674L883.174 326.94L878.771 326.94L878.771 327.674L878.771 328.408L883.174 328.408L883.174 327.674ZM874.368 327.674L874.368 326.94L869.965 326.94L869.965 327.674L869.965 328.408L874.368 328.408L874.368 327.674ZM865.562 327.674L865.562 326.94L861.159 326.94L861.159 327.674L861.159 328.408L865.562 328.408L865.562 327.674ZM856.756 327.674L856.756 326.94L852.353 326.94L852.353 327.674L852.353 328.408L856.756 328.408L856.756 327.674ZM847.95 327.674L847.95 326.94L843.547 326.94L843.547 327.674L843.547 328.408L847.95 328.408L847.95 327.674ZM839.144 327.674L839.144 326.94L834.741 326.94L834.741 327.674L834.741 328.408L839.144 328.408L839.144 327.674ZM830.338 327.674L830.338 326.94L825.934 326.94L825.934 327.674L825.934 328.408L830.338 328.408L830.338 327.674ZM821.531 327.674L821.531 326.94L817.128 326.94L817.128 327.674L817.128 328.408L821.531 328.408L821.531 327.674ZM812.725 327.674L812.725 326.94L808.322 326.94L808.322 327.674L808.322 328.408L812.725 328.408L812.725 327.674ZM803.919 327.674L803.919 326.94L799.516 326.94L799.516 327.674L799.516 328.408L803.919 328.408L803.919 327.674ZM795.113 327.674L795.113 326.94L790.71 326.94L790.71 327.674L790.71 328.408L795.113 328.408L795.113 327.674ZM786.307 327.674L786.307 326.94L781.904 326.94L781.904 327.674L781.904 328.408L786.307 328.408L786.307 327.674ZM777.501 327.674L777.501 326.94L773.098 326.94L773.098 327.674L773.098 328.408L777.501 328.408L777.501 327.674ZM768.694 327.674L768.694 326.94L764.291 326.94L764.291 327.674L764.291 328.408L768.694 328.408L768.694 327.674ZM759.888 327.674L759.888 326.94L755.485 326.94L755.485 327.674L755.485 328.408L759.888 328.408L759.888 327.674ZM751.082 327.674L751.082 326.94L746.679 326.94L746.679 327.674L746.679 328.408L751.082 328.408L751.082 327.674ZM742.276 327.674L742.276 326.94L737.873 326.94L737.873 327.674L737.873 328.408L742.276 328.408L742.276 327.674ZM733.47 327.674L733.47 326.94L729.067 326.94L729.067 327.674L729.067 328.408L733.47 328.408L733.47 327.674ZM724.664 327.674L724.664 326.94L720.261 326.94L720.261 327.674L720.261 328.408L724.664 328.408L724.664 327.674ZM715.858 327.674L715.858 326.94L713.658 326.94L713.658 327.674L713.658 328.408L715.858 328.408L715.858 327.674ZM713.658 327.674L713.658 326.94C712.909 326.94 712.173 326.891 711.451 326.797L711.356 327.525L711.261 328.253C712.046 328.355 712.846 328.408 713.658 328.408L713.658 327.674ZM706.912 326.337L707.194 325.658C705.821 325.089 704.54 324.344 703.377 323.451L702.93 324.033L702.482 324.615C703.745 325.586 705.138 326.396 706.631 327.015L706.912 326.337ZM699.677 320.78L700.259 320.333C699.366 319.17 698.62 317.889 698.051 316.516L697.373 316.797L696.695 317.079C697.314 318.571 698.124 319.964 699.094 321.227L699.677 320.78ZM696.185 312.354L696.913 312.259C696.819 311.537 696.77 310.8 696.77 310.052L696.036 310.052L695.302 310.052C695.302 310.864 695.354 311.664 695.457 312.449L696.185 312.354ZM696.036 310.052L696.77 310.052L696.77 307.939L696.036 307.939L695.302 307.939L695.302 310.052L696.036 310.052ZM696.036 303.714L696.77 303.714L696.77 299.489L696.036 299.489L695.302 299.489L695.302 303.714L696.036 303.714ZM696.036 295.263L696.77 295.263L696.77 291.038L696.036 291.038L695.302 291.038L695.302 295.263L696.036 295.263ZM696.036 286.812L696.77 286.812L696.77 282.587L696.036 282.587L695.302 282.587L695.302 286.812L696.036 286.812ZM696.036 278.362L696.77 278.362L696.77 274.136L696.036 274.136L695.302 274.136L695.302 278.362L696.036 278.362Z" fill="#989898"/>
<path d="M433.994 197.887L415.638 187.289V208.485L433.994 197.887ZM368.339 197.887V199.722H417.473V197.887V196.051H368.339V197.887Z" fill="#1C1C1C"/>
<path d="M1008.9 197.887L990.548 187.289V208.485L1008.9 197.887ZM943.249 197.887V199.722H992.383V197.887V196.051H943.249V197.887Z" fill="#1C1C1C"/>
<path d="M1513.22 197.887L1494.87 187.289V208.485L1513.22 197.887ZM1447.57 197.887V199.722H1496.7V197.887V196.051H1447.57V197.887Z" fill="#1C1C1C"/>
<rect x="1524.57" y="167.098" width="106.243" height="61.6759" rx="17.6217" fill="#1C1C1C"/>
<path d="M1575.05 215.843L1569.67 211.579C1567.24 212.936 1564.34 213.662 1561.09 213.662C1550.62 213.662 1544.13 205.957 1544.13 195.587C1544.13 185.217 1550.62 177.512 1561.09 177.512C1571.56 177.512 1578.05 185.217 1578.05 195.587C1578.05 201.257 1576.11 206.103 1572.67 209.35L1577.27 213.032L1575.05 215.843ZM1561.09 209.834C1563.03 209.834 1564.77 209.495 1566.27 208.865L1562.78 206.054L1565.01 203.244L1569.42 206.781C1572.14 204.213 1573.59 200.239 1573.59 195.587C1573.59 187.446 1569.23 181.291 1561.09 181.291C1552.95 181.291 1548.59 187.446 1548.59 195.587C1548.59 203.728 1552.95 209.834 1561.09 209.834ZM1581.48 212.936L1594.22 178.287H1599.12L1611.91 212.936H1607.16L1603.48 202.371H1589.67L1585.94 212.936H1581.48ZM1595.05 187.203L1590.93 198.834H1602.27L1598.29 187.203C1597.61 185.265 1596.74 182.309 1596.74 182.309H1596.65C1596.65 182.309 1595.72 185.217 1595.05 187.203Z" fill="white"/>
<rect x="445.339" y="167" width="497.91" height="61.7734" rx="17.6217" fill="#1C1C1C"/>
<path d="M466.208 216.279V181.631H478.807C489.226 181.631 494.169 188.706 494.169 199.076C494.169 209.446 488.887 216.279 478.468 216.279H466.208ZM470.569 212.451H478.323C486.464 212.451 489.711 207.217 489.711 199.076C489.711 190.935 486.803 185.41 478.662 185.41H470.569V212.451ZM501.273 216.279V181.631H525.745V185.459H505.634V196.411H523.903V200.094H505.634V212.257H526.326V216.279H501.273ZM545.483 216.958C535.742 216.958 531.09 211.53 530.703 204.552H534.967C535.549 210.416 539.135 213.469 545.677 213.469C550.474 213.469 553.915 211.288 553.915 206.975C553.915 202.226 549.747 201.111 543.544 199.755C537.438 198.398 532.205 196.653 532.205 190.111C532.205 184.393 536.954 180.952 543.981 180.952C552.655 180.952 556.241 185.362 557.113 191.759H552.994C552.364 186.816 549.166 184.344 544.077 184.344C539.377 184.344 536.275 186.331 536.275 189.917C536.275 193.842 540.152 195.006 545.337 196.023C552.073 197.38 558.228 199.028 558.228 206.83C558.228 213.323 552.946 216.958 545.483 216.958ZM565.253 216.279V181.631H569.615V216.279H565.253ZM605.259 216.279L603.999 211.724H603.902C601.382 215.262 597.65 217.006 593.095 217.006C583.355 217.006 576.813 209.592 576.813 199.076C576.813 188.9 582.579 180.904 593.483 180.904C601.527 180.904 606.47 185.265 607.585 192.049H603.078C602.109 187.446 598.862 184.684 593.386 184.684C585.051 184.684 581.271 190.935 581.271 199.076C581.271 207.557 586.214 213.226 593.241 213.226C600.364 213.226 603.708 208.38 603.708 202.565V201.741H593.289V197.962H608.069V216.279H605.259ZM616.026 216.279V181.631H620.629L636.427 205.715C637.59 207.508 638.947 210.173 638.947 210.173H639.044V181.631H643.115V216.279H638.656L622.762 192.146C621.647 190.45 620.193 187.833 620.193 187.833H620.096V216.279H616.026ZM661.216 216.279V181.631H673.816C684.235 181.631 689.177 188.706 689.177 199.076C689.177 209.446 683.895 216.279 673.476 216.279H661.216ZM665.578 212.451H673.331C681.472 212.451 684.719 207.217 684.719 199.076C684.719 190.935 681.812 185.41 673.67 185.41H665.578V212.451ZM696.281 216.279V181.631H720.753V185.459H700.643V196.411H718.912V200.094H700.643V212.257H721.335V216.279H696.281ZM742.581 216.958C732.743 216.958 726.347 209.446 726.347 198.931C726.347 188.754 732.453 180.855 742.775 180.855C750.867 180.855 755.762 185.507 756.682 191.904H752.418C751.594 187.591 748.154 184.635 742.678 184.635C735.069 184.635 730.805 190.79 730.805 198.931C730.805 207.411 735.506 213.129 742.726 213.129C749.268 213.129 752.37 208.671 752.806 203.583H757.119C757.07 207.024 755.423 210.9 752.951 213.323C750.528 215.698 746.991 216.958 742.581 216.958ZM764.048 216.279V181.631H768.409V216.279H764.048ZM789.515 216.958C779.775 216.958 775.122 211.53 774.735 204.552H778.999C779.581 210.416 783.167 213.469 789.709 213.469C794.506 213.469 797.947 211.288 797.947 206.975C797.947 202.226 793.779 201.111 787.577 199.755C781.471 198.398 776.237 196.653 776.237 190.111C776.237 184.393 780.986 180.952 788.013 180.952C796.687 180.952 800.273 185.362 801.145 191.759H797.026C796.396 186.816 793.198 184.344 788.11 184.344C783.409 184.344 780.308 186.331 780.308 189.917C780.308 193.842 784.184 195.006 789.37 196.023C796.105 197.38 802.26 199.028 802.26 206.83C802.26 213.323 796.978 216.958 789.515 216.958ZM809.285 216.279V181.631H813.647V216.279H809.285ZM837.806 217.006C827.339 217.006 820.845 209.301 820.845 198.931C820.845 188.56 827.339 180.855 837.806 180.855C848.273 180.855 854.767 188.56 854.767 198.931C854.767 209.301 848.273 217.006 837.806 217.006ZM837.806 213.178C845.947 213.178 850.308 207.072 850.308 198.931C850.308 190.79 845.947 184.635 837.806 184.635C829.665 184.635 825.303 190.79 825.303 198.931C825.303 207.072 829.665 213.178 837.806 213.178ZM861.903 216.279V181.631H866.507L882.305 205.715C883.468 207.508 884.825 210.173 884.825 210.173H884.922V181.631H888.992V216.279H884.534L868.639 192.146C867.525 190.45 866.071 187.833 866.071 187.833H865.974V216.279H861.903ZM910.041 216.958C900.301 216.958 895.649 211.53 895.261 204.552H899.526C900.107 210.416 903.693 213.469 910.235 213.469C915.033 213.469 918.473 211.288 918.473 206.975C918.473 202.226 914.306 201.111 908.103 199.755C901.997 198.398 896.763 196.653 896.763 190.111C896.763 184.393 901.512 180.952 908.539 180.952C917.213 180.952 920.799 185.362 921.672 191.759H917.553C916.923 186.816 913.724 184.344 908.636 184.344C903.935 184.344 900.834 186.331 900.834 189.917C900.834 193.842 904.711 195.006 909.896 196.023C916.632 197.38 922.786 199.028 922.786 206.83C922.786 213.323 917.504 216.958 910.041 216.958Z" fill="white"/>
<rect x="1020.25" y="167" width="427.319" height="61.7734" rx="17.6217" fill="#1C1C1C"/>
<path d="M1041.12 216.279V181.631H1053.72C1064.14 181.631 1069.08 188.706 1069.08 199.076C1069.08 209.446 1063.8 216.279 1053.38 216.279H1041.12ZM1045.48 212.451H1053.23C1061.37 212.451 1064.62 207.217 1064.62 199.076C1064.62 190.935 1061.71 185.41 1053.57 185.41H1045.48V212.451ZM1076.18 216.279V181.631H1100.66V185.459H1080.54V196.411H1098.81V200.094H1080.54V212.257H1101.24V216.279H1076.18ZM1120.39 216.958C1110.65 216.958 1106 211.53 1105.61 204.552H1109.88C1110.46 210.416 1114.04 213.469 1120.59 213.469C1125.38 213.469 1128.82 211.288 1128.82 206.975C1128.82 202.226 1124.66 201.111 1118.45 199.755C1112.35 198.398 1107.12 196.653 1107.12 190.111C1107.12 184.393 1111.86 180.952 1118.89 180.952C1127.56 180.952 1131.15 185.362 1132.02 191.759H1127.9C1127.27 186.816 1124.08 184.344 1118.99 184.344C1114.29 184.344 1111.19 186.331 1111.19 189.917C1111.19 193.842 1115.06 195.006 1120.25 196.023C1126.98 197.38 1133.14 199.028 1133.14 206.83C1133.14 213.323 1127.86 216.958 1120.39 216.958ZM1140.16 216.279V181.631H1144.52V216.279H1140.16ZM1180.17 216.279L1178.91 211.724H1178.81C1176.29 215.262 1172.56 217.006 1168.01 217.006C1158.26 217.006 1151.72 209.592 1151.72 199.076C1151.72 188.9 1157.49 180.904 1168.39 180.904C1176.44 180.904 1181.38 185.265 1182.49 192.049H1177.99C1177.02 187.446 1173.77 184.684 1168.3 184.684C1159.96 184.684 1156.18 190.935 1156.18 199.076C1156.18 207.557 1161.12 213.226 1168.15 213.226C1175.27 213.226 1178.62 208.38 1178.62 202.565V201.741H1168.2V197.962H1182.98V216.279H1180.17ZM1190.94 216.279V181.631H1195.54L1211.34 205.715C1212.5 207.508 1213.86 210.173 1213.86 210.173H1213.95V181.631H1218.02V216.279H1213.57L1197.67 192.146C1196.56 190.45 1195.1 187.833 1195.1 187.833H1195.01V216.279H1190.94ZM1248.73 216.958C1238.99 216.958 1234.33 211.53 1233.95 204.552H1238.21C1238.79 210.416 1242.38 213.469 1248.92 213.469C1253.72 213.469 1257.16 211.288 1257.16 206.975C1257.16 202.226 1252.99 201.111 1246.79 199.755C1240.68 198.398 1235.45 196.653 1235.45 190.111C1235.45 184.393 1240.2 180.952 1247.22 180.952C1255.9 180.952 1259.48 185.362 1260.36 191.759H1256.24C1255.61 186.816 1252.41 184.344 1247.32 184.344C1242.62 184.344 1239.52 186.331 1239.52 189.917C1239.52 193.842 1243.4 195.006 1248.58 196.023C1255.32 197.38 1261.47 199.028 1261.47 206.83C1261.47 213.323 1256.19 216.958 1248.73 216.958ZM1276.25 216.279V201.596L1263.7 181.631H1268.54L1278.48 198.107H1278.57L1288.65 181.631H1293.31L1280.61 201.693V216.279H1276.25ZM1310.1 216.958C1300.36 216.958 1295.71 211.53 1295.32 204.552H1299.59C1300.17 210.416 1303.75 213.469 1310.29 213.469C1315.09 213.469 1318.53 211.288 1318.53 206.975C1318.53 202.226 1314.37 201.111 1308.16 199.755C1302.06 198.398 1296.82 196.653 1296.82 190.111C1296.82 184.393 1301.57 180.952 1308.6 180.952C1317.27 180.952 1320.86 185.362 1321.73 191.759H1317.61C1316.98 186.816 1313.78 184.344 1308.7 184.344C1304 184.344 1300.89 186.331 1300.89 189.917C1300.89 193.842 1304.77 195.006 1309.96 196.023C1316.69 197.38 1322.85 199.028 1322.85 206.83C1322.85 213.323 1317.56 216.958 1310.1 216.958ZM1325.89 185.459V181.631H1353.32V185.459H1341.79V216.279H1337.42V185.459H1325.89ZM1359.59 216.279V181.631H1384.06V185.459H1363.95V196.411H1382.22V200.094H1363.95V212.257H1384.64V216.279H1359.59ZM1391.67 216.279V181.631H1397.24L1408.49 210.416H1408.58L1419.73 181.631H1425.4V216.279H1421.23V187.785H1421.13C1421.13 187.785 1420.21 190.499 1419.58 192.146L1410.09 216.279H1406.74L1397.24 192.146C1396.56 190.402 1395.69 187.785 1395.69 187.785H1395.6V216.279H1391.67Z" fill="white"/>
<rect x="109.188" y="167" width="259.151" height="61.7734" rx="17.6217" fill="#1C1C1C"/>
<path d="M130.057 216.279V181.631H135.63L146.873 210.416H146.97L158.115 181.631H163.785V216.279H159.618V187.785H159.521C159.521 187.785 158.6 190.499 157.97 192.146L148.472 216.279H145.128L135.63 192.146C134.952 190.402 134.079 187.785 134.079 187.785H133.983V216.279H130.057ZM169.459 216.279L182.204 181.631H187.098L199.891 216.279H195.142L191.46 205.715H177.649L173.917 216.279H169.459ZM183.028 190.547L178.908 202.178H190.248L186.274 190.547C185.596 188.609 184.724 185.653 184.724 185.653H184.627C184.627 185.653 183.706 188.56 183.028 190.547ZM205.582 216.279V181.631H220.023C223.658 181.631 226.469 182.842 228.262 184.974C229.715 186.67 230.588 188.948 230.588 191.565C230.588 197.913 226.953 201.741 219.393 201.741H209.944V216.279H205.582ZM209.944 185.41V198.204H219.054C223.949 198.204 226.275 195.732 226.275 191.759C226.275 187.591 223.706 185.41 219.297 185.41H209.944ZM236.72 216.279V181.631H251.161C254.795 181.631 257.606 182.842 259.399 184.974C260.853 186.67 261.725 188.948 261.725 191.565C261.725 197.913 258.09 201.741 250.531 201.741H241.081V216.279H236.72ZM241.081 185.41V198.204H250.191C255.086 198.204 257.412 195.732 257.412 191.759C257.412 187.591 254.844 185.41 250.434 185.41H241.081ZM267.954 216.279V181.631H272.315V216.279H267.954ZM280.822 216.279V181.631H285.425L301.223 205.715C302.386 207.508 303.743 210.173 303.743 210.173H303.84V181.631H307.911V216.279H303.452L287.558 192.146C286.443 190.45 284.989 187.833 284.989 187.833H284.892V216.279H280.822ZM343.497 216.279L342.238 211.724H342.141C339.621 215.262 335.889 217.006 331.334 217.006C321.594 217.006 315.052 209.592 315.052 199.076C315.052 188.9 320.818 180.904 331.722 180.904C339.766 180.904 344.709 185.265 345.824 192.049H341.317C340.348 187.446 337.101 184.684 331.625 184.684C323.29 184.684 319.51 190.935 319.51 199.076C319.51 207.557 324.453 213.226 331.479 213.226C338.603 213.226 341.947 208.38 341.947 202.565V201.741H331.528V197.962H346.308V216.279H343.497Z" fill="white"/>
</svg>
