<svg width="327" height="345" viewBox="0 0 327 345" fill="none" xmlns="http://www.w3.org/2000/svg">
<rect x="36" y="32" width="134.139" height="31.9801" rx="9" fill="#1C1C1C"/>
<path d="M46.217 57.4395V39.6997H49.0703L54.8264 54.4373H54.876L60.5825 39.6997H63.4854V57.4395H61.3517V42.8507H61.302C61.302 42.8507 60.8306 44.2401 60.5081 45.0836L55.6452 57.4395H53.9332L49.0703 45.0836C48.7229 44.1904 48.2763 42.8507 48.2763 42.8507H48.2267V57.4395H46.217ZM66.3902 57.4395L72.9155 39.6997H75.4214L81.9714 57.4395H79.54L77.6543 52.0307H70.5832L68.6728 57.4395H66.3902ZM73.3373 44.2649L71.2283 50.2195H77.0341L74.9996 44.2649C74.6522 43.2724 74.2056 41.759 74.2056 41.759H74.156C74.156 41.759 73.6846 43.2476 73.3373 44.2649ZM84.8852 57.4395V39.6997H92.2788C94.1396 39.6997 95.5787 40.3199 96.4967 41.4116C97.241 42.28 97.6876 43.4461 97.6876 44.7859C97.6876 48.0361 95.8268 49.9962 91.9563 49.9962H87.1181V57.4395H84.8852ZM87.1181 41.6349V48.185H91.7826C94.2885 48.185 95.4794 46.9196 95.4794 44.8851C95.4794 42.7514 94.1644 41.6349 91.9066 41.6349H87.1181ZM100.827 57.4395V39.6997H108.221C110.082 39.6997 111.521 40.3199 112.439 41.4116C113.183 42.28 113.63 43.4461 113.63 44.7859C113.63 48.0361 111.769 49.9962 107.898 49.9962H103.06V57.4395H100.827ZM103.06 41.6349V48.185H107.725C110.23 48.185 111.421 46.9196 111.421 44.8851C111.421 42.7514 110.106 41.6349 107.849 41.6349H103.06ZM116.819 57.4395V39.6997H119.052V57.4395H116.819ZM123.407 57.4395V39.6997H125.764L133.852 52.0307C134.448 52.9487 135.143 54.3133 135.143 54.3133H135.192V39.6997H137.276V57.4395H134.994L126.856 45.0836C126.285 44.2153 125.541 42.8755 125.541 42.8755H125.491V57.4395H123.407ZM155.496 57.4395L154.851 55.1072H154.802C153.511 56.9184 151.601 57.8116 149.269 57.8116C144.282 57.8116 140.932 54.0156 140.932 48.6316C140.932 43.4213 143.885 39.3275 149.467 39.3275C153.586 39.3275 156.117 41.5605 156.687 45.034H154.38C153.884 42.677 152.221 41.2628 149.418 41.2628C145.15 41.2628 143.215 44.4634 143.215 48.6316C143.215 52.9735 145.746 55.8764 149.343 55.8764C152.99 55.8764 154.702 53.3953 154.702 50.418V49.9962H149.368V48.0609H156.935V57.4395H155.496Z" fill="white"/>
<rect x="36" y="166" width="217.643" height="31.9801" rx="9.02214" fill="#1C1C1C"/>
<path d="M46.1389 191.439V173.7H52.5897C57.9241 173.7 60.4548 177.322 60.4548 182.632C60.4548 187.941 57.7504 191.439 52.416 191.439H46.1389ZM48.3719 189.479H52.3416C56.5098 189.479 58.1722 186.8 58.1722 182.632C58.1722 178.463 56.6835 175.635 52.5153 175.635H48.3719V189.479ZM64.0919 191.439V173.7H76.6214V175.66H66.3249V181.267H75.6786V183.153H66.3249V189.38H76.9191V191.439H64.0919ZM86.727 191.787C81.74 191.787 79.3581 189.008 79.1597 185.435H81.343C81.6407 188.437 83.4768 190 86.8262 190C89.2825 190 91.0441 188.884 91.0441 186.676C91.0441 184.244 88.9103 183.674 85.7345 182.979C82.6084 182.284 79.9288 181.391 79.9288 178.042C79.9288 175.114 82.3603 173.352 85.9578 173.352C90.399 173.352 92.235 175.61 92.6816 178.885H90.5727C90.2501 176.354 88.6126 175.089 86.0075 175.089C83.6008 175.089 82.0129 176.106 82.0129 177.942C82.0129 179.952 83.9978 180.547 86.6525 181.069C90.1013 181.763 93.2522 182.607 93.2522 186.601C93.2522 189.926 90.5479 191.787 86.727 191.787ZM96.8492 191.439V173.7H99.0822V191.439H96.8492ZM117.332 191.439L116.687 189.107H116.637C115.347 190.918 113.436 191.812 111.104 191.812C106.117 191.812 102.768 188.016 102.768 182.632C102.768 177.421 105.72 173.328 111.303 173.328C115.421 173.328 117.952 175.56 118.523 179.034H116.215C115.719 176.677 114.057 175.263 111.253 175.263C106.985 175.263 105.05 178.463 105.05 182.632C105.05 186.973 107.581 189.876 111.178 189.876C114.826 189.876 116.538 187.395 116.538 184.418V183.996H111.203V182.061H118.771V191.439H117.332ZM122.844 191.439V173.7H125.201L133.29 186.031C133.885 186.949 134.58 188.313 134.58 188.313H134.629V173.7H136.714V191.439H134.431L126.293 179.084C125.722 178.215 124.978 176.875 124.978 176.875H124.928V191.439H122.844ZM152.432 191.787C147.445 191.787 145.063 189.008 144.865 185.435H147.048C147.346 188.437 149.182 190 152.531 190C154.988 190 156.749 188.884 156.749 186.676C156.749 184.244 154.616 183.674 151.44 182.979C148.314 182.284 145.634 181.391 145.634 178.042C145.634 175.114 148.065 173.352 151.663 173.352C156.104 173.352 157.94 175.61 158.387 178.885H156.278C155.955 176.354 154.318 175.089 151.713 175.089C149.306 175.089 147.718 176.106 147.718 177.942C147.718 179.952 149.703 180.547 152.358 181.069C155.806 181.763 158.957 182.607 158.957 186.601C158.957 189.926 156.253 191.787 152.432 191.787ZM166.523 191.439V183.922L160.097 173.7H162.578L167.665 182.135H167.714L172.875 173.7H175.257L168.756 183.971V191.439H166.523ZM183.856 191.787C178.869 191.787 176.487 189.008 176.288 185.435H178.472C178.77 188.437 180.606 190 183.955 190C186.411 190 188.173 188.884 188.173 186.676C188.173 184.244 186.039 183.674 182.863 182.979C179.737 182.284 177.058 181.391 177.058 178.042C177.058 175.114 179.489 173.352 183.087 173.352C187.528 173.352 189.364 175.61 189.81 178.885H187.701C187.379 176.354 185.741 175.089 183.136 175.089C180.73 175.089 179.142 176.106 179.142 177.942C179.142 179.952 181.127 180.547 183.781 181.069C187.23 181.763 190.381 182.607 190.381 186.601C190.381 189.926 187.677 191.787 183.856 191.787ZM191.94 175.66V173.7H205.983V175.66H200.078V191.439H197.845V175.66H191.94ZM209.192 191.439V173.7H221.721V175.66H211.425V181.267H220.779V183.153H211.425V189.38H222.019V191.439H209.192ZM225.619 191.439V173.7H228.472L234.228 188.437H234.278L239.984 173.7H242.887V191.439H240.753V176.851H240.704C240.704 176.851 240.232 178.24 239.91 179.084L235.047 191.439H233.335L228.472 179.084C228.124 178.19 227.678 176.851 227.678 176.851H227.628V191.439H225.619Z" fill="white"/>
<rect x="36" y="233" width="52.4119" height="31.9801" rx="9.02214" fill="#1C1C1C"/>
<path d="M60.6411 259.928L57.8871 257.745C56.6466 258.439 55.1579 258.812 53.4956 258.812C48.1364 258.812 44.8118 254.867 44.8118 249.557C44.8118 244.248 48.1364 240.303 53.4956 240.303C58.8547 240.303 62.1794 244.248 62.1794 249.557C62.1794 252.46 61.187 254.941 59.4254 256.603L61.7824 258.489L60.6411 259.928ZM53.4956 256.852C54.488 256.852 55.3812 256.678 56.1503 256.355L54.364 254.916L55.5053 253.477L57.7631 255.288C59.1525 253.973 59.8968 251.939 59.8968 249.557C59.8968 245.389 57.6638 242.238 53.4956 242.238C49.3274 242.238 47.0944 245.389 47.0944 249.557C47.0944 253.725 49.3274 256.852 53.4956 256.852ZM63.9346 258.439L70.4598 240.7H72.9657L79.5158 258.439H77.0843L75.1987 253.031H68.1276L66.2172 258.439H63.9346ZM70.8816 245.265L68.7727 251.219H74.5784L72.5439 245.265C72.1966 244.272 71.75 242.759 71.75 242.759H71.7004C71.7004 242.759 71.229 244.248 70.8816 245.265Z" fill="white"/>
<rect x="36" y="99" width="256" height="31.98" rx="9" fill="#1C1C1C"/>
<path d="M46.7707 124.338V106.598H53.2216C58.5559 106.598 61.0866 110.22 61.0866 115.53C61.0866 120.84 58.3822 124.338 53.0479 124.338H46.7707ZM49.0037 122.378H52.9734C57.1417 122.378 58.804 119.698 58.804 115.53C58.804 111.362 57.3154 108.533 53.1471 108.533H49.0037V122.378ZM64.7237 124.338V106.598H77.2532V108.558H66.9567V114.165H76.3104V116.051H66.9567V122.279H77.551V124.338H64.7237ZM87.3588 124.685C82.3718 124.685 79.99 121.906 79.7915 118.334H81.9749C82.2726 121.336 84.1086 122.899 87.4581 122.899C89.9143 122.899 91.6759 121.782 91.6759 119.574C91.6759 117.143 89.5422 116.572 86.3664 115.877C83.2402 115.183 80.5606 114.289 80.5606 110.94C80.5606 108.012 82.9921 106.251 86.5897 106.251C91.0308 106.251 92.8668 108.509 93.3134 111.784H91.2045C90.882 109.253 89.2444 107.988 86.6393 107.988C84.2326 107.988 82.6447 109.005 82.6447 110.841C82.6447 112.85 84.6296 113.446 87.2844 113.967C90.7331 114.662 93.8841 115.505 93.8841 119.5C93.8841 122.824 91.1797 124.685 87.3588 124.685ZM97.4811 124.338V106.598H99.7141V124.338H97.4811ZM117.963 124.338L117.318 122.006H117.269C115.979 123.817 114.068 124.71 111.736 124.71C106.749 124.71 103.399 120.914 103.399 115.53C103.399 110.32 106.352 106.226 111.934 106.226C116.053 106.226 118.584 108.459 119.154 111.932H116.847C116.351 109.575 114.688 108.161 111.885 108.161C107.617 108.161 105.682 111.362 105.682 115.53C105.682 119.872 108.213 122.775 111.81 122.775C115.458 122.775 117.169 120.294 117.169 117.316V116.895H111.835V114.959H119.402V124.338H117.963ZM123.476 124.338V106.598H125.833L133.921 118.929C134.517 119.847 135.212 121.212 135.212 121.212H135.261V106.598H137.345V124.338H135.063L126.925 111.982C126.354 111.114 125.61 109.774 125.61 109.774H125.56V124.338H123.476ZM146.613 124.338V106.598H153.064C158.398 106.598 160.929 110.22 160.929 115.53C160.929 120.84 158.225 124.338 152.89 124.338H146.613ZM148.846 122.378H152.816C156.984 122.378 158.646 119.698 158.646 115.53C158.646 111.362 157.158 108.533 152.99 108.533H148.846V122.378ZM164.566 124.338V106.598H177.096V108.558H166.799V114.165H176.153V116.051H166.799V122.279H177.393V124.338H164.566ZM188.271 124.685C183.234 124.685 179.959 120.84 179.959 115.456C179.959 110.245 183.086 106.201 188.37 106.201C192.514 106.201 195.02 108.583 195.491 111.858H193.308C192.886 109.65 191.124 108.136 188.321 108.136C184.425 108.136 182.242 111.287 182.242 115.456C182.242 119.797 184.649 122.725 188.346 122.725C191.695 122.725 193.283 120.443 193.506 117.837H195.714C195.69 119.599 194.846 121.584 193.581 122.824C192.34 124.04 190.529 124.685 188.271 124.685ZM199.262 124.338V106.598H201.495V124.338H199.262ZM212.301 124.685C207.314 124.685 204.932 121.906 204.734 118.334H206.917C207.215 121.336 209.051 122.899 212.4 122.899C214.857 122.899 216.618 121.782 216.618 119.574C216.618 117.143 214.484 116.572 211.309 115.877C208.182 115.183 205.503 114.289 205.503 110.94C205.503 108.012 207.934 106.251 211.532 106.251C215.973 106.251 217.809 108.509 218.256 111.784H216.147C215.824 109.253 214.187 107.988 211.581 107.988C209.175 107.988 207.587 109.005 207.587 110.841C207.587 112.85 209.572 113.446 212.227 113.967C215.675 114.662 218.826 115.505 218.826 119.5C218.826 122.824 216.122 124.685 212.301 124.685ZM222.423 124.338V106.598H224.656V124.338H222.423ZM237.025 124.71C231.666 124.71 228.342 120.765 228.342 115.456C228.342 110.146 231.666 106.201 237.025 106.201C242.385 106.201 245.709 110.146 245.709 115.456C245.709 120.765 242.385 124.71 237.025 124.71ZM237.025 122.75C241.194 122.75 243.427 119.624 243.427 115.456C243.427 111.287 241.194 108.136 237.025 108.136C232.857 108.136 230.624 111.287 230.624 115.456C230.624 119.624 232.857 122.75 237.025 122.75ZM249.363 124.338V106.598H251.72L259.809 118.929C260.404 119.847 261.099 121.212 261.099 121.212H261.148V106.598H263.233V124.338H260.95L252.812 111.982C252.241 111.114 251.497 109.774 251.497 109.774H251.447V124.338H249.363ZM274.009 124.685C269.022 124.685 266.641 121.906 266.442 118.334H268.625C268.923 121.336 270.759 122.899 274.109 122.899C276.565 122.899 278.326 121.782 278.326 119.574C278.326 117.143 276.193 116.572 273.017 115.877C269.891 115.183 267.211 114.289 267.211 110.94C267.211 108.012 269.643 106.251 273.24 106.251C277.681 106.251 279.517 108.509 279.964 111.784H277.855C277.532 109.253 275.895 107.988 273.29 107.988C270.883 107.988 269.295 109.005 269.295 110.841C269.295 112.85 271.28 113.446 273.935 113.967C277.384 114.662 280.535 115.505 280.535 119.5C280.535 122.824 277.83 124.685 274.009 124.685Z" fill="white"/>
<path d="M25.8233 114.834C26.0185 114.639 26.0185 114.322 25.8233 114.127L22.6413 110.945C22.446 110.75 22.1295 110.75 21.9342 110.945C21.7389 111.14 21.7389 111.457 21.9342 111.652L24.7626 114.48L21.9342 117.309C21.7389 117.504 21.7389 117.821 21.9342 118.016C22.1295 118.211 22.446 118.211 22.6413 118.016L25.8233 114.834ZM25.4697 249.662L25.4697 249.162L24.4012 249.162L24.4012 249.662L24.4012 250.162L25.4697 250.162L25.4697 249.662ZM22.264 249.662L22.264 249.162L20.1269 249.162L20.1269 249.662L20.1269 250.162L22.264 250.162L22.264 249.662ZM17.9897 249.662L17.9897 249.162L16.9212 249.162L16.9212 249.662L16.9212 250.162L17.9897 250.162L17.9897 249.662ZM16.9212 249.662L16.9212 249.162C16.6807 249.162 16.4462 249.139 16.2198 249.094L16.1227 249.584L16.0257 250.075C16.3157 250.132 16.6152 250.162 16.9212 250.162L16.9212 249.662ZM14.6481 248.973L14.9263 248.558C14.5344 248.295 14.197 247.958 13.9346 247.566L13.5192 247.844L13.1037 248.122C13.4387 248.623 13.8695 249.053 14.3699 249.389L14.6481 248.973ZM12.9079 246.369L13.3984 246.272C13.3536 246.046 13.3301 245.811 13.3301 245.571L12.8301 245.571L12.3301 245.571C12.3301 245.877 12.3601 246.176 12.4175 246.466L12.9079 246.369ZM12.8301 245.571L13.3301 245.571L13.3301 244.664L12.8301 244.664L12.3301 244.664L12.3301 245.571L12.8301 245.571ZM12.8301 242.85L13.3301 242.85L13.3301 241.035L12.8301 241.035L12.3301 241.035L12.3301 242.85L12.8301 242.85ZM12.8301 239.221L13.3301 239.221L13.3301 237.407L12.8301 237.407L12.3301 237.407L12.3301 239.221L12.8301 239.221ZM12.8301 235.592L13.3301 235.592L13.3301 233.778L12.8301 233.778L12.3301 233.778L12.3301 235.592L12.8301 235.592ZM12.8301 231.964L13.3301 231.964L13.3301 230.15L12.8301 230.15L12.3301 230.15L12.3301 231.964L12.8301 231.964ZM12.8301 228.335L13.3301 228.335L13.3301 226.521L12.8301 226.521L12.3301 226.521L12.3301 228.335L12.8301 228.335ZM12.8301 224.707L13.3301 224.707L13.3301 222.893L12.8301 222.893L12.3301 222.893L12.3301 224.707L12.8301 224.707ZM12.8301 221.078L13.3301 221.078L13.3301 219.264L12.8301 219.264L12.3301 219.264L12.3301 221.078L12.8301 221.078ZM12.8301 217.45L13.3301 217.45L13.3301 215.635L12.8301 215.635L12.3301 215.635L12.3301 217.45L12.8301 217.45ZM12.8301 213.821L13.3301 213.821L13.3301 212.007L12.8301 212.007L12.3301 212.007L12.3301 213.821L12.8301 213.821ZM12.8301 210.193L13.3301 210.193L13.3301 208.378L12.8301 208.378L12.3301 208.378L12.3301 210.193L12.8301 210.193ZM12.8301 206.564L13.3301 206.564L13.3301 204.75L12.8301 204.75L12.3301 204.75L12.3301 206.564L12.8301 206.564ZM12.8301 202.935L13.3301 202.935L13.3301 201.121L12.8301 201.121L12.3301 201.121L12.3301 202.935L12.8301 202.935ZM12.8301 199.307L13.3301 199.307L13.3301 197.493L12.8301 197.493L12.3301 197.493L12.3301 199.307L12.8301 199.307ZM12.8301 195.678L13.3301 195.678L13.3301 193.864L12.8301 193.864L12.3301 193.864L12.3301 195.678L12.8301 195.678ZM12.8301 192.05L13.3301 192.05L13.3301 190.236L12.8301 190.236L12.3301 190.236L12.3301 192.05L12.8301 192.05ZM12.8301 188.421L13.3301 188.421L13.3301 186.607L12.8301 186.607L12.3301 186.607L12.3301 188.421L12.8301 188.421ZM12.8301 184.793L13.3301 184.793L13.3301 182.978L12.8301 182.978L12.3301 182.978L12.3301 184.793L12.8301 184.793ZM12.8301 181.164L13.3301 181.164L13.3301 179.35L12.8301 179.35L12.3301 179.35L12.3301 181.164L12.8301 181.164ZM12.8301 177.536L13.3301 177.536L13.3301 175.721L12.8301 175.721L12.3301 175.721L12.3301 177.536L12.8301 177.536ZM12.8301 173.907L13.3301 173.907L13.3301 172.093L12.8301 172.093L12.3301 172.093L12.3301 173.907L12.8301 173.907ZM12.8301 170.278L13.3301 170.278L13.3301 168.464L12.8301 168.464L12.3301 168.464L12.3301 170.278L12.8301 170.278ZM12.8301 166.65L13.3301 166.65L13.3301 164.836L12.8301 164.836L12.3301 164.836L12.3301 166.65L12.8301 166.65ZM12.8301 163.021L13.3301 163.021L13.3301 161.207L12.8301 161.207L12.3301 161.207L12.3301 163.021L12.8301 163.021ZM12.8301 159.393L13.3301 159.393L13.3301 157.579L12.8301 157.579L12.3301 157.579L12.3301 159.393L12.8301 159.393ZM12.8301 155.764L13.3301 155.764L13.3301 153.95L12.8301 153.95L12.3301 153.95L12.3301 155.764L12.8301 155.764ZM12.8301 152.136L13.3301 152.136L13.3301 150.321L12.8301 150.321L12.3301 150.321L12.3301 152.136L12.8301 152.136ZM12.8301 148.507L13.3301 148.507L13.3301 146.693L12.8301 146.693L12.3301 146.693L12.3301 148.507L12.8301 148.507ZM12.8301 144.879L13.3301 144.879L13.3301 143.064L12.8301 143.064L12.3301 143.064L12.3301 144.879L12.8301 144.879ZM12.8301 141.25L13.3301 141.25L13.3301 139.436L12.8301 139.436L12.3301 139.436L12.3301 141.25L12.8301 141.25ZM12.8301 137.621L13.3301 137.621L13.3301 135.807L12.8301 135.807L12.3301 135.807L12.3301 137.621L12.8301 137.621ZM12.8301 133.993L13.3301 133.993L13.3301 132.179L12.8301 132.179L12.3301 132.179L12.3301 133.993L12.8301 133.993ZM12.8301 130.364L13.3301 130.364L13.3301 128.55L12.8301 128.55L12.3301 128.55L12.3301 130.364L12.8301 130.364ZM12.8301 126.736L13.3301 126.736L13.3301 124.922L12.8301 124.922L12.3301 124.922L12.3301 126.736L12.8301 126.736ZM12.8301 123.107L13.3301 123.107L13.3301 121.293L12.8301 121.293L12.3301 121.293L12.3301 123.107L12.8301 123.107ZM12.8301 119.479L13.3301 119.479L13.3301 118.572L12.8301 118.572L12.3301 118.572L12.3301 119.479L12.8301 119.479ZM12.8301 118.572L13.3301 118.572C13.3301 118.331 13.3536 118.097 13.3984 117.87L12.9079 117.773L12.4174 117.676C12.3601 117.966 12.3301 118.266 12.3301 118.572L12.8301 118.572ZM13.5192 116.298L13.9346 116.577C14.197 116.185 14.5344 115.847 14.9262 115.585L14.6481 115.17L14.3699 114.754C13.8695 115.089 13.4387 115.52 13.1037 116.02L13.5192 116.298ZM16.1227 114.558L16.2198 115.049C16.4462 115.004 16.6807 114.98 16.9212 114.98L16.9212 114.48L16.9212 113.98C16.6152 113.98 16.3157 114.01 16.0257 114.068L16.1227 114.558ZM16.9212 114.48L16.9212 114.98L17.9897 114.98L17.9897 114.48L17.9897 113.98L16.9212 113.98L16.9212 114.48ZM20.1269 114.48L20.1269 114.98L22.264 114.98L22.264 114.48L22.264 113.98L20.1269 113.98L20.1269 114.48ZM24.4012 114.48L24.4012 114.98L25.4697 114.98L25.4697 114.48L25.4697 113.98L24.4012 113.98L24.4012 114.48Z" fill="#989898"/>
<path d="M300.16 114.834C299.965 114.638 299.965 114.322 300.16 114.127L303.342 110.945C303.537 110.749 303.854 110.749 304.049 110.945C304.244 111.14 304.244 111.456 304.049 111.652L301.221 114.48L304.049 117.309C304.244 117.504 304.244 117.82 304.049 118.016C303.854 118.211 303.537 118.211 303.342 118.016L300.16 114.834ZM97.445 249.662L97.445 249.162L98.3417 249.162L98.3417 249.662L98.3417 250.162L97.445 250.162L97.445 249.662ZM100.135 249.662L100.135 249.162L101.928 249.162L101.928 249.662L101.928 250.162L100.135 250.162L100.135 249.662ZM103.722 249.662L103.722 249.162L105.515 249.162L105.515 249.662L105.515 250.162L103.722 250.162L103.722 249.662ZM107.309 249.662L107.309 249.162L109.102 249.162L109.102 249.662L109.102 250.162L107.309 250.162L107.309 249.662ZM110.895 249.662L110.895 249.162L112.689 249.162L112.689 249.662L112.689 250.162L110.895 250.162L110.895 249.662ZM114.482 249.662L114.482 249.162L116.275 249.162L116.275 249.662L116.275 250.162L114.482 250.162L114.482 249.662ZM118.069 249.662L118.069 249.162L119.862 249.162L119.862 249.662L119.862 250.162L118.069 250.162L118.069 249.662ZM121.655 249.662L121.655 249.162L123.449 249.162L123.449 249.662L123.449 250.162L121.655 250.162L121.655 249.662ZM125.242 249.662L125.242 249.162L127.036 249.162L127.036 249.662L127.036 250.162L125.242 250.162L125.242 249.662ZM128.829 249.662L128.829 249.162L130.622 249.162L130.622 249.662L130.622 250.162L128.829 250.162L128.829 249.662ZM132.416 249.662L132.416 249.162L134.209 249.162L134.209 249.662L134.209 250.162L132.416 250.162L132.416 249.662ZM136.002 249.662L136.002 249.162L137.796 249.162L137.796 249.662L137.796 250.162L136.002 250.162L136.002 249.662ZM139.589 249.662L139.589 249.162L141.382 249.162L141.382 249.662L141.382 250.162L139.589 250.162L139.589 249.662ZM143.176 249.662L143.176 249.162L144.969 249.162L144.969 249.662L144.969 250.162L143.176 250.162L143.176 249.662ZM146.763 249.662L146.763 249.162L148.556 249.162L148.556 249.662L148.556 250.162L146.763 250.162L146.763 249.662ZM150.349 249.662L150.349 249.162L152.143 249.162L152.143 249.662L152.143 250.162L150.349 250.162L150.349 249.662ZM153.936 249.662L153.936 249.162L155.729 249.162L155.729 249.662L155.729 250.162L153.936 250.162L153.936 249.662ZM157.523 249.662L157.523 249.162L159.316 249.162L159.316 249.662L159.316 250.162L157.523 250.162L157.523 249.662ZM161.109 249.662L161.109 249.162L162.903 249.162L162.903 249.662L162.903 250.162L161.109 250.162L161.109 249.662ZM164.696 249.662L164.696 249.162L166.49 249.162L166.49 249.662L166.49 250.162L164.696 250.162L164.696 249.662ZM168.283 249.662L168.283 249.162L170.076 249.162L170.076 249.662L170.076 250.162L168.283 250.162L168.283 249.662ZM171.87 249.662L171.87 249.162L173.663 249.162L173.663 249.662L173.663 250.162L171.87 250.162L171.87 249.662ZM175.456 249.662L175.456 249.162L177.25 249.162L177.25 249.662L177.25 250.162L175.456 250.162L175.456 249.662ZM179.043 249.662L179.043 249.162L180.837 249.162L180.837 249.662L180.837 250.162L179.043 250.162L179.043 249.662ZM182.63 249.662L182.63 249.162L184.423 249.162L184.423 249.662L184.423 250.162L182.63 250.162L182.63 249.662ZM186.217 249.662L186.217 249.162L188.01 249.162L188.01 249.662L188.01 250.162L186.217 250.162L186.217 249.662ZM189.803 249.662L189.803 249.162L191.597 249.162L191.597 249.662L191.597 250.162L189.803 250.162L189.803 249.662ZM193.39 249.662L193.39 249.162L195.183 249.162L195.183 249.662L195.183 250.162L193.39 250.162L193.39 249.662ZM196.977 249.662L196.977 249.162L198.77 249.162L198.77 249.662L198.77 250.162L196.977 250.162L196.977 249.662ZM200.564 249.662L200.564 249.162L202.357 249.162L202.357 249.662L202.357 250.162L200.564 250.162L200.564 249.662ZM204.15 249.662L204.15 249.162L205.944 249.162L205.944 249.662L205.944 250.162L204.15 250.162L204.15 249.662ZM207.737 249.662L207.737 249.162L209.53 249.162L209.53 249.662L209.53 250.162L207.737 250.162L207.737 249.662ZM211.324 249.662L211.324 249.162L213.117 249.162L213.117 249.662L213.117 250.162L211.324 250.162L211.324 249.662ZM214.91 249.662L214.91 249.162L216.704 249.162L216.704 249.662L216.704 250.162L214.91 250.162L214.91 249.662ZM218.497 249.662L218.497 249.162L220.291 249.162L220.291 249.662L220.291 250.162L218.497 250.162L218.497 249.662ZM222.084 249.662L222.084 249.162L223.877 249.162L223.877 249.662L223.877 250.162L222.084 250.162L222.084 249.662ZM225.671 249.662L225.671 249.162L227.464 249.162L227.464 249.662L227.464 250.162L225.671 250.162L225.671 249.662ZM229.257 249.662L229.257 249.162L231.051 249.162L231.051 249.662L231.051 250.162L229.257 250.162L229.257 249.662ZM232.844 249.662L232.844 249.162L234.637 249.162L234.637 249.662L234.637 250.162L232.844 250.162L232.844 249.662ZM236.431 249.662L236.431 249.162L238.224 249.162L238.224 249.662L238.224 250.162L236.431 250.162L236.431 249.662ZM240.018 249.662L240.018 249.162L241.811 249.162L241.811 249.662L241.811 250.162L240.018 250.162L240.018 249.662ZM243.604 249.662L243.604 249.162L245.398 249.162L245.398 249.662L245.398 250.162L243.604 250.162L243.604 249.662ZM247.191 249.662L247.191 249.162L248.984 249.162L248.984 249.662L248.984 250.162L247.191 250.162L247.191 249.662ZM250.778 249.662L250.778 249.162L252.571 249.162L252.571 249.662L252.571 250.162L250.778 250.162L250.778 249.662ZM254.364 249.662L254.364 249.162L256.158 249.162L256.158 249.662L256.158 250.162L254.364 250.162L254.364 249.662ZM257.951 249.662L257.951 249.162L259.745 249.162L259.745 249.662L259.745 250.162L257.951 250.162L257.951 249.662ZM261.538 249.662L261.538 249.162L263.331 249.162L263.331 249.662L263.331 250.162L261.538 250.162L261.538 249.662ZM265.125 249.662L265.125 249.162L266.918 249.162L266.918 249.662L266.918 250.162L265.125 250.162L265.125 249.662ZM268.711 249.662L268.711 249.162L270.505 249.162L270.505 249.662L270.505 250.162L268.711 250.162L268.711 249.662ZM272.298 249.662L272.298 249.162L274.092 249.162L274.092 249.662L274.092 250.162L272.298 250.162L272.298 249.662ZM275.885 249.662L275.885 249.162L277.678 249.162L277.678 249.662L277.678 250.162L275.885 250.162L275.885 249.662ZM279.472 249.662L279.472 249.162L281.265 249.162L281.265 249.662L281.265 250.162L279.472 250.162L279.472 249.662ZM283.058 249.662L283.058 249.162L284.852 249.162L284.852 249.662L284.852 250.162L283.058 250.162L283.058 249.662ZM286.645 249.662L286.645 249.162L288.438 249.162L288.438 249.662L288.438 250.162L286.645 250.162L286.645 249.662ZM290.232 249.662L290.232 249.162L292.025 249.162L292.025 249.662L292.025 250.162L290.232 250.162L290.232 249.662ZM293.819 249.662L293.819 249.162L295.612 249.162L295.612 249.662L295.612 250.162L293.819 250.162L293.819 249.662ZM297.405 249.662L297.405 249.162L299.199 249.162L299.199 249.662L299.199 250.162L297.405 250.162L297.405 249.662ZM300.992 249.662L300.992 249.162L302.785 249.162L302.785 249.662L302.785 250.162L300.992 250.162L300.992 249.662ZM304.579 249.662L304.579 249.162L306.372 249.162L306.372 249.662L306.372 250.162L304.579 250.162L304.579 249.662ZM308.165 249.662L308.165 249.162L309.062 249.162L309.062 249.662L309.062 250.162L308.165 250.162L308.165 249.662ZM309.062 249.662L309.062 249.162C309.303 249.162 309.537 249.138 309.764 249.093L309.861 249.584L309.958 250.074C309.668 250.132 309.368 250.162 309.062 250.162L309.062 249.662ZM311.335 248.973L311.057 248.557C311.449 248.295 311.786 247.957 312.049 247.566L312.464 247.844L312.88 248.122C312.545 248.622 312.114 249.053 311.613 249.388L311.335 248.973ZM313.075 246.369L312.585 246.272C312.63 246.046 312.653 245.811 312.653 245.571L313.153 245.571L313.653 245.571C313.653 245.877 313.623 246.176 313.566 246.466L313.075 246.369ZM313.153 245.571L312.653 245.571L312.653 244.663L313.153 244.663L313.653 244.663L313.653 245.571L313.153 245.571ZM313.153 242.849L312.653 242.849L312.653 241.035L313.153 241.035L313.653 241.035L313.653 242.849L313.153 242.849ZM313.153 239.221L312.653 239.221L312.653 237.406L313.153 237.406L313.653 237.406L313.653 239.221L313.153 239.221ZM313.153 235.592L312.653 235.592L312.653 233.778L313.153 233.778L313.653 233.778L313.653 235.592L313.153 235.592ZM313.153 231.964L312.653 231.964L312.653 230.149L313.153 230.149L313.653 230.149L313.653 231.964L313.153 231.964ZM313.153 228.335L312.653 228.335L312.653 226.521L313.153 226.521L313.653 226.521L313.653 228.335L313.153 228.335ZM313.153 224.706L312.653 224.706L312.653 222.892L313.153 222.892L313.653 222.892L313.653 224.706L313.153 224.706ZM313.153 221.078L312.653 221.078L312.653 219.264L313.153 219.264L313.653 219.264L313.653 221.078L313.153 221.078ZM313.153 217.449L312.653 217.449L312.653 215.635L313.153 215.635L313.653 215.635L313.653 217.449L313.153 217.449ZM313.153 213.821L312.653 213.821L312.653 212.006L313.153 212.006L313.653 212.006L313.653 213.821L313.153 213.821ZM313.153 210.192L312.653 210.192L312.653 208.378L313.153 208.378L313.653 208.378L313.653 210.192L313.153 210.192ZM313.153 206.564L312.653 206.564L312.653 204.749L313.153 204.749L313.653 204.749L313.653 206.564L313.153 206.564ZM313.153 202.935L312.653 202.935L312.653 201.121L313.153 201.121L313.653 201.121L313.653 202.935L313.153 202.935ZM313.153 199.307L312.653 199.307L312.653 197.492L313.153 197.492L313.653 197.492L313.653 199.307L313.153 199.307ZM313.153 195.678L312.653 195.678L312.653 193.864L313.153 193.864L313.653 193.864L313.653 195.678L313.153 195.678ZM313.153 192.049L312.653 192.049L312.653 190.235L313.153 190.235L313.653 190.235L313.653 192.049L313.153 192.049ZM313.153 188.421L312.653 188.421L312.653 186.607L313.153 186.607L313.653 186.607L313.653 188.421L313.153 188.421ZM313.153 184.792L312.653 184.792L312.653 182.978L313.153 182.978L313.653 182.978L313.653 184.792L313.153 184.792ZM313.153 181.164L312.653 181.164L312.653 179.349L313.153 179.349L313.653 179.349L313.653 181.164L313.153 181.164ZM313.153 177.535L312.653 177.535L312.653 175.721L313.153 175.721L313.653 175.721L313.653 177.535L313.153 177.535ZM313.153 173.907L312.653 173.907L312.653 172.092L313.153 172.092L313.653 172.092L313.653 173.907L313.153 173.907ZM313.153 170.278L312.653 170.278L312.653 168.464L313.153 168.464L313.653 168.464L313.653 170.278L313.153 170.278ZM313.153 166.65L312.653 166.65L312.653 164.835L313.153 164.835L313.653 164.835L313.653 166.65L313.153 166.65ZM313.153 163.021L312.653 163.021L312.653 161.207L313.153 161.207L313.653 161.207L313.653 163.021L313.153 163.021ZM313.153 159.392L312.653 159.392L312.653 157.578L313.153 157.578L313.653 157.578L313.653 159.392L313.153 159.392ZM313.153 155.764L312.653 155.764L312.653 153.95L313.153 153.95L313.653 153.95L313.653 155.764L313.153 155.764ZM313.153 152.135L312.653 152.135L312.653 150.321L313.153 150.321L313.653 150.321L313.653 152.135L313.153 152.135ZM313.153 148.507L312.653 148.507L312.653 146.692L313.153 146.692L313.653 146.692L313.653 148.507L313.153 148.507ZM313.153 144.878L312.653 144.878L312.653 143.064L313.153 143.064L313.653 143.064L313.653 144.878L313.153 144.878ZM313.153 141.25L312.653 141.25L312.653 139.435L313.153 139.435L313.653 139.435L313.653 141.25L313.153 141.25ZM313.153 137.621L312.653 137.621L312.653 135.807L313.153 135.807L313.653 135.807L313.653 137.621L313.153 137.621ZM313.153 133.993L312.653 133.993L312.653 132.178L313.153 132.178L313.653 132.178L313.653 133.993L313.153 133.993ZM313.153 130.364L312.653 130.364L312.653 128.55L313.153 128.55L313.653 128.55L313.653 130.364L313.153 130.364ZM313.153 126.735L312.653 126.735L312.653 124.921L313.153 124.921L313.653 124.921L313.653 126.735L313.153 126.735ZM313.153 123.107L312.653 123.107L312.653 121.293L313.153 121.293L313.653 121.293L313.653 123.107L313.153 123.107ZM313.153 119.478L312.653 119.478L312.653 118.571L313.153 118.571L313.653 118.571L313.653 119.478L313.153 119.478ZM313.153 118.571L312.653 118.571C312.653 118.331 312.63 118.096 312.585 117.87L313.075 117.773L313.566 117.676C313.623 117.966 313.653 118.265 313.653 118.571L313.153 118.571ZM312.464 116.298L312.049 116.576C311.786 116.184 311.449 115.847 311.057 115.585L311.335 115.169L311.613 114.754C312.114 115.089 312.545 115.52 312.88 116.02L312.464 116.298ZM309.861 114.558L309.764 115.048C309.537 115.004 309.303 114.98 309.062 114.98L309.062 114.48L309.062 113.98C309.368 113.98 309.668 114.01 309.958 114.067L309.861 114.558ZM309.062 114.48L309.062 114.98L307.994 114.98L307.994 114.48L307.994 113.98L309.062 113.98L309.062 114.48ZM305.857 114.48L305.857 114.98L303.719 114.98L303.719 114.48L303.719 113.98L305.857 113.98L305.857 114.48ZM301.582 114.48L301.582 114.98L300.514 114.98L300.514 114.48L300.514 113.98L301.582 113.98L301.582 114.48Z" fill="#989898"/>
<path d="M53.5449 92.5349L59.3591 82.5585L47.8122 82.5115L53.5449 92.5349ZM53.6611 63.9805L52.6611 63.9764L52.5816 83.5309L53.5816 83.535L54.5815 83.5391L54.6611 63.9845L53.6611 63.9805Z" fill="#1C1C1C"/>
<path d="M53.5449 159.535L59.3591 149.558L47.8122 149.512L53.5449 159.535ZM53.6611 130.98L52.6611 130.976L52.5816 150.531L53.5816 150.535L54.5815 150.539L54.6611 130.985L53.6611 130.98Z" fill="#1C1C1C"/>
<path d="M53.5449 226.535L59.3591 216.558L47.8122 216.512L53.5449 226.535ZM53.6611 197.98L52.6611 197.976L52.5816 217.531L53.5816 217.535L54.5815 217.539L54.6611 197.985L53.6611 197.98Z" fill="#1C1C1C"/>
</svg>
