<svg width="136" height="48" viewBox="0 0 136 48" fill="none" xmlns="http://www.w3.org/2000/svg">
    <path
        d="M4.15985 17.1299L9.70124 27.7072C10.0707 28.4266 11.0234 29.0099 11.7817 29.0099L23.0978 28.9904C23.8756 28.9904 24.1866 28.4071 23.8172 27.6877L18.2758 17.0909C17.9064 16.3716 16.9731 15.7882 16.1954 15.7882L4.87926 15.8077C4.85981 15.8077 4.84037 15.8077 4.82092 15.8077C4.08207 15.8466 3.79042 16.4105 4.15985 17.1299Z"
        fill="#ffffff" />
    <path
        d="M25.6646 29.4376L29.0283 35.6984C29.2617 36.1262 29.8255 36.4762 30.2728 36.4567L37.0197 36.3789C37.4863 36.3789 37.6612 36.029 37.428 35.6013L34.0836 29.3599C33.8504 28.9321 33.2865 28.5821 32.8393 28.6016L26.0924 28.6794H26.0729C25.6258 28.6794 25.4313 29.0099 25.6646 29.4376Z"
        fill="#ffffff" />
    <path
        d="M25.703 5.63874L18.9561 14.2911C18.4894 14.8744 18.4311 15.9438 18.82 16.6632L24.4585 27.1822C24.8474 27.9016 25.528 27.9987 25.9946 27.4154L32.7415 18.7631C33.2082 18.1798 33.2664 17.1104 32.8775 16.391L27.239 5.87207C27.0057 5.44431 26.6946 5.23043 26.364 5.24987C26.1307 5.26932 25.8974 5.38598 25.703 5.63874Z"
        fill="#ffffff" />
    <path
        d="M24.1285 29.5542L20.1037 34.7067C19.8315 35.0567 19.7927 35.6984 20.0259 36.1261L23.3896 42.3869C23.623 42.8147 24.0313 42.873 24.3035 42.523L28.3283 37.3705C28.6005 37.0205 28.6394 36.3788 28.406 35.9512L25.0423 29.6903C24.9062 29.4375 24.7118 29.3209 24.5174 29.3209C24.3813 29.3209 24.2452 29.3987 24.1285 29.5542Z"
        fill="#ffffff" />
    <path d="M100.113 14.4272H97.8575V31.3819H100.113V14.4272Z" fill="#ffffff" />
    <path
        d="M57.5129 19.7936C54.2852 19.7936 51.6603 22.4185 51.6603 25.6461V36.4372H53.9158V25.6461H53.9352C53.9352 23.6435 55.549 22.0296 57.5518 22.0296C59.5544 22.0296 61.1682 23.6435 61.1682 25.6461C61.1682 27.6488 59.5544 29.2626 57.5518 29.2626C56.424 29.2626 55.4129 28.7376 54.7519 27.9405V30.7986C55.5685 31.2458 56.5212 31.4986 57.5129 31.4986C60.7405 31.4986 63.3654 28.8738 63.3654 25.6461C63.3654 22.4185 60.7405 19.7936 57.5129 19.7936Z"
        fill="#ffffff" />
    <path
        d="M70.2088 19.7936C66.9811 19.7936 64.3563 22.4185 64.3563 25.6461V36.4372H66.6117V25.6461H66.6312C66.6312 23.6435 68.2449 22.0296 70.2476 22.0296C72.2503 22.0296 73.8641 23.6435 73.8641 25.6461C73.8641 27.6488 72.2503 29.2626 70.2476 29.2626C69.1199 29.2626 68.1089 28.7376 67.4477 27.9405V30.7986C68.2644 31.2458 69.2171 31.4986 70.2088 31.4986C73.4363 31.4986 76.0612 28.8738 76.0612 25.6461C76.0417 22.4185 73.4363 19.7936 70.2088 19.7936Z"
        fill="#ffffff" />
    <path
        d="M44.4467 14.4272C41.2191 14.4272 38.5942 17.0521 38.5942 20.2796V31.3819H40.8496V20.2796C40.8496 18.2964 42.4634 16.6827 44.4467 16.6827C46.4299 16.6827 48.0437 18.2964 48.0437 20.2796V21.5435H42.2495V23.799H48.0437V31.3819H50.2797V20.2796C50.2797 17.0521 47.6742 14.4272 44.4467 14.4272Z"
        fill="#ffffff" />
    <path
        d="M90.3329 20.2796C90.3329 18.2964 91.9468 16.6827 93.93 16.6827H96.7687V14.4272H93.93C90.7023 14.4272 88.0775 17.0521 88.0775 20.2796V31.3819H90.3329V24.0322H96.5548V21.7768H90.3329V20.2796Z"
        fill="#ffffff" />
    <path
        d="M109.524 19.8714V26.9488C109.504 28.3682 108.338 29.5154 106.899 29.5154C105.46 29.5154 104.313 28.3682 104.275 26.9488V19.8714H102.019V26.9488C102.038 29.2237 103.633 31.1291 105.771 31.6347V36.4372H108.027V31.6347C110.146 31.1291 111.741 29.2237 111.779 26.9488V19.8714H109.524Z"
        fill="#ffffff" />
    <path
        d="M122.182 26.5211C121.949 27.435 121.365 28.2516 120.49 28.7571C118.779 29.7488 116.582 29.1655 115.571 27.435C114.579 25.7239 115.163 23.5269 116.893 22.5158C118.273 21.7186 119.965 21.952 121.074 22.9435L116.018 25.8601L117.146 27.8044L124.223 23.7213C124.107 23.3713 123.951 23.0213 123.757 22.6908C122.143 19.891 118.565 18.9382 115.766 20.552C112.966 22.1658 112.013 25.7434 113.627 28.5433C115.24 31.3431 118.819 32.2959 121.618 30.6821C123.212 29.7682 124.223 28.1933 124.476 26.5017H122.182V26.5211Z"
        fill="#ffffff" />
    <path
        d="M131.553 19.7936C130.192 19.7936 128.947 20.2603 127.956 21.0381V19.852H125.701V31.4014H127.956V25.6461C127.956 23.6629 129.57 22.0491 131.553 22.0491H132V19.7936H131.553Z"
        fill="#ffffff" />
    <path
        d="M84.5976 26.035L78.9979 23.4296C78.7257 23.2934 78.609 22.9629 78.7451 22.6907C78.8423 22.4963 79.0367 22.3796 79.2506 22.3796H85.6476V20.1047H79.2506C78.2007 20.1047 77.1896 20.7075 76.7036 21.7186C76.0424 23.1185 76.6452 24.7906 78.0452 25.4517L83.6449 28.0571C83.9171 28.1932 84.0338 28.5237 83.9171 28.796C83.8199 28.9904 83.6255 29.1071 83.4116 29.1071H76.8591V31.3625H83.4116C84.4615 31.3625 85.4726 30.7597 85.9586 29.7487C86.6198 28.3682 85.9975 26.6961 84.5976 26.035Z"
        fill="#ffffff" />
</svg>