<svg width="140" height="140" viewBox="0 0 140 140" fill="none" xmlns="http://www.w3.org/2000/svg">
<g id="icon-frontend">
<g id="Group 3162">
<path id="Ellipse 3847" d="M90.8826 69.9998C90.8826 86.3959 88.4408 101.196 84.5249 111.86C82.5655 117.197 80.2562 121.445 77.7423 124.341C75.2262 127.239 72.5957 128.687 69.9669 128.687C67.3382 128.687 64.7076 127.239 62.1915 124.341C59.6776 121.445 57.3683 117.197 55.4089 111.86C51.4931 101.196 49.0513 86.3959 49.0513 69.9998C49.0513 53.6038 51.4931 38.804 55.4089 28.1392C57.3683 22.8028 59.6776 18.5544 62.1915 15.6586C64.7076 12.7602 67.3382 11.3125 69.9669 11.3125C72.5957 11.3125 75.2262 12.7602 77.7423 15.6586C80.2562 18.5544 82.5655 22.8028 84.5249 28.1392C88.4408 38.804 90.8826 53.6038 90.8826 69.9998Z" stroke="white" stroke-width="2"/>
<path id="Ellipse 3848" d="M80.4257 88.1144C66.2263 96.3124 52.1884 101.598 40.9945 103.539C35.3934 104.51 30.5595 104.634 26.7947 103.905C23.0266 103.175 20.4575 101.621 19.1432 99.3446C17.8288 97.068 17.7672 94.066 19.0193 90.4378C20.2702 86.8128 22.7948 82.6887 26.4365 78.3236C33.7146 69.6 45.3107 60.0854 59.5101 51.8874C73.7095 43.6894 87.7474 38.4042 98.9413 36.463C104.542 35.4917 109.376 35.3674 113.141 36.0966C116.909 36.8264 119.478 38.3807 120.793 40.6572C122.107 42.9338 122.169 45.9358 120.917 49.564C119.666 53.189 117.141 57.3131 113.499 61.6782C106.221 70.4018 94.6251 79.9164 80.4257 88.1144Z" stroke="white" stroke-width="2"/>
<path id="Ellipse 3849" d="M59.5744 88.3507C73.7738 96.5488 87.8117 101.834 99.0056 103.775C104.607 104.746 109.441 104.871 113.205 104.142C116.974 103.412 119.543 101.857 120.857 99.5809C122.171 97.3043 122.233 94.3024 120.981 90.6742C119.73 87.0492 117.205 82.925 113.564 78.56C106.286 69.8364 94.6895 60.3218 80.4901 52.1238C66.2907 43.9257 52.2527 38.6405 41.0588 36.6993C35.4577 35.728 30.6238 35.6038 26.859 36.3329C23.0909 37.0627 20.5219 38.617 19.2075 40.8936C17.8931 43.1701 17.8316 46.1721 19.0836 49.8003C20.3346 53.4253 22.8591 57.5494 26.5009 61.9145C33.7789 70.6381 45.375 80.1527 59.5744 88.3507Z" stroke="white" stroke-width="2"/>
</g>
</g>
</svg>
