<svg width="142" height="140" viewBox="0 0 142 140" fill="none" xmlns="http://www.w3.org/2000/svg">
<g id="icon-operational">
<g id="Group 3155">
<g id="Group 3151">
<path id="Vector 1669" d="M69.6399 115.42L69.3145 116.366C69.5216 116.437 69.7463 116.438 69.9542 116.369L69.6399 115.42ZM0.770023 91.7194L8.34704 100.433L12.1045 89.5142L0.770023 91.7194ZM141.23 91.7194L129.922 89.3813L133.551 100.343L141.23 91.7194ZM69.9653 114.474L9.6056 93.7025L8.95479 95.5936L69.3145 116.366L69.9653 114.474ZM132.372 93.5986L69.3256 114.471L69.9542 116.369L133 95.4973L132.372 93.5986Z" fill="white"/>
<path id="Vector 1670" d="M69.9047 115.148L69.2733 115.924L69.8996 116.434L70.5299 115.929L69.9047 115.148ZM4.77491 62.1205L8.88435 72.9115L16.1749 63.9571L4.77491 62.1205ZM136.098 62.1205L124.684 63.8668L131.903 72.8787L136.098 62.1205ZM70.536 114.373L12.3855 67.0275L11.1228 68.5784L69.2733 115.924L70.536 114.373ZM128.449 66.9671L69.2794 114.368L70.5299 115.929L129.699 68.528L128.449 66.9671Z" fill="white"/>
<path id="Vector 1671" d="M70.172 114.775L69.3597 115.359L70.1654 116.481L70.9799 115.365L70.172 114.775ZM5.30812 24.4115L6.44916 35.902L15.8297 29.1685L5.30812 24.4115ZM136.099 24.4115L125.541 29.0872L134.87 35.8928L136.099 24.4115ZM70.9844 114.192L11.3687 31.1397L9.74392 32.306L69.3597 115.359L70.9844 114.192ZM129.987 31.0928L69.3642 114.186L70.9799 115.365L131.603 32.2715L129.987 31.0928Z" fill="white"/>
<path id="Vector 1672" d="M7.22217 115.588L134.778 115.588" stroke="white" stroke-width="2" stroke-linecap="round"/>
</g>
</g>
</g>
</svg>
