<svg width="140" height="140" viewBox="0 0 140 140" fill="none" xmlns="http://www.w3.org/2000/svg">
<g id="icon-pursuing">
<g id="Group 3161">
<g id="Vector 1675">
<path d="M131.648 105.426L69.35 11.8008L7.47767 106.774C6.30674 108.571 5.78627 110.84 7.00024 112.608C19.8213 131.287 109.68 135.133 131.402 113.337C133.519 111.214 133.309 107.922 131.648 105.426Z" fill="#1C1C1C"/>
<path d="M69.35 11.8008L131.648 105.426C133.309 107.922 133.519 111.214 131.402 113.337C109.68 135.133 19.8213 131.287 7.00024 112.608C5.78627 110.84 6.30674 108.571 7.47767 106.774L69.35 11.8008ZM69.35 11.8008L69.35 96.4649" stroke="white" stroke-width="2"/>
</g>
<path id="Vector 1676" d="M133.425 109.581C84.0229 87.1767 32.5779 98.2357 11.9627 107.885" stroke="white" stroke-width="2" stroke-dasharray="4 8 12 16"/>
<circle id="Ellipse 3846" cx="69.4428" cy="97.153" r="6.8932" fill="#1C1C1C" stroke="white" stroke-width="2"/>
</g>
</g>
</svg>
