<svg width="45" height="21" viewBox="0 0 45 21" fill="none" xmlns="http://www.w3.org/2000/svg">
<g id="Kido">
<path d="M8.45373 10.7958C9.02353 10.7958 9.19448 10.8813 9.45089 11.1947C10.1062 12.0209 13.8384 17.7759 14.0663 18.1178C14.3227 18.5167 13.8384 18.9155 13.2116 18.9155H12.7842C12.6133 18.9155 12.5563 19.001 12.5278 19.2004L12.4708 19.6563C12.4424 19.8842 12.5278 19.9697 12.7273 19.9697C13.0691 19.9697 14.6361 19.8842 16.317 19.8842C18.1119 19.8842 18.8811 19.9697 19.223 19.9697C19.4794 19.9697 19.5364 19.9127 19.5934 19.6848L19.7073 19.2004C19.7358 19.058 19.6504 18.9155 19.4509 18.9155H18.6247C17.9979 18.9155 17.0863 18.2318 16.5734 17.6335C15.8897 16.8072 11.7016 10.7388 11.5022 10.34C11.901 9.88414 18.9096 3.6163 20.0777 2.70461C20.733 2.19179 21.4737 1.76444 22.3284 1.76444H23.2116C23.4111 1.76444 23.4396 1.65048 23.4965 1.47953L23.6105 0.966711C23.639 0.824261 23.5535 0.7103 23.2971 0.7103C23.0407 0.7103 22.243 0.795771 20.5336 0.795771C18.8811 0.795771 17.6845 0.7103 17.3996 0.7103C17.2287 0.7103 17.1432 0.767281 17.0863 0.938222L16.9723 1.45104C16.9438 1.5935 17.0008 1.73595 17.2002 1.73595H17.5421C18.3113 1.73595 18.4253 2.19179 18.0264 2.70461C16.9153 4.10063 13.6105 6.94965 11.0748 9.20037C10.3056 9.91263 9.93522 9.9981 8.71014 9.9981L10.8469 3.27442C11.1888 2.22028 11.7301 1.76444 12.6988 1.76444H13.3825C13.6105 1.76444 13.6959 1.73595 13.7244 1.53651L13.8099 0.995201C13.8384 0.824261 13.8099 0.7103 13.6389 0.7103C13.2971 0.7103 12.4424 0.795771 10.1631 0.795771C8.2543 0.795771 7.22865 0.7103 6.97224 0.7103C6.77281 0.7103 6.68734 0.73879 6.63036 0.881241L6.43093 1.47953C6.37395 1.65048 6.45942 1.76444 6.68734 1.76444H7.39959C8.48222 1.76444 8.73863 2.33424 8.33977 3.58781L3.95228 17.2061C3.58191 18.3742 2.86966 18.9155 2.12891 18.9155H1.33119C1.10327 18.9155 1.04629 19.001 1.0178 19.1434L0.903836 19.6563C0.875346 19.8272 0.960817 19.9697 1.13176 19.9697C1.33119 19.9697 2.18589 19.8842 4.32266 19.8842C6.25999 19.8842 7.51356 19.9697 7.82695 19.9697C8.08336 19.9697 8.16883 19.8842 8.19732 19.7417L8.31128 19.2004C8.33977 19.001 8.2543 18.9155 8.11185 18.9155H7.39959C6.48791 18.9155 6.03207 18.2887 6.43093 17.0352L8.45373 10.7958Z" fill="#1E1E1E"/>
<path d="M19.6856 20.1691C22.0503 20.1691 24.3295 17.434 24.5004 17.2061C24.5859 17.0637 24.5574 17.0067 24.4435 16.8642L24.2155 16.6648C24.0731 16.5223 23.9591 16.5223 23.9022 16.6078C23.7597 16.8642 22.2212 18.4882 21.6229 18.6021C21.395 18.5451 21.3096 18.3742 21.3096 18.1178C21.3096 17.9184 21.4235 17.2916 21.8224 16.2374L23.4748 11.9069C23.9876 10.5394 24.4435 9.25735 24.4435 8.74453C24.4435 8.2602 24.1016 8.03227 23.7597 8.03227C21.9363 7.9468 19.0303 11.3656 18.9164 11.5366C18.8309 11.6505 18.8879 11.7075 19.0018 11.793L19.2298 12.0494C19.3152 12.1349 19.4292 12.1349 19.5432 12.0209C19.999 11.5651 21.338 10.0266 21.8224 10.0266C22.0503 10.0266 22.2212 10.1405 22.2212 10.397C22.2212 10.7388 21.9933 11.3086 21.7084 12.0779L20.8822 14.3001C19.6856 17.491 19.2013 18.8016 19.2013 19.4568C19.2013 19.9127 19.4007 20.1406 19.6856 20.1691Z" fill="#1E1E1E"/>
<path d="M35.3583 1.62199C36.1275 1.62199 36.27 2.19179 36.0705 2.7331L33.8768 8.97245C33.3925 8.40265 32.8511 8.03227 32.0819 8.03227C30.1731 8.03227 28.5206 9.45678 27.609 10.34C25.2728 12.6477 23.6773 16.038 23.6773 18.2887C23.6773 19.5138 24.532 20.1691 25.5007 20.1691C27.438 20.1691 30.1161 17.548 31.5121 15.3258L31.74 15.3827C31.1132 17.0067 30.4865 18.944 30.4865 19.5138C30.4865 20.0266 30.7998 20.1691 31.2557 20.1691C32.7657 20.1691 35.2158 17.8899 35.4153 17.6335C35.5007 17.5195 35.5007 17.4055 35.4153 17.3486L35.1304 17.0637C35.0449 16.9497 34.9309 16.9497 34.817 17.0352C34.6745 17.2061 33.307 18.5167 32.8226 18.5167C32.4238 18.5167 32.4523 18.0893 32.7087 17.2061C33.193 15.4967 38.1788 2.1633 38.6062 1.16614C38.7201 0.938222 38.6631 0.65332 38.2643 0.65332H34.76C34.5036 0.65332 34.4466 0.7103 34.4181 0.824261L34.2472 1.42256C34.2187 1.50802 34.2472 1.62199 34.4751 1.62199H35.3583ZM26.5833 18.7161C26.1844 18.7161 25.7571 18.4027 25.7571 17.8044C25.7571 15.1833 28.777 8.94396 31.4551 8.94396C32.3668 8.94396 32.9651 9.48527 32.9651 10.8243C32.9651 11.9354 31.911 13.7303 31.1132 14.8129C29.9736 16.3799 27.7799 18.7161 26.5833 18.7161Z" fill="#1E1E1E"/>
<path d="M37.765 20.1691C41.8961 20.1691 44.3747 14.4995 44.3747 11.3656C44.3747 9.42829 43.2351 8.03227 41.3263 8.03227C37.5371 8.03227 34.8305 12.9041 34.8305 16.4939C34.8305 18.6591 36.198 20.1691 37.765 20.1691ZM37.3377 18.8016C36.6539 18.8016 36.0271 18.2602 36.0271 17.3486C36.0271 16.0095 36.7109 14.2716 37.6795 12.7332C39.104 10.4254 40.614 9.34282 41.8106 9.34282C42.7508 9.34282 43.2636 10.0551 43.2351 10.9383C43.2351 12.8186 40.3006 18.8016 37.3377 18.8016Z" fill="#1E1E1E"/>
</g>
</svg>
