<svg width="1480" height="446" viewBox="0 0 1480 446" fill="none" xmlns="http://www.w3.org/2000/svg">
<g id="wearekido">
<path id="Vector" d="M41.9663 51.6263L45.1404 41.7512C54.6628 42.1039 69.8281 42.8092 84.9934 42.8092C101.569 42.8092 114.971 42.1039 130.137 41.7512L127.668 51.6263C105.096 53.037 102.98 54.4477 102.275 64.3227C99.806 97.8274 97.3372 164.837 94.5157 225.145C119.909 173.301 154.119 109.466 179.512 54.095C181.275 50.9209 182.333 46.6887 183.039 42.8092C189.387 43.1619 204.2 42.4566 211.606 40.6932C210.548 59.3852 209.842 143.323 208.079 228.319C265.213 128.863 284.611 93.9479 298.013 66.0862C302.245 56.9165 300.834 54.4477 293.428 53.7423L274.383 51.6263L276.852 41.7512C284.963 41.7512 301.539 42.8092 313.531 42.8092C327.638 42.8092 339.276 41.7512 351.267 41.7512L349.151 51.6263C329.754 53.037 324.464 55.8584 316.705 67.1442C284.963 115.109 225.36 219.502 200.673 266.056C189.74 267.114 182.333 268.877 178.101 270.993L175.985 269.583C177.748 229.73 178.101 152.845 179.865 79.488C136.838 166.953 104.744 226.203 87.1094 266.056C76.529 267.467 70.1808 268.525 64.5379 270.993L62.4218 269.23C64.1852 230.788 69.1227 103.47 68.4174 63.2647C68.0647 56.2111 67.0066 54.4477 60.6584 53.3897C53.9575 52.6843 47.6092 51.9789 41.9663 51.6263ZM392.955 211.038L394.013 228.672C377.085 254.77 347.812 270.288 318.187 270.288C288.915 270.288 272.691 252.301 272.691 221.265C272.691 187.055 289.267 148.613 318.892 125.689C333 115.109 348.87 109.818 365.094 109.818C394.719 109.818 404.594 127.452 404.594 145.792C404.594 162.368 391.897 171.537 379.553 177.18C361.214 185.645 327.709 193.051 307.254 195.52C305.843 202.221 304.785 212.096 304.785 220.207C304.785 240.31 312.191 255.476 331.942 255.476C356.277 255.476 375.674 239.605 387.665 211.038H392.955ZM361.214 120.399C346.754 120.399 323.83 134.153 309.37 184.234C325.241 182.471 347.46 176.828 357.687 171.89C371.089 165.542 377.79 154.609 377.79 140.854C377.79 127.805 371.794 120.399 361.214 120.399ZM600.323 37.1663L602.792 38.5771C601.734 59.7379 601.381 116.167 602.087 164.131C602.792 208.922 603.497 233.609 605.261 245.953C605.966 251.949 608.082 254.065 613.725 254.417L632.77 256.534L631.007 266.409C622.19 266.409 603.497 265.351 586.569 265.351C571.051 265.351 555.18 266.056 542.836 266.409L545.305 256.534C567.171 254.77 568.935 253.712 569.287 242.779C569.993 216.681 569.993 194.814 569.993 175.064C537.899 175.064 514.622 177.18 502.631 178.944C484.291 208.569 472.653 229.73 468.421 238.194C461.72 252.654 466.305 254.77 492.756 256.886L490.64 266.409C479.707 266.409 463.131 265.351 451.492 265.351C433.505 265.351 420.456 266.409 411.992 266.409L414.461 256.886C434.211 254.77 439.501 252.654 452.197 233.257C474.416 200.105 551.301 82.6622 564.35 61.1486C567.524 56.2111 569.993 51.6263 571.051 48.0994L571.756 44.9253C580.221 44.9253 593.975 42.4566 600.323 37.1663ZM570.345 162.72C570.698 137.327 570.698 102.412 571.404 70.671C557.649 91.8319 542.836 114.756 511.448 165.542C525.202 163.779 543.189 163.073 570.345 162.72ZM637.947 128.51L641.474 118.635C658.755 117.225 680.974 114.403 695.787 109.818C694.023 123.573 686.264 152.14 682.032 169.069H683.443C703.546 128.863 720.827 109.818 741.283 109.818C754.332 109.818 758.917 120.751 758.917 128.158C758.917 143.676 748.689 150.377 741.283 150.377C735.992 150.377 733.171 147.908 732.113 143.323C730.35 138.386 728.586 135.211 724.001 135.211C710.952 135.211 692.26 168.363 680.974 195.52C672.863 214.917 664.751 237.489 656.639 266.056C644.295 266.409 633.715 267.467 625.251 268.525C640.416 225.85 659.813 159.546 662.635 134.506C662.987 130.274 661.224 128.51 658.05 128.158C653.818 128.158 643.59 128.158 637.947 128.51ZM853.879 211.038L854.937 228.672C838.008 254.77 808.736 270.288 779.11 270.288C749.838 270.288 733.615 252.301 733.615 221.265C733.615 187.055 750.191 148.613 779.816 125.689C793.923 115.109 809.794 109.818 826.017 109.818C855.642 109.818 865.517 127.452 865.517 145.792C865.517 162.368 852.821 171.537 840.477 177.18C822.137 185.645 788.633 193.051 768.177 195.52C766.767 202.221 765.708 212.096 765.708 220.207C765.708 240.31 773.115 255.476 792.865 255.476C817.2 255.476 836.597 239.605 848.588 211.038H853.879ZM822.137 120.399C807.677 120.399 784.753 134.153 770.293 184.234C786.164 182.471 808.383 176.828 818.611 171.89C832.012 165.542 838.713 154.609 838.713 140.854C838.713 127.805 832.718 120.399 822.137 120.399ZM944.157 51.6263L947.684 41.7512C959.322 42.1039 976.603 42.8092 990.358 42.8092C1007.29 42.8092 1022.1 41.7512 1033.38 41.7512L1030.92 51.6263L1016.81 53.037C1009.05 53.7423 1006.23 54.8004 1003.76 61.1486C999.528 72.4344 989.653 103.47 977.661 147.555C1004.82 138.033 1070.06 77.3719 1084.52 59.3852C1087.7 55.8584 1085.93 54.095 1082.05 53.7423L1064.07 51.6263L1067.59 42.1039C1078.53 42.1039 1092.28 42.8092 1106.39 42.8092C1120.5 42.8092 1133.55 42.1039 1142.36 41.7512L1139.19 51.2736C1118.73 53.3897 1112.74 55.5057 1101.45 64.3227C1085.23 76.6666 1046.79 111.229 1013.28 138.738C1023.51 161.662 1057.37 231.846 1068.65 247.364C1072.53 253.359 1077.47 255.476 1098.63 256.886L1095.1 266.409C1077.82 265.351 1055.96 266.056 1037.97 269.23C1032.68 253.712 1000.94 193.404 987.889 163.426C984.715 156.372 982.246 153.903 975.193 156.725C964.26 195.167 955.442 227.261 951.21 246.658C950.152 252.654 951.916 254.417 959.675 255.123L976.251 256.886L972.724 266.409C963.554 266.409 942.041 265.351 926.17 265.351C910.299 265.351 894.429 266.409 884.554 266.409L887.728 256.886L902.54 255.123C911.357 254.065 914.179 251.243 916.295 244.542C921.585 230.082 928.991 206.453 944.862 151.435C955.442 114.403 965.67 78.0773 969.197 62.5593C970.608 55.8584 969.197 53.3897 961.085 52.6843L944.157 51.6263ZM1099.66 128.158L1103.19 118.283C1121.17 116.519 1146.21 114.403 1162.08 109.818L1163.14 110.876C1152.56 135.564 1127.87 213.154 1120.47 242.779C1119.06 249.127 1118.7 253.712 1122.94 253.712C1133.52 253.712 1150.09 236.078 1157.85 219.502L1164.9 226.908C1149.74 255.123 1128.58 270.288 1107.42 270.288C1086.96 270.288 1087.31 253.712 1094.37 231.141C1102.83 203.984 1117.65 160.604 1125.05 133.801C1126.46 129.216 1125.76 127.805 1121.52 127.805C1117.29 127.805 1107.42 127.805 1099.66 128.158ZM1322.35 219.502L1329.41 226.908C1316.71 252.301 1297.31 270.993 1274.04 270.993C1255.34 270.993 1255.34 250.891 1260.64 232.199C1261.69 228.672 1262.4 225.498 1263.46 221.971C1248.29 244.895 1223.6 270.288 1190.8 270.288C1168.59 270.288 1158.01 253.712 1158.01 230.435C1158.01 193.051 1179.17 148.966 1212.32 125.336C1224.66 116.167 1239.47 109.818 1257.46 109.818C1272.98 109.818 1284.62 114.403 1290.26 123.926C1304.01 80.1934 1309.66 59.0325 1311.77 49.1575C1312.83 44.22 1312.13 42.8092 1307.89 42.8092C1302.96 42.4566 1294.85 42.1039 1285.32 42.1039L1288.85 32.5815C1308.25 32.2288 1338.58 29.4074 1350.22 26.5859C1341.75 47.7468 1322.71 106.997 1303.31 176.475C1294.49 207.864 1289.56 226.908 1286.73 239.958C1285.32 246.306 1284.62 253.359 1289.56 253.359C1299.08 253.359 1314.6 236.431 1322.35 219.502ZM1190.1 230.435C1190.1 243.484 1195.04 253.359 1205.62 253.359C1221.13 253.359 1238.06 239.605 1254.99 213.507C1266.28 196.578 1282.15 160.252 1282.15 142.97C1282.15 132.037 1276.15 120.751 1261.34 120.751C1249 120.751 1238.06 125.689 1226.43 138.033C1206.68 158.841 1190.1 196.931 1190.1 230.435ZM1414.16 109.818C1447.32 109.818 1465.3 128.51 1465.3 162.72C1465.66 196.578 1448.02 236.783 1420.16 256.181C1405.35 266.409 1390.53 270.288 1372.55 270.288C1349.27 270.288 1321.06 261.118 1321.06 219.149C1321.06 184.587 1339.75 144.028 1368.67 124.278C1381.72 115.109 1397.24 109.818 1414.16 109.818ZM1413.46 120.046C1400.76 120.046 1389.48 126.394 1378.54 141.56C1363.38 162.368 1351.03 202.221 1351.03 227.966C1351.03 251.949 1362.67 260.06 1375.02 260.06C1385.6 260.06 1395.47 255.476 1404.64 244.542C1422.28 223.029 1436.03 178.238 1436.03 150.377C1436.03 132.743 1429.33 120.046 1413.46 120.046Z" fill="#101010"/>
</g>
</svg>
