<svg width="1480" height="446" viewBox="0 0 1480 446" fill="none" xmlns="http://www.w3.org/2000/svg">
<path d="M41.9664 51.6271L45.1405 41.752C54.6629 42.1047 69.8282 42.81 84.9935 42.81C101.569 42.81 114.971 42.1047 130.137 41.752L127.668 51.6271C105.096 53.0378 102.98 54.4485 102.275 64.3235C99.8061 97.8282 97.3373 164.838 94.5158 225.146C119.909 173.302 154.119 109.467 179.512 54.0958C181.275 50.9217 182.333 46.6895 183.039 42.81C189.387 43.1627 204.2 42.4574 211.606 40.694C210.548 59.386 209.842 143.324 208.079 228.32C265.213 128.864 284.611 93.9487 298.013 66.087C302.245 56.9173 300.834 54.4485 293.428 53.7431L274.383 51.6271L276.852 41.752C284.963 41.752 301.539 42.81 313.531 42.81C327.638 42.81 339.276 41.752 351.267 41.752L349.151 51.6271C329.754 53.0378 324.464 55.8592 316.705 67.145C284.963 115.11 225.36 219.503 200.673 266.057C189.74 267.115 182.333 268.878 178.101 270.994L175.985 269.584C177.748 229.731 178.101 152.846 179.865 79.4888C136.838 166.954 104.744 226.204 87.1095 266.057C76.5291 267.468 70.1809 268.526 64.538 270.994L62.4219 269.231C64.1853 230.789 69.1228 103.471 68.4175 63.2655C68.0648 56.2119 67.0067 54.4485 60.6585 53.3905C53.9576 52.6851 47.6093 51.9797 41.9664 51.6271ZM392.955 211.039L394.013 228.673C377.085 254.771 347.812 270.289 318.187 270.289C288.915 270.289 272.691 252.302 272.691 221.266C272.691 187.056 289.267 148.614 318.892 125.69C333 115.11 348.87 109.819 365.094 109.819C394.719 109.819 404.594 127.453 404.594 145.793C404.594 162.369 391.897 171.538 379.553 177.181C361.214 185.646 327.709 193.052 307.254 195.521C305.843 202.222 304.785 212.097 304.785 220.208C304.785 240.311 312.191 255.477 331.942 255.477C356.277 255.477 375.674 239.606 387.665 211.039H392.955ZM361.214 120.4C346.754 120.4 323.83 134.154 309.37 184.235C325.241 182.472 347.46 176.829 357.687 171.891C371.089 165.543 377.79 154.61 377.79 140.855C377.79 127.806 371.794 120.4 361.214 120.4ZM600.323 37.1671L602.792 38.5779C601.734 59.7387 601.381 116.168 602.087 164.132C602.792 208.923 603.497 233.61 605.261 245.954C605.966 251.95 608.082 254.066 613.725 254.418L632.77 256.535L631.007 266.41C622.19 266.41 603.497 265.352 586.569 265.352C571.051 265.352 555.18 266.057 542.836 266.41L545.305 256.535C567.171 254.771 568.935 253.713 569.287 242.78C569.993 216.682 569.993 194.815 569.993 175.065C537.899 175.065 514.622 177.181 502.631 178.945C484.291 208.57 472.653 229.731 468.421 238.195C461.72 252.655 466.305 254.771 492.756 256.887L490.64 266.41C479.707 266.41 463.131 265.352 451.492 265.352C433.505 265.352 420.456 266.41 411.992 266.41L414.461 256.887C434.211 254.771 439.501 252.655 452.197 233.258C474.416 200.106 551.301 82.663 564.35 61.1494C567.524 56.2119 569.993 51.6271 571.051 48.1002L571.756 44.9261C580.221 44.9261 593.975 42.4574 600.323 37.1671ZM570.345 162.721C570.698 137.328 570.698 102.413 571.404 70.6718C557.649 91.8327 542.836 114.757 511.448 165.543C525.202 163.78 543.189 163.074 570.345 162.721ZM637.947 128.511L641.474 118.636C658.755 117.226 680.974 114.404 695.787 109.819C694.023 123.574 686.264 152.141 682.032 169.07H683.443C703.546 128.864 720.827 109.819 741.283 109.819C754.332 109.819 758.917 120.752 758.917 128.159C758.917 143.677 748.689 150.378 741.283 150.378C735.992 150.378 733.171 147.909 732.113 143.324C730.35 138.387 728.586 135.212 724.001 135.212C710.952 135.212 692.26 168.364 680.974 195.521C672.863 214.918 664.751 237.49 656.639 266.057C644.295 266.41 633.715 267.468 625.251 268.526C640.416 225.851 659.813 159.547 662.635 134.507C662.987 130.275 661.224 128.511 658.05 128.159C653.818 128.159 643.59 128.159 637.947 128.511ZM853.879 211.039L854.937 228.673C838.008 254.771 808.736 270.289 779.11 270.289C749.838 270.289 733.615 252.302 733.615 221.266C733.615 187.056 750.191 148.614 779.816 125.69C793.923 115.11 809.794 109.819 826.017 109.819C855.642 109.819 865.517 127.453 865.517 145.793C865.517 162.369 852.821 171.538 840.477 177.181C822.137 185.646 788.633 193.052 768.177 195.521C766.767 202.222 765.708 212.097 765.708 220.208C765.708 240.311 773.115 255.477 792.865 255.477C817.2 255.477 836.597 239.606 848.588 211.039H853.879ZM822.137 120.4C807.677 120.4 784.753 134.154 770.293 184.235C786.164 182.472 808.383 176.829 818.611 171.891C832.012 165.543 838.713 154.61 838.713 140.855C838.713 127.806 832.718 120.4 822.137 120.4ZM944.157 51.6271L947.684 41.752C959.322 42.1047 976.603 42.81 990.358 42.81C1007.29 42.81 1022.1 41.752 1033.38 41.752L1030.92 51.6271L1016.81 53.0378C1009.05 53.7431 1006.23 54.8012 1003.76 61.1494C999.528 72.4352 989.653 103.471 977.661 147.556C1004.82 138.034 1070.06 77.3727 1084.52 59.386C1087.7 55.8592 1085.93 54.0958 1082.05 53.7431L1064.07 51.6271L1067.59 42.1047C1078.53 42.1047 1092.28 42.81 1106.39 42.81C1120.5 42.81 1133.55 42.1047 1142.36 41.752L1139.19 51.2744C1118.73 53.3905 1112.74 55.5065 1101.45 64.3235C1085.23 76.6674 1046.79 111.23 1013.28 138.739C1023.51 161.663 1057.37 231.847 1068.65 247.365C1072.53 253.36 1077.47 255.477 1098.63 256.887L1095.1 266.41C1077.82 265.352 1055.96 266.057 1037.97 269.231C1032.68 253.713 1000.94 193.405 987.889 163.427C984.715 156.373 982.246 153.904 975.193 156.726C964.26 195.168 955.442 227.262 951.21 246.659C950.152 252.655 951.916 254.418 959.675 255.124L976.251 256.887L972.724 266.41C963.554 266.41 942.041 265.352 926.17 265.352C910.299 265.352 894.429 266.41 884.554 266.41L887.728 256.887L902.54 255.124C911.357 254.066 914.179 251.244 916.295 244.543C921.585 230.083 928.991 206.454 944.862 151.436C955.442 114.404 965.67 78.0781 969.197 62.5601C970.608 55.8592 969.197 53.3905 961.085 52.6851L944.157 51.6271ZM1158.56 42.1047C1168.78 42.1047 1173.72 48.8056 1173.37 59.386C1172.66 72.0825 1163.49 79.8415 1153.27 79.8415C1144.8 79.8415 1138.1 73.8459 1138.45 62.9128C1139.16 49.511 1149.74 42.1047 1158.56 42.1047ZM1099.66 128.159L1103.19 118.284C1121.17 116.52 1146.21 114.404 1162.08 109.819L1163.14 110.877C1152.56 135.565 1127.87 213.155 1120.47 242.78C1119.06 249.128 1118.7 253.713 1122.94 253.713C1133.52 253.713 1150.09 236.079 1157.85 219.503L1164.9 226.909C1149.74 255.124 1128.58 270.289 1107.42 270.289C1086.96 270.289 1087.31 253.713 1094.37 231.142C1102.83 203.985 1117.65 160.605 1125.05 133.802C1126.46 129.217 1125.76 127.806 1121.52 127.806C1117.29 127.806 1107.42 127.806 1099.66 128.159ZM1322.35 219.503L1329.41 226.909C1316.71 252.302 1297.31 270.994 1274.04 270.994C1255.34 270.994 1255.34 250.892 1260.64 232.2C1261.69 228.673 1262.4 225.499 1263.46 221.972C1248.29 244.896 1223.6 270.289 1190.8 270.289C1168.59 270.289 1158.01 253.713 1158.01 230.436C1158.01 193.052 1179.17 148.967 1212.32 125.337C1224.66 116.168 1239.47 109.819 1257.46 109.819C1272.98 109.819 1284.62 114.404 1290.26 123.927C1304.01 80.1942 1309.66 59.0333 1311.77 49.1583C1312.83 44.2208 1312.13 42.81 1307.89 42.81C1302.96 42.4574 1294.85 42.1047 1285.32 42.1047L1288.85 32.5823C1308.25 32.2296 1338.58 29.4082 1350.22 26.5867C1341.75 47.7476 1322.71 106.998 1303.31 176.476C1294.49 207.865 1289.56 226.909 1286.73 239.959C1285.32 246.307 1284.62 253.36 1289.56 253.36C1299.08 253.36 1314.6 236.432 1322.35 219.503ZM1190.1 230.436C1190.1 243.485 1195.04 253.36 1205.62 253.36C1221.13 253.36 1238.06 239.606 1254.99 213.508C1266.28 196.579 1282.15 160.253 1282.15 142.971C1282.15 132.038 1276.15 120.752 1261.34 120.752C1249 120.752 1238.06 125.69 1226.43 138.034C1206.68 158.842 1190.1 196.932 1190.1 230.436ZM1414.16 109.819C1447.32 109.819 1465.3 128.511 1465.3 162.721C1465.66 196.579 1448.02 236.784 1420.16 256.182C1405.35 266.41 1390.53 270.289 1372.55 270.289C1349.27 270.289 1321.06 261.119 1321.06 219.15C1321.06 184.588 1339.75 144.029 1368.67 124.279C1381.72 115.11 1397.24 109.819 1414.16 109.819ZM1413.46 120.047C1400.76 120.047 1389.48 126.395 1378.54 141.561C1363.38 162.369 1351.03 202.222 1351.03 227.967C1351.03 251.95 1362.67 260.061 1375.02 260.061C1385.6 260.061 1395.47 255.477 1404.64 244.543C1422.28 223.03 1436.03 178.239 1436.03 150.378C1436.03 132.744 1429.33 120.047 1413.46 120.047Z" fill="#101010"/>
<ellipse cx="1156.42" cy="63.1016" rx="18.633" ry="32.75" fill="white"/>
</svg>
