<svg width="1920" height="446" viewBox="0 0 1920 446" fill="none" xmlns="http://www.w3.org/2000/svg">
<path d="M262.196 51.6271L265.37 41.752C274.892 42.1047 290.058 42.81 305.223 42.81C321.799 42.81 335.201 42.1047 350.366 41.752L347.897 51.6271C325.326 53.0378 323.21 54.4485 322.504 64.3235C320.036 97.8282 317.567 164.838 314.745 225.146C340.138 173.302 374.348 109.467 399.741 54.0958C401.505 50.9217 402.563 46.6895 403.268 42.81C409.616 43.1627 424.429 42.4574 431.835 40.694C430.777 59.386 430.072 143.324 428.309 228.32C485.443 128.864 504.84 93.9487 518.242 66.087C522.474 56.9173 521.064 54.4485 513.657 53.7431L494.612 51.6271L497.081 41.752C505.193 41.752 521.769 42.81 533.76 42.81C547.867 42.81 559.506 41.752 571.497 41.752L569.381 51.6271C549.983 53.0378 544.693 55.8592 536.934 67.145C505.193 115.11 445.59 219.503 420.902 266.057C409.969 267.115 402.563 268.878 398.331 270.994L396.215 269.584C397.978 229.731 398.331 152.846 400.094 79.4888C357.067 166.954 324.973 226.204 307.339 266.057C296.759 267.468 290.41 268.526 284.767 270.994L282.651 269.231C284.415 230.789 289.352 103.471 288.647 63.2655C288.294 56.2119 287.236 54.4485 280.888 53.3905C274.187 52.6851 267.839 51.9797 262.196 51.6271ZM613.185 211.039L614.243 228.673C597.314 254.771 568.042 270.289 538.417 270.289C509.144 270.289 492.921 252.302 492.921 221.266C492.921 187.056 509.497 148.614 539.122 125.69C553.229 115.11 569.1 109.819 585.323 109.819C614.948 109.819 624.823 127.453 624.823 145.793C624.823 162.369 612.127 171.538 599.783 177.181C581.444 185.646 547.939 193.052 527.483 195.521C526.073 202.222 525.015 212.097 525.015 220.208C525.015 240.311 532.421 255.477 552.171 255.477C576.506 255.477 595.903 239.606 607.895 211.039H613.185ZM581.444 120.4C566.984 120.4 544.059 134.154 529.599 184.235C545.47 182.472 567.689 176.829 577.917 171.891C591.319 165.543 598.02 154.61 598.02 140.855C598.02 127.806 592.024 120.4 581.444 120.4ZM820.553 37.1671L823.022 38.5779C821.964 59.7387 821.611 116.168 822.316 164.132C823.022 208.923 823.727 233.61 825.49 245.954C826.196 251.95 828.312 254.066 833.955 254.418L852.999 256.535L851.236 266.41C842.419 266.41 823.727 265.352 806.798 265.352C791.28 265.352 775.41 266.057 763.066 266.41L765.535 256.535C787.401 254.771 789.164 253.713 789.517 242.78C790.222 216.682 790.222 194.815 790.222 175.065C758.128 175.065 734.851 177.181 722.86 178.945C704.521 208.57 692.882 229.731 688.65 238.195C681.949 252.655 686.534 254.771 712.985 256.887L710.869 266.41C699.936 266.41 683.36 265.352 671.722 265.352C653.735 265.352 640.686 266.41 632.221 266.41L634.69 256.887C654.44 254.771 659.73 252.655 672.427 233.258C694.646 200.106 771.53 82.663 784.579 61.1494C787.753 56.2119 790.222 51.6271 791.28 48.1002L791.986 44.9261C800.45 44.9261 814.205 42.4574 820.553 37.1671ZM790.575 162.721C790.928 137.328 790.928 102.413 791.633 70.6718C777.878 91.8327 763.066 114.757 731.677 165.543C745.432 163.78 763.419 163.074 790.575 162.721ZM858.177 128.511L861.703 118.636C878.985 117.226 901.204 114.404 916.016 109.819C914.253 123.574 906.494 152.141 902.262 169.07H903.672C923.775 128.864 941.057 109.819 961.512 109.819C974.561 109.819 979.146 120.752 979.146 128.159C979.146 143.677 968.918 150.378 961.512 150.378C956.222 150.378 953.4 147.909 952.342 143.324C950.579 138.387 948.816 135.212 944.231 135.212C931.182 135.212 912.489 168.364 901.204 195.521C893.092 214.918 884.98 237.49 876.869 266.057C864.525 266.41 853.944 267.468 845.48 268.526C860.645 225.851 880.043 159.547 882.864 134.507C883.217 130.275 881.454 128.511 878.279 128.159C874.047 128.159 863.82 128.159 858.177 128.511ZM1074.11 211.039L1075.17 228.673C1058.24 254.771 1028.97 270.289 999.34 270.289C970.067 270.289 953.844 252.302 953.844 221.266C953.844 187.056 970.42 148.614 1000.05 125.69C1014.15 115.11 1030.02 109.819 1046.25 109.819C1075.87 109.819 1085.75 127.453 1085.75 145.793C1085.75 162.369 1073.05 171.538 1060.71 177.181C1042.37 185.646 1008.86 193.052 988.407 195.521C986.996 202.222 985.938 212.097 985.938 220.208C985.938 240.311 993.344 255.477 1013.09 255.477C1037.43 255.477 1056.83 239.606 1068.82 211.039H1074.11ZM1042.37 120.4C1027.91 120.4 1004.98 134.154 990.523 184.235C1006.39 182.472 1028.61 176.829 1038.84 171.891C1052.24 165.543 1058.94 154.61 1058.94 140.855C1058.94 127.806 1052.95 120.4 1042.37 120.4ZM1164.39 51.6271L1167.91 41.752C1179.55 42.1047 1196.83 42.81 1210.59 42.81C1227.52 42.81 1242.33 41.752 1253.61 41.752L1251.15 51.6271L1237.04 53.0378C1229.28 53.7431 1226.46 54.8012 1223.99 61.1494C1219.76 72.4352 1209.88 103.471 1197.89 147.556C1225.05 138.034 1290.29 77.3727 1304.75 59.386C1307.93 55.8592 1306.16 54.0958 1302.28 53.7431L1284.3 51.6271L1287.82 42.1047C1298.76 42.1047 1312.51 42.81 1326.62 42.81C1340.73 42.81 1353.78 42.1047 1362.59 41.752L1359.42 51.2744C1338.96 53.3905 1332.97 55.5065 1321.68 64.3235C1305.46 76.6674 1267.02 111.23 1233.51 138.739C1243.74 161.663 1277.6 231.847 1288.88 247.365C1292.76 253.36 1297.7 255.477 1318.86 256.887L1315.33 266.41C1298.05 265.352 1276.19 266.057 1258.2 269.231C1252.91 253.713 1221.17 193.405 1208.12 163.427C1204.94 156.373 1202.48 153.904 1195.42 156.726C1184.49 195.168 1175.67 227.262 1171.44 246.659C1170.38 252.655 1172.15 254.418 1179.9 255.124L1196.48 256.887L1192.95 266.41C1183.78 266.41 1162.27 265.352 1146.4 265.352C1130.53 265.352 1114.66 266.41 1104.78 266.41L1107.96 256.887L1122.77 255.124C1131.59 254.066 1134.41 251.244 1136.52 244.543C1141.81 230.083 1149.22 206.454 1165.09 151.436C1175.67 114.404 1185.9 78.0781 1189.43 62.5601C1190.84 55.8592 1189.43 53.3905 1181.31 52.6851L1164.39 51.6271ZM1378.79 42.1047C1389.01 42.1047 1393.95 48.8056 1393.6 59.386C1392.89 72.0825 1383.72 79.8415 1373.5 79.8415C1365.03 79.8415 1358.33 73.8459 1358.68 62.9128C1359.39 49.511 1369.97 42.1047 1378.79 42.1047ZM1319.89 128.159L1323.41 118.284C1341.4 116.52 1366.44 114.404 1382.31 109.819L1383.37 110.877C1372.79 135.565 1348.1 213.155 1340.7 242.78C1339.29 249.128 1338.93 253.713 1343.16 253.713C1353.75 253.713 1370.32 236.079 1378.08 219.503L1385.13 226.909C1369.97 255.124 1348.81 270.289 1327.65 270.289C1307.19 270.289 1307.54 253.713 1314.6 231.142C1323.06 203.985 1337.87 160.605 1345.28 133.802C1346.69 129.217 1345.99 127.806 1341.75 127.806C1337.52 127.806 1327.65 127.806 1319.89 128.159ZM1542.58 219.503L1549.64 226.909C1536.94 252.302 1517.54 270.994 1494.27 270.994C1475.57 270.994 1475.57 250.892 1480.86 232.2C1481.92 228.673 1482.63 225.499 1483.69 221.972C1468.52 244.896 1443.83 270.289 1411.03 270.289C1388.82 270.289 1378.23 253.713 1378.23 230.436C1378.23 193.052 1399.4 148.967 1432.55 125.337C1444.89 116.168 1459.7 109.819 1477.69 109.819C1493.21 109.819 1504.85 114.404 1510.49 123.927C1524.24 80.1942 1529.89 59.0333 1532 49.1583C1533.06 44.2208 1532.36 42.81 1528.12 42.81C1523.19 42.4574 1515.07 42.1047 1505.55 42.1047L1509.08 32.5823C1528.48 32.2296 1558.81 29.4082 1570.45 26.5867C1561.98 47.7476 1542.94 106.998 1523.54 176.476C1514.72 207.865 1509.78 226.909 1506.96 239.959C1505.55 246.307 1504.85 253.36 1509.78 253.36C1519.31 253.36 1534.82 236.432 1542.58 219.503ZM1410.33 230.436C1410.33 243.485 1415.27 253.36 1425.85 253.36C1441.36 253.36 1458.29 239.606 1475.22 213.508C1486.51 196.579 1502.38 160.253 1502.38 142.971C1502.38 132.038 1496.38 120.752 1481.57 120.752C1469.23 120.752 1458.29 125.69 1446.65 138.034C1426.9 158.842 1410.33 196.932 1410.33 230.436ZM1634.39 109.819C1667.55 109.819 1685.53 128.511 1685.53 162.721C1685.89 196.579 1668.25 236.784 1640.39 256.182C1625.58 266.41 1610.76 270.289 1592.78 270.289C1569.5 270.289 1541.29 261.119 1541.29 219.15C1541.29 184.588 1559.98 144.029 1588.9 124.279C1601.95 115.11 1617.47 109.819 1634.39 109.819ZM1633.69 120.047C1620.99 120.047 1609.71 126.395 1598.77 141.561C1583.61 162.369 1571.26 202.222 1571.26 227.967C1571.26 251.95 1582.9 260.061 1595.25 260.061C1605.83 260.061 1615.7 255.477 1624.87 244.543C1642.51 223.03 1656.26 178.239 1656.26 150.378C1656.26 132.744 1649.56 120.047 1633.69 120.047Z" fill="#101010"/>
<ellipse cx="1383.59" cy="62.6016" rx="25.25" ry="32.75" fill="white"/>
</svg>
