<svg width="1425" height="245" viewBox="0 0 1425 245" fill="none" xmlns="http://www.w3.org/2000/svg">
<g id="wearekido">
<path id="Vector" d="M0.96582 25.6263L4.13992 15.7512C13.6623 16.1039 28.8276 16.8092 43.9929 16.8092C60.5685 16.8092 73.9705 16.1039 89.1365 15.7512L86.6675 25.6263C64.0955 27.037 61.9795 28.4477 61.2745 38.3227C58.8055 71.8274 56.3367 138.837 53.5152 199.145C78.9085 147.301 113.119 83.466 138.512 28.095C140.275 24.9209 141.333 20.6887 142.039 16.8092C148.387 17.1619 163.2 16.4566 170.606 14.6932C169.548 33.3852 168.842 117.323 167.079 202.319C224.213 102.863 243.611 67.9479 257.013 40.0862C261.245 30.9165 259.834 28.4477 252.428 27.7423L233.383 25.6263L235.852 15.7512C243.963 15.7512 260.539 16.8092 272.531 16.8092C286.638 16.8092 298.276 15.7512 310.267 15.7512L308.151 25.6263C288.754 27.037 283.463 29.8584 275.704 41.1442C243.962 89.109 184.36 193.502 159.673 240.056C148.74 241.114 141.333 242.877 137.101 244.993L134.985 243.583C136.748 203.73 137.101 126.845 138.865 53.488C95.8375 140.953 63.7435 200.203 46.1089 240.056C35.5285 241.467 29.1803 242.525 23.5374 244.993L21.4213 243.23C23.1847 204.788 28.1222 77.47 27.4169 37.2647C27.0642 30.2111 26.0061 28.4477 19.6579 27.3897C12.957 26.6843 6.60872 25.9789 0.96582 25.6263ZM351.954 185.038L353.013 202.672C336.085 228.77 306.812 244.288 277.187 244.288C247.915 244.288 231.691 226.301 231.691 195.265C231.691 161.055 248.267 122.613 277.892 99.689C292 89.109 307.87 83.818 324.094 83.818C353.719 83.818 363.594 101.452 363.594 119.792C363.594 136.368 350.897 145.537 338.553 151.18C320.214 159.645 286.709 167.051 266.254 169.52C264.843 176.221 263.785 186.096 263.785 194.207C263.785 214.31 271.19 229.476 290.941 229.476C315.276 229.476 334.674 213.605 346.665 185.038H351.954ZM320.214 94.399C305.754 94.399 282.83 108.153 268.37 158.234C284.241 156.471 306.46 150.828 316.687 145.89C330.089 139.542 336.79 128.609 336.79 114.854C336.79 101.805 330.794 94.399 320.214 94.399ZM559.323 11.1663L561.792 12.5771C560.734 33.7379 560.38 90.167 561.086 138.131C561.791 182.922 562.496 207.609 564.26 219.953C564.965 225.949 567.081 228.065 572.724 228.417L591.77 230.534L590.007 240.409C581.19 240.409 562.496 239.351 545.568 239.351C530.05 239.351 514.18 240.056 501.836 240.409L504.305 230.534C526.171 228.77 527.934 227.712 528.286 216.779C528.992 190.681 528.992 168.814 528.992 149.064C496.898 149.064 473.622 151.18 461.631 152.944C443.291 182.569 431.653 203.73 427.421 212.194C420.72 226.654 425.305 228.77 451.756 230.886L449.64 240.409C438.707 240.409 422.131 239.351 410.492 239.351C392.505 239.351 379.456 240.409 370.992 240.409L373.461 230.886C393.211 228.77 398.501 226.654 411.197 207.257C433.416 174.105 510.3 56.6622 523.349 35.1486C526.523 30.2111 528.993 25.6263 530.051 22.0994L530.755 18.9253C539.22 18.9253 552.975 16.4566 559.323 11.1663ZM529.344 136.72C529.697 111.327 529.698 76.412 530.404 44.671C516.649 65.8319 501.836 88.7561 470.448 139.542C484.202 137.779 502.188 137.073 529.344 136.72ZM596.947 102.51L600.474 92.635C617.755 91.225 639.973 88.403 654.786 83.818C653.022 97.573 645.263 126.14 641.031 143.069H642.443C662.546 102.863 679.827 83.818 700.283 83.818C713.332 83.818 717.917 94.751 717.917 102.158C717.917 117.676 707.689 124.377 700.283 124.377C694.992 124.377 692.17 121.908 691.112 117.323C689.349 112.386 687.585 109.211 683 109.211C669.951 109.211 651.26 142.363 639.974 169.52C631.863 188.917 623.75 211.489 615.638 240.056C603.294 240.409 592.714 241.467 584.25 242.525C599.415 199.85 618.813 133.546 621.635 108.506C621.987 104.274 620.223 102.51 617.049 102.158C612.817 102.158 602.59 102.158 596.947 102.51ZM812.879 185.038L813.937 202.672C797.008 228.77 767.735 244.288 738.109 244.288C708.837 244.288 692.615 226.301 692.615 195.265C692.615 161.055 709.19 122.613 738.815 99.689C752.922 89.109 768.794 83.818 785.017 83.818C814.642 83.818 824.517 101.452 824.517 119.792C824.517 136.368 811.821 145.537 799.477 151.18C781.137 159.645 747.633 167.051 727.177 169.52C725.767 176.221 724.708 186.096 724.708 194.207C724.708 214.31 732.115 229.476 751.865 229.476C776.2 229.476 795.597 213.605 807.588 185.038H812.879ZM781.137 94.399C766.677 94.399 743.753 108.153 729.293 158.234C745.164 156.471 767.383 150.828 777.611 145.89C791.012 139.542 797.713 128.609 797.713 114.854C797.713 101.805 791.718 94.399 781.137 94.399ZM903.156 25.6263L906.684 15.7512C918.322 16.1039 935.602 16.8092 949.357 16.8092C966.289 16.8092 981.1 15.7512 992.38 15.7512L989.92 25.6263L975.81 27.037C968.05 27.7423 965.23 28.8004 962.76 35.1486C958.528 46.4344 948.653 77.47 936.661 121.555C963.82 112.033 1029.06 51.3719 1043.52 33.3852C1046.7 29.8584 1044.93 28.095 1041.05 27.7423L1023.07 25.6263L1026.59 16.1039C1037.53 16.1039 1051.28 16.8092 1065.39 16.8092C1079.5 16.8092 1092.55 16.1039 1101.36 15.7512L1098.19 25.2736C1077.73 27.3897 1071.74 29.5057 1060.45 38.3227C1044.23 50.6666 1005.79 85.229 972.28 112.738C982.51 135.662 1016.37 205.846 1027.65 221.364C1031.53 227.359 1036.47 229.476 1057.63 230.886L1054.1 240.409C1036.82 239.351 1014.96 240.056 996.969 243.23C991.679 227.712 959.939 167.404 946.888 137.426C943.714 130.372 941.246 127.903 934.193 130.725C923.26 169.167 914.442 201.261 910.21 220.658C909.152 226.654 910.915 228.417 918.674 229.123L935.25 230.886L931.724 240.409C922.554 240.409 901.04 239.351 885.169 239.351C869.298 239.351 853.429 240.409 843.554 240.409L846.728 230.886L861.539 229.123C870.356 228.065 873.178 225.243 875.294 218.542C880.584 204.082 887.991 180.453 903.862 125.435C914.442 88.403 924.67 52.0773 928.197 36.5593C929.608 29.8584 928.197 27.3897 920.085 26.6843L903.156 25.6263ZM1058.66 102.158L1062.19 92.283C1080.17 90.519 1105.21 88.403 1121.08 83.818L1122.14 84.876C1111.56 109.564 1086.87 187.154 1079.47 216.779C1078.06 223.127 1077.7 227.712 1081.94 227.712C1092.52 227.712 1109.09 210.078 1116.85 193.502L1123.9 200.908C1108.74 229.123 1087.58 244.288 1066.42 244.288C1045.96 244.288 1046.31 227.712 1053.37 205.141C1061.83 177.984 1076.65 134.604 1084.05 107.801C1085.46 103.216 1084.76 101.805 1080.52 101.805C1076.29 101.805 1066.42 101.805 1058.66 102.158ZM1281.35 193.502L1288.41 200.908C1275.71 226.301 1256.31 244.993 1233.04 244.993C1214.34 244.993 1214.34 224.891 1219.64 206.199C1220.69 202.672 1221.4 199.498 1222.46 195.971C1207.29 218.895 1182.6 244.288 1149.8 244.288C1127.59 244.288 1117.01 227.712 1117.01 204.435C1117.01 167.051 1138.17 122.966 1171.32 99.336C1183.66 90.167 1198.47 83.818 1216.46 83.818C1231.98 83.818 1243.62 88.403 1249.26 97.926C1263.01 54.1934 1268.66 33.0325 1270.77 23.1575C1271.83 18.22 1271.13 16.8092 1266.89 16.8092C1261.96 16.4566 1253.85 16.1039 1244.32 16.1039L1247.85 6.58154C1267.25 6.22884 1297.58 3.40744 1309.22 0.585938C1300.75 21.7468 1281.71 80.997 1262.31 150.475C1253.49 181.864 1248.56 200.908 1245.73 213.958C1244.32 220.306 1243.62 227.359 1248.56 227.359C1258.08 227.359 1273.6 210.431 1281.35 193.502ZM1149.1 204.435C1149.1 217.484 1154.04 227.359 1164.62 227.359C1180.13 227.359 1197.06 213.605 1213.99 187.507C1225.28 170.578 1241.15 134.252 1241.15 116.97C1241.15 106.037 1235.15 94.751 1220.34 94.751C1208 94.751 1197.06 99.689 1185.43 112.033C1165.68 132.841 1149.1 170.931 1149.1 204.435ZM1373.16 83.818C1406.32 83.818 1424.3 102.51 1424.3 136.72C1424.66 170.578 1407.02 210.783 1379.16 230.181C1364.35 240.409 1349.53 244.288 1331.55 244.288C1308.27 244.288 1280.06 235.118 1280.06 193.149C1280.06 158.587 1298.75 118.028 1327.67 98.278C1340.72 89.109 1356.24 83.818 1373.16 83.818ZM1372.46 94.046C1359.76 94.046 1348.48 100.394 1337.54 115.56C1322.38 136.368 1310.03 176.221 1310.03 201.966C1310.03 225.949 1321.67 234.06 1334.02 234.06C1344.6 234.06 1354.47 229.476 1363.64 218.542C1381.28 197.029 1395.03 152.238 1395.03 124.377C1395.03 106.743 1388.33 94.046 1372.46 94.046Z" fill="#101010"/>
</g>
</svg>
