<svg width="1816" height="160" viewBox="0 0 1816 160" fill="none" xmlns="http://www.w3.org/2000/svg">
<path d="M59.143 66.5942C57.493 63.5273 57.9458 59.9902 60.2814 57.2758C65.5511 51.142 76.3018 52.3043 83.7351 55.3734C84.0137 54.9163 84.1726 54.3765 84.1726 53.8019C84.1726 52.1106 82.8013 50.7414 81.1122 50.7414C80.4418 50.7414 79.8236 50.9569 79.3208 51.3226C71.7917 48.3689 62.8934 47.964 57.0076 53.5102C56.4526 52.7222 55.5384 52.2063 54.5023 52.2063C52.811 52.2063 51.4418 53.5755 51.4418 55.2668C51.4418 56.625 52.3256 57.7765 53.5511 58.177C51.7879 61.6118 51.0587 65.2381 50.9717 68.7709C53.612 67.7653 56.3503 67.0361 59.1451 66.5942H59.143Z" fill="white"/>
<path d="M61.7729 63.3666C61.7729 64.4157 62.624 65.2668 63.6732 65.2668C64.7224 65.2668 65.5734 64.4157 65.5734 63.3666C65.5734 62.3174 64.7224 61.4663 63.6732 61.4663C62.624 61.4663 61.7729 62.3174 61.7729 63.3666Z" fill="white"/>
<path d="M83.5505 63.3666C83.5505 62.3174 82.6994 61.4663 81.6502 61.4663C80.6011 61.4663 79.75 62.3174 79.75 63.3666C79.75 64.4157 80.6011 65.2668 81.6502 65.2668C82.6994 65.2668 83.5505 64.4157 83.5505 63.3666Z" fill="white"/>
<path d="M67.5156 72.8968C67.3872 72.3091 66.806 71.939 66.2183 72.0674C59.7078 73.4975 53.6827 76.645 48.7939 81.1747C48.352 81.5839 48.3259 82.2717 48.7351 82.7136C48.9398 82.9335 49.214 83.051 49.4926 83.0619C49.7712 83.0728 50.0542 82.977 50.2741 82.7724C54.8799 78.5061 60.5545 75.5414 66.6863 74.1941C67.274 74.0656 67.644 73.4845 67.5156 72.8968Z" fill="white"/>
<path d="M65.6103 70.4428C66.211 70.4428 66.6986 69.9574 66.6986 69.3566C66.6986 68.7559 66.2132 68.2683 65.6124 68.2661H65.5667C58.0789 68.2661 50.7936 70.4101 44.4986 74.4697C43.9936 74.7962 43.8478 75.4688 44.1743 75.9738C44.3832 76.2959 44.7315 76.4722 45.0906 76.4722C45.2931 76.4722 45.4977 76.4156 45.6783 76.2981C51.6207 72.4671 58.4968 70.4428 65.5667 70.4428C65.582 70.4428 65.5972 70.4406 65.6124 70.4428H65.6103Z" fill="white"/>
<path d="M117.505 95.1343C121.452 91.4732 124.109 86.5299 124.917 81.0621C126.021 73.5939 123.543 66.0756 118.295 60.7384C118.191 60.6317 118.023 60.6143 117.899 60.6948C117.775 60.7754 117.723 60.9364 117.78 61.0757C120.581 68.0411 119.484 75.7531 115.344 81.5845C115.686 78.6655 113.966 75.7988 111.071 74.8085C110.758 74.7018 110.414 74.8563 110.287 75.1633C108.3 79.9737 103.575 83.2779 98.1611 83.2779C92.7477 83.2779 88.1898 80.0542 86.1611 75.4418C88.5097 76.2646 90.7299 77.4488 92.7173 78.9507C92.911 79.0965 93.1374 79.1683 93.3616 79.1705C93.6946 79.1727 94.0255 79.0247 94.2409 78.7395C94.6044 78.2607 94.5087 77.5772 94.0298 77.2159C90.6581 74.667 86.6748 72.9561 82.5043 72.2661C81.9122 72.1659 81.3506 72.5686 81.2527 73.1629C81.1547 73.7549 81.5552 74.3165 82.1495 74.4145C83.0136 74.5581 83.869 74.7518 84.7114 74.9891C83.8016 75.8794 82.5521 76.4518 81.1895 76.4518H81.1852C81.1591 76.454 81.1351 76.4562 81.1112 76.4562C78.1879 76.4562 75.8371 74.0292 75.9459 71.1081C77.5915 70.7555 78.7299 69.9022 79.2806 69.099C80.5648 67.214 78.5253 65.0439 74.2633 65.0439C69.294 65.0439 68.1904 67.5797 69.2678 69.123C70.1037 70.3201 71.8233 71.0645 72.8115 71.0602C72.5677 75.0871 68.9413 78.0735 64.9406 77.5554L64.9449 77.5511C64.5336 77.4945 64.1309 77.3987 63.7412 77.2637C60.0256 78.5088 56.5517 80.4047 53.4934 82.8644C55.0911 87.2961 56.852 90.2216 56.8586 90.2303C58.8306 93.443 61.2489 96.3729 64.0133 98.9522C64.0133 98.9522 64.022 98.9588 64.0264 98.9631C65.0581 99.9252 66.1378 100.837 67.2588 101.697C69.9927 103.972 73.8236 107.065 76.181 108.564L76.7143 107.25C84.3414 110.545 92.9415 111.723 101.433 110.053C101.446 110.051 101.461 110.047 101.474 110.045C110.505 108.26 115.178 103.695 122.007 102.246C122.318 102.18 122.531 101.891 122.503 101.573C122.368 100.132 121.561 96.6558 117.405 95.2323C117.44 95.2018 117.473 95.1692 117.508 95.1365L117.505 95.1343ZM100.804 101.93C100.257 102.576 99.7153 103.216 99.1646 103.828C96.25 107.067 91.8901 108.606 87.5868 107.92C84.2042 107.383 80.8413 106.399 77.6372 105.014C77.7177 104.786 77.8004 104.566 77.8832 104.35L78.1901 103.591H78.1879C78.5144 102.811 78.854 102.113 79.2001 101.455C80.0968 99.7489 79.8269 97.6636 78.5275 96.2401L63.6651 79.9933C68.0903 80.7921 72.4132 78.5262 74.6377 75.3831C76.2441 77.4488 78.0486 78.141 79.729 78.4762C81.6662 80.2654 81.5661 79.9345 81.5661 82.3006C81.5661 83.4325 82.4847 84.3532 83.6187 84.3532C84.829 84.3532 85.5429 84.2313 86.2699 84.9191L86.3374 84.9866C87.6304 86.3471 86.0958 87.9861 87.7131 89.2812C89.0517 90.3543 90.9346 89.636 91.3133 89.3922C96.7289 85.8943 102.462 84.5121 107.042 85.5351C108.892 85.8595 110.533 86.6387 111.855 87.9621C113.57 89.6774 114.565 91.9194 114.896 94.453C111.041 94.0286 106.036 95.7438 100.806 101.93H100.804Z" fill="white"/>
<path d="M82.1509 69.5586C82.1509 70.1593 82.6363 70.6512 83.237 70.6491C88.3131 70.6534 93.2846 72.0683 97.6075 74.7325C97.7817 74.8392 97.9732 74.8914 98.1626 74.8936C98.5326 74.8979 98.8961 74.7151 99.1051 74.3755C99.4207 73.864 99.2618 73.1936 98.7503 72.878C94.0856 70.0048 88.7223 68.4789 83.2414 68.4702C82.6406 68.4702 82.1531 68.9556 82.1509 69.5564V69.5586Z" fill="white"/>
<path d="M236.174 96.7143C236.034 96.6252 235.86 96.6059 235.701 96.6485C234.047 97.1327 232.176 97.4194 230.704 97.4194C226.667 97.4194 224.869 95.4786 224.869 91.1204V77.4104H235.868C236.189 77.4104 236.453 77.147 236.453 76.8255V71.7273C236.453 71.4057 236.189 71.1423 235.868 71.1423H224.869V60.3456C224.869 60.0241 224.606 59.7607 224.285 59.7607H218.195C217.873 59.7607 217.61 60.0241 217.61 60.3456V71.1423H201.924V60.3456C201.924 60.0241 201.661 59.7607 201.339 59.7607H195.249C194.928 59.7607 194.664 60.0241 194.664 60.3456V71.1423H188.222C187.9 71.1423 187.637 71.4057 187.637 71.7273V76.8255C187.637 77.147 187.9 77.4104 188.222 77.4104H194.664V91.1204C194.664 99.4416 199.026 104.214 206.635 104.214C209.134 104.214 210.927 103.92 214.015 102.998C214.297 102.913 214.476 102.63 214.425 102.335L213.5 97.1056C213.469 96.9429 213.372 96.7995 213.232 96.7104C213.093 96.6213 212.918 96.602 212.76 96.6446C211.105 97.1289 209.234 97.4155 207.762 97.4155C203.726 97.4155 201.928 95.4747 201.928 91.1165V77.4066H217.614V91.1165C217.614 99.4377 221.976 104.21 229.584 104.21C232.083 104.21 233.876 103.916 236.964 102.994C237.247 102.909 237.425 102.626 237.375 102.332L236.449 97.1017C236.418 96.939 236.321 96.7957 236.181 96.7066L236.174 96.7143Z" fill="white"/>
<path d="M254.991 70.3471C245.256 70.3471 238.19 77.4402 238.19 87.2142C238.19 96.9882 245.256 104.016 254.991 104.016C262.154 104.016 267.984 100.324 269.844 94.6097C269.902 94.4315 269.871 94.2377 269.762 94.0866C269.654 93.9355 269.476 93.8465 269.29 93.8465H262.739C262.522 93.8465 262.325 93.9666 262.22 94.1564C261.019 96.4304 258.524 97.6817 255.192 97.6817C249.393 97.6817 246.437 93.8929 245.523 90.1158H269.82C269.844 90.1158 269.863 90.1158 269.886 90.1158C269.999 90.1274 270.115 90.1081 270.22 90.0539C270.386 89.9686 270.502 89.8098 270.529 89.6238C270.669 88.7173 270.669 87.745 270.669 86.885C270.599 77.3047 264.01 70.3548 254.995 70.3548L254.991 70.3471ZM245.504 84.3786C246.522 79.6523 250.001 76.7468 254.728 76.7468C259.454 76.7468 262.553 79.5865 263.266 84.3786H245.504Z" fill="white"/>
<path d="M162.289 56.1191C149.047 56.1191 138.274 66.8925 138.274 80.1337C138.274 93.3749 149.047 104.149 162.289 104.149C175.53 104.149 186.303 93.3749 186.303 80.1337C186.303 66.8925 175.53 56.1191 162.289 56.1191ZM178.714 80.1337C178.714 89.4816 171.346 97.0862 162.289 97.0862C153.231 97.0862 145.797 89.6404 145.797 80.1337C145.797 70.627 153.041 63.1814 162.289 63.1814C171.536 63.1814 178.714 70.7859 178.714 80.1337Z" fill="white"/>
<path d="M292.317 70.4115C288.013 70.4115 284.221 71.9301 281.253 74.8162V71.7248C281.253 71.4032 280.99 71.1398 280.668 71.1398H274.578C274.257 71.1398 273.993 71.4032 273.993 71.7248V102.631C273.993 102.953 274.257 103.216 274.578 103.216H280.668C280.99 103.216 281.253 102.953 281.253 102.631V83.0329C283.965 79.3759 287.688 77.4621 292.333 77.3381C292.65 77.3304 292.902 77.0708 292.902 76.7532V70.9965C292.902 70.675 292.639 70.4115 292.317 70.4115Z" fill="white"/>
<path d="M335.14 71.142H308.533C308.212 71.142 307.948 71.4054 307.948 71.727V76.8252C307.948 77.1467 308.212 77.4101 308.533 77.4101H325.176L307.479 99.2903C307.394 99.3949 307.348 99.5227 307.348 99.6583V102.637C307.348 102.959 307.611 103.222 307.933 103.222H335.132C335.453 103.222 335.717 102.959 335.717 102.637V97.5392C335.717 97.2177 335.453 96.9543 335.132 96.9543H318.16L335.585 75.4732C335.67 75.3686 335.717 75.2407 335.717 75.1051V71.7309C335.717 71.4093 335.453 71.1459 335.132 71.1459L335.14 71.142Z" fill="white"/>
<path d="M353.475 70.3471C343.74 70.3471 336.674 77.4402 336.674 87.2142C336.674 96.9882 343.74 104.016 353.475 104.016C360.638 104.016 366.469 100.324 368.328 94.6097C368.386 94.4315 368.355 94.2377 368.247 94.0866C368.138 93.9355 367.96 93.8465 367.774 93.8465H361.223C361.006 93.8465 360.809 93.9666 360.704 94.1564C359.503 96.4304 357.008 97.6817 353.677 97.6817C347.877 97.6817 344.922 93.8929 344.007 90.1158H368.305C368.328 90.1158 368.347 90.1158 368.371 90.1158C368.483 90.1274 368.599 90.1081 368.704 90.0539C368.87 89.9686 368.987 89.8098 369.014 89.6238C369.153 88.7173 369.153 87.745 369.153 86.885C369.083 77.3047 362.494 70.3548 353.479 70.3548L353.475 70.3471ZM343.988 84.3786C345.007 79.6523 348.486 76.7468 353.212 76.7468C357.938 76.7468 361.037 79.5865 361.75 84.3786H343.988Z" fill="white"/>
<path d="M299.665 55.7861C297.07 55.7861 295.11 57.6881 295.11 60.2101C295.11 62.732 297.07 64.6342 299.665 64.6342C302.261 64.6342 304.221 62.6894 304.221 60.2101C304.221 57.7308 302.218 55.7861 299.665 55.7861Z" fill="white"/>
<path d="M302.712 71.142H296.688C296.365 71.142 296.103 71.4039 296.103 71.727V102.633C296.103 102.957 296.365 103.218 296.688 103.218H302.712C303.036 103.218 303.297 102.957 303.297 102.633V71.727C303.297 71.4039 303.036 71.142 302.712 71.142Z" fill="white"/>
<g clip-path="url(#clip0_3189_172370)">
<path d="M623.036 114.691C600.777 107.945 584.6 87.4577 584.6 63.2133C584.6 38.7117 601.122 18.054 623.719 11.482C626.033 10.7973 625.433 9.34453 622.607 9.34453C592.559 9.34453 568.165 33.5056 568.165 63.2133C568.165 92.921 592.559 117.082 622.607 117.082C625.433 117.082 625.604 115.459 623.036 114.691Z" fill="white"/>
<path d="M594.957 75.7567C594.786 74.304 594.699 72.8548 594.699 71.402C594.699 47.7554 613.877 28.6338 637.589 28.6338C660.015 28.6338 666.692 38.6221 667.549 37.9374C668.49 37.2563 659.415 17.4499 633.135 17.4499C609.423 17.4499 590.249 36.5716 590.249 60.2182C590.249 65.6815 591.277 70.8912 593.158 75.6698C593.929 77.7203 595.128 77.7203 594.957 75.7567Z" fill="white"/>
<path d="M612.932 44.9456C624.06 40.08 638.101 39.9098 651.88 44.7753C661.126 48.0178 666.521 52.6297 666.95 52.3725C667.72 52.032 661.555 42.3842 650.511 38.1998C637.156 33.1639 622.777 35.8123 612.333 44.0073C611.134 44.9456 611.563 45.5434 612.932 44.9456Z" fill="white"/>
<path d="M833.364 65.0891C833.364 68.1613 830.795 70.7227 827.715 70.7227C824.63 70.7227 822.065 68.2482 822.065 65.0891C822.065 62.0169 824.547 59.4555 827.715 59.4555C830.882 59.4555 833.364 61.9299 833.364 65.0891Z" fill="white"/>
<path d="M649.486 96.5876L650.169 104.102H662.07L658.045 60.4783H640.327L617.898 104.102H630.054L633.821 96.5876H649.486ZM648.887 88.1356H638.013L647.346 69.2711H647.43L648.887 88.1356Z" fill="white"/>
<path d="M678.591 85.0633H680.39L688.865 73.5387H699.905L688.178 88.2225L695.372 104.102H683.641L678.933 91.722H677.222L674.57 104.102H664.554L673.796 60.4783H683.812L678.591 85.0633Z" fill="white"/>
<mask id="mask0_3189_172370" style="mask-type:luminance" maskUnits="userSpaceOnUse" x="-1260" y="-129" width="2224" height="2870">
<path d="M-1259.44 2740.99H963.887V-128.337H-1259.44V2740.99Z" fill="white"/>
</mask>
<g mask="url(#mask0_3189_172370)">
<path d="M715.573 104.104H725.589L729.611 85.0655C731.837 74.5663 727.816 73.2874 717.542 73.2874C710.353 73.2874 703.417 73.2005 701.448 82.6744H711.464C712.064 79.9427 713.775 79.3485 716.26 79.3485C720.623 79.3485 720.452 81.1382 719.853 83.9569L718.824 88.8224H718.399C718.054 85.3227 713.604 85.4096 710.778 85.4096C703.505 85.4096 699.221 87.7138 697.681 95.0538C696.057 102.821 699.737 104.531 706.756 104.531C710.265 104.531 714.974 103.847 716.601 99.6657H716.943L715.573 104.104ZM712.747 91.4707C716.002 91.4707 718.141 91.7243 717.626 94.2857C716.943 97.4449 715.573 98.0427 711.377 98.0427C709.837 98.0427 707.014 98.0427 707.697 94.7132C708.296 91.8946 710.265 91.4707 712.747 91.4707Z" fill="white"/>
<path d="M745.878 73.5389L744.937 77.8066H745.366C747.335 74.22 751.356 73.1983 754.782 73.1983C759.062 73.1983 763.341 73.9664 762.742 79.1725H763.17C764.623 74.8177 769.077 73.1983 772.928 73.1983C780.034 73.1983 783.031 76.1002 781.487 83.1866L777.037 104.102H767.021L770.788 86.4291C771.301 83.2699 771.817 80.8788 767.962 80.8788C764.024 80.8788 762.742 83.4402 762.055 86.7697L758.375 104.102H748.359L752.297 85.5741C752.813 82.7591 752.984 80.8788 749.474 80.8788C745.366 80.8788 744.079 83.0997 743.309 86.7697L739.629 104.102H729.613L736.12 73.5389H745.878Z" fill="white"/>
<path d="M800.063 104.104H810.079L814.188 85.0655C816.415 74.5663 812.39 73.2874 802.12 73.2874C794.927 73.2874 787.991 73.2005 786.026 82.6744H796.042C796.638 79.9427 798.352 79.3485 800.834 79.3485C805.2 79.3485 805.03 81.1382 804.43 83.9569L803.402 88.8224H802.973C802.632 85.3227 798.182 85.4096 795.355 85.4096C788.079 85.4096 783.799 87.7138 782.259 95.0538C780.631 102.821 784.311 104.531 791.33 104.531C794.843 104.531 799.551 103.847 801.175 99.6657H801.52L800.063 104.104ZM797.324 91.4707C800.576 91.4707 802.715 91.7243 802.203 94.2857C801.52 97.4449 800.151 98.0427 795.955 98.0427C794.414 98.0427 791.588 98.0427 792.275 94.7132C792.874 91.8946 794.843 91.4707 797.324 91.4707Z" fill="white"/>
</g>
<path d="M824.631 104.102H814.615L821.035 73.539H831.138L824.631 104.102Z" fill="white"/>
</g>
<path d="M1200.57 58.8874C1200.57 58.4308 1200.18 58.053 1199.71 58.053H1191.3C1190.83 58.053 1190.44 58.4308 1190.44 58.8874V72.6632C1187.32 70.8999 1183.71 70.0025 1179.6 70.0025C1173.5 70.0025 1168.48 71.9547 1164.52 75.8434C1160.57 79.6691 1158.64 84.3923 1158.64 89.9498C1158.64 95.586 1160.57 100.309 1164.52 104.135C1168.48 107.961 1173.5 109.897 1179.6 109.897C1184 109.897 1187.84 108.874 1191.11 106.874L1199.4 109.85C1199.95 110.055 1200.55 109.645 1200.55 109.063V58.8874H1200.57ZM1187.3 97.6642C1185.22 99.7581 1182.7 100.797 1179.63 100.797C1176.54 100.797 1173.95 99.7581 1171.87 97.6642C1169.79 95.5073 1168.78 92.9411 1168.78 89.9498C1168.78 86.9585 1169.79 84.3922 1171.87 82.2983C1173.95 80.2202 1176.54 79.1811 1179.63 79.1811C1182.72 79.1811 1185.22 80.2202 1187.3 82.2983C1189.38 84.3922 1190.46 86.9585 1190.46 89.9498C1190.46 92.9411 1189.38 95.5231 1187.3 97.6642Z" fill="white"/>
<path d="M1118.98 75.8213C1122.93 71.9326 1127.96 69.9803 1134.05 69.9803C1140.15 69.9803 1145.18 71.9326 1149.13 75.8213C1153.08 79.647 1155.01 84.3701 1155.01 89.9276C1155.01 95.5639 1153.08 100.287 1149.13 104.113C1145.18 107.938 1140.15 109.875 1134.05 109.875C1127.96 109.875 1122.93 107.923 1118.98 104.113C1115.03 100.287 1113.1 95.5639 1113.1 89.9276C1113.1 84.3701 1115.03 79.647 1118.98 75.8213ZM1134.05 100.775C1137.14 100.775 1139.65 99.736 1141.73 97.6421C1143.81 95.4852 1144.88 92.919 1144.88 89.9276C1144.88 86.9363 1143.81 84.3701 1141.73 82.2762C1139.65 80.198 1137.13 79.1589 1134.05 79.1589C1130.96 79.1589 1128.38 80.198 1126.3 82.2762C1124.22 84.3701 1123.21 86.9363 1123.21 89.9276C1123.21 92.919 1124.22 95.4852 1126.3 97.6421C1128.38 99.736 1130.96 100.775 1134.05 100.775Z" fill="white"/>
<path d="M1225.13 77.0554C1229.14 77.0554 1232.39 73.9117 1232.39 70.0337C1232.39 66.1557 1229.14 63.012 1225.13 63.012C1221.13 63.012 1217.88 66.1557 1217.88 70.0337C1217.88 73.9117 1221.13 77.0554 1225.13 77.0554Z" fill="white"/>
<path d="M1210.04 55.9386C1213.99 52.0499 1219.02 50.0977 1225.12 50.0977C1231.21 50.0977 1236.24 52.0499 1240.19 55.9386C1244.14 59.7643 1246.07 64.4874 1246.07 70.045C1246.07 75.6812 1244.14 80.4044 1240.19 84.2301C1236.24 88.0558 1231.21 89.9923 1225.12 89.9923C1219.02 89.9923 1213.99 88.0401 1210.04 84.2301C1206.09 80.4044 1204.16 75.6812 1204.16 70.045C1204.16 64.4874 1206.09 59.7643 1210.04 55.9386ZM1225.12 80.8924C1228.2 80.8924 1230.71 79.8533 1232.79 77.7594C1234.87 75.6025 1235.94 73.0363 1235.94 70.045C1235.94 67.0537 1234.87 64.4874 1232.79 62.3935C1230.71 60.3153 1228.19 59.2763 1225.12 59.2763C1222.03 59.2763 1219.44 60.3153 1217.36 62.3935C1215.28 64.4874 1214.27 67.0537 1214.27 70.045C1214.27 73.0363 1215.28 75.6025 1217.36 77.7594C1219.44 79.8376 1222.03 80.8924 1225.12 80.8924Z" fill="white"/>
<path d="M1062.29 89.9491C1062.29 84.3915 1060.35 79.6684 1056.4 75.8427C1052.45 71.954 1047.42 70.0017 1041.33 70.0017C1035.23 70.0017 1030.21 71.954 1026.26 75.8427C1022.3 79.6684 1020.37 84.3915 1020.37 89.9491C1020.37 95.5853 1022.3 100.308 1026.26 104.134C1030.21 107.96 1035.23 109.896 1041.33 109.896C1045.73 109.896 1049.57 108.873 1052.84 106.874L1061.13 109.849C1061.68 110.054 1062.29 109.644 1062.29 109.062V89.9491ZM1041.33 100.796C1038.24 100.796 1035.65 99.7574 1033.57 97.6635C1031.49 95.5066 1030.48 92.9404 1030.48 89.9491C1030.48 86.9577 1031.49 84.3915 1033.57 82.2976C1035.65 80.2194 1038.24 79.1803 1041.33 79.1803C1044.42 79.1803 1046.92 80.2194 1049 82.2976C1051.08 84.3915 1052.16 86.9577 1052.16 89.9491C1052.16 92.9404 1051.08 95.5066 1049 97.6635C1046.92 99.7574 1044.42 100.796 1041.33 100.796Z" fill="white"/>
<path d="M1109.52 89.9491C1109.52 84.3915 1107.58 79.6527 1103.63 75.8427C1099.68 71.954 1094.66 70.0017 1088.56 70.0017C1082.46 70.0017 1077.44 71.954 1073.49 75.8427C1069.54 79.6684 1067.6 84.3915 1067.6 89.9491V109.062C1067.6 109.519 1067.99 109.896 1068.46 109.896H1076.85C1077.32 109.896 1077.71 109.519 1077.71 109.062V89.9491C1077.71 86.9577 1078.72 84.3915 1080.8 82.2976C1082.88 80.2194 1085.47 79.1803 1088.56 79.1803C1091.65 79.1803 1094.15 80.2194 1096.23 82.2976C1098.31 84.3915 1099.39 86.9577 1099.39 89.9491V109.062C1099.39 109.519 1099.78 109.896 1100.25 109.896H1108.65C1109.13 109.896 1109.52 109.519 1109.52 109.062V89.9491Z" fill="white"/>
<path d="M1267.98 81.826C1268.45 81.826 1268.84 81.4482 1268.84 80.9916V73.4818C1268.84 73.0253 1268.45 72.6474 1267.98 72.6474H1259.96V58.8874C1259.96 58.4308 1259.57 58.053 1259.1 58.053H1250.52C1250.04 58.053 1249.65 58.4308 1249.65 58.8874V94.3265C1249.69 102.923 1256.91 109.897 1265.78 109.897C1265.8 109.897 1265.82 109.897 1265.82 109.897C1265.82 109.897 1265.83 109.897 1265.85 109.897C1266.42 109.897 1267.31 109.897 1267.96 109.897C1268.43 109.897 1268.82 109.519 1268.82 109.063V101.616C1268.82 101.159 1268.43 100.781 1267.96 100.781H1265.78C1262.56 100.781 1259.95 98.2467 1259.95 95.1295V81.8103H1267.98V81.826Z" fill="white"/>
<g clip-path="url(#clip1_3189_172370)">
<path d="M1575.72 106.761V75.4046L1565.44 95.8046H1558.34L1547.98 75.4046V106.761H1537.48V52.9766H1547.84L1561.89 82.0646L1575.87 52.9766H1586.23V106.773H1575.73L1575.72 106.761Z" fill="white"/>
<path d="M1617.19 106.761V103.137C1614.62 105.861 1611 107.217 1607.37 107.217C1603.45 107.217 1600.27 105.933 1598.08 103.737C1594.92 100.569 1594.08 96.8607 1594.08 92.5527V67.3887H1603.89V91.1847C1603.89 96.5487 1607.29 98.3607 1610.38 98.3607C1613.48 98.3607 1616.96 96.5487 1616.96 91.1847V67.3887H1626.78V106.749H1617.18L1617.19 106.761Z" fill="white"/>
<path d="M1657.15 106.761V82.9653C1657.15 77.6013 1653.75 75.7893 1650.66 75.7893C1647.56 75.7893 1644.08 77.6013 1644.08 82.9653V106.761H1634.26V67.4013H1643.86V71.0253C1646.43 68.3013 1650.06 66.9453 1653.68 66.9453C1657.6 66.9453 1660.78 68.2293 1662.97 70.4253C1666.14 73.5933 1666.98 77.3013 1666.98 81.6093V106.773H1657.16L1657.15 106.761Z" fill="white"/>
<path d="M1686.76 106.76C1678.76 106.76 1675.35 101.096 1675.35 95.5044V76.0164H1671.2V68.5404H1675.35V56.9004H1685.17V68.5404H1692.12V76.0164H1685.17V94.9044C1685.17 97.1724 1686.22 98.4564 1688.56 98.4564H1692.12V106.772H1686.75L1686.76 106.76Z" fill="white"/>
<path d="M1705.12 90.1416C1705.12 95.2056 1708.22 98.9016 1713.74 98.9016C1718.05 98.9016 1720.16 97.6896 1722.66 95.1936L1728.62 101.014C1724.61 105.022 1720.76 107.206 1713.66 107.206C1704.37 107.206 1695.45 102.97 1695.45 87.0336C1695.45 74.1936 1702.4 66.9336 1712.6 66.9336C1723.56 66.9336 1729.75 74.9376 1729.75 85.7496V90.1296H1705.12V90.1416ZM1719.18 79.1856C1718.12 76.8456 1715.92 75.1056 1712.6 75.1056C1709.28 75.1056 1707.08 76.8456 1706.02 79.1856C1705.42 80.6256 1705.2 81.6816 1705.11 83.4216H1720.08C1720 81.6816 1719.78 80.6256 1719.16 79.1856H1719.18Z" fill="white"/>
<path d="M1756.8 78.1293C1755.28 76.6173 1754 75.7893 1751.59 75.7893C1748.56 75.7893 1745.24 78.0573 1745.24 83.0373V106.761H1735.41V67.4013H1745.01V71.1813C1746.9 68.9133 1750.68 66.9453 1754.91 66.9453C1758.76 66.9453 1761.49 67.9293 1764.2 70.6413L1756.8 78.1173V78.1293Z" fill="white"/>
<path d="M1779.31 107.217C1773.12 107.217 1767.52 106.533 1762.53 101.553L1768.95 95.133C1772.2 98.385 1776.43 98.829 1779.45 98.829C1782.85 98.829 1786.4 97.701 1786.4 94.749C1786.4 92.781 1785.34 91.425 1782.25 91.125L1776.06 90.525C1768.95 89.841 1764.57 86.745 1764.57 79.497C1764.57 71.337 1771.75 66.957 1779.75 66.957C1785.87 66.957 1791.01 68.013 1794.79 71.565L1788.74 77.685C1786.47 75.645 1783 75.045 1779.6 75.045C1775.67 75.045 1774 76.857 1774 78.825C1774 80.265 1774.6 81.921 1778.08 82.221L1784.28 82.821C1792.05 83.577 1795.99 87.729 1795.99 94.377C1795.99 103.065 1788.58 107.217 1779.3 107.217H1779.31Z" fill="white"/>
<path d="M1507.94 54.4512L1488.16 80.2272L1468.34 54.4752C1460.74 60.3912 1455.85 69.6312 1455.85 80.0112C1455.85 90.3912 1460.29 98.7432 1467.27 104.671L1473.58 97.4352C1468.6 93.2712 1465.45 87.0072 1465.45 80.0112C1465.45 76.1232 1466.42 72.4752 1468.13 69.2832L1488.16 95.6352L1508.17 69.2352C1509.89 72.4392 1510.89 76.1232 1510.89 80.0232C1510.89 86.9832 1507.76 93.2232 1502.83 97.3872L1509.07 104.683C1516.05 98.7552 1520.49 89.9112 1520.49 80.0232C1520.49 69.6192 1515.58 60.3672 1507.95 54.4632L1507.94 54.4512Z" fill="white"/>
<path d="M1488.16 57.2816C1492.47 57.2816 1496.5 58.4816 1499.93 60.5696L1505.42 52.6736C1500.41 49.5056 1494.5 47.6816 1488.16 47.6816C1481.83 47.6816 1475.89 49.5176 1470.89 52.6856L1476.27 60.6416C1479.73 58.5056 1483.81 57.2816 1488.16 57.2816Z" fill="white"/>
<path d="M1488.16 102.689C1483.52 102.689 1479.25 101.297 1475.66 98.9088L1469.78 106.565C1475 110.177 1481.35 112.313 1488.16 112.301C1494.98 112.301 1501.34 110.165 1506.56 106.541L1500.68 98.8848C1497.09 101.273 1492.81 102.677 1488.15 102.677L1488.16 102.689Z" fill="white"/>
</g>
<defs>
<clipPath id="clip0_3189_172370">
<rect width="265.2" height="107.737" fill="white" transform="translate(568.162 9.33203)"/>
</clipPath>
<clipPath id="clip1_3189_172370">
<rect width="340.152" height="64.632" fill="white" transform="translate(1455.85 47.6836)"/>
</clipPath>
</defs>
</svg>
