<svg width="1816" height="150" viewBox="0 0 1816 150" fill="none" xmlns="http://www.w3.org/2000/svg">
<g clip-path="url(#clip0_3189_172220)">
<mask id="mask0_3189_172220" style="mask-type:luminance" maskUnits="userSpaceOnUse" x="20" y="39" width="186" height="85">
<path d="M205.307 39.5723H20V123.928H205.307V39.5723Z" fill="white"/>
</mask>
<g mask="url(#mask0_3189_172220)">
<path d="M79.5339 105.391C79.5339 104.199 80.6616 103.604 81.9396 103.604C83.2927 103.604 84.4956 104.199 85.0968 105.465L88.1039 103.827C86.9762 101.668 84.7211 100.402 81.9396 100.402C78.5567 100.402 75.8504 102.338 75.8504 105.465C75.8504 111.347 84.7962 109.709 84.7962 112.687C84.7962 114.027 83.5934 114.548 81.9396 114.548C80.1353 114.548 78.7822 113.655 78.2559 112.166L75.1738 113.953C76.2262 116.335 78.6319 117.824 81.9396 117.824C85.5479 117.824 88.4046 116.038 88.4046 112.762C88.4799 106.582 79.5339 108.369 79.5339 105.391Z" fill="white"/>
<path d="M108.93 109.113C108.93 104.348 105.547 100.402 100.586 100.402C95.3984 100.402 91.79 104.199 91.79 109.039C91.79 113.953 95.3232 117.676 100.811 117.676C104.044 117.676 106.6 116.335 108.103 114.102L105.171 112.389C104.344 113.581 102.916 114.4 100.886 114.4C98.255 114.4 96.1501 113.059 95.5487 110.528H108.78C108.855 110.156 108.93 109.635 108.93 109.113ZM95.5487 107.699C96.075 105.242 97.8792 103.678 100.586 103.678C102.766 103.678 104.87 104.87 105.322 107.699H95.5487Z" fill="white"/>
<path d="M125.772 111.717C124.946 113.206 123.367 114.249 121.337 114.249C118.405 114.249 116.15 112.015 116.15 109.111C116.15 106.208 118.405 103.974 121.337 103.974C123.292 103.974 124.946 104.942 125.697 106.505L128.779 104.718C127.426 102.113 124.645 100.475 121.337 100.475C116.3 100.475 112.542 104.197 112.542 109.111C112.542 114.025 116.3 117.748 121.337 117.748C124.57 117.748 127.426 116.11 128.779 113.429L125.772 111.717Z" fill="white"/>
<path d="M144.263 100.848V109.708C144.263 113.058 142.383 114.473 140.053 114.473C137.798 114.473 136.369 113.133 136.369 110.676V100.848H132.761V110.973C132.761 115.292 135.392 117.749 139.151 117.749C141.406 117.749 143.21 116.93 144.338 115.217V117.302H147.946V100.848H144.263Z" fill="white"/>
<path d="M157.119 103.6V100.845H153.511V117.299H157.119V109.035C157.119 105.386 159.901 104.27 162.231 104.418V100.547C160.201 100.547 158.171 101.366 157.119 103.6Z" fill="white"/>
<path d="M166.444 100.848V117.302H170.053V100.848H166.444Z" fill="white"/>
<path d="M185.007 104.273V100.849H180.872V96.2324L177.264 97.2747V100.849H174.182V104.273H177.264V112.165C177.264 116.484 179.444 117.973 185.007 117.303V114.101C182.301 114.25 180.872 114.25 180.872 112.165V104.273H185.007Z" fill="white"/>
<path d="M201.235 100.848L196.95 112.835L191.988 100.848H188.079L195.146 117.004L194.995 117.302C194.168 119.461 192.89 120.652 190.56 120.503V123.854C194.394 124.077 197.1 121.993 198.679 117.823L205.069 100.848H201.235Z" fill="white"/>
<path d="M44.4235 39.5723C41.5669 39.5723 38.7855 40.019 36.2295 40.9124C40.2138 44.0395 43.4464 48.1345 45.3258 52.974C50.8887 53.4207 55.0233 57.5901 55.0233 63.6953C55.0233 69.8006 50.9639 73.9699 45.4761 74.4167C43.5967 79.2561 40.4393 83.4256 36.455 86.4782C38.9358 87.2971 41.6421 87.744 44.4235 87.744C57.9551 87.744 68.8557 77.246 68.8557 63.6208C68.8557 50.0703 57.9551 39.5723 44.4235 39.5723Z" fill="white"/>
<path d="M24.8827 49.1016C24.0558 50.1439 23.304 51.3352 22.7026 52.5264C26.0855 55.1323 28.2656 59.1528 28.2656 63.769C28.2656 68.3852 26.1607 72.4057 22.7778 74.937C23.4544 76.1282 24.2061 77.3195 25.0331 78.3618C29.8443 75.3094 33.0017 69.9486 33.0017 63.769C32.9265 57.5149 29.7691 52.1542 24.8827 49.1016Z" fill="white"/>
<path d="M39.1647 73.1523C37.3605 77.4706 34.3535 81.0444 30.5195 83.5759C31.7975 84.3948 33.1507 85.1394 34.579 85.735C38.5633 82.9058 41.7206 78.9598 43.6751 74.3436C42.0214 74.3436 40.5178 73.8969 39.1647 73.1523Z" fill="white"/>
<path d="M34.3598 41.6582C32.9314 42.2538 31.5783 42.9984 30.3755 43.8918C34.2094 46.4233 37.2164 49.997 39.0958 54.2409C40.449 53.4964 41.9525 53.0496 43.6063 52.9752C41.5766 48.3591 38.4193 44.4874 34.3598 41.6582Z" fill="white"/>
<path d="M28.9426 44.9297C27.8901 45.8231 26.8377 46.7166 25.9355 47.7589C30.2957 50.5137 33.3027 54.981 34.28 60.2672C34.8814 58.1825 36.0842 56.3956 37.6629 55.2043C35.8587 50.886 32.8517 47.3122 28.9426 44.9297Z" fill="white"/>
<path d="M34.365 67.1953C33.4629 72.4816 30.3807 76.9487 26.0957 79.7035C26.9978 80.7458 28.0503 81.7138 29.1779 82.5327C33.087 80.0759 36.094 76.5021 37.823 72.2581C36.1692 70.9924 34.9664 69.2799 34.365 67.1953Z" fill="white"/>
<path d="M21.9546 54.0898C20.6766 56.9935 20 60.2696 20 63.6944C20 67.1938 20.7518 70.4697 22.0297 73.4479C24.8112 71.2143 26.5402 67.7149 26.5402 63.7689C26.5402 59.8228 24.8112 56.3235 21.9546 54.0898Z" fill="white"/>
<path d="M102.919 39.9453V55.4317C97.2062 54.5383 89.0872 56.7719 89.0872 65.8553V86.479H75.2549V40.8388H83.0732C85.8547 40.8388 88.1098 42.7001 88.8618 45.1571C92.395 41.8067 97.3565 40.0942 102.243 39.9453C102.243 39.9453 102.243 39.9453 102.318 39.9453C102.468 39.9453 102.694 39.9453 102.919 39.9453Z" fill="white"/>
<path d="M140.354 69.4261C138.55 72.6275 135.167 74.5634 131.183 74.5634C125.169 74.5634 120.583 70.245 120.583 63.7677C120.583 57.2901 125.169 52.9718 131.183 52.9718C135.167 52.9718 138.475 54.8331 140.354 57.9602L152.157 51.1849C147.872 44.1862 140.129 39.6445 131.183 39.6445C117.651 39.6445 106.751 50.1425 106.751 63.7677C106.751 77.3926 117.651 87.8907 131.183 87.8907C140.204 87.8907 148.022 83.2745 152.232 76.2014L140.354 69.4261Z" fill="white"/>
<path d="M197.496 40.838C194.79 40.838 192.46 42.6249 191.708 45.1563C188.55 41.657 183.965 39.5723 177.725 39.5723C165.622 39.5723 155.699 50.0703 155.699 63.6953C155.699 77.3204 165.622 87.8183 177.725 87.8183C183.965 87.8183 188.55 85.7336 191.708 82.2343C192.46 84.6913 194.715 86.5527 197.496 86.5527H205.315V63.6953V40.838H197.496ZM180.206 74.4912C174.192 74.4912 169.606 70.1728 169.606 63.6953C169.606 57.2178 174.192 52.8995 180.206 52.8995C186.22 52.8995 190.806 57.2178 190.806 63.6953C190.806 70.1728 186.145 74.4912 180.206 74.4912Z" fill="white"/>
</g>
</g>
<g clip-path="url(#clip1_3189_172220)">
<mask id="mask1_3189_172220" style="mask-type:luminance" maskUnits="userSpaceOnUse" x="-374" y="-398" width="2418" height="1046">
<path d="M2043.02 -397.025H-373.814V647.54H2043.02V-397.025Z" fill="white"/>
</mask>
<g mask="url(#mask1_3189_172220)">
<path d="M561.77 25.8809C535.055 25.8809 513.456 47.3368 513.456 73.8744C513.456 100.412 535.055 121.868 561.77 121.868C588.484 121.868 610.084 100.412 610.084 73.8744C610.084 47.3368 588.484 25.8809 561.77 25.8809ZM616.336 73.8744C616.336 103.8 591.895 128.079 561.77 128.079C531.644 128.079 507.203 103.8 507.203 73.8744C507.203 43.949 531.644 19.6699 561.77 19.6699C591.895 19.6699 616.336 43.949 616.336 73.8744Z" fill="white"/>
</g>
<mask id="mask2_3189_172220" style="mask-type:luminance" maskUnits="userSpaceOnUse" x="-374" y="-398" width="2418" height="1046">
<path d="M2043.02 -397.025H-373.814V647.54H2043.02V-397.025Z" fill="white"/>
</mask>
<g mask="url(#mask2_3189_172220)">
<path d="M565.182 38.3047H558.93V109.448H565.182V38.3047Z" fill="white"/>
</g>
<mask id="mask3_3189_172220" style="mask-type:luminance" maskUnits="userSpaceOnUse" x="475" y="-19" width="433" height="188">
<path d="M907.919 -18.6855H475.526V168.196H907.919V-18.6855Z" fill="white"/>
</mask>
<g mask="url(#mask3_3189_172220)">
<path d="M721.924 76.3739V91.3244H738.398V95.8702H716.941V56.2715H738.398V60.8173H721.924V71.9291H737.89V76.3739H721.924Z" fill="white"/>
</g>
<mask id="mask4_3189_172220" style="mask-type:luminance" maskUnits="userSpaceOnUse" x="475" y="-19" width="433" height="188">
<path d="M907.919 -18.6855H475.526V168.196H907.919V-18.6855Z" fill="white"/>
</mask>
<g mask="url(#mask4_3189_172220)">
<path d="M794.636 76.3739V91.3244H811.11V95.8702H789.755V56.2715H811.11V60.8173H794.636V71.9291H810.602V76.3739H794.636Z" fill="white"/>
</g>
<mask id="mask5_3189_172220" style="mask-type:luminance" maskUnits="userSpaceOnUse" x="475" y="-19" width="433" height="188">
<path d="M907.919 -18.6855H475.526V168.196H907.919V-18.6855Z" fill="white"/>
</mask>
<g mask="url(#mask5_3189_172220)">
<path d="M820.771 75.0607H822.398C827.482 75.0607 832.974 74.1515 832.974 67.7874C832.974 61.6254 827.076 60.7162 822.093 60.7162H820.771V75.0607ZM840.601 95.8702H834.601L822.906 79.1014H820.873V95.8702H815.89V56.2715H821.889C825.449 56.2715 829.211 56.3725 832.364 58.0898C835.72 60.0091 837.55 63.7468 837.55 67.5854C837.55 73.2424 833.787 77.9902 827.991 78.6973L840.601 95.8702Z" fill="white"/>
</g>
<mask id="mask6_3189_172220" style="mask-type:luminance" maskUnits="userSpaceOnUse" x="475" y="-19" width="433" height="188">
<path d="M907.919 -18.6855H475.526V168.196H907.919V-18.6855Z" fill="white"/>
</mask>
<g mask="url(#mask6_3189_172220)">
<path d="M707.283 95.8702H712.266V56.2715H707.283V87.9909L682.369 56.2715H677.386V95.8702H682.369V63.9488L707.283 95.8702Z" fill="white"/>
</g>
<mask id="mask7_3189_172220" style="mask-type:luminance" maskUnits="userSpaceOnUse" x="475" y="-19" width="433" height="188">
<path d="M907.919 -18.6855H475.526V168.196H907.919V-18.6855Z" fill="white"/>
</mask>
<g mask="url(#mask7_3189_172220)">
<path d="M784.871 91.3205H762.6L784.871 60.8133V56.2676H759.448V60.8133H778.973L756.702 91.3205V95.8663H784.871V91.3205Z" fill="white"/>
</g>
<mask id="mask8_3189_172220" style="mask-type:luminance" maskUnits="userSpaceOnUse" x="475" y="-19" width="433" height="188">
<path d="M907.919 -18.6855H475.526V168.196H907.919V-18.6855Z" fill="white"/>
</mask>
<g mask="url(#mask8_3189_172220)">
<path d="M653.589 60.408C644.843 60.408 637.826 67.4792 637.826 76.0656C637.826 84.6521 644.945 91.7233 653.589 91.7233C662.334 91.7233 669.351 84.6521 669.351 76.0656C669.351 67.4792 662.334 60.408 653.589 60.408ZM674.13 76.0656C674.13 87.3795 664.876 96.4711 653.589 96.4711C642.199 96.4711 633.047 87.2785 633.047 76.0656C633.047 64.8527 642.301 55.6602 653.589 55.6602C664.978 55.6602 674.13 64.7517 674.13 76.0656Z" fill="white"/>
</g>
<mask id="mask9_3189_172220" style="mask-type:luminance" maskUnits="userSpaceOnUse" x="475" y="-19" width="433" height="188">
<path d="M907.919 -18.6855H475.526V168.196H907.919V-18.6855Z" fill="white"/>
</mask>
<g mask="url(#mask9_3189_172220)">
<path d="M860.225 60.408C851.48 60.408 844.463 67.4792 844.463 76.0656C844.463 84.6521 851.581 91.7233 860.225 91.7233C868.971 91.7233 875.987 84.6521 875.987 76.0656C875.987 67.4792 868.971 60.408 860.225 60.408ZM880.869 76.0656C880.869 87.3795 871.615 96.4711 860.327 96.4711C848.937 96.4711 839.785 87.2785 839.785 76.0656C839.785 64.8527 849.039 55.6602 860.327 55.6602C871.615 55.6602 880.869 64.7517 880.869 76.0656Z" fill="white"/>
</g>
</g>
<path d="M1241.37 95.2793L1234.43 97.25C1235.04 99.0359 1235.52 102.241 1235.52 106.552V127.742H1243.3V105.323C1244.75 103.537 1246.32 102.673 1248.01 102.673C1248.85 102.673 1249.52 102.855 1250.24 103.29L1252.35 95.9588C1251.14 95.4043 1250.6 95.2819 1249.45 95.2819C1248.61 95.2819 1247.58 95.4641 1246.92 95.7765C1245.47 96.5159 1243.66 98.1794 1242.52 99.7804C1242.52 97.9945 1242.1 96.5783 1241.37 95.2845L1241.37 95.2793ZM1214.56 84.8088H1213.72V127.685H1221.8V108.707H1231.99V101.626H1221.8V91.7701H1234.53L1235.01 88.0109C1228.12 87.5063 1221.28 86.4346 1214.56 84.8062L1214.56 84.8088ZM1195.68 133.412L1199.42 137.848C1203.04 136.37 1207.56 133.043 1208.77 127.748C1209.19 126.022 1209.31 124.91 1209.31 119.308V84.8687H1201.17V120.229C1201.17 124.85 1200.99 126.574 1200.39 128.177C1199.6 129.963 1197.73 132.056 1195.68 133.41L1195.68 133.412ZM1269.09 111.667C1269.09 119.183 1267.64 122.387 1264.32 122.387C1262.81 122.387 1261.12 121.528 1260.4 119.8C1259.8 118.199 1259.43 115.489 1259.43 111.792C1259.43 108.65 1259.73 106.429 1260.22 104.711C1260.82 102.74 1262.33 101.509 1264.2 101.509C1265.59 101.509 1266.79 102.126 1267.52 103.175C1268.6 104.654 1269.08 107.426 1269.08 111.677L1269.09 111.667ZM1273.85 123.988C1276.39 120.909 1277.53 117.15 1277.53 111.727C1277.53 106.614 1276.51 103.102 1274.16 100.142C1271.62 96.9402 1268.37 95.3991 1264.15 95.3991C1256.18 95.3991 1250.88 101.991 1250.88 111.972C1250.88 121.953 1256.13 128.359 1264.15 128.359C1268.67 128.422 1271.62 126.693 1273.83 123.986L1273.85 123.988ZM1295.93 106.247C1295.93 109.142 1294.24 110.743 1291.22 110.743C1288.51 110.743 1286.7 109.449 1286.7 106.247C1286.7 103.29 1288.39 101.566 1291.28 101.566C1294.17 101.566 1295.93 103.292 1295.93 106.247ZM1309.62 99.4706L1306.44 94.2588C1304.66 95.9848 1302.46 96.9662 1300.33 96.9662C1299.36 96.9662 1298.82 96.8439 1296.71 96.2894C1294.99 95.752 1293.2 95.4817 1291.4 95.4876C1283.86 95.4876 1278.98 99.6789 1278.98 106.208C1278.98 110.889 1281.03 113.846 1285.31 115.017C1283.56 115.45 1281.69 116.371 1280.85 117.42C1280.25 118.16 1279.94 119.146 1279.94 120.315C1279.94 121.214 1280.15 122.101 1280.55 122.903C1280.97 123.58 1281.52 124.134 1282.24 124.444C1283.63 124.999 1285.86 125.368 1289.3 125.433L1292.56 125.496C1294.67 125.618 1295.75 125.99 1296.6 126.42C1297.38 126.915 1297.98 128.021 1297.98 129.258C1297.98 130.494 1297.26 131.723 1296.11 132.46C1295.09 133.199 1293.4 133.506 1291.23 133.506C1287.67 133.506 1285.68 132.152 1285.68 129.627C1285.68 128.518 1285.8 128.273 1286.04 127.597H1278.94C1278.64 128.214 1278.28 129.075 1278.28 130.799C1278.28 132.954 1279.07 134.803 1280.69 136.404C1283.34 139.054 1287.69 139.793 1291.85 139.793C1296.44 139.793 1300.9 138.684 1303.49 135.727C1305.12 133.904 1305.85 131.848 1305.85 129.198C1305.85 126.36 1305.06 124.207 1303.31 122.421C1301.26 120.391 1298.91 119.649 1294.39 119.584L1290.22 119.521C1289.44 119.521 1288.96 119.214 1288.96 118.782C1288.96 117.923 1290.04 117.181 1292.03 116.194L1293.18 116.257C1299.45 116.257 1304.04 112.315 1304.04 106.833C1304.04 104.737 1303.43 103.136 1302.29 101.657C1303.26 101.78 1303.56 101.84 1304.28 101.84C1306.33 101.84 1307.96 101.163 1309.65 99.4966L1309.62 99.4706ZM1212.51 47.5348C1202.86 49.9377 1196.28 54.6809 1196.28 60.1009C1196.28 63.4904 1198.82 66.5701 1202.98 68.973C1201.71 66.9424 1201.05 64.7218 1201.05 62.5038C1201.11 56.8989 1205.39 51.6611 1212.51 47.5348ZM1314.32 68.7881C1314.32 65.2138 1312.15 61.9493 1308.53 59.2393C1308.83 60.3483 1309.07 61.4573 1309.07 62.5663C1309.07 72.7321 1295.14 81.4792 1275.36 85.1108C1277.66 85.3616 1279.98 85.485 1282.29 85.4805C1299.97 85.418 1314.32 77.9674 1314.32 68.7881ZM1302.92 63.2431C1302.92 59.484 1299.79 56.032 1294.42 53.2022C1295.68 54.7434 1296.35 56.4043 1296.35 58.1303C1296.35 67.1897 1277.53 74.518 1254.25 74.518C1231.03 74.518 1212.15 67.1871 1212.15 58.1303C1212.15 56.9579 1212.46 55.8078 1213.06 54.8032C1209.32 57.3284 1207.21 60.2233 1207.21 63.3056C1207.21 73.1018 1228.62 81.0471 1255.04 81.0471C1281.46 81.0471 1302.93 72.9769 1302.93 63.2405L1302.92 63.2431ZM1282.05 62.7485C1272.28 69.1526 1242.25 71.6205 1229.34 63.3655C1219.21 56.8963 1222.7 46.6081 1193.69 24.0609C1189.9 21.1036 1194.42 17.9614 1197.25 19.9946C1200.09 22.0277 1197.49 22.5198 1203.22 28.372C1214.8 40.1987 1214.68 29.5435 1216.49 33.6046C1220.35 42.0445 1228.8 50.5469 1228.8 50.5469C1237.3 56.2142 1244.06 57.4456 1256.6 48.761C1264.57 43.2785 1261.31 57.5081 1280.79 47.2198C1287.91 43.4607 1287.61 45.9885 1294.84 35.7003C1297.86 31.4491 1303.59 38.9648 1297.08 40.0113C1294.48 40.4435 1290.08 43.3383 1288.21 47.8993C1285.49 54.7382 1286.64 59.7886 1282.06 62.7459L1282.05 62.7485ZM1227.89 45.3767C1225.48 44.2677 1222.95 40.079 1221.98 38.4155C1224.69 35.7081 1223.61 31.2044 1222.04 28.7442C1220.53 26.2789 1218.66 26.9584 1216.67 24.6779C1214.62 22.3974 1217.46 16.4853 1220.05 21.0437C1229.73 38.1083 1236.15 31.0247 1244.05 29.973C1251.65 28.9837 1258.41 33.2375 1260.46 21.2259C1260.82 19.2552 1262.69 18.8231 1262.87 22.0277C1263.05 25.2923 1264.26 33.1777 1268.42 34.1643C1272.58 35.2108 1275.96 33.1751 1276.93 32.0687C1277.89 30.9623 1278.44 31.0794 1278.86 33.891C1279.28 36.6635 1280.37 40.545 1286.21 36.2339C1298.22 27.4869 1294.78 24.0974 1299.48 21.8195C1302.13 20.5256 1306.36 24.7143 1300.27 27.8591C1291.58 32.355 1290.68 37.9 1285.19 41.4119C1275.96 47.3266 1278.8 41.6592 1263.96 39.5011C1258.23 38.6992 1256.42 45.1684 1251.95 43.3201C1241.76 39.009 1234.58 39.8707 1227.89 45.3507L1227.89 45.3767ZM1260.04 13.7727C1260.4 16.3604 1260.82 16.2979 1261.73 16.4801C1262.63 16.7274 1263.78 15.2488 1263.78 13.8924C1263.84 12.4762 1263.18 11.612 1261.85 11.6744C1260.46 11.7369 1259.98 12.4138 1260.07 13.7701L1260.04 13.7727ZM1304.67 18.3935C1305.75 19.4401 1308.65 18.7632 1309.31 17.9614C1311.06 15.9907 1311.1 14.8192 1310.22 13.4655C1309.31 12.1717 1307.44 12.3565 1305.57 13.7727C1303.71 15.1889 1304.06 17.839 1304.67 18.3935ZM1303.88 31.4543C1302.98 32.6856 1302.91 33.6098 1303.58 34.2919C1304.31 35.0312 1305.75 35.6456 1306.78 34.8464C1307.8 33.9873 1307.8 32.7507 1306.96 31.7042C1306.05 30.5952 1304.85 30.5952 1303.88 31.4569L1303.88 31.4543ZM1212.35 16.0558C1213.74 16.4879 1214.41 17.8416 1215.55 16.3031C1216.15 15.5638 1216.21 14.5172 1215.43 13.4082C1214.95 12.7314 1212.65 12.2367 1211.69 13.226C1210.73 14.2152 1211.63 15.8137 1212.35 16.0636V16.0558ZM1184.07 15.1967C1186.6 16.7977 1188.23 19.2006 1190.18 17.019C1190.85 16.2797 1191.63 14.9884 1190.25 12.3981C1189.22 10.4873 1185.9 9.74799 1184.76 10.4873C1183.55 11.1642 1182.11 13.9367 1184.1 15.1681L1184.07 15.1967ZM1207.41 27.4582C1208.19 28.3173 1209.58 28.26 1210.42 27.7654C1211.21 27.2708 1211.09 25.9795 1210.3 24.8705C1209.82 24.1937 1208.38 23.824 1207.41 24.8705C1206.44 25.9171 1206.87 26.8412 1207.41 27.4582Z" fill="white"/>
<path d="M1628.55 106.998C1620.91 106.998 1617.89 102.613 1619.18 95.3056L1622.57 76.0147H1615.65L1616.97 68.4869H1623.88L1625.98 56.5742H1635.08L1632.99 68.4869H1642.53L1641.2 76.0147H1631.67L1628.42 94.5021C1627.91 97.4245 1629 98.6677 1631.91 98.6677C1633.9 98.6731 1635.89 98.5507 1637.87 98.3015L1636.52 105.975C1633.92 106.64 1631.24 106.983 1628.55 106.998Z" fill="white"/>
<path d="M1641.51 106.277L1648.15 68.4863H1657.35L1650.71 106.277H1641.51Z" fill="white"/>
<path d="M1764.23 106.998C1756.59 106.998 1753.57 102.613 1754.85 95.3056L1758.24 76.0147H1751.33L1752.65 68.4869H1759.57L1761.66 56.5742H1770.76L1768.67 68.4869H1778.21L1776.89 76.0147H1767.35L1764.1 94.5021C1763.59 97.4245 1764.68 98.6677 1767.59 98.6677C1769.58 98.673 1771.58 98.5507 1773.55 98.3015L1772.21 105.975C1769.6 106.641 1766.92 106.984 1764.23 106.998Z" fill="white"/>
<path d="M1777.19 106.277L1783.83 68.4863H1793.02L1786.38 106.277H1777.19Z" fill="white"/>
<path d="M1684.22 104.3C1681.57 106.188 1678.33 107.35 1674.5 107.35C1670.01 107.35 1666.67 105.752 1665.31 103.647L1662.28 120.858H1653.24L1662.41 68.6453H1670.86L1670.07 72.7856C1672.93 69.2993 1677.4 67.7734 1681.52 67.7734C1685.28 67.7734 1688.09 69.0813 1690.07 70.9696C1693.91 74.6688 1695.15 80.3375 1693.91 87.4509C1692.61 94.8595 1689.36 100.597 1684.22 104.3ZM1683.93 78.3199C1682.92 76.6496 1681.2 75.3405 1678.38 75.3405C1671.28 75.3405 1668.65 82.099 1667.69 87.5497C1666.73 93.0004 1667.01 99.6854 1674.1 99.6854C1676.92 99.6854 1679.11 98.3775 1680.71 96.706C1683.02 94.236 1684.13 90.8194 1684.7 87.5497C1685.28 84.2801 1685.38 80.7912 1683.93 78.3199Z" fill="white"/>
<path d="M1723.81 106.968C1719.89 106.968 1718.16 104.497 1718.37 101.662C1716.1 104.715 1711.29 107.33 1705.93 107.33C1696.96 107.33 1693.32 101.662 1694.4 95.485C1695.67 88.2905 1701.97 84.1489 1709.23 83.6395L1720.45 82.8411L1720.85 80.5156C1721.48 76.9545 1720.67 74.5593 1715.53 74.5593C1711.33 74.5593 1708.54 76.4488 1707.7 79.9377H1698.95C1700.95 71.4353 1708.34 67.6562 1716.74 67.6562C1723.18 67.6562 1728.33 69.6915 1729.51 75.3589C1730.03 77.7579 1729.7 80.4459 1729.25 82.9894L1726.79 97.0121C1726.48 98.7559 1726.95 99.4098 1728.47 99.4098C1728.86 99.4017 1729.26 99.3529 1729.65 99.2641L1728.48 105.95C1726.84 106.604 1725.98 106.968 1723.81 106.968ZM1719.26 89.5907L1709.58 90.3169C1706.79 90.5349 1703.82 92.2064 1703.28 95.2594C1702.78 98.1666 1704.99 99.9839 1707.81 99.9839C1713.46 99.9839 1717.97 96.931 1718.96 91.3358L1719.26 89.5907Z" fill="white"/>
<path d="M1742.7 106.783C1736.55 106.783 1732.94 103.804 1734.21 96.6093L1741.23 56.5625H1750.35L1743.6 95.0784C1743.22 97.2582 1743.47 98.7118 1746.58 98.7118C1747.38 98.7118 1747.61 98.6382 1748.11 98.6382L1746.77 106.269C1744.9 106.637 1744.51 106.783 1742.7 106.783Z" fill="white"/>
<path d="M1796 50.4232C1796.04 51.7002 1795.74 52.9659 1795.14 54.0918C1794.54 55.2178 1793.65 56.164 1792.57 56.8345C1791.49 57.5049 1790.25 57.8758 1788.97 57.9094C1787.7 57.943 1786.44 57.6382 1785.33 57.0259C1785.2 56.9511 1785.07 56.8764 1784.95 56.8041C1784.94 56.794 1784.94 56.7902 1784.93 56.7902C1765.94 45.5834 1743.67 39.4712 1720.02 40.2595C1695.79 41.068 1673.47 49.0102 1655 62.0178C1654.91 62.0812 1654.81 62.1445 1654.71 62.2168C1654.54 62.3038 1654.36 62.3522 1654.17 62.3587C1654 62.3646 1653.82 62.3365 1653.66 62.276C1653.5 62.2155 1653.36 62.1238 1653.23 62.0061C1653.1 61.8884 1653 61.7471 1652.93 61.5901C1652.86 61.4332 1652.82 61.2637 1652.82 61.0914C1652.81 60.8577 1652.86 60.6259 1652.97 60.421C1653.19 60.2208 1653.41 60.0294 1653.62 59.833C1673.92 41.6231 1700.45 30.1857 1729.78 29.2086C1752.19 28.4609 1773.37 33.9141 1791.69 44.036C1791.7 44.036 1791.71 44.036 1791.71 44.0462L1792.23 44.3275C1792.99 44.7437 1793.68 45.2939 1794.26 45.9522C1795.33 47.1999 1795.94 48.7777 1796 50.4232Z" fill="white"/>
<defs>
<clipPath id="clip0_3189_172220">
<rect width="185.307" height="97.8562" fill="white" transform="translate(20 26.0723)"/>
</clipPath>
<clipPath id="clip1_3189_172220">
<rect width="375.144" height="112.926" fill="white" transform="translate(506.638 18.5371)"/>
</clipPath>
</defs>
</svg>
