<svg width="228" height="70" viewBox="0 0 228 70" fill="none" xmlns="http://www.w3.org/2000/svg">
<g id="ONE_ZERO 1" clip-path="url(#clip0_2669_170130)">
<g id="Clip path group">
<mask id="mask0_2669_170130" style="mask-type:luminance" maskUnits="userSpaceOnUse" x="-534" y="-252" width="1466" height="634">
<g id="SVGID_4_">
<path id="use851" d="M931.519 -251.246H-533.231V381.824H931.519V-251.246Z" fill="white"/>
</g>
</mask>
<g mask="url(#mask0_2669_170130)">
<path id="path4" d="M33.79 5.06107C17.5992 5.06107 4.50882 18.0647 4.50882 34.1481C4.50882 50.2315 17.5992 63.2351 33.79 63.2351C49.9808 63.2351 63.0712 50.2315 63.0712 34.1481C63.0712 18.0647 49.9808 5.06107 33.79 5.06107ZM66.8606 34.1481C66.8606 52.2847 52.0477 66.9993 33.79 66.9993C15.5323 66.9993 0.719482 52.2847 0.719482 34.1481C0.719482 16.0115 15.5323 1.29688 33.79 1.29688C52.0477 1.29688 66.8606 16.0115 66.8606 34.1481Z" fill="white"/>
</g>
</g>
<g id="Clip path group_2">
<mask id="mask1_2669_170130" style="mask-type:luminance" maskUnits="userSpaceOnUse" x="-534" y="-252" width="1466" height="634">
<g id="SVGID_4__2">
<path id="use851_2" d="M931.519 -251.246H-533.231V381.824H931.519V-251.246Z" fill="white"/>
</g>
</mask>
<g mask="url(#mask1_2669_170130)">
<path id="rect6" d="M35.8587 12.5898H32.0693V55.707H35.8587V12.5898Z" fill="white"/>
</g>
</g>
<g id="g928">
<g id="g856">
<g id="Clip path group_3">
<mask id="mask2_2669_170130" style="mask-type:luminance" maskUnits="userSpaceOnUse" x="-19" y="-22" width="263" height="114">
<g id="SVGID_4__3">
<path id="use851_3" d="M243.578 -21.9473H-18.4778V91.3143H243.578V-21.9473Z" fill="white"/>
</g>
</mask>
<g mask="url(#mask2_2669_170130)">
<path id="polygon854" d="M130.854 35.6637V44.7247H140.838V47.4797H127.834V23.4805H140.838V26.2355H130.854V32.97H140.53V35.6637H130.854Z" fill="white"/>
</g>
</g>
</g>
<g id="g866">
<g id="Clip path group_4">
<mask id="mask3_2669_170130" style="mask-type:luminance" maskUnits="userSpaceOnUse" x="-19" y="-22" width="263" height="114">
<g id="SVGID_6_">
<path id="use861" d="M243.578 -21.9473H-18.4778V91.3143H243.578V-21.9473Z" fill="white"/>
</g>
</mask>
<g mask="url(#mask3_2669_170130)">
<path id="polygon864" d="M174.922 35.6637V44.7247H184.906V47.4797H171.964V23.4805H184.906V26.2355H174.922V32.97H184.598V35.6637H174.922Z" fill="white"/>
</g>
</g>
</g>
<g id="g876">
<g id="Clip path group_5">
<mask id="mask4_2669_170130" style="mask-type:luminance" maskUnits="userSpaceOnUse" x="-19" y="-22" width="263" height="114">
<g id="SVGID_8_">
<path id="use871" d="M243.578 -21.9473H-18.4778V91.3143H243.578V-21.9473Z" fill="white"/>
</g>
</mask>
<g mask="url(#mask4_2669_170130)">
<path id="path874" d="M190.761 34.8679H191.747C194.829 34.8679 198.157 34.3168 198.157 30.4598C198.157 26.7253 194.582 26.1743 191.562 26.1743H190.761V34.8679ZM202.779 47.4797H199.143L192.055 37.3168H190.823V47.4797H187.803V23.4805H191.439C193.596 23.4805 195.876 23.5417 197.787 24.5825C199.821 25.7457 200.93 28.0109 200.93 30.3374C200.93 33.7658 198.65 36.6433 195.137 37.0719L202.779 47.4797Z" fill="white"/>
</g>
</g>
</g>
<g id="g886">
<g id="Clip path group_6">
<mask id="mask5_2669_170130" style="mask-type:luminance" maskUnits="userSpaceOnUse" x="-19" y="-22" width="263" height="114">
<g id="SVGID_10_">
<path id="use881" d="M243.578 -21.9473H-18.4778V91.3143H243.578V-21.9473Z" fill="white"/>
</g>
</mask>
<g mask="url(#mask5_2669_170130)">
<path id="polygon884" d="M121.981 47.4797H125.001V23.4805H121.981V42.7043L106.881 23.4805H103.861V47.4797H106.881V28.1334L121.981 47.4797Z" fill="white"/>
</g>
</g>
</g>
<g id="g896">
<g id="Clip path group_7">
<mask id="mask6_2669_170130" style="mask-type:luminance" maskUnits="userSpaceOnUse" x="-19" y="-22" width="263" height="114">
<g id="SVGID_12_">
<path id="use891" d="M243.578 -21.9473H-18.4778V91.3143H243.578V-21.9473Z" fill="white"/>
</g>
</mask>
<g mask="url(#mask6_2669_170130)">
<path id="polygon894" d="M169.003 44.7247H155.506L169.003 26.2355V23.4805H153.595V26.2355H165.429L151.931 44.7247V47.4797H169.003V44.7247Z" fill="white"/>
</g>
</g>
</g>
<g id="g906">
<g id="Clip path group_8">
<mask id="mask7_2669_170130" style="mask-type:luminance" maskUnits="userSpaceOnUse" x="-19" y="-22" width="263" height="114">
<g id="SVGID_14_">
<path id="use901" d="M243.578 -21.9473H-18.4778V91.3143H243.578V-21.9473Z" fill="white"/>
</g>
</mask>
<g mask="url(#mask7_2669_170130)">
<path id="path904" d="M89.4385 25.9907C84.1382 25.9907 79.8857 30.2763 79.8857 35.4802C79.8857 40.6841 84.1999 44.9697 89.4385 44.9697C94.7388 44.9697 98.9914 40.6841 98.9914 35.4802C98.9914 30.2763 94.7388 25.9907 89.4385 25.9907ZM101.888 35.4802C101.888 42.3371 96.2796 47.8472 89.4385 47.8472C82.5358 47.8472 76.989 42.2759 76.989 35.4802C76.989 28.6845 82.5975 23.1133 89.4385 23.1133C96.3412 23.1133 101.888 28.6233 101.888 35.4802Z" fill="white"/>
</g>
</g>
</g>
<g id="g916">
<g id="Clip path group_9">
<mask id="mask8_2669_170130" style="mask-type:luminance" maskUnits="userSpaceOnUse" x="-19" y="-22" width="263" height="114">
<g id="SVGID_16_">
<path id="use911" d="M243.578 -21.9473H-18.4778V91.3143H243.578V-21.9473Z" fill="white"/>
</g>
</mask>
<g mask="url(#mask8_2669_170130)">
<path id="path914" d="M214.673 25.9907C209.373 25.9907 205.12 30.2763 205.12 35.4802C205.12 40.6841 209.434 44.9697 214.673 44.9697C219.973 44.9697 224.226 40.6841 224.226 35.4802C224.226 30.2763 219.973 25.9907 214.673 25.9907ZM227.184 35.4802C227.184 42.3371 221.575 47.8472 214.734 47.8472C207.832 47.8472 202.285 42.2759 202.285 35.4802C202.285 28.6845 207.893 23.1133 214.734 23.1133C221.575 23.1133 227.184 28.6233 227.184 35.4802Z" fill="white"/>
</g>
</g>
</g>
</g>
</g>
<defs>
<clipPath id="clip0_2669_170130">
<rect width="227.36" height="68.44" fill="white" transform="translate(0.376709 0.613281)"/>
</clipPath>
</defs>
</svg>
