<svg width="312" height="93" viewBox="0 0 312 93" fill="none" xmlns="http://www.w3.org/2000/svg">
<g id="Frame 3848">
<g id="Vector">
<path d="M32.6846 35.3718C31.3096 32.816 31.6869 29.8684 33.6332 27.6065C38.0247 22.4949 46.9836 23.4635 53.178 26.0212C53.4102 25.6402 53.5426 25.1904 53.5426 24.7115C53.5426 23.3021 52.3999 22.1612 50.9923 22.1612C50.4336 22.1612 49.9185 22.3407 49.4994 22.6455C43.2251 20.184 35.8099 19.8466 30.9051 24.4684C30.4426 23.8118 29.6807 23.3819 28.8173 23.3819C27.4079 23.3819 26.267 24.5229 26.267 25.9323C26.267 27.0641 27.0034 28.0237 28.0246 28.3575C26.5554 31.2198 25.9477 34.2417 25.8752 37.1857C28.0754 36.3477 30.3573 35.74 32.6864 35.3718H32.6846Z" fill="white"/>
<path d="M34.8762 32.6821C34.8762 33.5564 35.5855 34.2656 36.4598 34.2656C37.3341 34.2656 38.0433 33.5564 38.0433 32.6821C38.0433 31.8078 37.3341 31.0986 36.4598 31.0986C35.5855 31.0986 34.8762 31.8078 34.8762 32.6821Z" fill="white"/>
<path d="M53.0242 32.6821C53.0242 31.8078 52.3149 31.0986 51.4406 31.0986C50.5663 31.0986 49.8571 31.8078 49.8571 32.6821C49.8571 33.5564 50.5663 34.2656 51.4406 34.2656C52.3149 34.2656 53.0242 33.5564 53.0242 32.6821Z" fill="white"/>
<path d="M39.6617 40.6239C39.5547 40.1342 39.0704 39.8258 38.5807 39.9328C33.1553 41.1246 28.1344 43.7475 24.0604 47.5222C23.6921 47.8632 23.6704 48.4364 24.0114 48.8046C24.1819 48.9878 24.4104 49.0858 24.6426 49.0949C24.8748 49.1039 25.1106 49.0241 25.2938 48.8536C29.132 45.2984 33.8609 42.8278 38.9706 41.705C39.4604 41.598 39.7688 41.1137 39.6617 40.6239Z" fill="white"/>
<path d="M38.074 38.579C38.5746 38.579 38.9809 38.1745 38.9809 37.6738C38.9809 37.1732 38.5764 36.7669 38.0758 36.7651H38.0377C31.7979 36.7651 25.7267 38.5518 20.4809 41.9347C20.0601 42.2068 19.9386 42.7673 20.2106 43.1881C20.3848 43.4566 20.675 43.6035 20.9743 43.6035C21.143 43.6035 21.3135 43.5563 21.4641 43.4584C26.416 40.2659 32.1461 38.579 38.0377 38.579C38.0504 38.579 38.0631 38.5771 38.0758 38.579H38.074Z" fill="white"/>
<path d="M81.3199 59.1552C84.6085 56.1043 86.8233 51.9849 87.4962 47.4283C88.4159 41.2048 86.3517 34.9396 81.9783 30.4919C81.8913 30.403 81.7516 30.3885 81.6482 30.4556C81.5448 30.5228 81.5013 30.657 81.5484 30.7731C83.8829 36.5776 82.9687 43.0042 79.5187 47.8637C79.8035 45.4312 78.3705 43.0423 75.958 42.217C75.6968 42.1281 75.4102 42.2569 75.305 42.5127C73.6489 46.5214 69.7109 49.2749 65.1997 49.2749C60.6885 49.2749 56.8902 46.5885 55.1997 42.7448C57.1569 43.4305 59.0071 44.4173 60.6631 45.6688C60.8246 45.7904 61.0132 45.8502 61.2001 45.8521C61.4776 45.8539 61.7533 45.7305 61.9329 45.4929C62.2358 45.0938 62.156 44.5243 61.7569 44.2232C58.9472 42.0991 55.6278 40.6734 52.1523 40.0984C51.6589 40.0149 51.1909 40.3505 51.1093 40.8457C51.0277 41.3391 51.3615 41.8071 51.8566 41.8887C52.5768 42.0084 53.2896 42.1698 53.9916 42.3675C53.2334 43.1094 52.1922 43.5865 51.0567 43.5865H51.0531C51.0313 43.5883 51.0114 43.5901 50.9914 43.5901C48.5553 43.5901 46.5963 41.5676 46.687 39.1334C48.0583 38.8395 49.007 38.1284 49.4659 37.4591C50.5361 35.8883 48.8365 34.0798 45.2849 34.0798C41.1437 34.0798 40.2241 36.193 41.122 37.4791C41.8185 38.4767 43.2515 39.0971 44.075 39.0934C43.8718 42.4492 40.8499 44.9379 37.5159 44.5061L37.5196 44.5025C37.1767 44.4554 36.8412 44.3755 36.5165 44.2631C33.4201 45.3006 30.5251 46.8806 27.9766 48.9303C29.308 52.6234 30.7755 55.0613 30.7809 55.0685C32.4243 57.7458 34.4395 60.1873 36.7432 62.3368C36.7432 62.3368 36.7505 62.3423 36.7541 62.3459C37.6139 63.1476 38.5136 63.9076 39.4477 64.6241C41.726 66.5197 44.9185 69.0972 46.8829 70.347L47.3273 69.2514C53.6832 71.9977 60.85 72.979 67.926 71.5877C67.9369 71.5859 67.9496 71.5823 67.9605 71.5805C75.4864 70.0931 79.3808 66.2893 85.071 65.0812C85.3304 65.0268 85.5082 64.7856 85.4846 64.5208C85.3721 63.32 84.6992 60.4231 81.2364 59.2369C81.2655 59.2115 81.2927 59.1843 81.3217 59.1571L81.3199 59.1552ZM67.4018 64.8182C66.9465 65.357 66.4949 65.8903 66.0359 66.4C63.6071 69.099 59.9739 70.3815 56.3878 69.8101C53.569 69.3621 50.7665 68.5422 48.0964 67.3885C48.1635 67.1981 48.2325 67.0149 48.3014 66.8353L48.5572 66.2023H48.5553C48.8274 65.5529 49.1104 64.9706 49.3988 64.4228C50.1461 63.0007 49.9212 61.263 48.8383 60.0767L36.453 46.5377C40.1406 47.2034 43.7431 45.3152 45.5969 42.6959C46.9355 44.4173 48.4393 44.9941 49.8396 45.2734C51.454 46.7645 51.3705 46.4887 51.3705 48.4604C51.3705 49.4037 52.136 50.171 53.081 50.171C54.0896 50.171 54.6845 50.0694 55.2904 50.6426L55.3466 50.6988C56.4241 51.8325 55.1453 53.1984 56.493 54.2776C57.6085 55.1719 59.1776 54.5733 59.4932 54.3702C64.0062 51.4552 68.784 50.3034 72.6005 51.1559C74.1423 51.4262 75.5099 52.0756 76.611 53.1784C78.0403 54.6078 78.8693 56.4761 79.145 58.5875C75.9326 58.2338 71.7624 59.6631 67.4036 64.8182H67.4018Z" fill="white"/>
<path d="M51.8578 37.8421C51.8578 38.3427 52.2623 38.7527 52.763 38.7508C56.993 38.7545 61.1359 39.9335 64.7384 42.1537C64.8835 42.2426 65.0431 42.2861 65.2009 42.288C65.5093 42.2916 65.8122 42.1392 65.9863 41.8562C66.2493 41.43 66.1169 40.8713 65.6907 40.6083C61.8035 38.2139 57.334 36.9424 52.7666 36.9351C52.266 36.9351 51.8596 37.3396 51.8578 37.8403V37.8421Z" fill="white"/>
<path d="M180.21 60.4719C180.094 60.3976 179.949 60.3815 179.816 60.417C178.438 60.8206 176.879 61.0595 175.652 61.0595C172.288 61.0595 170.79 59.4421 170.79 55.8103V44.3853H179.955C180.223 44.3853 180.443 44.1658 180.443 43.8979V39.6494C180.443 39.3814 180.223 39.1619 179.955 39.1619H170.79V30.1647C170.79 29.8967 170.571 29.6772 170.303 29.6772H165.228C164.96 29.6772 164.74 29.8967 164.74 30.1647V39.1619H151.669V30.1647C151.669 29.8967 151.449 29.6772 151.181 29.6772H146.106C145.838 29.6772 145.619 29.8967 145.619 30.1647V39.1619H140.25C139.982 39.1619 139.763 39.3814 139.763 39.6494V43.8979C139.763 44.1658 139.982 44.3853 140.25 44.3853H145.619V55.8103C145.619 62.7446 149.254 66.7219 155.594 66.7219C157.677 66.7219 159.171 66.4765 161.744 65.7082C161.98 65.6372 162.128 65.4015 162.086 65.1562L161.315 60.798C161.289 60.6624 161.209 60.5429 161.092 60.4687C160.976 60.3944 160.831 60.3783 160.698 60.4138C159.32 60.8173 157.761 61.0562 156.534 61.0562C153.17 61.0562 151.672 59.4389 151.672 55.807V44.3821H164.743V55.807C164.743 62.7414 168.379 66.7187 174.719 66.7187C176.801 66.7187 178.296 66.4733 180.869 65.705C181.104 65.6339 181.253 65.3983 181.211 65.1529L180.439 60.7947C180.414 60.6591 180.333 60.5397 180.217 60.4654L180.21 60.4719Z" fill="white"/>
<path d="M195.891 38.4992C187.779 38.4992 181.89 44.4102 181.89 52.5552C181.89 60.7002 187.779 66.5563 195.891 66.5563C201.86 66.5563 206.719 63.4797 208.269 58.718C208.317 58.5695 208.291 58.4081 208.201 58.2822C208.11 58.1562 207.962 58.082 207.807 58.082H202.348C202.167 58.082 202.003 58.1821 201.915 58.3403C200.915 60.2353 198.835 61.278 196.059 61.278C191.226 61.278 188.763 58.1207 188.001 54.9731H208.249C208.269 54.9731 208.285 54.9731 208.304 54.9731C208.398 54.9828 208.495 54.9667 208.582 54.9215C208.721 54.8505 208.817 54.7181 208.84 54.5631C208.956 53.8077 208.956 52.9975 208.956 52.2808C208.898 44.2972 203.407 38.5056 195.894 38.5056L195.891 38.4992ZM187.985 50.1921C188.834 46.2536 191.733 43.8323 195.672 43.8323C199.61 43.8323 202.193 46.1987 202.787 50.1921H187.985Z" fill="white"/>
<path d="M118.639 26.6425C107.605 26.6425 98.627 35.6204 98.627 46.6547C98.627 57.6891 107.605 66.667 118.639 66.667C129.674 66.667 138.651 57.6891 138.651 46.6547C138.651 35.6204 129.674 26.6425 118.639 26.6425ZM132.327 46.6547C132.327 54.4446 126.187 60.7818 118.639 60.7818C111.091 60.7818 104.896 54.577 104.896 46.6547C104.896 38.7325 110.933 32.5278 118.639 32.5278C126.345 32.5278 132.327 38.8649 132.327 46.6547Z" fill="white"/>
<path d="M226.996 38.5529C223.41 38.5529 220.249 39.8184 217.776 42.2234V39.6473C217.776 39.3793 217.557 39.1598 217.289 39.1598H212.214C211.946 39.1598 211.727 39.3793 211.727 39.6473V65.4027C211.727 65.6706 211.946 65.8901 212.214 65.8901H217.289C217.557 65.8901 217.776 65.6706 217.776 65.4027V49.0707C220.036 46.0232 223.139 44.4284 227.009 44.3251C227.274 44.3186 227.484 44.1023 227.484 43.8376V39.0404C227.484 38.7724 227.264 38.5529 226.996 38.5529Z" fill="white"/>
<path d="M262.682 39.1616H240.51C240.242 39.1616 240.022 39.3812 240.022 39.6491V43.8976C240.022 44.1656 240.242 44.3851 240.51 44.3851H254.379L239.632 62.6185C239.561 62.7057 239.522 62.8122 239.522 62.9252V65.4077C239.522 65.6757 239.742 65.8952 240.009 65.8952H262.675C262.943 65.8952 263.163 65.6757 263.163 65.4077V61.1593C263.163 60.8914 262.943 60.6718 262.675 60.6718H248.532L263.053 42.7709C263.124 42.6838 263.163 42.5772 263.163 42.4642V39.6523C263.163 39.3844 262.943 39.1649 262.675 39.1649L262.682 39.1616Z" fill="white"/>
<path d="M277.961 38.4992C269.849 38.4992 263.96 44.4102 263.96 52.5552C263.96 60.7002 269.849 66.5563 277.961 66.5563C283.931 66.5563 288.789 63.4797 290.339 58.718C290.387 58.5695 290.361 58.4081 290.271 58.2822C290.181 58.1562 290.032 58.082 289.877 58.082H284.418C284.237 58.082 284.073 58.1821 283.985 58.3403C282.985 60.2353 280.906 61.278 278.129 61.278C273.297 61.278 270.833 58.1207 270.071 54.9731H290.319C290.339 54.9731 290.355 54.9731 290.374 54.9731C290.468 54.9828 290.565 54.9667 290.652 54.9215C290.791 54.8505 290.888 54.7181 290.91 54.5631C291.026 53.8077 291.026 52.9975 291.026 52.2808C290.968 44.2972 285.477 38.5056 277.965 38.5056L277.961 38.4992ZM270.055 50.1921C270.904 46.2536 273.803 43.8323 277.742 43.8323C281.681 43.8323 284.263 46.1987 284.857 50.1921H270.055Z" fill="white"/>
<path d="M233.12 26.365C230.957 26.365 229.324 27.9501 229.324 30.0517C229.324 32.1533 230.957 33.7385 233.12 33.7385C235.283 33.7385 236.917 32.1178 236.917 30.0517C236.917 27.9856 235.247 26.365 233.12 26.365Z" fill="white"/>
<path d="M235.659 39.1616H230.639C230.37 39.1616 230.152 39.3799 230.152 39.6491V65.4045C230.152 65.6737 230.37 65.892 230.639 65.892H235.659C235.928 65.892 236.147 65.6737 236.147 65.4045V39.6491C236.147 39.3799 235.928 39.1616 235.659 39.1616Z" fill="white"/>
</g>
</g>
</svg>
