<svg width="849" height="150" viewBox="0 0 849 150" fill="none" xmlns="http://www.w3.org/2000/svg">
<path d="M104.143 59.0942C102.493 56.0273 102.946 52.4902 105.281 49.7758C110.551 43.642 121.302 44.8043 128.735 47.8734C129.014 47.4163 129.173 46.8765 129.173 46.3019C129.173 44.6106 127.801 43.2414 126.112 43.2414C125.442 43.2414 124.824 43.4569 124.321 43.8226C116.792 40.8689 107.893 40.464 102.008 46.0102C101.453 45.2222 100.538 44.7063 99.5023 44.7063C97.811 44.7063 96.4418 46.0755 96.4418 47.7668C96.4418 49.125 97.3256 50.2765 98.5511 50.677C96.7879 54.1118 96.0587 57.7381 95.9717 61.2709C98.612 60.2653 101.35 59.5361 104.145 59.0942H104.143Z" fill="white"/>
<path d="M106.773 55.8666C106.773 56.9157 107.624 57.7668 108.673 57.7668C109.722 57.7668 110.573 56.9157 110.573 55.8666C110.573 54.8174 109.722 53.9663 108.673 53.9663C107.624 53.9663 106.773 54.8174 106.773 55.8666Z" fill="white"/>
<path d="M128.55 55.8666C128.55 54.8174 127.699 53.9663 126.65 53.9663C125.601 53.9663 124.75 54.8174 124.75 55.8666C124.75 56.9157 125.601 57.7668 126.65 57.7668C127.699 57.7668 128.55 56.9157 128.55 55.8666Z" fill="white"/>
<path d="M112.516 65.3968C112.387 64.8091 111.806 64.439 111.218 64.5674C104.708 65.9975 98.6827 69.145 93.7939 73.6747C93.352 74.0839 93.3259 74.7717 93.7351 75.2136C93.9398 75.4335 94.214 75.551 94.4926 75.5619C94.7712 75.5728 95.0542 75.477 95.2741 75.2724C99.8799 71.0061 105.555 68.0414 111.686 66.6941C112.274 66.5656 112.644 65.9845 112.516 65.3968Z" fill="white"/>
<path d="M110.61 62.9428C111.211 62.9428 111.699 62.4574 111.699 61.8566C111.699 61.2559 111.213 60.7683 110.612 60.7661H110.567C103.079 60.7661 95.7936 62.9101 89.4986 66.9697C88.9936 67.2962 88.8478 67.9688 89.1743 68.4738C89.3832 68.7959 89.7315 68.9722 90.0906 68.9722C90.2931 68.9722 90.4977 68.9156 90.6783 68.7981C96.6207 64.9671 103.497 62.9428 110.567 62.9428C110.582 62.9428 110.597 62.9406 110.612 62.9428H110.61Z" fill="white"/>
<path d="M162.505 87.6343C166.452 83.9732 169.109 79.0299 169.917 73.5621C171.021 66.0939 168.543 58.5756 163.295 53.2384C163.191 53.1317 163.023 53.1143 162.899 53.1948C162.775 53.2754 162.723 53.4364 162.78 53.5757C165.581 60.5411 164.484 68.2531 160.344 74.0845C160.686 71.1655 158.966 68.2988 156.071 67.3085C155.758 67.2018 155.414 67.3563 155.287 67.6633C153.3 72.4737 148.575 75.7779 143.161 75.7779C137.748 75.7779 133.19 72.5542 131.161 67.9418C133.51 68.7646 135.73 69.9488 137.717 71.4507C137.911 71.5965 138.137 71.6683 138.362 71.6705C138.695 71.6727 139.025 71.5247 139.241 71.2395C139.604 70.7607 139.509 70.0772 139.03 69.7159C135.658 67.167 131.675 65.4561 127.504 64.7661C126.912 64.6659 126.351 65.0686 126.253 65.6629C126.155 66.2549 126.555 66.8165 127.149 66.9145C128.014 67.0581 128.869 67.2518 129.711 67.4891C128.802 68.3794 127.552 68.9518 126.19 68.9518H126.185C126.159 68.954 126.135 68.9562 126.111 68.9562C123.188 68.9562 120.837 66.5292 120.946 63.6081C122.591 63.2555 123.73 62.4022 124.281 61.599C125.565 59.714 123.525 57.5439 119.263 57.5439C114.294 57.5439 113.19 60.0797 114.268 61.623C115.104 62.8201 116.823 63.5645 117.811 63.5602C117.568 67.5871 113.941 70.5735 109.941 70.0554L109.945 70.0511C109.534 69.9945 109.131 69.8987 108.741 69.7637C105.026 71.0088 101.552 72.9047 98.4934 75.3644C100.091 79.7961 101.852 82.7216 101.859 82.7303C103.831 85.943 106.249 88.8729 109.013 91.4522C109.013 91.4522 109.022 91.4588 109.026 91.4631C110.058 92.4252 111.138 93.3372 112.259 94.197C114.993 96.4717 118.824 99.5647 121.181 101.064L121.714 99.7497C129.341 103.045 137.941 104.223 146.433 102.553C146.446 102.551 146.461 102.547 146.474 102.545C155.505 100.76 160.178 96.1952 167.007 94.7455C167.318 94.6802 167.531 94.3908 167.503 94.073C167.368 92.632 166.561 89.1558 162.405 87.7323C162.44 87.7018 162.473 87.6692 162.508 87.6365L162.505 87.6343ZM145.804 94.4299C145.257 95.0764 144.715 95.7164 144.165 96.328C141.25 99.5669 136.89 101.106 132.587 100.42C129.204 99.8825 125.841 98.8987 122.637 97.5143C122.718 97.2857 122.8 97.0659 122.883 96.8504L123.19 96.0908H123.188C123.514 95.3115 123.854 94.6128 124.2 93.9554C125.097 92.2489 124.827 90.1636 123.527 88.7401L108.665 72.4933C113.09 73.2921 117.413 71.0262 119.638 67.8831C121.244 69.9488 123.049 70.641 124.729 70.9762C126.666 72.7654 126.566 72.4345 126.566 74.8006C126.566 75.9325 127.485 76.8532 128.619 76.8532C129.829 76.8532 130.543 76.7313 131.27 77.4191L131.337 77.4866C132.63 78.8471 131.096 80.4861 132.713 81.7812C134.052 82.8543 135.935 82.136 136.313 81.8922C141.729 78.3943 147.462 77.0121 152.042 78.0351C153.892 78.3595 155.533 79.1387 156.855 80.4621C158.57 82.1774 159.565 84.4194 159.896 86.953C156.041 86.5286 151.036 88.2438 145.806 94.4299H145.804Z" fill="white"/>
<path d="M127.151 62.0586C127.151 62.6593 127.636 63.1512 128.237 63.1491C133.313 63.1534 138.285 64.5683 142.608 67.2325C142.782 67.3392 142.973 67.3914 143.163 67.3936C143.533 67.3979 143.896 67.2151 144.105 66.8755C144.421 66.364 144.262 65.6936 143.75 65.378C139.086 62.5048 133.722 60.9789 128.241 60.9702C127.641 60.9702 127.153 61.4556 127.151 62.0564V62.0586Z" fill="white"/>
<path d="M281.174 89.2143C281.034 89.1252 280.86 89.1059 280.701 89.1485C279.047 89.6327 277.176 89.9194 275.704 89.9194C271.667 89.9194 269.869 87.9786 269.869 83.6204V69.9104H280.868C281.189 69.9104 281.453 69.647 281.453 69.3255V64.2273C281.453 63.9057 281.189 63.6423 280.868 63.6423H269.869V52.8456C269.869 52.5241 269.606 52.2607 269.285 52.2607H263.195C262.873 52.2607 262.61 52.5241 262.61 52.8456V63.6423H246.924V52.8456C246.924 52.5241 246.661 52.2607 246.339 52.2607H240.249C239.928 52.2607 239.664 52.5241 239.664 52.8456V63.6423H233.222C232.9 63.6423 232.637 63.9057 232.637 64.2273V69.3255C232.637 69.647 232.9 69.9104 233.222 69.9104H239.664V83.6204C239.664 91.9416 244.026 96.7144 251.635 96.7144C254.134 96.7144 255.927 96.4199 259.015 95.4979C259.297 95.4127 259.476 95.1299 259.425 94.8354L258.5 89.6056C258.469 89.4429 258.372 89.2995 258.232 89.2104C258.093 89.1213 257.918 89.102 257.76 89.1446C256.105 89.6289 254.234 89.9155 252.762 89.9155C248.726 89.9155 246.928 87.9747 246.928 83.6165V69.9066H262.614V83.6165C262.614 91.9377 266.976 96.7105 274.584 96.7105C277.083 96.7105 278.876 96.416 281.964 95.494C282.247 95.4088 282.425 95.126 282.375 94.8316L281.449 89.6017C281.418 89.439 281.321 89.2957 281.181 89.2066L281.174 89.2143Z" fill="white"/>
<path d="M299.991 62.8471C290.256 62.8471 283.19 69.9402 283.19 79.7142C283.19 89.4882 290.256 96.5156 299.991 96.5156C307.154 96.5156 312.984 92.8237 314.844 87.1097C314.902 86.9315 314.871 86.7377 314.762 86.5866C314.654 86.4355 314.476 86.3465 314.29 86.3465H307.739C307.522 86.3465 307.325 86.4666 307.22 86.6564C306.019 88.9304 303.524 90.1817 300.192 90.1817C294.393 90.1817 291.437 86.3929 290.523 82.6158H314.82C314.844 82.6158 314.863 82.6158 314.886 82.6158C314.999 82.6274 315.115 82.6081 315.22 82.5539C315.386 82.4686 315.502 82.3098 315.529 82.1238C315.669 81.2173 315.669 80.245 315.669 79.385C315.599 69.8047 309.01 62.8548 299.995 62.8548L299.991 62.8471ZM290.504 76.8786C291.522 72.1523 295.001 69.2468 299.728 69.2468C304.454 69.2468 307.553 72.0865 308.266 76.8786H290.504Z" fill="white"/>
<path d="M207.289 48.6191C194.047 48.6191 183.274 59.3925 183.274 72.6337C183.274 85.8749 194.047 96.6485 207.289 96.6485C220.53 96.6485 231.303 85.8749 231.303 72.6337C231.303 59.3925 220.53 48.6191 207.289 48.6191ZM223.714 72.6337C223.714 81.9816 216.346 89.5862 207.289 89.5862C198.231 89.5862 190.797 82.1404 190.797 72.6337C190.797 63.127 198.041 55.6814 207.289 55.6814C216.536 55.6814 223.714 63.2859 223.714 72.6337Z" fill="white"/>
<path d="M337.317 62.9115C333.013 62.9115 329.221 64.4301 326.253 67.3162V64.2248C326.253 63.9032 325.99 63.6398 325.668 63.6398H319.578C319.257 63.6398 318.993 63.9032 318.993 64.2248V95.1312C318.993 95.4528 319.257 95.7162 319.578 95.7162H325.668C325.99 95.7162 326.253 95.4528 326.253 95.1312V75.5329C328.965 71.8759 332.688 69.9621 337.333 69.8381C337.65 69.8304 337.902 69.5708 337.902 69.2532V63.4965C337.902 63.175 337.639 62.9115 337.317 62.9115Z" fill="white"/>
<path d="M380.14 63.642H353.533C353.212 63.642 352.948 63.9054 352.948 64.227V69.3252C352.948 69.6467 353.212 69.9101 353.533 69.9101H370.176L352.479 91.7903C352.394 91.8949 352.348 92.0227 352.348 92.1583V95.1373C352.348 95.4589 352.611 95.7223 352.933 95.7223H380.132C380.453 95.7223 380.717 95.4589 380.717 95.1373V90.0392C380.717 89.7177 380.453 89.4543 380.132 89.4543H363.16L380.585 67.9732C380.67 67.8686 380.717 67.7407 380.717 67.6051V64.2309C380.717 63.9093 380.453 63.6459 380.132 63.6459L380.14 63.642Z" fill="white"/>
<path d="M398.475 62.8471C388.74 62.8471 381.674 69.9402 381.674 79.7142C381.674 89.4882 388.74 96.5156 398.475 96.5156C405.638 96.5156 411.469 92.8237 413.328 87.1097C413.386 86.9315 413.355 86.7377 413.247 86.5866C413.138 86.4355 412.96 86.3465 412.774 86.3465H406.223C406.006 86.3465 405.809 86.4666 405.704 86.6564C404.503 88.9304 402.008 90.1817 398.677 90.1817C392.877 90.1817 389.922 86.3929 389.007 82.6158H413.305C413.328 82.6158 413.347 82.6158 413.371 82.6158C413.483 82.6274 413.599 82.6081 413.704 82.5539C413.87 82.4686 413.987 82.3098 414.014 82.1238C414.153 81.2173 414.153 80.245 414.153 79.385C414.083 69.8047 407.494 62.8548 398.479 62.8548L398.475 62.8471ZM388.988 76.8786C390.007 72.1523 393.486 69.2468 398.212 69.2468C402.938 69.2468 406.037 72.0865 406.75 76.8786H388.988Z" fill="white"/>
<path d="M344.665 48.2861C342.07 48.2861 340.11 50.1881 340.11 52.7101C340.11 55.232 342.07 57.1342 344.665 57.1342C347.261 57.1342 349.221 55.1894 349.221 52.7101C349.221 50.2308 347.218 48.2861 344.665 48.2861Z" fill="white"/>
<path d="M347.712 63.642H341.688C341.365 63.642 341.103 63.9039 341.103 64.227V95.1334C341.103 95.4565 341.365 95.7184 341.688 95.7184H347.712C348.036 95.7184 348.297 95.4565 348.297 95.1334V64.227C348.297 63.9039 348.036 63.642 347.712 63.642Z" fill="white"/>
<g clip-path="url(#clip0_3205_172863)">
<path d="M573.674 106.49C551.415 99.7439 535.238 79.2565 535.238 55.0121C535.238 30.5105 551.76 9.85278 574.357 3.28086C576.671 2.59613 576.072 1.14336 573.245 1.14336C543.198 1.14336 518.803 25.3044 518.803 55.0121C518.803 84.7198 543.198 108.881 573.245 108.881C576.072 108.881 576.242 107.258 573.674 106.49Z" fill="white"/>
<path d="M545.595 67.5556C545.424 66.1028 545.337 64.6536 545.337 63.2009C545.337 39.5542 564.515 20.4326 588.227 20.4326C610.653 20.4326 617.33 30.4209 618.187 29.7362C619.128 29.0551 610.053 9.24877 583.773 9.24877C560.061 9.24877 540.887 28.3704 540.887 52.017C540.887 57.4803 541.915 62.69 543.797 67.4686C544.567 69.5192 545.766 69.5192 545.595 67.5556Z" fill="white"/>
<path d="M563.57 36.7444C574.698 31.8789 588.739 31.7086 602.519 36.5741C611.764 39.8166 617.159 44.4286 617.588 44.1713C618.358 43.8308 612.193 34.183 601.149 29.9986C587.794 24.9628 573.415 27.6111 562.971 35.8061C561.772 36.7444 562.201 37.3422 563.57 36.7444Z" fill="white"/>
<path d="M784.001 56.8879C784.001 59.9601 781.433 62.5215 778.352 62.5215C775.268 62.5215 772.703 60.0471 772.703 56.8879C772.703 53.8157 775.184 51.2543 778.352 51.2543C781.52 51.2543 784.001 53.7287 784.001 56.8879Z" fill="white"/>
<path d="M600.124 88.3864L600.807 95.9004H612.708L608.683 52.2771H590.966L568.536 95.9004H580.692L584.459 88.3864H600.124ZM599.525 79.9344H588.651L597.984 61.0699H598.068L599.525 79.9344Z" fill="white"/>
<path d="M629.229 76.8621H631.027L639.503 65.3376H650.543L638.816 80.0213L646.009 95.9004H634.279L629.57 83.5208H627.859L625.207 95.9004H615.191L624.434 52.2771H634.449L629.229 76.8621Z" fill="white"/>
<mask id="mask0_3205_172863" style="mask-type:luminance" maskUnits="userSpaceOnUse" x="-1309" y="-137" width="2224" height="2870">
<path d="M-1308.8 2732.79H914.526V-136.538H-1308.8V2732.79Z" fill="white"/>
</mask>
<g mask="url(#mask0_3205_172863)">
<path d="M666.212 95.9026H676.228L680.249 76.8643C682.476 66.3652 678.455 65.0863 668.181 65.0863C660.991 65.0863 654.056 64.9993 652.087 74.4732H662.103C662.702 71.7415 664.413 71.1474 666.898 71.1474C671.261 71.1474 671.091 72.9371 670.491 75.7557L669.463 80.6212H669.038C668.693 77.1215 664.243 77.2085 661.416 77.2085C654.143 77.2085 649.86 79.5126 648.32 86.8526C646.696 94.6201 650.376 96.3301 657.395 96.3301C660.904 96.3301 665.612 95.6454 667.24 91.4645H667.581L666.212 95.9026ZM663.385 83.2696C666.64 83.2696 668.78 83.5232 668.264 86.0845C667.581 89.2437 666.212 89.8415 662.016 89.8415C660.475 89.8415 657.653 89.8415 658.336 86.512C658.935 83.6934 660.904 83.2696 663.385 83.2696Z" fill="white"/>
<path d="M696.516 65.3377L695.575 69.6055H696.004C697.973 66.0188 701.995 64.9971 705.421 64.9971C709.7 64.9971 713.98 65.7652 713.38 70.9713H713.809C715.262 66.6166 719.716 64.9971 723.567 64.9971C730.673 64.9971 733.67 67.8991 732.126 74.9854L727.676 95.9004H717.66L721.427 78.2279C721.939 75.0688 722.455 72.6777 718.601 72.6777C714.663 72.6777 713.38 75.239 712.694 78.5685L709.014 95.9004H698.998L702.936 77.3729C703.452 74.5579 703.622 72.6777 700.113 72.6777C696.004 72.6777 694.718 74.8985 693.948 78.5685L690.268 95.9004H680.252L686.758 65.3377H696.516Z" fill="white"/>
<path d="M750.702 95.9026H760.718L764.827 76.8643C767.054 66.3652 763.029 65.0863 752.758 65.0863C745.565 65.0863 738.63 64.9993 736.665 74.4732H746.681C747.276 71.7415 748.991 71.1474 751.472 71.1474C755.839 71.1474 755.668 72.9371 755.069 75.7557L754.041 80.6212H753.612C753.271 77.1215 748.82 77.2085 745.994 77.2085C738.717 77.2085 734.438 79.5126 732.897 86.8526C731.27 94.6201 734.95 96.3301 741.969 96.3301C745.482 96.3301 750.19 95.6454 751.814 91.4645H752.159L750.702 95.9026ZM747.963 83.2696C751.214 83.2696 753.354 83.5232 752.842 86.0845C752.159 89.2437 750.789 89.8415 746.593 89.8415C745.053 89.8415 742.227 89.8415 742.913 86.512C743.513 83.6934 745.482 83.2696 747.963 83.2696Z" fill="white"/>
</g>
<path d="M775.27 95.9004H765.254L771.673 65.3378H781.776L775.27 95.9004Z" fill="white"/>
</g>
<defs>
<clipPath id="clip0_3205_172863">
<rect width="265.2" height="107.737" fill="white" transform="translate(518.8 1.13086)"/>
</clipPath>
</defs>
</svg>
