<svg width="1816" height="132" viewBox="0 0 1816 132" fill="none" xmlns="http://www.w3.org/2000/svg">
<g clip-path="url(#clip0_3189_172073)">
<mask id="mask0_3189_172073" style="mask-type:luminance" maskUnits="userSpaceOnUse" x="20" y="42" width="124" height="57">
<path d="M143.538 42.3809H20V98.6183H143.538V42.3809Z" fill="white"/>
</mask>
<g mask="url(#mask0_3189_172073)">
<path d="M59.6894 86.2591C59.6894 85.465 60.4412 85.0679 61.2932 85.0679C62.1953 85.0679 62.9972 85.465 63.398 86.3088L65.4028 85.2168C64.651 83.7773 63.1475 82.9336 61.2932 82.9336C59.038 82.9336 57.2338 84.224 57.2338 86.3088C57.2338 90.2301 63.1976 89.138 63.1976 91.1234C63.1976 92.0169 62.3957 92.3643 61.2932 92.3643C60.0904 92.3643 59.1883 91.7688 58.8374 90.776L56.7827 91.9673C57.4843 93.5556 59.0881 94.5483 61.2932 94.5483C63.6988 94.5483 65.6032 93.3571 65.6032 91.1731C65.6534 87.0533 59.6894 88.2446 59.6894 86.2591Z" fill="white"/>
<path d="M79.2865 88.7409C79.2865 85.5643 77.0312 82.9336 73.7235 82.9336C70.2654 82.9336 67.8599 85.465 67.8599 88.6914C67.8599 91.9673 70.2153 94.4491 73.8738 94.4491C76.0289 94.4491 77.7329 93.5556 78.7352 92.0666L76.7807 90.9249C76.2293 91.7191 75.2771 92.265 73.9239 92.265C72.1698 92.265 70.7666 91.3717 70.3656 89.684H79.1862C79.2363 89.4359 79.2865 89.0884 79.2865 88.7409ZM70.3656 87.7979C70.7165 86.1598 71.9193 85.1175 73.7235 85.1175C75.1769 85.1175 76.5801 85.9117 76.8809 87.7979H70.3656Z" fill="white"/>
<path d="M90.515 90.4774C89.9637 91.4702 88.9112 92.165 87.558 92.165C85.6035 92.165 84.0999 90.676 84.0999 88.7402C84.0999 86.8044 85.6035 85.3153 87.558 85.3153C88.8611 85.3153 89.9637 85.9605 90.4649 87.0029L92.5196 85.8116C91.6175 84.0744 89.7632 82.9824 87.558 82.9824C84.2002 82.9824 81.6943 85.4641 81.6943 88.7402C81.6943 92.0161 84.2002 94.4979 87.558 94.4979C89.7131 94.4979 91.6175 93.406 92.5196 91.619L90.515 90.4774Z" fill="white"/>
<path d="M102.842 83.2305V89.1372C102.842 91.3708 101.589 92.3139 100.035 92.3139C98.5317 92.3139 97.5795 91.4204 97.5795 89.7824V83.2305H95.1738V89.981C95.1738 92.86 96.9279 94.4979 99.4338 94.4979C100.937 94.4979 102.14 93.9519 102.892 92.8103V94.2001H105.298V83.2305H102.842Z" fill="white"/>
<path d="M111.413 85.0664V83.2299H109.007V94.1993H111.413V88.6897C111.413 86.2576 113.267 85.5131 114.821 85.6123V83.0312C113.468 83.0312 112.114 83.5773 111.413 85.0664Z" fill="white"/>
<path d="M117.629 83.2305V94.2001H120.035V83.2305H117.629Z" fill="white"/>
<path d="M130.004 85.515V83.2317H127.248V80.1543L124.842 80.8492V83.2317H122.788V85.515H124.842V90.7763C124.842 93.6553 126.296 94.6479 130.004 94.2012V92.0669C128.2 92.1662 127.248 92.1662 127.248 90.7763V85.515H130.004Z" fill="white"/>
<path d="M140.823 83.2305L137.967 91.222L134.659 83.2305H132.053L136.764 94.0015L136.663 94.2001C136.112 95.6395 135.26 96.4337 133.707 96.3343V98.5681C136.263 98.7169 138.067 97.3271 139.119 94.5475L143.379 83.2305H140.823Z" fill="white"/>
<path d="M36.2825 42.3809C34.3781 42.3809 32.5238 42.6787 30.8198 43.2743C33.476 45.359 35.6311 48.089 36.884 51.3153C40.5926 51.6131 43.349 54.3927 43.349 58.4629C43.349 62.5331 40.6427 65.3126 36.9842 65.6105C35.7313 68.8368 33.6264 71.6164 30.9702 73.6515C32.624 74.1974 34.4282 74.4953 36.2825 74.4953C45.3036 74.4953 52.5706 67.4967 52.5706 58.4132C52.5706 49.3795 45.3036 42.3809 36.2825 42.3809Z" fill="white"/>
<path d="M23.2551 48.7344C22.7039 49.4293 22.2027 50.2235 21.8018 51.0176C24.057 52.7549 25.5104 55.4352 25.5104 58.5127C25.5104 61.5901 24.1071 64.2704 21.8519 65.958C22.3029 66.7522 22.8041 67.5463 23.3554 68.2412C26.5629 66.2062 28.6678 62.6324 28.6678 58.5127C28.6177 54.3432 26.5127 50.7694 23.2551 48.7344Z" fill="white"/>
<path d="M32.7766 64.7676C31.5738 67.6464 29.5691 70.0289 27.0132 71.7166C27.8652 72.2625 28.7673 72.7589 29.7195 73.156C32.3757 71.2699 34.4805 68.6392 35.7836 65.5618C34.6811 65.5618 33.6787 65.264 32.7766 64.7676Z" fill="white"/>
<path d="M29.5732 43.7715C28.621 44.1686 27.7189 44.6649 26.917 45.2606C29.473 46.9482 31.4776 49.3307 32.7306 52.16C33.6327 51.6636 34.635 51.3658 35.7375 51.3161C34.3844 48.2387 32.2795 45.6576 29.5732 43.7715Z" fill="white"/>
<path d="M25.9617 45.9531C25.2601 46.5487 24.5584 47.1444 23.957 47.8393C26.8638 49.6758 28.8685 52.654 29.52 56.1781C29.9209 54.7883 30.7228 53.597 31.7753 52.8029C30.5725 49.924 28.5678 47.5415 25.9617 45.9531Z" fill="white"/>
<path d="M29.5768 60.7969C28.9754 64.321 26.9206 67.2992 24.064 69.1357C24.6654 69.8305 25.367 70.4759 26.1187 71.0218C28.7248 69.3839 30.7295 67.0014 31.8822 64.1721C30.7796 63.3282 29.9777 62.1866 29.5768 60.7969Z" fill="white"/>
<path d="M21.303 52.0586C20.4511 53.9944 20 56.1784 20 58.4617C20 60.7946 20.5012 62.9785 21.3532 64.9639C23.2075 63.4749 24.3602 61.142 24.3602 58.5113C24.3602 55.8806 23.2075 53.5477 21.303 52.0586Z" fill="white"/>
<path d="M75.2794 42.6289V52.9532C71.4706 52.3575 66.058 53.8466 66.058 59.9022V73.6513H56.8364V43.2245H62.0486C63.9029 43.2245 65.4064 44.4654 65.9077 46.1034C68.2632 43.8698 71.5708 42.7282 74.8284 42.6289C74.8284 42.6289 74.8284 42.6289 74.8785 42.6289C74.9788 42.6289 75.1291 42.6289 75.2794 42.6289Z" fill="white"/>
<path d="M100.236 62.2841C99.0334 64.4184 96.7781 65.7089 94.1219 65.7089C90.1126 65.7089 87.0555 62.83 87.0555 58.5118C87.0555 54.1934 90.1126 51.3145 94.1219 51.3145C96.7781 51.3145 98.9833 52.5554 100.236 54.6401L108.105 50.1233C105.248 45.4575 100.086 42.4297 94.1219 42.4297C85.1009 42.4297 77.834 49.4284 77.834 58.5118C77.834 67.5951 85.1009 74.5938 94.1219 74.5938C100.136 74.5938 105.348 71.5164 108.155 66.8009L100.236 62.2841Z" fill="white"/>
<path d="M138.331 43.2247C136.527 43.2247 134.973 44.4159 134.472 46.1035C132.367 43.7707 129.31 42.3809 125.15 42.3809C117.081 42.3809 110.466 49.3795 110.466 58.4629C110.466 67.5463 117.081 74.5449 125.15 74.5449C129.31 74.5449 132.367 73.1551 134.472 70.8222C134.973 72.4602 136.476 73.7012 138.331 73.7012H143.543V58.4629V43.2247H138.331ZM126.804 65.6602C122.795 65.6602 119.737 62.7812 119.737 58.4629C119.737 54.1446 122.795 51.2657 126.804 51.2657C130.813 51.2657 133.871 54.1446 133.871 58.4629C133.871 62.7812 130.763 65.6602 126.804 65.6602Z" fill="white"/>
</g>
</g>
<g clip-path="url(#clip1_3189_172073)">
<mask id="mask1_3189_172073" style="mask-type:luminance" maskUnits="userSpaceOnUse" x="-110" y="-221" width="1466" height="634">
<path d="M1355.64 -220.08H-109.113V412.99H1355.64V-220.08Z" fill="white"/>
</mask>
<g mask="url(#mask1_3189_172073)">
<path d="M457.907 36.2271C441.717 36.2271 428.626 49.2307 428.626 65.3141C428.626 81.3975 441.717 94.4011 457.907 94.4011C474.098 94.4011 487.189 81.3975 487.189 65.3141C487.189 49.2307 474.098 36.2271 457.907 36.2271ZM490.978 65.3141C490.978 83.4507 476.165 98.1653 457.907 98.1653C439.65 98.1653 424.837 83.4507 424.837 65.3141C424.837 47.1775 439.65 32.4629 457.907 32.4629C476.165 32.4629 490.978 47.1775 490.978 65.3141Z" fill="white"/>
</g>
<mask id="mask2_3189_172073" style="mask-type:luminance" maskUnits="userSpaceOnUse" x="-110" y="-221" width="1466" height="634">
<path d="M1355.64 -220.08H-109.113V412.99H1355.64V-220.08Z" fill="white"/>
</mask>
<g mask="url(#mask2_3189_172073)">
<path d="M459.976 43.7559H456.187V86.8731H459.976V43.7559Z" fill="white"/>
</g>
<mask id="mask3_3189_172073" style="mask-type:luminance" maskUnits="userSpaceOnUse" x="405" y="9" width="263" height="114">
<path d="M667.696 9.21875H405.64V122.48H667.696V9.21875Z" fill="white"/>
</mask>
<g mask="url(#mask3_3189_172073)">
<path d="M554.971 66.8298V75.8907H564.955V78.6457H551.951V54.6465H564.955V57.4015H554.971V64.136H564.647V66.8298H554.971Z" fill="white"/>
</g>
<mask id="mask4_3189_172073" style="mask-type:luminance" maskUnits="userSpaceOnUse" x="405" y="9" width="263" height="114">
<path d="M667.696 9.21875H405.64V122.48H667.696V9.21875Z" fill="white"/>
</mask>
<g mask="url(#mask4_3189_172073)">
<path d="M599.039 66.8298V75.8907H609.024V78.6457H596.081V54.6465H609.024V57.4015H599.039V64.136H608.715V66.8298H599.039Z" fill="white"/>
</g>
<mask id="mask5_3189_172073" style="mask-type:luminance" maskUnits="userSpaceOnUse" x="405" y="9" width="263" height="114">
<path d="M667.696 9.21875H405.64V122.48H667.696V9.21875Z" fill="white"/>
</mask>
<g mask="url(#mask5_3189_172073)">
<path d="M614.878 66.0339H615.864C618.946 66.0339 622.274 65.4829 622.274 61.6258C622.274 57.8913 618.699 57.3403 615.679 57.3403H614.878V66.0339ZM626.896 78.6457H623.26L616.172 68.4828H614.94V78.6457H611.92V54.6465H615.556C617.713 54.6465 619.994 54.7077 621.904 55.7485C623.938 56.9117 625.047 59.1769 625.047 61.5034C625.047 64.9319 622.767 67.8093 619.254 68.2379L626.896 78.6457Z" fill="white"/>
</g>
<mask id="mask6_3189_172073" style="mask-type:luminance" maskUnits="userSpaceOnUse" x="405" y="9" width="263" height="114">
<path d="M667.696 9.21875H405.64V122.48H667.696V9.21875Z" fill="white"/>
</mask>
<g mask="url(#mask6_3189_172073)">
<path d="M546.098 78.6457H549.118V54.6465H546.098V73.8703L530.998 54.6465H527.979V78.6457H530.998V59.2994L546.098 78.6457Z" fill="white"/>
</g>
<mask id="mask7_3189_172073" style="mask-type:luminance" maskUnits="userSpaceOnUse" x="405" y="9" width="263" height="114">
<path d="M667.696 9.21875H405.64V122.48H667.696V9.21875Z" fill="white"/>
</mask>
<g mask="url(#mask7_3189_172073)">
<path d="M593.121 75.8887H579.623L593.121 57.3995V54.6445H577.713V57.3995H589.546L576.049 75.8887V78.6437H593.121V75.8887Z" fill="white"/>
</g>
<mask id="mask8_3189_172073" style="mask-type:luminance" maskUnits="userSpaceOnUse" x="405" y="9" width="263" height="114">
<path d="M667.696 9.21875H405.64V122.48H667.696V9.21875Z" fill="white"/>
</mask>
<g mask="url(#mask8_3189_172073)">
<path d="M513.556 57.1548C508.256 57.1548 504.003 61.4404 504.003 66.6443C504.003 71.8482 508.317 76.1338 513.556 76.1338C518.856 76.1338 523.109 71.8482 523.109 66.6443C523.109 61.4404 518.856 57.1548 513.556 57.1548ZM526.005 66.6443C526.005 73.5012 520.397 79.0112 513.556 79.0112C506.653 79.0112 501.106 73.44 501.106 66.6443C501.106 59.8486 506.715 54.2773 513.556 54.2773C520.459 54.2773 526.005 59.7874 526.005 66.6443Z" fill="white"/>
</g>
<mask id="mask9_3189_172073" style="mask-type:luminance" maskUnits="userSpaceOnUse" x="405" y="9" width="263" height="114">
<path d="M667.696 9.21875H405.64V122.48H667.696V9.21875Z" fill="white"/>
</mask>
<g mask="url(#mask9_3189_172073)">
<path d="M638.79 57.1548C633.49 57.1548 629.237 61.4404 629.237 66.6443C629.237 71.8482 633.552 76.1338 638.79 76.1338C644.091 76.1338 648.343 71.8482 648.343 66.6443C648.343 61.4404 644.091 57.1548 638.79 57.1548ZM651.301 66.6443C651.301 73.5012 645.693 79.0112 638.852 79.0112C631.949 79.0112 626.402 73.44 626.402 66.6443C626.402 59.8486 632.011 54.2773 638.852 54.2773C645.693 54.2773 651.301 59.7874 651.301 66.6443Z" fill="white"/>
</g>
</g>
<path d="M971.647 79.5208L967.025 80.8346C967.428 82.0252 967.749 84.1616 967.749 87.0357V101.163H972.937V86.2165C973.902 85.0259 974.947 84.4497 976.073 84.4497C976.634 84.4497 977.079 84.5712 977.562 84.8611L978.969 79.9738C978.165 79.6041 977.803 79.5226 977.038 79.5226C976.478 79.5226 975.791 79.6441 975.349 79.8523C974.384 80.3452 973.178 81.4542 972.415 82.5216C972.415 81.331 972.133 80.3869 971.65 79.5243L971.647 79.5208ZM953.777 72.5405H953.216V101.125H958.602V88.4727H965.399V83.7521H958.602V77.1813H967.086L967.409 74.6752C962.817 74.3388 958.258 73.6243 953.778 72.5388L953.777 72.5405ZM941.191 104.943L943.683 107.9C946.096 106.914 949.112 104.696 949.916 101.166C950.198 100.016 950.278 99.2746 950.278 95.5398V72.5804H944.849V96.1542C944.849 99.2347 944.73 100.384 944.326 101.453C943.802 102.643 942.559 104.039 941.189 104.941L941.191 104.943ZM990.127 90.446C990.127 95.4565 989.162 97.5929 986.95 97.5929C985.944 97.5929 984.819 97.0202 984.336 95.8678C983.934 94.8004 983.691 92.9938 983.691 90.5293C983.691 88.4345 983.891 86.9541 984.214 85.8087C984.617 84.4949 985.621 83.674 986.868 83.674C987.792 83.674 988.598 84.0853 989.08 84.7847C989.804 85.7705 990.125 87.6188 990.125 90.4529L990.127 90.446ZM993.305 98.6603C994.994 96.6071 995.758 94.101 995.758 90.4859C995.758 87.0773 995.075 84.7361 993.507 82.7628C991.818 80.6281 989.646 79.6007 986.832 79.6007C981.524 79.6007 977.986 83.995 977.986 90.6491C977.986 97.3031 981.487 101.574 986.832 101.574C989.848 101.616 991.818 100.463 993.289 98.6585L993.305 98.6603ZM1008.02 86.8326C1008.02 88.7625 1006.89 89.8299 1004.88 89.8299C1003.07 89.8299 1001.87 88.9673 1001.87 86.8326C1001.87 84.8611 1002.99 83.7121 1004.92 83.7121C1006.85 83.7121 1008.02 84.8628 1008.02 86.8326ZM1017.15 82.315L1015.03 78.8405C1013.84 79.9912 1012.38 80.6455 1010.95 80.6455C1010.31 80.6455 1009.95 80.5639 1008.54 80.1942C1007.39 79.836 1006.2 79.6558 1005 79.6597C999.977 79.6597 996.72 82.4539 996.72 86.8066C996.72 89.9271 998.088 91.8986 1000.94 92.6796C999.777 92.9677 998.53 93.5821 997.969 94.2815C997.566 94.7744 997.366 95.4322 997.366 96.2114C997.365 96.8108 997.503 97.4018 997.768 97.9366C998.05 98.3878 998.414 98.7575 998.895 98.964C999.819 99.3337 1001.31 99.5801 1003.6 99.6235L1005.77 99.6651C1007.18 99.7467 1007.9 99.9949 1008.47 100.281C1008.99 100.611 1009.39 101.349 1009.39 102.173C1009.39 102.997 1008.91 103.817 1008.14 104.308C1007.46 104.801 1006.33 105.005 1004.89 105.005C1002.51 105.005 1001.19 104.103 1001.19 102.419C1001.19 101.68 1001.27 101.517 1001.43 101.066H996.698C996.497 101.477 996.256 102.051 996.256 103.2C996.256 104.637 996.779 105.87 997.865 106.937C999.632 108.704 1002.53 109.197 1005.3 109.197C1008.36 109.197 1011.34 108.457 1013.06 106.486C1014.15 105.271 1014.63 103.9 1014.63 102.133C1014.63 100.241 1014.11 98.8061 1012.94 97.6155C1011.58 96.2618 1010.01 95.7671 1006.99 95.7237L1004.22 95.6821C1003.7 95.6821 1003.37 95.4773 1003.37 95.1892C1003.37 94.6165 1004.1 94.1219 1005.42 93.4641L1006.19 93.5057C1010.37 93.5057 1013.43 90.8781 1013.43 87.2231C1013.43 85.826 1013.03 84.7587 1012.26 83.7729C1012.91 83.8545 1013.11 83.8944 1013.59 83.8944C1014.96 83.8944 1016.04 83.4431 1017.17 82.3324L1017.15 82.315ZM952.409 47.6912C945.976 49.2931 941.592 52.4552 941.592 56.0686C941.592 58.3283 943.281 60.3814 946.056 61.9833C945.211 60.6296 944.769 59.1492 944.769 57.6705C944.81 53.9339 947.665 50.442 952.409 47.6912ZM1020.28 61.8601C1020.28 59.4772 1018.83 57.3008 1016.42 55.4941C1016.62 56.2335 1016.78 56.9728 1016.78 57.7121C1016.78 64.4894 1007.5 70.3208 994.307 72.7418C995.843 72.9091 997.386 72.9913 998.931 72.9883C1010.71 72.9466 1020.28 67.9795 1020.28 61.8601ZM1012.68 58.1634C1012.68 55.6573 1010.59 53.356 1007.01 51.4694C1007.86 52.4969 1008.3 53.6041 1008.3 54.7548C1008.3 60.7945 995.755 65.68 980.234 65.68C964.755 65.68 952.169 60.7927 952.169 54.7548C952.169 53.9732 952.378 53.2065 952.772 52.5368C950.28 54.2203 948.873 56.1502 948.873 58.205C948.873 64.7358 963.146 70.0327 980.76 70.0327C998.373 70.0327 1012.69 64.6525 1012.69 58.1617L1012.68 58.1634ZM998.771 57.8336C992.256 62.103 972.233 63.7483 963.628 58.245C956.872 53.9322 959.205 47.0733 939.865 32.0419C937.334 30.0703 940.348 27.9756 942.237 29.331C944.127 30.6865 942.399 31.0145 946.219 34.9159C953.938 42.8005 953.858 35.6969 955.065 38.4044C957.637 44.031 963.267 49.6992 963.267 49.6992C968.937 53.4775 973.439 54.2984 981.805 48.5086C987.113 44.8536 984.941 54.34 997.93 47.4812C1002.67 44.9751 1002.47 46.6603 1007.3 39.8015C1009.31 36.9673 1013.13 41.9778 1008.79 42.6755C1007.06 42.9636 1004.12 44.8935 1002.87 47.9342C1001.06 52.4934 1001.83 55.8603 998.773 57.8319L998.771 57.8336ZM962.663 46.2524C961.054 45.5131 959.367 42.7206 958.721 41.6116C960.531 39.8067 959.809 36.8042 958.762 35.1641C957.756 33.5206 956.511 33.9736 955.184 32.4532C953.816 30.9329 955.707 26.9915 957.435 30.0304C963.892 41.4068 968.17 36.6845 973.438 35.9833C978.505 35.3238 983.008 38.1597 984.375 30.1519C984.617 28.8381 985.864 28.55 985.985 30.6865C986.103 32.8628 986.909 38.1197 989.684 38.7775C992.458 39.4752 994.71 38.118 995.354 37.3804C995.998 36.6428 996.36 36.7209 996.64 38.5953C996.922 40.4436 997.646 43.0313 1001.55 40.1573C1009.55 34.3259 1007.25 32.0662 1010.39 30.5476C1012.16 29.6851 1014.98 32.4775 1010.91 34.5741C1005.12 37.5713 1004.52 41.268 1000.86 43.6092C994.711 47.5524 996.601 43.7741 986.708 42.3353C982.889 41.8008 981.682 46.1136 978.705 44.8814C971.909 42.0073 967.125 42.5818 962.662 46.2351L962.663 46.2524ZM984.095 25.1831C984.336 26.9082 984.618 26.8666 985.222 26.988C985.825 27.1529 986.589 26.1671 986.589 25.2629C986.63 24.3188 986.187 23.7426 985.303 23.7843C984.379 23.8259 984.056 24.2771 984.114 25.1814L984.095 25.1831ZM1013.85 28.2637C1014.57 28.9613 1016.5 28.5101 1016.94 27.9756C1018.11 26.6618 1018.13 25.8808 1017.55 24.9783C1016.94 24.1157 1015.69 24.239 1014.45 25.1831C1013.21 26.1272 1013.44 27.894 1013.85 28.2637ZM1013.32 36.9708C1012.72 37.7917 1012.68 38.4078 1013.12 38.8625C1013.61 39.3554 1014.57 39.765 1015.25 39.2322C1015.94 38.6595 1015.94 37.8351 1015.37 37.1374C1014.77 36.3981 1013.97 36.3981 1013.32 36.9726L1013.32 36.9708ZM952.305 26.7052C953.229 26.9933 953.673 27.8957 954.436 26.87C954.839 26.3771 954.878 25.6795 954.356 24.9401C954.033 24.4889 952.504 24.1591 951.863 24.8186C951.223 25.4781 951.823 26.5437 952.305 26.7104V26.7052ZM933.448 26.1324C935.137 27.1998 936.222 28.8017 937.526 27.3473C937.967 26.8544 938.491 25.9936 937.566 24.2667C936.883 22.9929 934.671 22.5 933.908 22.9929C933.104 23.4441 932.141 25.2924 933.466 26.1133L933.448 26.1324ZM949.009 34.3068C949.532 34.8795 950.456 34.8413 951.019 34.5116C951.542 34.1818 951.461 33.321 950.939 32.5817C950.616 32.1304 949.653 31.884 949.009 32.5817C948.365 33.2793 948.647 33.8955 949.009 34.3068Z" fill="white"/>
<path d="M1309.84 87.3324C1304.74 87.3324 1302.73 84.4092 1303.59 79.5377L1305.85 66.6771H1301.24L1302.12 61.6586H1306.73L1308.12 53.7168H1314.19L1312.8 61.6586H1319.16L1318.27 66.6771H1311.92L1309.75 79.002C1309.41 80.9503 1310.14 81.7791 1312.08 81.7791C1313.41 81.7827 1314.73 81.7011 1316.05 81.535L1315.15 86.6506C1313.42 87.094 1311.63 87.323 1309.84 87.3324Z" fill="white"/>
<path d="M1318.48 86.8522L1322.91 61.6582H1329.04L1324.61 86.8522H1318.48Z" fill="white"/>
<path d="M1400.29 87.3324C1395.19 87.3324 1393.18 84.4092 1394.04 79.5377L1396.3 66.6771H1391.69L1392.57 61.6586H1397.18L1398.58 53.7168H1404.65L1403.25 61.6586H1409.61L1408.73 66.6771H1402.37L1400.2 79.002C1399.86 80.9503 1400.59 81.7791 1402.53 81.7791C1403.86 81.7827 1405.19 81.7011 1406.51 81.535L1405.61 86.6506C1403.87 87.0943 1402.08 87.3233 1400.29 87.3324Z" fill="white"/>
<path d="M1408.93 86.8522L1413.36 61.6582H1419.49L1415.06 86.8522H1408.93Z" fill="white"/>
<path d="M1346.95 85.5344C1345.18 86.7933 1343.02 87.568 1340.47 87.568C1337.48 87.568 1335.25 86.5026 1334.34 85.0993L1332.33 96.5735H1326.3L1332.41 61.7649H1338.04L1337.52 64.5251C1339.42 62.2008 1342.4 61.1836 1345.15 61.1836C1347.66 61.1836 1349.53 62.0555 1350.85 63.3144C1353.41 65.7805 1354.24 69.5596 1353.41 74.3019C1352.54 79.241 1350.37 83.0657 1346.95 85.5344ZM1346.76 68.2146C1346.09 67.1011 1344.94 66.2283 1343.06 66.2283C1338.33 66.2283 1336.57 70.734 1335.93 74.3678C1335.29 78.0016 1335.47 82.4582 1340.2 82.4582C1342.09 82.4582 1343.54 81.5863 1344.61 80.472C1346.15 78.8253 1346.89 76.5475 1347.27 74.3678C1347.66 72.188 1347.72 69.8621 1346.76 68.2146Z" fill="white"/>
<path d="M1373.34 87.3133C1370.73 87.3133 1369.58 85.6658 1369.72 83.7758C1368.2 85.8111 1365 87.5549 1361.43 87.5549C1355.44 87.5549 1353.02 83.7758 1353.74 79.6579C1354.58 74.8616 1358.78 72.1006 1363.62 71.761L1371.1 71.2287L1371.37 69.6784C1371.79 67.3043 1371.25 65.7075 1367.82 65.7075C1365.02 65.7075 1363.16 66.9672 1362.6 69.2931H1356.77C1358.1 63.6249 1363.03 61.1055 1368.63 61.1055C1372.92 61.1055 1376.36 62.4623 1377.14 66.2406C1377.49 67.8399 1377.27 69.6319 1376.97 71.3275L1375.33 80.676C1375.12 81.8385 1375.43 82.2745 1376.45 82.2745C1376.71 82.2691 1376.98 82.2366 1377.24 82.1773L1376.46 86.6349C1375.36 87.0708 1374.79 87.3133 1373.34 87.3133ZM1370.31 75.7285L1363.86 76.2126C1362 76.3579 1360.02 77.4723 1359.66 79.5076C1359.32 81.4457 1360.8 82.6572 1362.68 82.6572C1366.44 82.6572 1369.45 80.6219 1370.11 76.8918L1370.31 75.7285Z" fill="white"/>
<path d="M1385.94 87.1895C1381.84 87.1895 1379.43 85.2032 1380.28 80.4069L1384.96 53.709H1391.04L1386.54 79.3862C1386.28 80.8394 1386.45 81.8085 1388.52 81.8085C1389.06 81.8085 1389.21 81.7595 1389.55 81.7595L1388.65 86.8464C1387.4 87.0923 1387.15 87.1895 1385.94 87.1895Z" fill="white"/>
<path d="M1421.47 49.6161C1421.5 50.4675 1421.3 51.3112 1420.9 52.0619C1420.5 52.8125 1419.91 53.4433 1419.18 53.8903C1418.46 54.3373 1417.63 54.5845 1416.79 54.6069C1415.94 54.6293 1415.1 54.4261 1414.35 54.0179C1414.27 53.9681 1414.19 53.9182 1414.1 53.8701C1414.1 53.8633 1414.09 53.8608 1414.09 53.8608C1401.43 46.3896 1386.58 42.3148 1370.82 42.8403C1354.67 43.3793 1339.79 48.6741 1327.47 57.3459C1327.41 57.3881 1327.34 57.4303 1327.28 57.4785C1327.17 57.5365 1327.04 57.5688 1326.92 57.5731C1326.8 57.5771 1326.69 57.5583 1326.58 57.518C1326.47 57.4777 1326.37 57.4165 1326.29 57.3381C1326.21 57.2596 1326.14 57.1654 1326.09 57.0607C1326.04 56.9561 1326.02 56.8431 1326.01 56.7283C1326.01 56.5724 1326.05 56.4179 1326.12 56.2813C1326.26 56.1478 1326.41 56.0203 1326.55 55.8893C1340.08 43.7494 1357.77 36.1244 1377.32 35.473C1392.26 34.9746 1406.39 38.61 1418.6 45.358C1418.61 45.358 1418.61 45.358 1418.61 45.3648L1418.95 45.5523C1419.47 45.8298 1419.93 46.1966 1420.31 46.6355C1421.02 47.4673 1421.43 48.5191 1421.47 49.6161Z" fill="white"/>
<path d="M1786 66.0005C1786 45.683 1769.53 29.2138 1749.21 29.2138C1748.66 29.2138 1748.11 29.2278 1747.56 29.253L1740.04 49.9342H1746.59C1750.49 49.9342 1752.59 52.9362 1751.25 56.6027L1741.97 82.1101L1734.18 82.1087L1744.14 54.7688H1738.28L1728.32 82.1087H1720.52L1732.24 49.9342L1739.28 30.5722C1723.79 34.9059 1712.43 49.1257 1712.43 66.0005C1712.43 83.3761 1724.48 97.9372 1740.67 101.788L1747.5 83.0278H1747.51L1759.55 49.9342H1773.9C1777.81 49.9342 1779.91 52.9362 1778.57 56.6027L1770.41 79.006C1769.79 80.7126 1767.8 82.1087 1765.98 82.1087H1755.64L1748.12 102.77C1748.48 102.78 1748.85 102.787 1749.21 102.787C1769.53 102.787 1786 86.3166 1786 66.0005Z" fill="white"/>
<path d="M1771.47 54.7472H1765.62L1757.41 77.2539H1763.27L1771.47 54.7472Z" fill="white"/>
<defs>
<clipPath id="clip0_3189_172073">
<rect width="123.538" height="65.2375" fill="white" transform="translate(20 33.3809)"/>
</clipPath>
<clipPath id="clip1_3189_172073">
<rect width="227.36" height="68.44" fill="white" transform="translate(424.494 31.7793)"/>
</clipPath>
</defs>
</svg>
