<svg width="849" height="179" viewBox="0 0 849 179" fill="none" xmlns="http://www.w3.org/2000/svg">
<path d="M164.173 110.565V78.7464L159.871 78.0558V74.2843H167.998C168.954 74.2843 170.123 74.2312 171.504 74.125C173.77 73.9833 175.629 73.9125 177.081 73.9125C181.791 73.9125 185.403 74.8155 187.918 76.6216C190.432 78.4276 191.689 81.4909 191.689 85.8112C191.689 88.5026 191.016 90.8399 189.671 92.823C188.325 94.8061 186.501 96.3289 184.199 97.3913C181.933 98.4537 179.436 98.9848 176.71 98.9848C174.195 98.9848 172.478 99.0203 171.557 99.0911V110.565L178.144 111.521V114.549H159.499V111.521L164.173 110.565ZM171.557 95.054C172.761 95.2665 174.319 95.3727 176.231 95.3727C178.71 95.3727 180.658 94.5936 182.075 93.0355C183.527 91.4773 184.252 88.9984 184.252 85.5988C184.252 83.0136 183.491 81.0305 181.968 79.6494C180.446 78.2683 178.392 77.5777 175.806 77.5777C174.177 77.5777 172.761 77.7371 171.557 78.0558V95.054ZM207.22 84.6957C210.584 84.6957 213.204 85.6342 215.081 87.5111C216.958 89.3879 217.985 92.0616 218.162 95.5321C218.198 96.7361 218.144 97.8516 218.003 98.8786C217.897 99.9056 217.826 100.543 217.79 100.791H199.358C199.5 103.943 200.332 106.386 201.854 108.121C203.413 109.821 205.608 110.671 208.441 110.671C209.716 110.671 211.062 110.547 212.478 110.299C213.93 110.016 215.17 109.626 216.197 109.131L217.418 111.893C216.214 112.92 214.532 113.734 212.372 114.336C210.212 114.938 208.087 115.239 205.998 115.239C201.465 115.239 197.959 113.929 195.48 111.309C193.037 108.688 191.815 105.076 191.815 100.472C191.815 97.4267 192.47 94.7176 193.78 92.3449C195.091 89.9368 196.914 88.06 199.252 86.7143C201.589 85.3686 204.245 84.6957 207.22 84.6957ZM205.785 88.0423C203.979 88.0423 202.51 88.8213 201.376 90.3795C200.243 91.9023 199.57 94.0979 199.358 96.9663H210.672C210.743 96.1164 210.779 95.4613 210.779 95.0009C210.779 92.9824 210.389 91.495 209.61 90.5389C209.043 88.8745 207.768 88.0423 205.785 88.0423ZM236.595 84.6957C239.959 84.6957 242.58 85.6342 244.457 87.5111C246.334 89.3879 247.361 92.0616 247.538 95.5321C247.573 96.7361 247.52 97.8516 247.378 98.8786C247.272 99.9056 247.201 100.543 247.166 100.791H228.733C228.875 103.943 229.707 106.386 231.23 108.121C232.788 109.821 234.984 110.671 237.817 110.671C239.092 110.671 240.437 110.547 241.854 110.299C243.306 110.016 244.545 109.626 245.572 109.131L246.794 111.893C245.59 112.92 243.908 113.734 241.748 114.336C239.587 114.938 237.463 115.239 235.373 115.239C230.84 115.239 227.335 113.929 224.856 111.309C222.412 108.688 221.19 105.076 221.19 100.472C221.19 97.4267 221.846 94.7176 223.156 92.3449C224.466 89.9368 226.29 88.06 228.627 86.7143C230.964 85.3686 233.62 84.6957 236.595 84.6957ZM235.161 88.0423C233.355 88.0423 231.885 88.8213 230.752 90.3795C229.619 91.9023 228.946 94.0979 228.733 96.9663H240.048C240.119 96.1164 240.154 95.4613 240.154 95.0009C240.154 92.9824 239.764 91.495 238.985 90.5389C238.419 88.8745 237.144 88.0423 235.161 88.0423ZM253.647 110.937V92.2918L250.035 89.9014V87.3517L258.481 84.802L260.074 85.3332V89.9545C260.57 88.6797 261.65 87.5111 263.314 86.4487C265.014 85.3863 266.59 84.8551 268.042 84.8551C269.423 84.8551 270.309 84.9259 270.698 85.0676V92.1856C270.167 91.8668 269.476 91.6013 268.626 91.3888C267.776 91.1763 266.927 91.0701 266.077 91.0701C264.058 91.0701 262.394 91.495 261.083 92.3449V110.777L267.67 111.574V114.549H250.035V111.574L253.647 110.937ZM288.276 115.239C286.01 115.239 283.601 115.009 281.052 114.549C278.502 114.088 276.678 113.557 275.58 112.955V103.341H278.768L280.892 109.024C281.742 110.087 282.822 110.813 284.133 111.202C285.443 111.592 286.966 111.787 288.701 111.787C290.613 111.787 292.207 111.255 293.482 110.193C294.792 109.131 295.447 107.626 295.447 105.678C295.447 104.155 294.774 102.774 293.429 101.535C292.118 100.295 290.259 98.9848 287.851 97.6037C285.053 96.081 282.84 94.753 281.211 93.6198C279.582 92.4866 278.236 91.1763 277.174 89.689C276.147 88.1662 275.634 86.4133 275.634 84.4301C275.634 82.1991 276.271 80.3045 277.546 78.7464C278.856 77.1528 280.521 75.9487 282.539 75.1342C284.558 74.3197 286.647 73.9125 288.807 73.9125C290.861 73.9125 293.039 74.1073 295.341 74.4968C297.643 74.8863 299.254 75.329 300.175 75.8248V83.7927H296.775L294.491 78.587C293.995 78.1975 293.216 77.8787 292.154 77.6308C291.091 77.3475 290.064 77.2059 289.073 77.2059C287.408 77.2059 285.921 77.6308 284.611 78.4808C283.3 79.3307 282.645 80.6409 282.645 82.4116C282.645 84.2531 283.407 85.8644 284.929 87.2455C286.488 88.5912 288.878 90.1316 292.101 91.8668C295.5 93.6729 298.121 95.479 299.962 97.285C301.804 99.0911 302.724 101.287 302.724 103.872C302.724 106.351 302.069 108.458 300.759 110.193C299.484 111.893 297.749 113.168 295.553 114.018C293.358 114.832 290.932 115.239 288.276 115.239ZM322.011 84.6957C325.623 84.6957 328.456 85.9175 330.51 88.361C332.599 90.8045 333.644 94.3812 333.644 99.0911C333.644 102.03 332.953 104.722 331.572 107.165C330.226 109.609 328.349 111.556 325.941 113.008C323.569 114.425 320.93 115.133 318.027 115.133C317.354 115.133 316.575 115.062 315.689 114.921C314.804 114.814 314.273 114.744 314.096 114.708L314.361 120.179V124.11L319.461 124.801V127.829H303.578V124.801L306.978 124.11V92.2918L303.419 89.9014V87.3517L311.865 84.802L313.352 85.3332V88.5203C314.025 87.5288 315.194 86.6434 316.858 85.8644C318.558 85.0853 320.275 84.6957 322.011 84.6957ZM318.93 88.8922C318.009 88.8922 317.124 89.1223 316.274 89.5827C315.459 90.0077 314.804 90.4857 314.308 91.0169V109.343C314.627 110.016 315.247 110.529 316.167 110.884C317.088 111.202 318.133 111.362 319.301 111.362C320.647 111.362 321.833 110.901 322.86 109.981C323.923 109.024 324.755 107.696 325.357 105.997C325.959 104.261 326.26 102.225 326.26 99.8879C326.26 96.4174 325.587 93.726 324.242 91.8137C322.896 89.866 321.125 88.8922 318.93 88.8922ZM351.403 84.6426C355.935 84.6072 359.406 85.9175 361.814 88.5734C364.222 91.2294 365.408 94.8592 365.373 99.4629C365.373 102.579 364.736 105.341 363.461 107.75C362.186 110.122 360.451 111.964 358.255 113.274C356.059 114.549 353.563 115.186 350.765 115.186C346.126 115.186 342.585 113.805 340.141 111.043C337.733 108.245 336.529 104.562 336.529 99.9941C336.529 96.8778 337.167 94.1864 338.441 91.92C339.752 89.6181 341.522 87.8475 343.753 86.608C346.02 85.3686 348.57 84.7134 351.403 84.6426ZM351.031 88.0954C348.658 88.0954 346.958 89.0692 345.931 91.0169C344.94 92.9646 344.444 95.6914 344.444 99.1973C344.444 102.562 345.011 105.483 346.144 107.962C347.277 110.441 348.924 111.68 351.084 111.68C353.492 111.68 355.174 110.653 356.13 108.599C357.086 106.51 357.564 103.589 357.564 99.8348C357.564 96.3643 357.033 93.549 355.971 91.3888C354.908 89.1932 353.262 88.0954 351.031 88.0954ZM377.057 85.5456H385.662V89.6358H377.269V100.578C377.269 103.27 377.322 105.271 377.429 106.581C377.535 107.891 377.8 108.883 378.225 109.556C378.65 110.193 379.341 110.512 380.297 110.512C381.005 110.512 381.855 110.406 382.847 110.193C383.874 109.981 384.6 109.75 385.025 109.502L386.193 112.212C385.308 113.132 383.945 113.858 382.103 114.389C380.262 114.921 378.509 115.186 376.844 115.186C374.436 115.186 372.701 114.513 371.639 113.168C370.576 111.787 370.045 109.609 370.045 106.634V89.6358H366.167V87.1392C367.725 86.7851 368.806 86.4664 369.408 86.1831C370.045 85.8998 370.576 85.4217 371.001 84.7488C371.603 83.8281 372.435 81.7742 373.498 78.587H377.057V85.5456Z" fill="white"/>
<path fill-rule="evenodd" clip-rule="evenodd" d="M138.593 41.0137H83.3271V73.2246V96.2809V128.469L110.96 100.847L115.528 96.2809H138.593V73.2246V41.0137ZM115.561 52.5312H127.075V84.7574H115.561V52.5312Z" fill="white"/>
<g clip-path="url(#clip0_3205_172991)">
<path d="M699.234 97.4841C699.801 102.873 695.83 107.411 690.725 107.979C690.158 107.979 689.59 107.979 689.023 107.979H686.47C681.081 108.546 676.543 104.575 675.976 99.4695C675.976 98.9023 675.976 98.335 675.976 97.7677C675.409 92.3787 679.38 87.8406 684.769 87.2733C685.336 87.2733 685.903 87.2733 686.47 87.2733H689.023C694.412 86.7061 698.95 90.6769 699.518 96.066C699.234 96.3496 699.234 96.9168 699.234 97.4841ZM689.023 80.4662H685.62C676.827 79.8989 668.885 86.7061 668.318 95.4987C668.318 96.066 668.318 96.9168 668.318 97.4841C667.751 106.277 674.558 113.935 683.351 114.786C684.201 114.786 684.769 114.786 685.62 114.786H689.023C697.816 115.353 705.757 108.829 706.325 99.7532C706.325 98.9023 706.325 98.335 706.325 97.4841C706.892 88.6915 700.085 81.0334 691.009 80.4662C690.441 80.4662 689.59 80.4662 689.023 80.4662ZM762.484 80.4662C760.782 80.1825 759.08 81.6007 758.797 83.5861C758.797 83.8698 758.797 83.8698 758.797 84.1534V111.382C758.797 113.084 760.215 114.786 761.917 114.786H762.2C764.186 114.786 765.604 113.368 765.888 111.666V111.382V84.1534C765.888 82.168 764.469 80.7498 762.768 80.4662H762.484ZM582.377 86.1388C583.512 84.7206 583.228 82.4516 581.81 81.3171L581.526 81.0334C580.108 79.8989 578.123 80.1825 576.705 81.6007L576.421 81.8843L561.105 104.575L545.789 81.8843C544.938 80.1825 542.952 79.8989 541.251 80.7498L540.967 81.0334C539.265 81.8843 538.698 84.1534 539.832 85.5715L540.116 85.8552C540.116 85.8552 558.269 112.8 558.552 113.084C559.687 114.502 561.956 114.786 563.374 113.651C563.658 113.368 563.941 113.368 563.941 113.084C564.225 113.084 582.377 86.1388 582.377 86.1388ZM798.789 94.0805H786.309C784.607 94.3642 782.906 92.946 782.906 91.2442C782.906 90.9606 782.906 90.6769 782.906 90.6769C782.622 88.9751 784.04 87.2733 785.742 87.2733C786.026 87.2733 786.309 87.2733 786.593 87.2733H805.029C806.731 87.2733 808.432 86.1388 808.432 84.1534V83.8698C808.432 82.168 807.298 80.4662 805.313 80.4662H805.029H786.026C780.637 80.1825 776.098 84.1534 775.815 89.5424C775.815 90.1097 775.815 90.3933 775.815 90.9606C775.531 96.3496 779.502 100.888 784.607 101.171C785.175 101.171 785.458 101.171 786.026 101.171H798.505C800.207 100.888 801.909 102.306 801.909 104.008C801.909 104.291 801.909 104.575 801.909 104.575C801.909 106.277 800.774 107.695 799.073 107.979C798.789 107.979 798.505 107.979 798.222 107.979H778.651C776.949 107.979 775.247 109.113 775.247 111.098V111.382C775.247 113.084 776.382 114.786 778.084 114.786C778.367 114.786 778.367 114.786 778.651 114.786H798.505C803.894 115.069 808.432 111.098 808.716 105.993C808.716 105.426 808.716 105.142 808.716 104.575C809 99.1859 805.029 94.6478 799.923 94.3642C799.64 94.0805 799.073 94.0805 798.789 94.0805ZM634.282 87.2733H649.882C652.151 87.2733 653.853 88.9751 653.853 91.2442C653.853 91.5278 653.853 91.5278 653.853 91.8115C654.136 94.0805 652.435 96.066 650.449 96.3496H634.282V87.2733ZM626.908 83.8698V111.098C626.908 113.084 628.609 114.786 630.595 114.786C632.58 114.786 634.282 113.084 634.282 111.098V102.873H648.18L654.987 113.368C655.555 114.218 656.405 114.786 657.54 114.786H657.824C659.525 114.786 660.944 113.084 660.66 111.382V111.098C660.66 110.531 660.376 109.964 660.093 109.68L654.987 102.022C658.674 100.32 660.944 96.3496 660.66 92.3787V91.8115C660.66 91.8115 660.66 91.8115 660.66 91.5278V90.9606C660.66 84.437 656.689 80.4662 650.733 80.4662H630.311C628.893 80.1825 627.191 81.6007 627.191 83.5861C627.191 83.5861 627.191 83.8698 626.908 83.8698ZM591.454 101.455L598.828 90.3933L606.202 101.455H591.454ZM620.1 109.113C620.1 109.113 601.948 82.168 601.664 81.8843C601.097 81.0334 599.963 80.4662 598.828 80.4662C597.693 80.4662 596.559 81.0334 595.992 81.8843C595.708 82.168 577.556 109.113 577.556 109.113C576.421 110.531 576.705 112.8 578.123 113.935L578.406 114.218C579.825 115.353 581.81 115.069 582.945 113.651C582.945 113.368 583.228 113.368 583.228 113.084L586.915 107.411H610.173L613.861 113.084C614.711 114.786 616.697 115.069 618.399 114.218L618.682 113.935C620.668 113.084 621.235 111.098 620.384 109.397L620.1 109.113ZM746.601 114.786C744.899 115.069 743.197 113.651 743.197 111.949C743.197 111.666 743.197 111.666 743.197 111.382V97.2005C743.481 92.0951 739.793 87.557 734.404 86.9897C733.837 86.9897 733.553 86.9897 732.986 86.9897H730.434C725.328 86.7061 720.79 90.3933 720.223 95.4987C720.223 96.066 720.223 96.3496 720.223 96.9168V110.815C720.506 112.517 719.088 114.218 717.386 114.502C717.103 114.502 716.819 114.502 716.536 114.502C714.834 114.786 713.132 113.368 712.848 111.382C712.848 111.098 712.848 111.098 712.848 110.815V97.2005C712.281 88.4079 718.805 81.0334 727.597 80.4662C728.448 80.4662 729.299 80.4662 729.866 80.4662H733.27C742.062 79.8989 749.721 86.4224 750.288 94.9314C750.288 95.7823 750.288 96.3496 750.288 97.2005V111.098C750.288 112.8 749.153 114.502 747.168 114.786C747.168 114.786 746.884 114.786 746.601 114.786Z" fill="white"/>
<path d="M527.07 105.988L509.768 80.4609L503.244 90.1044L518.277 112.228C519.695 114.78 522.815 115.348 525.084 114.213C525.368 113.93 525.651 113.93 525.935 113.646C528.488 112.228 529.055 109.108 527.637 106.555C527.353 106.272 527.353 106.272 527.07 105.988ZM493.034 112.228C494.452 114.497 497.288 115.348 499.841 114.213C500.125 113.93 500.408 113.93 500.692 113.646C503.244 112.228 503.812 109.108 502.394 106.839C502.394 106.555 502.11 106.555 502.11 106.272L497.288 99.1807L490.765 108.824L493.034 112.228Z" fill="white"/>
<path d="M492.75 55.2188H479.703L503.245 90.1056L509.768 80.462L492.75 55.2188ZM454.46 55.2188L490.765 108.825L497.288 99.1818L467.791 55.5024H454.46" fill="white"/>
</g>
<defs>
<clipPath id="clip0_3205_172991">
<rect width="354.541" height="59.5628" fill="white" transform="translate(454.459 55.2188)"/>
</clipPath>
</defs>
</svg>
