<svg width="281" height="93" viewBox="0 0 281 93" fill="none" xmlns="http://www.w3.org/2000/svg">
<g id="Frame 3847">
<g id="Vector">
<path d="M24.2697 53.9764C24.3027 53.9435 24.3358 53.9108 24.369 53.8781C26.2906 51.9885 27.9962 49.6752 28.1548 46.825C28.3828 42.7267 25.5416 40.3283 22.9355 37.7382C21.311 36.1121 20.295 33.9861 20.055 31.711C19.815 29.4358 20.3654 27.1476 21.6155 25.2241C25.8897 18.8208 36.0039 19.6286 39.0899 26.7224C39.8496 28.5594 40.0469 30.5772 39.6571 32.5244C39.2674 34.4717 38.3077 36.2623 36.8977 37.6731C34.4002 40.2673 31.5513 42.587 31.5351 46.5622C31.5207 50.1159 33.827 52.5595 36.0812 54.9555C38.3222 57.3376 39.769 60.0327 39.6116 63.348C39.523 64.8446 39.0769 66.2991 38.3101 67.5917C37.5433 68.8844 36.4777 69.9782 35.2008 70.7833C29.6648 74.2923 21.8564 70.9814 20.3516 64.7142C19.3681 60.6182 21.4192 56.816 24.2697 53.9764Z" fill="white"/>
<path d="M51.0437 56.3033C56.479 56.3033 60.8852 51.939 60.8852 46.5554C60.8852 41.1718 56.479 36.8075 51.0437 36.8075C45.6084 36.8075 41.2022 41.1718 41.2022 46.5554C41.2022 51.939 45.6084 56.3033 51.0437 56.3033Z" fill="white"/>
<path d="M75.1145 59.9113V31.9226H75.6814C77.2144 31.9244 78.6845 32.5285 79.7687 33.6023C80.8528 34.6761 81.4626 36.132 81.4644 37.6506V59.9113H75.1145Z" fill="white"/>
<path d="M75.6814 59.3498V32.4843C77.0644 32.4843 78.3913 33.0286 79.3693 33.9974C80.348 34.9664 80.8974 36.2804 80.8974 37.6507V59.3498H75.6814ZM101.367 72.0931C93.9852 72.0931 88.9175 68.7639 87.0974 62.7188L86.8797 61.9969H93.3492L93.4919 62.3484C94.8754 65.7438 98.5376 66.4564 101.367 66.4564C107.192 66.4564 110.024 63.4915 110.024 57.392V56.1709C107.847 58.8456 104.358 60.4006 100.378 60.4006C93.4943 60.4006 86.0852 55.8682 86.0852 45.9169C86.0852 37.3984 92.4656 31.2158 101.257 31.2158C110.266 31.2158 116.319 37.2113 116.319 46.1346V57.1745C116.319 66.6554 110.869 72.0931 101.367 72.0931ZM101.257 37.1244C96.0949 37.1244 92.49 40.74 92.49 45.9168C92.49 51.0133 96.0132 54.4375 101.257 54.4375C106.501 54.4375 110.024 51.0133 110.024 45.9168C110.024 40.74 106.419 37.1244 101.257 37.1244Z" fill="white"/>
<path d="M110.591 54.5096H110.481C108.614 57.7726 104.936 59.8391 100.378 59.8391C93.3504 59.8391 86.6522 55.0534 86.6522 45.9169C86.6522 37.7594 92.6919 31.7772 101.257 31.7772C109.822 31.7772 115.752 37.4875 115.752 46.1346V57.1744C115.752 67.5073 109.383 71.5317 101.367 71.5317C94.723 71.5317 89.5071 68.7582 87.6406 62.5584H92.9663C94.2291 65.6583 97.4138 67.0179 101.367 67.0179C106.912 67.0179 110.591 64.4074 110.591 57.392V54.5096ZM101.257 36.5629C95.6565 36.5629 91.923 40.4786 91.923 45.9169C91.923 51.3554 95.6565 54.9989 101.257 54.9989C106.857 54.9989 110.591 51.3554 110.591 45.9169C110.591 40.4786 106.857 36.5629 101.257 36.5629ZM134.991 60.6183C126.248 60.6183 121.028 55.3462 121.028 46.5153V31.9227H127.377V46.5153C127.377 51.7992 130.081 54.7094 134.991 54.7094C139.902 54.7094 142.605 51.7992 142.605 46.5153V31.9227H148.955V46.5153C148.955 55.3462 143.735 60.6183 134.991 60.6183Z" fill="white"/>
<path d="M143.172 32.4843H148.388V46.5152C148.388 55.434 143.008 60.0568 134.991 60.0568C126.975 60.0568 121.594 55.4885 121.594 46.5152V32.4843H126.811V46.5152C126.811 52.3342 130.05 55.2709 134.991 55.2709C139.933 55.2709 143.172 52.3342 143.172 46.5152V32.4843ZM167.607 60.6183C160.504 60.6183 153.313 55.5684 153.313 45.9169C153.313 37.3984 159.694 31.2157 168.485 31.2157C177.353 31.2157 183.547 37.3505 183.547 46.1346V59.9113H177.637V55.7499C175.539 58.8314 171.924 60.6183 167.607 60.6183ZM168.485 37.1244C163.324 37.1244 159.718 40.74 159.718 45.9168C159.718 51.0937 163.324 54.7093 168.485 54.7093C173.647 54.7093 177.252 51.0937 177.252 45.9168C177.252 40.74 173.647 37.1244 168.485 37.1244Z" fill="white"/>
<path d="M182.98 59.3497H178.203V53.7482H178.094C176.447 57.555 172.603 60.0568 167.607 60.0568C160.579 60.0568 153.88 55.0534 153.88 45.9169C153.88 37.7594 159.92 31.7772 168.485 31.7772C177.05 31.7772 182.98 37.5419 182.98 46.1346V59.3497ZM177.819 45.9169C177.819 40.4786 174.086 36.5629 168.485 36.5629C162.885 36.5629 159.151 40.4786 159.151 45.9169C159.151 51.3554 162.885 55.2709 168.485 55.2709C174.086 55.2709 177.819 51.3554 177.819 45.9169ZM188.146 59.9113V54.8819L204.838 37.6683H188.969V31.9226H213.713V32.4841C213.718 35.3521 212.597 38.1097 210.588 40.1743L197.021 54.1656H214.261V59.9113H188.146Z" fill="white"/>
<path d="M188.713 59.3497V55.1078L206.063 37.2155V37.1068H189.536V32.4843H213.146C213.146 35.2061 212.083 37.8224 210.179 39.7854L195.796 54.6183V54.7272H213.695V59.3498L188.713 59.3497ZM219.102 59.9113V31.9226H219.669C221.203 31.9244 222.672 32.5284 223.757 33.6023C224.841 34.6762 225.451 36.1321 225.452 37.6508V59.9113H219.102Z" fill="white"/>
<path d="M219.669 59.3498V32.4843C221.053 32.4843 222.38 33.0286 223.358 33.9975C224.336 34.9664 224.886 36.2805 224.886 37.6508V59.3498H219.669ZM244.894 60.6183C236.103 60.6183 229.722 54.4354 229.722 45.9169C229.722 37.3984 236.103 31.2157 244.894 31.2157C253.685 31.2157 260.066 37.3984 260.066 45.9169C260.066 54.4354 253.685 60.6183 244.894 60.6183ZM244.894 37.1244C239.732 37.1244 236.127 40.74 236.127 45.9168C236.127 51.0937 239.732 54.7093 244.894 54.7093C250.056 54.7093 253.661 51.0937 253.661 45.9168C253.661 40.74 250.056 37.1244 244.894 37.1244Z" fill="white"/>
<path d="M245.366 60.0567C236.801 60.0567 230.761 54.0744 230.761 45.9169C230.761 37.7594 236.801 31.7772 245.366 31.7772C253.931 31.7772 259.971 37.7594 259.971 45.9169C259.971 54.0744 253.931 60.0567 245.366 60.0567ZM254.7 45.9169C254.7 40.4786 250.967 36.5629 245.366 36.5629C239.766 36.5629 236.033 40.4786 236.033 45.9169C236.033 51.3553 239.766 55.2709 245.366 55.2709C250.967 55.2709 254.7 51.3553 254.7 45.9169ZM78.1711 20.9935C79.1778 20.996 80.1419 21.3937 80.8522 22.0994C81.5626 22.8051 81.962 23.7612 81.9614 24.7579C81.9602 25.7427 81.5656 26.6872 80.8638 27.3845C80.1614 28.082 79.2089 28.4758 78.215 28.4799C77.7126 28.4879 77.2138 28.3933 76.7504 28.2023C76.2864 28.0113 75.867 27.7278 75.5185 27.3695C75.1571 27.0189 74.8718 26.599 74.68 26.1354C74.4883 25.6717 74.3941 25.1742 74.4033 24.6733C74.3963 24.1877 74.4907 23.7059 74.6807 23.2583C74.8707 22.8106 75.1522 22.4068 75.5075 22.0721C75.8548 21.7232 76.2699 21.4477 76.7278 21.2623C77.1858 21.077 77.6766 20.9855 78.1711 20.9935ZM222.439 20.9935C223.445 20.996 224.41 21.3937 225.12 22.0994C225.83 22.8051 226.229 23.7612 226.229 24.7579C226.228 25.7427 225.833 26.6872 225.131 27.3845C224.429 28.082 223.477 28.4758 222.483 28.4799C221.98 28.4879 221.482 28.3933 221.017 28.2023C220.554 28.0113 220.135 27.7278 219.786 27.3695C219.425 27.0189 219.139 26.599 218.947 26.1354C218.756 25.6717 218.662 25.1742 218.671 24.6733C218.664 24.1877 218.758 23.7059 218.949 23.2583C219.138 22.8106 219.42 22.4068 219.775 22.0721C220.122 21.7232 220.538 21.4477 220.996 21.2623C221.453 21.077 221.944 20.9855 222.439 20.9935Z" fill="white"/>
</g>
</g>
</svg>
