<svg width="222" height="91" viewBox="0 0 222 91" fill="none" xmlns="http://www.w3.org/2000/svg">
<g id="Akamai_logo 1" clip-path="url(#clip0_2972_178561)">
<g id="g1518">
<g id="g1557">
<g id="g1402">
<path id="path1404" d="M45.7524 88.441C27.2034 82.8195 13.7224 65.7466 13.7224 45.543C13.7224 25.125 27.491 7.91019 46.3215 2.43359C48.25 1.86299 47.7505 0.652344 45.3951 0.652344C20.3554 0.652344 0.0263672 20.7866 0.0263672 45.543C0.0263672 70.2994 20.3554 90.4336 45.3951 90.4336C47.7505 90.4336 47.8927 89.081 45.7524 88.441Z" fill="white"/>
</g>
<g id="g1406">
<path id="path1408" d="M22.3532 56.0004C22.2109 54.7898 22.1383 53.5821 22.1383 52.3715C22.1383 32.666 38.12 16.7313 57.8799 16.7313C76.5681 16.7313 82.1324 25.0549 82.8469 24.4843C83.631 23.9167 76.0685 7.41141 54.1683 7.41141C34.4084 7.41141 18.4297 23.3461 18.4297 43.0516C18.4297 47.6044 19.2864 51.9458 20.8546 55.9279C21.4965 57.6367 22.4955 57.6367 22.3532 56.0004Z" fill="white"/>
</g>
<g id="g1410">
<path id="path1412" d="M37.334 30.3199C46.607 26.2653 58.3079 26.1234 69.7909 30.178C77.4956 32.8801 81.9913 36.7233 82.3486 36.509C82.9904 36.2252 77.8529 28.1854 68.6495 24.6984C57.5208 20.5019 45.5383 22.7088 36.8345 29.5379C35.8354 30.3199 36.1927 30.818 37.334 30.3199Z" fill="white"/>
</g>
<g id="g1414">
<path id="path1416" d="M221.027 47.1081C221.027 49.6682 218.886 51.8027 216.319 51.8027C213.749 51.8027 211.611 49.7407 211.611 47.1081C211.611 44.5479 213.679 42.4134 216.319 42.4134C218.959 42.4134 221.027 44.4754 221.027 47.1081Z" fill="white"/>
</g>
<path id="path1420" d="M67.796 73.3594L68.3651 79.6211H78.2829L74.9286 43.2684H60.1639L41.4727 79.6211H51.6024L54.7418 73.3594H67.796ZM67.2966 66.3161H58.2354L66.0129 50.5957H66.0826L67.2966 66.3161Z" fill="white"/>
<path id="path1424" d="M92.0495 63.7558H93.5481L100.611 54.1521H109.811L100.039 66.3885L106.033 79.6211H96.2577L92.3341 69.3048H90.9081L88.6982 79.6211H80.3516L88.0533 43.2684H96.3999L92.0495 63.7558Z" fill="white"/>
<g id="Clip path group">
<mask id="mask0_2972_178561" style="mask-type:luminance" maskUnits="userSpaceOnUse" x="-1523" y="-115" width="1853" height="2393">
<g id="clipPath1432">
<path id="path1430" d="M-1522.98 2277.03H329.795V-114.082H-1522.98V2277.03Z" fill="white"/>
</g>
</mask>
<g mask="url(#mask0_2972_178561)">
<g id="g1428">
<g id="g1434">
<path id="path1436" d="M122.867 79.6184H131.214L134.565 63.7531C136.421 55.0038 133.07 53.9381 124.508 53.9381C118.517 53.9381 112.738 53.8657 111.097 61.7605H119.443C119.943 59.4841 121.369 58.989 123.44 58.989C127.076 58.989 126.933 60.4804 126.434 62.8293L125.577 66.8839H125.223C124.935 63.9675 121.227 64.0399 118.871 64.0399C112.81 64.0399 109.241 65.9601 107.958 72.0767C106.604 78.5496 109.671 79.9746 115.52 79.9746C118.444 79.9746 122.368 79.404 123.724 75.92H124.009L122.867 79.6184ZM120.512 69.0908C123.225 69.0908 125.008 69.3022 124.578 71.4367C124.009 74.0693 122.867 74.5674 119.371 74.5674C118.087 74.5674 115.735 74.5674 116.304 71.7929C116.804 69.4441 118.444 69.0908 120.512 69.0908Z" fill="white"/>
</g>
<g id="g1438">
<path id="path1440" d="M148.121 54.1502L147.337 57.7067H147.694C149.335 54.7178 152.686 53.8664 155.541 53.8664C159.108 53.8664 162.674 54.5065 162.174 58.8449H162.532C163.743 55.216 167.454 53.8664 170.663 53.8664C176.585 53.8664 179.082 56.2847 177.796 62.19L174.087 79.6191H165.741L168.88 64.8921C169.307 62.2595 169.737 60.2669 166.525 60.2669C163.243 60.2669 162.174 62.4014 161.602 65.1759L158.535 79.6191H150.189L153.471 64.1796C153.9 61.8338 154.043 60.2669 151.118 60.2669C147.694 60.2669 146.623 62.1176 145.981 65.1759L142.914 79.6191H134.567L139.989 54.1502H148.121Z" fill="white"/>
</g>
<g id="g1442">
<path id="path1444" d="M193.277 79.6184H201.623L205.047 63.7531C206.903 55.0038 203.549 53.9381 194.99 53.9381C188.996 53.9381 183.216 53.8657 181.579 61.7605H189.925C190.422 59.4841 191.851 58.989 193.918 58.989C197.557 58.989 197.415 60.4804 196.915 62.8293L196.059 66.8839H195.701C195.417 63.9675 191.708 64.0399 189.353 64.0399C183.289 64.0399 179.723 65.9601 178.439 72.0767C177.083 78.5496 180.15 79.9746 185.999 79.9746C188.926 79.9746 192.85 79.404 194.203 75.92H194.491L193.277 79.6184ZM190.994 69.0908C193.703 69.0908 195.487 69.3022 195.06 71.4367C194.491 74.0693 193.349 74.5674 189.853 74.5674C188.569 74.5674 186.214 74.5674 186.786 71.7929C187.285 69.4441 188.926 69.0908 190.994 69.0908Z" fill="white"/>
</g>
</g>
</g>
</g>
<path id="path1448" d="M213.75 79.6191H205.403L210.753 54.1503H219.172L213.75 79.6191Z" fill="white"/>
</g>
</g>
</g>
<defs>
<clipPath id="clip0_2972_178561">
<rect width="221" height="89.7812" fill="white" transform="translate(0.0263672 0.652344)"/>
</clipPath>
</defs>
</svg>
