<svg width="849" height="150" viewBox="0 0 849 150" fill="none" xmlns="http://www.w3.org/2000/svg">
<path d="M283.66 43.3333C279.438 46.0805 277.674 51.0799 279.785 54.3063C281.896 57.5168 286.952 57.7565 291.3 55.0092C295.521 52.1661 297.175 47.2784 295.191 44.052C294.041 42.2631 292.008 41.3686 289.724 41.3686C287.771 41.3686 285.613 42.0076 283.66 43.3333ZM229.85 48.7C225.392 48.8278 223.864 48.8277 223.864 48.8277L221.501 59.5292H215.169C215.169 59.5292 217.043 60.7273 218.099 62.8836C218.918 64.8961 219.28 67.6434 218.682 70.8698C217.642 76.9234 216.35 82.7692 216.35 82.7692C214.098 93.1354 218.209 96.4578 227.85 96.4578C230.323 96.4578 233.835 96.2341 236.308 95.7549L238.309 85.9798C236.088 86.3471 234.197 86.4589 232.906 86.4589C230.905 86.4589 229.724 85.1493 229.85 83.6159C229.85 82.3062 230.197 80.8685 230.433 79.6706L232.796 68.7134H241.948L244.059 59.5292H234.434L236.907 48.4604C236.907 48.4604 234.796 48.5882 229.85 48.7ZM91.5605 79.7983C91.5605 87.6567 94.8527 97.1924 110.825 97.1924C120.23 97.1924 129.035 91.3465 131.162 81.0922H117.646C116.575 84.2068 114.244 87.6568 110.825 87.6568C106.714 87.6568 105.659 84.5582 106.005 79.431C106.242 76.8115 107.769 67.5316 114.007 67.5316C118.465 67.5316 118.828 72.1635 118.828 73.9524H132.328C132.438 63.5863 125.05 57.996 114.465 57.996C100.382 57.996 91.5605 69.1926 91.5605 79.7983ZM133.855 80.3893C133.855 90.0367 139.495 96.9528 152.664 96.9528C166.179 96.9528 170.747 87.3056 171.693 84.9257H158.524C157.594 86.8264 156.176 88.136 153.246 88.136C150.663 88.136 149.246 86.8262 148.537 85.5165C147.844 84.0949 147.481 82.4178 147.607 80.3893H173.11C173.567 78.6004 173.803 76.5719 173.803 74.192C173.803 63.2348 165.817 58.2195 156.287 58.2195C145.953 58.2195 133.855 64.7842 133.855 80.3893ZM155.83 66.701C159.705 66.701 161.58 68.9532 160.886 73.2497H148.773C149.734 69.5601 152.175 66.701 155.83 66.701ZM332.193 81.5872C332.193 88.1359 334.76 96.6014 345.236 96.6014C349.93 96.6014 354.624 94.0938 356.624 91.3465V91.4742C356.624 92.8958 356.734 94.573 357.333 95.7549H370.959C370.25 93.8542 370.25 90.6277 371.069 86.8262C371.778 83.6157 376.724 59.5292 376.724 59.5292H363.099L362.028 64.1933C360.389 60.8391 356.876 58.587 351.458 58.587C338.872 58.587 332.193 70.9815 332.193 81.5872ZM346.511 80.5173C346.511 74.7831 349.694 67.9946 354.514 67.9946C358.499 67.9946 359.916 70.7419 359.916 74.4315C359.916 82.0664 356.278 86.8262 351.805 86.8262C348.638 86.8262 346.511 85.0375 346.511 80.5173ZM290.008 79.9262C290.118 87.6569 293.647 96.6014 309.383 96.6014C318.677 96.6014 327.498 91.3465 329.719 81.0922H316.204C315.148 84.2068 312.801 87.0658 309.273 87.0658C305.413 87.0658 304.232 84.5582 304.579 79.431C304.689 76.6997 306.233 67.9946 312.565 67.9946C317.039 67.9946 317.386 72.2913 317.275 73.9524H330.775C330.901 63.5863 323.608 58.587 312.912 58.587C298.94 58.587 290.008 69.1927 290.008 79.9262ZM192.123 64.6725L193.541 59.5292H180.372L172.984 95.7549H186.61L190.611 76.5719C191.43 72.7545 192.848 69.6719 197.195 69.6719C199.416 69.6719 201.07 70.8697 201.07 73.1218C201.07 74.5593 200.362 77.0512 199.999 79.2075L196.487 95.7549H209.876L214.223 75.2621C214.806 72.6427 215.169 70.0232 215.169 68.3461C215.169 60.839 209.277 58.587 204.599 58.587C198.708 58.587 194.959 61.446 192.123 64.6725ZM259.228 65.8545V65.7266L260.63 59.5292H247.477L240.057 95.7549H253.699L256.881 80.6289C258.283 73.9524 261.103 71.3329 265.45 71.3329C267.561 71.3329 268.853 71.4609 271.09 72.2914L273.673 59.8968C272.618 59.4176 271.436 59.3058 269.814 59.3058C265.45 59.3058 261.339 62.4045 259.228 65.8545ZM277.186 59.5292L269.814 95.7549H283.423L290.827 59.5292H277.186Z" fill="white"/>
<path d="M604.047 85.5113L667.451 46.0711H700.342C700.595 46.0711 700.845 46.1209 701.078 46.2176C701.311 46.3144 701.523 46.4562 701.701 46.635C701.88 46.8138 702.021 47.0259 702.117 47.2594C702.214 47.4929 702.263 47.743 702.262 47.9955C702.288 48.3231 702.217 48.6512 702.057 48.9385C701.898 49.2258 701.657 49.4595 701.365 49.6104L670.224 68.2808C668.201 69.492 667.492 71.9234 667.492 73.7447L667.46 85.5113H707.035V17.1279C707.036 16.7999 706.971 16.4752 706.842 16.1733C706.714 15.8714 706.526 15.5986 706.29 15.3714C706.053 15.1441 705.773 14.9672 705.467 14.8512C705.16 14.7352 704.833 14.6826 704.505 14.6965H666.743L603.491 53.9663V85.5113H604.047Z" fill="white"/>
<path d="M771 106.908H762.584L752.504 118.163V106.908H745.438L745.473 134.613H752.504V124.085L762.064 134.613H771L758.116 120.935L771 106.908ZM734.044 118.302L727.601 117.575C723.825 117.159 722.891 116.223 722.891 114.942C722.891 113.522 724.831 112.241 728.606 112.241C732.243 112.241 734.148 113.592 734.494 115.635H741.421C741.07 109.782 736.154 106.146 728.987 106.146C720.467 106.146 716.171 109.539 716.171 115.53C716.171 120.413 719.012 122.7 724.9 123.324L731.446 124.015C733.941 124.292 735.084 125.263 735.084 126.509C735.084 127.929 733.421 129.211 729.403 129.211C724.761 129.211 722.891 128.033 722.579 125.677H715.79C716.103 132.051 720.258 135.305 729.16 135.305C737.299 135.305 741.837 131.738 741.837 126.371C741.837 121.695 739.135 118.89 734.044 118.302ZM690.367 134.613H712.672V128.623H697.433V123.601H709.693V117.575H697.433V112.899H712.672V106.908H690.367V134.613ZM673.742 106.908H660.788V134.613H673.742C683.683 134.613 686.419 130.908 686.419 120.552C686.419 110.821 683.787 106.908 673.742 106.908ZM673.457 128.624H667.84V112.899H673.457C677.892 112.899 679.207 114.112 679.207 120.552C679.214 126.439 677.725 128.624 673.457 128.624ZM641.6 106.146C631.52 106.146 626.29 112.344 626.29 120.691C626.29 129.072 631.52 135.305 641.6 135.305C651.713 135.305 656.943 129.072 656.943 120.691C656.943 112.344 651.713 106.146 641.6 106.146ZM641.6 129.072C636.37 129.072 633.495 125.886 633.495 120.691C633.495 115.6 636.37 112.379 641.6 112.379C646.866 112.379 649.705 115.6 649.705 120.691C649.705 125.886 646.865 129.072 641.6 129.072ZM600.243 112.899H609.179V134.613H616.245V112.899H625.147V106.908H600.243V112.899ZM589.957 124.015C589.957 127.617 587.74 129.072 583.964 129.072C580.293 129.072 577.904 127.548 577.904 124.015V106.908H570.838V124.812C570.838 132.812 577.972 135.305 583.964 135.305C589.922 135.305 597.022 132.812 597.022 124.812V106.908H589.957V124.015ZM550.16 106.908L539.526 134.613H546.835L548.69 129.418H560.561L562.387 134.613H569.936L559.172 106.908H550.16ZM550.793 123.531L554.675 112.671L558.491 123.534L550.793 123.531Z" fill="white"/>
</svg>
