<svg width="305" height="137" viewBox="0 0 305 137" fill="none" xmlns="http://www.w3.org/2000/svg">
<g id="PeerSpot_Logo_Horizontal_Dark-BG">
<g id="PeerSpot">
<path d="M97.1525 87.9611V63.1447L93.7967 62.6061V59.6646H100.135C100.881 59.6646 101.793 59.6232 102.87 59.5403C104.637 59.4298 106.088 59.3746 107.22 59.3746C110.893 59.3746 113.711 60.0789 115.672 61.4875C117.633 62.8961 118.613 65.2852 118.613 68.6549C118.613 70.754 118.088 72.5769 117.039 74.1236C115.989 75.6703 114.567 76.8579 112.772 77.6865C111.004 78.5151 109.057 78.9294 106.93 78.9294C104.969 78.9294 103.629 78.9571 102.911 79.0123V87.9611L108.049 88.7069V91.0684H93.5067V88.7069L97.1525 87.9611ZM102.911 75.8636C103.85 76.0293 105.066 76.1122 106.557 76.1122C108.49 76.1122 110.01 75.5046 111.114 74.2893C112.247 73.074 112.813 71.1406 112.813 68.4891C112.813 66.4729 112.219 64.9262 111.031 63.849C109.844 62.7718 108.242 62.2332 106.226 62.2332C104.955 62.2332 103.85 62.3575 102.911 62.6061V75.8636ZM130.726 67.7848C133.35 67.7848 135.394 68.5168 136.857 69.9806C138.321 71.4445 139.122 73.5298 139.26 76.2365C139.288 77.1756 139.247 78.0456 139.136 78.8466C139.053 79.6476 138.998 80.1447 138.97 80.338H124.594C124.705 82.7962 125.354 84.702 126.541 86.0554C127.757 87.3811 129.469 88.044 131.679 88.044C132.673 88.044 133.723 87.9473 134.827 87.754C135.96 87.533 136.926 87.2292 137.727 86.8425L138.68 88.9969C137.741 89.7978 136.429 90.4331 134.745 90.9026C133.06 91.3722 131.403 91.6069 129.773 91.6069C126.238 91.6069 123.503 90.585 121.57 88.5411C119.664 86.4973 118.711 83.68 118.711 80.0895C118.711 77.7142 119.222 75.6012 120.244 73.7507C121.266 71.8726 122.688 70.4087 124.511 69.3592C126.334 68.3096 128.406 67.7848 130.726 67.7848ZM129.607 70.3949C128.199 70.3949 127.052 71.0025 126.169 72.2178C125.285 73.4055 124.76 75.1179 124.594 77.3551H133.419C133.474 76.6922 133.502 76.1813 133.502 75.8222C133.502 74.2479 133.198 73.0878 132.59 72.3421C132.148 71.044 131.154 70.3949 129.607 70.3949ZM153.637 67.7848C156.261 67.7848 158.305 68.5168 159.768 69.9806C161.232 71.4445 162.033 73.5298 162.171 76.2365C162.199 77.1756 162.158 78.0456 162.047 78.8466C161.964 79.6476 161.909 80.1447 161.881 80.338H147.505C147.616 82.7962 148.265 84.702 149.452 86.0554C150.668 87.3811 152.38 88.044 154.59 88.044C155.584 88.044 156.634 87.9473 157.738 87.754C158.871 87.533 159.837 87.2292 160.638 86.8425L161.591 88.9969C160.652 89.7978 159.34 90.4331 157.656 90.9026C155.971 91.3722 154.314 91.6069 152.684 91.6069C149.149 91.6069 146.414 90.585 144.481 88.5411C142.575 86.4973 141.622 83.68 141.622 80.0895C141.622 77.7142 142.133 75.6012 143.155 73.7507C144.177 71.8726 145.599 70.4087 147.422 69.3592C149.245 68.3096 151.317 67.7848 153.637 67.7848ZM152.518 70.3949C151.11 70.3949 149.963 71.0025 149.08 72.2178C148.196 73.4055 147.671 75.1179 147.505 77.3551H156.33C156.385 76.6922 156.413 76.1813 156.413 75.8222C156.413 74.2479 156.109 73.0878 155.501 72.3421C155.059 71.044 154.065 70.3949 152.518 70.3949ZM166.936 88.2511V73.7093L164.119 71.8449V69.8563L170.706 67.8677L171.949 68.282V71.8864C172.336 70.8921 173.178 69.9806 174.476 69.152C175.802 68.3234 177.031 67.9091 178.164 67.9091C179.241 67.9091 179.931 67.9644 180.235 68.0748V73.6264C179.821 73.3778 179.282 73.1707 178.619 73.005C177.956 72.8393 177.294 72.7564 176.631 72.7564C175.056 72.7564 173.758 73.0878 172.736 73.7507V88.1268L177.874 88.7483V91.0684H164.119V88.7483L166.936 88.2511ZM193.945 91.6069C192.177 91.6069 190.299 91.4274 188.31 91.0684C186.322 90.7093 184.899 90.295 184.043 89.8255V82.3267H186.529L188.186 86.7597C188.849 87.5883 189.691 88.1545 190.713 88.4583C191.735 88.7621 192.923 88.914 194.276 88.914C195.768 88.914 197.011 88.4997 198.005 87.6711C199.027 86.8425 199.538 85.6687 199.538 84.1496C199.538 82.9619 199.013 81.8848 197.963 80.9181C196.942 79.9514 195.491 78.9294 193.613 77.8523C191.431 76.6646 189.705 75.6289 188.435 74.745C187.164 73.8612 186.115 72.8393 185.286 71.6792C184.485 70.4916 184.084 69.1244 184.084 67.5777C184.084 65.8376 184.582 64.36 185.576 63.1447C186.598 61.9018 187.896 60.9627 189.47 60.3275C191.045 59.6922 192.674 59.3746 194.359 59.3746C195.961 59.3746 197.66 59.5265 199.455 59.8303C201.25 60.1341 202.507 60.4794 203.225 60.8661V67.0805H200.574L198.792 63.0204C198.405 62.7166 197.798 62.468 196.969 62.2747C196.141 62.0537 195.34 61.9432 194.566 61.9432C193.268 61.9432 192.108 62.2747 191.086 62.9375C190.064 63.6004 189.553 64.6224 189.553 66.0033C189.553 67.4396 190.147 68.6963 191.335 69.7735C192.55 70.823 194.414 72.0245 196.928 73.3778C199.579 74.7865 201.623 76.1951 203.059 77.6037C204.496 79.0123 205.214 80.7247 205.214 82.741C205.214 84.6744 204.703 86.3177 203.681 87.6711C202.686 88.9969 201.333 89.9912 199.621 90.6541C197.908 91.2893 196.016 91.6069 193.945 91.6069ZM220.256 67.7848C223.073 67.7848 225.282 68.7377 226.884 70.6435C228.514 72.5492 229.329 75.3389 229.329 79.0123C229.329 81.3047 228.79 83.4039 227.713 85.3096C226.663 87.2154 225.2 88.7345 223.321 89.8669C221.471 90.9717 219.413 91.5241 217.148 91.5241C216.624 91.5241 216.016 91.4688 215.325 91.3584C214.635 91.2755 214.221 91.2203 214.083 91.1926L214.29 95.4599V98.5257L218.267 99.0643V101.426H205.879V99.0643L208.531 98.5257V73.7093L205.755 71.8449V69.8563L212.342 67.8677L213.503 68.282V70.7678C214.027 69.9944 214.939 69.3039 216.237 68.6963C217.563 68.0886 218.902 67.7848 220.256 67.7848ZM217.853 71.0578C217.135 71.0578 216.444 71.2373 215.781 71.5964C215.146 71.9278 214.635 72.3007 214.248 72.715V87.0082C214.497 87.533 214.98 87.9335 215.698 88.2097C216.416 88.4583 217.231 88.5826 218.143 88.5826C219.192 88.5826 220.117 88.2235 220.918 87.5054C221.747 86.7597 222.396 85.7239 222.866 84.3982C223.335 83.0448 223.57 81.4567 223.57 79.6337C223.57 76.927 223.045 74.8279 221.996 73.3364C220.946 71.8173 219.565 71.0578 217.853 71.0578ZM243.18 67.7434C246.715 67.7158 249.422 68.7377 251.3 70.8092C253.178 72.8807 254.103 75.7117 254.076 79.3023C254.076 81.7328 253.578 83.8872 252.584 85.7653C251.59 87.6159 250.236 89.0521 248.524 90.074C246.812 91.0684 244.864 91.5655 242.682 91.5655C239.064 91.5655 236.302 90.4883 234.396 88.334C232.518 86.152 231.579 83.2796 231.579 79.7166C231.579 77.2861 232.076 75.1869 233.071 73.4193C234.093 71.624 235.474 70.243 237.214 69.2763C238.981 68.3096 240.97 67.7986 243.18 67.7434ZM242.89 70.4363C241.039 70.4363 239.713 71.1959 238.912 72.715C238.139 74.2341 237.752 76.3608 237.752 79.0952C237.752 81.719 238.194 83.9977 239.078 85.9311C239.962 87.8645 241.246 88.8312 242.931 88.8312C244.809 88.8312 246.121 88.0302 246.867 86.4282C247.613 84.7987 247.985 82.52 247.985 79.5923C247.985 76.8856 247.571 74.6898 246.742 73.005C245.914 71.2925 244.63 70.4363 242.89 70.4363ZM263.188 68.4477H269.9V71.6378H263.354V80.1723C263.354 82.2714 263.395 83.832 263.478 84.8539C263.561 85.8758 263.768 86.6492 264.1 87.174C264.431 87.6711 264.97 87.9197 265.715 87.9197C266.268 87.9197 266.931 87.8368 267.704 87.6711C268.505 87.5054 269.071 87.3259 269.403 87.1325L270.314 89.2454C269.624 89.9636 268.56 90.5298 267.124 90.9441C265.688 91.3584 264.321 91.5655 263.022 91.5655C261.144 91.5655 259.791 91.0407 258.962 89.9912C258.134 88.914 257.719 87.2154 257.719 84.8953V71.6378H254.695V69.6906C255.91 69.4144 256.753 69.1658 257.222 68.9449C257.719 68.7239 258.134 68.351 258.465 67.8263C258.935 67.1081 259.584 65.5062 260.412 63.0204H263.188V68.4477Z" fill="white"/>
</g>
<g id="P filled">
<path id="Subtract" fill-rule="evenodd" clip-rule="evenodd" d="M77.2014 33.6855H34.0977V58.8095V76.7905V101.897L55.6495 80.3531L59.2135 76.7905H77.2014V58.8095V33.6855ZM59.2384 42.6708H68.2183V67.8052H59.2384V42.6708Z" fill="white"/>
</g>
</g>
</svg>
