<svg width="849" height="150" viewBox="0 0 849 150" fill="none" xmlns="http://www.w3.org/2000/svg">
<path d="M187.254 95.2793L180.322 97.25C180.926 99.0359 181.408 102.241 181.408 106.552V127.742H189.189V105.323C190.637 103.537 192.204 102.673 193.894 102.673C194.735 102.673 195.403 102.855 196.127 103.29L198.237 95.9588C197.032 95.4043 196.489 95.2819 195.342 95.2819C194.501 95.2819 193.471 95.4641 192.808 95.7765C191.361 96.5159 189.551 98.1794 188.406 99.7804C188.406 97.9945 187.983 96.5783 187.26 95.2845L187.254 95.2793ZM160.449 84.8088H159.608V127.685H167.688V108.707H177.883V101.626H167.688V91.7701H180.414L180.898 88.0109C174.009 87.5063 167.172 86.4346 160.452 84.8062L160.449 84.8088ZM141.57 133.412L145.309 137.848C148.929 136.37 153.453 133.043 154.658 127.748C155.081 126.022 155.201 124.91 155.201 119.308V84.8687H147.058V120.229C147.058 124.85 146.879 126.574 146.273 128.177C145.488 129.963 143.622 132.056 141.568 133.41L141.57 133.412ZM214.975 111.667C214.975 119.183 213.527 122.387 210.209 122.387C208.7 122.387 207.012 121.528 206.289 119.8C205.685 118.199 205.32 115.489 205.32 111.792C205.32 108.65 205.621 106.429 206.105 104.711C206.709 102.74 208.216 101.509 210.086 101.509C211.473 101.509 212.681 102.126 213.405 103.175C214.491 104.654 214.972 107.426 214.972 111.677L214.975 111.667ZM219.741 123.988C222.275 120.909 223.421 117.15 223.421 111.727C223.421 106.614 222.397 103.102 220.044 100.142C217.511 96.9402 214.254 95.3991 210.033 95.3991C202.07 95.3991 196.764 101.991 196.764 111.972C196.764 121.953 202.014 128.359 210.033 128.359C214.557 128.422 217.511 126.693 219.718 123.986L219.741 123.988ZM241.813 106.247C241.813 109.142 240.124 110.743 237.108 110.743C234.394 110.743 232.584 109.449 232.584 106.247C232.584 103.29 234.274 101.566 237.167 101.566C240.06 101.566 241.813 103.292 241.813 106.247ZM255.505 99.4706L252.332 94.2588C250.548 95.9848 248.351 96.9662 246.215 96.9662C245.247 96.9662 244.706 96.8439 242.596 96.2894C240.876 95.752 239.087 95.4817 237.289 95.4876C229.75 95.4876 224.864 99.6789 224.864 106.208C224.864 110.889 226.916 113.846 231.198 115.017C229.449 115.45 227.579 116.371 226.737 117.42C226.133 118.16 225.833 119.146 225.833 120.315C225.832 121.214 226.039 122.101 226.437 122.903C226.86 123.58 227.405 124.134 228.126 124.444C229.513 124.999 231.746 125.368 235.187 125.433L238.444 125.496C240.554 125.618 241.64 125.99 242.484 126.42C243.269 126.915 243.87 128.021 243.87 129.258C243.87 130.494 243.146 131.723 241.999 132.46C240.975 133.199 239.285 133.506 237.113 133.506C233.555 133.506 231.565 132.152 231.565 129.627C231.565 128.518 231.685 128.273 231.927 127.597H224.831C224.53 128.214 224.168 129.075 224.168 130.799C224.168 132.954 224.953 134.803 226.582 136.404C229.233 139.054 233.578 139.793 237.74 139.793C242.323 139.793 246.789 138.684 249.381 135.727C251.012 133.904 251.733 131.848 251.733 129.198C251.733 126.36 250.948 124.207 249.2 122.421C247.148 120.391 244.798 119.649 240.274 119.584L236.112 119.521C235.327 119.521 234.845 119.214 234.845 118.782C234.845 117.923 235.931 117.181 237.921 116.194L239.068 116.257C245.338 116.257 249.926 112.315 249.926 106.833C249.926 104.737 249.322 103.136 248.178 101.657C249.146 101.78 249.444 101.84 250.166 101.84C252.217 101.84 253.846 101.163 255.533 99.4966L255.505 99.4706ZM158.397 47.5348C148.748 49.9377 142.172 54.6809 142.172 60.1009C142.172 63.4904 144.705 66.5701 148.867 68.973C147.601 66.9424 146.938 64.7218 146.938 62.5038C146.999 56.8989 151.281 51.6611 158.397 47.5348ZM260.208 68.7881C260.208 65.2138 258.036 61.9493 254.417 59.2393C254.718 60.3483 254.96 61.4573 254.96 62.5663C254.96 72.7321 241.028 81.4792 221.245 85.1108C223.548 85.3616 225.863 85.485 228.18 85.4805C245.853 85.418 260.208 77.9674 260.208 68.7881ZM248.81 63.2431C248.81 59.484 245.675 56.032 240.305 53.2022C241.571 54.7434 242.234 56.4043 242.234 58.1303C242.234 67.1897 223.416 74.518 200.136 74.518C176.917 74.518 158.038 67.1871 158.038 58.1303C158.038 56.9579 158.351 55.8078 158.943 54.8032C155.204 57.3284 153.093 60.2233 153.093 63.3056C153.093 73.1018 174.503 81.0471 200.923 81.0471C227.344 81.0471 248.815 72.9769 248.815 63.2405L248.81 63.2431ZM227.94 62.7485C218.168 69.1526 188.134 71.6205 175.227 63.3655C165.093 56.8963 168.592 46.6081 139.582 24.0609C135.785 21.1036 140.306 17.9614 143.14 19.9946C145.975 22.0277 143.383 22.5198 149.112 28.372C160.691 40.1987 160.571 29.5435 162.381 33.6046C166.24 42.0445 174.684 50.5469 174.684 50.5469C183.189 56.2142 189.943 57.4456 202.491 48.761C210.453 43.2785 207.196 57.5081 226.679 47.2198C233.795 43.4607 233.494 45.9885 240.733 35.7003C243.748 31.4491 249.475 38.9648 242.965 40.0113C240.371 40.4435 235.969 43.3383 234.096 47.8993C231.381 54.7382 232.528 59.7886 227.943 62.7459L227.94 62.7485ZM173.779 45.3767C171.365 44.2677 168.834 40.079 167.866 38.4155C170.58 35.7081 169.497 31.2044 167.927 28.7442C166.418 26.2789 164.55 26.9584 162.559 24.6779C160.508 22.3974 163.344 16.4853 165.937 21.0437C175.622 38.1083 182.04 31.0247 189.941 29.973C197.541 28.9837 204.296 33.2375 206.347 21.2259C206.709 19.2552 208.58 18.8231 208.761 22.0277C208.939 25.2923 210.147 33.1777 214.31 34.1643C218.472 35.2108 221.849 33.1751 222.815 32.0687C223.781 30.9623 224.324 31.0794 224.744 33.891C225.167 36.6635 226.253 40.545 232.103 36.2339C244.107 27.4869 240.666 24.0974 245.371 21.8195C248.022 20.5256 252.248 24.7143 246.156 27.8591C237.47 32.355 236.565 37.9 231.078 41.4119C221.851 47.3266 224.686 41.6592 209.847 39.5011C204.117 38.6992 202.307 45.1684 197.842 43.3201C187.647 39.009 180.472 39.8707 173.777 45.3507L173.779 45.3767ZM205.927 13.7727C206.289 16.3604 206.712 16.2979 207.617 16.4801C208.521 16.7274 209.668 15.2488 209.668 13.8924C209.729 12.4762 209.064 11.612 207.739 11.6744C206.352 11.7369 205.868 12.4138 205.955 13.7701L205.927 13.7727ZM250.556 18.3935C251.641 19.4401 254.537 18.7632 255.2 17.9614C256.948 15.9907 256.984 14.8192 256.104 13.4655C255.199 12.1717 253.326 12.3565 251.46 13.7727C249.595 15.1889 249.952 17.839 250.556 18.3935ZM249.771 31.4543C248.866 32.6856 248.802 33.6098 249.47 34.2919C250.194 35.0312 251.641 35.6456 252.666 34.8464C253.691 33.9873 253.691 32.7507 252.844 31.7042C251.94 30.5952 250.734 30.5952 249.768 31.4569L249.771 31.4543ZM158.242 16.0558C159.628 16.4879 160.294 17.8416 161.438 16.3031C162.042 15.5638 162.101 14.5172 161.318 13.4082C160.834 12.7314 158.54 12.2367 157.579 13.226C156.618 14.2152 157.518 15.8137 158.242 16.0636V16.0558ZM129.956 15.1967C132.489 16.7977 134.118 19.2006 136.073 17.019C136.735 16.2797 137.52 14.9884 136.134 12.3981C135.109 10.4873 131.791 9.74799 130.646 10.4873C129.441 11.1642 127.996 13.9367 129.984 15.1681L129.956 15.1967ZM153.297 27.4582C154.082 28.3173 155.469 28.26 156.312 27.7654C157.097 27.2708 156.975 25.9795 156.193 24.8705C155.708 24.1937 154.263 23.824 153.297 24.8705C152.331 25.9171 152.754 26.8412 153.297 27.4582Z" fill="white"/>
<path d="M552.554 96.4977C544.91 96.4977 541.895 92.1128 543.179 84.8056L546.568 65.5147H539.651L540.973 57.9869H547.884L549.978 46.0742H559.083L556.99 57.9869H566.527L565.204 65.5147H555.668L552.419 84.0021C551.907 86.9245 552.999 88.1677 555.91 88.1677C557.903 88.1731 559.894 88.0507 561.872 87.8015L560.524 95.475C557.918 96.14 555.242 96.4835 552.554 96.4977Z" fill="white"/>
<path d="M565.515 95.7773L572.153 57.9863H581.348L574.71 95.7773H565.515Z" fill="white"/>
<path d="M688.23 96.4977C680.585 96.4977 677.57 92.1128 678.854 84.8056L682.243 65.5147H675.333L676.655 57.9869H683.566L685.659 46.0742H694.765L692.671 57.9869H702.208L700.885 65.5147H691.349L688.101 84.0021C687.588 86.9245 688.68 88.1677 691.592 88.1677C693.585 88.173 695.576 88.0507 697.554 87.8015L696.205 95.475C693.598 96.1405 690.92 96.484 688.23 96.4977Z" fill="white"/>
<path d="M701.189 95.7773L707.828 57.9863H717.023L710.384 95.7773H701.189Z" fill="white"/>
<path d="M608.22 93.7997C605.568 95.6879 602.33 96.8501 598.498 96.8501C594.013 96.8501 590.671 95.252 589.308 93.147L586.283 110.358H577.237L586.41 58.1453H594.857L594.074 62.2856C596.93 58.7993 601.397 57.2734 605.518 57.2734C609.28 57.2734 612.089 58.5813 614.073 60.4696C617.911 64.1688 619.153 69.8375 617.908 76.9509C616.607 84.3595 613.356 90.0966 608.22 93.7997ZM607.933 67.8199C606.923 66.1496 605.199 64.8405 602.378 64.8405C595.283 64.8405 592.648 71.599 591.689 77.0497C590.731 82.5004 591.006 89.1854 598.101 89.1854C600.925 89.1854 603.109 87.8775 604.706 86.206C607.022 83.736 608.129 80.3194 608.703 77.0497C609.278 73.7801 609.381 70.2912 607.933 67.8199Z" fill="white"/>
<path d="M647.809 96.468C643.895 96.468 642.162 93.9968 642.37 91.1618C640.097 94.2147 635.292 96.8304 629.935 96.8304C620.957 96.8304 617.32 91.1618 618.405 84.985C619.667 77.7905 625.971 73.6489 633.228 73.1395L644.446 72.3411L644.853 70.0156C645.485 66.4545 644.67 64.0593 639.529 64.0593C635.33 64.0593 632.537 65.9488 631.702 69.4377H622.947C624.947 60.9353 632.344 57.1562 640.743 57.1562C647.182 57.1562 652.33 59.1915 653.507 64.8589C654.026 67.2579 653.699 69.9459 653.254 72.4894L650.789 86.5121C650.482 88.2559 650.946 88.9098 652.466 88.9098C652.865 88.9017 653.262 88.8529 653.651 88.7641L652.48 95.4504C650.839 96.1043 649.981 96.468 647.809 96.468ZM643.264 79.0907L633.58 79.8169C630.79 80.0349 627.818 81.7064 627.283 84.7594C626.778 87.6666 628.987 89.4839 631.81 89.4839C637.456 89.4839 641.975 86.431 642.958 80.8358L643.264 79.0907Z" fill="white"/>
<path d="M666.702 96.2832C660.548 96.2832 656.945 93.3038 658.208 86.1093L665.227 46.0625H674.349L667.599 84.5784C667.22 86.7582 667.473 88.2118 670.58 88.2118C671.377 88.2118 671.606 88.1382 672.113 88.1382L670.773 95.7687C668.9 96.1375 668.513 96.2832 666.702 96.2832Z" fill="white"/>
<path d="M719.996 39.9232C720.039 41.2002 719.745 42.4659 719.143 43.5918C718.542 44.7178 717.654 45.664 716.571 46.3345C715.487 47.0049 714.246 47.3758 712.974 47.4094C711.701 47.443 710.442 47.1382 709.325 46.5259C709.199 46.4511 709.073 46.3764 708.947 46.3041C708.939 46.294 708.935 46.2902 708.928 46.2902C689.939 35.0834 667.666 28.9712 644.023 29.7595C619.793 30.568 597.473 38.5102 579.003 51.5178C578.907 51.5812 578.807 51.6445 578.713 51.7168C578.544 51.8038 578.357 51.8522 578.167 51.8587C577.996 51.8646 577.825 51.8365 577.664 51.776C577.503 51.7155 577.356 51.6238 577.23 51.5061C577.105 51.3884 577.004 51.2471 576.933 51.0901C576.862 50.9332 576.822 50.7637 576.816 50.5914C576.807 50.3577 576.862 50.1259 576.974 49.921C577.19 49.7208 577.406 49.5294 577.624 49.333C597.916 31.1231 624.447 19.6857 653.78 18.7086C676.191 17.9609 697.374 23.4141 715.695 33.536C715.702 33.536 715.706 33.536 715.714 33.5462L716.226 33.8275C716.995 34.2437 717.684 34.7939 718.26 35.4522C719.33 36.6999 719.943 38.2777 719.996 39.9232Z" fill="white"/>
</svg>
