<svg width="125" height="66" viewBox="0 0 125 66" fill="none" xmlns="http://www.w3.org/2000/svg">
<g id="logo-fully-white 1" clip-path="url(#clip0_2669_170107)">
<g id="Clip path group">
<mask id="mask0_2669_170107" style="mask-type:luminance" maskUnits="userSpaceOnUse" x="0" y="9" width="125" height="57">
<g id="clip0">
<path id="Vector" d="M124.377 9.21484H0.838623V65.4523H124.377V9.21484Z" fill="white"/>
</g>
</mask>
<g mask="url(#mask0_2669_170107)">
<g id="Group">
<path id="Vector_2" d="M40.5281 53.0931C40.5281 52.299 41.2798 51.9019 42.1319 51.9019C43.034 51.9019 43.8359 52.2989 44.2367 53.1428L46.2414 52.0508C45.4896 50.6113 43.9862 49.7676 42.1319 49.7676C39.8766 49.7676 38.0724 51.058 38.0724 53.1428C38.0724 57.064 44.0363 55.9719 44.0363 57.9574C44.0363 58.8509 43.2344 59.1983 42.1319 59.1983C40.929 59.1983 40.0269 58.6028 39.6761 57.61L37.6213 58.8012C38.3229 60.3896 39.9267 61.3823 42.1319 61.3823C44.5374 61.3823 46.4418 60.1911 46.4418 58.0071C46.4921 53.8873 40.5281 55.0786 40.5281 53.0931Z" fill="white"/>
<path id="Vector_3" d="M60.1253 55.5749C60.1253 52.3983 57.8701 49.7676 54.5624 49.7676C51.1043 49.7676 48.6987 52.2989 48.6987 55.5253C48.6987 58.8012 51.0542 61.2831 54.7127 61.2831C56.8678 61.2831 58.5718 60.3896 59.5741 58.9005L57.6196 57.7589C57.0682 58.5531 56.116 59.099 54.7628 59.099C53.0087 59.099 51.6054 58.2057 51.2045 56.518H60.0251C60.0752 56.2699 60.1253 55.9224 60.1253 55.5749ZM51.2045 54.6318C51.5553 52.9938 52.7582 51.9515 54.5624 51.9515C56.0158 51.9515 57.419 52.7457 57.7198 54.6318H51.2045Z" fill="white"/>
<path id="Vector_4" d="M71.3536 57.3114C70.8023 58.3042 69.7498 58.999 68.3966 58.999C66.4421 58.999 64.9385 57.51 64.9385 55.5742C64.9385 53.6384 66.4421 52.1493 68.3966 52.1493C69.6997 52.1493 70.8023 52.7945 71.3035 53.8368L73.3582 52.6456C72.4561 50.9084 70.6018 49.8164 68.3966 49.8164C65.0389 49.8164 62.533 52.2981 62.533 55.5742C62.533 58.8501 65.0389 61.3319 68.3966 61.3319C70.5517 61.3319 72.4561 60.24 73.3582 58.453L71.3536 57.3114Z" fill="white"/>
<path id="Vector_5" d="M83.6801 50.0625V55.9692C83.6801 58.2028 82.4273 59.146 80.8736 59.146C79.3701 59.146 78.4179 58.2525 78.4179 56.6144V50.0625H76.0122V56.8131C76.0122 59.692 77.7663 61.3299 80.2722 61.3299C81.7757 61.3299 82.9785 60.784 83.7302 59.6423V61.0321H86.1359V50.0625H83.6801Z" fill="white"/>
<path id="Vector_6" d="M92.2515 51.9023V50.0658H89.8459V61.0353H92.2515V55.5256C92.2515 53.0936 94.1058 52.349 95.6594 52.4482V49.8672C94.3062 49.8672 92.9531 50.4132 92.2515 51.9023Z" fill="white"/>
<path id="Vector_7" d="M98.468 50.0625V61.0321H100.874V50.0625H98.468Z" fill="white"/>
<path id="Vector_8" d="M110.843 52.3489V50.0657H108.087V46.9883L105.681 47.6832V50.0657H103.626V52.3489H105.681V57.6103C105.681 60.4893 107.134 61.4819 110.843 61.0352V58.9009C109.039 59.0002 108.087 59.0002 108.087 57.6103V52.3489H110.843Z" fill="white"/>
<path id="Vector_9" d="M121.662 50.0625L118.805 58.054L115.498 50.0625H112.892L117.603 60.8335L117.502 61.0321C116.951 62.4715 116.099 63.2657 114.546 63.1664V65.4001C117.101 65.5489 118.906 64.1592 119.958 61.3795L124.218 50.0625H121.662Z" fill="white"/>
<path id="Vector_10" d="M17.1214 9.21484C15.217 9.21484 13.3627 9.51266 11.6587 10.1083C14.3149 12.193 16.4699 14.923 17.7229 18.1493C21.4315 18.4471 24.1879 21.2267 24.1879 25.2968C24.1879 29.3671 21.4816 32.1466 17.8231 32.4445C16.5701 35.6707 14.4652 38.4504 11.8091 40.4855C13.4629 41.0314 15.2671 41.3293 17.1214 41.3293C26.1424 41.3293 33.4095 34.3306 33.4095 25.2472C33.4095 16.2135 26.1424 9.21484 17.1214 9.21484Z" fill="white"/>
<path id="Vector_11" d="M4.09352 15.5684C3.54224 16.2633 3.04107 17.0574 2.64014 17.8516C4.89539 19.5889 6.34879 22.2692 6.34879 25.3467C6.34879 28.4241 4.94551 31.1044 2.69025 32.792C3.1413 33.5861 3.64247 34.3803 4.19377 35.0752C7.40124 33.0402 9.50615 29.4664 9.50615 25.3467C9.45604 21.1772 7.35112 17.6034 4.09352 15.5684Z" fill="white"/>
<path id="Vector_12" d="M13.6152 31.6016C12.4124 34.4804 10.4078 36.8629 7.85181 38.5506C8.70378 39.0965 9.6059 39.5929 10.5581 39.99C13.2143 38.1038 15.3192 35.4732 16.6222 32.3957C15.5197 32.3957 14.5173 32.098 13.6152 31.6016Z" fill="white"/>
<path id="Vector_13" d="M10.4121 10.6055C9.45983 11.0026 8.55773 11.4989 7.75586 12.0946C10.3118 13.7822 12.3165 16.1647 13.5694 18.9939C14.4715 18.4976 15.4739 18.1998 16.5764 18.1501C15.2232 15.0727 13.1184 12.4916 10.4121 10.6055Z" fill="white"/>
<path id="Vector_14" d="M6.80033 12.7871C6.09869 13.3827 5.39707 13.9784 4.79565 14.6733C7.70244 16.5098 9.70712 19.488 10.3586 23.0121C10.7596 21.6223 11.5614 20.431 12.6139 19.6369C11.4111 16.758 9.40641 14.3755 6.80033 12.7871Z" fill="white"/>
<path id="Vector_15" d="M10.4154 27.6309C9.81404 31.155 7.75924 34.1331 4.90259 35.9696C5.50398 36.6645 6.20563 37.3099 6.95737 37.8558C9.56345 36.2179 11.5681 33.8354 12.7208 31.0061C11.6182 30.1622 10.8164 29.0206 10.4154 27.6309Z" fill="white"/>
<path id="Vector_16" d="M2.14166 18.8945C1.28967 20.8303 0.838623 23.0144 0.838623 25.2976C0.838623 27.6305 1.33979 29.8144 2.19178 31.7999C4.0461 30.3108 5.19879 27.9779 5.19879 25.3472C5.19879 22.7165 4.0461 20.3836 2.14166 18.8945Z" fill="white"/>
<path id="Vector_17" d="M56.1181 9.46094V19.7852C52.3092 19.1896 46.8966 20.6787 46.8966 26.7343V40.4834H37.675V10.0566H42.8873C44.7416 10.0566 46.245 11.2975 46.7463 12.9354C49.1018 10.7018 52.4094 9.56021 55.667 9.46094C55.667 9.46094 55.667 9.46094 55.7171 9.46094C55.8174 9.46094 55.9677 9.46094 56.1181 9.46094Z" fill="white"/>
<path id="Vector_18" d="M81.0746 29.12C79.8718 31.2543 77.6165 32.5449 74.9603 32.5449C70.9509 32.5449 67.8939 29.6659 67.8939 25.3477C67.8939 21.0293 70.9509 18.1505 74.9603 18.1505C77.6165 18.1505 79.8217 19.3913 81.0746 21.4761L88.9429 16.9592C86.0863 12.2934 80.9243 9.26562 74.9603 9.26562C65.9393 9.26562 58.6724 16.2643 58.6724 25.3477C58.6724 34.431 65.9393 41.4297 74.9603 41.4297C80.9744 41.4297 86.1865 38.3523 88.9931 33.6369L81.0746 29.12Z" fill="white"/>
<path id="Vector_19" d="M119.17 10.0587C117.365 10.0587 115.812 11.2499 115.311 12.9375C113.206 10.6047 110.148 9.21484 105.989 9.21484C97.9199 9.21484 91.3044 16.2135 91.3044 25.2968C91.3044 34.3803 97.9199 41.3788 105.989 41.3788C110.148 41.3788 113.206 39.9891 115.311 37.6562C115.812 39.2942 117.315 40.5351 119.17 40.5351H124.382V25.2968V10.0587H119.17ZM107.643 32.4941C103.633 32.4941 100.576 29.6152 100.576 25.2968C100.576 20.9786 103.633 18.0997 107.643 18.0997C111.652 18.0997 114.709 20.9786 114.709 25.2968C114.709 29.6152 111.602 32.4941 107.643 32.4941Z" fill="white"/>
</g>
</g>
</g>
</g>
<defs>
<clipPath id="clip0_2669_170107">
<rect width="123.538" height="65.2375" fill="white" transform="translate(0.838623 0.214844)"/>
</clipPath>
</defs>
</svg>
