<svg width="849" height="150" viewBox="0 0 849 150" fill="none" xmlns="http://www.w3.org/2000/svg">
<g clip-path="url(#clip0_3205_172730)">
<mask id="mask0_3205_172730" style="mask-type:luminance" maskUnits="userSpaceOnUse" x="73" y="48" width="186" height="86">
<path d="M258.307 48.8223H73V133.178H258.307V48.8223Z" fill="white"/>
</mask>
<g mask="url(#mask0_3205_172730)">
<path d="M132.534 114.641C132.534 113.449 133.662 112.854 134.94 112.854C136.293 112.854 137.496 113.449 138.097 114.715L141.104 113.077C139.976 110.918 137.721 109.652 134.94 109.652C131.557 109.652 128.85 111.588 128.85 114.715C128.85 120.597 137.796 118.959 137.796 121.937C137.796 123.277 136.593 123.798 134.94 123.798C133.135 123.798 131.782 122.905 131.256 121.416L128.174 123.203C129.226 125.585 131.632 127.074 134.94 127.074C138.548 127.074 141.405 125.288 141.405 122.012C141.48 115.832 132.534 117.619 132.534 114.641Z" fill="white"/>
<path d="M161.93 118.363C161.93 113.598 158.547 109.652 153.586 109.652C148.398 109.652 144.79 113.449 144.79 118.289C144.79 123.203 148.323 126.926 153.811 126.926C157.044 126.926 159.6 125.585 161.103 123.352L158.171 121.639C157.344 122.831 155.916 123.65 153.886 123.65C151.255 123.65 149.15 122.309 148.549 119.778H161.78C161.855 119.406 161.93 118.885 161.93 118.363ZM148.549 116.949C149.075 114.492 150.879 112.928 153.586 112.928C155.766 112.928 157.87 114.12 158.322 116.949H148.549Z" fill="white"/>
<path d="M178.772 120.967C177.946 122.456 176.367 123.499 174.337 123.499C171.405 123.499 169.15 121.265 169.15 118.361C169.15 115.458 171.405 113.224 174.337 113.224C176.292 113.224 177.946 114.192 178.697 115.755L181.779 113.968C180.426 111.363 177.645 109.725 174.337 109.725C169.3 109.725 165.542 113.447 165.542 118.361C165.542 123.275 169.3 126.998 174.337 126.998C177.57 126.998 180.426 125.36 181.779 122.679L178.772 120.967Z" fill="white"/>
<path d="M197.263 110.098V118.958C197.263 122.308 195.383 123.723 193.053 123.723C190.798 123.723 189.369 122.383 189.369 119.926V110.098H185.761V120.223C185.761 124.542 188.392 126.999 192.151 126.999C194.406 126.999 196.21 126.18 197.338 124.467V126.552H200.946V110.098H197.263Z" fill="white"/>
<path d="M210.119 112.85V110.095H206.511V126.549H210.119V118.285C210.119 114.636 212.901 113.52 215.231 113.668V109.797C213.201 109.797 211.171 110.616 210.119 112.85Z" fill="white"/>
<path d="M219.444 110.098V126.552H223.053V110.098H219.444Z" fill="white"/>
<path d="M238.007 113.523V110.099H233.872V105.482L230.264 106.525V110.099H227.182V113.523H230.264V121.415C230.264 125.734 232.444 127.223 238.007 126.553V123.351C235.301 123.5 233.872 123.5 233.872 121.415V113.523H238.007Z" fill="white"/>
<path d="M254.235 110.098L249.95 122.085L244.988 110.098H241.079L248.146 126.254L247.995 126.552C247.168 128.711 245.89 129.902 243.56 129.753V133.104C247.394 133.327 250.1 131.243 251.679 127.073L258.069 110.098H254.235Z" fill="white"/>
<path d="M97.4235 48.8223C94.5669 48.8223 91.7855 49.269 89.2295 50.1624C93.2138 53.2895 96.4464 57.3845 98.3258 62.224C103.889 62.6707 108.023 66.8401 108.023 72.9453C108.023 79.0506 103.964 83.2199 98.4761 83.6667C96.5967 88.5061 93.4393 92.6756 89.455 95.7282C91.9358 96.5471 94.6421 96.994 97.4235 96.994C110.955 96.994 121.856 86.496 121.856 72.8708C121.856 59.3203 110.955 48.8223 97.4235 48.8223Z" fill="white"/>
<path d="M77.8827 58.3516C77.0558 59.3939 76.304 60.5852 75.7026 61.7764C79.0855 64.3823 81.2656 68.4028 81.2656 73.019C81.2656 77.6352 79.1607 81.6557 75.7778 84.187C76.4544 85.3782 77.2061 86.5695 78.0331 87.6118C82.8443 84.5594 86.0017 79.1986 86.0017 73.019C85.9265 66.7649 82.7691 61.4042 77.8827 58.3516Z" fill="white"/>
<path d="M92.1647 82.4023C90.3605 86.7206 87.3535 90.2944 83.5195 92.8259C84.7975 93.6448 86.1507 94.3894 87.579 94.985C91.5633 92.1558 94.7206 88.2098 96.6751 83.5936C95.0214 83.5936 93.5178 83.1469 92.1647 82.4023Z" fill="white"/>
<path d="M87.3598 50.9082C85.9314 51.5038 84.5783 52.2484 83.3755 53.1418C87.2094 55.6733 90.2164 59.247 92.0958 63.4909C93.449 62.7464 94.9525 62.2996 96.6063 62.2252C94.5766 57.6091 91.4193 53.7374 87.3598 50.9082Z" fill="white"/>
<path d="M81.9426 54.1797C80.8901 55.0731 79.8377 55.9666 78.9355 57.0089C83.2957 59.7637 86.3027 64.231 87.28 69.5172C87.8814 67.4325 89.0842 65.6456 90.6629 64.4543C88.8587 60.136 85.8517 56.5622 81.9426 54.1797Z" fill="white"/>
<path d="M87.365 76.4453C86.4629 81.7316 83.3807 86.1987 79.0957 88.9535C79.9978 89.9958 81.0503 90.9638 82.1779 91.7827C86.087 89.3259 89.094 85.7521 90.823 81.5081C89.1692 80.2424 87.9664 78.5299 87.365 76.4453Z" fill="white"/>
<path d="M74.9546 63.3398C73.6766 66.2435 73 69.5196 73 72.9444C73 76.4438 73.7518 79.7197 75.0297 82.6979C77.8112 80.4643 79.5402 76.9649 79.5402 73.0189C79.5402 69.0728 77.8112 65.5735 74.9546 63.3398Z" fill="white"/>
<path d="M155.919 49.1953V64.6817C150.206 63.7883 142.087 66.0219 142.087 75.1053V95.729H128.255V50.0888H136.073C138.855 50.0888 141.11 51.9501 141.862 54.4071C145.395 51.0567 150.356 49.3442 155.243 49.1953C155.243 49.1953 155.243 49.1953 155.318 49.1953C155.468 49.1953 155.694 49.1953 155.919 49.1953Z" fill="white"/>
<path d="M193.354 78.6761C191.55 81.8775 188.167 83.8134 184.183 83.8134C178.169 83.8134 173.583 79.495 173.583 73.0177C173.583 66.5401 178.169 62.2218 184.183 62.2218C188.167 62.2218 191.475 64.0831 193.354 67.2102L205.157 60.4349C200.872 53.4362 193.129 48.8945 184.183 48.8945C170.651 48.8945 159.751 59.3925 159.751 73.0177C159.751 86.6426 170.651 97.1407 184.183 97.1407C193.204 97.1407 201.022 92.5245 205.232 85.4514L193.354 78.6761Z" fill="white"/>
<path d="M250.496 50.088C247.79 50.088 245.46 51.8749 244.708 54.4063C241.55 50.907 236.965 48.8223 230.725 48.8223C218.622 48.8223 208.699 59.3203 208.699 72.9453C208.699 86.5704 218.622 97.0683 230.725 97.0683C236.965 97.0683 241.55 94.9836 244.708 91.4843C245.46 93.9413 247.715 95.8027 250.496 95.8027H258.315V72.9453V50.088H250.496ZM233.206 83.7412C227.192 83.7412 222.606 79.4228 222.606 72.9453C222.606 66.4678 227.192 62.1495 233.206 62.1495C239.22 62.1495 243.806 66.4678 243.806 72.9453C243.806 79.4228 239.145 83.7412 233.206 83.7412Z" fill="white"/>
</g>
</g>
<g clip-path="url(#clip1_3205_172730)">
<mask id="mask1_3205_172730" style="mask-type:luminance" maskUnits="userSpaceOnUse" x="-480" y="-398" width="2418" height="1046">
<path d="M1937.24 -397.025H-479.596V647.54H1937.24V-397.025Z" fill="white"/>
</mask>
<g mask="url(#mask1_3205_172730)">
<path d="M455.988 25.8809C429.273 25.8809 407.674 47.3368 407.674 73.8744C407.674 100.412 429.273 121.868 455.988 121.868C482.703 121.868 504.302 100.412 504.302 73.8744C504.302 47.3368 482.703 25.8809 455.988 25.8809ZM510.555 73.8744C510.555 103.8 486.113 128.079 455.988 128.079C425.863 128.079 401.422 103.8 401.422 73.8744C401.422 43.949 425.863 19.6699 455.988 19.6699C486.113 19.6699 510.555 43.949 510.555 73.8744Z" fill="white"/>
</g>
<mask id="mask2_3205_172730" style="mask-type:luminance" maskUnits="userSpaceOnUse" x="-480" y="-398" width="2418" height="1046">
<path d="M1937.24 -397.025H-479.596V647.54H1937.24V-397.025Z" fill="white"/>
</mask>
<g mask="url(#mask2_3205_172730)">
<path d="M459.401 38.3047H453.148V109.448H459.401V38.3047Z" fill="white"/>
</g>
<mask id="mask3_3205_172730" style="mask-type:luminance" maskUnits="userSpaceOnUse" x="369" y="-19" width="434" height="188">
<path d="M802.138 -18.6855H369.745V168.196H802.138V-18.6855Z" fill="white"/>
</mask>
<g mask="url(#mask3_3205_172730)">
<path d="M616.143 76.3739V91.3244H632.617V95.8702H611.16V56.2715H632.617V60.8173H616.143V71.9291H632.109V76.3739H616.143Z" fill="white"/>
</g>
<mask id="mask4_3205_172730" style="mask-type:luminance" maskUnits="userSpaceOnUse" x="369" y="-19" width="434" height="188">
<path d="M802.138 -18.6855H369.745V168.196H802.138V-18.6855Z" fill="white"/>
</mask>
<g mask="url(#mask4_3205_172730)">
<path d="M688.855 76.3739V91.3244H705.329V95.8702H683.974V56.2715H705.329V60.8173H688.855V71.9291H704.82V76.3739H688.855Z" fill="white"/>
</g>
<mask id="mask5_3205_172730" style="mask-type:luminance" maskUnits="userSpaceOnUse" x="369" y="-19" width="434" height="188">
<path d="M802.138 -18.6855H369.745V168.196H802.138V-18.6855Z" fill="white"/>
</mask>
<g mask="url(#mask5_3205_172730)">
<path d="M714.99 75.0607H716.617C721.701 75.0607 727.193 74.1515 727.193 67.7874C727.193 61.6254 721.294 60.7162 716.312 60.7162H714.99V75.0607ZM734.819 95.8702H728.82L717.125 79.1014H715.091V95.8702H710.108V56.2715H716.108C719.667 56.2715 723.43 56.3725 726.582 58.0898C729.938 60.0091 731.769 63.7468 731.769 67.5854C731.769 73.2424 728.006 77.9902 722.21 78.6973L734.819 95.8702Z" fill="white"/>
</g>
<mask id="mask6_3205_172730" style="mask-type:luminance" maskUnits="userSpaceOnUse" x="369" y="-19" width="434" height="188">
<path d="M802.138 -18.6855H369.745V168.196H802.138V-18.6855Z" fill="white"/>
</mask>
<g mask="url(#mask6_3205_172730)">
<path d="M601.502 95.8702H606.485V56.2715H601.502V87.9909L576.587 56.2715H571.604V95.8702H576.587V63.9488L601.502 95.8702Z" fill="white"/>
</g>
<mask id="mask7_3205_172730" style="mask-type:luminance" maskUnits="userSpaceOnUse" x="369" y="-19" width="434" height="188">
<path d="M802.138 -18.6855H369.745V168.196H802.138V-18.6855Z" fill="white"/>
</mask>
<g mask="url(#mask7_3205_172730)">
<path d="M679.089 91.3205H656.819L679.089 60.8133V56.2676H653.667V60.8133H673.191L650.921 91.3205V95.8663H679.089V91.3205Z" fill="white"/>
</g>
<mask id="mask8_3205_172730" style="mask-type:luminance" maskUnits="userSpaceOnUse" x="369" y="-19" width="434" height="188">
<path d="M802.138 -18.6855H369.745V168.196H802.138V-18.6855Z" fill="white"/>
</mask>
<g mask="url(#mask8_3205_172730)">
<path d="M547.807 60.408C539.062 60.408 532.045 67.4792 532.045 76.0656C532.045 84.6521 539.164 91.7233 547.807 91.7233C556.553 91.7233 563.57 84.6521 563.57 76.0656C563.57 67.4792 556.553 60.408 547.807 60.408ZM568.349 76.0656C568.349 87.3795 559.095 96.4711 547.807 96.4711C536.418 96.4711 527.266 87.2785 527.266 76.0656C527.266 64.8527 536.52 55.6602 547.807 55.6602C559.197 55.6602 568.349 64.7517 568.349 76.0656Z" fill="white"/>
</g>
<mask id="mask9_3205_172730" style="mask-type:luminance" maskUnits="userSpaceOnUse" x="369" y="-19" width="434" height="188">
<path d="M802.138 -18.6855H369.745V168.196H802.138V-18.6855Z" fill="white"/>
</mask>
<g mask="url(#mask9_3205_172730)">
<path d="M754.444 60.408C745.698 60.408 738.682 67.4792 738.682 76.0656C738.682 84.6521 745.8 91.7233 754.444 91.7233C763.189 91.7233 770.206 84.6521 770.206 76.0656C770.206 67.4792 763.189 60.408 754.444 60.408ZM775.087 76.0656C775.087 87.3795 765.833 96.4711 754.546 96.4711C743.156 96.4711 734.004 87.2785 734.004 76.0656C734.004 64.8527 743.258 55.6602 754.546 55.6602C765.833 55.6602 775.087 64.7517 775.087 76.0656Z" fill="white"/>
</g>
</g>
<defs>
<clipPath id="clip0_3205_172730">
<rect width="185.307" height="116.356" fill="white" transform="translate(73 16.8223)"/>
</clipPath>
<clipPath id="clip1_3205_172730">
<rect width="375.144" height="112.926" fill="white" transform="translate(400.856 18.5371)"/>
</clipPath>
</defs>
</svg>
