<svg width="1816" height="132" viewBox="0 0 1816 132" fill="none" xmlns="http://www.w3.org/2000/svg">
<path d="M101.395 46.8233C99.4232 47.8126 98.5688 49.6595 98.5688 54.6724C98.5688 54.6724 99.5546 53.683 101.132 53.0894C102.282 52.6606 103.104 52.1 103.695 51.6712C105.404 50.385 105.667 48.835 105.667 46.1307C105.634 46.1307 102.939 45.9658 101.395 46.8233Z" fill="white"/>
<path d="M89.3334 47.9768C87.6246 49.395 87.1974 51.8354 87.1974 51.8354L81.6768 73.0743L77.1421 55.6941C76.7149 53.8472 75.8605 51.5716 74.579 49.9886C73.0017 47.9768 69.7156 47.8449 69.3213 47.8449C69.0255 47.8449 65.7723 47.9768 64.0636 49.9886C62.782 51.5716 61.9276 53.8472 61.5005 55.6941L57.2286 73.0743L51.708 51.8354C51.708 51.8354 51.2808 49.5599 49.5721 47.9768C46.8775 45.5364 42.9014 46.13 42.9014 46.13L53.4168 85.8703C53.4168 85.8703 56.8342 86.1672 58.543 85.3097C60.8104 84.1554 61.9605 83.3309 63.2421 77.8893C64.5236 73.0413 67.9411 58.9261 68.204 57.9367C68.3354 57.5079 68.6312 56.2217 69.4856 56.2217C70.3399 56.2217 70.6357 57.376 70.7671 57.9367C71.0629 58.9261 74.4475 73.0413 75.7291 77.8893C77.1421 83.2979 78.1279 84.1554 80.4281 85.3097C82.1369 86.1672 85.5544 85.8703 85.5544 85.8703L96.0041 46.13C96.0041 46.13 92.0279 45.5693 89.3334 47.9768Z" fill="white"/>
<path d="M105.633 52.5276C105.633 52.5276 104.91 53.517 103.497 54.3744C102.511 54.9351 101.657 55.2319 100.671 55.7926C98.9625 56.65 98.5353 57.5075 98.5353 58.7937V85.738C98.5353 85.738 101.23 86.0348 102.939 85.1773C105.206 84.0231 105.633 82.9018 105.633 78.0538V52.5276Z" fill="white"/>
<path d="M131.758 66.0832L145.099 46.2625C145.099 46.2625 139.578 45.2731 136.72 47.8455C134.879 49.4285 133.039 52.3967 133.039 52.3967L128.209 59.5203C127.913 59.949 127.65 60.2458 127.223 60.2458C126.796 60.2458 126.369 59.8171 126.237 59.5203L121.407 52.3967C121.407 52.3967 119.435 49.5604 117.726 47.8455C114.9 45.2731 109.347 46.2625 109.347 46.2625L122.261 66.0502L109.051 85.8379C109.051 85.8379 114.867 86.5635 117.726 83.9911C119.566 82.4081 121.275 79.7037 121.275 79.7037L126.106 72.5802C126.401 72.1514 126.664 71.8546 127.091 71.8546C127.519 71.8546 127.946 72.2834 128.077 72.5802L132.908 79.7037C132.908 79.7037 134.748 82.4081 136.457 83.9911C139.283 86.5635 144.968 85.8379 144.968 85.8379L131.758 66.0832Z" fill="white"/>
<path d="M379.963 71.946C379.989 71.9197 380.016 71.8935 380.043 71.8673C381.58 70.3556 382.944 68.505 383.071 66.2248C383.254 62.9462 380.981 61.0275 378.896 58.9554C377.596 57.6546 376.783 55.9537 376.591 54.1336C376.399 52.3135 376.84 50.4829 377.84 48.9441C381.259 43.8215 389.35 44.4677 391.819 50.1428C392.427 51.6124 392.585 53.2266 392.273 54.7844C391.961 56.3422 391.193 57.7747 390.066 58.9034C388.067 60.9787 385.788 62.8345 385.775 66.0146C385.764 68.8575 387.609 70.8125 389.412 72.7293C391.205 74.6349 392.363 76.791 392.237 79.4432C392.166 80.6406 391.809 81.8041 391.195 82.8382C390.582 83.8723 389.729 84.7474 388.708 85.3915C384.279 88.1987 378.033 85.5499 376.829 80.5362C376.042 77.2594 377.683 74.2177 379.963 71.946Z" fill="white"/>
<path d="M401.382 73.8075C405.731 73.8075 409.255 70.3161 409.255 66.0092C409.255 61.7022 405.731 58.2108 401.382 58.2108C397.034 58.2108 393.509 61.7022 393.509 66.0092C393.509 70.3161 397.034 73.8075 401.382 73.8075Z" fill="white"/>
<path d="M420.639 76.6939V54.303H421.092C422.319 54.3044 423.495 54.7876 424.362 55.6467C425.23 56.5057 425.717 57.6705 425.719 58.8853V76.6939H420.639Z" fill="white"/>
<path d="M421.092 76.2446V54.7523C422.199 54.7523 423.26 55.1877 424.043 55.9628C424.826 56.7379 425.265 57.7892 425.265 58.8854V76.2446H421.092ZM441.641 86.4393C435.735 86.4393 431.681 83.7759 430.225 78.9399L430.051 78.3624H435.227L435.341 78.6436C436.448 81.3599 439.377 81.9299 441.641 81.9299C446.301 81.9299 448.567 79.558 448.567 74.6784V73.7015C446.825 75.8413 444.034 77.0853 440.85 77.0853C435.343 77.0853 429.415 73.4594 429.415 65.4984C429.415 58.6836 434.52 53.7375 441.553 53.7375C448.76 53.7375 453.602 58.5339 453.602 65.6725V74.5044C453.602 82.0892 449.242 86.4393 441.641 86.4393ZM441.553 58.4643C437.423 58.4643 434.539 61.3568 434.539 65.4983C434.539 69.5755 437.358 72.3149 441.553 72.3149C445.748 72.3149 448.567 69.5755 448.567 65.4983C448.567 61.3569 445.682 58.4643 441.553 58.4643Z" fill="white"/>
<path d="M449.02 72.3725H448.932C447.439 74.983 444.496 76.6362 440.85 76.6362C435.228 76.6362 429.869 72.8076 429.869 65.4984C429.869 58.9724 434.701 54.1866 441.553 54.1866C448.405 54.1866 453.149 58.7548 453.149 65.6725V74.5043C453.149 82.7707 448.054 85.9902 441.641 85.9902C436.326 85.9902 432.153 83.7714 430.66 78.8116H434.92C435.931 81.2915 438.478 82.3791 441.641 82.3791C446.077 82.3791 449.02 80.2908 449.02 74.6785V72.3725ZM441.553 58.0152C437.073 58.0152 434.086 61.1477 434.086 65.4984C434.086 69.8491 437.073 72.764 441.553 72.764C446.033 72.764 449.02 69.8491 449.02 65.4984C449.02 61.1477 446.033 58.0152 441.553 58.0152ZM468.54 77.2594C461.546 77.2594 457.37 73.0418 457.37 65.9771V54.303H462.449V65.9771C462.449 70.2042 464.613 72.5323 468.54 72.5323C472.469 72.5323 474.632 70.2042 474.632 65.9771V54.303H479.712V65.9771C479.712 73.0418 475.535 77.2594 468.54 77.2594Z" fill="white"/>
<path d="M475.085 54.7523H479.258V65.977C479.258 73.1121 474.954 76.8102 468.54 76.8102C462.128 76.8102 457.823 73.1557 457.823 65.977V54.7523H461.996V65.977C461.996 70.6322 464.587 72.9816 468.54 72.9816C472.494 72.9816 475.085 70.6322 475.085 65.977V54.7523ZM494.633 77.2594C488.951 77.2594 483.198 73.2196 483.198 65.4984C483.198 58.6836 488.303 53.7374 495.335 53.7374C502.43 53.7374 507.385 58.6452 507.385 65.6725V76.6939H502.657V73.3648C500.978 75.83 498.086 77.2594 494.633 77.2594ZM495.335 58.4643C491.206 58.4643 488.322 61.3569 488.322 65.4983C488.322 69.6398 491.206 72.5323 495.335 72.5323C499.465 72.5323 502.349 69.6398 502.349 65.4983C502.349 61.3569 499.465 58.4643 495.335 58.4643Z" fill="white"/>
<path d="M506.932 76.2446H503.11V71.7634H503.022C501.705 74.8088 498.63 76.8102 494.633 76.8102C489.011 76.8102 483.652 72.8076 483.652 65.4984C483.652 58.9724 488.483 54.1866 495.335 54.1866C502.188 54.1866 506.932 58.7984 506.932 65.6725V76.2446ZM502.803 65.4984C502.803 61.1477 499.816 58.0152 495.335 58.0152C490.855 58.0152 487.868 61.1477 487.868 65.4984C487.868 69.8491 490.855 72.9816 495.335 72.9816C499.816 72.9816 502.803 69.8491 502.803 65.4984ZM511.064 76.6939V72.6704L524.417 58.8995H511.723V54.303H531.517V54.7522C531.522 57.0465 530.625 59.2526 529.018 60.9043L518.164 72.0973H531.956V76.6939H511.064Z" fill="white"/>
<path d="M511.517 76.2446V72.8511L525.398 58.5373V58.4503H512.176V54.7523H531.064C531.064 56.9297 530.214 59.0227 528.691 60.5932L517.184 72.4595V72.5466H531.503V76.2446L511.517 76.2446ZM535.829 76.6939V54.303H536.283C537.51 54.3044 538.685 54.7876 539.553 55.6467C540.42 56.5058 540.908 57.6706 540.909 58.8855V76.6939H535.829Z" fill="white"/>
<path d="M536.283 76.2446V54.7523C537.39 54.7523 538.451 55.1877 539.234 55.9628C540.016 56.738 540.456 57.7893 540.456 58.8855V76.2446H536.283ZM556.462 77.2594C549.43 77.2594 544.325 72.3132 544.325 65.4984C544.325 58.6836 549.43 53.7374 556.462 53.7374C563.495 53.7374 568.6 58.6836 568.6 65.4984C568.6 72.3132 563.495 77.2594 556.462 77.2594ZM556.462 58.4643C552.333 58.4643 549.449 61.3569 549.449 65.4983C549.449 69.6398 552.333 72.5323 556.462 72.5323C560.592 72.5323 563.476 69.6398 563.476 65.4983C563.476 61.3569 560.592 58.4643 556.462 58.4643Z" fill="white"/>
<path d="M556.84 76.8102C549.988 76.8102 545.156 72.0244 545.156 65.4984C545.156 58.9724 549.988 54.1866 556.84 54.1866C563.693 54.1866 568.524 58.9724 568.524 65.4984C568.524 72.0244 563.693 76.8102 556.84 76.8102ZM564.308 65.4984C564.308 61.1477 561.321 58.0152 556.84 58.0152C552.36 58.0152 549.374 61.1477 549.374 65.4984C549.374 69.8491 552.36 72.9815 556.84 72.9815C561.321 72.9815 564.308 69.8491 564.308 65.4984ZM423.084 45.5597C423.89 45.5616 424.661 45.8798 425.229 46.4444C425.797 47.009 426.117 47.7738 426.116 48.5711C426.115 49.359 425.8 50.1146 425.238 50.6725C424.676 51.2304 423.915 51.5455 423.119 51.5488C422.717 51.5551 422.318 51.4795 421.948 51.3267C421.576 51.1739 421.241 50.9471 420.962 50.6604C420.673 50.38 420.445 50.044 420.291 49.6731C420.138 49.3022 420.063 48.9042 420.07 48.5034C420.064 48.115 420.14 47.7296 420.292 47.3715C420.444 47.0134 420.669 46.6903 420.953 46.4225C421.231 46.1434 421.563 45.923 421.93 45.7747C422.296 45.6264 422.689 45.5532 423.084 45.5597ZM538.498 45.5597C539.303 45.5616 540.075 45.8798 540.643 46.4444C541.212 47.009 541.531 47.7738 541.531 48.5711C541.53 49.359 541.214 50.1146 540.652 50.6725C540.091 51.2304 539.329 51.5455 538.534 51.5488C538.132 51.5551 537.733 51.4795 537.361 51.3267C536.991 51.1739 536.655 50.9471 536.376 50.6604C536.087 50.38 535.859 50.044 535.705 49.6731C535.552 49.3022 535.477 48.9042 535.484 48.5034C535.478 48.115 535.554 47.7296 535.706 47.3715C535.858 47.0134 536.083 46.6903 536.367 46.4225C536.645 46.1434 536.977 45.923 537.344 45.7747C537.71 45.6264 538.103 45.5533 538.498 45.5597Z" fill="white"/>
<path d="M803.242 57.0635C802.142 55.0188 802.444 52.6608 804.001 50.8512C807.514 46.762 814.681 47.5369 819.637 49.5829C819.823 49.2782 819.929 48.9183 819.929 48.5352C819.929 47.4077 819.015 46.4949 817.888 46.4949C817.442 46.4949 817.029 46.6386 816.694 46.8824C811.675 44.9132 805.743 44.6433 801.819 48.3408C801.449 47.8155 800.839 47.4715 800.148 47.4715C799.021 47.4715 798.108 48.3843 798.108 49.5118C798.108 50.4173 798.697 51.185 799.514 51.452C798.339 53.7419 797.853 56.1594 797.795 58.5146C799.555 57.8442 801.38 57.358 803.244 57.0635H803.242Z" fill="white"/>
<path d="M804.996 54.9117C804.996 55.6111 805.563 56.1785 806.262 56.1785C806.962 56.1785 807.529 55.6111 807.529 54.9117C807.529 54.2122 806.962 53.6449 806.262 53.6449C805.563 53.6449 804.996 54.2122 804.996 54.9117Z" fill="white"/>
<path d="M819.514 54.9117C819.514 54.2122 818.947 53.6449 818.247 53.6449C817.548 53.6449 816.98 54.2122 816.98 54.9117C816.98 55.6111 817.548 56.1785 818.247 56.1785C818.947 56.1785 819.514 55.6111 819.514 54.9117Z" fill="white"/>
<path d="M808.824 61.2652C808.738 60.8734 808.351 60.6267 807.959 60.7123C803.619 61.6657 799.602 63.764 796.343 66.7838C796.048 67.0566 796.031 67.5151 796.304 67.8097C796.44 67.9563 796.623 68.0346 796.809 68.0419C796.994 68.0492 797.183 67.9853 797.33 67.8489C800.4 65.0047 804.183 63.0283 808.271 62.13C808.663 62.0444 808.91 61.657 808.824 61.2652Z" fill="white"/>
<path d="M807.554 59.6292C807.954 59.6292 808.279 59.3056 808.279 58.9051C808.279 58.5046 807.956 58.1795 807.555 58.1781H807.525C802.533 58.1781 797.676 59.6074 793.479 62.3138C793.143 62.5314 793.045 62.9798 793.263 63.3165C793.402 63.5313 793.635 63.6488 793.874 63.6488C794.009 63.6488 794.145 63.6111 794.266 63.5327C798.227 60.9787 802.812 59.6292 807.525 59.6292C807.535 59.6292 807.545 59.6277 807.555 59.6292H807.554Z" fill="white"/>
<path d="M842.151 76.0902C844.781 73.6494 846.553 70.3539 847.092 66.7087C847.827 61.7299 846.176 56.7177 842.677 53.1596C842.608 53.0885 842.496 53.0768 842.413 53.1305C842.33 53.1842 842.296 53.2916 842.333 53.3845C844.201 58.0281 843.47 63.1694 840.71 67.057C840.937 65.111 839.791 63.1999 837.861 62.5396C837.652 62.4685 837.423 62.5715 837.339 62.7762C836.014 65.9831 832.863 68.1859 829.254 68.1859C825.645 68.1859 822.607 66.0368 821.254 62.9619C822.82 63.5104 824.3 64.2998 825.625 65.3011C825.754 65.3983 825.905 65.4462 826.055 65.4477C826.277 65.4491 826.497 65.3504 826.641 65.1603C826.883 64.8411 826.819 64.3854 826.5 64.1446C824.252 62.4453 821.597 61.3047 818.816 60.8447C818.422 60.7779 818.047 61.0464 817.982 61.4426C817.917 61.8373 818.184 62.2117 818.58 62.277C819.156 62.3727 819.726 62.5019 820.288 62.6601C819.681 63.2536 818.848 63.6352 817.94 63.6352H817.937C817.92 63.6367 817.904 63.6381 817.888 63.6381C815.939 63.6381 814.372 62.0201 814.444 60.0727C815.541 59.8376 816.3 59.2688 816.667 58.7333C817.524 57.4766 816.164 56.0299 813.323 56.0299C810.01 56.0299 809.274 57.7204 809.992 58.7493C810.549 59.5474 811.696 60.0437 812.355 60.0408C812.192 62.7254 809.775 64.7163 807.107 64.3709L807.11 64.368C806.836 64.3303 806.568 64.2664 806.308 64.1765C803.831 65.0065 801.515 66.2705 799.476 67.9102C800.541 70.8647 801.715 72.815 801.719 72.8208C803.034 74.9627 804.646 76.9159 806.489 78.6355C806.489 78.6355 806.495 78.6398 806.498 78.6427C807.186 79.2841 807.905 79.8921 808.653 80.4653C810.475 81.9818 813.029 84.0438 814.601 85.0436L814.956 84.1671C820.041 86.3641 825.775 87.1492 831.435 86.0362C831.444 86.0347 831.454 86.0319 831.463 86.0304C837.484 84.8405 840.599 81.7975 845.151 80.831C845.359 80.7875 845.501 80.5945 845.482 80.3826C845.392 79.422 844.854 77.1045 842.084 76.1555C842.107 76.1352 842.129 76.1134 842.152 76.0917L842.151 76.0902ZM831.016 80.6206C830.652 81.0516 830.291 81.4782 829.923 81.886C827.98 84.0453 825.074 85.0712 822.205 84.6141C819.95 84.2557 817.708 83.5998 815.572 82.6768C815.625 82.5245 815.681 82.3779 815.736 82.2343L815.94 81.7278H815.939C816.157 81.2083 816.383 80.7425 816.614 80.3043C817.212 79.1666 817.032 77.7764 816.165 76.8274L806.257 65.9962C809.207 66.5287 812.089 65.0181 813.572 62.9227C814.643 64.2998 815.846 64.7613 816.966 64.9848C818.258 66.1776 818.191 65.957 818.191 67.5344C818.191 68.289 818.803 68.9028 819.559 68.9028C820.366 68.9028 820.842 68.8215 821.327 69.2801L821.372 69.3251C822.234 70.232 821.211 71.3247 822.289 72.1881C823.181 72.9035 824.437 72.4247 824.689 72.2621C828.3 69.9302 832.122 69.0087 835.175 69.6907C836.408 69.907 837.503 70.4265 838.383 71.3087C839.527 72.4522 840.19 73.9469 840.411 75.636C837.841 75.353 834.505 76.4965 831.018 80.6206H831.016Z" fill="white"/>
<path d="M818.581 59.0397C818.581 59.4402 818.904 59.7681 819.305 59.7667C822.689 59.7696 826.003 60.7128 828.885 62.489C829.001 62.5601 829.129 62.5949 829.255 62.5964C829.502 62.5993 829.744 62.4774 829.884 62.251C830.094 61.91 829.988 61.4631 829.647 61.2527C826.537 59.3372 822.962 58.3199 819.308 58.3141C818.907 58.3141 818.582 58.6377 818.581 59.0382V59.0397Z" fill="white"/>
<path d="M921.263 77.1435C921.17 77.0841 921.054 77.0712 920.948 77.0996C919.845 77.4225 918.597 77.6136 917.616 77.6136C914.925 77.6136 913.727 76.3197 913.727 73.4142V64.2743H921.059C921.273 64.2743 921.449 64.0987 921.449 63.8843V60.4855C921.449 60.2711 921.273 60.0955 921.059 60.0955H913.727V52.8977C913.727 52.6834 913.551 52.5078 913.337 52.5078H909.277C909.062 52.5078 908.887 52.6834 908.887 52.8977V60.0955H898.43V52.8977C898.43 52.6834 898.254 52.5078 898.04 52.5078H893.98C893.765 52.5078 893.59 52.6834 893.59 52.8977V60.0955H889.295C889.081 60.0955 888.905 60.2711 888.905 60.4855V63.8843C888.905 64.0987 889.081 64.2743 889.295 64.2743H893.59V73.4142C893.59 78.9617 896.498 82.1436 901.57 82.1436C903.236 82.1436 904.432 81.9472 906.49 81.3326C906.679 81.2758 906.797 81.0872 906.764 80.8909L906.147 77.4044C906.126 77.2959 906.061 77.2003 905.968 77.1409C905.875 77.0815 905.759 77.0687 905.653 77.0971C904.551 77.4199 903.303 77.611 902.322 77.611C899.631 77.611 898.432 76.3171 898.432 73.4116V64.2717H908.889V73.4116C908.889 78.9591 911.797 82.141 916.87 82.141C918.536 82.141 919.731 81.9447 921.79 81.33C921.978 81.2732 922.097 81.0846 922.063 80.8884L921.446 77.4018C921.425 77.2933 921.361 77.1978 921.268 77.1384L921.263 77.1435Z" fill="white"/>
<path d="M933.808 59.5654C927.317 59.5654 922.607 64.2941 922.607 70.8101C922.607 77.3261 927.317 82.0111 933.808 82.0111C938.583 82.0111 942.47 79.5498 943.709 75.7404C943.748 75.6216 943.728 75.4925 943.655 75.3917C943.583 75.291 943.464 75.2316 943.34 75.2316H938.973C938.828 75.2316 938.697 75.3117 938.627 75.4383C937.826 76.9543 936.163 77.7884 933.942 77.7884C930.076 77.7884 928.105 75.2626 927.496 72.7445H943.694C943.709 72.7445 943.722 72.7445 943.738 72.7445C943.813 72.7523 943.89 72.7394 943.96 72.7032C944.071 72.6464 944.149 72.5405 944.167 72.4165C944.26 71.8122 944.26 71.164 944.26 70.5907C944.213 64.2038 939.82 59.5705 933.81 59.5705L933.808 59.5654ZM927.483 68.9197C928.162 65.7689 930.481 63.8318 933.632 63.8318C936.783 63.8318 938.849 65.725 939.324 68.9197H927.483Z" fill="white"/>
<path d="M872.006 50.08C863.179 50.08 855.996 57.2623 855.996 66.0898C855.996 74.9173 863.179 82.0997 872.006 82.0997C880.834 82.0997 888.016 74.9173 888.016 66.0898C888.016 57.2623 880.834 50.08 872.006 50.08ZM882.956 66.0898C882.956 72.3217 878.044 77.3914 872.006 77.3914C865.968 77.3914 861.012 72.4276 861.012 66.0898C861.012 59.752 865.841 54.7882 872.006 54.7882C878.171 54.7882 882.956 59.8579 882.956 66.0898Z" fill="white"/>
<path d="M958.692 59.6083C955.823 59.6083 953.294 60.6207 951.316 62.5448V60.4838C951.316 60.2695 951.14 60.0939 950.926 60.0939H946.866C946.652 60.0939 946.476 60.2695 946.476 60.4838V81.0881C946.476 81.3025 946.652 81.4781 946.866 81.4781H950.926C951.14 81.4781 951.316 81.3025 951.316 81.0881V68.0226C953.124 65.5846 955.606 64.3087 958.702 64.2261C958.914 64.2209 959.082 64.0479 959.082 63.8361V59.9983C959.082 59.784 958.906 59.6083 958.692 59.6083Z" fill="white"/>
<path d="M987.24 60.0953H969.502C969.288 60.0953 969.113 60.2709 969.113 60.4853V63.8841C969.113 64.0985 969.288 64.2741 969.502 64.2741H980.597L968.8 78.8608C968.743 78.9306 968.712 79.0158 968.712 79.1062V81.0922C968.712 81.3066 968.888 81.4822 969.102 81.4822H987.235C987.449 81.4822 987.625 81.3066 987.625 81.0922V77.6935C987.625 77.4791 987.449 77.3035 987.235 77.3035H975.92L987.537 62.9828C987.594 62.913 987.625 62.8278 987.625 62.7374V60.4879C987.625 60.2735 987.449 60.0979 987.235 60.0979L987.24 60.0953Z" fill="white"/>
<path d="M999.464 59.5654C992.974 59.5654 988.263 64.2941 988.263 70.8101C988.263 77.3261 992.974 82.0111 999.464 82.0111C1004.24 82.0111 1008.13 79.5498 1009.37 75.7404C1009.4 75.6216 1009.38 75.4925 1009.31 75.3917C1009.24 75.291 1009.12 75.2316 1009 75.2316H1004.63C1004.48 75.2316 1004.35 75.3117 1004.28 75.4383C1003.48 76.9543 1001.82 77.7884 999.598 77.7884C995.732 77.7884 993.761 75.2626 993.152 72.7445H1009.35C1009.37 72.7445 1009.38 72.7445 1009.39 72.7445C1009.47 72.7523 1009.55 72.7394 1009.62 72.7032C1009.73 72.6464 1009.8 72.5405 1009.82 72.4165C1009.92 71.8122 1009.92 71.164 1009.92 70.5907C1009.87 64.2038 1005.48 59.5705 999.466 59.5705L999.464 59.5654ZM993.139 68.9197C993.818 65.7689 996.137 63.8318 999.288 63.8318C1002.44 63.8318 1004.51 65.725 1004.98 68.9197H993.139Z" fill="white"/>
<path d="M963.591 49.858C961.86 49.858 960.553 51.1261 960.553 52.8074C960.553 54.4887 961.86 55.7568 963.591 55.7568C965.321 55.7568 966.628 54.4603 966.628 52.8074C966.628 51.1545 965.293 49.858 963.591 49.858Z" fill="white"/>
<path d="M965.622 60.0953H961.606C961.39 60.0953 961.216 60.2699 961.216 60.4853V81.0896C961.216 81.305 961.39 81.4796 961.606 81.4796H965.622C965.837 81.4796 966.012 81.305 966.012 81.0896V60.4853C966.012 60.2699 965.837 60.0953 965.622 60.0953Z" fill="white"/>
<g clip-path="url(#clip0_3189_172181)">
<path d="M1255.04 89.1247C1240.21 84.6275 1229.42 70.9692 1229.42 54.8063C1229.42 38.4719 1240.44 24.7 1255.5 20.3188C1257.04 19.8623 1256.64 18.8938 1254.76 18.8938C1234.73 18.8938 1218.46 35.0011 1218.46 54.8063C1218.46 74.6114 1234.73 90.7188 1254.76 90.7188C1256.64 90.7188 1256.76 89.6367 1255.04 89.1247Z" fill="white"/>
<path d="M1236.33 63.1699C1236.21 62.2013 1236.15 61.2352 1236.15 60.2667C1236.15 44.5023 1248.94 31.7546 1264.75 31.7546C1279.7 31.7546 1284.15 38.4134 1284.72 37.957C1285.35 37.5029 1279.3 24.2987 1261.78 24.2987C1245.97 24.2987 1233.19 37.0464 1233.19 52.8108C1233.19 56.453 1233.87 59.9262 1235.13 63.1119C1235.64 64.4789 1236.44 64.4789 1236.33 63.1699Z" fill="white"/>
<path d="M1248.31 42.6278C1255.73 39.3841 1265.09 39.2706 1274.28 42.5143C1280.44 44.6759 1284.04 47.7505 1284.32 47.5791C1284.83 47.352 1280.72 40.9202 1273.36 38.1306C1264.46 34.7734 1254.87 36.5389 1247.91 42.0022C1247.11 42.6278 1247.4 43.0263 1248.31 42.6278Z" fill="white"/>
<path d="M1395.26 56.0568C1395.26 58.1049 1393.55 59.8125 1391.5 59.8125C1389.44 59.8125 1387.73 58.1629 1387.73 56.0568C1387.73 54.0086 1389.39 52.301 1391.5 52.301C1393.61 52.301 1395.26 53.9507 1395.26 56.0568Z" fill="white"/>
<path d="M1272.68 77.0551L1273.13 82.0645H1281.07L1278.38 52.9823H1266.57L1251.62 82.0645H1259.72L1262.23 77.0551H1272.68ZM1272.28 71.4204H1265.03L1271.25 58.8441H1271.31L1272.28 71.4204Z" fill="white"/>
<path d="M1292.08 69.3723H1293.28L1298.93 61.6892H1306.29L1298.47 71.4784L1303.27 82.0645H1295.45L1292.31 73.8114H1291.17L1289.4 82.0645H1282.72L1288.89 52.9823H1295.56L1292.08 69.3723Z" fill="white"/>
<mask id="mask0_3189_172181" style="mask-type:luminance" maskUnits="userSpaceOnUse" x="0" y="-73" width="1483" height="1913">
<path d="M0.0595703 1839.99H1482.28V-72.8938H0.0595703V1839.99Z" fill="white"/>
</mask>
<g mask="url(#mask0_3189_172181)">
<path d="M1316.74 82.0666H1323.41L1326.1 69.3744C1327.58 62.3749 1324.9 61.5224 1318.05 61.5224C1313.26 61.5224 1308.63 61.4644 1307.32 67.7803H1314C1314.4 65.9592 1315.54 65.5631 1317.19 65.5631C1320.1 65.5631 1319.99 66.7562 1319.59 68.6353L1318.9 71.879H1318.62C1318.39 69.5459 1315.42 69.6038 1313.54 69.6038C1308.69 69.6038 1305.84 71.1399 1304.81 76.0332C1303.73 81.2116 1306.18 82.3516 1310.86 82.3516C1313.2 82.3516 1316.34 81.8951 1317.42 79.1079H1317.65L1316.74 82.0666ZM1314.85 73.6445C1317.02 73.6445 1318.45 73.8136 1318.11 75.5212C1317.65 77.6273 1316.74 78.0258 1313.94 78.0258C1312.91 78.0258 1311.03 78.0258 1311.49 75.8062C1311.89 73.9271 1313.2 73.6445 1314.85 73.6445Z" fill="white"/>
<path d="M1336.94 61.6913L1336.31 64.5364H1336.6C1337.91 62.1453 1340.59 61.4642 1342.88 61.4642C1345.73 61.4642 1348.58 61.9763 1348.18 65.447H1348.47C1349.44 62.5439 1352.41 61.4642 1354.97 61.4642C1359.71 61.4642 1361.71 63.3989 1360.68 68.1231L1357.71 82.0664H1351.04L1353.55 70.2848C1353.89 68.1787 1354.23 66.5846 1351.66 66.5846C1349.04 66.5846 1348.18 68.2922 1347.72 70.5118L1345.27 82.0664H1338.59L1341.22 69.7148C1341.56 67.8381 1341.68 66.5846 1339.34 66.5846C1336.6 66.5846 1335.74 68.0651 1335.23 70.5118L1332.77 82.0664H1326.1L1330.43 61.6913H1336.94Z" fill="white"/>
<path d="M1373.06 82.0666H1379.74L1382.48 69.3744C1383.96 62.3749 1381.28 61.5224 1374.43 61.5224C1369.64 61.5224 1365.02 61.4644 1363.71 67.7803H1370.38C1370.78 65.9592 1371.92 65.5631 1373.58 65.5631C1376.49 65.5631 1376.37 66.7562 1375.97 68.6353L1375.29 71.879H1375C1374.78 69.5459 1371.81 69.6038 1369.92 69.6038C1365.07 69.6038 1362.22 71.1399 1361.19 76.0332C1360.11 81.2116 1362.56 82.3516 1367.24 82.3516C1369.58 82.3516 1372.72 81.8951 1373.8 79.1079H1374.03L1373.06 82.0666ZM1371.24 73.6445C1373.41 73.6445 1374.83 73.8136 1374.49 75.5212C1374.03 77.6273 1373.12 78.0258 1370.32 78.0258C1369.3 78.0258 1367.41 78.0258 1367.87 75.8062C1368.27 73.9271 1369.58 73.6445 1371.24 73.6445Z" fill="white"/>
</g>
<path d="M1389.44 82.0645H1382.76L1387.04 61.6894H1393.78L1389.44 82.0645Z" fill="white"/>
</g>
<path d="M1724.92 48.7033C1722.1 50.5348 1720.93 53.8677 1722.33 56.0187C1723.74 58.159 1727.11 58.3188 1730.01 56.4873C1732.82 54.5919 1733.93 51.3334 1732.6 49.1825C1731.84 47.9898 1730.48 47.3935 1728.96 47.3935C1727.66 47.3935 1726.22 47.8195 1724.92 48.7033ZM1689.04 52.2811C1686.07 52.3663 1685.05 52.3663 1685.05 52.3663L1683.48 59.5006H1679.26C1679.26 59.5006 1680.51 60.2993 1681.21 61.7368C1681.76 63.0785 1682 64.91 1681.6 67.061C1680.9 71.0967 1680.04 74.9939 1680.04 74.9939C1678.54 81.9047 1681.28 84.1197 1687.71 84.1197C1689.36 84.1197 1691.7 83.9705 1693.35 83.6511L1694.68 77.1343C1693.2 77.3792 1691.94 77.4537 1691.08 77.4537C1689.75 77.4537 1688.96 76.5806 1689.04 75.5584C1689.04 74.6852 1689.27 73.7268 1689.43 72.9282L1691.01 65.6234H1697.11L1698.52 59.5006H1692.1L1693.75 52.1214C1693.75 52.1214 1692.34 52.2066 1689.04 52.2811ZM1596.85 73.0133C1596.85 78.2523 1599.05 84.6094 1609.69 84.6094C1615.96 84.6094 1621.83 80.7121 1623.25 73.8759H1614.24C1613.53 75.9523 1611.97 78.2523 1609.69 78.2523C1606.95 78.2523 1606.25 76.1866 1606.48 72.7684C1606.64 71.0221 1607.66 64.8355 1611.82 64.8355C1614.79 64.8355 1615.03 67.9234 1615.03 69.116H1624.03C1624.1 62.2053 1619.18 58.4785 1612.12 58.4785C1602.73 58.4785 1596.85 65.9428 1596.85 73.0133ZM1625.05 73.4073C1625.05 79.8389 1628.81 84.4497 1637.59 84.4497C1646.6 84.4497 1649.64 78.0182 1650.27 76.4316H1641.49C1640.87 77.6987 1639.93 78.5718 1637.97 78.5718C1636.25 78.5718 1635.31 77.6986 1634.83 76.8254C1634.37 75.8777 1634.13 74.7597 1634.21 73.4073H1651.22C1651.52 72.2147 1651.68 70.8624 1651.68 69.2758C1651.68 61.971 1646.35 58.6274 1640 58.6274C1633.11 58.6274 1625.05 63.0039 1625.05 73.4073ZM1639.7 64.2818C1642.28 64.2818 1643.53 65.7832 1643.07 68.6476H1634.99C1635.63 66.1879 1637.26 64.2818 1639.7 64.2818ZM1757.27 74.2059C1757.27 78.5717 1758.98 84.2154 1765.97 84.2154C1769.1 84.2154 1772.23 82.5436 1773.56 80.7121V80.7973C1773.56 81.745 1773.63 82.8631 1774.03 83.6511H1783.12C1782.64 82.3839 1782.64 80.2329 1783.19 77.6986C1783.66 75.5583 1786.96 59.5006 1786.96 59.5006H1777.88L1777.16 62.61C1776.07 60.3739 1773.73 58.8725 1770.12 58.8725C1761.72 58.8725 1757.27 67.1354 1757.27 74.2059ZM1766.82 73.4926C1766.82 69.6699 1768.94 65.1442 1772.15 65.1442C1774.81 65.1442 1775.75 66.9757 1775.75 69.4355C1775.75 74.5254 1773.33 77.6986 1770.35 77.6986C1768.24 77.6986 1766.82 76.5061 1766.82 73.4926ZM1729.15 73.0986C1729.22 78.2524 1731.57 84.2154 1742.07 84.2154C1748.26 84.2154 1754.14 80.7121 1755.62 73.8759H1746.61C1745.91 75.9523 1744.34 77.8583 1741.99 77.8583C1739.42 77.8583 1738.63 76.1866 1738.86 72.7684C1738.94 70.9476 1739.97 65.1442 1744.19 65.1442C1747.17 65.1442 1747.4 68.0086 1747.33 69.116H1756.33C1756.41 62.2053 1751.55 58.8725 1744.42 58.8725C1735.1 58.8725 1729.15 65.9429 1729.15 73.0986ZM1663.89 62.9294L1664.84 59.5006H1656.06L1651.13 83.6511H1660.22L1662.88 70.8624C1663.43 68.3174 1664.38 66.2624 1667.27 66.2624C1668.75 66.2624 1669.86 67.0609 1669.86 68.5623C1669.86 69.5207 1669.38 71.1819 1669.14 72.6195L1666.8 83.6511H1675.73L1678.63 69.9892C1679.01 68.2429 1679.26 66.4966 1679.26 65.3785C1679.26 60.3738 1675.33 58.8725 1672.21 58.8725C1668.28 58.8725 1665.78 60.7785 1663.89 62.9294ZM1708.63 63.7175V63.6322L1709.56 59.5006H1700.79L1695.85 83.6511H1704.94L1707.06 73.567C1708 69.116 1709.88 67.3697 1712.78 67.3697C1714.18 67.3697 1715.05 67.455 1716.54 68.0087L1718.26 59.7456C1717.56 59.4262 1716.77 59.3516 1715.69 59.3516C1712.78 59.3516 1710.04 61.4174 1708.63 63.7175ZM1720.6 59.5006L1715.69 83.6511H1724.76L1729.69 59.5006H1720.6Z" fill="white"/>
<defs>
<clipPath id="clip0_3189_172181">
<rect width="176.8" height="71.825" fill="white" transform="translate(1218.46 18.8867)"/>
</clipPath>
</defs>
</svg>
