<svg width="121" height="62" viewBox="0 0 121 62" fill="none" xmlns="http://www.w3.org/2000/svg">
<g id="Artwork 2">
<path id="Vector" d="M8.81054 52.1645C3.71412 52.1645 1.70417 49.2412 2.56017 44.3697L4.81926 31.5091H0.208496L1.08974 26.4906H5.69714L7.09266 18.5488H13.1629L11.7674 26.4906H18.1255L17.2434 31.5091H10.8861L8.72048 43.8341C8.37875 45.7823 9.10681 46.6112 11.0477 46.6112C12.3764 46.6147 13.7039 46.5332 15.0222 46.367L14.1233 51.4827C12.3866 51.926 10.6025 52.155 8.81054 52.1645Z" fill="white"/>
<path id="Vector_2" d="M17.4507 51.6842L21.8763 26.4902H28.0063L23.5807 51.6842H17.4507Z" fill="white"/>
<path id="Vector_3" d="M99.2612 52.1645C94.1648 52.1645 92.1548 49.2412 93.0108 44.3697L95.2699 31.5091H90.6633L91.5446 26.4906H96.152L97.5475 18.5488H103.618L102.222 26.4906H108.58L107.698 31.5091H101.341L99.1753 43.8341C98.8336 45.7823 99.5616 46.6112 101.503 46.6112C102.831 46.6147 104.159 46.5331 105.477 46.367L104.578 51.4827C102.84 51.9264 101.055 52.1553 99.2612 52.1645Z" fill="white"/>
<path id="Vector_4" d="M107.9 51.6842L112.326 26.4902H118.456L114.03 51.6842H107.9Z" fill="white"/>
<path id="Vector_5" d="M45.9204 50.3664C44.1528 51.6253 41.9939 52.4 39.4394 52.4C36.4489 52.4 34.2209 51.3347 33.3127 49.9313L31.2961 61.4055H25.2654L31.3802 26.5969H37.012L36.4901 29.3571C38.394 27.0328 41.3719 26.0156 44.1192 26.0156C46.6274 26.0156 48.5002 26.8875 49.8224 28.1464C52.3812 30.6126 53.2094 34.3917 52.3795 39.1339C51.5117 44.073 49.3444 47.8977 45.9204 50.3664ZM45.7293 33.0466C45.056 31.9331 43.9062 31.0603 42.0259 31.0603C37.2956 31.0603 35.539 35.566 34.9002 39.1998C34.2613 42.8336 34.4448 47.2903 39.1743 47.2903C41.0571 47.2903 42.5132 46.4184 43.578 45.304C45.1216 43.6573 45.8598 41.3796 46.2427 39.1998C46.6257 37.02 46.6947 34.6941 45.7293 33.0466Z" fill="white"/>
<path id="Vector_6" d="M72.3132 52.1453C69.704 52.1453 68.5484 50.4978 68.6873 48.6079C67.1722 50.6432 63.9688 52.387 60.3975 52.387C54.4122 52.387 51.9873 48.6079 52.7104 44.49C53.552 39.6937 57.7546 36.9326 62.5926 36.593L70.071 36.0607L70.3429 34.5104C70.7637 32.1363 70.2208 30.5395 66.7935 30.5395C63.994 30.5395 62.1322 31.7992 61.575 34.1251H55.7387C57.072 28.4569 62.0034 25.9375 67.6023 25.9375C71.8949 25.9375 75.3273 27.2944 76.1118 31.0726C76.4577 32.6719 76.2397 34.4639 75.9434 36.1596L74.2996 45.508C74.0951 46.6706 74.4048 47.1065 75.4182 47.1065C75.684 47.1012 75.9485 47.0686 76.2077 47.0094L75.4275 51.4669C74.3333 51.9029 73.761 52.1453 72.3132 52.1453ZM69.2832 40.5605L62.8274 41.0446C60.9673 41.1899 58.986 42.3043 58.6291 44.3396C58.2924 46.2777 59.7654 47.4893 61.6474 47.4893C65.4114 47.4893 68.4238 45.454 69.0795 41.7239L69.2832 40.5605Z" fill="white"/>
<path id="Vector_7" d="M84.9088 52.0215C80.8064 52.0215 78.4042 50.0352 79.2467 45.2389L83.9257 18.541H90.0069L85.5072 44.2183C85.2547 45.6715 85.423 46.6405 87.4944 46.6405C88.0255 46.6405 88.1787 46.5915 88.5162 46.5915L87.6232 51.6785C86.3741 51.9243 86.1166 52.0215 84.9088 52.0215Z" fill="white"/>
<path id="Vector_8" d="M120.438 14.4482C120.467 15.2995 120.27 16.1433 119.869 16.8939C119.468 17.6446 118.877 18.2754 118.154 18.7223C117.432 19.1693 116.605 19.4165 115.756 19.4389C114.908 19.4614 114.069 19.2582 113.324 18.8499C113.24 18.8001 113.156 18.7503 113.072 18.7021C113.066 18.6953 113.064 18.6928 113.059 18.6928C100.4 11.2216 85.5509 7.14682 69.7895 7.67233C53.6358 8.21136 38.7556 13.5062 26.4426 22.1779C26.3786 22.2201 26.3121 22.2624 26.249 22.3105C26.1362 22.3685 26.012 22.4008 25.8854 22.4052C25.771 22.4091 25.6569 22.3904 25.5497 22.35C25.4425 22.3097 25.3443 22.2486 25.2606 22.1701C25.177 22.0916 25.1096 21.9974 25.0622 21.8928C25.0149 21.7881 24.9886 21.6751 24.9848 21.5603C24.9787 21.4045 25.0151 21.25 25.09 21.1134C25.2339 20.9799 25.3778 20.8523 25.5235 20.7213C39.0511 8.58141 56.7383 0.956466 76.294 0.305072C91.2348 -0.193401 105.357 3.44207 117.57 10.19C117.575 10.19 117.578 10.19 117.583 10.1968L117.925 10.3844C118.437 10.6618 118.896 11.0286 119.281 11.4675C119.994 12.2993 120.403 13.3511 120.438 14.4482Z" fill="white"/>
</g>
</svg>
