<svg width="185" height="74" viewBox="0 0 185 74" fill="none" xmlns="http://www.w3.org/2000/svg">
<g id="Frame 3850">
<g id="torq 1" clip-path="url(#clip0_3074_177596)">
<g id="Group">
<path id="Vector" d="M18.5249 25.0368H28.2927V17.5522H18.5249V10H10V43.2214C10 48.666 13.391 52.1921 18.633 52.1921H28.3873V44.3833H18.5249V25.0368Z" fill="white"/>
<path id="Vector_2" d="M57.6776 19.1048C54.881 17.5512 51.7196 16.7676 48.2745 16.7676C44.8294 16.7676 41.668 17.5512 38.8714 19.1048C36.0749 20.6585 33.8457 22.8471 32.2515 25.5897C30.6573 28.3323 29.8467 31.4531 29.8467 34.8712C29.8467 38.2892 30.6573 41.3695 32.2515 44.1121C33.8457 46.8546 36.0749 49.0433 38.8714 50.6105C41.668 52.1776 44.8294 52.9612 48.2745 52.9612C51.7196 52.9612 54.881 52.1641 57.6776 50.6105C60.4742 49.0433 62.7033 46.8546 64.2975 44.1121C65.8917 41.3695 66.7023 38.2622 66.7023 34.8712C66.7023 31.4801 65.8917 28.3593 64.2975 25.6032C62.7033 22.8471 60.4742 20.6585 57.6776 19.1048ZM58.0288 34.8712C58.0288 37.7893 57.1101 40.2077 55.2863 42.0721C53.4624 43.9229 51.1116 44.8687 48.2745 44.8687C45.4374 44.8687 43.0866 43.9229 41.2627 42.0721C39.4389 40.2077 38.5202 37.7893 38.5202 34.8712C38.5202 31.953 39.4389 29.5347 41.2627 27.6703C43.0866 25.8194 45.4374 24.8737 48.2745 24.8737C51.1116 24.8737 53.4624 25.8194 55.2863 27.6703C57.1101 29.5347 58.0288 31.953 58.0288 34.8712Z" fill="white"/>
<path id="Vector_3" d="M70.7285 25.2402V52.2334H79.2534V25.1591H89.1698V17.4043H78.7806C73.6062 17.4043 70.742 22.0383 70.742 25.2402H70.7285Z" fill="white"/>
<path id="Vector_4" d="M119.243 17.5373V20.4015C116.365 18.1453 112.718 16.7943 108.584 16.7402C106.152 16.7673 103.828 17.2131 101.693 18.1048C99.5047 19.0099 97.4242 20.388 95.8705 21.9687C94.3574 23.5088 93.1144 25.4408 92.1957 27.7375C91.25 30.0882 90.7637 32.493 90.7637 34.9114C90.7637 37.3297 91.2635 39.8831 92.2093 42.2203C93.0469 44.3009 94.2763 46.1518 95.9651 47.8811C97.4782 49.4348 99.4642 50.7587 101.707 51.6909C103.814 52.5691 106.152 53.0014 108.854 53.0014C112.664 53.0014 115.636 52.0962 118.73 49.9887L118.77 64.0122H127.349V17.5373H119.257H119.243ZM116.325 41.9772C114.298 44.0172 112.218 44.8818 109.34 44.8818C106.314 44.8818 104.031 43.9902 102.126 42.0582C100.153 40.0587 99.2615 37.8566 99.2615 34.9114C99.2615 31.9662 100.234 29.6694 102.234 27.6294C104.112 25.7245 106.314 24.8733 109.354 24.8733C112.123 24.8733 114.339 25.792 116.311 27.7645C118.284 29.737 119.162 31.9256 119.162 34.8843C119.162 37.8431 118.284 40.0047 116.325 41.9907V41.9772Z" fill="white"/>
</g>
<g id="Group_2">
<path id="Vector_5" d="M174.215 20.3616C174.215 18.6728 172.351 17.1191 170.432 17.1191H153.585V25.0496H174.201V20.3481L174.215 20.3616Z" fill="white"/>
<path id="Vector_6" d="M174.216 30.8066H136.847V38.7506H174.216V30.8066Z" fill="white"/>
<path id="Vector_7" d="M136.873 44.4764V49.0563C136.873 50.7856 138.737 52.4068 140.669 52.4068H157.854V44.4629H136.873V44.4764Z" fill="white"/>
</g>
</g>
</g>
<defs>
<clipPath id="clip0_3074_177596">
<rect width="164.216" height="54" fill="white" transform="translate(10 10)"/>
</clipPath>
</defs>
</svg>
