<svg width="1816" height="160" viewBox="0 0 1816 160" fill="none" xmlns="http://www.w3.org/2000/svg">
<path d="M59.143 64.0942C57.493 61.0273 57.9458 57.4902 60.2814 54.7758C65.5511 48.642 76.3018 49.8043 83.7351 52.8734C84.0137 52.4163 84.1726 51.8765 84.1726 51.3019C84.1726 49.6106 82.8013 48.2414 81.1122 48.2414C80.4418 48.2414 79.8236 48.4569 79.3208 48.8226C71.7917 45.8689 62.8934 45.464 57.0076 51.0102C56.4526 50.2222 55.5384 49.7063 54.5023 49.7063C52.811 49.7063 51.4418 51.0755 51.4418 52.7668C51.4418 54.125 52.3256 55.2765 53.5511 55.677C51.7879 59.1118 51.0587 62.7381 50.9717 66.2709C53.612 65.2653 56.3503 64.5361 59.1451 64.0942H59.143Z" fill="white"/>
<path d="M61.7729 60.8666C61.7729 61.9157 62.624 62.7668 63.6732 62.7668C64.7224 62.7668 65.5734 61.9157 65.5734 60.8666C65.5734 59.8174 64.7224 58.9663 63.6732 58.9663C62.624 58.9663 61.7729 59.8174 61.7729 60.8666Z" fill="white"/>
<path d="M83.5505 60.8666C83.5505 59.8174 82.6994 58.9663 81.6502 58.9663C80.6011 58.9663 79.75 59.8174 79.75 60.8666C79.75 61.9157 80.6011 62.7668 81.6502 62.7668C82.6994 62.7668 83.5505 61.9157 83.5505 60.8666Z" fill="white"/>
<path d="M67.5156 70.3968C67.3872 69.8091 66.806 69.439 66.2183 69.5674C59.7078 70.9975 53.6827 74.145 48.7939 78.6747C48.352 79.0839 48.3259 79.7717 48.7351 80.2136C48.9398 80.4335 49.214 80.551 49.4926 80.5619C49.7712 80.5728 50.0542 80.477 50.2741 80.2724C54.8799 76.0061 60.5545 73.0414 66.6863 71.6941C67.274 71.5656 67.644 70.9845 67.5156 70.3968Z" fill="white"/>
<path d="M65.6103 67.9428C66.211 67.9428 66.6986 67.4574 66.6986 66.8566C66.6986 66.2559 66.2132 65.7683 65.6124 65.7661H65.5667C58.0789 65.7661 50.7936 67.9101 44.4986 71.9697C43.9936 72.2962 43.8478 72.9688 44.1743 73.4738C44.3832 73.7959 44.7315 73.9722 45.0906 73.9722C45.2931 73.9722 45.4977 73.9156 45.6783 73.7981C51.6207 69.9671 58.4968 67.9428 65.5667 67.9428C65.582 67.9428 65.5972 67.9406 65.6124 67.9428H65.6103Z" fill="white"/>
<path d="M117.505 92.6343C121.452 88.9732 124.109 84.0299 124.917 78.5621C126.021 71.0939 123.543 63.5756 118.295 58.2384C118.191 58.1317 118.023 58.1143 117.899 58.1948C117.775 58.2754 117.723 58.4364 117.78 58.5757C120.581 65.5411 119.484 73.2531 115.344 79.0845C115.686 76.1655 113.966 73.2988 111.071 72.3085C110.758 72.2018 110.414 72.3563 110.287 72.6633C108.3 77.4737 103.575 80.7779 98.1611 80.7779C92.7477 80.7779 88.1898 77.5542 86.1611 72.9418C88.5097 73.7646 90.7299 74.9488 92.7173 76.4507C92.911 76.5965 93.1374 76.6683 93.3616 76.6705C93.6946 76.6727 94.0255 76.5247 94.2409 76.2395C94.6044 75.7607 94.5087 75.0772 94.0298 74.7159C90.6581 72.167 86.6748 70.4561 82.5043 69.7661C81.9122 69.6659 81.3506 70.0686 81.2527 70.6629C81.1547 71.2549 81.5552 71.8165 82.1495 71.9145C83.0136 72.0581 83.869 72.2518 84.7114 72.4891C83.8016 73.3794 82.5521 73.9518 81.1895 73.9518H81.1852C81.1591 73.954 81.1351 73.9562 81.1112 73.9562C78.1879 73.9562 75.8371 71.5292 75.9459 68.6081C77.5915 68.2555 78.7299 67.4022 79.2806 66.599C80.5648 64.714 78.5253 62.5439 74.2633 62.5439C69.294 62.5439 68.1904 65.0797 69.2678 66.623C70.1037 67.8201 71.8233 68.5645 72.8115 68.5602C72.5677 72.5871 68.9413 75.5735 64.9406 75.0554L64.9449 75.0511C64.5336 74.9945 64.1309 74.8987 63.7412 74.7637C60.0256 76.0088 56.5517 77.9047 53.4934 80.3644C55.0911 84.7961 56.852 87.7216 56.8586 87.7303C58.8306 90.943 61.2489 93.8729 64.0133 96.4522C64.0133 96.4522 64.022 96.4588 64.0264 96.4631C65.0581 97.4252 66.1378 98.3372 67.2588 99.197C69.9927 101.472 73.8236 104.565 76.181 106.064L76.7143 104.75C84.3414 108.045 92.9415 109.223 101.433 107.553C101.446 107.551 101.461 107.547 101.474 107.545C110.505 105.76 115.178 101.195 122.007 99.7455C122.318 99.6802 122.531 99.3908 122.503 99.073C122.368 97.632 121.561 94.1558 117.405 92.7323C117.44 92.7018 117.473 92.6692 117.508 92.6365L117.505 92.6343ZM100.804 99.4299C100.257 100.076 99.7153 100.716 99.1646 101.328C96.25 104.567 91.8901 106.106 87.5868 105.42C84.2042 104.883 80.8413 103.899 77.6372 102.514C77.7177 102.286 77.8004 102.066 77.8832 101.85L78.1901 101.091H78.1879C78.5144 100.311 78.854 99.6128 79.2001 98.9554C80.0968 97.2489 79.8269 95.1636 78.5275 93.7401L63.6651 77.4933C68.0903 78.2921 72.4132 76.0262 74.6377 72.8831C76.2441 74.9488 78.0486 75.641 79.729 75.9762C81.6662 77.7654 81.5661 77.4345 81.5661 79.8006C81.5661 80.9325 82.4847 81.8532 83.6187 81.8532C84.829 81.8532 85.5429 81.7313 86.2699 82.4191L86.3374 82.4866C87.6304 83.8471 86.0958 85.4861 87.7131 86.7812C89.0517 87.8543 90.9346 87.136 91.3133 86.8922C96.7289 83.3943 102.462 82.0121 107.042 83.0351C108.892 83.3595 110.533 84.1387 111.855 85.4621C113.57 87.1774 114.565 89.4194 114.896 91.953C111.041 91.5286 106.036 93.2438 100.806 99.4299H100.804Z" fill="white"/>
<path d="M82.1509 67.0586C82.1509 67.6593 82.6363 68.1512 83.237 68.1491C88.3131 68.1534 93.2846 69.5683 97.6075 72.2325C97.7817 72.3392 97.9732 72.3914 98.1626 72.3936C98.5326 72.3979 98.8961 72.2151 99.1051 71.8755C99.4207 71.364 99.2618 70.6936 98.7503 70.378C94.0856 67.5048 88.7223 65.9789 83.2414 65.9702C82.6406 65.9702 82.1531 66.4556 82.1509 67.0564V67.0586Z" fill="white"/>
<path d="M236.174 94.2143C236.034 94.1252 235.86 94.1059 235.701 94.1485C234.047 94.6327 232.176 94.9194 230.704 94.9194C226.667 94.9194 224.869 92.9786 224.869 88.6204V74.9104H235.868C236.189 74.9104 236.453 74.647 236.453 74.3255V69.2273C236.453 68.9057 236.189 68.6423 235.868 68.6423H224.869V57.8456C224.869 57.5241 224.606 57.2607 224.285 57.2607H218.195C217.873 57.2607 217.61 57.5241 217.61 57.8456V68.6423H201.924V57.8456C201.924 57.5241 201.661 57.2607 201.339 57.2607H195.249C194.928 57.2607 194.664 57.5241 194.664 57.8456V68.6423H188.222C187.9 68.6423 187.637 68.9057 187.637 69.2273V74.3255C187.637 74.647 187.9 74.9104 188.222 74.9104H194.664V88.6204C194.664 96.9416 199.026 101.714 206.635 101.714C209.134 101.714 210.927 101.42 214.015 100.498C214.297 100.413 214.476 100.13 214.425 99.8354L213.5 94.6056C213.469 94.4429 213.372 94.2995 213.232 94.2104C213.093 94.1213 212.918 94.102 212.76 94.1446C211.105 94.6289 209.234 94.9155 207.762 94.9155C203.726 94.9155 201.928 92.9747 201.928 88.6165V74.9066H217.614V88.6165C217.614 96.9377 221.976 101.71 229.584 101.71C232.083 101.71 233.876 101.416 236.964 100.494C237.247 100.409 237.425 100.126 237.375 99.8316L236.449 94.6017C236.418 94.439 236.321 94.2957 236.181 94.2066L236.174 94.2143Z" fill="white"/>
<path d="M254.991 67.8471C245.256 67.8471 238.19 74.9402 238.19 84.7142C238.19 94.4882 245.256 101.516 254.991 101.516C262.154 101.516 267.984 97.8237 269.844 92.1097C269.902 91.9315 269.871 91.7377 269.762 91.5866C269.654 91.4355 269.476 91.3465 269.29 91.3465H262.739C262.522 91.3465 262.325 91.4666 262.22 91.6564C261.019 93.9304 258.524 95.1817 255.192 95.1817C249.393 95.1817 246.437 91.3929 245.523 87.6158H269.82C269.844 87.6158 269.863 87.6158 269.886 87.6158C269.999 87.6274 270.115 87.6081 270.22 87.5539C270.386 87.4686 270.502 87.3098 270.529 87.1238C270.669 86.2173 270.669 85.245 270.669 84.385C270.599 74.8047 264.01 67.8548 254.995 67.8548L254.991 67.8471ZM245.504 81.8786C246.522 77.1523 250.001 74.2468 254.728 74.2468C259.454 74.2468 262.553 77.0865 263.266 81.8786H245.504Z" fill="white"/>
<path d="M162.289 53.6191C149.047 53.6191 138.274 64.3925 138.274 77.6337C138.274 90.8749 149.047 101.649 162.289 101.649C175.53 101.649 186.303 90.8749 186.303 77.6337C186.303 64.3925 175.53 53.6191 162.289 53.6191ZM178.714 77.6337C178.714 86.9816 171.346 94.5862 162.289 94.5862C153.231 94.5862 145.797 87.1404 145.797 77.6337C145.797 68.127 153.041 60.6814 162.289 60.6814C171.536 60.6814 178.714 68.2859 178.714 77.6337Z" fill="white"/>
<path d="M292.317 67.9115C288.013 67.9115 284.221 69.4301 281.253 72.3162V69.2248C281.253 68.9032 280.99 68.6398 280.668 68.6398H274.578C274.257 68.6398 273.993 68.9032 273.993 69.2248V100.131C273.993 100.453 274.257 100.716 274.578 100.716H280.668C280.99 100.716 281.253 100.453 281.253 100.131V80.5329C283.965 76.8759 287.688 74.9621 292.333 74.8381C292.65 74.8304 292.902 74.5708 292.902 74.2532V68.4965C292.902 68.175 292.639 67.9115 292.317 67.9115Z" fill="white"/>
<path d="M335.14 68.642H308.533C308.212 68.642 307.948 68.9054 307.948 69.227V74.3252C307.948 74.6467 308.212 74.9101 308.533 74.9101H325.176L307.479 96.7903C307.394 96.8949 307.348 97.0227 307.348 97.1583V100.137C307.348 100.459 307.611 100.722 307.933 100.722H335.132C335.453 100.722 335.717 100.459 335.717 100.137V95.0392C335.717 94.7177 335.453 94.4543 335.132 94.4543H318.16L335.585 72.9732C335.67 72.8686 335.717 72.7407 335.717 72.6051V69.2309C335.717 68.9093 335.453 68.6459 335.132 68.6459L335.14 68.642Z" fill="white"/>
<path d="M353.475 67.8471C343.74 67.8471 336.674 74.9402 336.674 84.7142C336.674 94.4882 343.74 101.516 353.475 101.516C360.638 101.516 366.469 97.8237 368.328 92.1097C368.386 91.9315 368.355 91.7377 368.247 91.5866C368.138 91.4355 367.96 91.3465 367.774 91.3465H361.223C361.006 91.3465 360.809 91.4666 360.704 91.6564C359.503 93.9304 357.008 95.1817 353.677 95.1817C347.877 95.1817 344.922 91.3929 344.007 87.6158H368.305C368.328 87.6158 368.347 87.6158 368.371 87.6158C368.483 87.6274 368.599 87.6081 368.704 87.5539C368.87 87.4686 368.987 87.3098 369.014 87.1238C369.153 86.2173 369.153 85.245 369.153 84.385C369.083 74.8047 362.494 67.8548 353.479 67.8548L353.475 67.8471ZM343.988 81.8786C345.007 77.1523 348.486 74.2468 353.212 74.2468C357.938 74.2468 361.037 77.0865 361.75 81.8786H343.988Z" fill="white"/>
<path d="M299.665 53.2861C297.07 53.2861 295.11 55.1881 295.11 57.7101C295.11 60.232 297.07 62.1342 299.665 62.1342C302.261 62.1342 304.221 60.1894 304.221 57.7101C304.221 55.2308 302.218 53.2861 299.665 53.2861Z" fill="white"/>
<path d="M302.712 68.642H296.688C296.365 68.642 296.103 68.9039 296.103 69.227V100.133C296.103 100.457 296.365 100.718 296.688 100.718H302.712C303.036 100.718 303.297 100.457 303.297 100.133V69.227C303.297 68.9039 303.036 68.642 302.712 68.642Z" fill="white"/>
<g clip-path="url(#clip0_3189_172370)">
<path d="M623.035 111.49C600.777 104.744 584.599 84.2565 584.599 60.0121C584.599 35.5105 601.122 14.8528 623.718 8.28086C626.032 7.59613 625.433 6.14336 622.607 6.14336C592.559 6.14336 568.164 30.3044 568.164 60.0121C568.164 89.7198 592.559 113.881 622.607 113.881C625.433 113.881 625.604 112.258 623.035 111.49Z" fill="white"/>
<path d="M594.956 72.5556C594.786 71.1028 594.698 69.6536 594.698 68.2009C594.698 44.5542 613.876 25.4326 637.588 25.4326C660.014 25.4326 666.691 35.4209 667.549 34.7362C668.49 34.0551 659.415 14.2488 633.134 14.2488C609.422 14.2488 590.248 33.3704 590.248 57.017C590.248 62.4803 591.276 67.69 593.158 72.4686C593.928 74.5192 595.127 74.5192 594.956 72.5556Z" fill="white"/>
<path d="M612.932 41.7444C624.059 36.8789 638.1 36.7086 651.88 41.5741C661.126 44.8166 666.52 49.4286 666.949 49.1713C667.719 48.8308 661.554 39.183 650.51 34.9986C637.156 29.9628 622.777 32.6111 612.332 40.8061C611.133 41.7444 611.562 42.3422 612.932 41.7444Z" fill="white"/>
<path d="M833.363 61.8879C833.363 64.9601 830.794 67.5215 827.714 67.5215C824.629 67.5215 822.064 65.0471 822.064 61.8879C822.064 58.8157 824.546 56.2543 827.714 56.2543C830.881 56.2543 833.363 58.7287 833.363 61.8879Z" fill="white"/>
<path d="M649.485 93.3864L650.167 100.9H662.069L658.044 57.2771H640.326L617.896 100.9H630.052L633.819 93.3864H649.485ZM648.885 84.9344H638.012L647.345 66.0699H647.428L648.885 84.9344Z" fill="white"/>
<path d="M678.59 81.8621H680.389L688.864 70.3376H699.904L688.177 85.0213L695.371 100.9H683.64L678.932 88.5208H677.221L674.569 100.9H664.553L673.795 57.2771H683.811L678.59 81.8621Z" fill="white"/>
<mask id="mask0_3189_172370" style="mask-type:luminance" maskUnits="userSpaceOnUse" x="-1260" y="-132" width="2224" height="2870">
<path d="M-1259.44 2737.79H963.886V-131.538H-1259.44V2737.79Z" fill="white"/>
</mask>
<g mask="url(#mask0_3189_172370)">
<path d="M715.572 100.903H725.588L729.61 81.8643C731.837 71.3652 727.815 70.0863 717.541 70.0863C710.352 70.0863 703.416 69.9993 701.447 79.4732H711.463C712.063 76.7415 713.774 76.1474 716.259 76.1474C720.622 76.1474 720.451 77.9371 719.852 80.7557L718.823 85.6212H718.398C718.053 82.1215 713.603 82.2085 710.777 82.2085C703.504 82.2085 699.22 84.5126 697.68 91.8526C696.056 99.6201 699.736 101.33 706.755 101.33C710.264 101.33 714.973 100.645 716.6 96.4645H716.942L715.572 100.903ZM712.746 88.2696C716.001 88.2696 718.141 88.5232 717.625 91.0845C716.942 94.2437 715.572 94.8415 711.376 94.8415C709.836 94.8415 707.013 94.8415 707.696 91.512C708.295 88.6934 710.264 88.2696 712.746 88.2696Z" fill="white"/>
<path d="M745.877 70.3377L744.936 74.6055H745.365C747.334 71.0188 751.355 69.9971 754.781 69.9971C759.061 69.9971 763.34 70.7652 762.741 75.9713H763.169C764.622 71.6166 769.076 69.9971 772.927 69.9971C780.033 69.9971 783.03 72.8991 781.486 79.9854L777.036 100.9H767.02L770.788 83.2279C771.3 80.0688 771.816 77.6777 767.961 77.6777C764.023 77.6777 762.741 80.239 762.054 83.5685L758.374 100.9H748.358L752.296 82.3729C752.812 79.5579 752.983 77.6777 749.473 77.6777C745.365 77.6777 744.078 79.8985 743.308 83.5685L739.628 100.9H729.612L736.119 70.3377H745.877Z" fill="white"/>
<path d="M800.062 100.903H810.078L814.187 81.8643C816.414 71.3652 812.389 70.0863 802.119 70.0863C794.926 70.0863 787.99 69.9993 786.025 79.4732H796.041C796.637 76.7415 798.351 76.1474 800.833 76.1474C805.199 76.1474 805.029 77.9371 804.429 80.7557L803.401 85.6212H802.972C802.631 82.1215 798.181 82.2085 795.354 82.2085C788.078 82.2085 783.798 84.5126 782.258 91.8526C780.63 99.6201 784.31 101.33 791.329 101.33C794.842 101.33 799.55 100.645 801.174 96.4645H801.519L800.062 100.903ZM797.323 88.2696C800.575 88.2696 802.715 88.5232 802.202 91.0845C801.519 94.2437 800.15 94.8415 795.954 94.8415C794.413 94.8415 791.587 94.8415 792.274 91.512C792.873 88.6934 794.842 88.2696 797.323 88.2696Z" fill="white"/>
</g>
<path d="M824.63 100.9H814.614L821.034 70.3378H831.137L824.63 100.9Z" fill="white"/>
</g>
<path d="M1200.57 49.8874C1200.57 49.4308 1200.18 49.053 1199.71 49.053H1191.3C1190.83 49.053 1190.44 49.4308 1190.44 49.8874V63.6632C1187.32 61.8999 1183.71 61.0025 1179.6 61.0025C1173.5 61.0025 1168.48 62.9547 1164.52 66.8434C1160.57 70.6691 1158.64 75.3923 1158.64 80.9498C1158.64 86.586 1160.57 91.3092 1164.52 95.1349C1168.48 98.9606 1173.5 100.897 1179.6 100.897C1184 100.897 1187.84 99.8738 1191.11 97.8743L1199.4 100.85C1199.95 101.055 1200.55 100.645 1200.55 100.063V49.8874H1200.57ZM1187.3 88.6642C1185.22 90.7581 1182.7 91.7972 1179.63 91.7972C1176.54 91.7972 1173.95 90.7581 1171.87 88.6642C1169.79 86.5073 1168.78 83.9411 1168.78 80.9498C1168.78 77.9585 1169.79 75.3922 1171.87 73.2983C1173.95 71.2202 1176.54 70.1811 1179.63 70.1811C1182.72 70.1811 1185.22 71.2202 1187.3 73.2983C1189.38 75.3922 1190.46 77.9585 1190.46 80.9498C1190.46 83.9411 1189.38 86.5231 1187.3 88.6642Z" fill="white"/>
<path d="M1118.98 66.8213C1122.93 62.9326 1127.96 60.9803 1134.05 60.9803C1140.15 60.9803 1145.18 62.9326 1149.13 66.8213C1153.08 70.647 1155.01 75.3701 1155.01 80.9276C1155.01 86.5639 1153.08 91.287 1149.13 95.1128C1145.18 98.9385 1140.15 100.875 1134.05 100.875C1127.96 100.875 1122.93 98.9227 1118.98 95.1128C1115.03 91.287 1113.1 86.5639 1113.1 80.9276C1113.1 75.3701 1115.03 70.647 1118.98 66.8213ZM1134.05 91.7751C1137.14 91.7751 1139.65 90.736 1141.73 88.6421C1143.81 86.4852 1144.88 83.919 1144.88 80.9276C1144.88 77.9363 1143.81 75.3701 1141.73 73.2762C1139.65 71.198 1137.13 70.1589 1134.05 70.1589C1130.97 70.1589 1128.38 71.198 1126.3 73.2762C1124.22 75.3701 1123.21 77.9363 1123.21 80.9276C1123.21 83.919 1124.22 86.4852 1126.3 88.6421C1128.38 90.736 1130.97 91.7751 1134.05 91.7751Z" fill="white"/>
<path d="M1225.13 68.0554C1229.14 68.0554 1232.39 64.9117 1232.39 61.0337C1232.39 57.1557 1229.14 54.012 1225.13 54.012C1221.13 54.012 1217.88 57.1557 1217.88 61.0337C1217.88 64.9117 1221.13 68.0554 1225.13 68.0554Z" fill="white"/>
<path d="M1210.04 46.9386C1213.99 43.0499 1219.02 41.0977 1225.12 41.0977C1231.21 41.0977 1236.24 43.0499 1240.19 46.9386C1244.14 50.7643 1246.07 55.4874 1246.07 61.045C1246.07 66.6812 1244.14 71.4044 1240.19 75.2301C1236.24 79.0558 1231.21 80.9923 1225.12 80.9923C1219.02 80.9923 1213.99 79.0401 1210.04 75.2301C1206.09 71.4044 1204.16 66.6812 1204.16 61.045C1204.16 55.4874 1206.09 50.7643 1210.04 46.9386ZM1225.12 71.8924C1228.21 71.8924 1230.71 70.8533 1232.79 68.7594C1234.87 66.6025 1235.94 64.0363 1235.94 61.045C1235.94 58.0537 1234.87 55.4874 1232.79 53.3935C1230.71 51.3153 1228.19 50.2763 1225.12 50.2763C1222.03 50.2763 1219.44 51.3153 1217.36 53.3935C1215.28 55.4874 1214.27 58.0537 1214.27 61.045C1214.27 64.0363 1215.28 66.6025 1217.36 68.7594C1219.44 70.8376 1222.03 71.8924 1225.12 71.8924Z" fill="white"/>
<path d="M1062.29 80.9491C1062.29 75.3915 1060.35 70.6684 1056.4 66.8427C1052.45 62.954 1047.42 61.0017 1041.33 61.0017C1035.23 61.0017 1030.21 62.954 1026.26 66.8427C1022.3 70.6684 1020.37 75.3915 1020.37 80.9491C1020.37 86.5853 1022.3 91.3084 1026.26 95.1342C1030.21 98.9599 1035.23 100.896 1041.33 100.896C1045.73 100.896 1049.57 99.873 1052.84 97.8736L1061.13 100.849C1061.68 101.054 1062.29 100.644 1062.29 100.062V80.9491ZM1041.33 91.7965C1038.24 91.7965 1035.65 90.7574 1033.57 88.6635C1031.49 86.5066 1030.48 83.9404 1030.48 80.9491C1030.48 77.9577 1031.49 75.3915 1033.57 73.2976C1035.65 71.2194 1038.24 70.1803 1041.33 70.1803C1044.42 70.1803 1046.92 71.2194 1049 73.2976C1051.08 75.3915 1052.16 77.9577 1052.16 80.9491C1052.16 83.9404 1051.08 86.5066 1049 88.6635C1046.92 90.7574 1044.42 91.7965 1041.33 91.7965Z" fill="white"/>
<path d="M1109.52 80.9491C1109.52 75.3915 1107.58 70.6527 1103.63 66.8427C1099.68 62.954 1094.66 61.0017 1088.56 61.0017C1082.46 61.0017 1077.44 62.954 1073.49 66.8427C1069.54 70.6684 1067.6 75.3915 1067.6 80.9491V100.062C1067.6 100.519 1067.99 100.896 1068.46 100.896H1076.85C1077.32 100.896 1077.71 100.519 1077.71 100.062V80.9491C1077.71 77.9577 1078.72 75.3915 1080.8 73.2976C1082.88 71.2194 1085.47 70.1803 1088.56 70.1803C1091.65 70.1803 1094.15 71.2194 1096.23 73.2976C1098.31 75.3915 1099.39 77.9577 1099.39 80.9491V100.062C1099.39 100.519 1099.78 100.896 1100.25 100.896H1108.66C1109.13 100.896 1109.52 100.519 1109.52 100.062V80.9491Z" fill="white"/>
<path d="M1267.98 72.826C1268.45 72.826 1268.84 72.4482 1268.84 71.9916V64.4818C1268.84 64.0253 1268.45 63.6474 1267.98 63.6474H1259.96V49.8874C1259.96 49.4308 1259.57 49.053 1259.1 49.053H1250.52C1250.04 49.053 1249.65 49.4308 1249.65 49.8874V85.3265C1249.69 93.9226 1256.91 100.897 1265.78 100.897C1265.8 100.897 1265.82 100.897 1265.82 100.897C1265.82 100.897 1265.83 100.897 1265.85 100.897C1266.42 100.897 1267.31 100.897 1267.96 100.897C1268.43 100.897 1268.82 100.519 1268.82 100.063V92.6159C1268.82 92.1593 1268.43 91.7815 1267.96 91.7815H1265.78C1262.56 91.7815 1259.95 89.2467 1259.95 86.1295V72.8103H1267.98V72.826Z" fill="white"/>
<g clip-path="url(#clip1_3189_172370)">
<path d="M1575.72 100.761V69.4046L1565.44 89.8046H1558.34L1547.98 69.4046V100.761H1537.48V46.9766H1547.84L1561.89 76.0646L1575.87 46.9766H1586.23V100.773H1575.73L1575.72 100.761Z" fill="white"/>
<path d="M1617.19 100.761V97.1367C1614.62 99.8607 1611 101.217 1607.37 101.217C1603.45 101.217 1600.27 99.9327 1598.08 97.7367C1594.92 94.5687 1594.08 90.8607 1594.08 86.5527V61.3887H1603.89V85.1847C1603.89 90.5487 1607.29 92.3607 1610.38 92.3607C1613.48 92.3607 1616.96 90.5487 1616.96 85.1847V61.3887H1626.78V100.749H1617.18L1617.19 100.761Z" fill="white"/>
<path d="M1657.15 100.761V76.9653C1657.15 71.6013 1653.75 69.7893 1650.65 69.7893C1647.56 69.7893 1644.08 71.6013 1644.08 76.9653V100.761H1634.26V61.4013H1643.86V65.0253C1646.43 62.3013 1650.05 60.9453 1653.68 60.9453C1657.6 60.9453 1660.78 62.2293 1662.97 64.4253C1666.13 67.5933 1666.97 71.3013 1666.97 75.6093V100.773H1657.16L1657.15 100.761Z" fill="white"/>
<path d="M1686.76 100.76C1678.76 100.76 1675.35 95.0964 1675.35 89.5044V70.0164H1671.2V62.5404H1675.35V50.9004H1685.17V62.5404H1692.12V70.0164H1685.17V88.9044C1685.17 91.1724 1686.22 92.4564 1688.56 92.4564H1692.12V100.772H1686.75L1686.76 100.76Z" fill="white"/>
<path d="M1705.12 84.1416C1705.12 89.2056 1708.22 92.9016 1713.74 92.9016C1718.05 92.9016 1720.16 91.6896 1722.66 89.1936L1728.62 95.0136C1724.61 99.0216 1720.76 101.206 1713.66 101.206C1704.37 101.206 1695.45 96.9696 1695.45 81.0336C1695.45 68.1936 1702.4 60.9336 1712.6 60.9336C1723.56 60.9336 1729.75 68.9376 1729.75 79.7496V84.1296H1705.12V84.1416ZM1719.18 73.1856C1718.12 70.8456 1715.92 69.1056 1712.6 69.1056C1709.28 69.1056 1707.08 70.8456 1706.02 73.1856C1705.42 74.6256 1705.2 75.6816 1705.11 77.4216H1720.08C1720 75.6816 1719.78 74.6256 1719.16 73.1856H1719.18Z" fill="white"/>
<path d="M1756.8 72.1293C1755.28 70.6173 1754 69.7893 1751.59 69.7893C1748.56 69.7893 1745.24 72.0573 1745.24 77.0373V100.761H1735.41V61.4013H1745.01V65.1813C1746.9 62.9133 1750.68 60.9453 1754.91 60.9453C1758.76 60.9453 1761.49 61.9293 1764.2 64.6413L1756.8 72.1173V72.1293Z" fill="white"/>
<path d="M1779.31 101.217C1773.12 101.217 1767.52 100.533 1762.53 95.553L1768.95 89.133C1772.2 92.385 1776.43 92.829 1779.45 92.829C1782.85 92.829 1786.4 91.701 1786.4 88.749C1786.4 86.781 1785.34 85.425 1782.25 85.125L1776.06 84.525C1768.95 83.841 1764.57 80.745 1764.57 73.497C1764.57 65.337 1771.75 60.957 1779.75 60.957C1785.87 60.957 1791.01 62.013 1794.79 65.565L1788.74 71.685C1786.47 69.645 1783 69.045 1779.6 69.045C1775.67 69.045 1774 70.857 1774 72.825C1774 74.265 1774.6 75.921 1778.08 76.221L1784.28 76.821C1792.05 77.577 1795.99 81.729 1795.99 88.377C1795.99 97.065 1788.58 101.217 1779.3 101.217H1779.31Z" fill="white"/>
<path d="M1507.94 48.4512L1488.16 74.2272L1468.34 48.4752C1460.74 54.3912 1455.85 63.6312 1455.85 74.0112C1455.85 84.3912 1460.29 92.7432 1467.27 98.6712L1473.58 91.4352C1468.6 87.2712 1465.45 81.0072 1465.45 74.0112C1465.45 70.1232 1466.42 66.4752 1468.13 63.2832L1488.16 89.6352L1508.17 63.2352C1509.89 66.4392 1510.89 70.1232 1510.89 74.0232C1510.89 80.9832 1507.76 87.2232 1502.83 91.3872L1509.07 98.6832C1516.05 92.7552 1520.49 83.9112 1520.49 74.0232C1520.49 63.6192 1515.58 54.3672 1507.95 48.4632L1507.94 48.4512Z" fill="white"/>
<path d="M1488.16 51.2816C1492.47 51.2816 1496.5 52.4816 1499.93 54.5696L1505.42 46.6736C1500.41 43.5056 1494.5 41.6816 1488.16 41.6816C1481.83 41.6816 1475.89 43.5176 1470.89 46.6856L1476.27 54.6416C1479.73 52.5056 1483.81 51.2816 1488.16 51.2816Z" fill="white"/>
<path d="M1488.16 96.6888C1483.52 96.6888 1479.25 95.2968 1475.66 92.9088L1469.78 100.565C1475 104.177 1481.35 106.313 1488.16 106.301C1494.98 106.301 1501.34 104.165 1506.56 100.541L1500.68 92.8848C1497.09 95.2728 1492.81 96.6768 1488.15 96.6768L1488.16 96.6888Z" fill="white"/>
</g>
<defs>
<clipPath id="clip0_3189_172370">
<rect width="265.2" height="107.737" fill="white" transform="translate(568.161 6.13086)"/>
</clipPath>
<clipPath id="clip1_3189_172370">
<rect width="340.152" height="64.632" fill="white" transform="translate(1455.85 41.6836)"/>
</clipPath>
</defs>
</svg>
