<svg width="220" height="60" viewBox="0 0 220 60" fill="none" xmlns="http://www.w3.org/2000/svg">
<g id="Centrica_logo 1">
<g id="layer1">
<g id="g7870">
<g id="g7872">
<g id="g7878">
<g id="g7880">
<path id="path7890" d="M145.176 11.794C142.213 13.7219 140.975 17.2302 142.456 19.4944C143.938 21.7473 147.486 21.9155 150.537 19.9876C153.499 17.9925 154.66 14.5625 153.267 12.2983C152.46 11.043 151.034 10.4153 149.431 10.4153C148.061 10.4153 146.546 10.8636 145.176 11.794ZM107.414 15.5601C104.286 15.6498 103.214 15.6497 103.214 15.6497L101.555 23.1596H97.1116C97.1116 23.1596 98.4271 24.0003 99.1677 25.5135C99.7426 26.9258 99.997 28.8537 99.577 31.1179C98.8474 35.366 97.9408 39.4683 97.9408 39.4683C96.3601 46.7428 99.2453 49.0744 106.011 49.0744C107.746 49.0744 110.211 48.9174 111.947 48.5811L113.351 41.7213C111.792 41.9791 110.465 42.0576 109.559 42.0576C108.155 42.0576 107.326 41.1385 107.414 40.0625C107.414 39.1434 107.658 38.1345 107.823 37.2938L109.482 29.6046H115.904L117.385 23.1596H110.631L112.367 15.392C112.367 15.392 110.885 15.4816 107.414 15.5601ZM10.3691 37.3835C10.3691 42.8982 12.6794 49.5898 23.8884 49.5898C30.4878 49.5898 36.6673 45.4875 38.1596 38.2915H28.675C27.9233 40.4772 26.2872 42.8982 23.8884 42.8982C21.0032 42.8982 20.2626 40.7237 20.5058 37.1257C20.6716 35.2875 21.7438 28.7752 26.1213 28.7752C29.2496 28.7752 29.5039 32.0257 29.5039 33.2811H38.9777C39.055 26.0066 33.8706 22.0836 26.4421 22.0836C16.5596 22.0836 10.3691 29.9408 10.3691 37.3835ZM40.0498 37.7982C40.0498 44.5683 44.0072 49.4217 53.2485 49.4217C62.7331 49.4217 65.9389 42.6517 66.6021 40.9816H57.3608C56.7086 42.3155 55.7135 43.2345 53.6574 43.2345C51.8445 43.2345 50.8498 42.3153 50.3524 41.3962C49.866 40.3986 49.6115 39.2217 49.6999 37.7982H67.597C67.9175 36.5428 68.0834 35.1193 68.0834 33.4492C68.0834 25.76 62.4789 22.2404 55.7911 22.2404C48.5395 22.2404 40.0498 26.8472 40.0498 37.7982ZM55.4703 28.1924C58.1896 28.1924 59.5053 29.7728 59.0189 32.788H50.518C51.1923 30.1988 52.9057 28.1924 55.4703 28.1924ZM179.234 38.6388C179.234 43.2344 181.036 49.1751 188.387 49.1751C191.681 49.1751 194.975 47.4154 196.379 45.4875V45.5771C196.379 46.5747 196.456 47.7516 196.876 48.5811H206.438C205.94 47.2473 205.941 44.983 206.515 42.3153C207.013 40.0624 210.484 23.1596 210.484 23.1596H200.922L200.171 26.4326C199.021 24.0788 196.556 22.4984 192.753 22.4984C183.921 22.4984 179.234 31.1962 179.234 38.6388ZM189.282 37.888C189.282 33.8641 191.515 29.1002 194.898 29.1002C197.695 29.1002 198.689 31.0281 198.689 33.6173C198.689 38.9751 196.136 42.3153 192.997 42.3153C190.775 42.3153 189.282 41.0601 189.282 37.888ZM149.63 37.4732C149.708 42.8983 152.184 49.1751 163.227 49.1751C169.749 49.1751 175.939 45.4875 177.498 38.2915H168.014C167.273 40.4772 165.626 42.4835 163.15 42.4835C160.441 42.4835 159.613 40.7237 159.856 37.1257C159.933 35.209 161.016 29.1002 165.46 29.1002C168.6 29.1002 168.843 32.1154 168.765 33.2811H178.239C178.327 26.0066 173.209 22.4984 165.703 22.4984C155.898 22.4984 149.63 29.941 149.63 37.4732ZM80.9395 26.7689L81.9343 23.1596H72.693L67.5086 48.5811H77.0704L79.8782 35.1193C80.453 32.4404 81.4478 30.2772 84.4988 30.2772C86.0575 30.2772 87.2182 31.1178 87.2182 32.6982C87.2182 33.707 86.7208 35.4557 86.4666 36.9689L84.0016 48.5811H93.3974L96.4484 34.2002C96.8574 32.362 97.1116 30.5237 97.1116 29.3468C97.1116 24.0787 92.9774 22.4984 89.6943 22.4984C85.56 22.4984 82.9292 24.5047 80.9395 26.7689ZM128.031 27.5984V27.5086L129.014 23.1596H119.784L114.577 48.5811H124.15L126.383 37.9663C127.367 33.2811 129.346 31.4428 132.397 31.4428C133.878 31.4428 134.785 31.5326 136.354 32.1155L138.167 23.4175C137.427 23.0812 136.598 23.0027 135.459 23.0027C132.397 23.0027 129.512 25.1773 128.031 27.5984ZM140.632 23.1596L135.459 48.5811H145.01L150.205 23.1596H140.632Z" fill="white"/>
</g>
</g>
</g>
</g>
</g>
</g>
</svg>
