<svg width="75" height="75" viewBox="0 0 75 75" fill="none" xmlns="http://www.w3.org/2000/svg">
<g id="hewlett-packard-logo 1" clip-path="url(#clip0_2669_170189)">
<g id="g3017">
<g id="g3061">
<g id="g3021">
<path id="path3023" d="M74.0882 37.8345C74.0882 17.517 57.619 1.04783 37.3015 1.04783C36.7476 1.04783 36.1964 1.06181 35.648 1.087L28.1234 21.7682H34.6772C38.5759 21.7682 40.6771 24.7702 39.3425 28.4367L30.0609 53.9441L22.2676 53.9427L32.2278 26.6028H26.3678L16.4077 53.9427H8.61168L20.3232 21.7682L27.3694 2.40615C11.8781 6.73991 0.514893 20.9596 0.514893 37.8345C0.514893 55.2101 12.5635 69.7711 28.7613 73.6223L35.5879 54.8618H35.5935L47.6365 21.7682H61.9906C65.8935 21.7682 67.9932 24.7702 66.6587 28.4367L58.5031 50.8399C57.882 52.5466 55.8886 53.9427 54.0728 53.9427H43.7266L36.209 74.6043C36.5713 74.6141 36.9364 74.6211 37.3015 74.6211C57.619 74.6211 74.0882 58.1506 74.0882 37.8345Z" fill="white"/>
</g>
<g id="g3025">
<path id="path3027" d="M59.5605 26.5831H53.7033L45.5002 49.0898H51.3574L59.5605 26.5831Z" fill="white"/>
</g>
</g>
</g>
</g>
<defs>
<clipPath id="clip0_2669_170189">
<rect width="73.7207" height="73.7207" fill="white" transform="translate(0.440918 0.972656)"/>
</clipPath>
</defs>
</svg>
