<svg width="238" height="41" viewBox="0 0 238 41" fill="none" xmlns="http://www.w3.org/2000/svg">
<g id="isvg-varonis-logo" clip-path="url(#clip0_2972_178303)">
<path id="Vector" d="M163.978 28.5187C164.356 32.1114 161.709 35.1368 158.305 35.515C157.927 35.515 157.549 35.515 157.17 35.515H155.469C151.876 35.8932 148.851 33.2459 148.472 29.8423C148.472 29.4641 148.472 29.086 148.472 28.7078C148.094 25.1151 150.741 22.0897 154.334 21.7115C154.712 21.7115 155.09 21.7115 155.469 21.7115H157.17C160.763 21.3333 163.788 23.9806 164.167 27.5733C163.978 27.7624 163.978 28.1405 163.978 28.5187ZM157.17 17.1734H154.901C149.04 16.7952 143.745 21.3333 143.367 27.1951C143.367 27.5733 143.367 28.1405 143.367 28.5187C142.989 34.3804 147.527 39.4858 153.389 40.0531C153.956 40.0531 154.334 40.0531 154.901 40.0531H157.17C163.032 40.4313 168.327 36.0822 168.705 30.0314C168.705 29.4641 168.705 29.086 168.705 28.5187C169.083 22.657 164.545 17.5516 158.494 17.1734C158.116 17.1734 157.549 17.1734 157.17 17.1734ZM206.144 17.1734C205.01 16.9843 203.875 17.9298 203.686 19.2534C203.686 19.4425 203.686 19.4425 203.686 19.6316V37.784C203.686 38.9186 204.632 40.0531 205.766 40.0531H205.955C207.279 40.0531 208.224 39.1077 208.413 37.9731V37.784V19.6316C208.413 18.3079 207.468 17.3625 206.333 17.1734H206.144ZM86.0732 20.9552C86.8295 20.0097 86.6404 18.497 85.695 17.7407L85.5059 17.5516C84.5605 16.7952 83.2368 16.9843 82.2914 17.9298L82.1023 18.1188L71.8915 33.2459L61.6808 18.1188C61.1135 16.9843 59.7899 16.7952 58.6554 17.3625L58.4663 17.5516C57.3317 18.1188 56.9536 19.6316 57.7099 20.577L57.899 20.7661C57.899 20.7661 70.0007 38.7295 70.1897 38.9186C70.9461 39.864 72.4588 40.0531 73.4042 39.2967C73.5933 39.1077 73.7824 39.1077 73.7824 38.9186C73.9715 38.9186 86.0732 20.9552 86.0732 20.9552ZM230.348 26.2496H222.028C220.893 26.4387 219.759 25.4933 219.759 24.3588C219.759 24.1697 219.759 23.9806 219.759 23.9806C219.57 22.8461 220.515 21.7115 221.65 21.7115C221.839 21.7115 222.028 21.7115 222.217 21.7115H234.508C235.642 21.7115 236.777 20.9552 236.777 19.6316V19.4425C236.777 18.3079 236.02 17.1734 234.697 17.1734H234.508H221.839C218.246 16.9843 215.221 19.6316 215.031 23.2242C215.031 23.6024 215.031 23.7915 215.031 24.1697C214.842 27.7624 217.49 30.7878 220.893 30.9769C221.271 30.9769 221.46 30.9769 221.839 30.9769H230.159C231.293 30.7878 232.428 31.7332 232.428 32.8677C232.428 33.0568 232.428 33.2459 232.428 33.2459C232.428 34.3804 231.671 35.3259 230.537 35.515C230.348 35.515 230.159 35.515 229.969 35.515H216.922C215.788 35.515 214.653 36.2713 214.653 37.5949V37.784C214.653 38.9186 215.41 40.0531 216.544 40.0531C216.733 40.0531 216.733 40.0531 216.922 40.0531H230.159C233.751 40.2422 236.777 37.5949 236.966 34.1914C236.966 33.8132 236.966 33.6241 236.966 33.2459C237.155 29.6532 234.508 26.6278 231.104 26.4387C230.915 26.2496 230.537 26.2496 230.348 26.2496ZM120.676 21.7115H131.076C132.589 21.7115 133.723 22.8461 133.723 24.3588C133.723 24.5479 133.723 24.5479 133.723 24.7369C133.913 26.2496 132.778 27.5733 131.454 27.7624H120.676V21.7115ZM115.76 19.4425V37.5949C115.76 38.9186 116.895 40.0531 118.218 40.0531C119.542 40.0531 120.676 38.9186 120.676 37.5949V32.1114H129.942L134.48 39.1077C134.858 39.6749 135.425 40.0531 136.182 40.0531H136.371C137.505 40.0531 138.451 38.9186 138.262 37.784V37.5949C138.262 37.2168 138.072 36.8386 137.883 36.6495L134.48 31.5441C136.938 30.4096 138.451 27.7624 138.262 25.1151V24.7369C138.262 24.7369 138.262 24.7369 138.262 24.5479V24.1697C138.262 19.8206 135.614 17.1734 131.643 17.1734H118.029C117.084 16.9843 115.949 17.9298 115.949 19.2534C115.949 19.2534 115.949 19.4425 115.76 19.4425ZM92.124 31.1659L97.0403 23.7915L101.957 31.1659H92.124ZM111.222 36.2713C111.222 36.2713 99.1203 18.3079 98.9312 18.1188C98.553 17.5516 97.7966 17.1734 97.0403 17.1734C96.2839 17.1734 95.5276 17.5516 95.1494 18.1188C94.9603 18.3079 82.8587 36.2713 82.8587 36.2713C82.1023 37.2168 82.2914 38.7295 83.2368 39.4858L83.4259 39.6749C84.3714 40.4313 85.695 40.2422 86.4513 39.2967C86.4513 39.1077 86.6404 39.1077 86.6404 38.9186L89.0986 35.1368H104.604L107.062 38.9186C107.629 40.0531 108.953 40.2422 110.087 39.6749L110.276 39.4858C111.6 38.9186 111.978 37.595 111.411 36.4604L111.222 36.2713ZM195.555 40.0531C194.421 40.2422 193.286 39.2967 193.286 38.1622C193.286 37.9731 193.286 37.9731 193.286 37.784V28.3296C193.475 24.926 191.017 21.9006 187.425 21.5224C187.046 21.5224 186.857 21.5224 186.479 21.5224H184.777C181.374 21.3333 178.348 23.7915 177.97 27.1951C177.97 27.5733 177.97 27.7624 177.97 28.1405V37.4059C178.159 38.5404 177.214 39.6749 176.079 39.864C175.89 39.864 175.701 39.864 175.512 39.864C174.377 40.0531 173.243 39.1077 173.054 37.784C173.054 37.5949 173.054 37.595 173.054 37.4059V28.3296C172.676 22.4679 177.025 17.5516 182.886 17.1734C183.454 17.1734 184.021 17.1734 184.399 17.1734H186.668C192.53 16.7952 197.635 21.1443 198.013 26.8169C198.013 27.3842 198.013 27.7624 198.013 28.3296V37.5949C198.013 38.7295 197.257 39.864 195.934 40.0531C195.934 40.0531 195.744 40.0531 195.555 40.0531Z" fill="white"/>
<path id="Vector_2" d="M49.2014 34.1879L37.667 17.1699L33.3179 23.5989L43.3396 38.3478C44.2851 40.0496 46.365 40.4278 47.8777 39.6714C48.0668 39.4824 48.2559 39.4824 48.445 39.2933C50.1468 38.3478 50.525 36.2678 49.5795 34.5661C49.3904 34.377 49.3904 34.377 49.2014 34.1879ZM26.5108 38.3478C27.4562 39.8605 29.3471 40.4278 31.0489 39.6714C31.238 39.4824 31.4271 39.4824 31.6161 39.2933C33.3179 38.3478 33.6961 36.2678 32.7507 34.7551C32.7507 34.5661 32.5616 34.5661 32.5616 34.377L29.3471 29.6498L24.998 36.0788L26.5108 38.3478Z" fill="white"/>
<path id="Vector_3" d="M26.3218 0.341797H17.6238L33.3181 23.5997L37.6672 17.1707L26.3218 0.341797ZM0.794922 0.341797L24.9982 36.0795L29.3473 29.6505L9.68208 0.530886H0.794922" fill="white"/>
</g>
<defs>
<clipPath id="clip0_2972_178303">
<rect width="236.36" height="39.7086" fill="white" transform="translate(0.794922 0.341797)"/>
</clipPath>
</defs>
</svg>
