<svg width="227" height="67" viewBox="0 0 227 67" fill="none" xmlns="http://www.w3.org/2000/svg">
<g id="Frame 3849" clip-path="url(#clip0_2979_177577)">
<g id="ONE_ZERO 1" clip-path="url(#clip1_2979_177577)">
<g id="Clip path group">
<mask id="mask0_2979_177577" style="mask-type:luminance" maskUnits="userSpaceOnUse" x="-534" y="-252" width="1466" height="634">
<g id="SVGID_4_">
<path id="use851" d="M931.142 -251.859H-533.607V381.211H931.142V-251.859Z" fill="white"/>
</g>
</mask>
<g mask="url(#mask0_2979_177577)">
<path id="path4" d="M33.4133 4.44779C17.2225 4.44779 4.13211 17.4514 4.13211 33.5348C4.13211 49.6182 17.2225 62.6218 33.4133 62.6218C49.6041 62.6218 62.6945 49.6182 62.6945 33.5348C62.6945 17.4514 49.6041 4.44779 33.4133 4.44779ZM66.4839 33.5348C66.4839 51.6714 51.671 66.386 33.4133 66.386C15.1556 66.386 0.342773 51.6714 0.342773 33.5348C0.342773 15.3982 15.1556 0.683594 33.4133 0.683594C51.671 0.683594 66.4839 15.3982 66.4839 33.5348Z" fill="white"/>
</g>
</g>
<g id="Clip path group_2">
<mask id="mask1_2979_177577" style="mask-type:luminance" maskUnits="userSpaceOnUse" x="-534" y="-252" width="1466" height="634">
<g id="SVGID_4__2">
<path id="use851_2" d="M931.142 -251.859H-533.607V381.211H931.142V-251.859Z" fill="white"/>
</g>
</mask>
<g mask="url(#mask1_2979_177577)">
<path id="rect6" d="M35.4818 11.9766H31.6925V55.0938H35.4818V11.9766Z" fill="white"/>
</g>
</g>
<g id="g928">
<g id="g856">
<g id="Clip path group_3">
<mask id="mask2_2979_177577" style="mask-type:luminance" maskUnits="userSpaceOnUse" x="-19" y="-23" width="263" height="114">
<g id="SVGID_4__3">
<path id="use851_3" d="M243.202 -22.5605H-18.8546V90.7011H243.202V-22.5605Z" fill="white"/>
</g>
</mask>
<g mask="url(#mask2_2979_177577)">
<path id="polygon854" d="M130.477 35.0505V44.1114H140.461V46.8664H127.457V22.8672H140.461V25.6222H130.477V32.3567H140.153V35.0505H130.477Z" fill="white"/>
</g>
</g>
</g>
<g id="g866">
<g id="Clip path group_4">
<mask id="mask3_2979_177577" style="mask-type:luminance" maskUnits="userSpaceOnUse" x="-19" y="-23" width="263" height="114">
<g id="SVGID_6_">
<path id="use861" d="M243.202 -22.5605H-18.8546V90.7011H243.202V-22.5605Z" fill="white"/>
</g>
</mask>
<g mask="url(#mask3_2979_177577)">
<path id="polygon864" d="M174.545 35.0505V44.1114H184.529V46.8664H171.587V22.8672H184.529V25.6222H174.545V32.3567H184.221V35.0505H174.545Z" fill="white"/>
</g>
</g>
</g>
<g id="g876">
<g id="Clip path group_5">
<mask id="mask4_2979_177577" style="mask-type:luminance" maskUnits="userSpaceOnUse" x="-19" y="-23" width="263" height="114">
<g id="SVGID_8_">
<path id="use871" d="M243.202 -22.5605H-18.8546V90.7011H243.202V-22.5605Z" fill="white"/>
</g>
</mask>
<g mask="url(#mask4_2979_177577)">
<path id="path874" d="M190.384 34.2546H191.37C194.452 34.2546 197.78 33.7036 197.78 29.8466C197.78 26.112 194.205 25.561 191.185 25.561H190.384V34.2546ZM202.402 46.8664H198.766L191.678 36.7035H190.446V46.8664H187.426V22.8672H191.062C193.219 22.8672 195.5 22.9284 197.41 23.9692C199.444 25.1324 200.553 27.3977 200.553 29.7241C200.553 33.1526 198.273 36.03 194.76 36.4586L202.402 46.8664Z" fill="white"/>
</g>
</g>
</g>
<g id="g886">
<g id="Clip path group_6">
<mask id="mask5_2979_177577" style="mask-type:luminance" maskUnits="userSpaceOnUse" x="-19" y="-23" width="263" height="114">
<g id="SVGID_10_">
<path id="use881" d="M243.202 -22.5605H-18.8546V90.7011H243.202V-22.5605Z" fill="white"/>
</g>
</mask>
<g mask="url(#mask5_2979_177577)">
<path id="polygon884" d="M121.604 46.8664H124.624V22.8672H121.604V42.091L106.504 22.8672H103.484V46.8664H106.504V27.5201L121.604 46.8664Z" fill="white"/>
</g>
</g>
</g>
<g id="g896">
<g id="Clip path group_7">
<mask id="mask6_2979_177577" style="mask-type:luminance" maskUnits="userSpaceOnUse" x="-19" y="-23" width="263" height="114">
<g id="SVGID_12_">
<path id="use891" d="M243.202 -22.5605H-18.8546V90.7011H243.202V-22.5605Z" fill="white"/>
</g>
</mask>
<g mask="url(#mask6_2979_177577)">
<path id="polygon894" d="M168.626 44.1114H155.129L168.626 25.6222V22.8672H153.219V25.6222H165.052L151.555 44.1114V46.8664H168.626V44.1114Z" fill="white"/>
</g>
</g>
</g>
<g id="g906">
<g id="Clip path group_8">
<mask id="mask7_2979_177577" style="mask-type:luminance" maskUnits="userSpaceOnUse" x="-19" y="-23" width="263" height="114">
<g id="SVGID_14_">
<path id="use901" d="M243.202 -22.5605H-18.8546V90.7011H243.202V-22.5605Z" fill="white"/>
</g>
</mask>
<g mask="url(#mask7_2979_177577)">
<path id="path904" d="M89.0617 25.3775C83.7614 25.3775 79.5089 29.663 79.5089 34.8669C79.5089 40.0709 83.823 44.3564 89.0617 44.3564C94.362 44.3564 98.6145 40.0709 98.6145 34.8669C98.6145 29.663 94.362 25.3775 89.0617 25.3775ZM101.511 34.8669C101.511 41.7239 95.9028 47.2339 89.0617 47.2339C82.159 47.2339 76.6122 41.6626 76.6122 34.8669C76.6122 28.0712 82.2206 22.5 89.0617 22.5C95.9644 22.5 101.511 28.01 101.511 34.8669Z" fill="white"/>
</g>
</g>
</g>
<g id="g916">
<g id="Clip path group_9">
<mask id="mask8_2979_177577" style="mask-type:luminance" maskUnits="userSpaceOnUse" x="-19" y="-23" width="263" height="114">
<g id="SVGID_16_">
<path id="use911" d="M243.202 -22.5605H-18.8546V90.7011H243.202V-22.5605Z" fill="white"/>
</g>
</mask>
<g mask="url(#mask8_2979_177577)">
<path id="path914" d="M214.296 25.3775C208.996 25.3775 204.743 29.663 204.743 34.8669C204.743 40.0709 209.057 44.3564 214.296 44.3564C219.596 44.3564 223.849 40.0709 223.849 34.8669C223.849 29.663 219.596 25.3775 214.296 25.3775ZM226.807 34.8669C226.807 41.7239 221.199 47.2339 214.358 47.2339C207.455 47.2339 201.908 41.6626 201.908 34.8669C201.908 28.0712 207.517 22.5 214.358 22.5C221.199 22.5 226.807 28.01 226.807 34.8669Z" fill="white"/>
</g>
</g>
</g>
</g>
</g>
</g>
<defs>
<clipPath id="clip0_2979_177577">
<rect width="227" height="67" fill="white"/>
</clipPath>
<clipPath id="clip1_2979_177577">
<rect width="227.36" height="68.44" fill="white"/>
</clipPath>
</defs>
</svg>
