<svg width="849" height="198" viewBox="0 0 849 198" fill="none" xmlns="http://www.w3.org/2000/svg">
<g clip-path="url(#clip0_3205_172814)">
<path d="M139.66 86.925H151.381V77.9435H139.66V68.8809H129.43V108.747C129.43 115.28 133.499 119.511 139.79 119.511H151.495V110.141H139.66V86.925Z" fill="white"/>
<path d="M186.644 79.8067C183.288 77.9423 179.494 77.002 175.36 77.002C171.226 77.002 167.432 77.9423 164.076 79.8067C160.72 81.6711 158.045 84.2974 156.132 87.5885C154.219 90.8796 153.247 94.6246 153.247 98.7262C153.247 102.828 154.219 106.524 156.132 109.815C158.045 113.106 160.72 115.733 164.076 117.613C167.432 119.494 171.226 120.434 175.36 120.434C179.494 120.434 183.288 119.478 186.644 117.613C190 115.733 192.675 113.106 194.588 109.815C196.501 106.524 197.473 102.795 197.473 98.7262C197.473 94.657 196.501 90.912 194.588 87.6047C192.675 84.2974 190 81.6711 186.644 79.8067ZM187.065 98.7262C187.065 102.228 185.963 105.13 183.774 107.367C181.585 109.588 178.765 110.723 175.36 110.723C171.955 110.723 169.134 109.588 166.946 107.367C164.757 105.13 163.655 102.228 163.655 98.7262C163.655 95.2244 164.757 92.3224 166.946 90.0852C169.134 87.8641 171.955 86.7292 175.36 86.7292C178.765 86.7292 181.585 87.8641 183.774 90.0852C185.963 92.3224 187.065 95.2244 187.065 98.7262Z" fill="white"/>
<path d="M202.304 87.1687V119.561H212.534V87.0714H224.434V77.7656H211.967C205.757 77.7656 202.32 83.3264 202.32 87.1687H202.304Z" fill="white"/>
<path d="M260.522 77.9253V81.3622C257.069 78.6548 252.691 77.0336 247.731 76.9688C244.812 77.0012 242.024 77.5362 239.462 78.6062C236.836 79.6924 234.339 81.346 232.475 83.2429C230.659 85.091 229.168 87.4094 228.065 90.1654C226.93 92.9864 226.347 95.8721 226.347 98.7741C226.347 101.676 226.947 104.74 228.081 107.545C229.087 110.042 230.562 112.263 232.588 114.338C234.404 116.202 236.787 117.791 239.479 118.91C242.008 119.963 244.812 120.482 248.055 120.482C252.627 120.482 256.193 119.396 259.906 116.867L259.954 133.695H270.249V77.9253H260.538H260.522ZM257.02 107.253C254.588 109.701 252.092 110.739 248.638 110.739C245.007 110.739 242.267 109.669 239.981 107.35C237.614 104.951 236.544 102.308 236.544 98.7741C236.544 95.2399 237.711 92.4838 240.111 90.0357C242.364 87.7498 245.007 86.7285 248.655 86.7285C251.978 86.7285 254.637 87.8309 257.004 90.1979C259.371 92.5648 260.425 95.1912 260.425 98.7417C260.425 102.292 259.371 104.886 257.02 107.269V107.253Z" fill="white"/>
<path d="M326.488 81.3147C326.488 79.2882 324.251 77.4238 321.949 77.4238H301.732V86.9404H326.472V81.2985L326.488 81.3147Z" fill="white"/>
<path d="M326.489 93.8496H281.646V103.382H326.489V93.8496Z" fill="white"/>
<path d="M281.678 110.253V115.748C281.678 117.824 283.915 119.769 286.234 119.769H306.856V110.236H281.678V110.253Z" fill="white"/>
</g>
<path d="M717.001 95.9997C717.001 65.5235 692.297 40.8198 661.821 40.8198C660.99 40.8198 660.163 40.8408 659.34 40.8785L648.053 71.9003H657.884C663.732 71.9003 666.884 76.4034 664.882 81.9031L650.96 120.164L639.27 120.162L654.21 79.1522H645.42L630.48 120.162H618.786L636.353 71.9003L646.922 42.8573C623.685 49.3579 606.641 70.6875 606.641 95.9997C606.641 122.063 624.714 143.905 649.01 149.681L659.25 121.541H659.259L677.323 71.9003H698.854C704.708 71.9003 707.858 76.4034 705.856 81.9031L693.623 115.508C692.691 118.068 689.701 120.162 686.978 120.162H671.458L660.182 151.155C660.725 151.169 661.273 151.18 661.821 151.18C692.297 151.18 717.001 126.474 717.001 95.9997Z" fill="white"/>
<path d="M695.209 79.1168H686.423L674.118 112.877H682.904L695.209 79.1168Z" fill="white"/>
<defs>
<clipPath id="clip0_3205_172814">
<rect width="197.059" height="64.8" fill="white" transform="translate(129.431 68.8848)"/>
</clipPath>
</defs>
</svg>
