<svg width="1816" height="150" viewBox="0 0 1816 150" fill="none" xmlns="http://www.w3.org/2000/svg">
<g clip-path="url(#clip0_3189_172220)">
<mask id="mask0_3189_172220" style="mask-type:luminance" maskUnits="userSpaceOnUse" x="20" y="48" width="186" height="86">
<path d="M205.307 48.8223H20V133.178H205.307V48.8223Z" fill="white"/>
</mask>
<g mask="url(#mask0_3189_172220)">
<path d="M79.5339 114.641C79.5339 113.449 80.6616 112.854 81.9396 112.854C83.2927 112.854 84.4956 113.449 85.0968 114.715L88.1039 113.077C86.9762 110.918 84.7211 109.652 81.9396 109.652C78.5567 109.652 75.8504 111.588 75.8504 114.715C75.8504 120.597 84.7962 118.959 84.7962 121.937C84.7962 123.277 83.5934 123.798 81.9396 123.798C80.1353 123.798 78.7822 122.905 78.2559 121.416L75.1738 123.203C76.2262 125.585 78.6319 127.074 81.9396 127.074C85.5479 127.074 88.4046 125.288 88.4046 122.012C88.4799 115.832 79.5339 117.619 79.5339 114.641Z" fill="white"/>
<path d="M108.93 118.363C108.93 113.598 105.547 109.652 100.586 109.652C95.3984 109.652 91.79 113.449 91.79 118.289C91.79 123.203 95.3232 126.926 100.811 126.926C104.044 126.926 106.6 125.585 108.103 123.352L105.171 121.639C104.344 122.831 102.916 123.65 100.886 123.65C98.255 123.65 96.1501 122.309 95.5487 119.778H108.78C108.855 119.406 108.93 118.885 108.93 118.363ZM95.5487 116.949C96.075 114.492 97.8792 112.928 100.586 112.928C102.766 112.928 104.87 114.12 105.322 116.949H95.5487Z" fill="white"/>
<path d="M125.772 120.967C124.946 122.456 123.367 123.499 121.337 123.499C118.405 123.499 116.15 121.265 116.15 118.361C116.15 115.458 118.405 113.224 121.337 113.224C123.292 113.224 124.946 114.192 125.697 115.755L128.779 113.968C127.426 111.363 124.645 109.725 121.337 109.725C116.3 109.725 112.542 113.447 112.542 118.361C112.542 123.275 116.3 126.998 121.337 126.998C124.57 126.998 127.426 125.36 128.779 122.679L125.772 120.967Z" fill="white"/>
<path d="M144.263 110.098V118.958C144.263 122.308 142.383 123.723 140.053 123.723C137.798 123.723 136.369 122.383 136.369 119.926V110.098H132.761V120.223C132.761 124.542 135.392 126.999 139.151 126.999C141.406 126.999 143.21 126.18 144.338 124.467V126.552H147.946V110.098H144.263Z" fill="white"/>
<path d="M157.119 112.85V110.095H153.511V126.549H157.119V118.285C157.119 114.636 159.901 113.52 162.231 113.668V109.797C160.201 109.797 158.171 110.616 157.119 112.85Z" fill="white"/>
<path d="M166.444 110.098V126.552H170.053V110.098H166.444Z" fill="white"/>
<path d="M185.007 113.523V110.099H180.872V105.482L177.264 106.525V110.099H174.182V113.523H177.264V121.415C177.264 125.734 179.444 127.223 185.007 126.553V123.351C182.301 123.5 180.872 123.5 180.872 121.415V113.523H185.007Z" fill="white"/>
<path d="M201.235 110.098L196.95 122.085L191.988 110.098H188.079L195.146 126.254L194.995 126.552C194.168 128.711 192.89 129.902 190.56 129.753V133.104C194.394 133.327 197.1 131.243 198.679 127.073L205.069 110.098H201.235Z" fill="white"/>
<path d="M44.4235 48.8223C41.5669 48.8223 38.7855 49.269 36.2295 50.1624C40.2138 53.2895 43.4464 57.3845 45.3258 62.224C50.8887 62.6707 55.0233 66.8401 55.0233 72.9453C55.0233 79.0506 50.9639 83.2199 45.4761 83.6667C43.5967 88.5061 40.4393 92.6756 36.455 95.7282C38.9358 96.5471 41.6421 96.994 44.4235 96.994C57.9551 96.994 68.8557 86.496 68.8557 72.8708C68.8557 59.3203 57.9551 48.8223 44.4235 48.8223Z" fill="white"/>
<path d="M24.8827 58.3516C24.0558 59.3939 23.304 60.5852 22.7026 61.7764C26.0855 64.3823 28.2656 68.4028 28.2656 73.019C28.2656 77.6352 26.1607 81.6557 22.7778 84.187C23.4544 85.3782 24.2061 86.5695 25.0331 87.6118C29.8443 84.5594 33.0017 79.1986 33.0017 73.019C32.9265 66.7649 29.7691 61.4042 24.8827 58.3516Z" fill="white"/>
<path d="M39.1647 82.4023C37.3605 86.7206 34.3535 90.2944 30.5195 92.8259C31.7975 93.6448 33.1507 94.3894 34.579 94.985C38.5633 92.1558 41.7206 88.2098 43.6751 83.5936C42.0214 83.5936 40.5178 83.1469 39.1647 82.4023Z" fill="white"/>
<path d="M34.3598 50.9082C32.9314 51.5038 31.5783 52.2484 30.3755 53.1418C34.2094 55.6733 37.2164 59.247 39.0958 63.4909C40.449 62.7464 41.9525 62.2996 43.6063 62.2252C41.5766 57.6091 38.4193 53.7374 34.3598 50.9082Z" fill="white"/>
<path d="M28.9426 54.1797C27.8901 55.0731 26.8377 55.9666 25.9355 57.0089C30.2957 59.7637 33.3027 64.231 34.28 69.5172C34.8814 67.4325 36.0842 65.6456 37.6629 64.4543C35.8587 60.136 32.8517 56.5622 28.9426 54.1797Z" fill="white"/>
<path d="M34.365 76.4453C33.4629 81.7316 30.3807 86.1987 26.0957 88.9535C26.9978 89.9958 28.0503 90.9638 29.1779 91.7827C33.087 89.3259 36.094 85.7521 37.823 81.5081C36.1692 80.2424 34.9664 78.5299 34.365 76.4453Z" fill="white"/>
<path d="M21.9546 63.3398C20.6766 66.2435 20 69.5196 20 72.9444C20 76.4438 20.7518 79.7197 22.0297 82.6979C24.8112 80.4643 26.5402 76.9649 26.5402 73.0189C26.5402 69.0728 24.8112 65.5735 21.9546 63.3398Z" fill="white"/>
<path d="M102.919 49.1953V64.6817C97.2062 63.7883 89.0872 66.0219 89.0872 75.1053V95.729H75.2549V50.0888H83.0732C85.8547 50.0888 88.1098 51.9501 88.8618 54.4071C92.395 51.0567 97.3565 49.3442 102.243 49.1953C102.243 49.1953 102.243 49.1953 102.318 49.1953C102.468 49.1953 102.694 49.1953 102.919 49.1953Z" fill="white"/>
<path d="M140.354 78.6761C138.55 81.8775 135.167 83.8134 131.183 83.8134C125.169 83.8134 120.583 79.495 120.583 73.0177C120.583 66.5401 125.169 62.2218 131.183 62.2218C135.167 62.2218 138.475 64.0831 140.354 67.2102L152.157 60.4349C147.872 53.4362 140.129 48.8945 131.183 48.8945C117.651 48.8945 106.751 59.3925 106.751 73.0177C106.751 86.6426 117.651 97.1407 131.183 97.1407C140.204 97.1407 148.022 92.5245 152.232 85.4514L140.354 78.6761Z" fill="white"/>
<path d="M197.496 50.088C194.79 50.088 192.46 51.8749 191.708 54.4063C188.55 50.907 183.965 48.8223 177.725 48.8223C165.622 48.8223 155.699 59.3203 155.699 72.9453C155.699 86.5704 165.622 97.0683 177.725 97.0683C183.965 97.0683 188.55 94.9836 191.708 91.4843C192.46 93.9413 194.715 95.8027 197.496 95.8027H205.315V72.9453V50.088H197.496ZM180.206 83.7412C174.192 83.7412 169.606 79.4228 169.606 72.9453C169.606 66.4678 174.192 62.1495 180.206 62.1495C186.22 62.1495 190.806 66.4678 190.806 72.9453C190.806 79.4228 186.145 83.7412 180.206 83.7412Z" fill="white"/>
</g>
</g>
<g clip-path="url(#clip1_3189_172220)">
<mask id="mask1_3189_172220" style="mask-type:luminance" maskUnits="userSpaceOnUse" x="-374" y="-398" width="2418" height="1046">
<path d="M2043.02 -397.025H-373.814V647.54H2043.02V-397.025Z" fill="white"/>
</mask>
<g mask="url(#mask1_3189_172220)">
<path d="M561.77 25.8809C535.055 25.8809 513.456 47.3368 513.456 73.8744C513.456 100.412 535.055 121.868 561.77 121.868C588.484 121.868 610.084 100.412 610.084 73.8744C610.084 47.3368 588.484 25.8809 561.77 25.8809ZM616.336 73.8744C616.336 103.8 591.895 128.079 561.77 128.079C531.644 128.079 507.203 103.8 507.203 73.8744C507.203 43.949 531.644 19.6699 561.77 19.6699C591.895 19.6699 616.336 43.949 616.336 73.8744Z" fill="white"/>
</g>
<mask id="mask2_3189_172220" style="mask-type:luminance" maskUnits="userSpaceOnUse" x="-374" y="-398" width="2418" height="1046">
<path d="M2043.02 -397.025H-373.814V647.54H2043.02V-397.025Z" fill="white"/>
</mask>
<g mask="url(#mask2_3189_172220)">
<path d="M565.182 38.3047H558.93V109.448H565.182V38.3047Z" fill="white"/>
</g>
<mask id="mask3_3189_172220" style="mask-type:luminance" maskUnits="userSpaceOnUse" x="475" y="-19" width="433" height="188">
<path d="M907.919 -18.6855H475.526V168.196H907.919V-18.6855Z" fill="white"/>
</mask>
<g mask="url(#mask3_3189_172220)">
<path d="M721.924 76.3739V91.3244H738.398V95.8702H716.941V56.2715H738.398V60.8173H721.924V71.9291H737.89V76.3739H721.924Z" fill="white"/>
</g>
<mask id="mask4_3189_172220" style="mask-type:luminance" maskUnits="userSpaceOnUse" x="475" y="-19" width="433" height="188">
<path d="M907.919 -18.6855H475.526V168.196H907.919V-18.6855Z" fill="white"/>
</mask>
<g mask="url(#mask4_3189_172220)">
<path d="M794.636 76.3739V91.3244H811.11V95.8702H789.755V56.2715H811.11V60.8173H794.636V71.9291H810.602V76.3739H794.636Z" fill="white"/>
</g>
<mask id="mask5_3189_172220" style="mask-type:luminance" maskUnits="userSpaceOnUse" x="475" y="-19" width="433" height="188">
<path d="M907.919 -18.6855H475.526V168.196H907.919V-18.6855Z" fill="white"/>
</mask>
<g mask="url(#mask5_3189_172220)">
<path d="M820.771 75.0607H822.398C827.482 75.0607 832.974 74.1515 832.974 67.7874C832.974 61.6254 827.076 60.7162 822.093 60.7162H820.771V75.0607ZM840.601 95.8702H834.601L822.906 79.1014H820.873V95.8702H815.89V56.2715H821.889C825.449 56.2715 829.211 56.3725 832.364 58.0898C835.72 60.0091 837.55 63.7468 837.55 67.5854C837.55 73.2424 833.787 77.9902 827.991 78.6973L840.601 95.8702Z" fill="white"/>
</g>
<mask id="mask6_3189_172220" style="mask-type:luminance" maskUnits="userSpaceOnUse" x="475" y="-19" width="433" height="188">
<path d="M907.919 -18.6855H475.526V168.196H907.919V-18.6855Z" fill="white"/>
</mask>
<g mask="url(#mask6_3189_172220)">
<path d="M707.283 95.8702H712.266V56.2715H707.283V87.9909L682.369 56.2715H677.386V95.8702H682.369V63.9488L707.283 95.8702Z" fill="white"/>
</g>
<mask id="mask7_3189_172220" style="mask-type:luminance" maskUnits="userSpaceOnUse" x="475" y="-19" width="433" height="188">
<path d="M907.919 -18.6855H475.526V168.196H907.919V-18.6855Z" fill="white"/>
</mask>
<g mask="url(#mask7_3189_172220)">
<path d="M784.871 91.3205H762.6L784.871 60.8133V56.2676H759.448V60.8133H778.973L756.702 91.3205V95.8663H784.871V91.3205Z" fill="white"/>
</g>
<mask id="mask8_3189_172220" style="mask-type:luminance" maskUnits="userSpaceOnUse" x="475" y="-19" width="433" height="188">
<path d="M907.919 -18.6855H475.526V168.196H907.919V-18.6855Z" fill="white"/>
</mask>
<g mask="url(#mask8_3189_172220)">
<path d="M653.589 60.408C644.843 60.408 637.826 67.4792 637.826 76.0656C637.826 84.6521 644.945 91.7233 653.589 91.7233C662.334 91.7233 669.351 84.6521 669.351 76.0656C669.351 67.4792 662.334 60.408 653.589 60.408ZM674.13 76.0656C674.13 87.3795 664.876 96.4711 653.589 96.4711C642.199 96.4711 633.047 87.2785 633.047 76.0656C633.047 64.8527 642.301 55.6602 653.589 55.6602C664.978 55.6602 674.13 64.7517 674.13 76.0656Z" fill="white"/>
</g>
<mask id="mask9_3189_172220" style="mask-type:luminance" maskUnits="userSpaceOnUse" x="475" y="-19" width="433" height="188">
<path d="M907.919 -18.6855H475.526V168.196H907.919V-18.6855Z" fill="white"/>
</mask>
<g mask="url(#mask9_3189_172220)">
<path d="M860.225 60.408C851.48 60.408 844.463 67.4792 844.463 76.0656C844.463 84.6521 851.581 91.7233 860.225 91.7233C868.971 91.7233 875.987 84.6521 875.987 76.0656C875.987 67.4792 868.971 60.408 860.225 60.408ZM880.869 76.0656C880.869 87.3795 871.615 96.4711 860.327 96.4711C848.937 96.4711 839.785 87.2785 839.785 76.0656C839.785 64.8527 849.039 55.6602 860.327 55.6602C871.615 55.6602 880.869 64.7517 880.869 76.0656Z" fill="white"/>
</g>
</g>
<path d="M1241.37 95.2793L1234.43 97.25C1235.04 99.0359 1235.52 102.241 1235.52 106.552V127.742H1243.3V105.323C1244.75 103.537 1246.32 102.673 1248.01 102.673C1248.85 102.673 1249.52 102.855 1250.24 103.29L1252.35 95.9588C1251.14 95.4043 1250.6 95.2819 1249.45 95.2819C1248.61 95.2819 1247.58 95.4641 1246.92 95.7765C1245.47 96.5159 1243.66 98.1794 1242.52 99.7804C1242.52 97.9945 1242.1 96.5783 1241.37 95.2845L1241.37 95.2793ZM1214.56 84.8088H1213.72V127.685H1221.8V108.707H1231.99V101.626H1221.8V91.7701H1234.53L1235.01 88.0109C1228.12 87.5063 1221.28 86.4346 1214.56 84.8062L1214.56 84.8088ZM1195.68 133.412L1199.42 137.848C1203.04 136.37 1207.56 133.043 1208.77 127.748C1209.19 126.022 1209.31 124.91 1209.31 119.308V84.8687H1201.17V120.229C1201.17 124.85 1200.99 126.574 1200.39 128.177C1199.6 129.963 1197.73 132.056 1195.68 133.41L1195.68 133.412ZM1269.09 111.667C1269.09 119.183 1267.64 122.387 1264.32 122.387C1262.81 122.387 1261.12 121.528 1260.4 119.8C1259.8 118.199 1259.43 115.489 1259.43 111.792C1259.43 108.65 1259.73 106.429 1260.22 104.711C1260.82 102.74 1262.33 101.509 1264.2 101.509C1265.59 101.509 1266.79 102.126 1267.52 103.175C1268.6 104.654 1269.08 107.426 1269.08 111.677L1269.09 111.667ZM1273.85 123.988C1276.39 120.909 1277.53 117.15 1277.53 111.727C1277.53 106.614 1276.51 103.102 1274.16 100.142C1271.62 96.9402 1268.37 95.3991 1264.15 95.3991C1256.18 95.3991 1250.88 101.991 1250.88 111.972C1250.88 121.953 1256.13 128.359 1264.15 128.359C1268.67 128.422 1271.62 126.693 1273.83 123.986L1273.85 123.988ZM1295.93 106.247C1295.93 109.142 1294.24 110.743 1291.22 110.743C1288.51 110.743 1286.7 109.449 1286.7 106.247C1286.7 103.29 1288.39 101.566 1291.28 101.566C1294.17 101.566 1295.93 103.292 1295.93 106.247ZM1309.62 99.4706L1306.44 94.2588C1304.66 95.9848 1302.46 96.9662 1300.33 96.9662C1299.36 96.9662 1298.82 96.8439 1296.71 96.2894C1294.99 95.752 1293.2 95.4817 1291.4 95.4876C1283.86 95.4876 1278.98 99.6789 1278.98 106.208C1278.98 110.889 1281.03 113.846 1285.31 115.017C1283.56 115.45 1281.69 116.371 1280.85 117.42C1280.25 118.16 1279.94 119.146 1279.94 120.315C1279.94 121.214 1280.15 122.101 1280.55 122.903C1280.97 123.58 1281.52 124.134 1282.24 124.444C1283.63 124.999 1285.86 125.368 1289.3 125.433L1292.56 125.496C1294.67 125.618 1295.75 125.99 1296.6 126.42C1297.38 126.915 1297.98 128.021 1297.98 129.258C1297.98 130.494 1297.26 131.723 1296.11 132.46C1295.09 133.199 1293.4 133.506 1291.23 133.506C1287.67 133.506 1285.68 132.152 1285.68 129.627C1285.68 128.518 1285.8 128.273 1286.04 127.597H1278.94C1278.64 128.214 1278.28 129.075 1278.28 130.799C1278.28 132.954 1279.07 134.803 1280.69 136.404C1283.34 139.054 1287.69 139.793 1291.85 139.793C1296.44 139.793 1300.9 138.684 1303.49 135.727C1305.12 133.904 1305.85 131.848 1305.85 129.198C1305.85 126.36 1305.06 124.207 1303.31 122.421C1301.26 120.391 1298.91 119.649 1294.39 119.584L1290.22 119.521C1289.44 119.521 1288.96 119.214 1288.96 118.782C1288.96 117.923 1290.04 117.181 1292.03 116.194L1293.18 116.257C1299.45 116.257 1304.04 112.315 1304.04 106.833C1304.04 104.737 1303.43 103.136 1302.29 101.657C1303.26 101.78 1303.56 101.84 1304.28 101.84C1306.33 101.84 1307.96 101.163 1309.65 99.4966L1309.62 99.4706ZM1212.51 47.5348C1202.86 49.9377 1196.28 54.6809 1196.28 60.1009C1196.28 63.4904 1198.82 66.5701 1202.98 68.973C1201.71 66.9424 1201.05 64.7218 1201.05 62.5038C1201.11 56.8989 1205.39 51.6611 1212.51 47.5348ZM1314.32 68.7881C1314.32 65.2138 1312.15 61.9493 1308.53 59.2393C1308.83 60.3483 1309.07 61.4573 1309.07 62.5663C1309.07 72.7321 1295.14 81.4792 1275.36 85.1108C1277.66 85.3616 1279.98 85.485 1282.29 85.4805C1299.97 85.418 1314.32 77.9674 1314.32 68.7881ZM1302.92 63.2431C1302.92 59.484 1299.79 56.032 1294.42 53.2022C1295.68 54.7434 1296.35 56.4043 1296.35 58.1303C1296.35 67.1897 1277.53 74.518 1254.25 74.518C1231.03 74.518 1212.15 67.1871 1212.15 58.1303C1212.15 56.9579 1212.46 55.8078 1213.06 54.8032C1209.32 57.3284 1207.21 60.2233 1207.21 63.3056C1207.21 73.1018 1228.62 81.0471 1255.04 81.0471C1281.46 81.0471 1302.93 72.9769 1302.93 63.2405L1302.92 63.2431ZM1282.05 62.7485C1272.28 69.1526 1242.25 71.6205 1229.34 63.3655C1219.21 56.8963 1222.7 46.6081 1193.69 24.0609C1189.9 21.1036 1194.42 17.9614 1197.25 19.9946C1200.09 22.0277 1197.49 22.5198 1203.22 28.372C1214.8 40.1987 1214.68 29.5435 1216.49 33.6046C1220.35 42.0445 1228.8 50.5469 1228.8 50.5469C1237.3 56.2142 1244.06 57.4456 1256.6 48.761C1264.57 43.2785 1261.31 57.5081 1280.79 47.2198C1287.91 43.4607 1287.61 45.9885 1294.84 35.7003C1297.86 31.4491 1303.59 38.9648 1297.08 40.0113C1294.48 40.4435 1290.08 43.3383 1288.21 47.8993C1285.49 54.7382 1286.64 59.7886 1282.06 62.7459L1282.05 62.7485ZM1227.89 45.3767C1225.48 44.2677 1222.95 40.079 1221.98 38.4155C1224.69 35.7081 1223.61 31.2044 1222.04 28.7442C1220.53 26.2789 1218.66 26.9584 1216.67 24.6779C1214.62 22.3974 1217.46 16.4853 1220.05 21.0437C1229.73 38.1083 1236.15 31.0247 1244.05 29.973C1251.65 28.9837 1258.41 33.2375 1260.46 21.2259C1260.82 19.2552 1262.69 18.8231 1262.87 22.0277C1263.05 25.2923 1264.26 33.1777 1268.42 34.1643C1272.58 35.2108 1275.96 33.1751 1276.93 32.0687C1277.89 30.9623 1278.44 31.0794 1278.86 33.891C1279.28 36.6635 1280.37 40.545 1286.21 36.2339C1298.22 27.4869 1294.78 24.0974 1299.48 21.8195C1302.13 20.5256 1306.36 24.7143 1300.27 27.8591C1291.58 32.355 1290.68 37.9 1285.19 41.4119C1275.96 47.3266 1278.8 41.6592 1263.96 39.5011C1258.23 38.6992 1256.42 45.1684 1251.95 43.3201C1241.76 39.009 1234.58 39.8707 1227.89 45.3507L1227.89 45.3767ZM1260.04 13.7727C1260.4 16.3604 1260.82 16.2979 1261.73 16.4801C1262.63 16.7274 1263.78 15.2488 1263.78 13.8924C1263.84 12.4762 1263.18 11.612 1261.85 11.6744C1260.46 11.7369 1259.98 12.4138 1260.07 13.7701L1260.04 13.7727ZM1304.67 18.3935C1305.75 19.4401 1308.65 18.7632 1309.31 17.9614C1311.06 15.9907 1311.1 14.8192 1310.22 13.4655C1309.31 12.1717 1307.44 12.3565 1305.57 13.7727C1303.71 15.1889 1304.06 17.839 1304.67 18.3935ZM1303.88 31.4543C1302.98 32.6856 1302.91 33.6098 1303.58 34.2919C1304.31 35.0312 1305.75 35.6456 1306.78 34.8464C1307.8 33.9873 1307.8 32.7507 1306.96 31.7042C1306.05 30.5952 1304.85 30.5952 1303.88 31.4569L1303.88 31.4543ZM1212.35 16.0558C1213.74 16.4879 1214.41 17.8416 1215.55 16.3031C1216.15 15.5638 1216.21 14.5172 1215.43 13.4082C1214.95 12.7314 1212.65 12.2367 1211.69 13.226C1210.73 14.2152 1211.63 15.8137 1212.35 16.0636V16.0558ZM1184.07 15.1967C1186.6 16.7977 1188.23 19.2006 1190.18 17.019C1190.85 16.2797 1191.63 14.9884 1190.25 12.3981C1189.22 10.4873 1185.9 9.74799 1184.76 10.4873C1183.55 11.1642 1182.11 13.9367 1184.1 15.1681L1184.07 15.1967ZM1207.41 27.4582C1208.19 28.3173 1209.58 28.26 1210.42 27.7654C1211.21 27.2708 1211.09 25.9795 1210.3 24.8705C1209.82 24.1937 1208.38 23.824 1207.41 24.8705C1206.44 25.9171 1206.87 26.8412 1207.41 27.4582Z" fill="white"/>
<path d="M1628.55 96.4977C1620.91 96.4977 1617.89 92.1128 1619.18 84.8056L1622.57 65.5147H1615.65L1616.97 57.9869H1623.88L1625.98 46.0742H1635.08L1632.99 57.9869H1642.53L1641.2 65.5147H1631.67L1628.42 84.0021C1627.91 86.9245 1629 88.1677 1631.91 88.1677C1633.9 88.1731 1635.89 88.0507 1637.87 87.8015L1636.52 95.475C1633.92 96.14 1631.24 96.4835 1628.55 96.4977Z" fill="white"/>
<path d="M1641.51 95.7773L1648.15 57.9863H1657.35L1650.71 95.7773H1641.51Z" fill="white"/>
<path d="M1764.23 96.4977C1756.59 96.4977 1753.57 92.1128 1754.85 84.8056L1758.24 65.5147H1751.33L1752.65 57.9869H1759.57L1761.66 46.0742H1770.76L1768.67 57.9869H1778.21L1776.89 65.5147H1767.35L1764.1 84.0021C1763.59 86.9245 1764.68 88.1677 1767.59 88.1677C1769.58 88.173 1771.58 88.0507 1773.55 87.8015L1772.21 95.475C1769.6 96.1405 1766.92 96.484 1764.23 96.4977Z" fill="white"/>
<path d="M1777.19 95.7773L1783.83 57.9863H1793.02L1786.38 95.7773H1777.19Z" fill="white"/>
<path d="M1684.22 93.7997C1681.57 95.6879 1678.33 96.8501 1674.5 96.8501C1670.01 96.8501 1666.67 95.252 1665.31 93.147L1662.28 110.358H1653.24L1662.41 58.1453H1670.86L1670.07 62.2856C1672.93 58.7993 1677.4 57.2734 1681.52 57.2734C1685.28 57.2734 1688.09 58.5813 1690.07 60.4696C1693.91 64.1688 1695.15 69.8375 1693.91 76.9509C1692.61 84.3595 1689.36 90.0966 1684.22 93.7997ZM1683.93 67.8199C1682.92 66.1496 1681.2 64.8405 1678.38 64.8405C1671.28 64.8405 1668.65 71.599 1667.69 77.0497C1666.73 82.5004 1667.01 89.1854 1674.1 89.1854C1676.92 89.1854 1679.11 87.8775 1680.71 86.206C1683.02 83.736 1684.13 80.3194 1684.7 77.0497C1685.28 73.7801 1685.38 70.2912 1683.93 67.8199Z" fill="white"/>
<path d="M1723.81 96.468C1719.89 96.468 1718.16 93.9968 1718.37 91.1618C1716.1 94.2147 1711.29 96.8304 1705.93 96.8304C1696.96 96.8304 1693.32 91.1618 1694.4 84.985C1695.67 77.7905 1701.97 73.6489 1709.23 73.1395L1720.45 72.3411L1720.85 70.0156C1721.48 66.4545 1720.67 64.0593 1715.53 64.0593C1711.33 64.0593 1708.54 65.9488 1707.7 69.4377H1698.95C1700.95 60.9353 1708.34 57.1562 1716.74 57.1562C1723.18 57.1562 1728.33 59.1915 1729.51 64.8589C1730.03 67.2579 1729.7 69.9459 1729.25 72.4894L1726.79 86.5121C1726.48 88.2559 1726.95 88.9098 1728.47 88.9098C1728.86 88.9017 1729.26 88.8529 1729.65 88.7641L1728.48 95.4504C1726.84 96.1043 1725.98 96.468 1723.81 96.468ZM1719.26 79.0907L1709.58 79.8169C1706.79 80.0349 1703.82 81.7064 1703.28 84.7594C1702.78 87.6666 1704.99 89.4839 1707.81 89.4839C1713.46 89.4839 1717.97 86.431 1718.96 80.8358L1719.26 79.0907Z" fill="white"/>
<path d="M1742.7 96.2832C1736.55 96.2832 1732.94 93.3038 1734.21 86.1093L1741.23 46.0625H1750.35L1743.6 84.5784C1743.22 86.7582 1743.47 88.2118 1746.58 88.2118C1747.38 88.2118 1747.61 88.1382 1748.11 88.1382L1746.77 95.7687C1744.9 96.1375 1744.51 96.2832 1742.7 96.2832Z" fill="white"/>
<path d="M1796 39.9232C1796.04 41.2002 1795.74 42.4659 1795.14 43.5918C1794.54 44.7178 1793.65 45.664 1792.57 46.3345C1791.49 47.0049 1790.25 47.3758 1788.97 47.4094C1787.7 47.443 1786.44 47.1382 1785.33 46.5259C1785.2 46.4511 1785.07 46.3764 1784.95 46.3041C1784.94 46.294 1784.94 46.2902 1784.93 46.2902C1765.94 35.0834 1743.67 28.9712 1720.02 29.7595C1695.79 30.568 1673.47 38.5102 1655 51.5178C1654.91 51.5812 1654.81 51.6445 1654.71 51.7168C1654.54 51.8038 1654.36 51.8522 1654.17 51.8587C1654 51.8646 1653.82 51.8365 1653.66 51.776C1653.5 51.7155 1653.36 51.6238 1653.23 51.5061C1653.1 51.3884 1653 51.2471 1652.93 51.0901C1652.86 50.9332 1652.82 50.7637 1652.82 50.5914C1652.81 50.3577 1652.86 50.1259 1652.97 49.921C1653.19 49.7208 1653.41 49.5294 1653.62 49.333C1673.92 31.1231 1700.45 19.6857 1729.78 18.7086C1752.19 17.9609 1773.37 23.4141 1791.69 33.536C1791.7 33.536 1791.71 33.536 1791.71 33.5462L1792.23 33.8275C1792.99 34.2437 1793.68 34.7939 1794.26 35.4522C1795.33 36.6999 1795.94 38.2777 1796 39.9232Z" fill="white"/>
<defs>
<clipPath id="clip0_3189_172220">
<rect width="185.307" height="116.356" fill="white" transform="translate(20 16.8223)"/>
</clipPath>
<clipPath id="clip1_3189_172220">
<rect width="375.144" height="112.926" fill="white" transform="translate(506.638 18.5371)"/>
</clipPath>
</defs>
</svg>
