<svg width="185" height="108" viewBox="0 0 185 108" fill="none" xmlns="http://www.w3.org/2000/svg">
<g id="Frame 3846">
<g id="Vector">
<path d="M101.743 29.573C99.2788 30.8097 98.2108 33.1183 98.2108 39.3844C98.2108 39.3844 99.4431 38.1477 101.415 37.4056C102.852 36.8697 103.879 36.1689 104.619 35.633C106.755 34.0252 107.083 32.0877 107.083 28.7073C107.042 28.7073 103.674 28.5012 101.743 29.573Z" fill="white"/>
<path d="M86.6665 31.015C84.5305 32.7877 83.9965 35.8383 83.9965 35.8383L77.0958 62.3868L71.4274 40.6615C70.8934 38.3529 69.8254 35.5085 68.2235 33.5297C66.2518 31.015 62.1443 30.8501 61.6513 30.8501C61.2817 30.8501 57.2152 31.015 55.0792 33.5297C53.4773 35.5085 52.4093 38.3529 51.8753 40.6615L46.5355 62.3868L39.6348 35.8383C39.6348 35.8383 39.1008 32.9938 36.9648 31.015C33.5966 27.9644 28.6265 28.7064 28.6265 28.7064L41.7707 78.3819C41.7707 78.3819 46.0426 78.7529 48.1785 77.6811C51.0127 76.2382 52.4504 75.2076 54.0523 68.4056C55.6543 62.3456 59.9262 44.7015 60.2548 43.4648C60.4191 42.9289 60.7888 41.3211 61.8567 41.3211C62.9247 41.3211 63.2944 42.764 63.4587 43.4648C63.8284 44.7015 68.0592 62.3456 69.6611 68.4056C71.4274 75.1664 72.6596 76.2382 75.5349 77.6811C77.6709 78.7529 81.9427 78.3819 81.9427 78.3819L95.0048 28.7064C95.0048 28.7064 90.0347 28.0056 86.6665 31.015Z" fill="white"/>
<path d="M107.041 36.7034C107.041 36.7034 106.138 37.9402 104.371 39.012C103.139 39.7128 102.071 40.0838 100.839 40.7847C98.7028 41.8565 98.1689 42.9283 98.1689 44.5361V78.2164C98.1689 78.2164 101.537 78.5875 103.673 77.5156C106.507 76.0728 107.041 74.6711 107.041 68.6111V36.7034Z" fill="white"/>
<path d="M139.697 53.6479L156.374 28.8721C156.374 28.8721 149.473 27.6353 145.899 30.8508C143.599 32.8296 141.299 36.5398 141.299 36.5398L135.261 45.4443C134.891 45.9802 134.562 46.3512 134.028 46.3512C133.494 46.3512 132.96 45.8153 132.796 45.4443L126.758 36.5398C126.758 36.5398 124.293 32.9945 122.158 30.8508C118.625 27.6353 111.683 28.8721 111.683 28.8721L127.826 53.6067L111.314 78.3414C111.314 78.3414 118.584 79.2483 122.158 76.0328C124.458 74.054 126.594 70.6736 126.594 70.6736L132.632 61.7692C133.002 61.2332 133.33 60.8622 133.864 60.8622C134.398 60.8622 134.932 61.3981 135.096 61.7692L141.135 70.6736C141.135 70.6736 143.435 74.054 145.571 76.0328C149.103 79.2483 156.209 78.3414 156.209 78.3414L139.697 53.6479Z" fill="white"/>
</g>
</g>
</svg>
