<svg width="1816" height="198" viewBox="0 0 1816 198" fill="none" xmlns="http://www.w3.org/2000/svg">
<g clip-path="url(#clip0_3189_172310)">
<path d="M42.66 86.925H54.3814V77.9435H42.66V68.8809H32.4302V108.747C32.4302 115.28 36.4994 119.511 42.7897 119.511H54.4949V110.141H42.66V86.925Z" fill="white"/>
<path d="M89.6436 79.8067C86.2877 77.9423 82.4941 77.002 78.36 77.002C74.2259 77.002 70.4322 77.9423 67.0763 79.8067C63.7204 81.6711 61.0454 84.2974 59.1323 87.5885C57.2193 90.8796 56.2466 94.6246 56.2466 98.7262C56.2466 102.828 57.2193 106.524 59.1323 109.815C61.0454 113.106 63.7204 115.733 67.0763 117.613C70.4322 119.494 74.2259 120.434 78.36 120.434C82.4941 120.434 86.2877 119.478 89.6436 117.613C92.9995 115.733 95.6746 113.106 97.5876 109.815C99.5006 106.524 100.473 102.795 100.473 98.7262C100.473 94.657 99.5006 90.912 97.5876 87.6047C95.6746 84.2974 92.9995 81.6711 89.6436 79.8067ZM90.0651 98.7262C90.0651 102.228 88.9627 105.13 86.7741 107.367C84.5854 109.588 81.7645 110.723 78.36 110.723C74.9554 110.723 72.1345 109.588 69.9459 107.367C67.7572 105.13 66.6548 102.228 66.6548 98.7262C66.6548 95.2244 67.7572 92.3224 69.9459 90.0852C72.1345 87.8641 74.9554 86.7292 78.36 86.7292C81.7645 86.7292 84.5854 87.8641 86.7741 90.0852C88.9627 92.3224 90.0651 95.2244 90.0651 98.7262Z" fill="white"/>
<path d="M105.304 87.1687V119.561H115.534V87.0714H127.434V77.7656H114.967C108.757 77.7656 105.32 83.3264 105.32 87.1687H105.304Z" fill="white"/>
<path d="M163.522 77.9253V81.3622C160.069 78.6548 155.691 77.0336 150.731 76.9688C147.812 77.0012 145.024 77.5362 142.462 78.6062C139.836 79.6924 137.339 81.346 135.475 83.2429C133.659 85.091 132.168 87.4094 131.065 90.1654C129.93 92.9864 129.347 95.8721 129.347 98.7741C129.347 101.676 129.947 104.74 131.081 107.545C132.087 110.042 133.562 112.263 135.588 114.338C137.404 116.202 139.787 117.791 142.479 118.91C145.008 119.963 147.812 120.482 151.055 120.482C155.627 120.482 159.193 119.396 162.906 116.867L162.954 133.695H173.249V77.9253H163.538H163.522ZM160.02 107.253C157.588 109.701 155.092 110.739 151.638 110.739C148.007 110.739 145.267 109.669 142.981 107.35C140.614 104.951 139.544 102.308 139.544 98.7741C139.544 95.2399 140.711 92.4838 143.111 90.0357C145.364 87.7498 148.007 86.7285 151.655 86.7285C154.978 86.7285 157.637 87.8309 160.004 90.1979C162.371 92.5648 163.425 95.1912 163.425 98.7417C163.425 102.292 162.371 104.886 160.02 107.269V107.253Z" fill="white"/>
<path d="M229.488 81.3147C229.488 79.2882 227.251 77.4238 224.949 77.4238H204.732V86.9404H229.472V81.2985L229.488 81.3147Z" fill="white"/>
<path d="M229.489 93.8496H184.646V103.382H229.489V93.8496Z" fill="white"/>
<path d="M184.678 110.253V115.748C184.678 117.824 186.915 119.769 189.234 119.769H209.856V110.236H184.678V110.253Z" fill="white"/>
</g>
<path d="M590.493 95.9997C590.493 65.5235 565.789 40.8198 535.313 40.8198C534.482 40.8198 533.655 40.8408 532.833 40.8785L521.546 71.9003H531.376C537.224 71.9003 540.376 76.4034 538.374 81.9031L524.452 120.164L512.762 120.162L527.702 79.1522H518.912L503.972 120.162H492.278L509.845 71.9003L520.415 42.8573C497.178 49.3579 480.133 70.6875 480.133 95.9997C480.133 122.063 498.206 143.905 522.502 149.681L532.742 121.541H532.751L550.815 71.9003H572.346C578.201 71.9003 581.35 76.4034 579.348 81.9031L567.115 115.508C566.183 118.068 563.193 120.162 560.47 120.162H544.95L533.674 151.155C534.217 151.169 534.765 151.18 535.313 151.18C565.789 151.18 590.493 126.474 590.493 95.9997Z" fill="white"/>
<path d="M568.701 79.1168H559.915L547.61 112.877H556.396L568.701 79.1168Z" fill="white"/>
<path d="M952.878 115.565V83.7464L948.576 83.0558V79.2843H956.703C957.659 79.2843 958.828 79.2312 960.209 79.125C962.475 78.9833 964.334 78.9125 965.786 78.9125C970.496 78.9125 974.108 79.8155 976.623 81.6216C979.137 83.4276 980.394 86.4909 980.394 90.8112C980.394 93.5026 979.721 95.8399 978.376 97.823C977.03 99.8061 975.206 101.329 972.904 102.391C970.638 103.454 968.141 103.985 965.415 103.985C962.9 103.985 961.183 104.02 960.262 104.091V115.565L966.849 116.521V119.549H948.204V116.521L952.878 115.565ZM960.262 100.054C961.466 100.266 963.024 100.373 964.937 100.373C967.415 100.373 969.363 99.5936 970.78 98.0355C972.232 96.4773 972.958 93.9984 972.958 90.5988C972.958 88.0136 972.196 86.0305 970.673 84.6494C969.151 83.2683 967.097 82.5777 964.512 82.5777C962.883 82.5777 961.466 82.7371 960.262 83.0558V100.054ZM995.925 89.6957C999.289 89.6957 1001.91 90.6342 1003.79 92.5111C1005.66 94.3879 1006.69 97.0616 1006.87 100.532C1006.9 101.736 1006.85 102.852 1006.71 103.879C1006.6 104.906 1006.53 105.543 1006.5 105.791H988.063C988.205 108.943 989.037 111.386 990.56 113.121C992.118 114.821 994.313 115.671 997.146 115.671C998.421 115.671 999.767 115.547 1001.18 115.299C1002.64 115.016 1003.87 114.626 1004.9 114.131L1006.12 116.893C1004.92 117.92 1003.24 118.734 1001.08 119.336C998.917 119.938 996.792 120.239 994.703 120.239C990.17 120.239 986.664 118.929 984.185 116.309C981.742 113.688 980.52 110.076 980.52 105.472C980.52 102.427 981.175 99.7176 982.485 97.3449C983.796 94.9368 985.619 93.06 987.957 91.7143C990.294 90.3686 992.95 89.6957 995.925 89.6957ZM994.49 93.0423C992.684 93.0423 991.215 93.8213 990.081 95.3795C988.948 96.9023 988.275 99.0979 988.063 101.966H999.377C999.448 101.116 999.484 100.461 999.484 100.001C999.484 97.9824 999.094 96.495 998.315 95.5389C997.748 93.8745 996.474 93.0423 994.49 93.0423ZM1025.3 89.6957C1028.66 89.6957 1031.28 90.6342 1033.16 92.5111C1035.04 94.3879 1036.07 97.0616 1036.24 100.532C1036.28 101.736 1036.22 102.852 1036.08 103.879C1035.98 104.906 1035.91 105.543 1035.87 105.791H1017.44C1017.58 108.943 1018.41 111.386 1019.94 113.121C1021.49 114.821 1023.69 115.671 1026.52 115.671C1027.8 115.671 1029.14 115.547 1030.56 115.299C1032.01 115.016 1033.25 114.626 1034.28 114.131L1035.5 116.893C1034.29 117.92 1032.61 118.734 1030.45 119.336C1028.29 119.938 1026.17 120.239 1024.08 120.239C1019.55 120.239 1016.04 118.929 1013.56 116.309C1011.12 113.688 1009.9 110.076 1009.9 105.472C1009.9 102.427 1010.55 99.7176 1011.86 97.3449C1013.17 94.9368 1014.99 93.06 1017.33 91.7143C1019.67 90.3686 1022.33 89.6957 1025.3 89.6957ZM1023.87 93.0423C1022.06 93.0423 1020.59 93.8213 1019.46 95.3795C1018.32 96.9023 1017.65 99.0979 1017.44 101.966H1028.75C1028.82 101.116 1028.86 100.461 1028.86 100.001C1028.86 97.9824 1028.47 96.495 1027.69 95.5389C1027.12 93.8745 1025.85 93.0423 1023.87 93.0423ZM1042.35 115.937V97.2918L1038.74 94.9014V92.3517L1047.19 89.802L1048.78 90.3332V94.9545C1049.28 93.6797 1050.36 92.5111 1052.02 91.4487C1053.72 90.3863 1055.3 89.8551 1056.75 89.8551C1058.13 89.8551 1059.01 89.9259 1059.4 90.0676V97.1856C1058.87 96.8668 1058.18 96.6013 1057.33 96.3888C1056.48 96.1763 1055.63 96.0701 1054.78 96.0701C1052.76 96.0701 1051.1 96.495 1049.79 97.3449V115.777L1056.38 116.574V119.549H1038.74V116.574L1042.35 115.937ZM1076.98 120.239C1074.71 120.239 1072.31 120.009 1069.76 119.549C1067.21 119.088 1065.38 118.557 1064.29 117.955V108.341H1067.47L1069.6 114.024C1070.45 115.087 1071.53 115.813 1072.84 116.202C1074.15 116.592 1075.67 116.787 1077.41 116.787C1079.32 116.787 1080.91 116.255 1082.19 115.193C1083.5 114.131 1084.15 112.626 1084.15 110.678C1084.15 109.155 1083.48 107.774 1082.13 106.535C1080.82 105.295 1078.96 103.985 1076.56 102.604C1073.76 101.081 1071.55 99.753 1069.92 98.6198C1068.29 97.4866 1066.94 96.1763 1065.88 94.689C1064.85 93.1662 1064.34 91.4133 1064.34 89.4301C1064.34 87.1991 1064.98 85.3045 1066.25 83.7464C1067.56 82.1528 1069.23 80.9487 1071.24 80.1342C1073.26 79.3197 1075.35 78.9125 1077.51 78.9125C1079.57 78.9125 1081.74 79.1073 1084.05 79.4968C1086.35 79.8863 1087.96 80.329 1088.88 80.8248V88.7927H1085.48L1083.2 83.587C1082.7 83.1975 1081.92 82.8787 1080.86 82.6308C1079.8 82.3475 1078.77 82.2059 1077.78 82.2059C1076.11 82.2059 1074.63 82.6308 1073.32 83.4808C1072.01 84.3307 1071.35 85.6409 1071.35 87.4116C1071.35 89.2531 1072.11 90.8644 1073.63 92.2455C1075.19 93.5912 1077.58 95.1316 1080.81 96.8668C1084.21 98.6729 1086.83 100.479 1088.67 102.285C1090.51 104.091 1091.43 106.287 1091.43 108.872C1091.43 111.351 1090.77 113.458 1089.46 115.193C1088.19 116.893 1086.45 118.168 1084.26 119.018C1082.06 119.832 1079.64 120.239 1076.98 120.239ZM1110.72 89.6957C1114.33 89.6957 1117.16 90.9175 1119.21 93.361C1121.3 95.8045 1122.35 99.3812 1122.35 104.091C1122.35 107.03 1121.66 109.722 1120.28 112.165C1118.93 114.609 1117.05 116.556 1114.65 118.008C1112.27 119.425 1109.64 120.133 1106.73 120.133C1106.06 120.133 1105.28 120.062 1104.39 119.921C1103.51 119.814 1102.98 119.744 1102.8 119.708L1103.07 125.179V129.11L1108.17 129.801V132.829H1092.28V129.801L1095.68 129.11V97.2918L1092.12 94.9014V92.3517L1100.57 89.802L1102.06 90.3332V93.5203C1102.73 92.5288 1103.9 91.6434 1105.56 90.8644C1107.26 90.0853 1108.98 89.6957 1110.72 89.6957ZM1107.63 93.8922C1106.71 93.8922 1105.83 94.1223 1104.98 94.5827C1104.16 95.0077 1103.51 95.4857 1103.01 96.0169V114.343C1103.33 115.016 1103.95 115.529 1104.87 115.884C1105.79 116.202 1106.84 116.362 1108.01 116.362C1109.35 116.362 1110.54 115.901 1111.57 114.981C1112.63 114.024 1113.46 112.696 1114.06 110.997C1114.66 109.261 1114.97 107.225 1114.97 104.888C1114.97 101.417 1114.29 98.726 1112.95 96.8137C1111.6 94.866 1109.83 93.8922 1107.63 93.8922ZM1140.11 89.6426C1144.64 89.6072 1148.11 90.9175 1150.52 93.5734C1152.93 96.2294 1154.11 99.8592 1154.08 104.463C1154.08 107.579 1153.44 110.341 1152.17 112.75C1150.89 115.122 1149.16 116.964 1146.96 118.274C1144.76 119.549 1142.27 120.186 1139.47 120.186C1134.83 120.186 1131.29 118.805 1128.85 116.043C1126.44 113.245 1125.23 109.562 1125.23 104.994C1125.23 101.878 1125.87 99.1864 1127.15 96.92C1128.46 94.6181 1130.23 92.8475 1132.46 91.608C1134.72 90.3686 1137.27 89.7134 1140.11 89.6426ZM1139.74 93.0954C1137.36 93.0954 1135.66 94.0692 1134.64 96.0169C1133.64 97.9646 1133.15 100.691 1133.15 104.197C1133.15 107.562 1133.72 110.483 1134.85 112.962C1135.98 115.441 1137.63 116.68 1139.79 116.68C1142.2 116.68 1143.88 115.653 1144.84 113.599C1145.79 111.51 1146.27 108.589 1146.27 104.835C1146.27 101.364 1145.74 98.549 1144.68 96.3888C1143.61 94.1932 1141.97 93.0954 1139.74 93.0954ZM1165.76 90.5456H1174.37V94.6358H1165.97V105.578C1165.97 108.27 1166.03 110.271 1166.13 111.581C1166.24 112.891 1166.51 113.883 1166.93 114.556C1167.36 115.193 1168.05 115.512 1169 115.512C1169.71 115.512 1170.56 115.406 1171.55 115.193C1172.58 114.981 1173.3 114.75 1173.73 114.502L1174.9 117.212C1174.01 118.132 1172.65 118.858 1170.81 119.389C1168.97 119.921 1167.21 120.186 1165.55 120.186C1163.14 120.186 1161.41 119.513 1160.34 118.168C1159.28 116.787 1158.75 114.609 1158.75 111.634V94.6358H1154.87V92.1392C1156.43 91.7851 1157.51 91.4664 1158.11 91.1831C1158.75 90.8998 1159.28 90.4217 1159.71 89.7488C1160.31 88.8281 1161.14 86.7742 1162.2 83.587H1165.76V90.5456Z" fill="white"/>
<path fill-rule="evenodd" clip-rule="evenodd" d="M927.298 46.0137H872.032V78.2246V101.281V133.469L899.665 105.847L904.233 101.281H927.298V78.2246V46.0137ZM904.266 57.5312H915.78V89.7574H904.266V57.5312Z" fill="white"/>
<g clip-path="url(#clip1_3189_172310)">
<path d="M1686.23 102.484C1686.8 107.873 1682.83 112.411 1677.72 112.979C1677.16 112.979 1676.59 112.979 1676.02 112.979H1673.47C1668.08 113.546 1663.54 109.575 1662.98 104.47C1662.98 103.902 1662.98 103.335 1662.98 102.768C1662.41 97.3787 1666.38 92.8406 1671.77 92.2733C1672.34 92.2733 1672.9 92.2733 1673.47 92.2733H1676.02C1681.41 91.7061 1685.95 95.6769 1686.52 101.066C1686.23 101.35 1686.23 101.917 1686.23 102.484ZM1676.02 85.4662H1672.62C1663.83 84.8989 1655.89 91.7061 1655.32 100.499C1655.32 101.066 1655.32 101.917 1655.32 102.484C1654.75 111.277 1661.56 118.935 1670.35 119.786C1671.2 119.786 1671.77 119.786 1672.62 119.786H1676.02C1684.82 120.353 1692.76 113.829 1693.32 104.753C1693.32 103.902 1693.32 103.335 1693.32 102.484C1693.89 93.6915 1687.08 86.0334 1678.01 85.4662C1677.44 85.4662 1676.59 85.4662 1676.02 85.4662ZM1749.48 85.4662C1747.78 85.1825 1746.08 86.6007 1745.8 88.5861C1745.8 88.8698 1745.8 88.8698 1745.8 89.1534V116.382C1745.8 118.084 1747.21 119.786 1748.92 119.786H1749.2C1751.19 119.786 1752.6 118.368 1752.89 116.666V116.382V89.1534C1752.89 87.168 1751.47 85.7498 1749.77 85.4662H1749.48ZM1569.38 91.1388C1570.51 89.7206 1570.23 87.4516 1568.81 86.3171L1568.53 86.0334C1567.11 84.8989 1565.12 85.1825 1563.7 86.6007L1563.42 86.8843L1548.1 109.575L1532.79 86.8843C1531.94 85.1825 1529.95 84.8989 1528.25 85.7498L1527.97 86.0334C1526.27 86.8843 1525.7 89.1534 1526.83 90.5715L1527.12 90.8552C1527.12 90.8552 1545.27 117.8 1545.55 118.084C1546.69 119.502 1548.96 119.786 1550.37 118.651C1550.66 118.368 1550.94 118.368 1550.94 118.084C1551.22 118.084 1569.38 91.1388 1569.38 91.1388ZM1785.79 99.0805H1773.31C1771.61 99.3642 1769.91 97.946 1769.91 96.2442C1769.91 95.9606 1769.91 95.6769 1769.91 95.6769C1769.62 93.9751 1771.04 92.2733 1772.74 92.2733C1773.03 92.2733 1773.31 92.2733 1773.59 92.2733H1792.03C1793.73 92.2733 1795.43 91.1388 1795.43 89.1534V88.8698C1795.43 87.168 1794.3 85.4662 1792.31 85.4662H1792.03H1773.03C1767.64 85.1825 1763.1 89.1534 1762.81 94.5424C1762.81 95.1097 1762.81 95.3933 1762.81 95.9606C1762.53 101.35 1766.5 105.888 1771.61 106.171C1772.17 106.171 1772.46 106.171 1773.03 106.171H1785.51C1787.21 105.888 1788.91 107.306 1788.91 109.008C1788.91 109.291 1788.91 109.575 1788.91 109.575C1788.91 111.277 1787.77 112.695 1786.07 112.979C1785.79 112.979 1785.51 112.979 1785.22 112.979H1765.65C1763.95 112.979 1762.25 114.113 1762.25 116.098V116.382C1762.25 118.084 1763.38 119.786 1765.08 119.786C1765.37 119.786 1765.37 119.786 1765.65 119.786H1785.51C1790.89 120.069 1795.43 116.098 1795.72 110.993C1795.72 110.426 1795.72 110.142 1795.72 109.575C1796 104.186 1792.03 99.6478 1786.92 99.3642C1786.64 99.0805 1786.07 99.0805 1785.79 99.0805ZM1621.28 92.2733H1636.88C1639.15 92.2733 1640.85 93.9751 1640.85 96.2442C1640.85 96.5278 1640.85 96.5278 1640.85 96.8115C1641.14 99.0805 1639.43 101.066 1637.45 101.35H1621.28V92.2733ZM1613.91 88.8698V116.098C1613.91 118.084 1615.61 119.786 1617.59 119.786C1619.58 119.786 1621.28 118.084 1621.28 116.098V107.873H1635.18L1641.99 118.368C1642.55 119.218 1643.41 119.786 1644.54 119.786H1644.82C1646.53 119.786 1647.94 118.084 1647.66 116.382V116.098C1647.66 115.531 1647.38 114.964 1647.09 114.68L1641.99 107.022C1645.67 105.32 1647.94 101.35 1647.66 97.3787V96.8115C1647.66 96.8115 1647.66 96.8115 1647.66 96.5278V95.9606C1647.66 89.437 1643.69 85.4662 1637.73 85.4662H1617.31C1615.89 85.1825 1614.19 86.6007 1614.19 88.5861C1614.19 88.5861 1614.19 88.8698 1613.91 88.8698ZM1578.45 106.455L1585.83 95.3933L1593.2 106.455H1578.45ZM1607.1 114.113C1607.1 114.113 1588.95 87.168 1588.66 86.8843C1588.1 86.0334 1586.96 85.4662 1585.83 85.4662C1584.69 85.4662 1583.56 86.0334 1582.99 86.8843C1582.71 87.168 1564.56 114.113 1564.56 114.113C1563.42 115.531 1563.7 117.8 1565.12 118.935L1565.41 119.218C1566.82 120.353 1568.81 120.069 1569.94 118.651C1569.94 118.368 1570.23 118.368 1570.23 118.084L1573.92 112.411H1597.17L1600.86 118.084C1601.71 119.786 1603.7 120.069 1605.4 119.218L1605.68 118.935C1607.67 118.084 1608.23 116.098 1607.38 114.397L1607.1 114.113ZM1733.6 119.786C1731.9 120.069 1730.2 118.651 1730.2 116.949C1730.2 116.666 1730.2 116.666 1730.2 116.382V102.2C1730.48 97.0951 1726.79 92.557 1721.4 91.9897C1720.84 91.9897 1720.55 91.9897 1719.99 91.9897H1717.43C1712.33 91.7061 1707.79 95.3933 1707.22 100.499C1707.22 101.066 1707.22 101.35 1707.22 101.917V115.815C1707.51 117.517 1706.09 119.218 1704.39 119.502C1704.1 119.502 1703.82 119.502 1703.54 119.502C1701.83 119.786 1700.13 118.368 1699.85 116.382C1699.85 116.098 1699.85 116.098 1699.85 115.815V102.2C1699.28 93.4079 1705.8 86.0334 1714.6 85.4662C1715.45 85.4662 1716.3 85.4662 1716.87 85.4662H1720.27C1729.06 84.8989 1736.72 91.4224 1737.29 99.9314C1737.29 100.782 1737.29 101.35 1737.29 102.2V116.098C1737.29 117.8 1736.15 119.502 1734.17 119.786C1734.17 119.786 1733.88 119.786 1733.6 119.786Z" fill="white"/>
<path d="M1514.07 110.988L1496.77 85.4609L1490.24 95.1044L1505.28 117.228C1506.7 119.78 1509.82 120.348 1512.08 119.213C1512.37 118.93 1512.65 118.93 1512.94 118.646C1515.49 117.228 1516.06 114.108 1514.64 111.555C1514.35 111.272 1514.35 111.272 1514.07 110.988ZM1480.03 117.228C1481.45 119.497 1484.29 120.348 1486.84 119.213C1487.12 118.93 1487.41 118.93 1487.69 118.646C1490.24 117.228 1490.81 114.108 1489.39 111.839C1489.39 111.555 1489.11 111.555 1489.11 111.272L1484.29 104.181L1477.76 113.824L1480.03 117.228Z" fill="white"/>
<path d="M1479.75 60.2188H1466.7L1490.24 95.1056L1496.77 85.462L1479.75 60.2188ZM1441.46 60.2188L1477.76 113.825L1484.29 104.182L1454.79 60.5024H1441.46" fill="white"/>
</g>
<defs>
<clipPath id="clip0_3189_172310">
<rect width="197.059" height="64.8" fill="white" transform="translate(32.4312 68.8848)"/>
</clipPath>
<clipPath id="clip1_3189_172310">
<rect width="354.541" height="59.5628" fill="white" transform="translate(1441.46 60.2188)"/>
</clipPath>
</defs>
</svg>
