<svg width="194" height="62" viewBox="0 0 194 62" fill="none" xmlns="http://www.w3.org/2000/svg">
<g id="Frame 3843">
<g id="Vector">
<path d="M136.277 16.2895C136.277 15.9714 136.005 15.708 135.677 15.708H129.819C129.49 15.708 129.218 15.9714 129.218 16.2895V25.8897C127.043 24.6609 124.527 24.0355 121.66 24.0355C117.411 24.0355 113.91 25.396 111.157 28.106C108.404 30.7721 107.055 34.0636 107.055 37.9366C107.055 41.8644 108.404 45.1559 111.157 47.822C113.91 50.4881 117.411 51.8376 121.66 51.8376C124.731 51.8376 127.405 51.1245 129.683 49.7311L135.461 51.8047C135.847 51.9473 136.266 51.6621 136.266 51.2561V16.2895H136.277ZM127.031 43.3127C125.581 44.7719 123.825 45.496 121.683 45.496C119.53 45.496 117.729 44.7719 116.278 43.3127C114.828 41.8096 114.126 40.0212 114.126 37.9366C114.126 35.852 114.828 34.0636 116.278 32.6044C117.729 31.1561 119.53 30.432 121.683 30.432C123.836 30.432 125.581 31.1561 127.031 32.6044C128.482 34.0636 129.229 35.852 129.229 37.9366C129.229 40.0212 128.482 41.8205 127.031 43.3127Z" fill="white"/>
<path d="M79.4191 28.0906C82.1724 25.3806 85.6736 24.0201 89.9226 24.0201C94.1716 24.0201 97.6728 25.3806 100.426 28.0906C103.18 30.7567 104.528 34.0481 104.528 37.9211C104.528 41.849 103.18 45.1405 100.426 47.8066C97.6728 50.4727 94.1716 51.8222 89.9226 51.8222C85.6736 51.8222 82.1724 50.4617 79.4191 47.8066C76.6657 45.1405 75.3174 41.849 75.3174 37.9211C75.3174 34.0481 76.6657 30.7567 79.4191 28.0906ZM89.9226 45.4806C92.0754 45.4806 93.8204 44.7565 95.2707 43.2972C96.721 41.7941 97.4688 40.0057 97.4688 37.9211C97.4688 35.8365 96.721 34.0481 95.2707 32.5889C93.8204 31.1407 92.0641 30.4165 89.9226 30.4165C87.7698 30.4165 85.9682 31.1407 84.5179 32.5889C83.0676 34.0481 82.3651 35.8365 82.3651 37.9211C82.3651 40.0057 83.0676 41.7941 84.5179 43.2972C85.9682 44.7565 87.7698 45.4806 89.9226 45.4806Z" fill="white"/>
<path d="M153.395 28.9506C156.186 28.9506 158.449 26.7598 158.449 24.0572C158.449 21.3547 156.186 19.1639 153.395 19.1639C150.604 19.1639 148.342 21.3547 148.342 24.0572C148.342 26.7598 150.604 28.9506 153.395 28.9506Z" fill="white"/>
<path d="M142.879 14.2345C145.632 11.5245 149.133 10.1641 153.382 10.1641C157.631 10.1641 161.132 11.5245 163.886 14.2345C166.639 16.9006 167.987 20.1921 167.987 24.0651C167.987 27.993 166.639 31.2845 163.886 33.9506C161.132 36.6167 157.631 37.9662 153.382 37.9662C149.133 37.9662 145.632 36.6057 142.879 33.9506C140.125 31.2845 138.777 27.993 138.777 24.0651C138.777 20.1921 140.125 16.9006 142.879 14.2345ZM153.382 31.6246C155.535 31.6246 157.28 30.9004 158.73 29.4412C160.181 27.9381 160.928 26.1497 160.928 24.0651C160.928 21.9805 160.181 20.1921 158.73 18.7329C157.28 17.2847 155.524 16.5605 153.382 16.5605C151.229 16.5605 149.428 17.2847 147.978 18.7329C146.527 20.1921 145.825 21.9805 145.825 24.0651C145.825 26.1497 146.527 27.9381 147.978 29.4412C149.428 30.8895 151.229 31.6246 153.382 31.6246Z" fill="white"/>
<path d="M39.9077 37.9361C39.9077 34.0631 38.5594 30.7716 35.806 28.1055C33.0527 25.3955 29.5515 24.035 25.3025 24.035C21.0535 24.035 17.5523 25.3955 14.799 28.1055C12.0456 30.7716 10.6973 34.0631 10.6973 37.9361C10.6973 41.8639 12.0456 45.1554 14.799 47.8215C17.5523 50.4876 21.0535 51.8371 25.3025 51.8371C28.3731 51.8371 31.0471 51.124 33.3246 49.7306L39.1033 51.8042C39.4885 51.9468 39.9077 51.6616 39.9077 51.2556V37.9361ZM25.3025 45.4955C23.1497 45.4955 21.3481 44.7714 19.8978 43.3122C18.4474 41.809 17.7449 40.0207 17.7449 37.9361C17.7449 35.8514 18.4474 34.0631 19.8978 32.6038C21.3481 31.1556 23.1497 30.4315 25.3025 30.4315C27.4553 30.4315 29.2003 31.1556 30.6506 32.6038C32.1009 34.0631 32.8487 35.8514 32.8487 37.9361C32.8487 40.0207 32.1009 41.809 30.6506 43.3122C29.2003 44.7714 27.4553 45.4955 25.3025 45.4955Z" fill="white"/>
<path d="M72.8227 37.9361C72.8227 34.0631 71.4743 30.7606 68.721 28.1055C65.9676 25.3955 62.4664 24.035 58.2174 24.035C53.9684 24.035 50.4673 25.3955 47.7139 28.1055C44.9605 30.7716 43.6122 34.0631 43.6122 37.9361V51.2556C43.6122 51.5738 43.8841 51.8371 44.2127 51.8371H50.0594C50.3879 51.8371 50.6599 51.5738 50.6599 51.2556V37.9361C50.6599 35.8514 51.3624 34.0631 52.8127 32.6038C54.263 31.1556 56.0646 30.4315 58.2174 30.4315C60.3703 30.4315 62.1152 31.1556 63.5655 32.6038C65.0159 34.0631 65.7637 35.8514 65.7637 37.9361V51.2556C65.7637 51.5738 66.0356 51.8371 66.3642 51.8371H72.2222C72.5508 51.8371 72.8227 51.5738 72.8227 51.2556V37.9361Z" fill="white"/>
<path d="M183.253 32.2752C183.581 32.2752 183.853 32.0119 183.853 31.6937V26.4602C183.853 26.1421 183.581 25.8787 183.253 25.8787H177.667V16.2895C177.667 15.9714 177.395 15.708 177.066 15.708H171.084C170.755 15.708 170.483 15.9714 170.483 16.2895V40.9867C170.506 46.9772 175.537 51.8376 181.723 51.8376C181.734 51.8376 181.746 51.8376 181.746 51.8376C181.746 51.8376 181.757 51.8376 181.768 51.8376C182.165 51.8376 182.788 51.8376 183.241 51.8376C183.57 51.8376 183.842 51.5743 183.842 51.2561V46.0665C183.842 45.7484 183.57 45.4851 183.241 45.4851H181.723C179.48 45.4851 177.655 43.7186 177.655 41.5462V32.2642H183.253V32.2752Z" fill="white"/>
</g>
</g>
</svg>
