<svg width="89" height="88" viewBox="0 0 89 88" fill="none" xmlns="http://www.w3.org/2000/svg">
<path id="Vector" d="M39.5731 57.3529L34.9514 58.6667C35.3541 59.8572 35.6752 61.9937 35.6752 64.8677V78.9949H40.8628V64.0485C41.8279 62.858 42.8729 62.2818 43.9995 62.2818C44.5602 62.2818 45.0054 62.4033 45.488 62.6931L46.8949 57.8058C46.0912 57.4362 45.7292 57.3546 44.9646 57.3546C44.4039 57.3546 43.7174 57.4761 43.2756 57.6844C42.3105 58.1772 41.1041 59.2862 40.3411 60.3536C40.3411 59.163 40.0591 58.2189 39.5765 57.3563L39.5731 57.3529ZM21.7029 50.3726H21.1421V78.9568H26.5285V66.3047H33.3252V61.5841H26.5285V55.0134H35.0125L35.3354 52.5073C30.7429 52.1708 26.1845 51.4564 21.7046 50.3708L21.7029 50.3726ZM9.11704 82.7749L11.6097 85.7323C14.0226 84.7465 17.0386 82.5285 17.8423 78.9984C18.1244 77.8477 18.2042 77.1067 18.2042 73.3718V50.4125H12.7754V73.9862C12.7754 77.0668 12.6564 78.2157 12.252 79.2848C11.7287 80.4753 10.4849 81.8707 9.11534 82.7732L9.11704 82.7749ZM58.0534 68.278C58.0534 73.2885 57.0882 75.4249 54.8759 75.4249C53.87 75.4249 52.7451 74.8522 52.2626 73.6998C51.8599 72.6325 51.6169 70.8258 51.6169 68.3613C51.6169 66.2665 51.8174 64.7861 52.1402 63.6407C52.5429 62.3269 53.5472 61.506 54.7944 61.506C55.7187 61.506 56.5241 61.9173 57.0067 62.6167C57.7305 63.6025 58.0517 65.4509 58.0517 68.285L58.0534 68.278ZM61.2308 76.4923C62.9198 74.4392 63.6845 71.9331 63.6845 68.3179C63.6845 64.9094 63.0014 62.5681 61.4331 60.5948C59.7441 58.4601 57.5725 57.4327 54.7587 57.4327C49.4504 57.4327 45.9128 61.8271 45.9128 68.4811C45.9128 75.1351 49.4131 79.4063 54.7587 79.4063C57.7747 79.4479 59.7441 78.2955 61.2155 76.4906L61.2308 76.4923ZM75.9457 64.6647C75.9457 66.5946 74.8192 67.6619 72.8091 67.6619C70.9994 67.6619 69.793 66.7994 69.793 64.6647C69.793 62.6931 70.9196 61.5442 72.8481 61.5442C74.7767 61.5442 75.9457 62.6948 75.9457 64.6647ZM85.0737 60.1471L82.9582 56.6725C81.7688 57.8232 80.3041 58.4775 78.8802 58.4775C78.2345 58.4775 77.8743 58.3959 76.4674 58.0263C75.321 57.668 74.1285 57.4878 72.9297 57.4917C67.9035 57.4917 64.6462 60.2859 64.6462 64.6386C64.6462 67.7591 66.014 69.7307 68.8687 70.5117C67.703 70.7998 66.4558 71.4141 65.8951 72.1136C65.4924 72.6064 65.2919 73.2642 65.2919 74.0435C65.2917 74.6428 65.4296 75.2338 65.6946 75.7686C65.9766 76.2198 66.3403 76.5895 66.8211 76.796C67.7455 77.1657 69.234 77.4121 71.5279 77.4555L73.6994 77.4972C75.1063 77.5787 75.8302 77.8269 76.3926 78.1133C76.916 78.443 77.317 79.1806 77.317 80.005C77.317 80.8294 76.8344 81.6486 76.0698 82.1397C75.3867 82.6326 74.2601 82.8374 72.8124 82.8374C70.4404 82.8374 69.1133 81.9349 69.1133 80.2515C69.1133 79.5121 69.1932 79.349 69.3546 78.8978H64.6241C64.4236 79.3091 64.1823 79.8835 64.1823 81.0324C64.1823 82.4695 64.7057 83.7017 65.7914 84.7691C67.5586 86.5358 70.4557 87.0287 73.2305 87.0287C76.2856 87.0287 79.2625 86.2894 80.9906 84.3178C82.0781 83.1029 82.5589 81.7319 82.5589 79.9651C82.5589 78.0734 82.0356 76.6381 80.8699 75.4475C79.5021 74.0938 77.9355 73.5992 74.9194 73.5558L72.1447 73.5141C71.6213 73.5141 71.3002 73.3093 71.3002 73.0212C71.3002 72.4485 72.024 71.9539 73.3511 71.2961L74.1157 71.3378C78.2957 71.3378 81.3542 68.7102 81.3542 65.0552C81.3542 63.6581 80.9515 62.5907 80.1886 61.6049C80.8343 61.6865 81.0331 61.7264 81.5139 61.7264C82.8818 61.7264 83.9676 61.2752 85.0924 60.1644L85.0737 60.1471ZM20.335 25.5232C13.9019 27.1251 9.51805 30.2873 9.51805 33.9006C9.51805 36.1603 11.207 38.2134 13.9818 39.8153C13.1373 38.4616 12.6955 36.9812 12.6955 35.5025C12.7363 31.7659 15.5909 28.274 20.335 25.5232ZM88.2087 39.6921C88.2087 37.3092 86.761 35.1329 84.3482 33.3262C84.5487 34.0655 84.7101 34.8048 84.7101 35.5442C84.7101 42.3214 75.4224 48.1528 62.2334 50.5739C63.769 50.7411 65.3125 50.8234 66.8568 50.8203C78.6389 50.7787 88.2087 45.8116 88.2087 39.6921ZM80.61 35.9954C80.61 33.4893 78.52 31.188 74.9398 29.3015C75.7843 30.3289 76.2261 31.4362 76.2261 32.5868C76.2261 38.6265 63.6811 43.512 48.1608 43.512C32.6813 43.512 20.0954 38.6247 20.0954 32.5868C20.0956 31.8053 20.3041 31.0385 20.6986 30.3688C18.2059 32.0523 16.799 33.9822 16.799 36.0371C16.799 42.5679 31.0721 47.8647 48.6858 47.8647C66.2995 47.8647 80.6134 42.4846 80.6134 35.9937L80.61 35.9954ZM66.6971 35.6657C60.1825 39.9351 40.1593 41.5804 31.5547 36.077C24.7988 31.7642 27.1317 24.9054 7.79168 9.87394C5.2599 7.90238 8.27424 5.80759 10.1637 7.16304C12.0532 8.51849 10.3252 8.84651 14.1449 12.748C21.8643 20.6325 21.7844 13.529 22.9908 16.2364C25.5634 21.863 31.1928 27.5312 31.1928 27.5312C36.8629 31.3095 41.3658 32.1304 49.7308 26.3407C55.039 22.6856 52.8675 32.172 65.856 25.3132C70.6001 22.8071 70.3996 24.4923 75.2253 17.6335C77.2354 14.7994 81.0535 19.8099 76.7138 20.5075C74.984 20.7956 72.0495 22.7255 70.8006 25.7662C68.991 30.3254 69.7556 33.6924 66.6988 35.6639L66.6971 35.6657ZM30.5896 24.0845C28.9804 23.3451 27.2931 20.5527 26.6475 19.4437C28.4571 17.6387 27.7349 14.6362 26.6882 12.9962C25.6823 11.3526 24.4368 11.8056 23.1098 10.2853C21.7419 8.76494 23.6331 4.82355 25.3612 7.86246C31.8181 19.2389 36.0966 14.5165 41.3641 13.8153C46.431 13.1558 50.9338 15.9917 52.3017 7.98395C52.5429 6.67015 53.7901 6.38205 53.9108 8.51849C54.0297 10.6948 54.8351 15.9518 57.6099 16.6095C60.3847 17.3072 62.6361 15.95 63.2801 15.2124C63.924 14.4748 64.286 14.5529 64.5663 16.4273C64.8484 18.2757 65.5722 20.8633 69.4719 17.9893C77.475 12.1579 75.1811 9.89824 78.3178 8.37965C80.0849 7.51709 82.9022 10.3096 78.8411 12.4061C73.0503 15.4033 72.4471 19.1 68.7888 21.4413C62.6378 25.3844 64.5273 21.6061 54.6346 20.1674C50.8149 19.6328 49.6085 23.9456 46.6315 22.7134C39.8348 19.8394 35.0516 20.4138 30.5879 24.0671L30.5896 24.0845ZM52.0213 3.01512C52.2626 4.74024 52.5447 4.69859 53.1479 4.82008C53.7511 4.98495 54.5157 3.99917 54.5157 3.09496C54.5565 2.15083 54.113 1.57463 53.2294 1.61629C52.3051 1.65794 51.9822 2.10918 52.04 3.01339L52.0213 3.01512ZM81.7739 6.09569C82.4978 6.79338 84.428 6.34214 84.8698 5.80759C86.0355 4.4938 86.0592 3.71281 85.473 2.81033C84.8698 1.94777 83.6209 2.07099 82.3771 3.01512C81.1333 3.95925 81.3712 5.72602 81.7739 6.09569ZM81.2506 14.8029C80.6474 15.6238 80.6049 16.2399 81.0501 16.6946C81.5326 17.1875 82.4978 17.5971 83.1808 17.0642C83.8639 16.4915 83.8639 15.6671 83.2998 14.9695C82.6966 14.2301 81.8929 14.2301 81.2489 14.8046L81.2506 14.8029ZM20.2314 4.53718C21.1557 4.82528 21.5992 5.72776 22.3621 4.70206C22.7648 4.20917 22.8039 3.51149 22.2823 2.77215C21.9594 2.32091 20.4302 1.99116 19.7896 2.65066C19.149 3.31016 19.7488 4.37578 20.2314 4.54239V4.53718ZM1.37389 3.96446C3.06287 5.03181 4.14864 6.63371 5.45191 5.17933C5.8937 4.68644 6.41705 3.82562 5.49269 2.09876C4.80962 0.824884 2.59729 0.331993 1.83436 0.824884C1.03065 1.27612 0.0672138 3.12446 1.39257 3.94537L1.37389 3.96446ZM16.935 12.1388C17.4583 12.7115 18.3827 12.6734 18.9451 12.3436C19.4684 12.0139 19.3869 11.153 18.8652 10.4137C18.5424 9.96245 17.5789 9.71601 16.935 10.4137C16.291 11.1114 16.573 11.7275 16.935 12.1388Z" fill="white"/>
</svg>
