<svg width="1816" height="150" viewBox="0 0 1816 150" fill="none" xmlns="http://www.w3.org/2000/svg">
<path d="M142.092 37.4107C139.134 38.8947 137.853 41.665 137.853 49.1844C137.853 49.1844 139.332 47.7003 141.697 46.8098C143.423 46.1667 144.655 45.3257 145.542 44.6826C148.105 42.7533 148.5 40.4283 148.5 36.3718C148.45 36.3718 144.408 36.1245 142.092 37.4107Z" fill="white"/>
<path d="M124 39.141C121.436 41.2682 120.796 44.929 120.796 44.929L112.515 76.7872L105.713 50.7169C105.072 47.9466 103.79 44.5332 101.868 42.1587C99.502 39.141 94.5729 38.9432 93.9814 38.9432C93.5378 38.9432 88.658 39.141 86.0949 42.1587C84.1725 44.5332 82.891 47.9466 82.2502 50.7169L75.8424 76.7872L67.5615 44.929C67.5615 44.929 66.9207 41.5156 64.3576 39.141C60.3158 35.4803 54.3516 36.3708 54.3516 36.3708L70.1246 95.9813C70.1246 95.9813 75.2509 96.4265 77.814 95.1403C81.2151 93.4089 82.9403 92.1722 84.8626 84.0097C86.785 76.7377 91.9112 55.5649 92.3055 54.0808C92.5027 53.4377 92.9463 51.5084 94.2279 51.5084C95.5094 51.5084 95.9531 53.2398 96.1502 54.0808C96.5938 55.5649 101.671 76.7377 103.593 84.0097C105.713 92.1227 107.191 93.4089 110.642 95.1403C113.205 96.4265 118.331 95.9813 118.331 95.9813L134.006 36.3708C134.006 36.3708 128.041 35.5298 124 39.141Z" fill="white"/>
<path d="M148.449 45.9672C148.449 45.9672 147.365 47.4513 145.245 48.7375C143.767 49.5784 142.485 50.0237 141.006 50.8646C138.443 52.1508 137.802 53.437 137.802 55.3663V95.7828C137.802 95.7828 141.844 96.228 144.407 94.9418C147.808 93.2104 148.449 91.5284 148.449 84.2564V45.9672Z" fill="white"/>
<path d="M187.636 66.3006L207.648 36.5695C207.648 36.5695 199.367 35.0854 195.079 38.944C192.319 41.3186 189.558 45.7708 189.558 45.7708L182.313 56.4562C181.869 57.0993 181.475 57.5445 180.834 57.5445C180.193 57.5445 179.552 56.9014 179.355 56.4562L172.109 45.7708C172.109 45.7708 169.152 41.5165 166.589 38.944C162.35 35.0854 154.02 36.5695 154.02 36.5695L173.391 66.2511L153.576 95.9327C153.576 95.9327 162.301 97.021 166.589 93.1624C169.349 90.7879 171.912 86.7314 171.912 86.7314L179.158 76.046C179.602 75.4029 179.996 74.9577 180.637 74.9577C181.278 74.9577 181.918 75.6008 182.115 76.046L189.361 86.7314C189.361 86.7314 192.122 90.7879 194.685 93.1624C198.924 97.021 207.451 95.9327 207.451 95.9327L187.636 66.3006Z" fill="white"/>
<path d="M495.844 88.919C495.884 88.8795 495.924 88.8402 495.964 88.801C498.269 86.5335 500.316 83.7575 500.506 80.3373C500.78 75.4192 497.371 72.5412 494.243 69.4331C492.294 67.4818 491.075 64.9306 490.787 62.2004C490.499 59.4702 491.159 56.7244 492.659 54.4162C497.788 46.7323 509.925 47.7016 513.629 56.2142C514.54 58.4186 514.777 60.8399 514.309 63.1766C513.842 65.5133 512.69 67.662 510.998 69.355C508.001 72.468 504.582 75.2517 504.563 80.0219C504.546 84.2863 507.313 87.2187 510.018 90.0939C512.707 92.9524 514.444 96.1865 514.255 100.165C514.148 101.961 513.613 103.706 512.693 105.257C511.773 106.808 510.494 108.121 508.962 109.087C502.318 113.298 492.948 109.325 491.143 101.804C489.962 96.8891 492.424 92.3265 495.844 88.919Z" fill="white"/>
<path d="M527.973 91.7112C534.496 91.7112 539.783 86.4741 539.783 80.0137C539.783 73.5534 534.496 68.3162 527.973 68.3162C521.451 68.3162 516.163 73.5534 516.163 80.0137C516.163 86.4741 521.451 91.7112 527.973 91.7112Z" fill="white"/>
<path d="M556.858 96.0408V62.4544H557.538C559.378 62.4565 561.142 63.1814 562.443 64.47C563.744 65.7586 564.476 67.5057 564.478 69.328V96.0408H556.858Z" fill="white"/>
<path d="M557.538 95.367V63.1284C559.198 63.1284 560.79 63.7815 561.964 64.9442C563.138 66.1069 563.798 67.6837 563.798 69.3281V95.367H557.538ZM588.361 110.659C579.503 110.659 573.422 106.664 571.238 99.4099L570.976 98.5436H578.74L578.911 98.9654C580.571 103.04 584.966 103.895 588.361 103.895C595.352 103.895 598.75 100.337 598.75 93.0176V91.5523C596.137 94.762 591.95 96.628 587.175 96.628C578.914 96.628 570.023 91.1891 570.023 79.2475C570.023 69.0253 577.68 61.6062 588.229 61.6062C599.04 61.6062 606.303 68.8008 606.303 79.5088V92.7566C606.303 104.134 599.763 110.659 588.361 110.659ZM588.229 68.6965C582.035 68.6965 577.709 73.0352 577.709 79.2475C577.709 85.3632 581.937 89.4723 588.229 89.4723C594.522 89.4723 598.75 85.3632 598.75 79.2475C598.75 73.0353 594.423 68.6965 588.229 68.6965Z" fill="white"/>
<path d="M599.43 89.5587H599.298C597.058 93.4744 592.644 95.9542 587.175 95.9542C578.741 95.9542 570.703 90.2114 570.703 79.2475C570.703 69.4585 577.951 62.2799 588.229 62.2799C598.508 62.2799 605.623 69.1322 605.623 79.5087V92.7565C605.623 105.156 597.98 109.985 588.361 109.985C580.388 109.985 574.129 106.657 571.89 99.2174H578.28C579.796 102.937 583.617 104.569 588.361 104.569C595.015 104.569 599.43 101.436 599.43 93.0177V89.5587ZM588.229 68.0228C581.509 68.0228 577.028 72.7216 577.028 79.2475C577.028 85.7737 581.509 90.146 588.229 90.146C594.949 90.146 599.43 85.7737 599.43 79.2475C599.43 72.7216 594.949 68.0228 588.229 68.0228ZM628.71 96.8892C618.218 96.8892 611.954 90.5627 611.954 79.9656V62.4545H619.573V79.9656C619.573 86.3063 622.819 89.7985 628.71 89.7985C634.603 89.7985 637.847 86.3063 637.847 79.9656V62.4545H645.467V79.9656C645.467 90.5627 639.203 96.8892 628.71 96.8892Z" fill="white"/>
<path d="M638.528 63.1284H644.787V79.9655C644.787 90.6681 638.33 96.2154 628.71 96.2154C619.091 96.2154 612.634 90.7335 612.634 79.9655V63.1284H618.894V79.9655C618.894 86.9482 622.78 90.4724 628.71 90.4724C634.64 90.4724 638.528 86.9482 638.528 79.9655V63.1284ZM667.849 96.8892C659.326 96.8892 650.697 90.8294 650.697 79.2475C650.697 69.0253 658.354 61.6061 668.903 61.6061C679.545 61.6061 686.978 68.9679 686.978 79.5087V96.0408H679.885V91.0472C677.367 94.745 673.029 96.8892 667.849 96.8892ZM668.903 68.6965C662.709 68.6965 658.382 73.0353 658.382 79.2475C658.382 85.4597 662.709 89.7984 668.903 89.7984C675.098 89.7984 679.423 85.4597 679.423 79.2475C679.423 73.0353 675.098 68.6965 668.903 68.6965Z" fill="white"/>
<path d="M686.297 95.3669H680.565V88.6451H680.433C678.457 93.2132 673.844 96.2154 667.849 96.2154C659.416 96.2154 651.377 90.2114 651.377 79.2475C651.377 69.4585 658.625 62.2799 668.903 62.2799C679.181 62.2799 686.297 69.1975 686.297 79.5087V95.3669ZM680.104 79.2475C680.104 72.7216 675.624 68.0228 668.903 68.0228C662.182 68.0228 657.702 72.7216 657.702 79.2475C657.702 85.7737 662.182 90.4724 668.903 90.4724C675.624 90.4724 680.104 85.7737 680.104 79.2475ZM692.496 96.0408V90.0055L712.526 69.3492H693.484V62.4544H723.176V63.1282C723.182 66.5697 721.838 69.8789 719.427 72.3564L703.145 89.146H723.834V96.0408H692.496Z" fill="white"/>
<path d="M693.176 95.3669V90.2767L713.997 68.8059V68.6754H694.164V63.1284H722.495C722.495 66.3946 721.22 69.5341 718.936 71.8898L701.675 89.6893V89.8199H723.155V95.367L693.176 95.3669ZM729.643 96.0408V62.4544H730.324C732.164 62.4565 733.928 63.1814 735.229 64.4701C736.53 65.7587 737.262 67.5058 737.263 69.3282V96.0408H729.643Z" fill="white"/>
<path d="M730.324 95.367V63.1284C731.984 63.1284 733.576 63.7815 734.75 64.9443C735.924 66.107 736.584 67.6839 736.584 69.3282V95.367H730.324ZM760.593 96.8892C750.044 96.8892 742.388 89.4697 742.388 79.2475C742.388 69.0253 750.044 61.6061 760.593 61.6061C771.143 61.6061 778.8 69.0253 778.8 79.2475C778.8 89.4697 771.143 96.8892 760.593 96.8892ZM760.593 68.6965C754.399 68.6965 750.073 73.0353 750.073 79.2475C750.073 85.4597 754.399 89.7984 760.593 89.7984C766.788 89.7984 771.114 85.4597 771.114 79.2475C771.114 73.0353 766.788 68.6965 760.593 68.6965Z" fill="white"/>
<path d="M761.16 96.2153C750.882 96.2153 743.634 89.0366 743.634 79.2475C743.634 69.4585 750.882 62.2799 761.16 62.2799C771.439 62.2799 778.686 69.4585 778.686 79.2475C778.686 89.0366 771.439 96.2153 761.16 96.2153ZM772.361 79.2475C772.361 72.7216 767.881 68.0228 761.16 68.0228C754.44 68.0228 749.96 72.7216 749.96 79.2475C749.96 85.7736 754.44 90.4723 761.16 90.4723C767.881 90.4723 772.361 85.7736 772.361 79.2475ZM560.526 49.3395C561.734 49.3425 562.891 49.8197 563.743 50.6666C564.596 51.5134 565.075 52.6607 565.074 53.8567C565.073 55.0386 564.6 56.1719 563.757 57.0087C562.914 57.8457 561.771 58.3183 560.579 58.3231C559.976 58.3327 559.377 58.2193 558.821 57.99C558.264 57.7608 557.761 57.4206 557.343 56.9906C556.909 56.57 556.567 56.066 556.337 55.5097C556.107 54.9533 555.994 54.3563 556.005 53.7552C555.996 53.1725 556.11 52.5944 556.338 52.0572C556.566 51.52 556.903 51.0354 557.33 50.6338C557.746 50.2151 558.245 49.8845 558.794 49.6621C559.344 49.4396 559.933 49.3299 560.526 49.3395ZM733.647 49.3395C734.855 49.3425 736.012 49.8197 736.865 50.6666C737.717 51.5134 738.196 52.6607 738.196 53.8567C738.194 55.0386 737.721 56.1719 736.878 57.0087C736.036 57.8457 734.893 58.3183 733.7 58.3231C733.097 58.3327 732.499 58.2193 731.942 57.99C731.386 57.7608 730.882 57.4206 730.464 56.9906C730.031 56.57 729.688 56.066 729.458 55.5097C729.228 54.9533 729.115 54.3563 729.126 53.7552C729.117 53.1725 729.231 52.5944 729.459 52.0572C729.687 51.52 730.025 51.0354 730.451 50.6337C730.868 50.2151 731.366 49.8845 731.915 49.6621C732.465 49.4396 733.054 49.3299 733.647 49.3395Z" fill="white"/>
<path d="M1233.18 43.3342C1228.96 46.0815 1227.19 51.0808 1229.31 54.3073C1231.42 57.5178 1236.47 57.7574 1240.82 55.0102C1245.04 52.1671 1246.7 47.2794 1244.71 44.053C1243.56 42.2641 1241.53 41.3696 1239.24 41.3696C1237.29 41.3696 1235.13 42.0085 1233.18 43.3342ZM1179.37 48.701C1174.91 48.8288 1173.38 48.8287 1173.38 48.8287L1171.02 59.5302H1164.69C1164.69 59.5302 1166.56 60.7283 1167.62 62.8846C1168.44 64.8971 1168.8 67.6443 1168.2 70.8708C1167.16 76.9244 1165.87 82.7702 1165.87 82.7702C1163.62 93.1364 1167.73 96.4588 1177.37 96.4588C1179.84 96.4588 1183.36 96.2351 1185.83 95.7559L1187.83 85.9807C1185.61 86.3481 1183.72 86.4599 1182.43 86.4599C1180.43 86.4599 1179.24 85.1503 1179.37 83.6169C1179.37 82.3072 1179.72 80.8695 1179.95 79.6715L1182.32 68.7143H1191.47L1193.58 59.5302H1183.95L1186.43 48.4614C1186.43 48.4614 1184.32 48.5892 1179.37 48.701ZM1041.08 79.7993C1041.08 87.6577 1044.37 97.1934 1060.35 97.1934C1069.75 97.1934 1078.56 91.3475 1080.68 81.0932H1067.17C1066.1 84.2078 1063.76 87.6578 1060.35 87.6578C1056.23 87.6578 1055.18 84.5591 1055.53 79.432C1055.76 76.8125 1057.29 67.5325 1063.53 67.5325C1067.99 67.5325 1068.35 72.1645 1068.35 73.9534H1081.85C1081.96 63.5872 1074.57 57.997 1063.99 57.997C1049.9 57.997 1041.08 69.1935 1041.08 79.7993ZM1083.38 80.3903C1083.38 90.0377 1089.02 96.9538 1102.18 96.9538C1115.7 96.9538 1120.27 87.3066 1121.21 84.9267H1108.04C1107.11 86.8274 1105.7 88.1369 1102.77 88.1369C1100.18 88.1369 1098.77 86.8272 1098.06 85.5174C1097.36 84.0959 1097 82.4188 1097.13 80.3903H1122.63C1123.09 78.6014 1123.32 76.5728 1123.32 74.1929C1123.32 63.2358 1115.34 58.2205 1105.81 58.2205C1095.47 58.2205 1083.38 64.7852 1083.38 80.3903ZM1105.35 66.7019C1109.23 66.7019 1111.1 68.9541 1110.41 73.2507H1098.29C1099.25 69.5611 1101.7 66.7019 1105.35 66.7019ZM1281.71 81.5882C1281.71 88.1369 1284.28 96.6023 1294.76 96.6023C1299.45 96.6023 1304.14 94.0947 1306.14 91.3475V91.4752C1306.14 92.8967 1306.25 94.5739 1306.85 95.7559H1320.48C1319.77 93.8552 1319.77 90.6286 1320.59 86.8272C1321.3 83.6167 1326.24 59.5302 1326.24 59.5302H1312.62L1311.55 64.1943C1309.91 60.8401 1306.4 58.588 1300.98 58.588C1288.39 58.588 1281.71 70.9824 1281.71 81.5882ZM1296.03 80.5182C1296.03 74.7841 1299.21 67.9956 1304.03 67.9956C1308.02 67.9956 1309.44 70.7429 1309.44 74.4325C1309.44 82.0674 1305.8 86.8272 1301.33 86.8272C1298.16 86.8272 1296.03 85.0384 1296.03 80.5182ZM1239.53 79.9272C1239.64 87.6579 1243.17 96.6023 1258.9 96.6023C1268.2 96.6023 1277.02 91.3475 1279.24 81.0932H1265.72C1264.67 84.2078 1262.32 87.0668 1258.79 87.0668C1254.93 87.0668 1253.75 84.5591 1254.1 79.432C1254.21 76.7007 1255.75 67.9956 1262.09 67.9956C1266.56 67.9956 1266.91 72.2922 1266.8 73.9534H1280.3C1280.42 63.5872 1273.13 58.588 1262.43 58.588C1248.46 58.588 1239.53 69.1937 1239.53 79.9272ZM1141.64 64.6735L1143.06 59.5302H1129.89L1122.5 95.7559H1136.13L1140.13 76.5729C1140.95 72.7555 1142.37 69.6729 1146.72 69.6729C1148.94 69.6729 1150.59 70.8706 1150.59 73.1228C1150.59 74.5603 1149.88 77.0522 1149.52 79.2085L1146.01 95.7559H1159.4L1163.74 75.2631C1164.33 72.6436 1164.69 70.0242 1164.69 68.3471C1164.69 60.84 1158.8 58.588 1154.12 58.588C1148.23 58.588 1144.48 61.447 1141.64 64.6735ZM1208.75 65.8555V65.7276L1210.15 59.5302H1197L1189.58 95.7559H1203.22L1206.4 80.6299C1207.8 73.9534 1210.62 71.3339 1214.97 71.3339C1217.08 71.3339 1218.37 71.4618 1220.61 72.2924L1223.19 59.8978C1222.14 59.4186 1220.96 59.3067 1219.33 59.3067C1214.97 59.3067 1210.86 62.4054 1208.75 65.8555ZM1226.71 59.5302L1219.33 95.7559H1232.94L1240.35 59.5302H1226.71Z" fill="white"/>
<path d="M1629.05 85.5122L1692.45 46.072H1725.34C1725.59 46.072 1725.84 46.1218 1726.08 46.2186C1726.31 46.3154 1726.52 46.4572 1726.7 46.636C1726.88 46.8147 1727.02 47.0269 1727.12 47.2604C1727.21 47.4938 1727.26 47.744 1727.26 47.9965C1727.29 48.3241 1727.22 48.6521 1727.06 48.9394C1726.9 49.2267 1726.66 49.4605 1726.37 49.6114L1695.22 68.2818C1693.2 69.493 1692.49 71.9244 1692.49 73.7457L1692.46 85.5122H1732.04V17.1289C1732.04 16.8009 1731.97 16.4762 1731.84 16.1743C1731.71 15.8724 1731.53 15.5996 1731.29 15.3723C1731.05 15.1451 1730.77 14.9681 1730.47 14.8522C1730.16 14.7362 1729.83 14.6836 1729.51 14.6975H1691.74L1628.49 53.9673V85.5122H1629.05Z" fill="white"/>
<path d="M1796 106.91H1787.58L1777.5 118.165V106.91H1770.44L1770.47 134.615H1777.5V124.087L1787.06 134.615H1796L1783.12 120.937L1796 106.91ZM1759.04 118.304L1752.6 117.577C1748.83 117.161 1747.89 116.225 1747.89 114.944C1747.89 113.524 1749.83 112.243 1753.61 112.243C1757.24 112.243 1759.15 113.594 1759.49 115.637H1766.42C1766.07 109.784 1761.15 106.148 1753.99 106.148C1745.47 106.148 1741.17 109.541 1741.17 115.532C1741.17 120.415 1744.01 122.702 1749.9 123.325L1756.45 124.017C1758.94 124.294 1760.08 125.265 1760.08 126.511C1760.08 127.931 1758.42 129.213 1754.4 129.213C1749.76 129.213 1747.89 128.035 1747.58 125.679H1740.79C1741.1 132.053 1745.26 135.307 1754.16 135.307C1762.3 135.307 1766.84 131.74 1766.84 126.373C1766.84 121.697 1764.14 118.892 1759.04 118.304ZM1715.37 134.615H1737.67V128.625H1722.43V123.603H1734.69V117.577H1722.43V112.901H1737.67V106.91H1715.37V134.615ZM1698.74 106.91H1685.79V134.615H1698.74C1708.68 134.615 1711.42 130.91 1711.42 120.554C1711.42 110.823 1708.79 106.91 1698.74 106.91ZM1698.46 128.626H1692.84V112.901H1698.46C1702.89 112.901 1704.21 114.114 1704.21 120.554C1704.21 126.441 1702.73 128.626 1698.46 128.626ZM1666.6 106.148C1656.52 106.148 1651.29 112.346 1651.29 120.693C1651.29 129.074 1656.52 135.307 1666.6 135.307C1676.71 135.307 1681.94 129.074 1681.94 120.693C1681.94 112.346 1676.71 106.148 1666.6 106.148ZM1666.6 129.074C1661.37 129.074 1658.49 125.888 1658.49 120.693C1658.49 115.602 1661.37 112.381 1666.6 112.381C1671.87 112.381 1674.71 115.602 1674.71 120.693C1674.71 125.888 1671.86 129.074 1666.6 129.074ZM1625.24 112.901H1634.18V134.615H1641.24V112.901H1650.15V106.91H1625.24V112.901ZM1614.96 124.017C1614.96 127.619 1612.74 129.074 1608.96 129.074C1605.29 129.074 1602.9 127.55 1602.9 124.017V106.91H1595.84V124.814C1595.84 132.814 1602.97 135.307 1608.96 135.307C1614.92 135.307 1622.02 132.814 1622.02 124.814V106.91H1614.96V124.017ZM1575.16 106.91L1564.53 134.615H1571.83L1573.69 129.42H1585.56L1587.39 134.615H1594.94L1584.17 106.91H1575.16ZM1575.79 123.533L1579.67 112.673L1583.49 123.536L1575.79 123.533Z" fill="white"/>
</svg>
