<svg width="849" height="160" viewBox="0 0 849 160" fill="none" xmlns="http://www.w3.org/2000/svg">
<path d="M255.201 49.8864C255.201 49.4299 254.81 49.052 254.339 49.052H245.933C245.462 49.052 245.071 49.4299 245.071 49.8864V63.6622C241.95 61.8989 238.34 61.0015 234.227 61.0015C228.13 61.0015 223.105 62.9537 219.155 66.8424C215.204 70.6682 213.269 75.3913 213.269 80.9488C213.269 86.5851 215.204 91.3082 219.155 95.1339C223.105 98.9596 228.13 100.896 234.227 100.896C238.633 100.896 242.47 99.8728 245.738 97.8733L254.03 100.849C254.583 101.054 255.184 100.644 255.184 100.062V49.8864H255.201ZM241.933 88.6632C239.852 90.7572 237.332 91.7962 234.259 91.7962C231.17 91.7962 228.585 90.7572 226.504 88.6632C224.422 86.5063 223.414 83.9401 223.414 80.9488C223.414 77.9575 224.422 75.3913 226.504 73.2974C228.585 71.2192 231.17 70.1801 234.259 70.1801C237.348 70.1801 239.852 71.2192 241.933 73.2974C244.014 75.3913 245.088 77.9575 245.088 80.9488C245.088 83.9401 244.014 86.5221 241.933 88.6632Z" fill="white"/>
<path d="M173.612 66.8203C177.563 62.9316 182.587 60.9794 188.684 60.9794C194.781 60.9794 199.805 62.9316 203.756 66.8203C207.707 70.646 209.642 75.3691 209.642 80.9267C209.642 86.5629 207.707 91.286 203.756 95.1118C199.805 98.9375 194.781 100.874 188.684 100.874C182.587 100.874 177.563 98.9218 173.612 95.1118C169.661 91.286 167.727 86.5629 167.727 80.9267C167.727 75.3691 169.661 70.646 173.612 66.8203ZM188.684 91.7741C191.774 91.7741 194.277 90.735 196.359 88.6411C198.44 86.4842 199.513 83.918 199.513 80.9267C199.513 77.9354 198.44 75.3691 196.359 73.2752C194.277 71.197 191.757 70.158 188.684 70.158C185.595 70.158 183.01 71.197 180.929 73.2752C178.848 75.3691 177.84 77.9354 177.84 80.9267C177.84 83.918 178.848 86.4842 180.929 88.6411C183.01 90.735 185.595 91.7741 188.684 91.7741Z" fill="white"/>
<path d="M279.764 68.0544C283.769 68.0544 287.016 64.9107 287.016 61.0327C287.016 57.1547 283.769 54.011 279.764 54.011C275.76 54.011 272.513 57.1547 272.513 61.0327C272.513 64.9107 275.76 68.0544 279.764 68.0544Z" fill="white"/>
<path d="M264.674 46.9376C268.625 43.0489 273.649 41.0967 279.746 41.0967C285.843 41.0967 290.867 43.0489 294.818 46.9376C298.769 50.7633 300.703 55.4865 300.703 61.044C300.703 66.6803 298.769 71.4034 294.818 75.2291C290.867 79.0548 285.843 80.9913 279.746 80.9913C273.649 80.9913 268.625 79.0391 264.674 75.2291C260.723 71.4034 258.788 66.6803 258.788 61.044C258.788 55.4865 260.723 50.7633 264.674 46.9376ZM279.746 71.8914C282.835 71.8914 285.339 70.8523 287.42 68.7584C289.501 66.6015 290.574 64.0353 290.574 61.044C290.574 58.0527 289.501 55.4865 287.42 53.3925C285.339 51.3144 282.819 50.2753 279.746 50.2753C276.657 50.2753 274.071 51.3144 271.99 53.3925C269.909 55.4865 268.901 58.0527 268.901 61.044C268.901 64.0353 269.909 66.6015 271.99 68.7584C274.071 70.8366 276.657 71.8914 279.746 71.8914Z" fill="white"/>
<path d="M116.916 80.9481C116.916 75.3905 114.981 70.6674 111.03 66.8417C107.079 62.953 102.055 61.0008 95.9578 61.0008C89.8607 61.0008 84.8367 62.953 80.8857 66.8417C76.9348 70.6674 75 75.3905 75 80.9481C75 86.5843 76.9348 91.3075 80.8857 95.1332C84.8367 98.9589 89.8607 100.895 95.9578 100.895C100.364 100.895 104.201 99.872 107.469 97.8726L115.761 100.848C116.314 101.053 116.916 100.643 116.916 100.061V80.9481ZM95.9578 91.7955C92.8686 91.7955 90.2834 90.7564 88.2023 88.6625C86.1211 86.5056 85.1131 83.9394 85.1131 80.9481C85.1131 77.9568 86.1211 75.3905 88.2023 73.2966C90.2834 71.2184 92.8686 70.1794 95.9578 70.1794C99.047 70.1794 101.551 71.2184 103.632 73.2966C105.713 75.3905 106.786 77.9568 106.786 80.9481C106.786 83.9394 105.713 86.5056 103.632 88.6625C101.551 90.7564 99.047 91.7955 95.9578 91.7955Z" fill="white"/>
<path d="M164.147 80.9481C164.147 75.3905 162.212 70.6517 158.261 66.8417C154.31 62.953 149.286 61.0008 143.189 61.0008C137.092 61.0008 132.068 62.953 128.117 66.8417C124.166 70.6674 122.231 75.3905 122.231 80.9481V100.061C122.231 100.518 122.621 100.895 123.093 100.895H131.483C131.954 100.895 132.344 100.518 132.344 100.061V80.9481C132.344 77.9568 133.352 75.3905 135.434 73.2966C137.515 71.2184 140.1 70.1794 143.189 70.1794C146.278 70.1794 148.782 71.2184 150.863 73.2966C152.944 75.3905 154.018 77.9568 154.018 80.9481V100.061C154.018 100.518 154.408 100.895 154.879 100.895H163.285C163.757 100.895 164.147 100.518 164.147 100.061V80.9481Z" fill="white"/>
<path d="M322.608 72.825C323.08 72.825 323.47 72.4472 323.47 71.9906V64.4809C323.47 64.0243 323.08 63.6464 322.608 63.6464H314.593V49.8864C314.593 49.4299 314.202 49.052 313.731 49.052H305.146C304.675 49.052 304.285 49.4299 304.285 49.8864V85.3256C304.317 93.9217 311.536 100.896 320.413 100.896C320.43 100.896 320.446 100.896 320.446 100.896C320.446 100.896 320.462 100.896 320.478 100.896C321.047 100.896 321.942 100.896 322.592 100.896C323.063 100.896 323.454 100.518 323.454 100.062V92.6149C323.454 92.1584 323.063 91.7805 322.592 91.7805H320.413C317.194 91.7805 314.576 89.2458 314.576 86.1285V72.8093H322.608V72.825Z" fill="white"/>
<g clip-path="url(#clip0_3205_173040)">
<path d="M565.715 100.761V69.4046L555.443 89.8046H548.339L537.983 69.4046V100.761H527.483V46.9766H537.839L551.891 76.0646L565.871 46.9766H576.227V100.773H565.727L565.715 100.761Z" fill="white"/>
<path d="M607.188 100.761V97.1367C604.62 99.8607 600.996 101.217 597.372 101.217C593.448 101.217 590.268 99.9327 588.084 97.7367C584.916 94.5687 584.076 90.8607 584.076 86.5527V61.3887H593.892V85.1847C593.892 90.5487 597.288 92.3607 600.384 92.3607C603.48 92.3607 606.96 90.5487 606.96 85.1847V61.3887H616.776V100.749H607.176L607.188 100.761Z" fill="white"/>
<path d="M647.147 100.761V76.9653C647.147 71.6013 643.751 69.7893 640.655 69.7893C637.559 69.7893 634.079 71.6013 634.079 76.9653V100.761H624.263V61.4013H633.863V65.0253C636.431 62.3013 640.055 60.9453 643.679 60.9453C647.603 60.9453 650.783 62.2293 652.967 64.4253C656.135 67.5933 656.975 71.3013 656.975 75.6093V100.773H647.159L647.147 100.761Z" fill="white"/>
<path d="M676.763 100.76C668.759 100.76 665.351 95.0964 665.351 89.5044V70.0164H661.199V62.5404H665.351V50.9004H675.167V62.5404H682.115V70.0164H675.167V88.9044C675.167 91.1724 676.223 92.4564 678.563 92.4564H682.115V100.772H676.751L676.763 100.76Z" fill="white"/>
<path d="M695.123 84.1416C695.123 89.2056 698.219 92.9016 703.739 92.9016C708.047 92.9016 710.159 91.6896 712.655 89.1936L718.619 95.0136C714.611 99.0216 710.759 101.206 703.655 101.206C694.367 101.206 685.451 96.9696 685.451 81.0336C685.451 68.1936 692.399 60.9336 702.599 60.9336C713.555 60.9336 719.747 68.9376 719.747 79.7496V84.1296H695.123V84.1416ZM709.175 73.1856C708.119 70.8456 705.923 69.1056 702.599 69.1056C699.275 69.1056 697.079 70.8456 696.023 73.1856C695.423 74.6256 695.195 75.6816 695.111 77.4216H710.075C710.003 75.6816 709.775 74.6256 709.163 73.1856H709.175Z" fill="white"/>
<path d="M746.795 72.1293C745.283 70.6173 743.999 69.7893 741.587 69.7893C738.563 69.7893 735.239 72.0573 735.239 77.0373V100.761H725.411V61.4013H735.011V65.1813C736.895 62.9133 740.675 60.9453 744.911 60.9453C748.763 60.9453 751.487 61.9293 754.199 64.6413L746.795 72.1173V72.1293Z" fill="white"/>
<path d="M769.307 101.217C763.115 101.217 757.523 100.533 752.531 95.553L758.951 89.133C762.203 92.385 766.427 92.829 769.451 92.829C772.847 92.829 776.399 91.701 776.399 88.749C776.399 86.781 775.343 85.425 772.247 85.125L766.055 84.525C758.951 83.841 754.571 80.745 754.571 73.497C754.571 65.337 761.747 60.957 769.751 60.957C775.871 60.957 781.007 62.013 784.787 65.565L778.739 71.685C776.471 69.645 773.003 69.045 769.595 69.045C765.671 69.045 764.003 70.857 764.003 72.825C764.003 74.265 764.603 75.921 768.083 76.221L774.275 76.821C782.051 77.577 785.987 81.729 785.987 88.377C785.987 97.065 778.583 101.217 769.295 101.217H769.307Z" fill="white"/>
<path d="M497.939 48.4512L478.163 74.2272L458.339 48.4752C450.743 54.3912 445.847 63.6312 445.847 74.0112C445.847 84.3912 450.287 92.7432 457.271 98.6712L463.583 91.4352C458.603 87.2712 455.447 81.0072 455.447 74.0112C455.447 70.1232 456.419 66.4752 458.135 63.2832L478.163 89.6352L498.167 63.2352C499.895 66.4392 500.891 70.1232 500.891 74.0232C500.891 80.9832 497.759 87.2232 492.827 91.3872L499.067 98.6832C506.051 92.7552 510.491 83.9112 510.491 74.0232C510.491 63.6192 505.583 54.3672 497.951 48.4632L497.939 48.4512Z" fill="white"/>
<path d="M478.163 51.2816C482.471 51.2816 486.503 52.4816 489.935 54.5696L495.419 46.6736C490.415 43.5056 484.499 41.6816 478.163 41.6816C471.827 41.6816 465.887 43.5176 460.895 46.6856L466.271 54.6416C469.727 52.5056 473.807 51.2816 478.163 51.2816Z" fill="white"/>
<path d="M478.162 96.6888C473.518 96.6888 469.246 95.2968 465.658 92.9088L459.778 100.565C464.998 104.177 471.346 106.313 478.162 106.301C484.978 106.301 491.338 104.165 496.558 100.541L490.678 92.8848C487.09 95.2728 482.806 96.6768 478.15 96.6768L478.162 96.6888Z" fill="white"/>
</g>
<defs>
<clipPath id="clip0_3205_173040">
<rect width="340.152" height="64.632" fill="white" transform="translate(445.848 41.6836)"/>
</clipPath>
</defs>
</svg>
