<svg width="849" height="150" viewBox="0 0 849 150" fill="none" xmlns="http://www.w3.org/2000/svg">
<path d="M210.092 37.4107C207.134 38.8947 205.853 41.665 205.853 49.1844C205.853 49.1844 207.332 47.7003 209.697 46.8098C211.423 46.1667 212.655 45.3257 213.542 44.6826C216.105 42.7533 216.5 40.4283 216.5 36.3718C216.45 36.3718 212.408 36.1245 210.092 37.4107Z" fill="white"/>
<path d="M192 39.141C189.436 41.2682 188.796 44.929 188.796 44.929L180.515 76.7872L173.713 50.7169C173.072 47.9466 171.79 44.5332 169.868 42.1587C167.502 39.141 162.573 38.9432 161.981 38.9432C161.538 38.9432 156.658 39.141 154.095 42.1587C152.173 44.5332 150.891 47.9466 150.25 50.7169L143.842 76.7872L135.562 44.929C135.562 44.929 134.921 41.5156 132.358 39.141C128.316 35.4803 122.352 36.3708 122.352 36.3708L138.125 95.9813C138.125 95.9813 143.251 96.4265 145.814 95.1403C149.215 93.4089 150.94 92.1722 152.863 84.0097C154.785 76.7377 159.911 55.5649 160.306 54.0808C160.503 53.4377 160.946 51.5084 162.228 51.5084C163.509 51.5084 163.953 53.2398 164.15 54.0808C164.594 55.5649 169.671 76.7377 171.593 84.0097C173.713 92.1227 175.191 93.4089 178.642 95.1403C181.205 96.4265 186.331 95.9813 186.331 95.9813L202.006 36.3708C202.006 36.3708 196.041 35.5298 192 39.141Z" fill="white"/>
<path d="M216.449 45.9672C216.449 45.9672 215.365 47.4513 213.245 48.7375C211.767 49.5784 210.485 50.0237 209.006 50.8646C206.443 52.1508 205.802 53.437 205.802 55.3663V95.7828C205.802 95.7828 209.844 96.228 212.407 94.9418C215.808 93.2104 216.449 91.5284 216.449 84.2564V45.9672Z" fill="white"/>
<path d="M255.636 66.3006L275.648 36.5695C275.648 36.5695 267.367 35.0854 263.079 38.944C260.319 41.3186 257.558 45.7708 257.558 45.7708L250.313 56.4562C249.869 57.0993 249.475 57.5445 248.834 57.5445C248.193 57.5445 247.552 56.9014 247.355 56.4562L240.109 45.7708C240.109 45.7708 237.152 41.5165 234.589 38.944C230.35 35.0854 222.02 36.5695 222.02 36.5695L241.391 66.2511L221.576 95.9327C221.576 95.9327 230.301 97.021 234.589 93.1624C237.349 90.7879 239.912 86.7314 239.912 86.7314L247.158 76.046C247.602 75.4029 247.996 74.9577 248.637 74.9577C249.278 74.9577 249.918 75.6008 250.115 76.046L257.361 86.7314C257.361 86.7314 260.122 90.7879 262.685 93.1624C266.924 97.021 275.451 95.9327 275.451 95.9327L255.636 66.3006Z" fill="white"/>
<path d="M454.045 88.919C454.084 88.8795 454.124 88.8402 454.164 88.801C456.47 86.5335 458.516 83.7575 458.707 80.3373C458.98 75.4192 455.571 72.5412 452.443 69.4331C450.494 67.4818 449.275 64.9306 448.987 62.2004C448.699 59.4702 449.359 56.7244 450.859 54.4162C455.989 46.7323 468.126 47.7016 471.829 56.2142C472.74 58.4186 472.977 60.8399 472.509 63.1766C472.042 65.5133 470.89 67.662 469.198 69.355C466.201 72.468 462.782 75.2517 462.763 80.0219C462.746 84.2863 465.513 87.2187 468.218 90.0939C470.908 92.9524 472.644 96.1865 472.455 100.165C472.348 101.961 471.813 103.706 470.893 105.257C469.973 106.808 468.694 108.121 467.162 109.087C460.519 113.298 451.149 109.325 449.343 101.804C448.163 96.8891 450.624 92.3265 454.045 88.919Z" fill="white"/>
<path d="M486.173 91.7112C492.696 91.7112 497.983 86.4741 497.983 80.0137C497.983 73.5534 492.696 68.3162 486.173 68.3162C479.651 68.3162 474.364 73.5534 474.364 80.0137C474.364 86.4741 479.651 91.7112 486.173 91.7112Z" fill="white"/>
<path d="M515.058 96.0408V62.4544H515.739C517.578 62.4565 519.342 63.1814 520.643 64.47C521.944 65.7586 522.676 67.5057 522.678 69.328V96.0408H515.058Z" fill="white"/>
<path d="M515.739 95.367V63.1284C517.398 63.1284 518.99 63.7815 520.164 64.9442C521.338 66.1069 521.998 67.6837 521.998 69.3281V95.367H515.739ZM546.561 110.659C537.703 110.659 531.622 106.664 529.438 99.4099L529.177 98.5436H536.94L537.111 98.9654C538.771 103.04 543.166 103.895 546.561 103.895C553.552 103.895 556.95 100.337 556.95 93.0176V91.5523C554.337 94.762 550.15 96.628 545.375 96.628C537.114 96.628 528.223 91.1891 528.223 79.2475C528.223 69.0253 535.88 61.6062 546.429 61.6062C557.24 61.6062 564.503 68.8008 564.503 79.5088V92.7566C564.503 104.134 557.963 110.659 546.561 110.659ZM546.429 68.6965C540.235 68.6965 535.909 73.0352 535.909 79.2475C535.909 85.3632 540.137 89.4723 546.429 89.4723C552.722 89.4723 556.95 85.3632 556.95 79.2475C556.95 73.0353 552.623 68.6965 546.429 68.6965Z" fill="white"/>
<path d="M557.63 89.5587H557.498C555.258 93.4744 550.844 95.9542 545.375 95.9542C536.941 95.9542 528.904 90.2114 528.904 79.2475C528.904 69.4585 536.151 62.2799 546.429 62.2799C556.708 62.2799 563.824 69.1322 563.824 79.5087V92.7565C563.824 105.156 556.18 109.985 546.561 109.985C538.588 109.985 532.329 106.657 530.09 99.2174H536.48C537.996 102.937 541.818 104.569 546.561 104.569C553.215 104.569 557.63 101.436 557.63 93.0177V89.5587ZM546.429 68.0228C539.709 68.0228 535.228 72.7216 535.228 79.2475C535.228 85.7737 539.709 90.146 546.429 90.146C553.149 90.146 557.63 85.7737 557.63 79.2475C557.63 72.7216 553.149 68.0228 546.429 68.0228ZM586.91 96.8892C576.418 96.8892 570.154 90.5627 570.154 79.9656V62.4545H577.774V79.9656C577.774 86.3063 581.019 89.7985 586.91 89.7985C592.803 89.7985 596.047 86.3063 596.047 79.9656V62.4545H603.667V79.9656C603.667 90.5627 597.403 96.8892 586.91 96.8892Z" fill="white"/>
<path d="M596.728 63.1284H602.987V79.9655C602.987 90.6681 596.53 96.2154 586.91 96.2154C577.291 96.2154 570.834 90.7335 570.834 79.9655V63.1284H577.094V79.9655C577.094 86.9482 580.981 90.4724 586.91 90.4724C592.84 90.4724 596.728 86.9482 596.728 79.9655V63.1284ZM626.049 96.8892C617.526 96.8892 608.897 90.8294 608.897 79.2475C608.897 69.0253 616.554 61.6061 627.103 61.6061C637.745 61.6061 645.178 68.9679 645.178 79.5087V96.0408H638.085V91.0472C635.568 94.745 631.229 96.8892 626.049 96.8892ZM627.103 68.6965C620.909 68.6965 616.583 73.0353 616.583 79.2475C616.583 85.4597 620.909 89.7984 627.103 89.7984C633.298 89.7984 637.624 85.4597 637.624 79.2475C637.624 73.0353 633.298 68.6965 627.103 68.6965Z" fill="white"/>
<path d="M644.497 95.3669H638.765V88.6451H638.633C636.657 93.2132 632.044 96.2154 626.049 96.2154C617.616 96.2154 609.577 90.2114 609.577 79.2475C609.577 69.4585 616.825 62.2799 627.103 62.2799C637.381 62.2799 644.497 69.1975 644.497 79.5087V95.3669ZM638.304 79.2475C638.304 72.7216 633.824 68.0228 627.103 68.0228C620.382 68.0228 615.902 72.7216 615.902 79.2475C615.902 85.7737 620.382 90.4724 627.103 90.4724C633.824 90.4724 638.304 85.7737 638.304 79.2475ZM650.696 96.0408V90.0055L670.726 69.3492H651.684V62.4544H681.376V63.1282C681.383 66.5697 680.038 69.8789 677.627 72.3564L661.346 89.146H682.035V96.0408H650.696Z" fill="white"/>
<path d="M651.376 95.3669V90.2767L672.197 68.8059V68.6754H652.365V63.1284H680.696C680.696 66.3946 679.42 69.5341 677.136 71.8898L659.876 89.6893V89.8199H681.355V95.367L651.376 95.3669ZM687.844 96.0408V62.4544H688.524C690.364 62.4565 692.128 63.1814 693.429 64.4701C694.73 65.7587 695.462 67.5058 695.464 69.3282V96.0408H687.844Z" fill="white"/>
<path d="M688.524 95.367V63.1284C690.184 63.1284 691.777 63.7815 692.95 64.9443C694.124 66.107 694.784 67.6839 694.784 69.3282V95.367H688.524ZM718.793 96.8892C708.244 96.8892 700.588 89.4697 700.588 79.2475C700.588 69.0253 708.244 61.6061 718.793 61.6061C729.343 61.6061 737 69.0253 737 79.2475C737 89.4697 729.343 96.8892 718.793 96.8892ZM718.793 68.6965C712.6 68.6965 708.274 73.0353 708.274 79.2475C708.274 85.4597 712.6 89.7984 718.793 89.7984C724.988 89.7984 729.314 85.4597 729.314 79.2475C729.314 73.0353 724.988 68.6965 718.793 68.6965Z" fill="white"/>
<path d="M719.36 96.2153C709.082 96.2153 701.835 89.0366 701.835 79.2475C701.835 69.4585 709.082 62.2799 719.36 62.2799C729.639 62.2799 736.886 69.4585 736.886 79.2475C736.886 89.0366 729.639 96.2153 719.36 96.2153ZM730.561 79.2475C730.561 72.7216 726.081 68.0228 719.36 68.0228C712.64 68.0228 708.16 72.7216 708.16 79.2475C708.16 85.7736 712.64 90.4723 719.36 90.4723C726.081 90.4723 730.561 85.7736 730.561 79.2475ZM518.726 49.3395C519.934 49.3425 521.091 49.8197 521.944 50.6666C522.796 51.5134 523.275 52.6607 523.275 53.8567C523.273 55.0386 522.8 56.1719 521.958 57.0087C521.115 57.8457 519.972 58.3183 518.779 58.3231C518.176 58.3327 517.577 58.2193 517.021 57.99C516.465 57.7608 515.961 57.4206 515.543 56.9906C515.109 56.57 514.767 56.066 514.537 55.5097C514.307 54.9533 514.194 54.3563 514.205 53.7552C514.196 53.1725 514.31 52.5944 514.538 52.0572C514.766 51.52 515.104 51.0354 515.53 50.6338C515.947 50.2151 516.445 49.8845 516.994 49.6621C517.544 49.4396 518.133 49.3299 518.726 49.3395ZM691.848 49.3395C693.055 49.3425 694.212 49.8197 695.065 50.6666C695.917 51.5134 696.396 52.6607 696.396 53.8567C696.394 55.0386 695.921 56.1719 695.078 57.0087C694.236 57.8457 693.093 58.3183 691.9 58.3231C691.297 58.3327 690.699 58.2193 690.142 57.99C689.586 57.7608 689.082 57.4206 688.665 56.9906C688.231 56.57 687.888 56.066 687.658 55.5097C687.428 54.9533 687.315 54.3563 687.326 53.7552C687.318 53.1725 687.431 52.5944 687.659 52.0572C687.887 51.52 688.225 51.0354 688.651 50.6337C689.068 50.2151 689.566 49.8845 690.116 49.6621C690.665 49.4396 691.254 49.3299 691.848 49.3395Z" fill="white"/>
</svg>
