<svg width="4886" height="137" viewBox="0 0 4886 137" fill="none" xmlns="http://www.w3.org/2000/svg">
<g clip-path="url(#clip0_3077_177574)">
<mask id="mask0_3077_177574" style="mask-type:luminance" maskUnits="userSpaceOnUse" x="75" y="44" width="124" height="57">
<path d="M198.538 44.3848H75V100.622H198.538V44.3848Z" fill="white"/>
</mask>
<g mask="url(#mask0_3077_177574)">
<path d="M114.69 88.2631C114.69 87.4689 115.442 87.0718 116.294 87.0718C117.196 87.0718 117.998 87.4689 118.399 88.3127L120.403 87.2207C119.651 85.7812 118.148 84.9375 116.294 84.9375C114.038 84.9375 112.234 86.2279 112.234 88.3127C112.234 92.234 118.198 91.1419 118.198 93.1273C118.198 94.0208 117.396 94.3682 116.294 94.3682C115.091 94.3682 114.189 93.7727 113.838 92.7799L111.783 93.9712C112.485 95.5595 114.089 96.5522 116.294 96.5522C118.699 96.5522 120.604 95.361 120.604 93.177C120.654 89.0572 114.69 90.2485 114.69 88.2631Z" fill="white"/>
<path d="M134.287 90.7448C134.287 87.5682 132.032 84.9375 128.724 84.9375C125.266 84.9375 122.86 87.4689 122.86 90.6953C122.86 93.9712 125.216 96.453 128.874 96.453C131.029 96.453 132.733 95.5595 133.736 94.0705L131.781 92.9288C131.23 93.723 130.278 94.2689 128.924 94.2689C127.17 94.2689 125.767 93.3756 125.366 91.6879H134.187C134.237 91.4398 134.287 91.0924 134.287 90.7448ZM125.366 89.8018C125.717 88.1638 126.92 87.1214 128.724 87.1214C130.177 87.1214 131.581 87.9156 131.881 89.8018H125.366Z" fill="white"/>
<path d="M145.515 92.4813C144.964 93.4741 143.911 94.169 142.558 94.169C140.603 94.169 139.1 92.6799 139.1 90.7441C139.1 88.8083 140.603 87.3192 142.558 87.3192C143.861 87.3192 144.964 87.9644 145.465 89.0068L147.52 87.8155C146.617 86.0783 144.763 84.9863 142.558 84.9863C139.2 84.9863 136.694 87.4681 136.694 90.7441C136.694 94.02 139.2 96.5018 142.558 96.5018C144.713 96.5018 146.617 95.4099 147.52 93.6229L145.515 92.4813Z" fill="white"/>
<path d="M157.842 85.2344V91.1411C157.842 93.3747 156.589 94.3178 155.035 94.3178C153.532 94.3178 152.58 93.4243 152.58 91.7863V85.2344H150.174V91.9849C150.174 94.8639 151.928 96.5018 154.434 96.5018C155.937 96.5018 157.14 95.9558 157.892 94.8142V96.204H160.298V85.2344H157.842Z" fill="white"/>
<path d="M166.413 87.0703V85.2338H164.008V96.2032H166.413V90.6936C166.413 88.2615 168.268 87.517 169.821 87.6162V85.0352C168.468 85.0352 167.115 85.5812 166.413 87.0703Z" fill="white"/>
<path d="M172.629 85.2344V96.204H175.034V85.2344H172.629Z" fill="white"/>
<path d="M185.004 87.5189V85.2356H182.248V82.1582L179.842 82.8531V85.2356H177.787V87.5189H179.842V92.7802C179.842 95.6592 181.295 96.6518 185.004 96.2051V94.0708C183.2 94.1701 182.248 94.1701 182.248 92.7802V87.5189H185.004Z" fill="white"/>
<path d="M195.823 85.2344L192.967 93.2259L189.659 85.2344H187.053L191.764 96.0054L191.663 96.204C191.112 97.6434 190.26 98.4376 188.707 98.3383V100.572C191.263 100.721 193.067 99.3311 194.119 96.5514L198.379 85.2344H195.823Z" fill="white"/>
<path d="M91.283 44.3848C89.3786 44.3848 87.5243 44.6826 85.8203 45.2782C88.4765 47.3629 90.6316 50.0929 91.8845 53.3192C95.5931 53.617 98.3495 56.3967 98.3495 60.4668C98.3495 64.537 95.6432 67.3165 91.9847 67.6144C90.7318 70.8407 88.6269 73.6203 85.9707 75.6554C87.6245 76.2013 89.4287 76.4993 91.283 76.4993C100.304 76.4993 107.571 69.5006 107.571 60.4171C107.571 51.3834 100.304 44.3848 91.283 44.3848Z" fill="white"/>
<path d="M78.2551 50.7383C77.7039 51.4332 77.2027 52.2274 76.8018 53.0215C79.057 54.7588 80.5104 57.4391 80.5104 60.5166C80.5104 63.594 79.1071 66.2744 76.8519 67.9619C77.3029 68.7561 77.8041 69.5503 78.3554 70.2451C81.5629 68.2102 83.6678 64.6363 83.6678 60.5166C83.6177 56.3471 81.5127 52.7734 78.2551 50.7383Z" fill="white"/>
<path d="M87.7771 66.7715C86.5743 69.6503 84.5696 72.0328 82.0137 73.7205C82.8656 74.2664 83.7678 74.7628 84.72 75.1599C87.3762 73.2738 89.481 70.6431 90.7841 67.5657C89.6816 67.5657 88.6792 67.2679 87.7771 66.7715Z" fill="white"/>
<path d="M84.5732 45.7754C83.621 46.1725 82.7189 46.6688 81.917 47.2645C84.473 48.9521 86.4776 51.3346 87.7306 54.1639C88.6327 53.6675 89.635 53.3697 90.7375 53.32C89.3844 50.2426 87.2795 47.6616 84.5732 45.7754Z" fill="white"/>
<path d="M80.9617 47.957C80.2601 48.5527 79.5584 49.1483 78.957 49.8432C81.8638 51.6797 83.8685 54.6579 84.52 58.182C84.9209 56.7922 85.7228 55.601 86.7753 54.8068C85.5725 51.9279 83.5678 49.5454 80.9617 47.957Z" fill="white"/>
<path d="M84.5773 62.8008C83.9759 66.325 81.9211 69.3031 79.0645 71.1396C79.6659 71.8344 80.3675 72.4798 81.1192 73.0257C83.7253 71.3878 85.73 69.0053 86.8827 66.176C85.7801 65.3322 84.9782 64.1905 84.5773 62.8008Z" fill="white"/>
<path d="M76.303 54.0625C75.4511 55.9983 75 58.1823 75 60.4656C75 62.7985 75.5012 64.9824 76.3532 66.9678C78.2075 65.4788 79.3602 63.1459 79.3602 60.5152C79.3602 57.8845 78.2075 55.5516 76.303 54.0625Z" fill="white"/>
<path d="M130.279 44.6328V54.9571C126.47 54.3615 121.058 55.8505 121.058 61.9061V75.6552H111.836V45.2284H117.048C118.902 45.2284 120.406 46.4693 120.907 48.1073C123.263 45.8737 126.57 44.7321 129.828 44.6328C129.828 44.6328 129.828 44.6328 129.878 44.6328C129.978 44.6328 130.129 44.6328 130.279 44.6328Z" fill="white"/>
<path d="M155.236 64.288C154.033 66.4223 151.778 67.7129 149.122 67.7129C145.113 67.7129 142.056 64.8339 142.056 60.5157C142.056 56.1973 145.113 53.3184 149.122 53.3184C151.778 53.3184 153.983 54.5593 155.236 56.644L163.105 52.1272C160.248 47.4614 155.086 44.4336 149.122 44.4336C140.101 44.4336 132.834 51.4323 132.834 60.5157C132.834 69.599 140.101 76.5977 149.122 76.5977C155.136 76.5977 160.348 73.5203 163.155 68.8048L155.236 64.288Z" fill="white"/>
<path d="M193.331 45.2286C191.527 45.2286 189.973 46.4198 189.472 48.1075C187.367 45.7746 184.31 44.3848 180.15 44.3848C172.081 44.3848 165.466 51.3834 165.466 60.4668C165.466 69.5502 172.081 76.5488 180.15 76.5488C184.31 76.5488 187.367 75.159 189.472 72.8261C189.973 74.4641 191.476 75.7051 193.331 75.7051H198.543V60.4668V45.2286H193.331ZM181.804 67.6641C177.795 67.6641 174.737 64.7851 174.737 60.4668C174.737 56.1485 177.795 53.2696 181.804 53.2696C185.813 53.2696 188.871 56.1485 188.871 60.4668C188.871 64.7851 185.763 67.6641 181.804 67.6641Z" fill="white"/>
</g>
</g>
<g clip-path="url(#clip1_3077_177574)">
<mask id="mask1_3077_177574" style="mask-type:luminance" maskUnits="userSpaceOnUse" x="-186" y="-219" width="1466" height="634">
<path d="M1279.68 -218.076H-185.069V414.994H1279.68V-218.076Z" fill="white"/>
</mask>
<g mask="url(#mask1_3077_177574)">
<path d="M381.951 38.231C365.761 38.231 352.67 51.2346 352.67 67.318C352.67 83.4014 365.761 96.405 381.951 96.405C398.142 96.405 411.233 83.4014 411.233 67.318C411.233 51.2346 398.142 38.231 381.951 38.231ZM415.022 67.318C415.022 85.4546 400.209 100.169 381.951 100.169C363.694 100.169 348.881 85.4546 348.881 67.318C348.881 49.1814 363.694 34.4668 381.951 34.4668C400.209 34.4668 415.022 49.1814 415.022 67.318Z" fill="white"/>
</g>
<mask id="mask2_3077_177574" style="mask-type:luminance" maskUnits="userSpaceOnUse" x="-186" y="-219" width="1466" height="634">
<path d="M1279.68 -218.076H-185.069V414.994H1279.68V-218.076Z" fill="white"/>
</mask>
<g mask="url(#mask2_3077_177574)">
<path d="M384.02 45.7598H380.23V88.877H384.02V45.7598Z" fill="white"/>
</g>
<mask id="mask3_3077_177574" style="mask-type:luminance" maskUnits="userSpaceOnUse" x="329" y="11" width="263" height="114">
<path d="M591.74 11.2227H329.684V124.484H591.74V11.2227Z" fill="white"/>
</mask>
<g mask="url(#mask3_3077_177574)">
<path d="M479.015 68.8337V77.8946H488.999V80.6496H475.995V56.6504H488.999V59.4054H479.015V66.1399H488.691V68.8337H479.015Z" fill="white"/>
</g>
<mask id="mask4_3077_177574" style="mask-type:luminance" maskUnits="userSpaceOnUse" x="329" y="11" width="263" height="114">
<path d="M591.74 11.2227H329.684V124.484H591.74V11.2227Z" fill="white"/>
</mask>
<g mask="url(#mask4_3077_177574)">
<path d="M523.083 68.8337V77.8946H533.068V80.6496H520.125V56.6504H533.068V59.4054H523.083V66.1399H532.759V68.8337H523.083Z" fill="white"/>
</g>
<mask id="mask5_3077_177574" style="mask-type:luminance" maskUnits="userSpaceOnUse" x="329" y="11" width="263" height="114">
<path d="M591.74 11.2227H329.684V124.484H591.74V11.2227Z" fill="white"/>
</mask>
<g mask="url(#mask5_3077_177574)">
<path d="M538.922 68.0378H539.908C542.99 68.0378 546.318 67.4868 546.318 63.6298C546.318 59.8952 542.743 59.3442 539.723 59.3442H538.922V68.0378ZM550.94 80.6496H547.304L540.216 70.4867H538.984V80.6496H535.964V56.6504H539.6C541.757 56.6504 544.038 56.7116 545.948 57.7524C547.982 58.9156 549.091 61.1809 549.091 63.5073C549.091 66.9358 546.811 69.8132 543.298 70.2418L550.94 80.6496Z" fill="white"/>
</g>
<mask id="mask6_3077_177574" style="mask-type:luminance" maskUnits="userSpaceOnUse" x="329" y="11" width="263" height="114">
<path d="M591.74 11.2227H329.684V124.484H591.74V11.2227Z" fill="white"/>
</mask>
<g mask="url(#mask6_3077_177574)">
<path d="M470.142 80.6496H473.162V56.6504H470.142V75.8743L455.042 56.6504H452.022V80.6496H455.042V61.3033L470.142 80.6496Z" fill="white"/>
</g>
<mask id="mask7_3077_177574" style="mask-type:luminance" maskUnits="userSpaceOnUse" x="329" y="11" width="263" height="114">
<path d="M591.74 11.2227H329.684V124.484H591.74V11.2227Z" fill="white"/>
</mask>
<g mask="url(#mask7_3077_177574)">
<path d="M517.165 77.8926H503.667L517.165 59.4034V56.6484H501.757V59.4034H513.59L500.093 77.8926V80.6477H517.165V77.8926Z" fill="white"/>
</g>
<mask id="mask8_3077_177574" style="mask-type:luminance" maskUnits="userSpaceOnUse" x="329" y="11" width="263" height="114">
<path d="M591.74 11.2227H329.684V124.484H591.74V11.2227Z" fill="white"/>
</mask>
<g mask="url(#mask8_3077_177574)">
<path d="M437.6 59.1587C432.3 59.1587 428.047 63.4443 428.047 68.6482C428.047 73.8521 432.361 78.1377 437.6 78.1377C442.9 78.1377 447.153 73.8521 447.153 68.6482C447.153 63.4443 442.9 59.1587 437.6 59.1587ZM450.049 68.6482C450.049 75.5051 444.441 81.0151 437.6 81.0151C430.697 81.0151 425.15 75.4439 425.15 68.6482C425.15 61.8525 430.759 56.2812 437.6 56.2812C444.503 56.2812 450.049 61.7913 450.049 68.6482Z" fill="white"/>
</g>
<mask id="mask9_3077_177574" style="mask-type:luminance" maskUnits="userSpaceOnUse" x="329" y="11" width="263" height="114">
<path d="M591.74 11.2227H329.684V124.484H591.74V11.2227Z" fill="white"/>
</mask>
<g mask="url(#mask9_3077_177574)">
<path d="M562.834 59.1587C557.534 59.1587 553.281 63.4443 553.281 68.6482C553.281 73.8521 557.596 78.1377 562.834 78.1377C568.134 78.1377 572.387 73.8521 572.387 68.6482C572.387 63.4443 568.134 59.1587 562.834 59.1587ZM575.345 68.6482C575.345 75.5051 569.737 81.0151 562.896 81.0151C555.993 81.0151 550.446 75.4439 550.446 68.6482C550.446 61.8525 556.055 56.2812 562.896 56.2812C569.737 56.2812 575.345 61.7913 575.345 68.6482Z" fill="white"/>
</g>
</g>
<path d="M764.735 81.5228L760.113 82.8366C760.516 84.0272 760.837 86.1636 760.837 89.0376V103.165H766.024V88.2185C766.99 87.0279 768.035 86.4517 769.161 86.4517C769.722 86.4517 770.167 86.5732 770.65 86.863L772.056 81.9758C771.253 81.6061 770.891 81.5245 770.126 81.5245C769.566 81.5245 768.879 81.646 768.437 81.8543C767.472 82.3472 766.266 83.4562 765.503 84.5235C765.503 83.3329 765.221 82.3888 764.738 81.5263L764.735 81.5228ZM746.864 74.5425H746.304V103.127H751.69V90.4747H758.487V85.754H751.69V79.1833H760.174L760.497 76.6772C755.905 76.3408 751.346 75.6263 746.866 74.5407L746.864 74.5425ZM734.279 106.945L736.771 109.902C739.184 108.916 742.2 106.698 743.004 103.168C743.286 102.018 743.366 101.277 743.366 97.5417V74.5824H737.937V98.1561C737.937 101.237 737.818 102.386 737.414 103.455C736.89 104.645 735.647 106.041 734.277 106.943L734.279 106.945ZM783.215 92.448C783.215 97.4584 782.25 99.5949 780.038 99.5949C779.032 99.5949 777.907 99.0221 777.424 97.8698C777.021 96.8024 776.779 94.9957 776.779 92.5313C776.779 90.4365 776.979 88.9561 777.302 87.8106C777.705 86.4968 778.709 85.6759 779.956 85.6759C780.88 85.6759 781.686 86.0872 782.168 86.7867C782.892 87.7724 783.213 89.6208 783.213 92.4549L783.215 92.448ZM786.392 100.662C788.081 98.6091 788.846 96.103 788.846 92.4879C788.846 89.0793 788.163 86.7381 786.595 84.7648C784.906 82.6301 782.734 81.6026 779.92 81.6026C774.612 81.6026 771.074 85.997 771.074 92.651C771.074 99.305 774.575 103.576 779.92 103.576C782.936 103.618 784.906 102.465 786.377 100.66L786.392 100.662ZM801.107 88.8346C801.107 90.7645 799.981 91.8318 797.971 91.8318C796.161 91.8318 794.955 90.9693 794.955 88.8346C794.955 86.863 796.081 85.7141 798.01 85.7141C799.938 85.7141 801.107 86.8648 801.107 88.8346ZM810.235 84.317L808.12 80.8425C806.93 81.9931 805.466 82.6474 804.042 82.6474C803.396 82.6474 803.036 82.5658 801.629 82.1962C800.483 81.8379 799.29 81.6577 798.091 81.6616C793.065 81.6616 789.808 84.4558 789.808 88.8085C789.808 91.929 791.176 93.9006 794.03 94.6816C792.865 94.9697 791.617 95.5841 791.057 96.2835C790.654 96.7764 790.454 97.4341 790.454 98.2134C790.453 98.8127 790.591 99.4037 790.856 99.9385C791.138 100.39 791.502 100.759 791.983 100.966C792.907 101.336 794.396 101.582 796.689 101.625L798.861 101.667C800.268 101.749 800.992 101.997 801.554 102.283C802.078 102.613 802.479 103.351 802.479 104.175C802.479 104.999 801.996 105.818 801.231 106.31C800.548 106.803 799.422 107.007 797.974 107.007C795.602 107.007 794.275 106.105 794.275 104.421C794.275 103.682 794.355 103.519 794.516 103.068H789.786C789.585 103.479 789.344 104.053 789.344 105.202C789.344 106.639 789.867 107.872 790.953 108.939C792.72 110.706 795.617 111.199 798.392 111.199C801.447 111.199 804.424 110.459 806.152 108.488C807.24 107.273 807.721 105.902 807.721 104.135C807.721 102.243 807.197 100.808 806.032 99.6174C804.664 98.2637 803.097 97.7691 800.081 97.7257L797.306 97.6841C796.783 97.6841 796.462 97.4793 796.462 97.1912C796.462 96.6184 797.186 96.1238 798.513 95.466L799.277 95.5077C803.457 95.5077 806.516 92.8801 806.516 89.2251C806.516 87.828 806.113 86.7606 805.35 85.7748C805.996 85.8564 806.195 85.8963 806.676 85.8963C808.043 85.8963 809.129 85.4451 810.254 84.3343L810.235 84.317ZM745.497 49.6931C739.064 51.295 734.68 54.4572 734.68 58.0706C734.68 60.3302 736.369 62.3833 739.143 63.9852C738.299 62.6315 737.857 61.1511 737.857 59.6724C737.898 55.9359 740.753 52.444 745.497 49.6931ZM813.37 63.862C813.37 61.4791 811.923 59.3028 809.51 57.4961C809.71 58.2354 809.872 58.9748 809.872 59.7141C809.872 66.4913 800.584 72.3227 787.395 74.7438C788.931 74.911 790.474 74.9933 792.018 74.9902C803.801 74.9486 813.37 69.9815 813.37 63.862ZM805.772 60.1653C805.772 57.6592 803.682 55.3579 800.101 53.4714C800.946 54.4988 801.388 55.6061 801.388 56.7568C801.388 62.7964 788.843 67.6819 773.322 67.6819C757.843 67.6819 745.257 62.7947 745.257 56.7568C745.257 55.9752 745.466 55.2084 745.86 54.5387C743.368 56.2222 741.961 58.1521 741.961 60.207C741.961 66.7378 756.234 72.0346 773.847 72.0346C791.461 72.0346 805.775 66.6545 805.775 60.1636L805.772 60.1653ZM791.859 59.8356C785.344 64.105 765.321 65.7503 756.716 60.2469C749.96 55.9341 752.293 49.0753 732.953 34.0439C730.422 32.0723 733.436 29.9775 735.325 31.333C737.215 32.6884 735.487 33.0164 739.307 36.9179C747.026 44.8024 746.946 37.6989 748.152 40.4063C750.725 46.0329 756.354 51.7012 756.354 51.7012C762.025 55.4794 766.527 56.3003 774.892 50.5106C780.201 46.8556 778.029 56.342 791.018 49.4831C795.762 46.977 795.561 48.6622 800.387 41.8034C802.397 38.9693 806.215 43.9798 801.875 44.6775C800.146 44.9656 797.211 46.8955 795.962 49.9361C794.153 54.4954 794.917 57.8623 791.86 59.8339L791.859 59.8356ZM755.751 48.2544C754.142 47.5151 752.455 44.7226 751.809 43.6136C753.619 41.8086 752.897 38.8062 751.85 37.1661C750.844 35.5225 749.598 35.9755 748.271 34.4552C746.904 32.9349 748.795 28.9935 750.523 32.0324C756.98 43.4088 761.258 38.6864 766.526 37.9853C771.593 37.3258 776.095 40.1616 777.463 32.1539C777.705 30.8401 778.952 30.552 779.072 32.6884C779.191 34.8648 779.997 40.1217 782.772 40.7795C785.546 41.4771 787.798 40.12 788.442 39.3824C789.086 38.6448 789.448 38.7229 789.728 40.5972C790.01 42.4456 790.734 45.0332 794.633 42.1592C802.637 36.3278 800.343 34.0682 803.479 32.5496C805.247 31.687 808.064 34.4795 804.003 36.576C798.212 39.5733 797.609 43.2699 793.95 45.6112C787.799 49.5543 789.689 45.7761 779.796 44.3373C775.977 43.8028 774.77 48.1156 771.793 46.8833C764.996 44.0093 760.213 44.5837 755.749 48.237L755.751 48.2544ZM777.183 27.185C777.424 28.9102 777.706 28.8685 778.309 28.99C778.913 29.1549 779.677 28.1691 779.677 27.2649C779.718 26.3208 779.275 25.7446 778.391 25.7862C777.467 25.8279 777.144 26.2791 777.202 27.1833L777.183 27.185ZM806.936 30.2656C807.659 30.9633 809.59 30.5121 810.031 29.9775C811.197 28.6637 811.221 27.8827 810.635 26.9803C810.031 26.1177 808.783 26.2409 807.539 27.185C806.295 28.1292 806.533 29.8959 806.936 30.2656ZM806.412 38.9728C805.809 39.7937 805.767 40.4098 806.212 40.8645C806.694 41.3574 807.659 41.767 808.342 41.2342C809.026 40.6614 809.026 39.8371 808.461 39.1394C807.858 38.4 807.054 38.4 806.41 38.9745L806.412 38.9728ZM745.393 28.7071C746.317 28.9952 746.761 29.8977 747.524 28.872C747.926 28.3791 747.966 27.6814 747.444 26.9421C747.121 26.4908 745.592 26.1611 744.951 26.8206C744.311 27.4801 744.91 28.5457 745.393 28.7123V28.7071ZM726.536 28.1344C728.224 29.2017 729.31 30.8036 730.614 29.3493C731.055 28.8564 731.579 27.9955 730.654 26.2687C729.971 24.9948 727.759 24.5019 726.996 24.9948C726.192 25.446 725.229 27.2944 726.554 28.1153L726.536 28.1344ZM742.097 36.3087C742.62 36.8815 743.544 36.8433 744.107 36.5135C744.63 36.1838 744.548 35.323 744.027 34.5836C743.704 34.1324 742.741 33.8859 742.097 34.5836C741.453 35.2813 741.735 35.8974 742.097 36.3087Z" fill="white"/>
<path d="M971.972 89.3344C966.876 89.3344 964.866 86.4112 965.722 81.5396L967.981 68.679H963.37L964.251 63.6605H968.859L970.254 55.7188H976.325L974.929 63.6605H981.287L980.405 68.679H974.048L971.882 81.004C971.54 82.9523 972.268 83.7811 974.209 83.7811C975.538 83.7846 976.866 83.7031 978.184 83.5369L977.285 88.6526C975.548 89.096 973.764 89.3249 971.972 89.3344Z" fill="white"/>
<path d="M980.612 88.8541L985.038 63.6602H991.168L986.742 88.8541H980.612Z" fill="white"/>
<path d="M1062.42 89.3344C1057.33 89.3344 1055.32 86.4112 1056.17 81.5396L1058.43 68.679H1053.83L1054.71 63.6605H1059.31L1060.71 55.7188H1066.78L1065.38 63.6605H1071.74L1070.86 68.679H1064.5L1062.34 81.004C1062 82.9523 1062.72 83.7811 1064.66 83.7811C1065.99 83.7846 1067.32 83.7031 1068.64 83.5369L1067.74 88.6526C1066 89.0963 1064.22 89.3253 1062.42 89.3344Z" fill="white"/>
<path d="M1071.06 88.8541L1075.49 63.6602H1081.62L1077.19 88.8541H1071.06Z" fill="white"/>
<path d="M1009.08 87.5364C1007.31 88.7952 1005.16 89.57 1002.6 89.57C999.61 89.57 997.382 88.5046 996.474 87.1013L994.457 98.5754H988.427L994.542 63.7668H1000.17L999.651 66.527C1001.56 64.2028 1004.53 63.1855 1007.28 63.1855C1009.79 63.1855 1011.66 64.0575 1012.98 65.3163C1015.54 67.7825 1016.37 71.5616 1015.54 76.3038C1014.67 81.2429 1012.51 85.0677 1009.08 87.5364ZM1008.89 70.2165C1008.22 69.103 1007.07 68.2303 1005.19 68.2303C1000.46 68.2303 998.7 72.7359 998.062 76.3697C997.423 80.0035 997.606 84.4602 1002.34 84.4602C1004.22 84.4602 1005.67 83.5883 1006.74 82.4739C1008.28 80.8273 1009.02 78.5495 1009.4 76.3697C1009.79 74.19 1009.86 71.864 1008.89 70.2165Z" fill="white"/>
<path d="M1035.47 89.3153C1032.87 89.3153 1031.71 87.6678 1031.85 85.7778C1030.33 87.8131 1027.13 89.5569 1023.56 89.5569C1017.57 89.5569 1015.15 85.7778 1015.87 81.6599C1016.71 76.8636 1020.92 74.1025 1025.75 73.7629L1033.23 73.2306L1033.5 71.6803C1033.93 69.3062 1033.38 67.7094 1029.96 67.7094C1027.16 67.7094 1025.29 68.9691 1024.74 71.295H1018.9C1020.23 65.6268 1025.17 63.1074 1030.76 63.1074C1035.06 63.1074 1038.49 64.4643 1039.27 68.2425C1039.62 69.8419 1039.4 71.6338 1039.11 73.3295L1037.46 82.678C1037.26 83.8405 1037.57 84.2765 1038.58 84.2765C1038.85 84.2711 1039.11 84.2385 1039.37 84.1793L1038.59 88.6368C1037.49 89.0728 1036.92 89.3153 1035.47 89.3153ZM1032.44 77.7304L1025.99 78.2145C1024.13 78.3598 1022.15 79.4742 1021.79 81.5095C1021.45 83.4476 1022.93 84.6592 1024.81 84.6592C1028.57 84.6592 1031.59 82.6239 1032.24 78.8938L1032.44 77.7304Z" fill="white"/>
<path d="M1048.07 89.1914C1043.97 89.1914 1041.57 87.2051 1042.41 82.4088L1047.09 55.7109H1053.17L1048.67 81.3882C1048.42 82.8414 1048.59 83.8104 1050.66 83.8104C1051.19 83.8104 1051.34 83.7614 1051.68 83.7614L1050.79 88.8484C1049.54 89.0943 1049.28 89.1914 1048.07 89.1914Z" fill="white"/>
<path d="M1083.6 51.6181C1083.63 52.4694 1083.43 53.3132 1083.03 54.0638C1082.63 54.8145 1082.04 55.4453 1081.32 55.8922C1080.59 56.3392 1079.77 56.5864 1078.92 56.6089C1078.07 56.6313 1077.23 56.4281 1076.49 56.0199C1076.4 55.97 1076.32 55.9202 1076.23 55.872C1076.23 55.8653 1076.23 55.8627 1076.22 55.8627C1063.56 48.3915 1048.71 44.3167 1032.95 44.8423C1016.8 45.3813 1001.92 50.6761 989.604 59.3478C989.54 59.3901 989.474 59.4323 989.41 59.4805C989.298 59.5384 989.173 59.5708 989.047 59.5751C988.932 59.579 988.818 59.5603 988.711 59.52C988.604 59.4796 988.506 59.4185 988.422 59.34C988.338 59.2616 988.271 59.1673 988.224 59.0627C988.176 58.958 988.15 58.8451 988.146 58.7302C988.14 58.5744 988.176 58.4199 988.251 58.2833C988.395 58.1498 988.539 58.0222 988.685 57.8913C1002.21 45.7513 1019.9 38.1264 1039.46 37.475C1054.4 36.9765 1068.52 40.612 1080.73 47.36C1080.74 47.36 1080.74 47.36 1080.74 47.3667L1081.09 47.5543C1081.6 47.8318 1082.06 48.1985 1082.44 48.6374C1083.16 49.4692 1083.56 50.521 1083.6 51.6181Z" fill="white"/>
<g clip-path="url(#clip2_3077_177574)">
<path d="M1396.79 76.3253C1397.16 79.918 1394.52 82.9434 1391.11 83.3216C1390.73 83.3216 1390.36 83.3216 1389.98 83.3216H1388.28C1384.68 83.6998 1381.66 81.0526 1381.28 77.649C1381.28 77.2708 1381.28 76.8926 1381.28 76.5144C1380.9 72.9218 1383.55 69.8963 1387.14 69.5182C1387.52 69.5182 1387.9 69.5182 1388.28 69.5182H1389.98C1393.57 69.14 1396.6 71.7872 1396.97 75.3799C1396.79 75.569 1396.79 75.9472 1396.79 76.3253ZM1389.98 64.98H1387.71C1381.85 64.6019 1376.55 69.14 1376.17 75.0017C1376.17 75.3799 1376.17 75.9472 1376.17 76.3253C1375.8 82.1871 1380.33 87.2925 1386.2 87.8597C1386.76 87.8597 1387.14 87.8597 1387.71 87.8597H1389.98C1395.84 88.2379 1401.13 83.8889 1401.51 77.8381C1401.51 77.2708 1401.51 76.8926 1401.51 76.3253C1401.89 70.4636 1397.35 65.3582 1391.3 64.98C1390.92 64.98 1390.36 64.98 1389.98 64.98ZM1438.95 64.98C1437.82 64.791 1436.68 65.7364 1436.49 67.06C1436.49 67.2491 1436.49 67.2491 1436.49 67.4382V85.5907C1436.49 86.7252 1437.44 87.8597 1438.57 87.8597H1438.76C1440.09 87.8597 1441.03 86.9143 1441.22 85.7798V85.5907V67.4382C1441.22 66.1146 1440.28 65.1691 1439.14 64.98H1438.95ZM1318.88 68.7618C1319.64 67.8164 1319.45 66.3037 1318.5 65.5473L1318.31 65.3582C1317.37 64.6019 1316.04 64.791 1315.1 65.7364L1314.91 65.9255L1304.7 81.0526L1294.49 65.9255C1293.92 64.791 1292.6 64.6019 1291.46 65.1691L1291.27 65.3582C1290.14 65.9255 1289.76 67.4382 1290.52 68.3836L1290.71 68.5727C1290.71 68.5727 1302.81 86.5361 1303 86.7252C1303.75 87.6707 1305.27 87.8597 1306.21 87.1034C1306.4 86.9143 1306.59 86.9143 1306.59 86.7252C1306.78 86.7252 1318.88 68.7618 1318.88 68.7618ZM1463.16 74.0563H1454.84C1453.7 74.2454 1452.57 73.2999 1452.57 72.1654C1452.57 71.9763 1452.57 71.7872 1452.57 71.7872C1452.38 70.6527 1453.32 69.5182 1454.46 69.5182C1454.65 69.5182 1454.84 69.5182 1455.02 69.5182H1467.32C1468.45 69.5182 1469.58 68.7618 1469.58 67.4382V67.2491C1469.58 66.1146 1468.83 64.98 1467.5 64.98H1467.32H1454.65C1451.05 64.791 1448.03 67.4382 1447.84 71.0309C1447.84 71.409 1447.84 71.5981 1447.84 71.9763C1447.65 75.569 1450.3 78.5944 1453.7 78.7835C1454.08 78.7835 1454.27 78.7835 1454.65 78.7835H1462.97C1464.1 78.5944 1465.24 79.5399 1465.24 80.6744C1465.24 80.8635 1465.24 81.0526 1465.24 81.0526C1465.24 82.1871 1464.48 83.1325 1463.34 83.3216C1463.16 83.3216 1462.97 83.3216 1462.78 83.3216H1449.73C1448.6 83.3216 1447.46 84.078 1447.46 85.4016V85.5907C1447.46 86.7252 1448.22 87.8597 1449.35 87.8597C1449.54 87.8597 1449.54 87.8597 1449.73 87.8597H1462.97C1466.56 88.0488 1469.58 85.4016 1469.77 81.998C1469.77 81.6198 1469.77 81.4307 1469.77 81.0526C1469.96 77.4599 1467.32 74.4345 1463.91 74.2454C1463.72 74.0563 1463.34 74.0563 1463.16 74.0563ZM1353.48 69.5182H1363.88C1365.4 69.5182 1366.53 70.6527 1366.53 72.1654C1366.53 72.3545 1366.53 72.3545 1366.53 72.5436C1366.72 74.0563 1365.59 75.3799 1364.26 75.569H1353.48V69.5182ZM1348.57 67.2491V85.4016C1348.57 86.7252 1349.7 87.8597 1351.03 87.8597C1352.35 87.8597 1353.48 86.7252 1353.48 85.4016V79.918H1362.75L1367.29 86.9143C1367.67 87.4816 1368.23 87.8597 1368.99 87.8597H1369.18C1370.31 87.8597 1371.26 86.7252 1371.07 85.5907V85.4016C1371.07 85.0234 1370.88 84.6452 1370.69 84.4561L1367.29 79.3508C1369.75 78.2162 1371.26 75.569 1371.07 72.9218V72.5436C1371.07 72.5436 1371.07 72.5436 1371.07 72.3545V71.9763C1371.07 67.6273 1368.42 64.98 1364.45 64.98H1350.84C1349.89 64.791 1348.76 65.7364 1348.76 67.06C1348.76 67.06 1348.76 67.2491 1348.57 67.2491ZM1324.93 78.9726L1329.85 71.5981L1334.76 78.9726H1324.93ZM1344.03 84.078C1344.03 84.078 1331.93 66.1146 1331.74 65.9255C1331.36 65.3582 1330.6 64.98 1329.85 64.98C1329.09 64.98 1328.34 65.3582 1327.96 65.9255C1327.77 66.1146 1315.67 84.078 1315.67 84.078C1314.91 85.0234 1315.1 86.5361 1316.04 87.2925L1316.23 87.4816C1317.18 88.2379 1318.5 88.0488 1319.26 87.1034C1319.26 86.9143 1319.45 86.9143 1319.45 86.7252L1321.91 82.9434H1337.41L1339.87 86.7252C1340.44 87.8597 1341.76 88.0488 1342.9 87.4816L1343.08 87.2925C1344.41 86.7252 1344.79 85.4016 1344.22 84.2671L1344.03 84.078ZM1428.36 87.8597C1427.23 88.0488 1426.09 87.1034 1426.09 85.9689C1426.09 85.7798 1426.09 85.7798 1426.09 85.5907V76.1363C1426.28 72.7327 1423.82 69.7073 1420.23 69.3291C1419.85 69.3291 1419.66 69.3291 1419.29 69.3291H1417.58C1414.18 69.14 1411.16 71.5981 1410.78 75.0017C1410.78 75.3799 1410.78 75.569 1410.78 75.9472V85.2125C1410.97 86.347 1410.02 87.4816 1408.89 87.6707C1408.7 87.6707 1408.51 87.6707 1408.32 87.6707C1407.19 87.8597 1406.05 86.9143 1405.86 85.5907C1405.86 85.4016 1405.86 85.4016 1405.86 85.2125V76.1363C1405.48 70.2745 1409.83 65.3582 1415.69 64.98C1416.26 64.98 1416.83 64.98 1417.21 64.98H1419.48C1425.34 64.6019 1430.44 68.9509 1430.82 74.6236C1430.82 75.1908 1430.82 75.569 1430.82 76.1363V85.4016C1430.82 86.5361 1430.06 87.6707 1428.74 87.8597C1428.74 87.8597 1428.55 87.8597 1428.36 87.8597Z" fill="white"/>
<path d="M1282.01 81.9945L1270.47 64.9766L1266.13 71.4056L1276.15 86.1545C1277.09 87.8563 1279.17 88.2344 1280.69 87.4781C1280.87 87.289 1281.06 87.289 1281.25 87.0999C1282.95 86.1545 1283.33 84.0745 1282.39 82.3727C1282.2 82.1836 1282.2 82.1836 1282.01 81.9945ZM1259.32 86.1545C1260.26 87.6672 1262.15 88.2344 1263.86 87.4781C1264.05 87.289 1264.23 87.289 1264.42 87.0999C1266.13 86.1545 1266.5 84.0745 1265.56 82.5618C1265.56 82.3727 1265.37 82.3727 1265.37 82.1836L1262.15 77.4564L1257.81 83.8854L1259.32 86.1545Z" fill="white"/>
<path d="M1259.13 48.1484H1250.43L1266.13 71.4063L1270.47 64.9773L1259.13 48.1484ZM1233.6 48.1484L1257.81 83.8861L1262.15 77.4571L1242.49 48.3375H1233.6" fill="white"/>
</g>
<g clip-path="url(#clip3_3077_177574)">
<path d="M1638.49 56.0407H1648.26V48.5561H1638.49V41.0039H1629.96V74.2253C1629.96 79.6699 1633.35 83.196 1638.6 83.196H1648.35V75.3872H1638.49V56.0407Z" fill="white"/>
<path d="M1677.64 50.1087C1674.84 48.5551 1671.68 47.7715 1668.24 47.7715C1664.79 47.7715 1661.63 48.5551 1658.83 50.1087C1656.04 51.6624 1653.81 53.851 1652.21 56.5936C1650.62 59.3362 1649.81 62.457 1649.81 65.8751C1649.81 69.2931 1650.62 72.3734 1652.21 75.116C1653.81 77.8585 1656.04 80.0472 1658.83 81.6144C1661.63 83.1815 1664.79 83.9651 1668.24 83.9651C1671.68 83.9651 1674.84 83.168 1677.64 81.6144C1680.44 80.0472 1682.67 77.8585 1684.26 75.116C1685.85 72.3734 1686.67 69.2661 1686.67 65.8751C1686.67 62.484 1685.85 59.3632 1684.26 56.6071C1682.67 53.851 1680.44 51.6624 1677.64 50.1087ZM1677.99 65.8751C1677.99 68.7932 1677.07 71.2116 1675.25 73.076C1673.43 74.9268 1671.07 75.8726 1668.24 75.8726C1665.4 75.8726 1663.05 74.9268 1661.23 73.076C1659.4 71.2116 1658.48 68.7932 1658.48 65.8751C1658.48 62.9569 1659.4 60.5386 1661.23 58.6742C1663.05 56.8233 1665.4 55.8776 1668.24 55.8776C1671.07 55.8776 1673.43 56.8233 1675.25 58.6742C1677.07 60.5386 1677.99 62.9569 1677.99 65.8751Z" fill="white"/>
<path d="M1690.69 56.2441V83.2373H1699.22V56.163H1709.13V48.4082H1698.74C1693.57 48.4082 1690.7 53.0422 1690.7 56.2441H1690.69Z" fill="white"/>
<path d="M1739.21 48.5412V51.4054C1736.33 49.1492 1732.68 47.7982 1728.55 47.7441C1726.11 47.7712 1723.79 48.217 1721.66 49.1087C1719.47 50.0138 1717.39 51.3919 1715.83 52.9726C1714.32 54.5127 1713.08 56.4447 1712.16 58.7414C1711.21 61.0922 1710.73 63.497 1710.73 65.9153C1710.73 68.3336 1711.23 70.887 1712.17 73.2242C1713.01 75.3048 1714.24 77.1557 1715.93 78.885C1717.44 80.4387 1719.43 81.7627 1721.67 82.6948C1723.78 83.573 1726.11 84.0053 1728.82 84.0053C1732.63 84.0053 1735.6 83.1002 1738.69 80.9926L1738.73 95.0161H1747.31V48.5412H1739.22H1739.21ZM1736.29 72.9811C1734.26 75.0211 1732.18 75.8857 1729.3 75.8857C1726.28 75.8857 1723.99 74.9941 1722.09 73.0621C1720.12 71.0626 1719.22 68.8605 1719.22 65.9153C1719.22 62.9701 1720.2 60.6733 1722.2 58.6333C1724.07 56.7284 1726.28 55.8772 1729.32 55.8772C1732.09 55.8772 1734.3 56.7959 1736.27 58.7684C1738.25 60.7409 1739.12 62.9295 1739.12 65.8882C1739.12 68.847 1738.25 71.0086 1736.29 72.9946V72.9811Z" fill="white"/>
<path d="M1794.18 51.3655C1794.18 49.6767 1792.31 48.123 1790.39 48.123H1773.55V56.0535H1794.16V51.352L1794.18 51.3655Z" fill="white"/>
<path d="M1794.18 61.8105H1756.81V69.7545H1794.18V61.8105Z" fill="white"/>
<path d="M1756.84 75.4803V80.0602C1756.84 81.7895 1758.7 83.4108 1760.63 83.4108H1777.82V75.4668H1756.84V75.4803Z" fill="white"/>
</g>
<path d="M2051.03 87.9611V63.1447L2047.67 62.6061V59.6646H2054.01C2054.76 59.6646 2055.67 59.6232 2056.74 59.5403C2058.51 59.4298 2059.96 59.3746 2061.09 59.3746C2064.77 59.3746 2067.58 60.0789 2069.55 61.4875C2071.51 62.8961 2072.49 65.2852 2072.49 68.6549C2072.49 70.754 2071.96 72.5769 2070.91 74.1236C2069.86 75.6703 2068.44 76.8579 2066.65 77.6865C2064.88 78.5151 2062.93 78.9294 2060.8 78.9294C2058.84 78.9294 2057.5 78.9571 2056.79 79.0123V87.9611L2061.92 88.7069V91.0684H2047.38V88.7069L2051.03 87.9611ZM2056.79 75.8636C2057.72 76.0293 2058.94 76.1122 2060.43 76.1122C2062.36 76.1122 2063.88 75.5046 2064.99 74.2893C2066.12 73.074 2066.69 71.1406 2066.69 68.4891C2066.69 66.4729 2066.09 64.9262 2064.91 63.849C2063.72 62.7718 2062.12 62.2332 2060.1 62.2332C2058.83 62.2332 2057.72 62.3575 2056.79 62.6061V75.8636ZM2084.6 67.7848C2087.22 67.7848 2089.27 68.5168 2090.73 69.9806C2092.2 71.4445 2093 73.5298 2093.13 76.2365C2093.16 77.1756 2093.12 78.0456 2093.01 78.8466C2092.93 79.6476 2092.87 80.1447 2092.84 80.338H2078.47C2078.58 82.7962 2079.23 84.702 2080.42 86.0554C2081.63 87.3811 2083.34 88.044 2085.55 88.044C2086.55 88.044 2087.6 87.9473 2088.7 87.754C2089.83 87.533 2090.8 87.2292 2091.6 86.8425L2092.55 88.9969C2091.62 89.7978 2090.3 90.4331 2088.62 90.9026C2086.93 91.3722 2085.28 91.6069 2083.65 91.6069C2080.11 91.6069 2077.38 90.585 2075.44 88.5411C2073.54 86.4973 2072.59 83.68 2072.59 80.0895C2072.59 77.7142 2073.1 75.6012 2074.12 73.7507C2075.14 71.8726 2076.56 70.4087 2078.39 69.3592C2080.21 68.3096 2082.28 67.7848 2084.6 67.7848ZM2083.48 70.3949C2082.07 70.3949 2080.93 71.0025 2080.04 72.2178C2079.16 73.4055 2078.63 75.1179 2078.47 77.3551H2087.29C2087.35 76.6922 2087.38 76.1813 2087.38 75.8222C2087.38 74.2479 2087.07 73.0878 2086.46 72.3421C2086.02 71.044 2085.03 70.3949 2083.48 70.3949ZM2107.51 67.7848C2110.13 67.7848 2112.18 68.5168 2113.64 69.9806C2115.11 71.4445 2115.91 73.5298 2116.05 76.2365C2116.07 77.1756 2116.03 78.0456 2115.92 78.8466C2115.84 79.6476 2115.78 80.1447 2115.76 80.338H2101.38C2101.49 82.7962 2102.14 84.702 2103.33 86.0554C2104.54 87.3811 2106.25 88.044 2108.46 88.044C2109.46 88.044 2110.51 87.9473 2111.61 87.754C2112.74 87.533 2113.71 87.2292 2114.51 86.8425L2115.47 88.9969C2114.53 89.7978 2113.21 90.4331 2111.53 90.9026C2109.84 91.3722 2108.19 91.6069 2106.56 91.6069C2103.02 91.6069 2100.29 90.585 2098.35 88.5411C2096.45 86.4973 2095.5 83.68 2095.5 80.0895C2095.5 77.7142 2096.01 75.6012 2097.03 73.7507C2098.05 71.8726 2099.47 70.4087 2101.3 69.3592C2103.12 68.3096 2105.19 67.7848 2107.51 67.7848ZM2106.39 70.3949C2104.98 70.3949 2103.84 71.0025 2102.95 72.2178C2102.07 73.4055 2101.54 75.1179 2101.38 77.3551H2110.2C2110.26 76.6922 2110.29 76.1813 2110.29 75.8222C2110.29 74.2479 2109.98 73.0878 2109.38 72.3421C2108.93 71.044 2107.94 70.3949 2106.39 70.3949ZM2120.81 88.2511V73.7093L2117.99 71.8449V69.8563L2124.58 67.8677L2125.82 68.282V71.8864C2126.21 70.8921 2127.05 69.9806 2128.35 69.152C2129.68 68.3234 2130.91 67.9091 2132.04 67.9091C2133.11 67.9091 2133.81 67.9644 2134.11 68.0748V73.6264C2133.69 73.3778 2133.16 73.1707 2132.49 73.005C2131.83 72.8393 2131.17 72.7564 2130.5 72.7564C2128.93 72.7564 2127.63 73.0878 2126.61 73.7507V88.1268L2131.75 88.7483V91.0684H2117.99V88.7483L2120.81 88.2511ZM2147.82 91.6069C2146.05 91.6069 2144.17 91.4274 2142.18 91.0684C2140.2 90.7093 2138.77 90.295 2137.92 89.8255V82.3267H2140.4L2142.06 86.7597C2142.72 87.5883 2143.57 88.1545 2144.59 88.4583C2145.61 88.7621 2146.8 88.914 2148.15 88.914C2149.64 88.914 2150.88 88.4997 2151.88 87.6711C2152.9 86.8425 2153.41 85.6687 2153.41 84.1496C2153.41 82.9619 2152.89 81.8848 2151.84 80.9181C2150.82 79.9514 2149.37 78.9294 2147.49 77.8523C2145.31 76.6646 2143.58 75.6289 2142.31 74.745C2141.04 73.8612 2139.99 72.8393 2139.16 71.6792C2138.36 70.4916 2137.96 69.1244 2137.96 67.5777C2137.96 65.8376 2138.46 64.36 2139.45 63.1447C2140.47 61.9018 2141.77 60.9627 2143.34 60.3275C2144.92 59.6922 2146.55 59.3746 2148.23 59.3746C2149.84 59.3746 2151.53 59.5265 2153.33 59.8303C2155.12 60.1341 2156.38 60.4794 2157.1 60.8661V67.0805H2154.45L2152.67 63.0204C2152.28 62.7166 2151.67 62.468 2150.84 62.2747C2150.01 62.0537 2149.21 61.9432 2148.44 61.9432C2147.14 61.9432 2145.98 62.2747 2144.96 62.9375C2143.94 63.6004 2143.43 64.6224 2143.43 66.0033C2143.43 67.4396 2144.02 68.6963 2145.21 69.7735C2146.42 70.823 2148.29 72.0245 2150.8 73.3778C2153.45 74.7865 2155.5 76.1951 2156.93 77.6037C2158.37 79.0123 2159.09 80.7247 2159.09 82.741C2159.09 84.6744 2158.58 86.3177 2157.55 87.6711C2156.56 88.9969 2155.21 89.9912 2153.49 90.6541C2151.78 91.2893 2149.89 91.6069 2147.82 91.6069ZM2174.13 67.7848C2176.95 67.7848 2179.16 68.7377 2180.76 70.6435C2182.39 72.5492 2183.2 75.3389 2183.2 79.0123C2183.2 81.3047 2182.66 83.4039 2181.59 85.3096C2180.54 87.2154 2179.07 88.7345 2177.2 89.8669C2175.34 90.9717 2173.29 91.5241 2171.02 91.5241C2170.5 91.5241 2169.89 91.4688 2169.2 91.3584C2168.51 91.2755 2168.09 91.2203 2167.96 91.1926L2168.16 95.4599V98.5257L2172.14 99.0643V101.426H2159.75V99.0643L2162.4 98.5257V73.7093L2159.63 71.8449V69.8563L2166.22 67.8677L2167.38 68.282V70.7678C2167.9 69.9944 2168.81 69.3039 2170.11 68.6963C2171.44 68.0886 2172.78 67.7848 2174.13 67.7848ZM2171.73 71.0578C2171.01 71.0578 2170.32 71.2373 2169.66 71.5964C2169.02 71.9278 2168.51 72.3007 2168.12 72.715V87.0082C2168.37 87.533 2168.85 87.9335 2169.57 88.2097C2170.29 88.4583 2171.11 88.5826 2172.02 88.5826C2173.07 88.5826 2173.99 88.2235 2174.79 87.5054C2175.62 86.7597 2176.27 85.7239 2176.74 84.3982C2177.21 83.0448 2177.44 81.4567 2177.44 79.6337C2177.44 76.927 2176.92 74.8279 2175.87 73.3364C2174.82 71.8173 2173.44 71.0578 2171.73 71.0578ZM2197.05 67.7434C2200.59 67.7158 2203.3 68.7377 2205.17 70.8092C2207.05 72.8807 2207.98 75.7117 2207.95 79.3023C2207.95 81.7328 2207.45 83.8872 2206.46 85.7653C2205.46 87.6159 2204.11 89.0521 2202.4 90.074C2200.69 91.0684 2198.74 91.5655 2196.56 91.5655C2192.94 91.5655 2190.18 90.4883 2188.27 88.334C2186.39 86.152 2185.45 83.2796 2185.45 79.7166C2185.45 77.2861 2185.95 75.1869 2186.94 73.4193C2187.97 71.624 2189.35 70.243 2191.09 69.2763C2192.86 68.3096 2194.84 67.7986 2197.05 67.7434ZM2196.76 70.4363C2194.91 70.4363 2193.59 71.1959 2192.79 72.715C2192.01 74.2341 2191.63 76.3608 2191.63 79.0952C2191.63 81.719 2192.07 83.9977 2192.95 85.9311C2193.84 87.8645 2195.12 88.8312 2196.8 88.8312C2198.68 88.8312 2200 88.0302 2200.74 86.4282C2201.49 84.7987 2201.86 82.52 2201.86 79.5923C2201.86 76.8856 2201.45 74.6898 2200.62 73.005C2199.79 71.2925 2198.5 70.4363 2196.76 70.4363ZM2217.06 68.4477H2223.77V71.6378H2217.23V80.1723C2217.23 82.2714 2217.27 83.832 2217.35 84.8539C2217.44 85.8758 2217.64 86.6492 2217.97 87.174C2218.31 87.6711 2218.84 87.9197 2219.59 87.9197C2220.14 87.9197 2220.8 87.8368 2221.58 87.6711C2222.38 87.5054 2222.95 87.3259 2223.28 87.1325L2224.19 89.2454C2223.5 89.9636 2222.43 90.5298 2221 90.9441C2219.56 91.3584 2218.19 91.5655 2216.9 91.5655C2215.02 91.5655 2213.66 91.0407 2212.84 89.9912C2212.01 88.914 2211.59 87.2154 2211.59 84.8953V71.6378H2208.57V69.6906C2209.78 69.4144 2210.63 69.1658 2211.1 68.9449C2211.59 68.7239 2212.01 68.351 2212.34 67.8263C2212.81 67.1081 2213.46 65.5062 2214.29 63.0204H2217.06V68.4477Z" fill="white"/>
<path fill-rule="evenodd" clip-rule="evenodd" d="M2031.08 33.6855H1987.97V58.8095V76.7905V101.897L2009.52 80.3531L2013.09 76.7905H2031.08V58.8095V33.6855ZM2013.11 42.6708H2022.09V67.8052H2013.11V42.6708Z" fill="white"/>
<path d="M2491.57 68.0044C2491.57 47.6869 2475.1 31.2177 2454.78 31.2177C2454.23 31.2177 2453.68 31.2317 2453.13 31.2569L2445.61 51.9381H2452.16C2456.06 51.9381 2458.16 54.9401 2456.82 58.6066L2447.54 84.114L2439.75 84.1126L2449.71 56.7727H2443.85L2433.89 84.1126H2426.09L2437.81 51.9381L2444.85 32.5761C2429.36 36.9098 2418 51.1296 2418 68.0044C2418 85.38 2430.05 99.9411 2446.24 103.792L2453.07 85.0317H2453.08L2465.12 51.9381H2479.47C2483.38 51.9381 2485.48 54.9401 2484.14 58.6066L2475.99 81.0099C2475.36 82.7165 2473.37 84.1126 2471.56 84.1126H2461.21L2453.69 104.774C2454.05 104.784 2454.42 104.791 2454.78 104.791C2475.1 104.791 2491.57 88.3205 2491.57 68.0044Z" fill="white"/>
<path d="M2477.04 56.7511H2471.19L2462.98 79.2578H2468.84L2477.04 56.7511Z" fill="white"/>
<path d="M2787.15 53.2895C2787.15 52.9714 2786.88 52.708 2786.55 52.708H2780.69C2780.36 52.708 2780.09 52.9714 2780.09 53.2895V62.8897C2777.92 61.6609 2775.4 61.0355 2772.53 61.0355C2768.28 61.0355 2764.78 62.396 2762.03 65.106C2759.28 67.7721 2757.93 71.0636 2757.93 74.9366C2757.93 78.8644 2759.28 82.1559 2762.03 84.822C2764.78 87.4881 2768.28 88.8376 2772.53 88.8376C2775.6 88.8376 2778.28 88.1245 2780.56 86.7311L2786.33 88.8047C2786.72 88.9473 2787.14 88.6621 2787.14 88.2561V53.2895H2787.15ZM2777.9 80.3127C2776.45 81.7719 2774.7 82.496 2772.56 82.496C2770.4 82.496 2768.6 81.7719 2767.15 80.3127C2765.7 78.8096 2765 77.0212 2765 74.9366C2765 72.852 2765.7 71.0636 2767.15 69.6044C2768.6 68.1561 2770.4 67.432 2772.56 67.432C2774.71 67.432 2776.45 68.1561 2777.9 69.6044C2779.35 71.0636 2780.1 72.852 2780.1 74.9366C2780.1 77.0212 2779.35 78.8205 2777.9 80.3127Z" fill="white"/>
<path d="M2730.29 65.0906C2733.05 62.3806 2736.55 61.0201 2740.8 61.0201C2745.04 61.0201 2748.55 62.3806 2751.3 65.0906C2754.05 67.7567 2755.4 71.0481 2755.4 74.9211C2755.4 78.849 2754.05 82.1405 2751.3 84.8066C2748.55 87.4727 2745.04 88.8222 2740.8 88.8222C2736.55 88.8222 2733.05 87.4617 2730.29 84.8066C2727.54 82.1405 2726.19 78.849 2726.19 74.9211C2726.19 71.0481 2727.54 67.7567 2730.29 65.0906ZM2740.8 82.4806C2742.95 82.4806 2744.69 81.7565 2746.14 80.2972C2747.59 78.7941 2748.34 77.0057 2748.34 74.9211C2748.34 72.8365 2747.59 71.0481 2746.14 69.5889C2744.69 68.1407 2742.94 67.4165 2740.8 67.4165C2738.64 67.4165 2736.84 68.1407 2735.39 69.5889C2733.94 71.0481 2733.24 72.8365 2733.24 74.9211C2733.24 77.0057 2733.94 78.7941 2735.39 80.2972C2736.84 81.7565 2738.64 82.4806 2740.8 82.4806Z" fill="white"/>
<path d="M2804.27 65.9506C2807.06 65.9506 2809.32 63.7598 2809.32 61.0572C2809.32 58.3547 2807.06 56.1639 2804.27 56.1639C2801.48 56.1639 2799.21 58.3547 2799.21 61.0572C2799.21 63.7598 2801.48 65.9506 2804.27 65.9506Z" fill="white"/>
<path d="M2793.75 51.2345C2796.51 48.5245 2800.01 47.1641 2804.26 47.1641C2808.5 47.1641 2812.01 48.5245 2814.76 51.2345C2817.51 53.9006 2818.86 57.1921 2818.86 61.0651C2818.86 64.993 2817.51 68.2845 2814.76 70.9506C2812.01 73.6167 2808.5 74.9662 2804.26 74.9662C2800.01 74.9662 2796.51 73.6057 2793.75 70.9506C2791 68.2845 2789.65 64.993 2789.65 61.0651C2789.65 57.1921 2791 53.9006 2793.75 51.2345ZM2804.26 68.6246C2806.41 68.6246 2808.15 67.9005 2809.6 66.4412C2811.05 64.9381 2811.8 63.1497 2811.8 61.0651C2811.8 58.9805 2811.05 57.1921 2809.6 55.7329C2808.15 54.2847 2806.4 53.5605 2804.26 53.5605C2802.1 53.5605 2800.3 54.2847 2798.85 55.7329C2797.4 57.1921 2796.7 58.9805 2796.7 61.0651C2796.7 63.1497 2797.4 64.9381 2798.85 66.4412C2800.3 67.8895 2802.1 68.6246 2804.26 68.6246Z" fill="white"/>
<path d="M2690.78 74.9361C2690.78 71.0631 2689.43 67.7716 2686.68 65.1055C2683.93 62.3955 2680.42 61.035 2676.18 61.035C2671.93 61.035 2668.43 62.3955 2665.67 65.1055C2662.92 67.7716 2661.57 71.0631 2661.57 74.9361C2661.57 78.8639 2662.92 82.1554 2665.67 84.8215C2668.43 87.4876 2671.93 88.8371 2676.18 88.8371C2679.25 88.8371 2681.92 88.124 2684.2 86.7306L2689.98 88.8042C2690.36 88.9468 2690.78 88.6616 2690.78 88.2556V74.9361ZM2676.18 82.4955C2674.02 82.4955 2672.22 81.7714 2670.77 80.3122C2669.32 78.809 2668.62 77.0207 2668.62 74.9361C2668.62 72.8514 2669.32 71.0631 2670.77 69.6038C2672.22 68.1556 2674.02 67.4315 2676.18 67.4315C2678.33 67.4315 2680.07 68.1556 2681.52 69.6038C2682.97 71.0631 2683.72 72.8514 2683.72 74.9361C2683.72 77.0207 2682.97 78.809 2681.52 80.3122C2680.07 81.7714 2678.33 82.4955 2676.18 82.4955Z" fill="white"/>
<path d="M2723.7 74.9361C2723.7 71.0631 2722.35 67.7606 2719.59 65.1055C2716.84 62.3955 2713.34 61.035 2709.09 61.035C2704.84 61.035 2701.34 62.3955 2698.59 65.1055C2695.83 67.7716 2694.49 71.0631 2694.49 74.9361V88.2556C2694.49 88.5738 2694.76 88.8371 2695.09 88.8371H2700.93C2701.26 88.8371 2701.53 88.5738 2701.53 88.2556V74.9361C2701.53 72.8514 2702.24 71.0631 2703.69 69.6038C2705.14 68.1556 2706.94 67.4315 2709.09 67.4315C2711.24 67.4315 2712.99 68.1556 2714.44 69.6038C2715.89 71.0631 2716.64 72.8514 2716.64 74.9361V88.2556C2716.64 88.5738 2716.91 88.8371 2717.24 88.8371H2723.1C2723.42 88.8371 2723.7 88.5738 2723.7 88.2556V74.9361Z" fill="white"/>
<path d="M2834.13 69.2752C2834.45 69.2752 2834.73 69.0119 2834.73 68.6937V63.4602C2834.73 63.1421 2834.45 62.8787 2834.13 62.8787H2828.54V53.2895C2828.54 52.9714 2828.27 52.708 2827.94 52.708H2821.96C2821.63 52.708 2821.36 52.9714 2821.36 53.2895V77.9867C2821.38 83.9772 2826.41 88.8376 2832.6 88.8376C2832.61 88.8376 2832.62 88.8376 2832.62 88.8376C2832.62 88.8376 2832.63 88.8376 2832.64 88.8376C2833.04 88.8376 2833.66 88.8376 2834.11 88.8376C2834.44 88.8376 2834.71 88.5743 2834.71 88.2561V83.0665C2834.71 82.7484 2834.44 82.4851 2834.11 82.4851H2832.6C2830.35 82.4851 2828.53 80.7186 2828.53 78.5462V69.2642H2834.13V69.2752Z" fill="white"/>
<path d="M3139.05 49.794C3136.09 51.7219 3134.85 55.2302 3136.33 57.4944C3137.81 59.7473 3141.36 59.9155 3144.41 57.9876C3147.37 55.9925 3148.53 52.5625 3147.14 50.2983C3146.33 49.043 3144.91 48.4153 3143.31 48.4153C3141.93 48.4153 3140.42 48.8636 3139.05 49.794ZM3101.29 53.5601C3098.16 53.6498 3097.09 53.6497 3097.09 53.6497L3095.43 61.1596H3090.99C3090.99 61.1596 3092.3 62.0003 3093.04 63.5135C3093.62 64.9258 3093.87 66.8537 3093.45 69.1179C3092.72 73.366 3091.81 77.4683 3091.81 77.4683C3090.23 84.7428 3093.12 87.0744 3099.88 87.0744C3101.62 87.0744 3104.09 86.9174 3105.82 86.5811L3107.22 79.7213C3105.67 79.9791 3104.34 80.0576 3103.43 80.0576C3102.03 80.0576 3101.2 79.1385 3101.29 78.0625C3101.29 77.1434 3101.53 76.1345 3101.7 75.2938L3103.36 67.6046H3109.78L3111.26 61.1596H3104.51L3106.24 53.392C3106.24 53.392 3104.76 53.4816 3101.29 53.5601ZM3004.24 75.3835C3004.24 80.8982 3006.55 87.5898 3017.76 87.5898C3024.36 87.5898 3030.54 83.4875 3032.03 76.2915H3022.55C3021.8 78.4772 3020.16 80.8982 3017.76 80.8982C3014.88 80.8982 3014.14 78.7237 3014.38 75.1257C3014.55 73.2875 3015.62 66.7752 3020 66.7752C3023.12 66.7752 3023.38 70.0257 3023.38 71.2811H3032.85C3032.93 64.0066 3027.74 60.0836 3020.32 60.0836C3010.43 60.0836 3004.24 67.9408 3004.24 75.3835ZM3033.92 75.7982C3033.92 82.5683 3037.88 87.4217 3047.12 87.4217C3056.61 87.4217 3059.81 80.6517 3060.48 78.9816H3051.23C3050.58 80.3155 3049.59 81.2345 3047.53 81.2345C3045.72 81.2345 3044.72 80.3153 3044.23 79.3962C3043.74 78.3986 3043.49 77.2217 3043.57 75.7982H3061.47C3061.79 74.5428 3061.96 73.1193 3061.96 71.4492C3061.96 63.76 3056.35 60.2404 3049.67 60.2404C3042.41 60.2404 3033.92 64.8473 3033.92 75.7982ZM3049.34 66.1924C3052.06 66.1924 3053.38 67.7728 3052.89 70.788H3044.39C3045.07 68.1988 3046.78 66.1924 3049.34 66.1924ZM3173.11 76.6388C3173.11 81.2344 3174.91 87.1751 3182.26 87.1751C3185.55 87.1751 3188.85 85.4154 3190.25 83.4875V83.5771C3190.25 84.5747 3190.33 85.7516 3190.75 86.5811H3200.31C3199.81 85.2473 3199.81 82.983 3200.39 80.3153C3200.89 78.0624 3204.36 61.1596 3204.36 61.1596H3194.8L3194.04 64.4326C3192.89 62.0788 3190.43 60.4984 3186.63 60.4984C3177.79 60.4984 3173.11 69.1962 3173.11 76.6388ZM3183.16 75.888C3183.16 71.8641 3185.39 67.1002 3188.77 67.1002C3191.57 67.1002 3192.56 69.0281 3192.56 71.6173C3192.56 76.9751 3190.01 80.3153 3186.87 80.3153C3184.65 80.3153 3183.16 79.0601 3183.16 75.888ZM3143.5 75.4732C3143.58 80.8983 3146.06 87.1751 3157.1 87.1751C3163.62 87.1751 3169.81 83.4875 3171.37 76.2915H3161.89C3161.15 78.4772 3159.5 80.4835 3157.02 80.4835C3154.32 80.4835 3153.49 78.7237 3153.73 75.1257C3153.81 73.209 3154.89 67.1002 3159.33 67.1002C3162.47 67.1002 3162.72 70.1154 3162.64 71.2811H3172.11C3172.2 64.0066 3167.08 60.4984 3159.58 60.4984C3149.77 60.4984 3143.5 67.941 3143.5 75.4732ZM3074.81 64.7689L3075.81 61.1596H3066.57L3061.38 86.5811H3070.94L3073.75 73.1193C3074.33 70.4404 3075.32 68.2772 3078.37 68.2772C3079.93 68.2772 3081.09 69.1178 3081.09 70.6982C3081.09 71.707 3080.59 73.4557 3080.34 74.9689L3077.88 86.5811H3087.27L3090.32 72.2002C3090.73 70.362 3090.99 68.5237 3090.99 67.3468C3090.99 62.0787 3086.85 60.4984 3083.57 60.4984C3079.43 60.4984 3076.8 62.5047 3074.81 64.7689ZM3121.9 65.5984V65.5086L3122.89 61.1596H3113.66L3108.45 86.5811H3118.02L3120.26 75.9663C3121.24 71.2811 3123.22 69.4428 3126.27 69.4428C3127.75 69.4428 3128.66 69.5326 3130.23 70.1155L3132.04 61.4175C3131.3 61.0812 3130.47 61.0027 3129.33 61.0027C3126.27 61.0027 3123.39 63.1773 3121.9 65.5984ZM3134.51 61.1596L3129.33 86.5811H3138.88L3144.08 61.1596H3134.51Z" fill="white"/>
<path d="M3465.62 44.0339C3463.15 45.2707 3462.08 47.5792 3462.08 53.8454C3462.08 53.8454 3463.32 52.6086 3465.29 51.8666C3466.72 51.3307 3467.75 50.6299 3468.49 50.0939C3470.63 48.4862 3470.96 46.5486 3470.96 43.1682C3470.91 43.1682 3467.55 42.9621 3465.62 44.0339Z" fill="white"/>
<path d="M3450.54 45.4759C3448.4 47.2486 3447.87 50.2992 3447.87 50.2992L3440.97 76.8477L3435.3 55.1225C3434.77 52.8139 3433.7 49.9694 3432.1 47.9906C3430.12 45.4759 3426.02 45.311 3425.52 45.311C3425.15 45.311 3421.09 45.4759 3418.95 47.9906C3417.35 49.9694 3416.28 52.8139 3415.75 55.1225L3410.41 76.8477L3403.51 50.2992C3403.51 50.2992 3402.97 47.4547 3400.84 45.4759C3397.47 42.4253 3392.5 43.1674 3392.5 43.1674L3405.64 92.8428C3405.64 92.8428 3409.92 93.2138 3412.05 92.142C3414.89 90.6991 3416.32 89.6685 3417.92 82.8665C3419.53 76.8065 3423.8 59.1624 3424.13 57.9257C3424.29 57.3898 3424.66 55.782 3425.73 55.782C3426.8 55.782 3427.17 57.2249 3427.33 57.9257C3427.7 59.1624 3431.93 76.8065 3433.53 82.8665C3435.3 89.6273 3436.53 90.6991 3439.41 92.142C3441.54 93.2138 3445.82 92.8428 3445.82 92.8428L3458.88 43.1674C3458.88 43.1674 3453.91 42.4666 3450.54 45.4759Z" fill="white"/>
<path d="M3470.91 51.1644C3470.91 51.1644 3470.01 52.4011 3468.24 53.4729C3467.01 54.1738 3465.94 54.5448 3464.71 55.2456C3462.58 56.3174 3462.04 57.3893 3462.04 58.997V92.6774C3462.04 92.6774 3465.41 93.0484 3467.55 91.9766C3470.38 90.5337 3470.91 89.1321 3470.91 83.0721V51.1644Z" fill="white"/>
<path d="M3503.57 68.1089L3520.25 43.333C3520.25 43.333 3513.35 42.0963 3509.77 45.3118C3507.47 47.2905 3505.17 51.0007 3505.17 51.0007L3499.13 59.9052C3498.76 60.4411 3498.43 60.8122 3497.9 60.8122C3497.37 60.8122 3496.83 60.2762 3496.67 59.9052L3490.63 51.0007C3490.63 51.0007 3488.17 47.4554 3486.03 45.3118C3482.5 42.0963 3475.56 43.333 3475.56 43.333L3491.7 68.0677L3475.19 92.8023C3475.19 92.8023 3482.46 93.7093 3486.03 90.4937C3488.33 88.515 3490.47 85.1346 3490.47 85.1346L3496.5 76.2301C3496.87 75.6942 3497.2 75.3232 3497.74 75.3232C3498.27 75.3232 3498.8 75.8591 3498.97 76.2301L3505.01 85.1346C3505.01 85.1346 3507.31 88.515 3509.44 90.4937C3512.98 93.7093 3520.08 92.8023 3520.08 92.8023L3503.57 68.1089Z" fill="white"/>
<path d="M3723.14 75.4374C3723.18 75.4045 3723.21 75.3717 3723.24 75.3391C3725.16 73.4494 3726.87 71.1361 3727.03 68.2859C3727.26 64.1876 3724.41 61.7892 3721.81 59.1991C3720.18 57.5731 3719.17 55.447 3718.93 53.1719C3718.69 50.8967 3719.24 48.6086 3720.49 46.6851C3724.76 40.2818 3734.88 41.0896 3737.96 48.1834C3738.72 50.0204 3738.92 52.0381 3738.53 53.9854C3738.14 55.9327 3737.18 57.7232 3735.77 59.1341C3733.27 61.7282 3730.42 64.048 3730.41 68.0231C3730.39 71.5768 3732.7 74.0205 3734.95 76.4165C3737.2 78.7985 3738.64 81.4936 3738.48 84.8089C3738.4 86.3056 3737.95 87.76 3737.18 89.0526C3736.42 90.3453 3735.35 91.4391 3734.07 92.2443C3728.54 95.7532 3720.73 92.4423 3719.22 86.1751C3718.24 82.0791 3720.29 78.277 3723.14 75.4374Z" fill="white"/>
<path d="M3749.92 77.7643C3755.35 77.7643 3759.76 73.4 3759.76 68.0163C3759.76 62.6327 3755.35 58.2684 3749.92 58.2684C3744.48 58.2684 3740.08 62.6327 3740.08 68.0163C3740.08 73.4 3744.48 77.7643 3749.92 77.7643Z" fill="white"/>
<path d="M3773.99 81.3722V53.3836H3774.55C3776.09 53.3853 3777.56 53.9894 3778.64 55.0632C3779.73 56.137 3780.34 57.5929 3780.34 59.1115V81.3722H3773.99Z" fill="white"/>
<path d="M3774.55 80.8107V53.9452C3775.94 53.9452 3777.26 54.4895 3778.24 55.4584C3779.22 56.4273 3779.77 57.7413 3779.77 59.1116V80.8107H3774.55ZM3800.24 93.554C3792.86 93.554 3787.79 90.2248 3785.97 84.1798L3785.75 83.4579H3792.22L3792.36 83.8094C3793.75 87.2047 3797.41 87.9173 3800.24 87.9173C3806.07 87.9173 3808.9 84.9524 3808.9 78.8529V77.6318C3806.72 80.3065 3803.23 81.8615 3799.25 81.8615C3792.37 81.8615 3784.96 77.3291 3784.96 67.3778C3784.96 58.8593 3791.34 52.6767 3800.13 52.6767C3809.14 52.6767 3815.19 58.6722 3815.19 67.5956V78.6354C3815.19 88.1164 3809.74 93.554 3800.24 93.554ZM3800.13 58.5853C3794.97 58.5853 3791.36 62.2009 3791.36 67.3778C3791.36 72.4742 3794.89 75.8984 3800.13 75.8984C3805.37 75.8984 3808.9 72.4742 3808.9 67.3778C3808.9 62.201 3805.29 58.5853 3800.13 58.5853Z" fill="white"/>
<path d="M3809.46 75.9705H3809.35C3807.49 79.2336 3803.81 81.3001 3799.25 81.3001C3792.22 81.3001 3785.53 76.5144 3785.53 67.3778C3785.53 59.2203 3791.56 53.2382 3800.13 53.2382C3808.7 53.2382 3814.63 58.9484 3814.63 67.5955V78.6353C3814.63 88.9682 3808.26 92.9926 3800.24 92.9926C3793.6 92.9926 3788.38 90.2191 3786.51 84.0194H3791.84C3793.1 87.1192 3796.29 88.4788 3800.24 88.4788C3805.79 88.4788 3809.46 85.8684 3809.46 78.853V75.9705ZM3800.13 58.0239C3794.53 58.0239 3790.8 61.9395 3790.8 67.3778C3790.8 72.8163 3794.53 76.4599 3800.13 76.4599C3805.73 76.4599 3809.46 72.8163 3809.46 67.3778C3809.46 61.9395 3805.73 58.0239 3800.13 58.0239ZM3833.86 82.0792C3825.12 82.0792 3819.9 76.8071 3819.9 67.9762V53.3836H3826.25V67.9762C3826.25 73.2602 3828.95 76.1703 3833.86 76.1703C3838.77 76.1703 3841.48 73.2602 3841.48 67.9762V53.3836H3847.83V67.9762C3847.83 76.8071 3842.61 82.0792 3833.86 82.0792Z" fill="white"/>
<path d="M3842.05 53.9452H3847.26V67.9761C3847.26 76.895 3841.88 81.5177 3833.86 81.5177C3825.85 81.5177 3820.47 76.9495 3820.47 67.9761V53.9452H3825.68V67.9761C3825.68 73.7951 3828.92 76.7318 3833.86 76.7318C3838.81 76.7318 3842.05 73.7951 3842.05 67.9761V53.9452ZM3866.48 82.0792C3859.38 82.0792 3852.19 77.0294 3852.19 67.3778C3852.19 58.8593 3858.57 52.6767 3867.36 52.6767C3876.23 52.6767 3882.42 58.8114 3882.42 67.5955V81.3722H3876.51V77.2108C3874.41 80.2924 3870.8 82.0792 3866.48 82.0792ZM3867.36 58.5853C3862.2 58.5853 3858.59 62.201 3858.59 67.3778C3858.59 72.5546 3862.2 76.1702 3867.36 76.1702C3872.52 76.1702 3876.13 72.5546 3876.13 67.3778C3876.13 62.201 3872.52 58.5853 3867.36 58.5853Z" fill="white"/>
<path d="M3881.85 80.8106H3877.08V75.2091H3876.97C3875.32 79.0159 3871.48 81.5177 3866.48 81.5177C3859.45 81.5177 3852.75 76.5144 3852.75 67.3778C3852.75 59.2203 3858.79 53.2382 3867.36 53.2382C3875.92 53.2382 3881.85 59.0028 3881.85 67.5955V80.8106ZM3876.69 67.3778C3876.69 61.9395 3872.96 58.0239 3867.36 58.0239C3861.76 58.0239 3858.02 61.9395 3858.02 67.3778C3858.02 72.8163 3861.76 76.7318 3867.36 76.7318C3872.96 76.7318 3876.69 72.8163 3876.69 67.3778ZM3887.02 81.3722V76.3428L3903.71 59.1292H3887.84V53.3836H3912.59V53.9451C3912.59 56.813 3911.47 59.5706 3909.46 61.6353L3895.89 75.6265H3913.13V81.3722H3887.02Z" fill="white"/>
<path d="M3887.59 80.8106V76.5688L3904.94 58.6765V58.5677H3888.41V53.9452H3912.02C3912.02 56.667 3910.96 59.2833 3909.05 61.2464L3894.67 76.0793V76.1881H3912.57V80.8107L3887.59 80.8106ZM3917.98 81.3722V53.3836H3918.54C3920.08 53.3853 3921.55 53.9894 3922.63 55.0633C3923.71 56.1371 3924.32 57.5931 3924.33 59.1117V81.3722H3917.98Z" fill="white"/>
<path d="M3918.54 80.8107V53.9452C3919.93 53.9452 3921.25 54.4895 3922.23 55.4584C3923.21 56.4274 3923.76 57.7415 3923.76 59.1117V80.8107H3918.54ZM3943.77 82.0792C3934.98 82.0792 3928.6 75.8963 3928.6 67.3778C3928.6 58.8593 3934.98 52.6767 3943.77 52.6767C3952.56 52.6767 3958.94 58.8593 3958.94 67.3778C3958.94 75.8963 3952.56 82.0792 3943.77 82.0792ZM3943.77 58.5853C3938.61 58.5853 3935 62.201 3935 67.3778C3935 72.5546 3938.61 76.1702 3943.77 76.1702C3948.93 76.1702 3952.53 72.5546 3952.53 67.3778C3952.53 62.201 3948.93 58.5853 3943.77 58.5853Z" fill="white"/>
<path d="M3944.24 81.5176C3935.67 81.5176 3929.63 75.5353 3929.63 67.3778C3929.63 59.2203 3935.67 53.2382 3944.24 53.2382C3952.8 53.2382 3958.84 59.2203 3958.84 67.3778C3958.84 75.5353 3952.8 81.5176 3944.24 81.5176ZM3953.57 67.3778C3953.57 61.9395 3949.84 58.0239 3944.24 58.0239C3938.64 58.0239 3934.91 61.9395 3934.91 67.3778C3934.91 72.8163 3938.64 76.7318 3944.24 76.7318C3949.84 76.7318 3953.57 72.8163 3953.57 67.3778ZM3777.04 42.4545C3778.05 42.4569 3779.01 42.8547 3779.73 43.5604C3780.44 44.2661 3780.84 45.2221 3780.83 46.2188C3780.83 47.2037 3780.44 48.1481 3779.74 48.8455C3779.03 49.5429 3778.08 49.9368 3777.09 49.9408C3776.59 49.9488 3776.09 49.8543 3775.62 49.6632C3775.16 49.4722 3774.74 49.1887 3774.39 48.8304C3774.03 48.4798 3773.74 48.0599 3773.55 47.5963C3773.36 47.1327 3773.27 46.6352 3773.28 46.1342C3773.27 45.6487 3773.36 45.1669 3773.55 44.7192C3773.74 44.2716 3774.03 43.8677 3774.38 43.533C3774.73 43.1841 3775.14 42.9087 3775.6 42.7233C3776.06 42.5379 3776.55 42.4464 3777.04 42.4545ZM3921.31 42.4545C3922.32 42.4569 3923.28 42.8547 3923.99 43.5604C3924.7 44.2661 3925.1 45.2221 3925.1 46.2188C3925.1 47.2037 3924.71 48.1481 3924 48.8455C3923.3 49.5429 3922.35 49.9368 3921.36 49.9408C3920.85 49.9488 3920.35 49.8543 3919.89 49.6632C3919.43 49.4722 3919.01 49.1887 3918.66 48.8304C3918.3 48.4798 3918.01 48.0599 3917.82 47.5963C3917.63 47.1327 3917.54 46.6351 3917.54 46.1342C3917.54 45.6487 3917.63 45.1669 3917.82 44.7192C3918.01 44.2716 3918.29 43.8677 3918.65 43.533C3919 43.1841 3919.41 42.9087 3919.87 42.7233C3920.33 42.5379 3920.82 42.4464 3921.31 42.4545Z" fill="white"/>
<path d="M4161.56 56.8308C4160.18 54.275 4160.56 51.3274 4162.51 49.0655C4166.9 43.9539 4175.86 44.9225 4182.05 47.4801C4182.28 47.0992 4182.42 46.6494 4182.42 46.1705C4182.42 44.7611 4181.27 43.6201 4179.87 43.6201C4179.31 43.6201 4178.79 43.7997 4178.37 44.1045C4172.1 41.643 4164.68 41.3056 4159.78 45.9274C4159.32 45.2708 4158.55 44.8409 4157.69 44.8409C4156.28 44.8409 4155.14 45.9819 4155.14 47.3913C4155.14 48.5231 4155.88 49.4827 4156.9 49.8164C4155.43 52.6788 4154.82 55.7007 4154.75 58.6447C4156.95 57.8067 4159.23 57.199 4161.56 56.8308H4161.56Z" fill="white"/>
<path d="M4163.75 54.1411C4163.75 55.0154 4164.46 55.7246 4165.33 55.7246C4166.21 55.7246 4166.92 55.0154 4166.92 54.1411C4166.92 53.2668 4166.21 52.5575 4165.33 52.5575C4164.46 52.5575 4163.75 53.2668 4163.75 54.1411Z" fill="white"/>
<path d="M4181.9 54.1411C4181.9 53.2668 4181.19 52.5575 4180.31 52.5575C4179.44 52.5575 4178.73 53.2668 4178.73 54.1411C4178.73 55.0154 4179.44 55.7246 4180.31 55.7246C4181.19 55.7246 4181.9 55.0154 4181.9 54.1411Z" fill="white"/>
<path d="M4168.54 62.0829C4168.43 61.5932 4167.94 61.2848 4167.45 61.3918C4162.03 62.5835 4157.01 65.2065 4152.93 68.9812C4152.57 69.3222 4152.54 69.8954 4152.89 70.2636C4153.06 70.4468 4153.28 70.5448 4153.52 70.5538C4153.75 70.5629 4153.98 70.4831 4154.17 70.3126C4158.01 66.7574 4162.73 64.2868 4167.84 63.164C4168.33 63.057 4168.64 62.5727 4168.54 62.0829Z" fill="white"/>
<path d="M4166.95 60.0379C4167.45 60.0379 4167.85 59.6334 4167.85 59.1328C4167.85 58.6322 4167.45 58.2259 4166.95 58.224H4166.91C4160.67 58.224 4154.6 60.0107 4149.35 63.3937C4148.93 63.6658 4148.81 64.2263 4149.08 64.6471C4149.26 64.9155 4149.55 65.0624 4149.85 65.0624C4150.02 65.0624 4150.19 65.0153 4150.34 64.9173C4155.29 61.7249 4161.02 60.0379 4166.91 60.0379C4166.92 60.0379 4166.94 60.0361 4166.95 60.0379H4166.95Z" fill="white"/>
<path d="M4210.19 80.6142C4213.48 77.5632 4215.7 73.4439 4216.37 68.8873C4217.29 62.6638 4215.23 56.3986 4210.85 51.9509C4210.77 51.862 4210.63 51.8475 4210.52 51.9146C4210.42 51.9817 4210.38 52.116 4210.42 52.2321C4212.76 58.0365 4211.84 64.4632 4208.39 69.3227C4208.68 66.8902 4207.24 64.5013 4204.83 63.676C4204.57 63.5871 4204.28 63.7159 4204.18 63.9717C4202.52 67.9804 4198.58 70.7339 4194.07 70.7339C4189.56 70.7339 4185.76 68.0475 4184.07 64.2038C4186.03 64.8895 4187.88 65.8762 4189.54 67.1278C4189.7 67.2494 4189.89 67.3092 4190.07 67.311C4190.35 67.3129 4190.63 67.1895 4190.81 66.9519C4191.11 66.5528 4191.03 65.9833 4190.63 65.6822C4187.82 63.5581 4184.5 62.1323 4181.03 61.5573C4180.53 61.4739 4180.06 61.8095 4179.98 62.3047C4179.9 62.7981 4180.24 63.266 4180.73 63.3477C4181.45 63.4674 4182.16 63.6288 4182.87 63.8265C4182.11 64.5684 4181.07 65.0455 4179.93 65.0455H4179.93C4179.91 65.0473 4179.89 65.0491 4179.87 65.0491C4177.43 65.0491 4175.47 63.0266 4175.56 60.5924C4176.93 60.2985 4177.88 59.5874 4178.34 58.9181C4179.41 57.3473 4177.71 55.5388 4174.16 55.5388C4170.02 55.5388 4169.1 57.652 4170 58.9381C4170.69 59.9357 4172.13 60.5561 4172.95 60.5524C4172.75 63.9082 4169.72 66.3968 4166.39 65.9651L4166.39 65.9615C4166.05 65.9143 4165.72 65.8345 4165.39 65.7221C4162.29 66.7596 4159.4 68.3395 4156.85 70.3892C4158.18 74.0824 4159.65 76.5202 4159.65 76.5275C4161.3 79.2048 4163.31 81.6463 4165.62 83.7958C4165.62 83.7958 4165.62 83.8012 4165.63 83.8049C4166.49 84.6066 4167.39 85.3666 4168.32 86.0831C4170.6 87.9787 4173.79 90.5562 4175.76 91.806L4176.2 90.7104C4182.56 93.4566 4189.72 94.438 4196.8 93.0467C4196.81 93.0449 4196.82 93.0413 4196.83 93.0395C4204.36 91.5521 4208.25 87.7483 4213.95 86.5402C4214.2 86.4858 4214.38 86.2446 4214.36 85.9797C4214.25 84.7789 4213.57 81.8821 4210.11 80.6958C4210.14 80.6704 4210.17 80.6432 4210.2 80.616L4210.19 80.6142ZM4196.28 86.2772C4195.82 86.816 4195.37 87.3492 4194.91 87.8589C4192.48 90.558 4188.85 91.8405 4185.26 91.2691C4182.44 90.8211 4179.64 90.0012 4176.97 88.8475C4177.04 88.6571 4177.11 88.4739 4177.18 88.2943L4177.43 87.6612H4177.43C4177.7 87.0119 4177.98 86.4296 4178.27 85.8818C4179.02 84.4597 4178.8 82.722 4177.71 81.5357L4165.33 67.9967C4169.01 68.6624 4172.62 66.7741 4174.47 64.1549C4175.81 65.8763 4177.31 66.4531 4178.71 66.7324C4180.33 68.2234 4180.24 67.9477 4180.24 69.9194C4180.24 70.8627 4181.01 71.63 4181.96 71.63C4182.96 71.63 4183.56 71.5284 4184.16 72.1016L4184.22 72.1578C4185.3 73.2915 4184.02 74.6574 4185.37 75.7366C4186.48 76.6309 4188.05 76.0323 4188.37 75.8291C4192.88 72.9142 4197.66 71.7624 4201.47 72.6149C4203.02 72.8852 4204.38 73.5345 4205.49 74.6374C4206.91 76.0668 4207.74 77.9351 4208.02 80.0465C4204.81 79.6928 4200.64 81.1221 4196.28 86.2772H4196.28Z" fill="white"/>
<path d="M4180.73 59.3011C4180.73 59.8017 4181.14 60.2116 4181.64 60.2098C4185.87 60.2134 4190.01 61.3925 4193.61 63.6127C4193.76 63.7016 4193.92 63.7451 4194.07 63.7469C4194.38 63.7506 4194.69 63.5982 4194.86 63.3152C4195.12 62.889 4194.99 62.3303 4194.56 62.0673C4190.68 59.6729 4186.21 58.4014 4181.64 58.3941C4181.14 58.3941 4180.73 58.7986 4180.73 59.2993V59.3011Z" fill="white"/>
<path d="M4309.08 81.9309C4308.97 81.8566 4308.82 81.8405 4308.69 81.876C4307.31 82.2796 4305.75 82.5185 4304.53 82.5185C4301.16 82.5185 4299.66 80.9011 4299.66 77.2692V65.8443H4308.83C4309.1 65.8443 4309.32 65.6248 4309.32 65.3568V61.1083C4309.32 60.8404 4309.1 60.6209 4308.83 60.6209H4299.66V51.6236C4299.66 51.3557 4299.44 51.1362 4299.18 51.1362H4294.1C4293.83 51.1362 4293.61 51.3557 4293.61 51.6236V60.6209H4280.54V51.6236C4280.54 51.3557 4280.32 51.1362 4280.06 51.1362H4274.98C4274.71 51.1362 4274.49 51.3557 4274.49 51.6236V60.6209H4269.12C4268.86 60.6209 4268.64 60.8404 4268.64 61.1083V65.3568C4268.64 65.6248 4268.86 65.8443 4269.12 65.8443H4274.49V77.2692C4274.49 84.2036 4278.13 88.1809 4284.47 88.1809C4286.55 88.1809 4288.05 87.9355 4290.62 87.1672C4290.85 87.0962 4291 86.8605 4290.96 86.6151L4290.19 82.2569C4290.16 82.1214 4290.08 82.0019 4289.97 81.9277C4289.85 81.8534 4289.7 81.8373 4289.57 81.8728C4288.19 82.2763 4286.63 82.5152 4285.41 82.5152C4282.04 82.5152 4280.55 80.8978 4280.55 77.266V65.8411H4293.62V77.266C4293.62 84.2004 4297.25 88.1777 4303.59 88.1777C4305.68 88.1777 4307.17 87.9323 4309.74 87.1639C4309.98 87.0929 4310.13 86.8573 4310.09 86.6119L4309.31 82.2537C4309.29 82.1181 4309.21 81.9987 4309.09 81.9244L4309.08 81.9309Z" fill="white"/>
<path d="M4324.77 59.9582C4316.65 59.9582 4310.76 65.8691 4310.76 74.0141C4310.76 82.1591 4316.65 88.0153 4324.77 88.0153C4330.73 88.0153 4335.59 84.9387 4337.14 80.177C4337.19 80.0285 4337.17 79.867 4337.07 79.7411C4336.98 79.6152 4336.84 79.541 4336.68 79.541H4331.22C4331.04 79.541 4330.88 79.6411 4330.79 79.7993C4329.79 81.6943 4327.71 82.737 4324.93 82.737C4320.1 82.737 4317.64 79.5797 4316.88 76.4321H4337.12C4337.14 76.4321 4337.16 76.4321 4337.18 76.4321C4337.27 76.4418 4337.37 76.4257 4337.46 76.3805C4337.59 76.3095 4337.69 76.1771 4337.71 76.0221C4337.83 75.2667 4337.83 74.4565 4337.83 73.7398C4337.77 65.7562 4332.28 59.9646 4324.77 59.9646L4324.77 59.9582ZM4316.86 71.6511C4317.71 67.7126 4320.61 65.2913 4324.55 65.2913C4328.48 65.2913 4331.07 67.6577 4331.66 71.6511H4316.86Z" fill="white"/>
<path d="M4247.51 48.1015C4236.48 48.1015 4227.5 57.0794 4227.5 68.1137C4227.5 79.1481 4236.48 88.126 4247.51 88.126C4258.55 88.126 4267.53 79.1481 4267.53 68.1137C4267.53 57.0794 4258.55 48.1015 4247.51 48.1015ZM4261.2 68.1137C4261.2 75.9036 4255.06 82.2408 4247.51 82.2408C4239.97 82.2408 4233.77 76.036 4233.77 68.1137C4233.77 60.1915 4239.81 53.9868 4247.51 53.9868C4255.22 53.9868 4261.2 60.3238 4261.2 68.1137Z" fill="white"/>
<path d="M4355.87 60.0119C4352.28 60.0119 4349.12 61.2774 4346.65 63.6824V61.1063C4346.65 60.8383 4346.43 60.6188 4346.16 60.6188H4341.09C4340.82 60.6188 4340.6 60.8383 4340.6 61.1063V86.8616C4340.6 87.1296 4340.82 87.3491 4341.09 87.3491H4346.16C4346.43 87.3491 4346.65 87.1296 4346.65 86.8616V70.5297C4348.91 67.4822 4352.01 65.8874 4355.88 65.7841C4356.15 65.7776 4356.36 65.5613 4356.36 65.2966V60.4994C4356.36 60.2314 4356.14 60.0119 4355.87 60.0119Z" fill="white"/>
<path d="M4391.56 60.6206H4369.38C4369.12 60.6206 4368.9 60.8402 4368.9 61.1081V65.3566C4368.9 65.6245 4369.12 65.8441 4369.38 65.8441H4383.25L4368.51 84.0775C4368.43 84.1647 4368.4 84.2712 4368.4 84.3842V86.8667C4368.4 87.1347 4368.62 87.3542 4368.88 87.3542H4391.55C4391.82 87.3542 4392.04 87.1347 4392.04 86.8667V82.6183C4392.04 82.3504 4391.82 82.1308 4391.55 82.1308H4377.41L4391.93 64.2299C4392 64.1428 4392.04 64.0362 4392.04 63.9232V61.1113C4392.04 60.8434 4391.82 60.6239 4391.55 60.6239L4391.56 60.6206Z" fill="white"/>
<path d="M4406.84 59.9582C4398.72 59.9582 4392.83 65.8691 4392.83 74.0141C4392.83 82.1591 4398.72 88.0153 4406.84 88.0153C4412.8 88.0153 4417.66 84.9387 4419.21 80.177C4419.26 80.0285 4419.24 79.867 4419.15 79.7411C4419.05 79.6152 4418.91 79.541 4418.75 79.541H4413.29C4413.11 79.541 4412.95 79.6411 4412.86 79.7993C4411.86 81.6943 4409.78 82.737 4407 82.737C4402.17 82.737 4399.71 79.5797 4398.95 76.4321H4419.19C4419.21 76.4321 4419.23 76.4321 4419.25 76.4321C4419.34 76.4418 4419.44 76.4257 4419.53 76.3805C4419.66 76.3095 4419.76 76.1771 4419.78 76.0221C4419.9 75.2667 4419.9 74.4565 4419.9 73.7398C4419.84 65.7562 4414.35 59.9646 4406.84 59.9646L4406.84 59.9582ZM4398.93 71.6511C4399.78 67.7126 4402.68 65.2913 4406.62 65.2913C4410.55 65.2913 4413.14 67.6577 4413.73 71.6511H4398.93Z" fill="white"/>
<path d="M4361.99 47.824C4359.83 47.824 4358.2 49.4091 4358.2 51.5107C4358.2 53.6123 4359.83 55.1975 4361.99 55.1975C4364.16 55.1975 4365.79 53.5768 4365.79 51.5107C4365.79 49.4446 4364.12 47.824 4361.99 47.824Z" fill="white"/>
<path d="M4364.53 60.6206H4359.51C4359.24 60.6206 4359.03 60.8389 4359.03 61.1081V86.8635C4359.03 87.1327 4359.24 87.351 4359.51 87.351H4364.53C4364.8 87.351 4365.02 87.1327 4365.02 86.8635V61.1081C4365.02 60.8389 4364.8 60.6206 4364.53 60.6206Z" fill="white"/>
<g clip-path="url(#clip4_3077_177574)">
<path d="M4635.63 110.902C4617.08 105.28 4603.6 88.2076 4603.6 68.0039C4603.6 47.5859 4617.37 30.3711 4636.2 24.8945C4638.12 24.3239 4637.62 23.1133 4635.27 23.1133C4610.23 23.1133 4589.9 43.2475 4589.9 68.0039C4589.9 92.7603 4610.23 112.895 4635.27 112.895C4637.62 112.895 4637.77 111.542 4635.63 110.902Z" fill="white"/>
<path d="M4612.23 78.4613C4612.08 77.2507 4612.01 76.0431 4612.01 74.8324C4612.01 55.1269 4627.99 39.1922 4647.75 39.1922C4666.44 39.1922 4672.01 47.5158 4672.72 46.9452C4673.51 46.3776 4665.94 29.8723 4644.04 29.8723C4624.28 29.8723 4608.3 45.807 4608.3 65.5125C4608.3 70.0653 4609.16 74.4067 4610.73 78.3889C4611.37 80.0977 4612.37 80.0977 4612.23 78.4613Z" fill="white"/>
<path d="M4627.21 52.7808C4636.48 48.7262 4648.18 48.5843 4659.66 52.6389C4667.37 55.341 4671.87 59.1843 4672.22 58.9699C4672.86 58.6861 4667.73 50.6463 4658.52 47.1593C4647.39 42.9628 4635.41 45.1697 4626.71 51.9989C4625.71 52.7808 4626.07 53.279 4627.21 52.7808Z" fill="white"/>
<path d="M4810.9 69.569C4810.9 72.1292 4808.76 74.2637 4806.19 74.2637C4803.62 74.2637 4801.49 72.2016 4801.49 69.569C4801.49 67.0088 4803.55 64.8743 4806.19 64.8743C4808.83 64.8743 4810.9 66.9364 4810.9 69.569Z" fill="white"/>
<path d="M4657.67 95.8204L4658.24 102.082H4668.16L4664.8 65.7293H4650.04L4631.35 102.082H4641.48L4644.62 95.8204H4657.67ZM4657.17 88.777H4648.11L4655.89 73.0566H4655.96L4657.17 88.777Z" fill="white"/>
<path d="M4681.92 86.2168H4683.42L4690.49 76.613H4699.69L4689.91 88.8494L4695.91 102.082H4686.13L4682.21 91.7657H4680.78L4678.57 102.082H4670.23L4677.93 65.7293H4686.27L4681.92 86.2168Z" fill="white"/>
<mask id="mask10_3077_177574" style="mask-type:luminance" maskUnits="userSpaceOnUse" x="3066" y="-92" width="1854" height="2392">
<path d="M3066.89 2299.49H4919.67V-91.621H3066.89V2299.49Z" fill="white"/>
</mask>
<g mask="url(#mask10_3077_177574)">
<path d="M4712.74 102.079H4721.09L4724.44 86.2141C4726.3 77.4648 4722.94 76.399 4714.38 76.399C4708.39 76.399 4702.61 76.3266 4700.97 84.2215H4709.32C4709.82 81.9451 4711.24 81.45 4713.31 81.45C4716.95 81.45 4716.81 82.9414 4716.31 85.2902L4715.45 89.3448H4715.1C4714.81 86.4284 4711.1 86.5009 4708.75 86.5009C4702.68 86.5009 4699.12 88.421 4697.83 94.5376C4696.48 101.011 4699.55 102.436 4705.39 102.436C4708.32 102.436 4712.24 101.865 4713.6 98.3809H4713.88L4712.74 102.079ZM4710.39 91.5518C4713.1 91.5518 4714.88 91.7631 4714.45 93.8976C4713.88 96.5302 4712.74 97.0284 4709.24 97.0284C4707.96 97.0284 4705.61 97.0284 4706.18 94.2539C4706.68 91.905 4708.32 91.5518 4710.39 91.5518Z" fill="white"/>
<path d="M4738 76.6112L4737.21 80.1676H4737.57C4739.21 77.1787 4742.56 76.3274 4745.42 76.3274C4748.98 76.3274 4752.55 76.9674 4752.05 81.3058H4752.41C4753.62 77.6769 4757.33 76.3274 4760.54 76.3274C4766.46 76.3274 4768.96 78.7456 4767.67 84.651L4763.96 102.08H4755.61L4758.75 87.353C4759.18 84.7204 4759.61 82.7278 4756.4 82.7278C4753.12 82.7278 4752.05 84.8623 4751.48 87.6368L4748.41 102.08H4740.06L4743.34 86.6405C4743.77 84.2947 4743.92 82.7278 4740.99 82.7278C4737.57 82.7278 4736.5 84.5785 4735.85 87.6368L4732.79 102.08H4724.44L4729.86 76.6112H4738Z" fill="white"/>
<path d="M4783.15 102.079H4791.5L4794.92 86.2141C4796.78 77.4648 4793.42 76.399 4784.86 76.399C4778.87 76.399 4773.09 76.3266 4771.45 84.2215H4779.8C4780.3 81.9451 4781.72 81.45 4783.79 81.45C4787.43 81.45 4787.29 82.9414 4786.79 85.2902L4785.93 89.3448H4785.58C4785.29 86.4284 4781.58 86.5009 4779.23 86.5009C4773.16 86.5009 4769.6 88.421 4768.31 94.5376C4766.96 101.011 4770.02 102.436 4775.87 102.436C4778.8 102.436 4782.72 101.865 4784.08 98.3809H4784.36L4783.15 102.079ZM4780.87 91.5518C4783.58 91.5518 4785.36 91.7631 4784.93 93.8976C4784.36 96.5302 4783.22 97.0284 4779.73 97.0284C4778.44 97.0284 4776.09 97.0284 4776.66 94.2539C4777.16 91.905 4778.8 91.5518 4780.87 91.5518Z" fill="white"/>
</g>
<path d="M4803.62 102.08H4795.28L4800.63 76.6112H4809.05L4803.62 102.08Z" fill="white"/>
</g>
<defs>
<clipPath id="clip0_3077_177574">
<rect width="123.538" height="65.2375" fill="white" transform="translate(75 35.3848)"/>
</clipPath>
<clipPath id="clip1_3077_177574">
<rect width="227.36" height="68.44" fill="white" transform="translate(348.538 33.7832)"/>
</clipPath>
<clipPath id="clip2_3077_177574">
<rect width="236.36" height="39.7086" fill="white" transform="translate(1233.6 48.1484)"/>
</clipPath>
<clipPath id="clip3_3077_177574">
<rect width="164.216" height="54" fill="white" transform="translate(1629.96 41.0039)"/>
</clipPath>
<clipPath id="clip4_3077_177574">
<rect width="221" height="89.7812" fill="white" transform="translate(4589.9 23.1133)"/>
</clipPath>
</defs>
</svg>
