<svg width="1816" height="150" viewBox="0 0 1816 150" fill="none" xmlns="http://www.w3.org/2000/svg">
<path d="M142.092 46.2349C139.134 47.719 137.853 50.4892 137.853 58.0086C137.853 58.0086 139.332 56.5245 141.697 55.634C143.423 54.9909 144.655 54.15 145.542 53.5069C148.105 51.5776 148.5 49.2525 148.5 45.196C148.45 45.196 144.408 44.9487 142.092 46.2349Z" fill="white"/>
<path d="M124 47.9653C121.436 50.0924 120.796 53.7532 120.796 53.7532L112.515 85.6114L105.713 59.5411C105.072 56.7708 103.79 53.3574 101.868 50.9829C99.502 47.9653 94.5729 47.7674 93.9814 47.7674C93.5378 47.7674 88.658 47.9653 86.0949 50.9829C84.1725 53.3574 82.891 56.7708 82.2502 59.5411L75.8424 85.6114L67.5615 53.7532C67.5615 53.7532 66.9207 50.3398 64.3576 47.9653C60.3158 44.3045 54.3516 45.195 54.3516 45.195L70.1246 104.806C70.1246 104.806 75.2509 105.251 77.814 103.965C81.2151 102.233 82.9403 100.996 84.8626 92.8339C86.785 85.5619 91.9112 64.3891 92.3055 62.905C92.5027 62.2619 92.9463 60.3326 94.2279 60.3326C95.5094 60.3326 95.9531 62.064 96.1502 62.905C96.5938 64.3891 101.671 85.5619 103.593 92.8339C105.713 100.947 107.191 102.233 110.642 103.965C113.205 105.251 118.331 104.806 118.331 104.806L134.006 45.195C134.006 45.195 128.041 44.354 124 47.9653Z" fill="white"/>
<path d="M148.449 54.7914C148.449 54.7914 147.365 56.2755 145.245 57.5617C143.767 58.4027 142.485 58.8479 141.006 59.6889C138.443 60.9751 137.802 62.2613 137.802 64.1906V104.607C137.802 104.607 141.844 105.052 144.407 103.766C147.808 102.035 148.449 100.353 148.449 93.0806V54.7914Z" fill="white"/>
<path d="M187.636 75.1248L207.648 45.3937C207.648 45.3937 199.367 43.9097 195.079 47.7683C192.319 50.1428 189.558 54.595 189.558 54.595L182.313 65.2804C181.869 65.9235 181.475 66.3687 180.834 66.3687C180.193 66.3687 179.552 65.7256 179.355 65.2804L172.109 54.595C172.109 54.595 169.152 50.3407 166.589 47.7683C162.35 43.9097 154.02 45.3937 154.02 45.3937L173.391 75.0753L153.576 104.757C153.576 104.757 162.301 105.845 166.589 101.987C169.349 99.6121 171.912 95.5556 171.912 95.5556L179.158 84.8703C179.602 84.2272 179.996 83.7819 180.637 83.7819C181.278 83.7819 181.918 84.425 182.115 84.8703L189.361 95.5556C189.361 95.5556 192.122 99.6121 194.685 101.987C198.924 105.845 207.451 104.757 207.451 104.757L187.636 75.1248Z" fill="white"/>
<path d="M495.844 83.919C495.884 83.8795 495.924 83.8402 495.964 83.801C498.269 81.5335 500.316 78.7575 500.506 75.3373C500.78 70.4192 497.371 67.5412 494.243 64.4331C492.294 62.4818 491.075 59.9306 490.787 57.2004C490.499 54.4702 491.159 51.7244 492.659 49.4162C497.788 41.7323 509.925 42.7016 513.629 51.2142C514.54 53.4186 514.777 55.8399 514.309 58.1766C513.842 60.5133 512.69 62.662 510.998 64.355C508.001 67.468 504.582 70.2517 504.563 75.0219C504.546 79.2863 507.313 82.2187 510.018 85.0939C512.707 87.9524 514.444 91.1865 514.255 95.1648C514.148 96.9608 513.613 98.7062 512.693 100.257C511.773 101.808 510.494 103.121 508.962 104.087C502.318 108.298 492.948 104.325 491.143 96.8043C489.962 91.8891 492.424 87.3265 495.844 83.919Z" fill="white"/>
<path d="M527.973 86.7112C534.496 86.7112 539.783 81.4741 539.783 75.0137C539.783 68.5534 534.496 63.3162 527.973 63.3162C521.451 63.3162 516.163 68.5534 516.163 75.0137C516.163 81.4741 521.451 86.7112 527.973 86.7112Z" fill="white"/>
<path d="M556.858 91.0408V57.4544H557.538C559.378 57.4565 561.142 58.1814 562.443 59.47C563.744 60.7586 564.476 62.5057 564.478 64.328V91.0408H556.858Z" fill="white"/>
<path d="M557.538 90.367V58.1284C559.198 58.1284 560.79 58.7815 561.964 59.9442C563.138 61.1069 563.798 62.6837 563.798 64.3281V90.367H557.538ZM588.361 105.659C579.503 105.659 573.422 101.664 571.238 94.4099L570.976 93.5436H578.74L578.911 93.9654C580.571 98.0398 584.966 98.8949 588.361 98.8949C595.352 98.8949 598.75 95.337 598.75 88.0176V86.5523C596.137 89.762 591.95 91.628 587.175 91.628C578.914 91.628 570.023 86.1891 570.023 74.2475C570.023 64.0253 577.68 56.6062 588.229 56.6062C599.04 56.6062 606.303 63.8008 606.303 74.5088V87.7566C606.303 99.1338 599.763 105.659 588.361 105.659ZM588.229 63.6965C582.035 63.6965 577.709 68.0352 577.709 74.2475C577.709 80.3632 581.937 84.4723 588.229 84.4723C594.522 84.4723 598.75 80.3632 598.75 74.2475C598.75 68.0353 594.423 63.6965 588.229 63.6965Z" fill="white"/>
<path d="M599.43 84.5587H599.298C597.058 88.4744 592.644 90.9542 587.175 90.9542C578.741 90.9542 570.703 85.2114 570.703 74.2475C570.703 64.4585 577.951 57.2799 588.229 57.2799C598.508 57.2799 605.623 64.1322 605.623 74.5087V87.7565C605.623 100.156 597.98 104.985 588.361 104.985C580.388 104.985 574.129 101.657 571.89 94.2174H578.28C579.796 97.9372 583.617 99.5687 588.361 99.5687C595.015 99.5687 599.43 96.4362 599.43 88.0177V84.5587ZM588.229 63.0228C581.509 63.0228 577.028 67.7216 577.028 74.2475C577.028 80.7737 581.509 85.146 588.229 85.146C594.949 85.146 599.43 80.7737 599.43 74.2475C599.43 67.7216 594.949 63.0228 588.229 63.0228ZM628.71 91.8892C618.218 91.8892 611.954 85.5627 611.954 74.9656V57.4545H619.573V74.9656C619.573 81.3063 622.819 84.7985 628.71 84.7985C634.603 84.7985 637.847 81.3063 637.847 74.9656V57.4545H645.467V74.9656C645.467 85.5627 639.203 91.8892 628.71 91.8892Z" fill="white"/>
<path d="M638.528 58.1284H644.787V74.9655C644.787 85.6681 638.33 91.2154 628.71 91.2154C619.091 91.2154 612.634 85.7335 612.634 74.9655V58.1284H618.894V74.9655C618.894 81.9482 622.78 85.4724 628.71 85.4724C634.64 85.4724 638.528 81.9482 638.528 74.9655V58.1284ZM667.849 91.8892C659.326 91.8892 650.697 85.8294 650.697 74.2475C650.697 64.0253 658.354 56.6061 668.903 56.6061C679.545 56.6061 686.978 63.9679 686.978 74.5087V91.0408H679.885V86.0472C677.367 89.745 673.029 91.8892 667.849 91.8892ZM668.903 63.6965C662.709 63.6965 658.382 68.0353 658.382 74.2475C658.382 80.4597 662.709 84.7984 668.903 84.7984C675.098 84.7984 679.423 80.4597 679.423 74.2475C679.423 68.0353 675.098 63.6965 668.903 63.6965Z" fill="white"/>
<path d="M686.297 90.3669H680.565V83.6451H680.433C678.457 88.2132 673.844 91.2154 667.849 91.2154C659.416 91.2154 651.377 85.2114 651.377 74.2475C651.377 64.4585 658.625 57.2799 668.903 57.2799C679.181 57.2799 686.297 64.1975 686.297 74.5087V90.3669ZM680.104 74.2475C680.104 67.7216 675.624 63.0228 668.903 63.0228C662.182 63.0228 657.702 67.7216 657.702 74.2475C657.702 80.7737 662.182 85.4724 668.903 85.4724C675.624 85.4724 680.104 80.7737 680.104 74.2475ZM692.496 91.0408V85.0055L712.526 64.3492H693.484V57.4544H723.176V58.1282C723.182 61.5697 721.838 64.8789 719.427 67.3564L703.145 84.146H723.834V91.0408H692.496Z" fill="white"/>
<path d="M693.176 90.3669V85.2767L713.997 63.8059V63.6754H694.164V58.1284H722.495C722.495 61.3946 721.22 64.5341 718.936 66.8898L701.675 84.6893V84.8199H723.155V90.367L693.176 90.3669ZM729.643 91.0408V57.4544H730.324C732.164 57.4565 733.928 58.1814 735.229 59.4701C736.53 60.7587 737.262 62.5058 737.263 64.3282V91.0408H729.643Z" fill="white"/>
<path d="M730.324 90.367V58.1284C731.984 58.1284 733.576 58.7815 734.75 59.9443C735.924 61.107 736.584 62.6839 736.584 64.3282V90.367H730.324ZM760.593 91.8892C750.044 91.8892 742.388 84.4697 742.388 74.2475C742.388 64.0253 750.044 56.6061 760.593 56.6061C771.143 56.6061 778.8 64.0253 778.8 74.2475C778.8 84.4697 771.143 91.8892 760.593 91.8892ZM760.593 63.6965C754.399 63.6965 750.073 68.0353 750.073 74.2475C750.073 80.4597 754.399 84.7984 760.593 84.7984C766.788 84.7984 771.114 80.4597 771.114 74.2475C771.114 68.0353 766.788 63.6965 760.593 63.6965Z" fill="white"/>
<path d="M761.16 91.2153C750.882 91.2153 743.634 84.0366 743.634 74.2475C743.634 64.4585 750.882 57.2799 761.16 57.2799C771.439 57.2799 778.686 64.4585 778.686 74.2475C778.686 84.0366 771.439 91.2153 761.16 91.2153ZM772.361 74.2475C772.361 67.7216 767.881 63.0228 761.16 63.0228C754.44 63.0228 749.96 67.7216 749.96 74.2475C749.96 80.7736 754.44 85.4723 761.16 85.4723C767.881 85.4723 772.361 80.7736 772.361 74.2475ZM560.526 44.3395C561.734 44.3425 562.891 44.8197 563.743 45.6666C564.596 46.5134 565.075 47.6607 565.074 48.8567C565.073 50.0386 564.6 51.1719 563.757 52.0087C562.914 52.8457 561.771 53.3183 560.579 53.3231C559.976 53.3327 559.377 53.2193 558.821 52.99C558.264 52.7608 557.761 52.4206 557.343 51.9906C556.909 51.57 556.567 51.066 556.337 50.5097C556.107 49.9533 555.994 49.3563 556.005 48.7552C555.996 48.1725 556.11 47.5944 556.338 47.0572C556.566 46.52 556.903 46.0354 557.33 45.6338C557.746 45.2151 558.245 44.8845 558.794 44.6621C559.344 44.4396 559.933 44.3299 560.526 44.3395ZM733.647 44.3395C734.855 44.3425 736.012 44.8197 736.865 45.6666C737.717 46.5134 738.196 47.6607 738.196 48.8567C738.194 50.0386 737.721 51.1719 736.878 52.0087C736.036 52.8457 734.893 53.3183 733.7 53.3231C733.097 53.3327 732.499 53.2193 731.942 52.99C731.386 52.7608 730.882 52.4206 730.464 51.9906C730.031 51.57 729.688 51.066 729.458 50.5097C729.228 49.9533 729.115 49.3563 729.126 48.7552C729.117 48.1725 729.231 47.5944 729.459 47.0572C729.687 46.52 730.025 46.0354 730.451 45.6337C730.868 45.2151 731.366 44.8845 731.915 44.6621C732.465 44.4396 733.054 44.3299 733.647 44.3395Z" fill="white"/>
<path d="M1233.18 49.053C1228.96 51.8003 1227.19 56.7996 1229.31 60.026C1231.42 63.2365 1236.47 63.4762 1240.82 60.7289C1245.04 57.8858 1246.7 52.9982 1244.71 49.7717C1243.56 47.9828 1241.53 47.0884 1239.24 47.0884C1237.29 47.0884 1235.13 47.7273 1233.18 49.053ZM1179.37 54.4197C1174.91 54.5475 1173.38 54.5474 1173.38 54.5474L1171.02 65.249H1164.69C1164.69 65.249 1166.56 66.447 1167.62 68.6033C1168.44 70.6158 1168.8 73.3631 1168.2 76.5895C1167.16 82.6431 1165.87 88.489 1165.87 88.489C1163.62 98.8551 1167.73 102.178 1177.37 102.178C1179.84 102.178 1183.36 101.954 1185.83 101.475L1187.83 91.6995C1185.61 92.0669 1183.72 92.1786 1182.43 92.1786C1180.43 92.1786 1179.24 90.869 1179.37 89.3356C1179.37 88.0259 1179.72 86.5882 1179.95 85.3903L1182.32 74.4331H1191.47L1193.58 65.249H1183.95L1186.43 54.1802C1186.43 54.1802 1184.32 54.3079 1179.37 54.4197ZM1041.08 85.518C1041.08 93.3765 1044.37 102.912 1060.35 102.912C1069.75 102.912 1078.56 97.0663 1080.68 86.8119H1067.17C1066.1 89.9266 1063.76 93.3765 1060.35 93.3765C1056.23 93.3765 1055.18 90.2779 1055.53 85.1507C1055.76 82.5312 1057.29 73.2513 1063.53 73.2513C1067.99 73.2513 1068.35 77.8832 1068.35 79.6721H1081.85C1081.96 69.306 1074.57 63.7157 1063.99 63.7157C1049.9 63.7157 1041.08 74.9123 1041.08 85.518ZM1083.38 86.109C1083.38 95.7564 1089.02 102.673 1102.18 102.673C1115.7 102.673 1120.27 93.0253 1121.21 90.6454H1108.04C1107.11 92.5461 1105.7 93.8557 1102.77 93.8557C1100.18 93.8557 1098.77 92.5459 1098.06 91.2362C1097.36 89.8146 1097 88.1375 1097.13 86.109H1122.63C1123.09 84.3201 1123.32 82.2916 1123.32 79.9117C1123.32 68.9546 1115.34 63.9392 1105.81 63.9392C1095.47 63.9392 1083.38 70.5039 1083.38 86.109ZM1105.35 72.4207C1109.23 72.4207 1111.1 74.6729 1110.41 78.9695H1098.29C1099.25 75.2798 1101.7 72.4207 1105.35 72.4207ZM1281.71 87.3069C1281.71 93.8556 1284.28 102.321 1294.76 102.321C1299.45 102.321 1304.14 99.8135 1306.14 97.0662V97.1939C1306.14 98.6155 1306.25 100.293 1306.85 101.475H1320.48C1319.77 99.5739 1319.77 96.3474 1320.59 92.5459C1321.3 89.3355 1326.24 65.249 1326.24 65.249H1312.62L1311.55 69.9131C1309.91 66.5588 1306.4 64.3067 1300.98 64.3067C1288.39 64.3067 1281.71 76.7012 1281.71 87.3069ZM1296.03 86.237C1296.03 80.5029 1299.21 73.7144 1304.03 73.7144C1308.02 73.7144 1309.44 76.4616 1309.44 80.1513C1309.44 87.7861 1305.8 92.5459 1301.33 92.5459C1298.16 92.5459 1296.03 90.7572 1296.03 86.237ZM1239.53 85.646C1239.64 93.3766 1243.17 102.321 1258.9 102.321C1268.2 102.321 1277.02 97.0663 1279.24 86.8119H1265.72C1264.67 89.9266 1262.32 92.7855 1258.79 92.7855C1254.93 92.7855 1253.75 90.2779 1254.1 85.1507C1254.21 82.4194 1255.75 73.7144 1262.09 73.7144C1266.56 73.7144 1266.91 78.011 1266.8 79.6721H1280.3C1280.42 69.306 1273.13 64.3067 1262.43 64.3067C1248.46 64.3067 1239.53 74.9125 1239.53 85.646ZM1141.64 70.3922L1143.06 65.249H1129.89L1122.5 101.475H1136.13L1140.13 82.2916C1140.95 78.4742 1142.37 75.3917 1146.72 75.3917C1148.94 75.3917 1150.59 76.5894 1150.59 78.8415C1150.59 80.279 1149.88 82.7709 1149.52 84.9272L1146.01 101.475H1159.4L1163.74 80.9819C1164.33 78.3624 1164.69 75.7429 1164.69 74.0658C1164.69 66.5587 1158.8 64.3067 1154.12 64.3067C1148.23 64.3067 1144.48 67.1658 1141.64 70.3922ZM1208.75 71.5743V71.4463L1210.15 65.249H1197L1189.58 101.475H1203.22L1206.4 86.3486C1207.8 79.6721 1210.62 77.0526 1214.97 77.0526C1217.08 77.0526 1218.37 77.1806 1220.61 78.0112L1223.19 65.6165C1222.14 65.1373 1220.96 65.0255 1219.33 65.0255C1214.97 65.0255 1210.86 68.1242 1208.75 71.5743ZM1226.71 65.249L1219.33 101.475H1232.94L1240.35 65.249H1226.71Z" fill="white"/>
<path d="M1629.05 85.5122L1692.45 46.072H1725.34C1725.59 46.072 1725.84 46.1218 1726.08 46.2186C1726.31 46.3154 1726.52 46.4572 1726.7 46.636C1726.88 46.8147 1727.02 47.0269 1727.12 47.2604C1727.21 47.4938 1727.26 47.744 1727.26 47.9965C1727.29 48.3241 1727.22 48.6521 1727.06 48.9394C1726.9 49.2267 1726.66 49.4605 1726.37 49.6114L1695.22 68.2818C1693.2 69.493 1692.49 71.9244 1692.49 73.7457L1692.46 85.5122H1732.04V17.1289C1732.04 16.8009 1731.97 16.4762 1731.84 16.1743C1731.71 15.8724 1731.53 15.5996 1731.29 15.3723C1731.05 15.1451 1730.77 14.9681 1730.47 14.8522C1730.16 14.7362 1729.83 14.6836 1729.51 14.6975H1691.74L1628.49 53.9673V85.5122H1629.05Z" fill="white"/>
<path d="M1796 106.91H1787.58L1777.5 118.165V106.91H1770.44L1770.47 134.615H1777.5V124.087L1787.06 134.615H1796L1783.12 120.937L1796 106.91ZM1759.04 118.304L1752.6 117.577C1748.83 117.161 1747.89 116.225 1747.89 114.944C1747.89 113.524 1749.83 112.243 1753.61 112.243C1757.24 112.243 1759.15 113.594 1759.49 115.637H1766.42C1766.07 109.784 1761.15 106.148 1753.99 106.148C1745.47 106.148 1741.17 109.541 1741.17 115.532C1741.17 120.415 1744.01 122.702 1749.9 123.325L1756.45 124.017C1758.94 124.294 1760.08 125.265 1760.08 126.511C1760.08 127.931 1758.42 129.213 1754.4 129.213C1749.76 129.213 1747.89 128.035 1747.58 125.679H1740.79C1741.1 132.053 1745.26 135.307 1754.16 135.307C1762.3 135.307 1766.84 131.74 1766.84 126.373C1766.84 121.697 1764.14 118.892 1759.04 118.304ZM1715.37 134.615H1737.67V128.625H1722.43V123.603H1734.69V117.577H1722.43V112.901H1737.67V106.91H1715.37V134.615ZM1698.74 106.91H1685.79V134.615H1698.74C1708.68 134.615 1711.42 130.91 1711.42 120.554C1711.42 110.823 1708.79 106.91 1698.74 106.91ZM1698.46 128.626H1692.84V112.901H1698.46C1702.89 112.901 1704.21 114.114 1704.21 120.554C1704.21 126.441 1702.73 128.626 1698.46 128.626ZM1666.6 106.148C1656.52 106.148 1651.29 112.346 1651.29 120.693C1651.29 129.074 1656.52 135.307 1666.6 135.307C1676.71 135.307 1681.94 129.074 1681.94 120.693C1681.94 112.346 1676.71 106.148 1666.6 106.148ZM1666.6 129.074C1661.37 129.074 1658.49 125.888 1658.49 120.693C1658.49 115.602 1661.37 112.381 1666.6 112.381C1671.87 112.381 1674.71 115.602 1674.71 120.693C1674.71 125.888 1671.86 129.074 1666.6 129.074ZM1625.24 112.901H1634.18V134.615H1641.24V112.901H1650.15V106.91H1625.24V112.901ZM1614.96 124.017C1614.96 127.619 1612.74 129.074 1608.96 129.074C1605.29 129.074 1602.9 127.55 1602.9 124.017V106.91H1595.84V124.814C1595.84 132.814 1602.97 135.307 1608.96 135.307C1614.92 135.307 1622.02 132.814 1622.02 124.814V106.91H1614.96V124.017ZM1575.16 106.91L1564.53 134.615H1571.83L1573.69 129.42H1585.56L1587.39 134.615H1594.94L1584.17 106.91H1575.16ZM1575.79 123.533L1579.67 112.673L1583.49 123.536L1575.79 123.533Z" fill="white"/>
</svg>
